<svg width="43" height="38" viewBox="0 0 43 38" fill="none" xmlns="http://www.w3.org/2000/svg">
<path d="M41.5296 7.44745H41.4958C41.4958 6.81159 41.5026 6.17572 41.4958 5.53986H41.5296V7.44745Z" fill="#6F7A58" stroke="#6F7A58" stroke-width="0.99" stroke-miterlimit="10"/>
<path d="M2.21088 20.6788C2.12974 20.4082 2.33259 20.2391 2.52868 20.0768C3.44825 19.3394 4.57744 18.6495 5.55111 17.9527C8.05967 16.1533 10.5412 14.3134 13.0903 12.5546C14.6184 11.5061 16.6807 10.0179 18.3779 9.35501C18.4996 9.30766 18.6416 9.30767 18.7633 9.24002C18.8106 9.21296 18.8174 9.15208 18.8309 9.15208C19.027 9.15208 19.0202 9.30767 19.1014 9.41591C19.1893 9.53767 19.3177 9.65944 19.4192 9.76767L20.0209 10.5523C20.0209 10.417 20.0142 10.275 20.0209 10.1329C20.0547 9.54443 20.0683 8.94916 20.0886 8.36065C20.1765 5.95925 20.2847 3.57139 20.5619 1.18352C20.5686 1.09558 20.7039 1.02116 20.7782 1.00086C21.3394 0.865572 22.2117 0.818231 22.8067 0.75735C23.3476 0.703234 23.9021 0.669403 24.443 0.622052C24.5377 0.615287 24.6932 0.642345 24.7676 0.622052C24.7946 0.615287 24.8014 0.554397 24.8487 0.527339C25.0313 0.432636 25.0719 0.574708 25.18 0.588238C25.5114 0.628825 26.2349 0.561188 26.6135 0.554423C30.0349 0.500307 33.5171 0.649128 36.9385 0.852063C37.1549 0.865592 37.3577 0.879113 37.5403 0.885877C38.5883 0.912935 39.6431 1.03467 40.6844 1.15643C40.8129 1.15643 40.7858 1.06175 40.8264 1.04822C40.894 1.03469 41.0293 1.10909 41.1172 1.08203C41.3538 1.4879 41.3065 1.92761 41.3403 2.36731C41.4282 3.44286 41.4958 4.444 41.5093 5.52632C41.5161 6.16218 41.5093 6.79805 41.5093 7.43391C41.4823 10.5523 41.2727 13.664 41.2051 16.7757C41.2051 17.0869 41.2321 17.4048 41.1848 17.716C41.1239 18.9539 41.347 20.3406 41.2389 21.5582C41.1645 22.4376 40.2922 22.3226 39.6161 22.309C38.8047 22.2955 37.9662 22.2008 37.1481 22.1738C34.0783 22.079 31.0221 22.0182 27.9591 21.9438C27.8712 21.9438 27.7765 21.8896 27.6954 21.9099C27.5669 21.9437 27.7359 22.052 27.7494 22.079C28.2701 22.972 28.8448 23.7973 29.3317 24.7375C29.4804 25.0284 29.6292 25.4951 29.7982 25.7454C29.947 25.9822 30.2445 25.9889 29.9808 26.3678C29.7306 26.7195 28.5608 27.5245 28.1551 27.8154C26.7014 28.8571 25.1733 29.7974 23.706 30.8188C21.042 32.6655 18.4793 34.6475 15.7273 36.3724C15.2946 36.643 14.2195 37.3533 13.78 37.4683C13.7394 37.4818 13.5568 37.475 13.5298 37.448C13.4487 37.36 13.469 37.218 13.4149 37.1301C13.3337 36.9948 13.0497 36.7512 12.928 36.6159C9.91235 33.0308 7.02514 29.2156 4.66534 25.1637C3.90805 23.8649 3.20483 22.539 2.50162 21.2132C2.37991 20.99 2.29877 20.9359 2.2244 20.6721L2.21088 20.6788ZM34.4164 1.1632C34.0986 1.12938 33.7808 1.14292 33.463 1.12939C30.9612 1.00763 28.4459 0.919682 25.9441 0.994091C25.8697 0.994091 25.295 0.980582 25.295 1.0144C25.295 1.15646 25.3626 1.29173 25.4302 1.41349C26.5188 3.63901 28.8381 4.88369 31.3061 4.214C32.7125 3.82842 34.0039 2.56346 34.4232 1.1632H34.4164ZM25.5925 2.53642C25.3626 2.36731 25.1598 1.94112 25.0381 1.67054C24.9907 1.56231 24.8284 1.0482 24.7743 1.02791L21.353 1.3594L22.8338 3.11816C23.4626 3.74725 24.0779 4.41017 24.6932 5.05279C24.7135 5.07309 24.727 5.10691 24.727 5.13396C24.7811 5.14749 24.7811 5.12044 24.8082 5.09338C25.2071 4.73486 25.579 4.22752 25.9779 3.86223C26.1064 3.74047 26.289 3.63225 26.4309 3.53078C26.3092 3.38196 26.1402 3.26699 26.0117 3.1317C25.8833 2.99641 25.7345 2.81375 25.6263 2.6514C25.5993 2.61082 25.5249 2.65141 25.5925 2.52965V2.53642ZM40.3599 1.52851L34.8694 1.15643C34.7139 1.69083 34.484 2.17787 34.173 2.63786C34.0986 2.74609 33.9634 2.93552 33.8755 3.03698C33.6726 3.28051 33.3954 3.46314 33.2128 3.70666L34.1257 4.78897L35.2684 5.97276C35.2684 5.97276 35.3225 6.01337 35.363 5.99984C35.4306 5.97955 36.0257 5.33692 36.1339 5.23545C37.2495 4.17342 38.4801 2.9964 39.6769 2.02908C39.9001 1.8532 40.1502 1.71115 40.3599 1.52851ZM40.7994 1.49466L40.6168 1.65704C39.8392 2.6176 38.7912 3.36844 37.8648 4.214C37.1143 4.89722 36.4043 5.63454 35.6605 6.31775C35.6605 6.34481 35.7484 6.46657 35.7755 6.48686C36.4449 7.21743 37.2833 7.89388 37.9865 8.60416L38.2232 9.00328C39.1022 8.27272 40.0488 7.62332 41.0833 7.14304L41.0495 4.17342C40.9413 3.2805 40.9684 2.37407 40.8129 1.48116L40.7994 1.49466ZM21.0487 1.69763C20.9676 1.6841 20.9946 1.69759 20.9811 1.74494C20.8932 1.9817 20.9135 2.41464 20.8864 2.68522C20.7782 3.62548 20.6768 4.6131 20.6498 5.56013C20.6498 5.76307 20.6565 5.97275 20.6498 6.18245C20.9202 6.18245 21.2448 6.31778 21.495 6.42601C21.9548 6.62894 22.401 6.94686 22.827 7.21744C22.827 7.15656 22.827 7.11599 22.8608 7.06187C23.0163 6.79129 23.8751 6.10132 24.1523 5.79691C24.2064 5.73603 24.4092 5.5263 24.3957 5.46542C24.3687 5.36395 23.848 4.8837 23.7466 4.77547C22.8811 3.85549 22.0156 2.92199 21.1907 1.94114C21.1366 1.87349 21.069 1.78556 21.0555 1.69763H21.0487ZM26.6744 3.72021C26.6744 3.72021 26.6608 3.68637 26.6608 3.66608L26.627 3.67962C26.485 3.92991 26.3092 4.15311 26.1267 4.36957C25.863 4.67397 25.3694 5.0528 25.1598 5.35043C25.126 5.39102 25.0786 5.44516 25.1057 5.49927L26.5053 7.02802C26.7961 7.24448 27.0327 7.53536 27.3099 7.79241C27.5128 7.98182 27.8238 8.14418 27.8644 8.44182C27.9523 8.36741 28.0132 8.35388 28.1213 8.40123C28.1552 8.41476 28.1551 8.46209 28.1754 8.46886C28.6285 8.69209 29.095 8.9965 29.5075 9.28061C29.5818 9.33472 29.6698 9.44298 29.7847 9.47681C30.0822 8.53654 30.2242 7.54213 30.569 6.61539L30.8192 6.53422C30.8395 6.6154 30.9477 6.60186 30.968 6.65598C31.0085 6.76421 30.9342 6.93333 30.9342 7.04833C30.9342 7.1498 30.995 7.25127 31.0018 7.35274C31.0424 7.98184 31.0018 8.73947 31.11 9.34828C31.1235 9.40916 31.1844 9.64592 31.252 9.64592C31.5765 9.51739 31.8402 9.27385 32.1242 9.07768C32.3744 8.90857 32.3473 8.96268 32.5705 8.73268C33.3481 7.92771 34.1933 7.18363 34.9709 6.37865L34.9438 6.25012C34.5652 5.87131 34.1865 5.48572 33.8281 5.09338C33.6929 4.94456 32.9221 3.98401 32.8477 3.96372C32.7666 3.94342 32.6516 4.0787 32.584 4.11929C31.1911 4.92426 29.6495 5.0325 28.1281 4.50487C27.6954 4.35605 26.9989 4.01783 26.6676 3.70666L26.6744 3.72021ZM24.7879 5.84423H24.7L23.1516 7.42714C23.3612 7.67066 23.6316 7.86684 23.8412 8.11036C25.1462 9.61885 25.2071 11.8376 24.3348 13.5896C24.2469 13.7722 23.8548 14.3405 23.8345 14.4622C23.8345 14.4893 23.8142 14.5096 23.8345 14.5299C24.0238 14.5705 23.8142 14.7193 23.821 14.8478C23.821 14.8952 24.1793 15.4093 24.2402 15.4972C24.5174 15.8895 24.842 16.2683 25.1395 16.6336C25.4776 16.3563 25.8021 16.0519 26.1199 15.7475C26.7555 15.1454 27.3438 14.4893 28.074 13.9955C28.1213 13.9278 28.0402 13.8805 28.0267 13.8331C27.9658 13.5626 28.7502 12.5276 28.9395 12.257C29.0139 12.1555 29.21 12 29.2235 11.8714C29.2303 11.797 29.21 11.8308 29.1762 11.8241C28.642 11.655 27.8982 11.6617 27.337 11.5873C26.9178 11.5332 26.4986 11.4588 26.0726 11.4114C25.9779 11.3573 25.9035 11.1747 25.9644 11.08C26.0185 10.9988 26.5526 10.8973 26.6744 10.8838C26.8434 10.8635 27.0936 10.8094 27.222 10.9109C27.2761 10.7485 27.6142 10.8229 27.7765 10.8094C28.0672 10.7823 28.358 10.735 28.6488 10.7079C28.7028 10.7079 29.2573 10.7282 29.2302 10.6606C29.1559 10.4644 28.9936 10.3697 28.8786 10.2277C28.6488 9.95707 27.7562 8.93561 27.6683 8.67856C27.648 8.62444 27.6683 8.56356 27.6548 8.50944C27.4249 8.48915 27.2356 8.37417 27.0665 8.22535C26.5459 7.76536 26.0185 7.20393 25.5181 6.68306C25.2612 6.41248 24.9975 6.13514 24.7811 5.8375L24.7879 5.84423ZM21.4409 6.8589C21.3395 6.81155 20.6633 6.53423 20.616 6.58158C20.5754 7.10921 20.5754 7.63682 20.5483 8.17122C20.4943 9.34824 20.4604 10.5456 20.4469 11.7159C20.4266 13.2514 20.4604 14.7802 20.4469 16.3157C20.4807 16.3495 21.1772 15.9707 21.2718 15.9234C22.8473 15.044 23.9968 14.0225 24.3686 12.1691C24.8622 9.71355 23.564 7.89389 21.4409 6.87245V6.8589ZM36.4449 7.72478C36.1406 7.43391 35.8363 7.14301 35.5253 6.8589C35.4577 6.79802 35.4239 6.66276 35.3089 6.67629L34.3014 7.6842L34.1459 7.71801L34.2136 7.76537C34.0107 7.98859 33.7605 8.16448 33.5509 8.36742C33.436 8.48241 32.895 9.01682 32.8409 9.09799C32.7868 9.17917 32.8071 9.27384 32.7666 9.36178C32.6584 9.59177 32.3947 9.86911 32.273 10.0788C32.1107 10.3629 31.9146 10.6538 32.3406 10.7688C32.9694 10.9379 34.3623 11.0394 34.8424 11.4047C35.0655 11.5738 35.1196 11.8376 34.8356 11.9594C34.1797 12.2367 32.8071 12.0676 32.0904 12.0541C32.0363 12.0541 31.9957 12.0337 32.0093 12.1014C32.0363 12.2164 32.1918 12.5343 32.2527 12.6561C32.3541 12.859 32.9153 13.9211 33.0167 14.0158C33.2534 14.239 33.4901 14.4419 33.7335 14.6922C34.3961 15.3687 35.079 16.0045 35.7958 16.6674C35.8566 16.7216 35.8702 16.8163 35.9648 16.8298L37.7431 15.2063C37.4523 14.6516 37.1751 14.1105 37.0264 13.4949C36.668 12.0135 36.8506 10.5523 37.8513 9.36855C37.8919 9.3212 38.088 9.18593 38.0541 9.13858C38.0001 9.12505 37.946 9.11828 37.8986 9.09122C37.4321 8.80035 36.8506 8.11034 36.4381 7.71124L36.4449 7.72478ZM40.7317 16.8704L41.063 7.64361C41.063 7.64361 40.6033 7.8533 40.5492 7.88712C39.109 8.6921 37.6417 9.69326 37.3915 11.452C37.0534 13.8399 38.3652 16.2075 40.725 16.8772L40.7317 16.8704ZM2.90732 20.3812C4.51659 19.9212 6.91696 20.1038 8.57355 20.2797L9.89207 20.415C9.72979 19.8941 9.81092 19.3327 9.85825 18.7915C9.89882 18.3518 9.94616 17.8918 9.99349 17.4521C10.0543 16.8975 10.1152 16.0654 10.2369 15.5513C10.2369 15.5378 10.3654 15.3348 10.3789 15.3281C10.4803 15.2198 10.6156 15.3551 10.717 15.3619C10.8455 15.3754 11.0415 15.3213 11.1835 15.3213C11.7988 15.3416 12.5832 15.4904 13.2255 15.5581C13.5501 15.5919 15.5042 15.876 15.6462 15.7881C15.8964 14.9154 16.2142 14.0564 16.5725 13.2176C16.8362 12.5885 17.1473 12.0067 17.4515 11.3844C17.4853 11.3167 17.4853 11.2423 17.5124 11.1814L18.1953 9.9097L17.4651 10.2615C12.3736 13.2717 7.80272 17.026 2.92761 20.3338C2.88028 20.3676 2.79238 20.3338 2.75857 20.4488C2.81942 20.4826 2.91408 20.3676 2.92761 20.3676L2.90732 20.3812ZM19.4462 10.5862L19.3989 10.5185L19.3515 10.5659L19.453 10.5794L19.4462 10.5862ZM19.8248 11.0394C19.6829 10.9109 19.595 10.735 19.4462 10.62C19.4327 10.735 19.5138 10.9041 19.5071 11.0055C19.5071 11.0597 19.4462 11.0867 19.4395 11.1341C19.4395 11.1611 19.4935 11.1409 19.5206 11.195C19.5409 11.2423 19.5882 11.4926 19.5814 11.5332C19.5747 11.567 19.5206 11.5535 19.5138 11.5535C19.5071 11.567 19.595 11.7091 19.6085 11.8038C19.7099 12.7846 19.6085 14.0225 19.4733 14.9966C19.3854 15.5987 19.2434 16.2007 19.1149 16.796C19.4056 16.6607 19.7505 16.7351 20.048 16.8298C19.9804 16.3766 20.021 15.903 20.0142 15.4431C20.0007 14.6313 19.9871 13.7993 19.9939 12.974C19.9939 12.4464 20.0818 11.7294 20.0142 11.2288C20.0142 11.2017 20.0142 11.1747 19.9939 11.1476C19.9466 11.1003 19.8722 11.08 19.8248 11.0326V11.0394ZM31.989 13.7181C31.7997 13.5558 31.6171 13.3529 31.4278 13.1973C31.3872 13.1635 31.2249 13.0214 31.1776 13.062C30.9274 13.6505 30.8801 14.2863 30.7651 14.9087C30.7381 15.071 30.6705 15.4904 30.6096 15.6122C30.5893 15.6528 30.5352 15.6595 30.4879 15.6663C30.1566 15.7069 30.1228 15.5648 30.0754 15.2807C29.9673 14.6313 30.0214 13.9075 29.974 13.2446C29.9605 13.0417 29.8456 13.2446 29.7847 13.2852C29.4128 13.5219 28.9666 13.7858 28.5676 13.9752C28.4932 14.009 28.4121 13.9887 28.3377 14.0428C28.216 14.1375 28.0672 14.4622 27.9388 14.5772L25.464 16.9786C25.6939 17.2965 25.9711 17.5874 26.2281 17.8851C26.3092 17.973 26.4309 18.0677 26.5121 18.1692C26.6541 18.3315 26.8028 18.5074 26.8975 18.7036C27.0733 18.6968 27.0801 18.5209 27.1612 18.4262C28.7434 16.681 31.9281 16.8366 33.4901 18.5344C33.5712 18.6224 33.6794 18.8727 33.8011 18.8118L35.5388 17.256C35.6267 17.168 35.5185 17.0598 35.4442 16.9854C34.6125 16.0992 33.578 15.2943 32.8342 14.4013C32.6516 14.1781 32.2256 13.9143 31.9822 13.7113L31.989 13.7181ZM24.8217 16.9989V16.9042L23.3679 15.0372C23.3138 15.0304 22.9961 15.3484 22.9284 15.4025C22.2658 15.9301 21.5085 16.336 20.7782 16.7148C20.7377 16.7351 20.6768 16.7216 20.643 16.7419C20.6024 16.7622 20.5822 16.8433 20.4875 16.8433C20.5145 17.8377 20.5686 18.8389 20.7242 19.8197C20.7444 19.955 20.8391 20.5706 20.8797 20.6315C20.9 20.6585 20.927 20.6856 20.9608 20.6788C21.0284 20.6653 21.8263 19.813 21.948 19.6912C22.3605 19.2921 22.7797 18.893 23.2056 18.5074L24.8217 16.9989ZM38.4666 16.0925C38.3787 16.0045 38.1082 15.5987 38.0068 15.6054C37.9865 15.6054 37.973 15.6122 37.9595 15.6257L36.3299 17.0869V17.1883L37.0399 17.8783C37.236 18.1421 37.6146 18.3857 37.8445 18.6495C37.8851 18.6968 37.8581 18.7441 37.8648 18.7441C37.8919 18.7712 37.9865 18.7644 38.0271 18.7983C38.0947 18.8524 38.1961 18.9877 38.2773 19.0621C39.0143 19.7318 39.7378 20.4691 40.4883 21.0644C40.5695 21.1252 40.6709 21.3417 40.7994 21.3891L40.7317 17.3101C39.9406 17.1477 39.0413 16.6607 38.4734 16.0925H38.4666ZM15.4704 16.2684L10.6629 15.7001C10.5479 16.7757 10.4195 17.8512 10.2978 18.9268C10.2842 19.0418 10.3113 19.1703 10.2978 19.2921C10.2504 19.6776 10.1625 20.0768 10.0002 20.4285C10.318 20.5232 10.6561 20.5706 10.9807 20.6585C12.3668 21.0306 13.9964 21.6732 14.9295 22.8232C15.0174 22.9314 15.1391 23.0937 15.1864 23.2222L15.4839 23.0734C15.3013 22.4917 15.1796 21.8761 15.1188 21.2673C15.0917 21.0103 15.1188 20.7262 15.0512 20.4691L15.1188 20.4353C15.1188 20.4353 15.0714 20.4353 15.0579 20.415C15.0174 20.3541 15.0376 19.2041 15.0512 19.035C15.0714 18.6494 15.1323 18.2233 15.1932 17.8377C15.2743 17.3101 15.4163 16.8028 15.4907 16.2819L15.4704 16.2684ZM20.0074 17.2289C19.933 17.2763 19.6964 17.1816 19.595 17.168C19.4056 17.1477 19.2298 17.1951 19.0473 17.1004C18.6213 18.7577 18.1412 20.4353 17.3163 21.937C17.1135 22.3091 16.8633 22.7014 16.6063 23.0329C16.559 23.0937 16.3291 23.2831 16.3764 23.3508C16.7348 23.5537 17.0864 23.3914 17.4651 23.3508C18.7836 23.2155 20.1562 23.1681 21.4679 23.3237C22.117 23.3981 22.7526 23.5469 23.395 23.6552C23.4085 23.4522 23.3477 23.2831 23.3679 23.0734C23.395 22.7826 23.5032 22.2414 23.5911 21.9641C23.6181 21.8626 23.6857 21.8423 23.6993 21.7544C22.9622 21.6191 22.1779 21.6055 21.4476 21.4161C21.2516 21.3688 21.1299 21.3011 20.9608 21.2335C20.9 21.2064 20.812 21.2335 20.758 21.1997C20.7377 21.1861 20.6363 21.017 20.5957 20.9629C20.5619 20.9223 20.474 20.8885 20.4672 20.875C20.4266 20.8073 20.4942 20.7059 20.4807 20.6382C20.474 20.5774 20.3861 20.4218 20.3658 20.3203C20.1629 19.2853 20.0953 18.2233 20.0548 17.168C20.0007 17.1545 20.0345 17.2154 20.0142 17.2289H20.0074ZM25.6872 17.8851C25.6872 17.8851 25.6263 17.8512 25.5993 17.8242C25.5114 17.7295 25.2071 17.3033 25.1124 17.3033L25.0651 17.3168L21.3597 20.8952C21.3597 20.9561 21.8736 21.0576 21.9548 21.0711C22.3672 21.1455 22.8338 21.1929 23.253 21.2402C24.1861 21.3485 25.1327 21.4094 26.0726 21.4432C26.032 21.3485 25.9509 21.2673 25.9441 21.1591C25.9441 21.0103 26.0388 20.5909 26.0793 20.4285C26.2348 19.8603 26.5459 19.3597 26.8366 18.8524C26.7285 18.7645 26.5932 18.7374 26.458 18.6562C26.1605 18.4668 25.9238 18.1286 25.6872 17.8715V17.8851ZM36.0459 17.5469C36.0054 17.513 35.9175 17.4859 35.8634 17.513L33.9836 19.1771C34.2812 19.6641 34.5584 20.1715 34.7883 20.6991C34.8627 20.8682 35.0993 21.4229 35.079 21.5582C35.0723 21.6123 35.0385 21.6664 35.0182 21.7205C35.8904 21.7273 36.7694 21.7273 37.6417 21.7611C38.0947 21.7747 38.5545 21.8355 39.0075 21.8558C39.4606 21.8761 40.015 21.8423 40.4816 21.8897C40.5762 21.8964 40.6438 21.9438 40.7317 21.9573V21.8288C40.4477 21.7476 40.1908 21.4973 39.9677 21.3011C38.6356 20.1309 37.4253 18.8253 36.1 17.6483C36.073 17.628 36.0662 17.5739 36.0392 17.5536L36.0459 17.5469ZM32.4961 18.2503C31.2249 17.3913 29.2438 17.4724 27.9726 18.2977C27.2559 18.7645 26.6473 19.8941 26.4783 20.7126C26.4445 20.8682 26.4715 21.1185 26.4039 21.2741C26.3768 21.3485 26.2281 21.3282 26.2281 21.4499L34.7139 21.7205C34.1595 20.4826 33.6659 19.0486 32.4961 18.2571V18.2503ZM2.71123 20.4826H2.64363V20.5503H2.71123V20.4826ZM26.1132 21.4161V21.4499C26.1132 21.4499 26.1334 21.4297 26.1132 21.4161ZM27.8238 23.0329C27.7833 22.972 27.7089 22.8773 27.648 22.7893C27.4519 22.4985 27.2423 22.2143 27.0463 21.9235L24.0779 21.7814C23.9359 22.4376 23.8345 23.0937 23.5911 23.7228C25.4911 24.1896 27.3302 24.8458 29.1694 25.4951C29.2167 25.4478 28.953 25.0555 28.9192 24.9878C28.5676 24.3249 28.2228 23.6552 27.8171 23.0329H27.8238ZM3.597 21.9979C3.597 21.9979 3.3874 21.8761 3.37388 21.8829C3.38064 21.9641 3.4212 22.0453 3.45501 22.1197C4.05679 23.3508 4.902 24.7578 5.61873 25.9416C6.33546 27.1254 7.24152 28.6542 8.0732 29.6688C8.10701 29.7094 8.1408 29.7568 8.18813 29.7703C8.18813 29.6486 8.15433 29.5471 8.15433 29.4185C8.16786 29.0127 8.29632 28.3768 8.35717 27.9507C8.49917 27.0307 8.66822 26.1039 8.8305 25.184C8.85754 25.0149 9.0739 24.2437 9.00628 24.1557C7.48492 23.8175 5.9771 23.3576 4.60449 22.6202C4.26641 22.4376 3.92156 22.2008 3.597 22.0046V21.9979ZM15.1255 24.1355C15.0579 24.0814 14.9633 24.0814 14.8889 24.0881C14.5981 24.1152 14.1992 24.2437 13.8814 24.2843C12.9821 24.3993 12.1099 24.3925 11.2106 24.3654C11.1497 24.3654 11.0753 24.4061 11.0077 24.3925L9.45255 24.2234L8.48565 29.7703C8.91839 29.6486 9.48637 29.7433 9.93264 29.8109C10.717 29.9191 11.5013 30.095 12.2857 30.2303C12.4615 30.2641 13.0633 30.2979 13.1579 30.3588C13.1985 30.3791 13.1782 30.4738 13.2932 30.44C13.3675 29.5809 13.5771 28.7015 13.8138 27.8695C14.064 26.9766 14.5643 25.326 15.0174 24.5616C15.0782 24.4602 15.2472 24.3384 15.2608 24.2708C15.2811 24.1964 15.1255 24.2302 15.1188 24.1355H15.1255ZM16.8295 25.0013C16.7889 24.9675 16.7348 24.954 16.6942 24.9201C16.5928 24.8457 16.3494 24.5751 16.2683 24.5413C16.2142 24.521 16.106 24.5211 16.106 24.6022C16.1127 24.7375 16.4103 25.2313 16.4846 25.4004C16.9985 26.6113 17.2622 27.9101 17.2487 29.2156L17.1811 30.1491L17.0188 31.1367C17.5124 31.0894 17.9925 31.1976 18.4725 31.2382C19.3651 31.3126 20.2576 31.387 21.1434 31.4749C21.3395 31.4952 21.8128 31.6102 21.9615 31.5561C22.0697 31.5155 22.1914 31.3329 22.3266 31.2991C22.2861 30.8932 22.2861 30.5347 22.3402 30.1288C22.4078 29.6418 22.543 29.0803 22.6444 28.6C22.7391 28.1536 22.8811 27.7139 22.9622 27.2674C22.8946 27.2674 22.8202 27.2674 22.7459 27.2674C21.5423 27.0848 20.3185 26.706 19.2501 26.2866C18.4523 25.9686 17.5124 25.5154 16.8295 25.0149V25.0013ZM28.5 27.0307H28.4324V27.0645H28.5V27.0307ZM28.3986 27.0645C28.0875 27.1051 27.79 27.2066 27.479 27.2607C26.2416 27.4636 24.9163 27.4162 23.6722 27.3351C23.5775 27.3351 23.4829 27.3351 23.3882 27.3351L22.5836 31.0759L28.3174 27.1727L28.3918 27.0645H28.3986ZM13.2323 30.8053L8.391 30.0341C8.391 30.0341 8.45185 30.1965 8.47213 30.2235C9.15505 31.2991 10.1693 32.449 10.9604 33.4637C11.2782 33.8696 11.5757 34.2958 11.9003 34.7016C12.2654 35.1481 12.6576 35.5742 13.0159 36.0207C13.0903 36.0342 13.0633 35.9936 13.0565 35.9463C12.9754 35.0804 12.9551 34.2754 13.0092 33.4096L13.2323 30.812V30.8053ZM21.3868 31.9417C20.8662 31.9146 20.3523 31.8267 19.8316 31.7726C19.2366 31.7117 18.628 31.7049 18.033 31.6373C17.6679 31.5967 17.3231 31.5155 16.9918 31.3396C16.9241 31.3396 16.8836 31.7997 16.87 31.8808C16.7889 32.2461 16.6807 32.6655 16.5725 33.024C16.2547 34.1199 15.822 35.2022 15.2067 36.1696C15.5177 36.0613 15.7679 35.8313 16.0316 35.6554C17.749 34.5258 19.5071 33.3623 21.1637 32.1379C21.238 32.0838 21.3259 32.0093 21.3868 31.9417Z" fill="#6F7A58" stroke="#6F7A58" stroke-width="0.99" stroke-miterlimit="10"/>
<path d="M2.90732 20.3473V20.3811C2.90732 20.3811 2.8059 20.4961 2.73828 20.4623C2.77209 20.3406 2.85323 20.3811 2.90732 20.3473Z" fill="#6F7A58" stroke="#6F7A58" stroke-width="0.99" stroke-miterlimit="10"/>
<path d="M2.71066 20.4826H2.64365V20.5497H2.71066V20.4826Z" fill="#6F7A58" stroke="#6F7A58" stroke-width="0.99" stroke-miterlimit="10"/>
</svg>
