<svg width="24" height="58" viewBox="0 0 24 58" fill="none" xmlns="http://www.w3.org/2000/svg">
<path d="M9.35277 0.522038C10.8538 0.948202 11.1919 2.88286 11.2528 4.22899C11.4083 7.46243 9.35953 9.34295 7.37162 11.5144C7.33105 11.5549 7.08764 11.7241 7.08088 11.7511L7.75704 16.378C7.77732 16.4322 7.78409 16.4592 7.85171 16.4525C7.9937 16.4525 8.28442 16.3172 8.45346 16.2833C13.1257 15.4851 15.4991 21.35 13.1596 24.881C12.7065 25.571 11.983 26.2542 11.2731 26.6804C10.9147 26.8968 10.5969 27.0389 10.1642 27.0321C10.6713 29.1832 10.3264 31.889 8.75774 33.5396C7.64208 34.7166 6.29652 34.4866 4.86982 34.0063C3.62568 33.5937 2.3883 32.4099 2.95627 30.9894C2.98332 30.9285 3.23351 30.4753 3.26055 30.455C3.42959 30.2994 3.80825 30.5226 3.98405 30.6309C4.57907 31.0232 4.99829 31.6523 5.76236 31.9161C6.91859 32.3287 8.04102 31.4967 8.5549 30.5091C9.06878 29.5215 9.27162 28.3647 9.09582 27.2621C7.89226 27.6545 6.39118 27.5192 5.2079 27.0863C2.59792 26.1325 0.508605 23.7513 0.495082 20.8967C0.474797 16.6689 4.03137 14.0375 6.46555 11.1017C6.1748 8.70033 5.74206 6.2854 6.42498 3.91106C6.68192 3.01815 7.22962 1.97641 7.7435 1.19849C8.05453 0.731738 8.30472 0.630285 8.84565 0.494995L9.35277 0.515288V0.522038ZM6.9186 10.5132C7.31754 9.68795 7.75701 8.93708 8.06804 8.07123C8.67659 6.3801 9.19051 3.87047 8.52787 2.13199C8.43997 1.89524 8.31147 1.73966 8.20328 1.52319C6.19509 3.91783 6.43175 7.13096 6.8104 10.0532L6.91184 10.5065L6.9186 10.5132ZM10.3264 2.36876C10.1236 2.3417 9.9478 2.19964 9.75172 2.34169C9.52859 2.63933 10.3062 2.71374 10.3264 2.36876ZM10.7795 4.64839C10.4414 4.71603 9.82606 4.73633 9.71788 5.15573C9.63674 5.48042 10.4143 5.81189 10.6848 5.75101L10.7795 4.64839ZM9.85312 7.78713C9.56913 7.84801 9.35278 7.76007 9.10936 7.95624C8.64957 8.32829 8.59545 9.02502 8.48726 9.56618L8.82534 9.23472L9.85989 7.78036L9.85312 7.78713ZM7.35808 16.8989L6.68192 12.5358C5.83672 13.449 5.13351 14.714 4.68724 15.8775C3.46339 19.0433 3.40256 24.509 7.11468 26.0175C7.85845 26.3219 8.54139 26.2475 9.32573 26.3625C8.85242 24.9216 8.7104 23.4064 8.41289 21.9249C8.10862 20.4232 7.68264 18.9418 7.47979 17.4198C7.29046 17.386 7.1282 17.5212 6.9862 17.6295C6.23567 18.1977 5.64065 19.3815 5.55275 20.3082C5.47837 21.0726 5.75561 22.4458 6.45205 22.8787C6.9727 23.2034 7.35134 23.0478 7.88551 23.1087C7.95313 23.1155 8.02072 23.0817 7.99368 23.1831C7.36485 23.7243 6.83069 23.6769 6.18157 23.2102C5.65417 22.8246 5.49188 22.4458 5.28227 21.8776C4.74134 20.3623 5.24848 18.6983 6.36415 17.5415C6.62109 17.2777 6.99296 16.9666 7.35808 16.8989ZM3.37549 16.2495C3.4093 16.1683 3.41609 16.0263 3.32143 15.9857C3.26057 15.9654 2.78048 15.9586 2.75343 16.0263C2.71286 16.1075 2.87516 16.1075 2.93601 16.1683C3.09153 16.3172 3.02389 16.4592 3.37549 16.2495ZM9.71115 18.4615C9.34602 18.1301 8.85242 17.7918 8.3994 17.6092C8.29121 17.5618 8.09509 17.4874 7.98014 17.5077L9.69761 25.8213C10.1506 25.2598 10.7389 24.6375 10.9823 23.9407C11.6314 22.0873 11.1851 19.7941 9.71788 18.4615H9.71115ZM12.2264 17.9542C11.9966 18.1436 11.4083 18.5089 11.4759 18.8471C11.6044 19.4897 12.436 18.6374 12.72 18.5494C12.6389 18.448 12.3482 17.9339 12.2264 17.9542ZM1.63103 18.3465C1.5296 18.8606 1.33349 19.0771 1.9826 19.1921C2.11107 19.2124 2.69935 19.2935 2.76697 19.2327C2.84135 19.1582 2.96303 18.6374 2.86837 18.563C2.80075 18.5089 1.82035 18.4683 1.63103 18.3465ZM13.5991 21.5258C13.5315 21.2891 13.5991 20.9847 13.4706 20.7817C13.4165 20.7682 12.5307 21.0794 12.4361 21.1335C12.3076 21.2079 12.3076 21.2688 12.3211 21.4108L13.5991 21.5191V21.5258ZM2.94955 21.7761C2.55737 21.8573 2.15166 21.952 1.74596 21.9046C1.83386 22.0738 1.86768 22.4999 2.00967 22.6149C2.21928 22.784 2.84135 22.4729 3.10505 22.4796L2.94955 21.7829V21.7761ZM13.2204 23.7649L12.5104 23.731C12.5104 23.731 12.2535 23.8664 12.3414 23.934C12.4901 24.0422 12.8282 24.0625 12.9973 24.2181L13.2272 23.7649H13.2204ZM4.05165 25.5507C4.12603 25.3816 3.76769 24.9554 3.65274 24.8134C3.38227 24.8134 3.21324 25.0569 3.02391 25.2192L3.76091 25.7875C3.80824 25.7604 4.0449 25.5778 4.05842 25.5575L4.05165 25.5507ZM5.21467 33.6884C5.05239 32.924 4.78193 31.9229 4.3289 33.2825L5.21467 33.6884ZM8.56167 33.0119C8.2574 33.0661 7.98694 33.0458 7.68267 33.039C7.54744 33.269 7.57445 33.5396 7.56092 33.7966C7.61502 33.8575 8.05454 33.5328 8.12892 33.4787C8.28443 33.3502 8.43996 33.1743 8.56167 33.0119Z" fill="#6F7A58" stroke="#6F7A58" stroke-width="0.99" stroke-linecap="round" stroke-linejoin="round"/>
<path d="M23.5116 43.5646L23.4913 44.0719C23.214 46.2095 21.1315 47.0416 19.3735 45.8307C17.5749 44.5928 18.961 42.3605 20.6785 41.9276C20.7799 41.9005 21.2938 41.8058 21.3614 41.8058L22.0308 41.8397C21.4425 40.1823 20.7393 38.5656 20.1578 36.9083C19.8941 36.1507 19.4952 35.1631 19.4682 34.3649C19.4479 33.8102 19.4816 33.127 20.1105 32.9579C20.5229 33.4381 20.719 34.0672 20.9286 34.6625C21.5642 36.4686 22.1795 38.4033 22.7475 40.2365C23.0788 41.2985 23.4778 42.4485 23.5116 43.5714V43.5646Z" fill="#6F7A58" stroke="#6F7A58" stroke-width="0.99" stroke-linecap="round" stroke-linejoin="round"/>
<path d="M11.4286 56.3766C10.7727 55.8151 10.5834 54.9087 10.7795 54.0834C11.1108 52.7035 12.7201 52.0946 13.9642 51.8714L12.6119 46.4801C12.2468 46.5072 11.8681 46.4125 11.5233 46.3854C9.94106 46.2636 8.3656 46.2095 6.78338 46.2163C6.60082 46.2163 5.54598 46.1757 5.49189 46.2501C5.59332 46.6898 5.72181 47.1227 5.85028 47.5556C6.54672 49.9097 8.30475 54.3269 6.07342 56.2616C4.03818 58.0271 1.02926 55.2401 2.64528 53.2243C3.1524 52.5884 4.43709 52.0744 5.24848 52.142C5.24848 52.0879 5.25525 52.0338 5.25525 51.9797C5.25525 51.6414 4.9983 50.6944 4.90364 50.3156C4.28833 47.9006 3.42962 45.5195 2.93603 43.0708C2.86165 42.6987 2.64526 41.6502 2.66555 41.3323C2.67907 41.1903 2.82107 40.9197 2.96306 40.8588C3.06448 40.8114 3.75417 40.9805 3.9435 41.0008C6.53319 41.3323 9.17023 41.5894 11.7734 41.8735C12.1656 41.9141 12.551 41.9546 12.9229 42.0494C12.977 42.0629 13.0446 42.0088 13.119 42.0494C13.1663 42.0696 13.2745 42.232 13.2948 42.2861C13.856 44.6807 14.2888 47.1092 14.8567 49.5106C15.2557 51.2085 16.4119 53.9684 15.3977 55.531C14.5795 56.7892 12.6592 57.4318 11.4218 56.3766H11.4286ZM4.39652 42.5567C4.54527 42.9626 4.65346 44.1464 4.95097 44.4102C5.24848 44.674 6.33034 44.471 6.72928 44.4643C8.47377 44.4372 10.1168 44.7146 11.8275 44.789C11.9222 44.789 12.1859 44.8363 12.2197 44.7349C12.2467 44.6469 11.9966 43.5984 11.9357 43.4631C11.7532 43.0708 11.3948 42.9761 10.9958 42.9084C9.18374 42.604 7.20936 42.7731 5.38372 42.6514C5.07269 42.6311 4.72784 42.5296 4.40328 42.5567H4.39652Z" fill="#6F7A58" stroke="#6F7A58" stroke-width="0.99" stroke-linecap="round" stroke-linejoin="round"/>
</svg>
