<svg width="73" height="77" viewBox="0 0 73 77" fill="none" xmlns="http://www.w3.org/2000/svg">
<path d="M51.2185 76.1629C46.5597 76.88 41.4344 75.2429 39.9469 70.3657C38.554 65.8132 39.3857 59.8875 40.1565 55.2674C41.0828 49.7069 42.4554 44.2209 43.4426 38.7011C43.4629 38.5929 43.6252 38.4508 43.6658 38.2817C43.8078 37.7338 43.7875 36.2456 44.2608 35.975C44.7679 35.6841 44.9708 36.2524 45.248 36.5432C47.574 38.9379 51.0833 40.6493 54.1801 41.8466C59.7584 43.9977 65.6951 44.4645 71.6047 43.3889L72.0374 43.6663L72.0713 43.8151C70.9624 46.4465 70.2794 49.2334 69.3261 51.9257C67.4734 57.1682 64.7214 62.4513 61.7125 67.1188C59.2175 70.9948 56.1139 74.35 51.6445 75.9059C51.516 75.9465 51.401 75.9938 51.3537 76.1291C51.3064 76.1359 51.259 76.1562 51.2049 76.1629H51.2185ZM46.9046 42.2322C45.9106 41.434 44.9369 40.5749 44.085 39.6211C44.0241 39.594 43.9295 39.912 43.9092 39.9796C43.49 41.5287 43.2127 43.2874 42.8679 44.8703C41.9145 49.1928 41.0017 53.5965 40.3526 57.9935C39.6899 62.4783 39.4871 67.457 41.1437 71.7592C46.8099 79.3084 55.5189 74.8777 60.0289 68.5934C61.699 66.2597 63.4096 63.3239 64.7687 60.7872C67.0677 56.5053 68.8595 51.9731 70.2253 47.3056C70.2389 47.0756 69.7994 47.3732 69.6777 47.407C62.2467 49.4973 52.8345 47.0011 46.9113 42.2389L46.9046 42.2322ZM47.4185 39.364C46.4516 39.0326 46.2352 40.3314 47.0195 40.3719C47.601 40.4058 47.3779 39.7225 47.4185 39.364ZM51.0968 41.5692C50.5694 41.4813 50.069 42.1713 50.4409 42.5907C51.1644 43.416 51.8473 42.1916 51.0968 41.5692ZM54.8359 43.3754C54.6061 43.2604 53.9772 43.4904 53.9028 43.7339C53.6797 44.4374 54.8427 44.9177 55.2822 44.3292C55.3701 44.0924 55.0456 43.4768 54.8359 43.3754ZM59.5488 44.7012C59.4676 44.6403 59.1972 44.5998 59.0957 44.4848L58.9943 44.5118C58.5481 45.4318 58.0612 46.0541 59.5691 45.9797C59.5826 45.6077 59.9139 44.9786 59.5555 44.7012H59.5488ZM63.0648 46.3788L64.3428 46.4397L64.7349 45.3236L63.3691 45.2153L63.0648 46.3721V46.3788ZM69.2179 45.0462L68.5147 45.0192L68.1563 46.0744C68.7919 45.9797 69.3396 45.7971 69.2179 45.0462Z" fill="#6F7A58" stroke="#6F7A58" stroke-width="0.85" stroke-linecap="round" stroke-linejoin="round"/>
<path d="M25.0443 0.434302C25.2269 0.52224 25.1525 0.786054 25.1795 0.833405C25.1795 0.84017 25.2877 0.813119 25.3418 0.914586C28.0329 5.49416 30.9202 10.4728 33.2394 15.235C33.4896 15.7424 33.5639 16.1212 33.8817 16.5406C34.5444 17.3997 35.775 20.1664 36.3091 21.296C38.3106 25.5644 41.2181 33.5736 38.6487 37.9841C34.3889 45.2965 24.8212 42.0089 19.4254 38.0449C13.0898 33.391 7.93745 27.1406 3.04881 21.0593C2.35912 20.1934 0.932425 18.8879 0.682245 17.9273C0.668722 17.88 0.486169 17.9341 0.438838 17.7514C0.377983 17.5011 0.540255 17.2644 0.77015 17.1697C1.72354 16.7773 3.27196 16.6082 4.33353 16.3038C12.5759 13.9227 17.9108 8.98464 23.1984 2.55159C23.7123 1.92926 24.3681 1.25957 24.6048 0.488419C24.6724 0.420774 24.9632 0.407247 25.0376 0.447834L25.0443 0.434302ZM24.3614 5.82561C24.4087 5.74444 23.6582 4.90564 23.4689 4.89888C23.1308 4.88535 22.6101 5.67003 22.3735 5.90002C22.387 6.06237 23.2795 6.83352 23.4215 6.82676C23.8137 6.56294 23.8881 5.96766 24.3681 5.83237L24.3614 5.82561ZM37.6277 38.2885C39.8793 35.0483 38.9394 30.8949 37.8846 27.357C36.37 22.2498 33.3678 16.6894 30.8187 11.9813C29.4867 9.51904 27.9721 7.14469 26.6941 4.64858C24.5304 7.76702 22.0962 10.7299 19.1955 13.1989C15.4225 16.4053 10.5204 18.5632 5.75345 19.8958C4.9691 20.1122 4.16447 20.2475 3.3666 20.3964C4.88796 22.1957 6.20648 24.1845 7.76165 25.9568C10.7368 29.3526 14.0499 32.6063 17.451 35.5218C19.04 36.8882 20.4126 38.1532 22.2721 39.1611C26.9849 41.7248 33.9629 43.5715 37.6344 38.2885H37.6277ZM20.5478 10.1414L19.5269 9.00493C19.1685 9.24845 18.303 9.73549 18.5937 10.2293C18.6411 10.3105 19.3646 11.0208 19.4187 11.0208C19.7027 11.041 20.2165 10.2361 20.5411 10.1414H20.5478ZM16.2475 13.7266C16.2948 13.6589 15.551 12.8675 15.3684 12.8675L14.2393 13.6792L14.9492 14.4977C15.24 14.518 15.8485 13.713 16.2542 13.7266H16.2475ZM11.3926 16.2903C11.2101 16.1482 11.1627 15.8844 11.0207 15.7356C10.7097 15.4109 10.0403 15.7288 9.83069 16.0468C10.2364 17.0344 10.6624 16.5744 11.3926 16.2903ZM6.19297 17.4944C5.94279 17.3726 5.05701 17.7514 5.06377 17.8664C5.341 18.6985 5.99687 18.2385 6.61893 18.2114C6.66626 18.1302 6.32144 17.5553 6.19297 17.4876V17.4944Z" fill="#6F7A58" stroke="#6F7A58" stroke-width="0.85" stroke-linecap="round" stroke-linejoin="round"/>
<path d="M52.422 63.0939C54.0786 64.2642 55.2619 66.2529 55.2957 68.3161C55.3092 68.9114 55.0523 70.5416 54.1124 69.9396C53.6459 69.6352 52.8818 68.3634 52.4018 67.8561C50.3733 65.6847 47.8918 65.0894 45.2277 66.6385C44.7206 66.9361 43.9227 67.6667 43.4561 67.8561C42.5569 68.2146 42.8747 67.1255 43.0234 66.6588C44.3352 62.6407 48.7775 60.5234 52.4153 63.1007L52.422 63.0939Z" fill="#6F7A58" stroke="#6F7A58" stroke-width="0.85" stroke-linecap="round" stroke-linejoin="round"/>
<path d="M44.0647 52.0745C44.1053 52.0881 44.2946 52.291 44.4231 52.3587C45.6875 53.0351 47.1953 53.786 48.6693 53.3327C49.1629 53.1839 50.1704 52.3384 50.5558 52.778C51.1238 53.4139 50.6573 54.2189 50.1975 54.7668C49.4334 55.6936 47.6754 57.1209 46.4651 57.2359C44.7679 57.3982 43.5779 54.7939 43.2465 53.4477C43.2127 53.2989 43.1519 52.7916 43.1789 52.6563C43.2263 52.3992 43.774 51.9798 44.0579 52.0813L44.0647 52.0745Z" fill="#6F7A58" stroke="#6F7A58" stroke-width="0.85" stroke-linecap="round" stroke-linejoin="round"/>
<path d="M56.3979 59.8402C54.8495 58.9134 55.1064 55.8085 55.3431 54.2662C55.6338 54.3339 55.8434 53.9145 56.1409 54.0971C56.4384 54.2798 56.7833 55.0712 57.0335 55.3891C57.7299 56.2888 58.6833 56.8029 59.799 56.9585C60.4616 57.0532 62.1791 56.8029 62.1047 57.865C62.0776 58.3114 60.7321 59.1773 60.3331 59.3937C59.2986 59.9484 57.4865 60.4896 56.3979 59.8334V59.8402Z" fill="#6F7A58" stroke="#6F7A58" stroke-width="0.85" stroke-linecap="round" stroke-linejoin="round"/>
<path d="M46.2825 47.8332C47.9256 47.3123 50.7722 47.4544 52.3004 48.2864C52.4491 48.3676 53.0238 48.7802 53.0238 48.9088C53.0238 48.9426 52.7466 49.5176 52.7196 49.5378C52.4085 49.7949 50.7858 49.6325 50.2922 49.6461C48.0405 49.7137 46.5259 50.2481 44.4163 50.7419C43.6387 50.9246 42.5163 50.884 43.1113 49.8152C43.5643 49.0035 45.4035 48.1173 46.2825 47.84V47.8332Z" fill="#6F7A58" stroke="#6F7A58" stroke-width="0.85" stroke-linecap="round" stroke-linejoin="round"/>
<path d="M59.4271 49.592C59.4271 49.592 59.684 49.9234 59.7043 49.9369C59.8125 49.9978 59.9477 49.964 60.0559 50.0316C61.7463 51.0801 63.4773 53.928 63.4976 55.9303C63.4976 56.2753 63.4705 56.5865 63.1257 56.7623C62.9161 56.8706 62.5983 56.5932 62.4766 56.4444C61.9221 55.7477 61.5502 54.7871 60.9146 54.0159C60.0018 52.9066 58.7442 52.1489 57.8313 51.1343C57.3377 50.5863 56.9658 49.9369 57.8854 49.5784C58.1424 49.477 59.2107 49.477 59.4271 49.592Z" fill="#6F7A58" stroke="#6F7A58" stroke-width="0.85" stroke-linecap="round" stroke-linejoin="round"/>
<path d="M29.6963 37.0573C26.924 36.8882 24.4223 36.1306 22.0828 34.5342C21.6906 34.2704 19.8785 32.8836 19.7365 32.5792C19.5945 32.2748 19.6486 31.9231 20.0407 31.8825C20.2368 31.8622 21.1632 32.126 21.481 32.1734C26.0586 32.8295 30.2981 32.0787 31.6572 27.0323C31.8127 26.4438 32.0696 24.0221 32.4551 23.7921C33.1583 23.3863 33.7262 24.3806 34.0575 24.8948C35.7479 27.5261 36.1334 31.0775 34.6052 33.8645C33.7938 35.3459 31.4408 37.1656 29.7031 37.0573H29.6963Z" fill="#6F7A58" stroke="#6F7A58" stroke-width="0.85" stroke-linecap="round" stroke-linejoin="round"/>
<path d="M26.7144 20.8699C26.4507 21.1878 26.1735 21.5734 25.9436 21.9184C25.8151 22.1078 25.619 22.7639 25.3621 22.7572C25.0308 22.7436 24.6792 22.3378 24.5372 22.0604C23.2052 19.5034 25.619 15.9791 28.4048 15.925C29.5611 15.9047 31.5084 16.5812 32.0561 17.6703C32.739 19.0299 30.3522 18.9758 29.6152 19.1314C28.2493 19.4087 27.5867 19.8146 26.7144 20.8699Z" fill="#6F7A58" stroke="#6F7A58" stroke-width="0.85" stroke-linecap="round" stroke-linejoin="round"/>
<path d="M17.0183 29.8531C17.0183 29.8531 17.0183 29.9749 16.971 29.9884C16.1325 29.8937 15.6998 29.0549 15.4563 28.304C14.3407 24.9218 17.3496 22.3648 20.5749 23.6771C21.1834 23.9274 22.8062 24.8406 21.9881 25.5915L19.1955 26.3694C18.3368 26.6941 17.9852 27.1 17.6539 27.9117C17.4375 28.4461 17.2887 29.4811 17.0183 29.8531Z" fill="#6F7A58" stroke="#6F7A58" stroke-width="0.85" stroke-linecap="round" stroke-linejoin="round"/>
<path d="M28.3305 12.1437C29.1757 12.7186 29.0742 13.9227 28.0532 14.2609C26.7618 14.6803 25.3959 14.4436 24.2262 15.3365C23.6988 15.7424 22.1301 17.677 21.4607 16.5474C20.7304 15.3162 22.2247 13.4086 23.2255 12.7389C24.4763 11.9001 26.9917 11.2372 28.3372 12.1504L28.3305 12.1437Z" fill="#6F7A58" stroke="#6F7A58" stroke-width="0.85" stroke-linecap="round" stroke-linejoin="round"/>
<path d="M17.6742 20.6872C17.5254 21.0119 16.3556 21.4787 16.0108 21.6884C15.0642 22.2701 14.4759 23.0751 13.8674 23.9815C13.5631 24.428 12.8599 25.8891 12.3933 26.0041C11.9268 26.1191 12.0079 25.7877 11.9336 25.72C11.893 25.6862 11.7848 25.7065 11.751 25.6727C11.582 25.5036 11.4738 24.7662 11.4738 24.5024C11.4332 22.2431 13.8268 19.7064 16.0649 19.5711C16.545 19.544 17.5389 19.5846 17.7215 20.119C17.7485 20.1934 17.708 20.6128 17.6809 20.6805L17.6742 20.6872Z" fill="#6F7A58" stroke="#6F7A58" stroke-width="0.85" stroke-linecap="round" stroke-linejoin="round"/>
</svg>
