<svg width="73" height="64" viewBox="0 0 73 64" fill="none" xmlns="http://www.w3.org/2000/svg">
<path d="M41.2178 0.424988C41.4071 0.485868 41.6167 0.485885 41.8128 0.526472C43.1178 0.790287 44.0644 1.52087 45.2071 2.10261C45.6331 2.31908 46.1875 2.44084 46.6406 2.61672C46.8705 2.70466 47.1274 2.86698 47.3641 2.96845C47.6142 3.06992 48.3512 3.27963 48.5135 3.40816C48.5676 3.44874 48.5744 3.49608 48.5744 3.56373L48.6352 3.48256L51.9687 4.6393C53.5509 5.09252 55.1264 5.53898 56.783 5.65398C57.1413 5.68104 57.5741 5.62015 57.8919 5.73515C57.973 5.52545 58.1015 5.67425 58.1691 5.67425C58.3381 5.67425 58.5477 5.64721 58.7168 5.61339L58.7776 5.69456C58.7506 5.58633 58.9805 5.58634 59.0751 5.57281C59.704 5.48487 60.3801 5.4916 61.009 5.41042L61.0495 5.49164C61.5837 5.41046 62.7535 5.72838 63.1186 6.10719C63.5851 6.5807 63.9367 7.29775 64.5182 7.72391C65.5122 8.45448 67.135 8.55594 67.8517 9.65855C67.9261 9.77355 67.9531 9.87503 67.9937 9.92915C68.0208 9.96974 68.0884 9.92911 68.1154 9.97646C68.2506 10.1862 68.5346 11.0926 68.5482 11.3429C68.5482 11.4376 68.5955 11.9788 68.5887 12.0126C68.5887 12.0396 68.5143 12.0329 68.5076 12.0667C68.4873 12.1547 68.5008 12.5605 68.4873 12.7229C68.4535 13.2167 68.3994 13.7376 68.4062 14.2381C68.4062 14.3328 68.4062 14.6102 68.5076 14.5764L68.4264 14.6372C68.4332 14.8537 68.5549 15.104 68.5684 15.2934C68.6022 15.7466 68.6293 15.8413 68.8524 16.2539C69.3528 17.2077 70.198 18.0736 70.7795 18.9936C72.1048 21.0906 72.8756 23.6678 71.4218 25.9204C71.1446 26.3466 70.7321 26.8133 70.4076 27.1583C70.2791 27.3004 70.1101 27.5642 69.9343 27.5439C69.9343 27.6183 69.9884 27.6521 70.0087 27.7266C70.1371 28.2136 70.3467 29.2824 70.3265 29.7694C70.3197 29.9859 70.2115 30.1685 70.1845 30.3512C70.1439 30.615 70.1642 30.9667 70.1236 31.2508C69.8329 33.3952 68.1966 34.8225 66.4385 35.8236C65.3161 36.4595 63.93 36.6625 62.9293 37.4066C62.51 37.7177 62.4492 37.8936 62.2463 38.3603C62.2125 38.4347 62.1043 38.4821 62.1449 38.5836C62.6385 38.9489 63.1321 39.3818 63.4499 39.9297L63.335 40.0109C63.477 40.4844 63.1118 42.0064 62.6994 42.2432C62.6182 42.2905 62.3004 42.3379 62.2937 42.392C62.2801 42.7708 62.3207 43.1699 62.2937 43.5487C62.2463 44.3266 62.0841 45.1181 62.057 45.9163C61.9759 48.1756 62.2463 50.5973 62.9698 52.7349C63.1727 53.3369 63.5649 53.8984 63.5175 54.5884C63.4567 55.4339 63.3688 56.2254 62.9766 57.0101C61.9353 59.0733 59.1969 60.1894 57.121 60.8253C49.3249 63.2064 41.1231 62.9966 33.07 63.2875C31.6974 63.3349 30.3316 63.477 28.959 63.4905C27.3903 63.5108 25.8148 63.362 24.2529 63.1996C22.691 63.0373 20.1554 62.8343 18.9112 61.9887C18.1336 61.4611 17.1397 60.1691 17.2614 59.168C17.2749 59.0597 17.4169 58.8365 17.4169 58.7621C17.4169 58.6877 17.1938 58.1127 17.1532 57.9504C17.0788 57.646 16.9301 56.868 16.9842 56.5975C16.9909 56.5569 17.0991 56.5974 17.0585 56.4892L16.9436 56.5298C17.0653 56.3877 16.9436 56.2998 16.9233 56.1307C16.903 55.9616 16.9706 55.7316 16.903 55.549L16.9842 55.5692V55.4881C16.9842 55.4881 16.9233 55.4881 16.9098 55.461C16.8692 55.3866 16.7948 54.5478 16.7881 54.3854C16.7881 54.2637 16.7475 54.0878 16.8692 54.0608C16.6529 53.9661 16.7678 53.6481 16.6731 53.4519L16.7475 53.3978C16.5717 53.3843 16.6799 53.0528 16.6664 52.9446C16.619 52.417 16.4973 51.8826 16.4703 51.355C16.3486 51.355 16.281 51.47 16.1795 51.5241C16.1525 51.5444 16.1052 51.5173 16.0849 51.5241C16.0511 51.5444 16.0173 51.6526 15.8955 51.6729C15.7738 51.6932 15.9023 51.5105 15.7603 51.5511L15.7738 51.6729C15.6183 51.7608 15.5439 51.8217 15.4628 51.6323L15.3411 51.7879H15.2464L15.2194 51.7067L15.1991 51.8285L15.1383 51.7473L15.0909 51.8285C14.8543 51.8894 14.1375 51.7067 13.9009 51.5917C13.5087 51.4091 13.2585 51.037 12.8325 50.9085C12.6094 50.8408 12.4539 50.8611 12.2308 50.9017L12.2713 50.8003L12.1902 50.78C12.1902 51.0032 11.7845 51.0303 11.6155 51.1047L11.5546 50.9829C11.5749 51.2535 11.2774 51.2467 11.1083 51.3076C11.088 51.3144 10.9934 51.4294 10.9055 51.4699C10.1414 51.8149 9.66135 51.8149 8.87024 51.5105C7.72753 51.0708 7.05813 49.4541 5.93571 48.8589C4.53606 48.1148 3.50829 48.5003 2.1154 47.303C1.80437 47.0325 1.40544 46.7348 1.37839 46.2816L1.31753 46.3628C1.31753 46.3628 1.26344 46.3086 1.24992 46.268C0.932122 45.5375 0.539948 44.8678 0.499379 44.0087C0.499379 43.9343 0.553474 43.8531 0.425003 43.8734V42.8317C0.519665 42.8993 0.512902 42.879 0.499379 42.7776C0.479094 42.5746 0.431764 42.4732 0.506142 42.2635C0.512903 42.2364 0.58052 42.2296 0.58052 42.2026C0.594043 42.1214 0.546711 42.047 0.553473 41.9793C0.560234 41.8982 0.749559 41.2894 0.783367 41.215C0.810414 41.1609 0.87803 41.1608 0.891553 41.1135C0.945646 40.9647 0.837459 40.8497 1.0065 40.7482C1.03355 40.7347 1.08088 40.7482 1.08764 40.7482C1.08764 40.7482 1.04707 40.6738 1.05383 40.6197C1.0944 40.3153 1.32429 39.9365 1.49334 39.7065C1.56771 39.605 1.52038 39.6794 1.588 39.6185C1.62181 39.5915 1.91255 38.9827 2.00046 38.8474C2.14245 38.6242 2.41291 38.3536 2.48729 38.0965C2.54138 37.9274 2.55491 37.9748 2.58195 37.9071C2.59548 37.8598 2.54815 37.7718 2.58195 37.6839C2.61576 37.5959 2.77804 37.6027 2.61576 37.393C2.82537 37.0345 2.53462 36.4189 2.42644 36.0537C1.98017 34.5925 1.54743 33.199 1.24316 31.8055C1.11469 31.217 1.02002 30.5947 0.884792 30.1144C0.871269 30.0738 0.918599 29.9318 0.92536 29.8844L0.844222 29.8574L0.92536 29.695L0.844222 29.6747C0.992977 29.6274 0.932124 29.2891 0.884792 29.1539H0.965931C0.938884 28.9847 0.850983 28.8765 1.04707 28.7953V28.7141L0.965931 28.6736C1.04707 28.633 1.13497 28.5315 1.12821 28.4368C1.12821 28.3962 1.02678 28.4368 1.04707 28.3759H1.16202L1.08088 28.3151C1.25668 28.2812 1.18906 28.0513 1.20935 28.0242C1.31753 27.8821 1.25668 27.9295 1.29049 27.8618C1.54743 27.3612 2.13569 26.6375 2.56167 26.2451C4.25207 24.7028 6.64568 23.6949 7.93714 21.7399C7.97095 21.6926 7.99124 21.652 7.96419 21.5911H8.07237C8.11971 21.3206 8.4037 21.0702 8.54569 20.8403C8.9311 20.2112 9.33003 19.528 9.6884 18.8853C9.73573 18.8042 9.72897 18.5809 9.85744 18.5742L9.7763 18.493C9.99943 18.5065 9.9183 18.3509 9.94534 18.2765C9.97239 18.2021 10.0738 18.1548 10.0535 18.0466L10.1347 18.0871C10.1211 17.803 10.3781 17.6813 10.3781 17.4107H10.493C10.4119 17.2416 10.5133 17.3092 10.5674 17.2213C10.6688 17.0454 10.7364 16.7477 10.8311 16.5719C11.0069 16.2336 11.3856 15.7196 11.4937 15.3813C11.5208 15.2934 11.5276 15.2054 11.5276 15.1175L11.6425 15.1581C11.5816 14.9755 11.7101 14.9687 11.7304 14.9078C11.8115 14.7049 11.8927 14.4817 12.0212 14.2787C12.0347 14.2517 12.082 14.2449 12.1091 14.2314L12.0752 14.1231L12.1834 14.0623L12.1564 13.927L12.393 13.839L12.2781 13.7173C12.4133 13.7037 12.4607 13.4534 12.5215 13.3452C12.5553 13.2911 12.6229 13.2708 12.6635 13.1626C12.7041 13.0476 12.6703 12.9326 12.677 12.919C12.6838 12.9055 12.7649 12.892 12.8123 12.8311C13.0692 12.4455 13.3126 11.9247 13.5696 11.5323C13.6236 11.4512 13.7521 11.1941 13.7995 11.1468C13.8671 11.0859 13.9753 11.1129 14.0429 11.052C14.0902 11.0115 14.1578 10.8085 14.2187 10.7274C14.9963 9.64503 17.0247 8.86709 18.2824 8.42064C21.1493 7.3992 23.739 7.72389 26.6871 7.27743C29.6351 6.83098 31.6636 5.38338 33.922 3.77343C35.849 2.40023 37.891 0.695566 40.359 0.465573L40.4537 0.424988H41.1637H41.2178ZM42.0427 1.44643C41.948 1.40585 41.3395 1.3179 41.2042 1.31114C38.3982 1.12173 35.68 3.67197 33.496 5.18045C31.8124 6.34395 29.9664 7.43303 27.965 7.92007C25.4565 8.53564 22.8262 8.24476 20.3176 8.75886C20.0472 8.81298 19.7159 8.94829 19.4724 8.98887C19.4116 8.99564 19.3102 8.94829 19.3034 8.95506C19.2899 8.96182 19.2966 9.02945 19.229 9.06327C19.1411 9.11062 18.9383 9.1309 18.8233 9.17149C17.6333 9.61118 15.7941 10.2268 14.9827 11.2212C14.8543 11.3767 14.7461 11.6 14.6244 11.742C14.5162 11.8773 14.3674 11.9246 14.2931 12.0058C14.2592 12.0396 13.955 12.4793 13.9212 12.5335C13.9212 12.547 13.9482 12.6079 13.9347 12.6485C13.9009 12.7702 13.7318 12.7567 13.7859 12.9664C13.6101 12.9326 13.6575 13.2437 13.5493 13.379C12.9678 14.3937 12.5215 15.361 11.9806 16.4163C11.5343 17.2821 11.0407 18.2224 10.5877 19.068C10.5201 19.1897 10.4592 19.4265 10.3037 19.3995V19.44C10.493 19.44 10.2767 19.6024 10.2496 19.643C9.95886 20.1368 9.75601 20.5832 9.4247 21.0635C9.39765 21.1041 9.32327 21.1244 9.31651 21.1379C9.28947 21.192 9.35708 21.2597 9.34355 21.2867C9.33679 21.3003 9.12043 21.4761 9.07309 21.4558L9.14747 21.5573C9.04605 21.6723 8.9311 21.8008 8.8432 21.9226C7.86953 23.3093 6.68625 24.3578 5.28659 25.2575C5.22574 25.2981 5.20546 25.3928 5.09727 25.3928C5.0567 25.3928 5.10403 25.2913 5.03642 25.3116C5.08375 25.5146 4.84033 25.5484 4.69157 25.6633C4.0357 26.1572 3.35278 26.6239 2.79156 27.1719C2.62929 27.3274 2.38587 27.8753 2.23711 28.1121C2.10188 28.3286 2.09512 28.2068 2.06807 28.4639C2.06131 28.545 1.98017 28.5856 1.96665 28.6465C1.95312 28.7006 1.99369 28.7547 1.98017 28.7885C1.96665 28.8427 1.89227 28.8359 1.87875 28.8562C1.87198 28.8697 1.91255 29.0592 1.87875 29.12C1.84494 29.1809 1.79084 29.1674 1.79084 29.1674C1.77732 29.1945 1.8517 29.2283 1.85846 29.2688C1.88551 29.4244 1.81113 29.9115 1.83142 30.1482C1.88551 30.872 2.16273 31.8867 2.33854 32.6037C2.62928 33.774 3.03498 34.9578 3.37306 36.0604C3.51505 36.5339 3.63676 37.0142 3.61648 37.5148H3.77876C3.77876 37.8124 3.68409 38.0153 3.58267 38.2792L3.50829 38.2386C3.35278 38.5565 3.06879 38.8338 2.8727 39.1112C1.5001 41.0932 0.661659 43.9005 2.16273 46.1192C3.26488 47.7563 4.95528 47.3368 6.40902 48.1621C7.48412 48.7777 7.93038 49.7315 8.82291 50.4417C10.0603 51.4293 10.635 50.6176 11.798 50.1982C12.4268 49.975 12.934 49.9818 13.5222 50.2997C13.9212 50.5162 14.2592 50.9356 14.7326 51.0032C14.9489 51.0303 15.1788 50.9897 15.402 51.0032C15.4222 51.0032 15.4155 50.9356 15.4493 50.9288C15.5304 50.9085 15.6116 50.9288 15.7197 50.8882C15.8347 50.8476 15.9226 50.7394 16.024 50.6785C16.1863 50.5838 16.4094 50.5703 16.4027 50.3403C16.4027 50.32 16.3418 50.3268 16.3351 50.2929C16.2472 49.9074 16.1931 49.5353 16.0916 49.1497C15.8956 48.4259 15.598 47.6412 15.3411 46.9039C15.3276 46.8701 15.2735 46.8701 15.2667 46.843C15.2464 46.7348 15.3005 46.6671 15.3005 46.6063C15.3005 46.586 15.2464 46.5927 15.2329 46.5589C15.2059 46.498 15.2059 46.4236 15.1518 46.3695L15.2667 46.3492C15.2802 46.2207 15.3343 46.0178 15.3884 45.896C15.8144 44.976 16.3486 44.7054 17.0315 44.0628C17.6062 43.5149 18.2215 42.764 18.8842 42.3649C19.0262 42.277 19.1006 42.2026 19.2425 42.1079C19.3981 42.0064 19.628 41.9658 19.7091 41.7764L19.824 41.8102V41.6952C19.824 41.6952 19.8849 41.7223 19.9052 41.7088C20.0472 41.6073 20.1621 41.5126 20.2906 41.4585C20.4461 41.3841 20.9532 41.1676 21.0479 41.0729C21.102 41.0256 21.0817 40.9376 21.0885 40.9308C21.102 40.9173 21.1966 40.9782 21.2575 40.9647C21.3319 40.9444 21.4265 40.8023 21.4739 40.7753C21.8187 40.5859 22.2312 40.3694 22.5219 40.2273C22.6166 40.18 22.86 40.2341 22.8668 40.0515L22.9073 40.1326C23.002 40.1056 23.0426 40.0785 23.0223 39.9771C23.1846 40.0853 23.1305 39.9162 23.2048 39.8959C23.2927 39.8756 23.2522 39.8959 23.3671 39.8553C23.5497 39.7877 24.2191 39.5712 24.3273 39.5103C24.3814 39.4833 24.3814 39.3953 24.4355 39.3682C24.5707 39.2938 24.7668 39.3412 24.9291 39.2465C25.1522 39.118 25.4159 39.0029 25.781 38.8947C25.9162 38.8541 26.1056 38.9353 26.1529 38.7256L26.2476 38.7595C26.3963 38.6918 26.6533 38.6174 26.8426 38.5227C26.8696 38.5091 26.8967 38.4618 26.9237 38.4415L26.9981 38.5227L27.1874 38.3671L27.2821 38.3942C27.3227 38.2589 27.3632 38.3603 27.4376 38.3536C27.539 38.3468 27.6946 38.3333 27.6946 38.198L27.7554 38.2792C27.8703 38.1845 27.9177 38.1101 28.0867 38.1506L28.1341 38.0762V38.1506H28.1881C28.4248 38.0086 28.7561 37.9883 28.9995 37.8868C29.0401 37.8665 29.0536 37.8327 29.0469 37.7921L29.1077 37.8733C29.1821 37.8598 29.2091 37.765 29.2159 37.7583C29.2497 37.7448 29.2903 37.7921 29.3173 37.7854C29.3309 37.7854 29.5337 37.5351 29.4999 37.7515C29.6284 37.6433 29.8718 37.7515 29.9259 37.5554L30.0341 37.5824V37.508H30.1152L30.1355 37.5892C30.1896 37.5486 30.2504 37.508 30.3113 37.4877C30.5209 37.4133 30.5547 37.4268 30.7576 37.4133C30.9604 37.3998 30.9874 37.2713 31.0077 37.2645C31.1768 37.2442 31.3661 37.2848 31.5892 37.2239C31.6366 37.2104 31.6298 37.1225 31.6704 37.1157C31.7312 37.1089 31.8665 37.2239 31.8529 37.0683C31.9476 37.1698 32.2181 37.0819 32.2654 36.9466C32.3601 37.1833 32.5291 36.906 32.5426 36.906C32.5967 36.906 32.6711 36.9533 32.7725 36.9466C32.9551 36.9263 33.1106 36.7707 33.2458 36.8316L33.2864 36.7504C33.4216 36.8248 33.5839 36.7707 33.6853 36.6692C33.6921 36.8045 33.9626 36.703 34.0775 36.6692C34.1722 36.6422 34.3412 36.6286 34.3412 36.5136L34.4359 36.5948L35.227 36.3919L35.2608 36.4731C35.3825 36.446 35.5245 36.3648 35.6327 36.3378C35.7206 36.3175 35.8693 36.358 35.9775 36.2363C35.9775 36.3783 36.4305 36.2769 36.4305 36.1551L36.4914 36.2363C36.5928 36.2498 36.6604 36.2227 36.6672 36.1145H36.7078C36.7348 36.331 36.8362 36.1145 36.8498 36.1145C36.9106 36.1145 36.9782 36.1619 37.0391 36.1619C37.0797 35.9995 37.1878 36.1822 37.2825 36.0401L37.3772 36.1145C37.3569 35.9657 37.4515 36.0807 37.5462 36.0672C37.8572 36.0063 38.1953 35.9319 38.5064 35.871C38.5469 36.0266 38.9594 35.8913 39.0608 35.7966L39.0811 35.8778H39.1622V35.7966L39.2163 35.871C39.4733 35.7628 39.8384 35.8372 40.0818 35.756C40.1156 35.7425 40.1156 35.7087 40.1088 35.6748H40.1494C40.1697 35.8913 40.2441 35.6748 40.2508 35.6748C40.3049 35.6681 40.501 35.7222 40.5551 35.7154C40.5822 35.7154 40.5754 35.6343 40.6024 35.6343C40.6903 35.6207 40.8121 35.7357 40.9135 35.5937C41.0014 35.8101 41.1028 35.5937 41.1163 35.5937C41.2921 35.5531 41.8804 35.5733 42.1373 35.5531C42.2928 35.5395 42.5295 35.6207 42.5701 35.4719L42.6039 35.5463C42.7121 35.4719 42.8473 35.5328 42.9555 35.5057C42.969 35.5057 43.0366 35.3569 43.1786 35.4246L43.0975 35.5057H43.253L43.2327 35.4246C43.3274 35.4719 43.6316 35.526 43.6114 35.3839H43.6519C43.6384 35.5395 44.0306 35.3975 44.1455 35.3907C44.4228 35.3839 44.5986 35.3772 44.8825 35.3569C45.1665 35.3366 45.5452 35.3975 45.8427 35.3907L45.89 35.3095H45.9509L45.9712 35.3907L46.0117 35.3095C46.0996 35.3637 46.1943 35.3096 46.2754 35.3231C46.3498 35.3366 46.4107 35.4719 46.5256 35.3095L46.5662 35.3907C46.5932 35.2419 46.7487 35.3772 46.8434 35.3704C47.1071 35.3569 47.2762 35.3366 47.5534 35.3569C48.5676 35.4178 49.6021 35.411 50.5961 35.4246L50.6367 35.5057C51.5224 35.3772 52.6178 35.7831 53.4495 35.7154C53.4698 35.7154 53.5644 35.8845 53.7605 35.7492C53.8958 35.8642 54.2879 35.8507 54.4705 35.871C55.8566 36.0198 57.8175 36.5542 59.1428 37.0345C60.0083 37.3524 60.9211 37.7515 61.6716 38.2792C61.8136 37.9612 61.9083 37.6906 62.1246 37.4201C63.0307 36.2972 64.5926 36.1889 65.7894 35.5598C66.2627 35.3095 66.8104 34.9443 67.2567 34.6331C69.3934 33.1584 69.8937 31.3185 69.5624 28.748C69.5421 28.5653 69.488 28.3827 69.4677 28.2L69.3663 28.1798C69.0823 28.4706 68.8795 28.8021 68.4805 28.9238C68.3521 28.8088 68.298 28.5518 68.1019 28.5992C68.1019 28.1256 68.4941 27.8483 68.7916 27.5574C68.8592 27.4898 69.1297 27.1516 69.177 27.1245C69.2176 27.1042 69.2919 27.1313 69.319 27.111C69.3325 27.0974 69.3257 27.0163 69.3663 26.9757C69.7585 26.5292 70.2386 26.1301 70.5563 25.6837C71.4692 24.3916 71.5571 22.9576 71.0973 21.4897C71.0364 21.307 70.8877 20.9282 70.8201 20.8132C70.7592 20.705 70.7119 20.5765 70.6375 20.475L70.7524 20.4141C70.5564 20.4344 70.5834 20.245 70.509 20.1165C70.1439 19.5212 69.7247 18.8853 69.3055 18.3239C69.2649 18.2698 69.1229 18.175 69.0891 18.1006L69.1702 18.0398C68.8998 18.0601 68.9336 17.6948 68.8592 17.5798C68.8389 17.546 68.6969 17.5325 68.5752 17.3701C68.3994 17.1333 68.2574 16.8019 68.1087 16.5651C67.2026 15.1175 67.6962 13.2978 67.6556 11.7149C67.588 9.2459 65.5595 9.51651 64.0382 8.44772C63.1862 7.84568 62.7873 6.68217 61.7798 6.39806C60.7723 6.11395 58.9467 6.50631 57.8378 6.5469C55.6876 6.62807 53.2737 5.94482 51.2385 5.28867C49.068 4.59192 46.8164 3.74638 44.8014 2.81288C43.9427 2.41377 43.1245 1.83202 42.2252 1.54115C42.1035 1.50056 42.0832 1.48703 42.0156 1.45321L42.0427 1.44643ZM62.4695 41.7155C62.7264 41.2623 63.0172 40.2612 62.7061 39.8079C61.9353 38.6783 59.4538 37.6568 58.1759 37.2577C54.0445 35.9522 49.2911 35.7695 44.9975 35.8913C38.9729 36.0672 32.5967 37.0683 26.8832 38.9962C23.7796 40.0447 18.4244 42.3176 16.7272 45.2804C16.5447 45.5983 16.3959 45.9772 16.3283 46.3357C16.9368 45.7539 17.6062 45.2263 18.2689 44.7122C23.2387 40.87 28.2422 38.9759 34.3615 37.7515C40.3726 36.5474 46.1402 36.0198 52.2324 36.9804C55.0047 37.4201 59.7175 38.198 61.604 40.4303C61.7257 40.5791 61.8474 40.7279 61.9556 40.8564C62.0908 41.012 62.2328 41.4855 62.3545 41.6479C62.3883 41.6952 62.3951 41.7291 62.4695 41.7155ZM62.0976 53.3843C61.462 52.904 60.4478 52.4373 59.704 52.1329C52.8612 49.3662 44.4498 49.5759 37.2419 50.5162C32.306 51.1588 25.6728 52.4034 21.5956 55.4001C20.5543 56.1645 18.7963 57.6527 18.0931 58.7147C17.5386 59.5535 18.0119 60.2909 18.5867 60.9403C19.4724 61.9482 20.5881 62.1173 21.7984 62.3473C22.1974 62.4217 22.5287 62.5638 22.9209 62.4826C22.9411 62.4826 22.9344 62.5435 22.9682 62.5638C23.1102 62.6314 23.2454 62.6043 23.3874 62.5638L23.4145 62.6449L23.5294 62.5638C23.5294 62.5638 23.5294 62.6382 23.5564 62.6449C23.6376 62.6652 24.0027 62.6314 24.1447 62.6449C24.7397 62.699 25.3145 62.7937 25.896 62.8749C26.038 62.8952 26.1935 62.8478 26.3287 62.9155C26.3896 62.6922 26.4707 63.0778 26.5654 62.8411L26.6397 62.9222L27.1739 62.8817L27.1333 62.9628C27.2145 63.0237 27.6134 62.902 27.7013 62.9222C27.7284 62.9222 27.7284 63.0034 27.7486 63.0034H27.8298L27.8703 62.9222H27.9515C28.0664 63.1658 28.1679 62.7667 28.3437 63.0034C28.4924 63.0102 28.4248 62.9222 28.4654 62.9222L28.5059 63.0034L28.6615 62.9222C28.7494 63.1319 28.844 62.9358 28.8575 62.9222C28.9116 62.9087 29.1483 62.9764 29.2091 62.9764C29.6013 62.9764 30.007 62.902 30.3924 62.9628L30.4398 62.8817C30.4736 63.0372 30.5953 62.929 30.717 62.9222C30.9063 62.9155 31.0686 62.9628 31.2309 62.8411L31.3052 62.929C31.4405 62.902 31.5149 62.814 31.6568 62.8884L31.6974 62.8073L31.7447 62.8884H31.8935L31.9408 62.8073L31.9611 62.8884H32.0423L32.0625 62.8073H32.1437C32.2519 62.9561 32.7319 62.8072 32.9416 62.7802C33.0633 62.7666 33.2255 62.8884 33.3337 62.7261C33.3675 62.8546 33.6312 62.8546 33.6515 62.7261C33.6786 62.8546 33.9017 62.8546 33.9287 62.7261L33.9693 62.8073C34.1722 62.787 34.4426 62.7396 34.6387 62.7329C34.7739 62.7329 35.0241 62.8614 35.0715 62.6855L35.1323 62.7667C35.1188 62.5976 35.4095 62.8208 35.4298 62.6449C35.5245 62.6246 35.4704 62.7126 35.5177 62.7261C35.7679 62.7937 36.0857 62.5299 36.2277 62.7261C36.7348 62.5908 37.3704 62.7261 37.8843 62.6855C37.9587 62.6787 38.0263 62.6585 38.0804 62.6043L38.0601 62.6855L39.0811 62.6381L39.1081 62.5705C39.1825 62.7802 39.2096 62.5705 39.2298 62.5705L39.2772 62.6517C39.6085 62.6517 39.9331 62.6043 40.2644 62.5773C40.3861 62.5705 40.5484 62.672 40.5754 62.5232L40.5957 62.6043C40.6701 62.5976 40.7512 62.6179 40.8188 62.6043C40.8932 62.5976 40.8729 62.5232 40.8932 62.5232C41.1231 62.5367 41.3124 62.5435 41.5288 62.557C41.8128 62.5773 42.0427 62.4555 42.3131 62.5164L42.3605 62.4352L42.401 62.5164L42.543 62.4352C42.4416 62.6043 42.685 62.4893 42.7391 62.4352L42.7594 62.5164C42.8946 62.4487 43.0569 62.5164 43.1516 62.3946C43.1854 62.3811 43.138 62.469 43.2259 62.4758C43.4288 62.5029 43.4085 62.3946 43.4356 62.3879C43.4964 62.3811 43.7196 62.3879 43.706 62.469C44.0441 62.3405 44.5445 62.5096 44.8082 62.3067L44.842 62.3811C44.9569 62.2864 45.2274 62.4285 45.2206 62.2661H45.3018L45.3423 62.3473C45.3288 62.1917 45.6128 62.327 45.7616 62.3135C45.8697 62.2999 46.0455 62.2188 46.1943 62.2255L46.2349 62.3067C46.3769 62.2729 46.4648 62.1443 46.5729 62.2661C46.5594 62.1173 46.6608 62.2323 46.7487 62.2255C46.8164 62.2255 46.884 62.1849 46.9516 62.1849C47.053 62.1849 47.2423 62.2661 47.2491 62.1037L47.3438 62.1849C47.7021 62.0767 48.1484 62.2187 48.4527 61.982L48.473 62.1037C48.6488 62.0496 48.8381 62.0091 49.0206 61.9685C49.1491 61.9414 49.3182 61.8805 49.4061 61.867C49.5954 61.8332 49.8861 62.0158 49.9943 61.7858L50.0146 61.867C50.0146 61.867 50.5217 61.8061 50.5826 61.7858C50.6164 61.7723 50.6164 61.7385 50.6096 61.7046L50.6705 61.7858C50.7381 61.6843 50.7922 61.7182 50.8868 61.7452L50.8463 61.6641L51.0288 61.6302L51.1235 61.7046L51.1032 61.6235C51.2655 61.752 51.2858 61.637 51.4278 61.5964C51.4683 61.5829 51.5765 61.5491 51.5833 61.5423C51.7591 61.495 52.0093 61.522 52.1648 61.4882C52.2054 61.4814 52.2324 61.4138 52.2865 61.4138L52.3609 61.4949L52.5637 61.38L52.6246 61.4611L52.6449 61.3394C52.7125 61.3394 52.7733 61.38 52.8409 61.38C52.9965 61.38 53.1723 61.265 53.2872 61.292L53.321 61.2176L53.5374 61.2582L53.4968 61.177L53.7132 61.2176L53.7741 61.1364L53.7943 61.2176C54.0648 61.0891 54.4502 61.0823 54.7139 60.9876C54.7612 60.9673 54.7748 60.9538 54.768 60.8997L54.8627 60.9741C54.9235 60.9064 55.052 60.92 55.0452 60.8185H55.1196L55.1399 60.8997C55.2413 60.7441 55.3225 60.8253 55.4104 60.8185C55.4171 60.8185 55.5321 60.7035 55.5388 60.7035C55.7282 60.6562 55.9783 60.575 56.1338 60.5411C56.3435 60.4938 56.7086 60.5817 56.8438 60.3382L56.9588 60.3788L56.9858 60.3044L57.0805 60.3382L57.0602 60.257C57.1751 60.2909 57.4794 60.2773 57.4997 60.1353L57.5605 60.2164C57.6823 60.1691 57.7904 60.0338 57.9054 60C58.0541 59.9526 58.0744 60.0744 58.1556 59.8985C58.2502 59.9594 58.3314 59.8918 58.3922 59.8174L58.4801 59.8512L58.541 59.7362L58.5816 59.8174C58.6695 59.7497 58.7979 59.7362 58.8926 59.6888C59.0211 59.6212 59.0413 59.6009 59.2036 59.5265C60.3801 58.9988 61.631 58.2547 62.3342 57.0439C62.8211 56.2119 62.8143 55.779 62.9631 54.8725C63.0036 54.6358 63.1794 54.5478 62.9969 54.2637C62.8481 54.0337 62.341 53.5467 62.1111 53.3775L62.0976 53.3843ZM16.1525 51.4361V51.4767C16.1525 51.4767 16.1795 51.4497 16.1525 51.4361Z" fill="#6F7A58" stroke="#6F7A58" stroke-width="0.85" stroke-linecap="round" stroke-linejoin="round"/>
<path d="M45.0448 10.1997C45.2003 10.2606 45.3423 10.653 45.3694 10.8153C45.5452 11.9112 45.5249 13.1558 45.5181 14.2584C45.4776 18.5945 44.6053 22.7614 44.4701 27.0839L44.5445 27.1245C44.4025 28.7683 44.7676 30.4594 44.7067 32.1032C44.7067 32.1235 44.8082 32.34 44.8217 32.5023C44.8961 33.2735 44.9975 34.6196 44.5174 35.2419C44.4904 35.2758 44.5174 35.3163 44.4295 35.2893C44.3889 35.154 44.4025 34.951 44.3416 34.836C44.301 34.7616 44.159 34.7346 44.1929 34.5655L44.0373 34.6061C44.1117 34.4167 43.963 34.3625 43.963 34.349C43.9832 34.0852 44.0238 33.8281 44.0035 33.544C43.9968 33.4358 43.9765 33.0908 43.963 33.0299C43.9494 32.9893 43.8683 33.0164 43.8818 32.9826L43.963 32.8811L43.8886 32.8608L43.9292 32.6985L43.848 32.6376H43.9292C43.8074 32.4549 43.9156 32.1641 43.848 31.9341L43.7669 31.9544C43.7534 31.8462 43.9765 31.8394 43.7736 31.7853L43.8074 31.6568L43.7263 31.6297C43.706 31.562 43.8074 31.6094 43.8074 31.5688C43.8074 31.5282 43.7534 31.4268 43.7466 31.3591C43.706 30.9532 43.7128 30.3985 43.6046 30.0197C43.5978 29.9859 43.5302 29.9927 43.5235 29.9656C43.5032 29.8574 43.6519 29.695 43.4829 29.7086L43.564 29.6477V29.5462L43.4829 29.5868C43.4964 29.4448 43.5437 29.3027 43.5235 29.1606C43.5099 29.0862 43.4491 29.1065 43.4423 29.0727C43.422 28.9712 43.4896 28.863 43.4423 28.7142C43.422 28.6465 43.3612 28.6533 43.3612 28.6398C43.3612 28.4301 43.4356 28.1527 43.2733 27.9565L43.3477 27.9227C43.3003 27.7739 43.2192 27.6183 43.2665 27.4628L43.1921 27.4154H43.2665C43.2057 27.3072 43.253 27.1786 43.2327 27.0772C43.2327 27.0433 43.1583 27.0569 43.1583 27.0298C43.1583 26.9216 43.2192 26.5563 43.0772 26.5631L43.1516 26.5089C43.111 26.4481 43.1313 26.3534 43.0366 26.3669L43.1178 26.2722C43.0704 26.1775 43.0975 26.0422 43.0704 25.9543C43.0637 25.9205 42.9893 25.9272 42.9893 25.9002C42.9893 25.8257 43.084 25.7445 42.9487 25.6634L43.0299 25.6228C42.9555 25.4604 42.9825 25.2237 42.9487 25.0749C42.942 25.041 42.8676 25.0478 42.8676 25.0275C42.8676 24.9599 42.9284 24.8314 42.9149 24.7096C42.9082 24.6352 42.8338 24.6555 42.8338 24.6352C42.8338 24.5202 42.9555 24.3172 42.7864 24.2699L42.8676 24.2293C42.7662 24.0872 42.8676 23.9317 42.7459 23.7896L42.8203 23.7558C42.8203 23.6273 42.7121 23.5596 42.7053 23.5461C42.6985 23.5123 42.7594 23.2485 42.7459 23.147C42.7391 23.0658 42.658 23.0929 42.6647 23.0726C42.7594 22.6194 42.6039 22.0376 42.6174 21.5438C42.4754 21.5032 42.7188 21.05 42.5092 21.0432L42.5904 20.9418L42.543 20.0421L42.4687 20.0218L42.543 19.988L42.4687 19.298C42.5498 18.7636 42.4687 18.2157 42.4687 17.6948C42.4687 17.5663 42.5565 17.2483 42.5363 17.1401C42.5295 17.0995 42.4551 17.0589 42.4687 17.0386C42.4687 17.0386 42.5227 17.0454 42.5363 17.0319C42.5904 16.9575 42.516 16.8222 42.516 16.741C42.5363 16.2066 42.5971 15.6384 42.658 15.1243C42.6715 14.9822 42.658 14.8334 42.7121 14.6981L42.6309 14.6372C42.6309 14.6372 42.6985 14.644 42.7121 14.6102C42.7864 14.3328 42.7797 13.9067 42.8338 13.6158C43.0028 12.6552 43.2936 11.2279 44.0779 10.5785C44.1929 10.4838 44.3213 10.3891 44.4363 10.2944C44.6053 10.1524 44.8352 10.1456 45.0381 10.2268L45.0448 10.1997Z" fill="#6F7A58" stroke="#6F7A58" stroke-width="0.85" stroke-linecap="round" stroke-linejoin="round"/>
<path d="M65.8367 14.7657L65.9923 14.7319L65.8773 14.8537L66.0328 14.9349L65.9517 14.9619C66.0193 15.1716 65.8368 15.3813 65.7894 15.5978C65.4919 16.9777 65.1606 17.5662 64.4844 18.7771C63.2741 20.9553 61.8677 23.1537 60.3734 25.1696C59.3253 26.5833 58.2435 28.1324 57.3509 29.7288C57.2157 29.9723 57.1143 30.4391 56.8506 30.4864L56.925 30.5812C56.5666 31.305 56.2961 32.137 56.1068 32.9217C55.9986 33.3817 55.8363 34.0987 55.8161 34.5587C55.8161 34.694 55.8769 34.9781 55.8566 35.0728C55.8566 35.0999 55.7755 35.0999 55.7755 35.1202C55.7755 35.1878 55.8634 35.2757 55.7958 35.3772C55.7552 35.4313 55.7417 35.411 55.6943 35.3975C55.478 35.3434 55.1669 35.0728 54.91 35.0525C54.9641 34.8834 54.8289 34.8495 54.8221 34.836C54.8153 34.7481 54.8897 34.7143 54.8965 34.6669C54.8965 34.6263 54.8289 34.5587 54.8221 34.4775C54.8018 34.3016 54.8627 34.1528 54.8627 33.9972C54.8627 33.8958 54.741 33.7199 54.9032 33.7334L54.8289 33.6725C54.8897 32.4211 55.1399 31.2373 55.5929 30.0806C56.2691 28.3624 57.4118 26.9892 58.3111 25.4063C58.6627 24.784 59.0346 24.0872 59.3524 23.4514C60.7453 20.705 61.8204 16.4975 64.6602 14.9822C64.7819 14.9146 65.2147 14.7928 65.262 14.7522C65.3093 14.7116 65.2823 14.5831 65.4513 14.5425C65.6474 14.4951 65.7488 14.5966 65.8232 14.7725L65.8367 14.7657Z" fill="#6F7A58" stroke="#6F7A58" stroke-width="0.85" stroke-linecap="round" stroke-linejoin="round"/>
<path d="M18.6002 13.1828C19.7091 14.3599 20.3244 16.3554 21.0479 17.8301C22.1974 20.1706 23.8201 22.2675 25.1657 24.3916C27.2077 27.6047 29.2565 31.359 30.1558 35.1336C30.2437 35.5057 30.4533 36.3716 30.4127 36.7233C30.3924 36.8789 30.1152 37.2103 30.0205 37.1359C30.0138 37.1359 30.0205 37.0683 29.9867 37.0615C29.9529 37.0615 29.8988 37.1021 29.8515 37.0818C29.838 37.0818 29.6351 36.8518 29.6283 36.8315C29.439 36.4392 29.4593 35.9048 29.3376 35.5598C29.3038 35.4583 29.297 35.5734 29.2497 35.3298C29.2294 35.2284 29.1483 35.1472 29.1348 35.093C29.0604 34.8022 29.0063 34.6601 28.8981 34.3692C28.5803 33.5034 28.3031 32.739 27.9244 31.8867C27.8568 31.7379 27.9041 31.4267 27.7216 31.4741C27.8365 31.3049 27.6269 31.217 27.6134 31.1832C27.5323 30.9802 27.4646 30.6082 27.3632 30.3782C27.3429 30.3241 27.2618 30.3309 27.255 30.2903C27.255 30.2564 27.2956 30.1956 27.2821 30.1347C27.2821 30.1076 27.2212 30.1144 27.2077 30.0738C27.1468 29.9114 27.1063 29.7423 27.0454 29.58L26.9643 29.6206C26.9102 29.5191 27.0522 29.5462 27.0454 29.5191C26.9372 29.4244 26.944 29.2756 26.8831 29.1606C26.7885 28.9847 26.8358 29.0726 26.7682 28.8832C26.6127 28.4571 26.3693 27.9497 26.1799 27.5845C25.9703 27.1718 25.7472 26.7186 25.497 26.2789C25.4362 26.1775 25.0846 25.8189 25.3077 25.8122L25.186 25.7513C25.1927 25.6092 25.0846 25.6431 25.0237 25.5551C24.9764 25.4807 25.0372 25.4198 25.0237 25.413C25.0102 25.4063 24.9426 25.4266 24.9155 25.4063C24.8885 25.386 24.8344 25.1492 24.7465 25.1154L24.8276 25.0545L24.6924 25.014C24.449 24.6487 24.192 24.2225 23.9216 23.8775C22.6571 22.2946 20.9667 20.8673 19.5874 19.3047C18.208 17.7354 16.5649 15.3948 16.7543 13.1761C16.7948 12.7026 17.0247 12.7972 17.3358 12.5605C17.8835 12.574 18.2283 12.7905 18.5934 13.1761L18.6002 13.1828Z" fill="#6F7A58" stroke="#6F7A58" stroke-width="0.85" stroke-linecap="round" stroke-linejoin="round"/>
<path d="M10.3443 30.7706C12.3051 32.1437 14.1105 34.0378 15.8415 35.6951C17.2546 37.0548 18.5934 38.1506 19.5063 39.9703C19.5874 40.1326 19.824 40.6129 19.7564 40.7617C19.7226 40.8429 19.4792 41.0052 19.3981 40.9917C19.2764 40.9782 19.087 40.5182 19.0329 40.4167C18.5664 39.6185 18.1404 38.8271 17.4507 38.198C16.4094 37.2374 15.1856 36.4866 14.1105 35.5801C12.2646 34.0378 10.6959 32.0693 8.72825 30.7232C7.82896 30.1076 6.47664 29.5665 5.38126 29.4109C5.0567 29.3635 4.67805 29.4718 4.42787 29.4853C4.42787 29.5259 4.22503 29.6544 4.20474 29.6679C4.15065 29.695 4.00189 29.7423 3.9478 29.7491C3.79905 29.7626 3.69762 29.4988 3.78552 29.3568C3.90723 29.1471 4.56311 28.9374 4.79976 28.89C6.68625 28.545 8.82291 29.722 10.3375 30.7908L10.3443 30.7706Z" fill="#6F7A58" stroke="#6F7A58" stroke-width="0.85" stroke-linecap="round" stroke-linejoin="round"/>
<path d="M11.1286 41.3773C12.2781 41.8306 13.5898 42.534 14.5568 43.3322C14.9219 43.6366 15.4087 44.0763 15.2532 44.604C15.1721 44.6581 15.1112 44.6378 15.0436 44.5702L15.003 44.6513C14.8407 44.5769 14.7461 44.1914 14.6379 44.1237C14.5635 44.0764 14.3471 44.0628 14.2119 44.0087C13.9955 43.914 13.7656 43.7517 13.529 43.657C12.8664 43.3729 12.1564 43.2443 11.4802 43.0076C9.37061 42.2567 7.30155 41.1879 5.00261 41.9726C4.59691 42.1079 4.0357 42.507 3.67733 42.5949C3.10936 42.737 2.95384 42.3582 3.21755 41.8847C4.79976 39.003 8.76206 40.4371 11.1354 41.3773H11.1286Z" fill="#6F7A58" stroke="#6F7A58" stroke-width="0.85" stroke-linecap="round" stroke-linejoin="round"/>
<path d="M9.20831 49.312C9.47878 48.6153 10.2564 48.3515 10.8581 47.9929C11.771 47.4518 12.5891 46.9444 13.6439 46.6806C13.9144 46.613 14.1646 46.5386 14.4147 46.7009C14.4553 46.8565 14.3674 46.9851 14.3201 47.1271C13.6913 47.215 13.0624 47.4518 12.4742 47.7088C11.6019 48.0944 10.8581 48.7235 10.0129 49.1091C9.92504 49.1497 9.23536 49.3459 9.20831 49.312Z" fill="#6F7A58" stroke="#6F7A58" stroke-width="0.85" stroke-linecap="round" stroke-linejoin="round"/>
<path d="M60.5289 57.9436C60.5289 57.9436 60.5357 57.9977 60.5289 58.018H60.3734C60.4748 58.1871 60.272 58.1871 60.1976 58.2615C60.1367 58.3156 60.0556 58.4577 60.0015 58.5051C59.5755 58.8433 58.8926 59.0665 58.3584 59.1071C58.3381 59.0191 58.399 59.0191 58.4531 58.9785C59.3186 58.3359 60.583 57.5716 60.8129 56.4284C60.8873 56.0563 60.9143 55.9481 60.6371 55.691C60.0826 55.1837 59.278 54.7914 58.6018 54.487C58.3246 55.4813 57.9663 56.6719 57.263 57.4498C57.2225 57.4904 57.2225 57.5648 57.1346 57.5445C57.2833 57.0845 57.4794 56.6448 57.6349 56.1848C57.7702 55.7925 57.9392 55.3325 58.0677 54.8996C58.0947 54.8049 58.2367 54.3043 58.1961 54.2502L56.6139 53.682C56.7627 54.0608 56.7018 54.5072 56.6004 54.8928C56.5057 55.2513 56.3299 55.7249 56.0595 55.9684L56.2961 53.5602L55.5862 53.3572V53.939C55.5862 54.0946 55.3292 55.0146 55.2616 55.2108C55.1805 55.4475 54.8018 56.239 54.6395 56.3878C54.5854 56.4351 54.5584 56.4622 54.484 56.4486C54.6733 55.9413 54.7342 55.4002 54.8491 54.8725C54.9709 54.3178 55.2481 53.7902 55.0723 53.2017C54.5449 53.0326 53.9972 52.8635 53.4495 52.7417C48.9327 51.7203 43.7872 51.8758 39.1893 52.2749C36.9106 52.4711 34.6387 52.8026 32.4006 53.2761C32.4953 53.6887 32.59 54.1149 32.6373 54.541C32.6981 55.0822 32.7319 55.7316 32.7387 56.2727C32.7522 56.9221 32.6576 57.5918 32.475 58.2142C32.4142 58.1939 32.4006 58.0045 32.3939 57.9504C32.333 57.1589 32.3127 56.3675 32.2316 55.5828C32.164 54.8522 32.1302 54.1149 31.9206 53.4114L31.481 53.4993C31.5487 53.8308 31.5216 54.169 31.481 54.5005C31.4743 54.5681 31.4878 54.6357 31.4202 54.6763C31.285 54.3111 31.1159 53.9458 31.0821 53.5534L30.4127 53.7361C30.4668 53.939 30.5277 54.1758 30.5615 54.3855C30.6426 54.9469 30.7035 55.664 30.7237 56.2254C30.7508 56.8816 30.7102 57.5309 30.602 58.1736C30.5074 58.133 30.5074 57.9842 30.4939 57.903C30.4195 57.4904 30.3586 56.9898 30.3045 56.5704C30.1896 55.6639 30.1896 54.7305 29.9664 53.8443C28.391 54.2164 26.8223 54.7169 25.3145 55.3257C25.3618 55.576 25.2468 55.8195 25.2266 56.0766C25.1657 56.726 25.2266 57.4972 25.2604 58.1601C25.2807 58.5524 25.3348 58.9515 25.3753 59.3439C25.2604 59.3642 25.3145 59.3168 25.2874 59.2559C25.0981 58.8162 24.9155 58.1059 24.8344 57.6256C24.7127 56.9424 24.7059 56.2457 24.8209 55.5693H24.7262C24.449 55.7925 23.57 56.0563 23.3806 56.2931C23.3333 56.3539 23.2657 56.8951 23.2725 56.9966C23.2725 57.071 23.3536 57.0507 23.3536 57.071C23.3266 57.4836 23.3806 57.8895 23.4483 58.3089C23.5159 58.6944 23.6038 59.0868 23.712 59.4656C23.5903 59.5536 23.4483 59.1544 23.4077 59.0733C22.9614 58.248 22.9344 57.673 22.8803 56.753C22.8803 56.6989 22.975 56.5366 22.86 56.5704C22.718 56.6177 22.0892 57.0777 21.9337 57.1995C21.866 57.2536 21.4671 57.5716 21.4604 57.6054L21.9269 59.6685C21.8931 59.7091 21.7511 59.54 21.7376 59.5197C21.5415 59.2898 21.3589 58.9853 21.2169 58.7215L21.0208 58.0586C20.8653 58.2751 20.7233 58.5118 20.5678 58.7283C20.392 58.9718 20.0404 59.3912 19.966 59.6685C19.939 59.77 19.9593 59.9459 19.9119 60.0677L19.6753 60.0271C19.7023 60.1421 19.7767 60.23 19.8646 60.3044C20.676 61.0417 23.1102 61.4476 24.2056 61.5897C25.3956 61.7453 26.6059 61.8061 27.796 61.9211C28.0394 61.9955 27.9177 62.3608 27.7757 62.4217C27.654 62.4758 26.8561 62.4082 26.66 62.3947C25.1454 62.2729 23.4009 62.0767 21.9675 61.7317C20.2433 61.3191 18.1134 60.6291 19.3643 58.4036C20.0675 57.1522 22.2244 55.8669 23.4956 55.2513C27.397 53.3573 32.1369 52.559 36.3967 51.9164C39.8113 51.4023 42.9961 51.0776 46.4445 51.2265C49.8456 51.3753 53.4225 51.5917 56.7018 52.4982C58.4734 52.992 61.6581 53.9458 61.2997 56.3404C61.2524 56.6786 61.0698 57.0845 60.9075 57.4092C60.8196 57.3889 60.8196 57.4565 60.7858 57.5107C60.7182 57.6189 60.6641 57.7136 60.5898 57.8151C60.5762 57.8286 60.5627 57.8421 60.5492 57.8557L60.468 57.9166L60.5086 57.9368L60.5289 57.9436Z" fill="#6F7A58" stroke="#6F7A58" stroke-width="0.85" stroke-linecap="round" stroke-linejoin="round"/>
<path d="M60.9278 57.4227C60.8535 57.5647 60.7858 57.7947 60.61 57.8218C60.6844 57.7203 60.7385 57.6256 60.8061 57.5174C60.8399 57.4633 60.8399 57.4024 60.9278 57.4159V57.4227Z" fill="#6F7A58" stroke="#6F7A58" stroke-width="0.85" stroke-linecap="round" stroke-linejoin="round"/>
<path d="M60.5285 57.9429C60.5285 57.9429 60.4883 57.9428 60.4883 57.9227L60.5688 57.8624C60.5688 57.8624 60.5419 57.916 60.5285 57.9429Z" fill="#6F7A58" stroke="#6F7A58" stroke-width="0.85" stroke-linecap="round" stroke-linejoin="round"/>
<path d="M43.3003 62.4014C43.3003 62.4014 43.3271 62.4282 43.3003 62.4416V62.4014Z" fill="#6F7A58" stroke="#6F7A58" stroke-width="0.85" stroke-linecap="round" stroke-linejoin="round"/>
</svg>
