<svg width="74" height="86" viewBox="0 0 74 86" fill="none" xmlns="http://www.w3.org/2000/svg">
<path d="M6.87556 13.494L6.835 13.5819C6.94994 13.6293 7.05136 13.6969 7.14602 13.7646C7.74104 14.1569 8.34283 14.5425 8.88376 14.9619C9.42469 15.3813 10.067 15.936 10.5674 16.3554C11.5208 17.1604 12.2984 17.7489 12.9272 18.8853C13.1909 19.3656 13.3938 19.352 13.7656 19.7106C14.0091 19.9473 14.1375 20.1909 14.2998 20.4615C14.3404 20.5291 14.5364 20.6373 14.577 20.705C14.6311 20.7861 14.6176 20.9146 14.6649 20.9755C14.7055 21.0296 14.8475 21.05 14.8745 21.0973C15.3614 21.8685 15.9158 22.7546 16.4703 23.4581C16.7475 23.8099 17.0856 24.2969 17.3763 24.7231C17.5927 25.041 17.8429 25.3995 18.0863 25.7445C18.1945 25.9001 18.3906 26.3127 18.5123 26.4413C18.6205 26.5563 18.5529 26.3533 18.6949 26.6848C18.8098 26.9553 19.0194 27.2327 19.1614 27.4492C19.3034 27.6656 19.6888 28.1459 19.7632 28.2947C19.7767 28.315 19.7023 28.3962 19.7429 28.4774C19.7632 28.518 19.9863 28.7006 20.0539 28.6668L19.9592 28.7344L21.0006 30.5135L21.0952 30.4661C21.0343 30.7097 21.2643 30.8517 21.3319 30.9803C21.7646 31.8326 22.2312 32.7187 22.6436 33.544C22.8059 33.8687 23.0899 34.5857 23.2589 34.8293C23.313 34.9037 23.4009 34.9104 23.4145 34.9375C23.428 34.951 23.3942 35.0728 23.4145 35.1472C23.5226 35.5327 23.6984 35.8777 23.7525 36.2904C23.8134 36.3783 23.9418 36.2295 23.8945 36.4527L23.9892 36.358C23.9892 36.4122 23.9689 36.4663 24.0162 36.5068C24.2732 36.7233 25.1386 37.021 25.4902 37.1968C25.6322 37.2645 26.0312 37.5756 26.1664 37.6027C26.5383 37.6839 26.3422 37.6433 26.6262 37.8192C26.8426 37.9477 27.1401 37.9748 27.3362 38.083C27.4647 38.1506 27.5796 38.3197 27.7486 38.3603C27.8501 38.3874 27.9244 38.3333 27.9853 38.3468C28.0326 38.3536 28.0259 38.4618 28.0935 38.4821C28.1746 38.5091 28.2896 38.4821 28.3842 38.5227C28.4451 38.5429 28.4654 38.6376 28.5465 38.6918C28.6885 38.7797 29.2294 38.8947 29.297 38.9488C29.3646 39.0029 29.297 39.1247 29.4796 39.0165L29.6486 39.2532L29.7162 39.1585C29.6757 39.3547 29.8041 39.2735 29.8447 39.3141C29.9258 39.3818 30.149 39.7267 30.2369 39.835C30.2977 39.9094 30.4533 40.0041 30.4938 40.065C30.8928 40.6805 30.1152 41.5126 30.3789 42.1485L30.2842 42.1214C30.2842 43.3796 30.7372 44.5769 31.1632 45.7471C31.4269 46.4709 32.36 48.3853 32.1504 49.0685C32.1302 49.1362 32.022 49.2714 31.9814 49.3661C31.9611 49.4135 31.9949 49.4879 31.9814 49.4879C31.9611 49.5015 31.8935 49.4812 31.8597 49.5082C31.8326 49.5285 31.8191 49.5827 31.7921 49.603C31.481 49.8262 31.0956 49.9276 30.7102 49.8735C30.6494 49.9276 30.8251 50.922 30.8657 51.0708C30.886 51.1384 30.9469 51.1858 30.9739 51.2535C31.738 53.4587 32.5426 55.4339 33.5771 57.6053C34.5711 59.7023 35.7746 61.8061 36.8633 63.9437C37.3028 64.796 37.9857 65.9257 38.3441 66.8254C38.459 67.1095 38.5334 67.1974 38.6821 67.4815C38.8309 67.7791 38.9661 68.1918 39.1217 68.4624C39.1757 68.5503 39.3042 68.5774 39.3854 68.7194C39.453 68.848 39.5476 69.0576 39.5409 69.1726L39.8722 69.3147L39.8993 69.6462H40.0345C40.0412 69.7409 40.1156 69.9438 40.1629 70.0249C40.19 70.0655 40.2711 70.0723 40.2982 70.1332C40.3252 70.2076 40.2576 70.2956 40.2982 70.4038C40.3387 70.512 40.5957 70.884 40.6836 71.0193C41.0217 71.5402 41.6099 72.3046 42.0427 72.7172C42.09 72.7646 42.3199 72.8119 42.4281 72.9134C43.0637 73.5425 44.3687 74.0295 45.2206 74.4354C46.5256 75.0645 47.8982 75.6665 49.1356 76.4512C49.3452 76.5865 49.5278 76.8166 49.8117 76.8436L49.7644 76.9857C49.8726 76.9992 50.0822 77.0803 50.1498 77.148C50.1836 77.1818 50.1498 77.2495 50.1566 77.2562C50.3392 77.4321 50.6502 77.6215 50.7178 77.8785L51.0424 77.8312V77.9732C51.3196 77.865 51.2182 78.1085 51.252 78.21C51.3331 78.44 51.4751 78.6226 51.5495 78.8188C51.7118 79.2044 51.847 79.6035 51.989 79.9891L51.8876 80.0635C52.1242 80.0837 51.8943 80.3138 52.1242 80.422L52.0295 80.4694C52.1783 80.6182 52.1377 80.8144 52.1715 80.9835C52.1783 81.0241 52.3203 81.024 52.2662 81.1593C52.1918 81.1728 52.158 81.1593 52.0972 81.112C51.8876 80.9632 51.59 80.4626 51.4007 80.2732C51.3331 80.2055 51.1979 80.1785 51.1303 80.0905L51.2249 79.9755C50.8395 79.9755 50.8463 79.6441 50.684 79.4209C50.4879 79.1503 50.1498 78.927 49.7982 78.9744C49.7441 79.1367 49.8996 79.1097 49.9334 79.1977C50.0619 79.5629 50.3053 80.1785 50.3594 80.5776C50.3797 80.7264 50.3189 80.8347 50.373 80.97C50.3324 80.97 50.2918 80.97 50.258 80.97C50.143 80.9497 49.5413 80.2597 49.4061 80.1176C49.1356 79.8403 49.068 79.7658 48.8448 79.4682C48.7975 79.4005 48.6285 79.3735 48.5338 79.2314C48.3377 78.9473 48.5473 78.9135 48.101 78.7105C48.0605 78.6903 47.9523 78.6632 48.0267 78.7376L48.1416 78.8323L48.047 78.9067L48.2363 79.0488L48.1349 79.0962L48.4053 80.1582L48.2634 80.2056C47.7765 79.6915 47.3776 79.0758 46.9516 78.4738L45.6804 78.1153C45.7142 78.2844 45.5519 78.2168 45.5857 78.3521L45.7345 78.3791V78.7783L45.8765 78.8053L46.2078 80.077L45.9914 80.1446L46.0185 79.9553L45.6466 79.8538C45.6466 79.8538 45.6736 79.7861 45.6533 79.7659C45.4573 79.5291 45.1462 79.2585 44.9028 78.9541C44.7338 78.7444 44.6797 78.4738 44.4227 78.3453L44.5445 79.245C44.3011 79.2923 44.3078 79.0759 44.247 79.0218C43.9224 78.7038 43.5843 78.2709 43.2935 77.8718C43.2124 77.7635 43.1854 77.52 43.0772 77.6147L43.3882 79.157L43.2665 79.2044L42.6309 78.325C42.3807 78.2168 42.1508 77.5809 42.0697 77.5065C42.0427 77.4862 41.9683 77.5065 41.948 77.493C41.9345 77.4862 42.0427 77.3238 41.779 77.3576C41.6572 77.3712 41.5761 77.493 41.4206 77.405C41.353 77.5674 41.4477 77.6621 41.4612 77.7636C41.5153 78.1897 41.5829 78.7106 41.6099 79.1435C41.6099 79.2314 41.6302 79.5561 41.5152 79.4953L41.6167 79.5697C41.6167 79.6441 41.5423 79.8538 41.4476 79.8267C41.38 79.7929 41.3936 79.6711 41.3665 79.6441C41.2989 79.5832 41.1772 79.7388 41.2854 79.4479L41.1501 79.4885L40.6227 78.5888L40.9067 80.6114C40.9067 80.7738 40.6768 80.7197 40.5754 80.7264L40.616 80.6385C40.3658 80.5506 40.3996 80.1446 40.1021 80.1582L40.1494 79.9755C40.0007 79.9485 39.6355 79.6373 39.9601 79.6171L39.6761 79.5697C39.8113 79.6982 39.48 79.8943 39.5341 79.9755C39.7369 79.8876 39.7437 80.2191 39.764 80.3814C39.8046 80.6791 39.8181 81.0714 39.8181 81.3758C39.8181 81.6802 39.7234 81.9981 39.8181 82.2958L39.4868 82.3905C39.4868 82.3296 39.4732 82.2687 39.4462 82.2146C39.311 81.9373 39.1081 81.599 38.9526 81.3284C38.9053 81.2472 38.77 80.9767 38.6754 81.1323C38.9526 81.6735 38.8038 82.3635 38.6754 82.9317C38.2494 83.1684 38.2697 82.5596 38.0263 82.5325C37.8031 82.5055 37.9248 82.661 37.891 82.7693C37.8505 82.9045 37.6747 83.1211 37.6476 83.2428C37.6273 83.3443 37.7085 83.7907 37.6747 83.9801C37.6544 84.0951 37.5395 84.0816 37.5327 84.1289C37.5056 84.2304 37.4583 84.5213 37.4448 84.643C37.4177 84.8054 37.6003 85.5563 37.3298 85.4684C37.3163 85.4684 37.1337 85.2857 37.127 85.2722C37.0999 85.2181 37.127 85.1301 37.1067 85.1031C37.0932 85.0895 37.0188 85.1098 36.9715 85.0624C36.8971 84.988 36.5793 84.5078 36.4711 84.3657C36.39 84.2508 36.4238 84.0275 36.1668 84.0478L36.2615 83.9801C36.133 83.8516 35.7949 83.6825 35.7882 83.5066C35.7882 83.3984 35.8558 83.2902 35.8355 83.1752C35.8152 83.0602 35.7003 83.0737 35.6867 83.0263C35.6394 82.864 35.7611 82.8708 35.7679 82.8437C35.8761 82.5596 35.9775 82.3837 36.0992 82.1199C36.2277 81.8425 36.3832 81.3284 36.5319 81.0984C36.586 81.0173 36.7348 81.024 36.8159 81.0173L36.6266 80.97C36.6131 80.7467 36.8024 80.5844 36.8836 80.395C37.1473 79.8065 37.4583 79.1029 37.6882 78.5009C37.7626 78.298 37.6408 78.1356 38.006 78.1694L37.864 78.122C37.864 77.8582 38.0195 77.6756 38.1074 77.4456C38.1412 77.3644 38.1953 77.0195 38.2427 76.9857C38.2967 76.9451 38.4117 77.0871 38.4793 76.9586L38.3441 76.8774C38.3441 76.8774 38.4117 76.5595 38.4387 76.4986C38.628 75.9913 38.8377 75.3825 39.0541 74.8819C39.0743 74.8345 39.1892 74.8548 39.1419 74.733C39.1013 74.6383 38.7497 74.4557 38.6754 74.3948C38.5807 74.3136 38.6145 74.0634 38.3914 74.1851L38.4185 74.0431C38.2494 74.1649 38.2021 73.8672 38.1412 73.7725C38.1209 73.7387 37.9925 73.6642 37.9857 73.6507C37.9451 73.5695 37.9992 73.2652 37.8369 73.3667C37.6476 73.2111 37.7558 73.1163 37.6814 72.9066L37.5868 73.0013C37.4921 72.6293 37.0188 72.4061 37.0458 72.007L36.8295 71.9596L36.87 71.8243C36.6401 71.8108 36.4711 71.1478 36.4373 71.114C36.3358 71.0193 36.1668 71.0802 36.2074 70.769C35.9031 70.8029 35.6665 70.2347 35.4974 69.9844C35.4298 69.8897 35.2202 69.8152 35.2608 69.5785L35.1458 69.6259L35.0241 69.5312C35.0038 69.4567 35.1999 69.5041 35.1188 69.3891C35.1188 69.3891 35.0444 69.4297 34.9971 69.3891C34.8754 69.2944 34.8821 69.0509 34.6928 69.0982L34.7874 68.9359C34.7266 68.8479 34.6793 68.8682 34.5981 68.9088V68.7194L34.4561 68.7668C34.5778 68.4421 34.3412 68.5165 34.2195 68.4556C34.1992 68.4421 33.9355 68.1309 33.9152 68.0971C33.8341 67.9889 33.8205 67.7251 33.7462 67.698C33.6583 67.7995 33.2796 67.3394 33.2728 67.3056C33.2526 67.2312 33.2932 67.15 33.2594 67.0689C33.2594 67.0553 33.0768 66.9269 33.0565 66.866L32.9889 66.9606C32.9753 66.805 32.7725 66.7712 32.6981 66.6562C32.644 66.5751 32.6981 66.521 32.6914 66.5007C32.6373 66.406 32.2924 66.2707 32.3668 66.0677H32.2316V65.8715C32.0625 65.9595 31.7245 65.6348 31.8056 65.4454L31.7109 65.4928L31.6636 65.3777L31.7583 65.3101L31.3796 65.1681L31.4743 65.026H31.3323L31.3796 64.9313C31.2376 64.9313 31.1565 64.8839 31.0686 64.7757C31.055 64.7622 31.0821 64.7148 31.0686 64.6945C31.028 64.6336 30.9131 64.681 30.9536 64.5525L31.0483 64.5254L30.8117 64.451L30.859 64.309L30.6629 64.2887L30.575 64.0452L30.3857 64.0248L30.5276 63.8828C30.2775 63.9099 30.1963 63.6122 30.007 63.5514L30.1017 63.4092L29.8177 63.3619L29.865 63.2672C29.696 63.2605 29.6757 63.1928 29.6284 63.0508L29.723 62.9628C29.6351 62.8479 29.5472 62.7734 29.3917 62.7937L29.439 62.699C29.2632 62.7328 29.2633 62.6043 29.2497 62.4623L29.1145 62.5096L28.8237 62.1511L28.9184 62.0361C28.729 62.0023 28.8372 61.7385 28.5397 61.8467C28.56 61.664 28.2693 61.5423 28.1882 61.4205C28.1205 61.3191 28.134 61.1973 28.0461 61.0891C27.965 60.9876 27.8568 61.0417 27.7892 60.974C27.7013 60.8929 27.7216 60.7914 27.6743 60.7238C27.5796 60.5885 27.3227 60.6358 27.4309 60.372C27.1266 60.3179 27.0522 60.0406 26.8764 59.8377C26.7479 59.6888 26.6195 59.5468 26.491 59.3979C26.4504 59.3506 26.2138 59.1747 26.2002 59.1477C26.1664 59.0868 26.2273 59.0123 26.2137 58.9447C26.2002 58.8229 25.9433 58.5794 25.7945 58.6741L25.9365 58.4374C25.8419 58.4374 25.781 58.3495 25.6999 58.3156C25.6526 58.2953 25.5985 58.3359 25.5646 58.3291C25.5241 58.3156 25.47 58.0924 25.3685 58.2006C25.4023 57.9165 25.0102 57.8151 24.8953 57.558L24.9899 57.5106C24.9358 57.4092 24.8479 57.4836 24.8073 57.4701C24.76 57.4498 24.6924 57.2739 24.6721 57.2536C24.6045 57.1859 24.4287 57.1386 24.3678 56.9897C24.3137 56.8612 24.5301 56.9695 24.5098 56.8748C24.2191 56.9154 24.2056 56.6718 23.9892 56.5907V56.4959L24.0839 56.4486C24.0162 56.4486 23.9351 56.4418 23.881 56.4012C23.7661 56.3201 23.5767 56.0157 23.4956 55.8939C23.455 55.833 23.3266 55.8736 23.4145 55.691L23.2251 55.7383V55.5489L23.1304 55.6436C23.1575 55.488 23.0358 55.4813 22.9682 55.4001C22.8938 55.3122 22.7924 55.1227 22.7248 55.0348C22.6571 54.9536 22.3935 54.8252 22.6098 54.771L22.3731 54.6966L22.4002 54.5545L21.8998 54.1555L21.9945 54.0607C21.9269 53.7496 21.5415 53.7361 21.3995 53.5669C21.3792 53.5399 21.2102 53.2828 21.1966 53.2693C21.1763 53.2287 21.2643 53.1137 21.1155 53.0461L21.0006 53.1408C21.0682 53.0528 20.9735 52.8364 20.9059 52.7822C20.8924 52.7687 20.6828 52.8025 20.5678 52.5928C20.507 52.4846 20.5408 52.3831 20.5137 52.3358C20.4934 52.3019 20.3041 52.2749 20.25 52.2208C20.2365 52.2073 20.0539 51.9773 20.0472 51.9638C19.9998 51.8893 20.0472 51.7946 20.0269 51.7608C19.9931 51.7067 19.8646 51.8082 19.7699 51.6255C19.7361 51.5579 19.7429 51.4226 19.7091 51.3888C19.682 51.3617 19.5401 51.3617 19.4319 51.2602C19.2831 51.1114 19.2358 50.8273 19.2223 50.807C19.1749 50.7461 18.918 50.719 18.9585 50.4755L18.8639 50.5229L18.7422 50.2388L18.6746 50.3335L18.6407 50.1982L18.7219 50.1644C18.5934 50.0629 18.377 50.0426 18.4852 49.8532L18.3432 49.8802L18.2486 49.6165L18.1539 49.7111C18.0931 49.4135 17.7685 49.1836 17.5859 48.9265L17.6806 48.8588L17.5386 48.8791V48.71L17.3493 48.7574C17.3358 48.6289 17.2073 48.3921 17.0653 48.3785L17.2073 48.3109L16.9301 48.2365C16.9301 47.9998 16.6799 47.8374 16.5446 47.648L16.6393 47.5804C16.4229 47.5668 16.3621 47.3166 16.1728 47.2421L16.2133 47.1068C16.0308 47.1474 16.0375 46.958 15.9429 46.8362C15.8212 46.6739 15.6386 46.5319 15.6183 46.2951H15.4966C15.5777 46.1869 15.3817 45.9434 15.2938 45.8892C15.2667 45.8757 15.172 45.9163 15.1112 45.8554C15.0503 45.7945 15.0841 45.6998 15.0503 45.6524C15.0098 45.5983 14.8137 45.4631 14.7799 45.3751L14.8745 45.3277L14.2863 44.7257L14.1105 44.3537L14.0158 44.401C14.0564 44.1845 13.8265 44.2048 13.7859 44.1575C13.7859 44.1575 13.8197 44.1034 13.813 44.0966C13.5831 43.7246 13.1571 43.1496 12.8325 42.8114C12.5621 42.534 12.3119 42.0673 12.0144 41.7155C10.9731 40.4776 9.98591 39.1721 9.10014 37.7853C7.72753 35.6275 6.55101 33.3275 5.59086 30.9261L5.44211 30.8991L5.53676 30.8247C5.08373 29.7221 4.61043 28.6059 4.17769 27.483C3.75847 26.4007 3.26486 25.1492 2.89297 23.979C2.79154 23.661 2.64279 22.7208 2.47375 22.5043C2.45347 22.4773 2.39263 22.457 2.35882 22.457L2.44672 22.3893C2.31825 22.1526 2.4332 21.7129 2.16949 21.6047L2.25738 21.4896C2.13567 21.1041 2.04102 20.6847 1.95988 20.2788C1.68942 18.9259 1.49333 17.4783 1.19582 16.1389C1.16201 15.9969 1.00648 15.9224 1.0741 15.6519C1.08762 15.5977 1.18905 15.6519 1.16877 15.5775L0.986212 15.5031C0.918596 14.8401 0.661657 14.1975 0.607564 13.5211L0.465556 13.494C0.445271 13.4128 0.546705 13.4737 0.560228 13.4196C0.573751 13.3655 0.539938 12.9731 0.533176 12.8784C0.519653 12.7499 0.424988 12.4861 0.424988 12.3373C0.424988 12.317 0.499362 12.3237 0.506124 12.2832C0.539932 12.1682 0.607549 12.0329 0.465556 12.0126C0.600788 11.9314 0.614325 11.7961 0.796888 11.8434L0.702216 11.7758L0.844204 11.7488L0.796888 11.6541C1.10792 11.6473 1.22285 11.4443 1.54065 11.3835C3.60294 10.9844 5.13784 12.7431 6.86205 13.5075L6.87556 13.494ZM3.42037 12.9596L3.43391 12.8717C3.27839 12.9867 3.12288 12.7702 2.97413 12.7093C2.7848 12.6349 1.89226 12.344 1.80436 12.6146C1.77731 12.6958 1.80435 13.1423 1.81788 13.264C1.86521 13.609 2.0275 14.0961 2.10187 14.4613C2.12216 14.5628 2.21005 14.8266 2.21681 14.8469C2.21681 14.9213 2.14245 14.9822 2.14921 15.0295C2.14921 15.0701 2.23711 15.131 2.25063 15.1919C2.29796 15.3813 2.2709 15.5775 2.36556 15.7398L2.27091 15.7872C2.50081 15.9833 2.467 16.2742 2.52109 16.538C2.54137 16.6462 2.60223 16.7815 2.64956 16.883L2.55489 16.9304C2.70364 17.2009 2.77126 17.6203 2.83212 17.9383C2.96059 18.6283 3.09583 19.3588 3.2243 20.0556C3.25811 20.2247 3.39334 20.2923 3.2243 20.4615C3.42039 20.475 3.31896 20.5967 3.34601 20.6576C3.48124 21.0161 3.49475 21.3747 3.58941 21.7332C3.89369 22.944 4.31968 24.1075 4.71861 25.2237C5.01612 26.0489 5.29334 26.881 5.64495 27.6927L5.50296 27.7603C5.57734 27.7739 5.672 27.7942 5.71257 27.8551C5.88161 28.0986 6.0236 28.7818 6.15207 29.0862C6.56452 30.0806 7.10545 31.2305 7.49762 32.1031C8.95136 35.3907 10.8649 38.3738 13.0557 41.1135C13.3937 41.5329 13.7115 41.844 14.0564 42.2702C14.1308 42.3582 14.1984 42.5475 14.2525 42.5949C14.3269 42.6625 14.435 42.6558 14.5094 42.7167C14.6447 42.8249 14.6987 43.0414 14.7596 43.1496C14.7866 43.2037 15.0571 43.3864 15.0706 43.4066C15.0841 43.4269 15.0233 43.4946 15.0503 43.5419C15.0706 43.5758 15.3817 43.8396 15.4358 43.9208C15.4696 43.9749 15.4019 44.056 15.4087 44.0628C15.4087 44.0628 15.4898 44.0493 15.5507 44.0966C15.6115 44.144 15.8212 44.4551 15.8955 44.5498C16.3959 45.1789 16.8354 45.8418 17.3155 46.5183C17.4642 46.728 17.8226 47.1136 18.0187 47.3571C18.0728 47.4247 18.3162 47.6074 18.3297 47.6345C18.3568 47.6886 18.3297 47.7765 18.35 47.8036C18.3635 47.8239 18.4447 47.8036 18.4717 47.8239C18.661 47.993 18.9045 48.4124 19.1073 48.6424C19.486 49.0753 19.9255 49.6706 20.3109 50.1847L20.6625 50.4755L20.6219 50.6109C20.8924 50.5838 20.8991 50.8882 21.0006 51.0099C21.0344 51.0573 21.1087 51.0302 21.1493 51.0708C21.2237 51.1587 21.3589 51.3278 21.3521 51.3955C21.3521 51.4496 21.44 51.409 21.4806 51.4226L21.386 51.5173C21.5753 51.4902 21.5821 51.6458 21.67 51.7337C21.7308 51.7946 21.8119 51.8149 21.8593 51.8758C21.9472 51.9773 22.0351 52.2614 22.1906 52.2817L22.0959 52.3764C22.3934 52.3223 22.4813 52.7551 22.6166 52.9175C22.8735 53.2151 23.286 53.6211 23.57 53.9187C24.0906 54.4734 24.5707 55.116 25.1184 55.6707C25.2739 55.833 25.2604 55.9548 25.3009 56.036C25.3618 56.1375 25.8216 56.496 25.9501 56.7125C26.0042 56.8004 26.0244 56.9492 26.0515 56.9897C26.1056 57.0574 26.1934 57.0101 26.2543 57.0507C26.4031 57.1454 26.687 57.5851 26.8088 57.7271C26.9575 57.903 27.0995 58.133 27.3091 58.2209L27.2145 58.4103C27.4917 58.3427 27.4579 58.5118 27.5931 58.6606C28.107 59.2221 28.4992 59.7226 28.986 60.2908C29.1821 60.5208 29.4999 60.7711 29.6824 60.9944C29.7298 61.0552 29.6216 61.1567 29.8718 61.1635L29.8244 61.3055C30.0341 61.292 30.0003 61.4476 30.0814 61.5288C30.3789 61.8264 30.5885 62.1376 30.8387 62.4284C31.3255 62.9831 31.907 63.4634 32.2518 64.0992L32.9551 64.7487V64.9178C33.1444 64.8772 33.0632 64.9989 33.1038 65.0463C33.1985 65.1748 33.78 65.7431 33.8882 65.831C33.9355 65.8716 34.0843 66.2571 34.2263 66.318L34.1384 66.433L34.375 66.3856V66.5278L34.233 66.5074C34.3006 66.5886 34.4156 66.6021 34.4967 66.6698C34.9362 67.0486 35.3419 67.6777 35.6935 68.1309C35.8152 68.2933 36.0925 68.5165 36.1668 68.6315C36.1939 68.6789 36.1668 68.7668 36.2074 68.8074C36.2412 68.8547 36.3223 68.8344 36.3629 68.8682C36.4305 68.9291 36.9985 69.7679 37.1067 69.9235C37.1946 70.0588 37.3568 70.1468 37.323 70.3226L37.4109 70.282C37.5732 70.5255 37.6409 70.8029 37.891 70.9652C37.6544 71.1208 37.9181 71.1343 38.0127 71.2223C38.4455 71.6417 38.7498 72.4331 39.1217 72.8931C39.3245 73.1434 39.6152 73.3734 39.8181 73.5628C40.1629 73.8807 40.2508 74.2798 40.2035 74.7466C40.1426 75.3554 39.9128 76.1197 39.7167 76.6812C39.6017 77.0262 39.3989 77.3509 39.3313 77.7162C39.3718 77.8109 39.4732 77.6553 39.4935 77.6282C39.6626 77.4321 39.8451 77.1412 40.0345 76.9653C40.075 76.9315 40.2035 76.9992 40.1629 76.8098C40.3184 76.9248 40.2373 76.7421 40.3185 76.6812C40.359 76.6474 40.501 76.6406 40.5889 76.5933C40.9202 76.4039 40.8932 76.37 41.3124 76.2753C41.4544 76.2415 41.6505 76.1672 41.7587 76.1536C42.0697 76.0995 42.6512 76.1671 42.8811 76.1062C42.9352 76.0927 42.9352 75.9777 42.9893 75.9642C43.0704 75.9439 43.2056 76.0656 43.2868 76.0927C43.395 76.1197 43.5099 76.0927 43.6181 76.1401C43.6993 76.1807 43.7195 76.2754 43.8074 76.3295C43.99 76.4513 44.2875 76.431 44.3416 76.573H44.4092L44.3822 76.4783C44.7608 76.4783 45.0448 76.6948 45.3829 76.7895C45.4573 76.8097 45.5249 76.7759 45.5722 76.7895C45.7548 76.8436 46.5188 77.121 46.627 77.0939C46.6608 77.0871 46.6541 77.0127 46.6879 77.006C46.7825 76.9789 46.9786 76.9789 47.1003 76.9113C47.2018 76.9451 47.3843 77.3036 47.4249 77.3306C47.4857 77.3645 47.5737 77.2833 47.6278 77.29C47.648 77.29 47.6818 77.3915 47.7697 77.4388C47.9726 77.5471 48.2431 77.5133 48.4594 77.5742C47.763 77.0668 46.9448 76.6136 46.1672 76.2348C44.1861 75.2675 42.09 74.6857 40.5619 72.9269C39.6896 71.919 39.1081 70.6743 38.3779 69.5852C38.3306 69.5108 38.3441 69.477 38.2291 69.4161C37.3501 68.9697 37.0864 68.5029 36.5725 67.7182C36.0113 66.8794 35.5515 65.9257 35.0579 65.0598C34.8145 64.6269 34.375 64.0519 34.1789 63.6122C34.1384 63.5175 34.1586 63.389 34.1384 63.3484C34.1113 63.3078 33.7732 63.2875 34.0504 63.1725C34.0031 63.0981 33.8949 63.1117 33.8408 63.0508C33.7462 62.9493 33.7665 62.7396 33.7529 62.726C33.5569 62.4622 33.3134 62.212 33.1038 61.9211C32.8942 61.6302 32.6778 61.2176 32.4344 60.8929C32.3938 60.8388 32.3127 60.8185 32.3059 60.8049C32.2721 60.744 32.3533 60.6426 32.3465 60.629C32.3465 60.6223 32.2451 60.602 32.2045 60.5546C32.1775 60.5208 32.2045 60.4599 32.191 60.4464C32.1099 60.3449 31.88 60.1623 31.8056 60.0541C31.7447 59.9661 31.7853 59.8241 31.6433 59.8106L31.6839 59.6753C31.5013 59.7159 31.4743 59.5129 31.4269 59.452C30.9874 58.8162 30.4938 58.133 29.9732 57.558C29.8785 57.4565 29.8921 57.2874 29.838 57.1995C29.8109 57.1521 29.7095 57.1318 29.6689 57.0777C29.3782 56.6989 29.0807 56.2728 28.8237 55.9481C28.7899 55.9075 28.6614 55.8398 28.6276 55.7924C28.4856 55.5759 28.5533 55.6842 28.4248 55.5489C28.2828 55.3933 27.9988 54.9401 27.8433 54.7304C27.7757 54.6425 27.8298 54.5275 27.654 54.5681L27.681 54.4734L27.8906 54.5478C27.8365 54.426 27.6269 54.426 27.5728 54.3651C26.9169 53.6548 26.1867 52.559 25.6255 51.7879C24.8006 50.6582 24.0095 49.5218 23.2454 48.3448C23.0088 47.9795 22.7586 47.6006 22.5354 47.2895C22.4069 47.1001 22.3529 46.843 22.2514 46.6806C22.2312 46.6468 22.0892 46.6265 22.0216 46.5115C21.6564 45.9163 21.2845 45.2534 20.9262 44.6716C20.8112 44.4754 20.703 44.2793 20.5475 44.1169L20.6422 44.0493C20.365 43.9749 20.3582 43.6366 20.2433 43.4472C20.081 43.1766 19.7294 42.7843 19.5536 42.4935C19.4183 42.2635 19.3169 41.9184 19.1208 41.702L19.2155 41.587C19.06 41.5802 18.9383 41.4246 18.8639 41.2961C18.3568 40.41 17.7955 39.49 17.2681 38.5768C17.1735 38.4144 17.0924 38.2385 17.0247 38.0627L16.1795 36.7301L16.2742 36.6827C16.0849 36.6016 16.0713 36.446 15.9834 36.3107C15.8888 36.1619 15.7265 35.9724 15.6656 35.8236C15.6251 35.7154 15.6183 35.5327 15.6115 35.5192C15.6115 35.5192 15.5439 35.5733 15.4966 35.5192C15.4019 35.4177 15.3614 35.1946 15.3005 35.0931C13.6439 32.3467 12.0144 29.5191 10.6215 26.4954C10.4389 26.0963 10.2631 25.616 10.0603 25.1695C9.80333 24.6081 9.64105 24.1075 9.18802 23.6949C9.16097 23.6678 9.1745 23.6205 9.16774 23.6205C9.15421 23.6137 9.07307 23.7017 8.9987 23.7152C8.593 23.7896 7.82218 23.8775 7.41648 23.8775C7.17307 23.8775 7.00404 23.8843 6.79443 23.7152V23.8572C6.63891 23.891 6.59157 23.7693 6.57128 23.7625C6.46986 23.7355 6.38196 23.9046 6.29405 23.6678C6.22644 23.7558 6.11826 23.776 6.01008 23.7693C5.92218 23.7625 5.94246 23.6746 5.92217 23.6746C5.87484 23.6746 5.80722 23.7287 5.72608 23.722C5.6179 23.722 5.28658 23.5393 5.17839 23.5055C5.00935 23.4581 4.83356 23.5055 4.70509 23.3566L4.79975 23.3093C4.61042 23.1875 4.79975 23.0996 4.79975 23.0725C4.79975 23.0523 4.50225 22.8899 4.51577 22.7681L4.79975 22.7208C4.82003 22.6261 4.5969 22.7208 4.65776 22.6058C4.70509 22.5111 4.90118 22.5246 4.97555 22.4705C5.00936 22.4434 5.16488 22.227 5.21221 22.1999C5.38802 22.1052 5.8478 22.1188 6.05065 22.1052L6.0777 21.9564L6.26702 22.0511L6.21969 21.909C6.44958 21.997 6.65244 21.882 6.88233 21.8617L6.78766 21.767L7.45705 21.6047L7.50439 21.4355L7.70725 21.4896L7.80867 21.3408C7.856 21.4423 7.84923 21.4491 7.97094 21.4355L7.9236 21.2461C8.0656 21.1514 8.26169 21.2056 8.34959 21.1785C8.4713 21.1447 8.46454 20.9688 8.69444 21.0162C8.75529 20.7388 8.877 20.8808 8.91081 20.8605C8.92434 20.8538 8.96491 20.7118 9.03928 20.6779L9.13394 20.7726C9.27593 20.5155 9.33679 20.5088 9.56669 20.3735C9.64783 20.3329 9.67486 20.1706 9.91152 20.245C9.76952 20.0015 10.0806 20.0691 10.1482 20.0285C10.2158 19.9879 10.2293 19.8256 10.3104 19.7715L10.4254 19.8662C10.3848 19.5888 10.6283 19.6632 10.6621 19.4874C10.75 19.4671 10.6621 19.6226 10.777 19.582C10.9258 19.5347 10.7364 19.4129 10.7567 19.3927L11.088 19.2979C10.9393 19.095 11.5681 19.095 11.4667 18.9191C11.3247 18.865 11.2165 18.7027 11.1083 18.5877C10.8176 18.2562 10.4524 17.9112 10.1008 17.5933C8.84318 16.4636 7.43678 15.4219 6.03036 14.5087C5.85456 14.3937 5.6517 14.2922 5.44885 14.2178L5.49619 14.1299C5.32039 14.1299 5.14459 14.0149 4.98907 13.9202C4.53604 13.6428 4.09655 13.3452 3.64352 13.0679C3.58266 13.0273 3.44066 13.0069 3.42037 12.9866V12.9596ZM26.0041 38.7797C25.9095 38.7324 25.6661 38.7256 25.5511 38.6444L24.8411 38.2183L24.6924 38.2724L25.3618 39.5712H26.092L28.249 39.9094C28.3707 39.8012 27.8298 39.6456 27.7892 39.632C27.7351 39.6185 27.6607 39.6727 27.6405 39.6591C27.6269 39.6591 27.5661 39.5035 27.4376 39.4562C27.3835 39.4359 27.3227 39.4697 27.255 39.4562C27.0725 39.3885 26.9237 39.2329 26.7479 39.287L26.7344 39.1721C26.5992 39.1721 26.4098 39.1112 26.2949 39.0503C26.2475 39.0232 26.0312 38.7932 26.0041 38.7865V38.7797ZM29.0468 41.6546C29.0942 41.4923 29.1077 41.3232 29.1483 41.1608C29.1753 41.0458 29.3173 40.9376 29.1956 40.8226C28.0732 40.4776 26.8967 40.3694 25.7337 40.1867L26.4301 41.3164C27.3159 41.1473 28.2152 41.3705 29.0536 41.6546H29.0468ZM29.101 43.1699L29.0063 42.2905C28.5803 42.1755 28.1543 42.047 27.7148 41.9658C27.5728 41.9387 26.7682 41.8305 26.7276 41.8846L27.3024 43.0143C27.3835 43.0616 27.9109 42.9264 28.0664 42.9331C28.3775 42.9466 28.7831 43.1023 29.0942 43.1699H29.101ZM29.2632 44.0087C29.1077 43.8328 28.6209 43.6502 28.3775 43.5893C28.1138 43.5217 27.8501 43.5014 27.5796 43.4608L28.2761 44.7934C28.3842 44.8069 28.4924 44.7392 28.5938 44.746C28.8711 44.7595 29.1483 44.9625 29.3985 44.8813L29.5202 45.0234L29.4458 44.4078L29.2632 44.0087ZM28.6412 45.2872C28.6412 45.2872 28.6141 45.2128 28.6006 45.2128L28.4857 45.3277L29.3917 47.1068C29.7501 47.0189 30.0814 47.0797 30.4059 47.2556C30.3992 46.8836 30.1152 46.5995 30.0476 46.2409L30.1422 46.1665C29.892 46.2004 29.9732 45.9433 29.8786 45.8351C29.7771 45.7133 28.8575 45.3887 28.6412 45.294V45.2872ZM30.744 48.1147C30.6967 48.0674 29.75 47.6344 29.7162 47.675C29.6689 47.8712 29.8583 47.9727 29.9259 48.1079C29.98 48.2229 30.0611 48.6018 30.1761 48.6221C30.3992 48.4665 30.6088 48.595 30.8522 48.5747C30.9266 48.5071 30.8049 48.1756 30.7508 48.1147H30.744ZM41.7993 77.263H41.6573V77.3103H41.7993V77.263Z" fill="#6F7A58" stroke="#6F7A58" stroke-width="0.85" stroke-linecap="round" stroke-linejoin="round"/>
<path d="M28.0056 0.452031C30.3384 1.16907 32.4209 2.56933 34.3683 4.01017C34.6793 4.24016 35.085 4.65954 35.4028 4.83542C35.4637 4.86924 35.5651 4.84897 35.5854 4.8625C35.5989 4.86927 35.5718 4.96395 35.7206 5.09247C36.4103 5.70804 37.127 6.23569 37.837 6.80391C38.3914 7.2436 38.6889 7.53448 39.3313 7.86594C39.5341 7.97417 40.2373 8.64384 40.4672 8.8603C42.2793 10.5717 44.1726 12.4658 45.7278 14.2719C46.3837 15.0363 46.8637 15.963 47.4249 16.7748C47.452 16.8086 47.4993 16.7612 47.5399 16.8018C47.594 16.8559 47.6346 16.998 47.6751 17.0251C47.7495 17.0724 48.0132 17.1333 48.1349 17.2009C49.8118 18.1412 52.0228 19.5753 53.5104 20.7861C54.2744 21.4085 55.3022 22.3217 54.4773 23.3228C54.8357 23.9587 54.9573 24.466 54.5314 25.1154C54.8221 25.4401 55.1196 26.0624 55.0452 26.4954C55.0317 26.5765 54.9371 26.6374 54.9573 26.7253C54.9709 26.7727 55.1399 26.9554 55.194 27.0095C55.2346 27.0501 55.2954 27.0365 55.336 27.0771C55.9919 27.7874 56.6139 28.7547 56.3097 29.7491C56.2488 29.952 55.8702 30.2497 55.6673 30.297C55.5321 30.3241 55.3698 30.2294 55.2413 30.3376C55.7349 31.1696 56.1406 31.9881 56.5734 32.8337C56.7627 33.199 56.9385 33.686 57.1819 34.0243C57.2022 34.0513 57.2428 34.0581 57.2766 34.0581L57.1819 34.1528C57.3915 34.2137 57.4186 34.5384 57.52 34.7278C58.3449 36.3377 59.1563 38.0627 59.8325 39.7335C60.299 40.8902 60.6574 42.1349 61.178 43.2172C61.2795 43.4269 61.3268 43.7651 61.4012 43.9748C62.0232 45.5848 62.8076 47.5194 63.8353 48.8994C63.8624 48.9332 63.8624 48.9941 63.8624 49.0347L63.957 48.9873C63.957 49.1023 63.9976 49.1903 64.072 49.2715C64.1937 49.3932 64.0991 49.2173 64.1937 49.2241C64.241 49.3188 64.3154 49.4676 64.3966 49.5352C64.4371 49.569 64.6197 49.5082 64.525 49.745C64.64 49.6909 64.7414 49.7788 64.8563 49.7923L64.7617 49.8397C64.7617 50.0358 65.0254 49.9141 65.1877 50.0561C65.262 50.1238 65.1606 50.2185 65.2553 50.2658C65.3973 49.975 65.4919 50.3808 65.519 50.4079C65.519 50.4079 65.5934 50.3605 65.6542 50.3876C65.9585 50.4958 66.7023 51.0573 66.9457 51.3076C67.1147 51.1994 67.0674 51.4225 67.2702 51.409L67.2229 51.5511L67.4122 51.524L68.5414 52.4169L68.5211 52.5455C68.724 52.4305 68.7578 52.6875 68.7916 52.7214C68.8322 52.762 69.1297 52.9649 69.1973 52.9784V53.1678C69.5016 53.0596 69.4272 53.4046 69.6774 53.4114L69.63 53.5263C69.6909 53.5466 69.7179 53.4925 69.7923 53.5466C69.9816 53.6684 70.1912 54.0742 70.4347 54.1892L70.34 54.2569C70.5428 54.2096 70.5226 54.4327 70.6037 54.541C70.6443 54.5883 70.7119 54.541 70.766 54.6086C70.8539 54.7168 70.9418 55.0415 71.0229 55.1159C71.1041 55.1836 71.2325 55.0754 71.3475 55.1498C71.4083 55.1904 71.4016 55.2919 71.4489 55.346C71.4962 55.3933 71.5706 55.373 71.6179 55.4272C71.7667 55.5895 71.8276 55.8939 71.929 56.0562C72.1521 56.4418 72.5849 56.8815 72.808 57.3144C72.8283 57.3618 72.8959 57.4497 72.8283 57.4835C72.3211 57.1859 71.9222 56.7665 71.5098 56.3674C71.3069 56.178 70.9282 56.0022 70.962 55.6842L70.7863 55.8262H70.4414L71.5571 57.2468C71.3475 57.1453 71.1581 57.0304 70.9688 56.8883C70.3062 56.4148 69.745 55.8127 69.0823 55.3392C69.1635 54.9401 68.5617 55.1024 68.4535 54.7777C68.3791 54.7642 68.3994 54.8454 68.413 54.886C68.44 54.9671 68.5549 55.1769 68.6023 55.2648C68.8592 55.7383 69.2581 56.1847 69.5421 56.6515L69.4745 56.7192C68.8998 56.1848 68.2709 55.6909 67.7165 55.1363C67.3649 54.7845 67.0065 54.196 66.5467 53.9592C66.4453 53.9051 66.2966 53.9255 66.2019 53.8308L67.4122 56.036C67.4325 56.0969 67.3987 56.1307 67.3446 56.1036C67.2229 56.0495 66.9592 55.6706 66.851 55.5557C66.5332 55.2174 66.1951 54.8521 65.8165 54.6221C65.7083 54.5613 65.5392 54.169 65.4716 54.0878C65.404 54.0066 65.2688 54.0472 65.3297 53.8308C65.262 53.8105 65.2958 54.0134 65.1877 53.9255C65.1741 53.9119 65.1674 53.7563 65.1403 53.7225C65.1403 53.709 65.0524 53.6616 64.978 53.5669C64.7076 53.2219 64.4642 53.019 63.9976 53.046C64.1261 53.1069 64.0923 53.3775 64.099 53.391C64.1126 53.4113 64.1869 53.4113 64.2208 53.479C64.4033 53.8307 64.8226 54.8319 64.9172 55.1972C64.9443 55.2919 64.951 55.3798 64.9375 55.4813C64.8293 55.3933 64.7211 55.2378 64.7008 55.1025L64.6062 55.1972L63.078 53.0731L62.7603 53.2355C62.7467 53.2828 62.8279 53.3639 62.8414 53.4316C62.9631 54.0742 63.1051 54.7304 63.0916 55.3865C62.6994 54.8386 62.3816 54.2163 62.1449 53.5872L61.8136 53.6819C62.0368 53.8172 61.9218 53.9186 61.9691 54.1216C62.1111 54.7372 62.3951 55.319 62.4289 55.9548L62.1585 55.7451C61.8542 55.1972 61.3538 54.6898 61.2186 54.054L60.6709 54.3381C60.9617 54.8048 60.7521 55.461 60.8129 55.9954C60.7453 55.9954 60.725 56.0089 60.6709 55.9615C60.5762 55.8803 60.2855 55.3933 60.2044 55.2513C60.13 55.1228 60.0962 54.9536 60.0151 54.8251C59.9812 54.771 59.9948 54.7237 59.8866 54.7643C59.7581 54.8184 59.8595 55.4203 59.8663 55.5421C59.8663 55.6639 59.8798 56.1239 59.8189 56.1848C59.7446 56.2524 59.7311 56.151 59.7108 56.1239C59.4809 55.8601 59.3186 55.5016 59.1495 55.1904H59.0954L58.4937 55.4745C58.5478 55.8804 58.6559 56.2863 58.6357 56.7057C58.5478 56.8004 58.2502 56.3674 58.2097 56.3065C57.9933 55.9953 57.662 55.4677 57.7364 55.0822C57.7431 55.0483 57.8175 55.0484 57.831 55.0145C57.8919 54.7845 57.9528 54.5342 57.9798 54.2975L58.0744 54.3178L58.115 54.2704C58.1015 54.2163 58.0745 54.1622 58.0947 54.108C58.2503 53.5736 58.7641 52.7957 58.9602 52.2478C59.0211 52.0719 59.0752 51.5578 59.1631 51.3955C59.1901 51.3413 59.2848 51.3414 59.2983 51.2805C59.3118 51.2264 59.2645 51.1452 59.278 51.0708C59.2983 50.9558 59.6432 50.8408 59.4944 50.6244H59.5891L59.704 50.1779C59.3456 49.8667 59.2307 49.4338 58.9873 49.0414C57.1143 46.0177 54.5516 43.366 52.1986 40.7617C50.4947 38.8879 48.8313 37.0074 47.0598 35.1607C46.7082 34.7954 46.3228 34.4031 45.9441 34.0919L45.9847 34.004C45.6466 33.8687 45.4032 33.4628 45.1463 33.199C43.6181 31.6296 42.0833 30.04 40.643 28.4368C39.5139 27.1786 38.4185 25.8933 37.3772 24.6148C35.7273 22.5922 34.2398 20.6035 32.8402 18.3915C32.5494 17.9315 32.2181 17.4783 31.9544 17.0048C31.6907 16.5312 31.5554 16.1321 31.2444 15.6654C30.0611 13.9134 29.1348 11.5188 28.3978 9.57734C28.3707 9.50293 28.1949 9.415 28.3099 9.2053L28.2152 9.25266C28.1138 8.82649 27.911 8.44092 27.7622 8.03505C27.7351 7.95388 27.6946 7.68329 27.6337 7.60212C27.6202 7.58182 27.5796 7.58857 27.5526 7.58857V7.54122L27.6472 7.51417C27.5796 7.41947 27.512 7.32477 27.4647 7.21653C27.1942 6.56038 26.944 5.74185 26.748 5.12628C26.7141 5.01805 26.6871 4.90984 26.6465 4.80837L26.748 4.76102C26.5586 4.64602 26.6533 4.57839 26.6465 4.47692C26.6465 4.44986 26.5789 4.46338 26.5654 4.42279C26.518 4.26721 26.4301 4.04397 26.5113 3.90868L26.4234 3.88841C26.4031 3.80724 26.518 3.86809 26.5248 3.81397C26.5248 3.79368 26.4775 3.47576 26.4707 3.4487C26.4504 3.38782 26.3017 3.38782 26.2814 3.19842C26.2611 2.98195 26.3693 3.15784 26.4234 3.03608C26.3828 3.03608 26.3287 3.02254 26.3084 2.98872C26.2341 2.88049 26.207 2.16345 26.2408 2.01463C26.2611 1.9064 26.3828 1.85906 26.3828 1.77789C26.3828 1.71701 26.2949 1.6561 26.2882 1.58169C26.2408 1.27052 26.7547 0.614391 27.059 0.506159L27.3294 0.424988H27.9921L28.0056 0.452031ZM28.7561 1.50729C28.7561 1.50729 28.6479 1.53435 28.5871 1.50729C27.8636 1.2773 27.1469 0.878173 27.0184 1.99432C26.8696 3.24575 27.7351 5.70803 28.1746 6.93917C29.1213 9.56379 30.1963 11.9111 31.4134 14.3734C31.454 14.4613 31.9544 15.7398 32.0355 15.6654L32.0626 15.5707C32.3263 15.8277 32.4547 16.1998 32.6441 16.5042C34.0505 18.7838 35.5921 21.0364 37.2352 23.0996C40.19 26.8133 43.4964 30.27 46.7623 33.6725C49.6495 36.6759 52.5232 39.7606 55.2752 42.9061C56.0325 43.7719 57.2969 45.0233 57.8581 45.9906C57.8987 46.0583 57.9054 46.1868 57.9122 46.1936C57.9189 46.2004 57.9595 46.0989 58.0812 46.2612C58.6627 47.0189 60.2111 49.0415 60.2179 49.9276C60.2382 51.1791 59.6161 52.6808 59.1022 53.8104C59.0008 54.0337 58.9129 54.2704 58.8115 54.4937C58.8926 54.514 58.8317 54.4125 58.8926 54.3989C58.9535 54.3854 59.0143 54.4125 59.0887 54.3854C59.2239 54.3313 59.7446 54.0269 59.9136 53.9255C59.9677 53.8916 59.9744 53.7969 60.0218 53.7901C60.0623 53.7834 60.1773 53.851 60.1841 53.8308C60.1976 53.8105 60.1638 53.736 60.1976 53.7022C60.2449 53.6481 60.6439 53.4925 60.7588 53.4316C60.9955 53.3031 61.6987 52.9987 61.7798 52.9378C61.8272 52.8972 61.8474 52.789 61.8948 52.7619C61.9488 52.7281 62.03 52.8025 62.0841 52.7619C62.199 52.6875 62.2667 52.5725 62.5033 52.4643C63.8962 51.8352 65.0051 52.3899 66.2966 52.9513C66.5129 53.046 66.7428 53.1678 66.9457 53.3031L67.108 53.2084V53.3978C67.1485 53.3775 67.1891 53.364 67.2364 53.3843C67.8044 53.6278 68.3724 53.8916 68.9403 54.1487C69.1432 54.2366 69.2784 54.4125 69.5219 54.3922C69.3731 54.2501 69.2176 54.0201 69.0756 53.8848C68.3927 53.2422 67.3919 52.4507 66.6279 51.9028C65.5663 51.1452 64.0585 50.462 63.2674 49.4338C63.1524 49.285 62.8887 48.6897 62.767 48.6964L62.6724 48.7911C62.2329 48.3109 61.6987 47.9185 61.2727 47.4247C60.7723 46.8497 60.2787 46.1192 59.8933 45.4698L59.8054 45.5104C59.4403 44.888 58.9873 44.3469 58.5748 43.7787C56.8168 41.3773 55.1602 38.9691 53.3954 36.5948C52.9289 35.9589 52.2865 35.2622 51.9146 34.6128C51.8064 34.4234 51.4751 34.0446 51.2926 33.8078C50.3459 32.5564 49.3452 31.3117 48.5 30.0061C48.0402 29.2891 47.4926 28.6735 46.9922 27.97C44.4769 24.4457 42.3537 20.6576 39.737 17.1942C39.737 16.9304 39.6897 17.086 39.595 16.998C39.0676 16.4974 38.4928 15.3745 37.9587 14.759C37.3907 14.1028 36.7619 13.5887 35.8694 13.4872C34.9768 13.3858 34.0843 13.7916 33.2255 13.8525C32.7117 13.8931 32.6035 13.6631 32.5832 13.1761C32.7861 12.9731 32.9889 12.689 33.2053 12.5064C34.2601 11.5999 35.4434 10.7611 36.5117 9.82085C36.6199 9.72615 36.8363 9.61116 36.9174 9.53675C37.0188 9.44205 37.2081 9.04296 37.3028 8.96179C37.3704 8.90091 37.4718 8.98206 37.6003 8.9347C37.6477 8.91441 38.2765 8.4612 38.3373 8.40032C38.3644 8.37326 38.432 8.27178 38.4185 8.25825C38.1007 8.18384 37.9046 7.8727 37.6747 7.69006C35.3622 5.85688 33.158 3.90871 30.5547 2.45434C29.9665 2.12288 29.4255 1.91994 28.8373 1.60878C28.7764 1.57495 28.7629 1.50051 28.7494 1.48698L28.7561 1.50729ZM38.7633 9.08354L37.9587 9.60438L38.5267 10.707L40.0007 11.2617L38.7701 9.08354H38.7633ZM39.9263 9.50971V9.55707C39.9263 9.55707 39.9601 9.52324 39.9263 9.50971ZM40.4402 10.0576C40.3455 9.96293 40.1292 9.645 40.021 9.59765C39.9601 9.5706 39.9331 9.61117 39.9533 9.66528L41.184 11.7082C41.7317 11.9585 42.3132 12.2426 42.8947 12.3914C42.1306 11.5594 41.2516 10.8423 40.447 10.0509L40.4402 10.0576ZM38.6416 12.7634C38.4117 12.3305 38.2359 11.8637 38.006 11.4308L36.6334 10.8558C36.5049 10.822 36.363 10.9776 36.2615 11.052C36.1601 11.1264 35.4704 11.6879 35.4501 11.7623L38.6957 12.9664C38.8985 12.9596 38.6551 12.7837 38.6416 12.7634ZM40.8797 12.7025C40.8459 12.6484 40.7242 12.5943 40.7039 12.4726C40.5213 12.3779 39.2231 11.8164 39.1419 11.8773L39.9804 13.4331L41.5626 14.0081C41.5761 13.9201 41.5356 13.8457 41.495 13.7713C41.3598 13.5075 41.042 12.9258 40.8797 12.7025ZM35.6394 12.689L34.7131 12.3575L33.9355 12.9664L34.0775 13.0611L34.1046 12.919L34.2127 12.9393L34.1857 12.9866L34.2736 13.0069V12.8649L34.4629 12.9596C34.5508 12.689 34.6117 12.9055 34.6387 12.9122C34.6658 12.919 34.7875 12.8784 34.8416 12.9122C34.8078 12.7364 34.9227 12.7634 35.0715 12.7364C35.1526 12.7228 35.4163 12.7026 35.369 12.8108H35.4366L35.4636 12.7161C35.6056 12.6687 35.511 12.804 35.6056 12.8108L35.653 12.6687L35.6394 12.689ZM42.9826 12.4455H42.8879V12.4928H42.9826V12.4455ZM42.0495 13.0002C42.0495 13.0002 42.0292 12.9461 42.0359 12.9258C41.8737 12.9528 42.0562 13.2166 42.1238 13.3384C42.3537 13.7578 42.6648 14.1569 42.8947 14.5831L43.0434 14.5492L44.7879 15.2054L44.1523 13.7781C43.6925 13.5955 43.1989 13.4737 42.7391 13.2978C42.5836 13.2369 42.1711 13.0746 42.0562 13.0069L42.0495 13.0002ZM39.3719 14.069C39 13.9607 38.6551 13.7849 38.29 13.6564C38.2089 13.6293 38.121 13.6022 38.0398 13.5752C37.9993 13.5617 37.9046 13.4872 37.9114 13.5819L38.317 13.9607C38.7701 14.5222 39.2501 15.0566 39.6694 15.6451C39.7167 15.706 39.7099 15.8075 39.7167 15.8142C39.7167 15.8142 39.8046 15.7668 39.8654 15.7804C40.0277 15.8007 40.1359 15.8548 40.2847 15.9089C40.3049 15.8886 40.1089 15.361 40.075 15.3069C40.0683 15.2866 39.9939 15.2731 39.9601 15.2122C39.764 14.8334 39.5612 14.4546 39.3651 14.069H39.3719ZM42.3064 15.1648L40.5213 14.5357L41.4679 16.3486C41.5761 16.4704 41.8737 16.4906 42.0089 16.5786C42.063 16.6124 42.0765 16.7003 42.09 16.7071C42.0968 16.7071 42.1982 16.6665 42.2726 16.6868C42.6445 16.7748 43.0569 17.0859 43.4559 17.1401L42.3064 15.1648ZM46.3498 18.378L45.3762 16.2945L43.5505 15.6316C43.5167 15.6654 43.7872 16.1795 43.8345 16.2607C43.8548 16.2945 43.9089 16.2945 43.9292 16.3283C44.1929 16.7815 44.4295 17.2551 44.7 17.7015L46.3431 18.378H46.3498ZM41.4882 18.1209C41.326 17.7489 41.0961 17.4445 40.9473 17.0724L40.4943 16.8627L41.5626 18.3306C41.6235 18.1818 41.495 18.148 41.4882 18.1209ZM47.0801 17.5933C46.9652 17.4174 46.8367 17.2483 46.7285 17.0657C46.6541 16.998 46.6744 17.113 46.6879 17.1536C46.8367 17.5662 47.2018 18.1547 47.4249 18.5471C47.5534 18.7703 47.5399 18.9868 47.9118 19.0341C47.9726 18.9732 47.6075 18.4862 47.5601 18.4118C47.3979 18.1344 47.2491 17.8503 47.0801 17.5933ZM43.821 18.1547C43.6249 18.06 43.3747 18.0397 43.1989 17.8706L42.1306 17.5189L43.3139 19.7106L45.6399 20.7861C45.2342 20.1232 44.842 19.4535 44.4363 18.7906C44.3687 18.6756 44.3349 18.493 44.2943 18.4321C44.2673 18.3915 43.8819 18.1885 43.8142 18.1547H43.821ZM48.7096 18.4862C48.7096 18.4862 48.5879 18.4456 48.5812 18.493L49.6089 20.3194C49.8794 20.4141 50.1769 20.3397 50.4541 20.3667C51.0018 20.4141 51.5157 20.5832 52.0431 20.7252C51.9214 20.6643 51.8402 20.5426 51.7388 20.4614C51.3128 20.1503 50.8192 19.8594 50.3933 19.582C49.8388 19.2167 49.2573 18.7973 48.7164 18.4862H48.7096ZM46.2822 19.1491C46.2011 19.1153 46.1132 19.1221 46.0388 19.0882C45.8697 19.0206 45.5723 18.838 45.4235 18.8041C45.3491 18.7906 45.3423 18.8041 45.3559 18.8718L46.7353 21.2867L48.2431 22.0308L46.9651 19.5009C46.7758 19.352 46.5391 19.3182 46.3363 19.2303C46.3025 19.2168 46.2957 19.1627 46.2822 19.1559V19.1491ZM48.5676 20.042L48.1484 19.9879C48.1484 20.1773 48.3107 20.2788 48.3783 20.4073C48.757 21.1311 49.0815 21.9226 49.521 22.6193L50.089 22.8831C49.663 22.024 49.1626 21.1988 48.6961 20.3667C48.6555 20.2923 48.5744 20.0623 48.5609 20.0488L48.5676 20.042ZM50.2716 20.8538C50.2716 20.8538 50.1904 20.8876 50.1431 20.8673C50.0958 20.847 49.7983 20.5358 49.8659 20.8132C50.1769 21.2258 50.4136 21.6926 50.6232 22.1661C51.7456 22.0578 52.7936 22.4772 53.7673 22.9778C53.8552 22.6667 54.1189 22.6869 53.9904 22.3352C53.9634 22.254 53.8282 22.2202 53.8349 22.0849C53.6524 22.0849 53.4022 22.112 53.2196 22.0579C52.4285 21.8414 51.0965 21.3273 50.3459 20.9552C50.2918 20.9282 50.2851 20.8605 50.2783 20.8605L50.2716 20.8538ZM44.9096 21.3341L44.0982 20.9823L44.0306 21.05L45.1936 23.1131C45.7075 23.2822 46.1335 23.634 46.6 23.8911C46.7758 23.9858 46.9651 24.0872 47.1274 24.1752C47.195 24.209 47.7089 24.466 47.7292 24.4457L46.3836 22.0714L44.9164 21.3341H44.9096ZM50.2783 25.7242L48.9057 23.2349L47.5331 22.599C47.5399 22.829 47.736 23.0049 47.8374 23.174C48.0876 23.6069 48.5879 24.7298 48.8854 25.0207C49.095 25.2304 49.4602 25.2439 49.636 25.4739L50.2851 25.7242H50.2783ZM54.0107 24.5269C54.1527 24.4322 53.9093 23.9654 53.8349 23.9046C53.7132 23.8031 53.1588 23.5528 52.983 23.4784C52.3541 23.201 51.6847 23.0184 51.0424 22.7884L52.1783 24.9192C52.5097 24.811 52.9356 24.581 53.2872 24.6351C53.4495 24.6622 53.4833 24.7569 53.7065 24.7163C53.8485 24.6892 53.8485 24.5336 54.0107 24.5269ZM51.0086 24.5675C50.9139 24.4119 50.8598 24.0399 50.684 23.9181C50.5691 23.8369 50.2377 23.7896 50.089 23.7558C50.3189 24.2834 50.6164 24.7704 50.8869 25.2778C51.0356 25.5551 51.137 25.8527 51.3128 26.1368C51.3534 26.2045 51.5698 26.5427 51.6171 26.563C51.6374 26.5698 51.7118 26.5292 51.7794 26.563C51.9822 26.6509 52.131 26.8674 52.3609 26.908C52.4218 26.8471 51.7253 25.7513 51.6442 25.6092C51.4346 25.2507 51.2114 24.9125 51.0086 24.5675ZM47.5601 25.271C47.0733 25.0207 46.5797 24.7839 46.0861 24.5404C46.0523 24.5201 46.005 24.4457 45.9644 24.5201C46.2484 24.9057 46.316 25.4198 46.5053 25.8257C46.6947 26.2316 47.4249 27.3004 47.7157 27.6859C47.9388 27.9836 48.0741 27.9497 48.4257 27.9294L50.2242 28.7141L48.615 25.8933C48.4797 25.7174 47.7698 25.386 47.5534 25.271H47.5601ZM54.0175 25.6363C53.9093 25.616 53.8011 25.6363 53.6929 25.6025C53.436 25.5416 53.0776 25.4536 52.8342 25.3724C52.6652 25.3183 52.557 25.1695 52.3676 25.1966L53.3954 27.0027C53.3954 27.0027 53.9431 26.8742 53.9904 26.8539C54.0581 26.8268 54.1798 26.6239 54.3083 26.6104C54.2744 26.2451 54.2203 25.9474 54.0175 25.6295V25.6363ZM51.2452 27.51C51.0356 26.8201 50.1904 26.7524 49.6833 26.3398C49.6427 26.421 49.7509 26.5833 49.7915 26.6577C50.2783 27.5236 50.8193 28.3624 51.2993 29.2282C51.4413 29.2553 51.563 29.4244 51.6103 29.4582C51.6306 29.4718 51.6915 29.4244 51.7388 29.4447C51.82 29.4853 52.4691 29.8776 52.5029 29.8506L51.2452 27.51ZM55.2549 30.2294C55.363 29.7626 55.6808 29.3838 55.5794 28.89C55.5388 28.6803 54.8695 27.6792 54.6869 27.598C54.5855 27.5506 54.4908 27.6318 54.3826 27.625C54.1595 27.6115 53.9025 27.5574 53.6929 27.483C53.6659 27.5101 53.9431 28.0309 53.9837 28.1053C54.3015 28.6938 54.6598 29.2824 55.0114 29.8844C55.0723 29.9926 55.1737 30.1415 55.2549 30.2294ZM54.5179 30.7367C54.4773 30.6623 54.484 30.5744 54.4435 30.4999C53.9769 29.6206 53.4225 28.7885 52.9627 27.9091L52.0904 27.5777C52.0701 27.6521 52.1581 27.6047 52.1851 27.6588C52.3541 28.0106 52.5029 28.4232 52.7193 28.7276L53.6186 30.4526C54.0243 30.6623 54.4435 30.8991 54.768 31.2238C54.741 31.0952 54.6734 30.9329 54.6125 30.8111C54.5855 30.757 54.5314 30.7503 54.5246 30.7367H54.5179ZM52.131 32.0761C52.1175 31.7446 51.705 31.4808 51.7997 31.1764C51.5698 31.2576 51.6307 31.0952 51.5563 30.9735C51.3737 30.6758 51.2114 30.3714 51.0424 30.0603C50.373 29.695 49.663 29.3838 48.953 29.0929C48.8449 29.2011 50.4541 31.3455 50.6164 31.6026L50.7719 31.562L50.8463 31.4132C50.8192 31.5349 50.9951 31.4673 51.1371 31.5214C51.2047 31.5417 52.0904 32.0287 52.1242 32.0761C52.131 32.0896 52.1648 32.3534 52.2189 32.0761H52.1242H52.131ZM52.4894 30.7705C52.3744 30.7097 52.2054 30.5744 52.0837 30.6352L53.2872 32.7322L54.457 33.4087L53.2737 31.217C53.0168 31.0682 52.7395 30.8991 52.4961 30.7705H52.4894ZM56.6139 34.7481L56.7221 34.8495L55.2752 32.0761L54.3083 31.6499L55.5727 34.0649L56.6139 34.7481ZM54.4232 36.0942C53.9837 35.2419 53.5171 34.4031 53.0303 33.5711L51.563 32.7458C51.563 32.7458 51.6509 32.9081 51.678 32.9352C52.2392 33.5643 52.7598 34.3692 53.2872 35.066C53.6253 35.5124 53.9093 36.0874 54.3691 36.3715C54.3961 36.3851 54.4638 36.3715 54.5381 36.4189C54.6057 36.4595 54.572 36.5406 54.6463 36.5339C54.6261 36.4121 54.5787 36.2768 54.5179 36.1686C54.4908 36.1145 54.43 36.1077 54.4232 36.0942ZM54.5719 34.4166C54.4502 34.3422 54.3015 34.3016 54.1865 34.2069C54.0513 34.1663 54.3826 34.5587 54.3961 34.579C54.8153 35.3095 55.2143 36.0468 55.6606 36.7639C55.7552 36.9195 55.8567 37.2171 55.9987 37.3388C56.188 37.4944 56.5734 37.6162 56.7695 37.8124C56.783 37.6974 56.7154 37.6094 56.6681 37.508C56.2421 36.6083 55.6808 35.7627 55.2549 34.8563C55.0182 34.7345 54.7883 34.5451 54.5719 34.4166ZM58.6695 39.0503L57.9527 37.3253C57.6552 36.9939 57.4524 36.0468 57.1414 35.8168C56.9453 35.6748 56.5396 35.5395 56.3029 35.4516C56.5396 35.756 56.6816 36.1618 56.8709 36.5068C57.1278 36.9736 57.9257 38.4888 58.257 38.7797C58.3043 38.8203 58.6424 39.0841 58.6695 39.0503ZM57.5606 39.2532L56.8641 38.8812L57.9189 40.8361L58.6627 41.3232C58.683 41.242 58.6424 41.1879 58.6086 41.1202C58.3179 40.5047 57.8513 39.8823 57.5606 39.2532ZM59.0346 39.9161C59.0346 39.9161 58.7641 39.8011 58.8115 39.9297L59.4268 40.9985C59.3997 40.8226 59.1293 40.0041 59.0346 39.9229V39.9161ZM61.462 46.2071C61.3538 45.8216 61.0563 45.5509 60.8535 45.2262C60.3666 44.4348 59.9474 43.596 59.5147 42.7708C59.4268 42.7099 58.967 42.4461 58.9061 42.5069L59.4133 43.5352C60.0962 44.2657 60.6236 45.4157 61.293 46.1124C61.3403 46.1665 61.3741 46.2207 61.462 46.2071Z" fill="#6F7A58"/>
<path d="M52.1242 32.0761C52.0904 32.0287 51.2047 31.5417 51.1371 31.5214C50.9951 31.4673 50.8192 31.5349 50.8463 31.4132L50.7719 31.562L50.6164 31.6026C50.4541 31.3455 48.8449 29.2011 48.953 29.0929C49.663 29.3838 50.373 29.695 51.0424 30.0603C51.2114 30.3714 51.3737 30.6758 51.5563 30.9735C51.6307 31.0952 51.5698 31.2576 51.7997 31.1764C51.705 31.4808 52.1175 31.7446 52.131 32.0761H52.1242ZM52.1242 32.0761C52.131 32.0896 52.1648 32.3534 52.2189 32.0761H52.1242ZM28.0056 0.452031C30.3384 1.16907 32.4209 2.56933 34.3683 4.01017C34.6793 4.24016 35.085 4.65954 35.4028 4.83542C35.4637 4.86924 35.5651 4.84897 35.5854 4.8625C35.5989 4.86927 35.5718 4.96395 35.7206 5.09247C36.4103 5.70804 37.127 6.23569 37.837 6.80391C38.3914 7.2436 38.6889 7.53448 39.3313 7.86594C39.5341 7.97417 40.2373 8.64384 40.4672 8.8603C42.2793 10.5717 44.1726 12.4658 45.7278 14.2719C46.3837 15.0363 46.8637 15.963 47.4249 16.7748C47.452 16.8086 47.4993 16.7612 47.5399 16.8018C47.594 16.8559 47.6346 16.998 47.6751 17.0251C47.7495 17.0724 48.0132 17.1333 48.1349 17.2009C49.8118 18.1412 52.0228 19.5753 53.5104 20.7861C54.2744 21.4085 55.3022 22.3217 54.4773 23.3228C54.8357 23.9587 54.9573 24.466 54.5314 25.1154C54.8221 25.4401 55.1196 26.0624 55.0452 26.4954C55.0317 26.5765 54.9371 26.6374 54.9573 26.7253C54.9709 26.7727 55.1399 26.9554 55.194 27.0095C55.2346 27.0501 55.2954 27.0365 55.336 27.0771C55.9919 27.7874 56.6139 28.7547 56.3097 29.7491C56.2488 29.952 55.8702 30.2497 55.6673 30.297C55.5321 30.3241 55.3698 30.2294 55.2413 30.3376C55.7349 31.1696 56.1406 31.9881 56.5734 32.8337C56.7627 33.199 56.9385 33.686 57.1819 34.0243C57.2022 34.0513 57.2428 34.0581 57.2766 34.0581L57.1819 34.1528C57.3915 34.2137 57.4186 34.5384 57.52 34.7278C58.3449 36.3377 59.1563 38.0627 59.8325 39.7335C60.299 40.8902 60.6574 42.1349 61.178 43.2172C61.2795 43.4269 61.3268 43.7651 61.4012 43.9748C62.0232 45.5848 62.8076 47.5194 63.8353 48.8994C63.8624 48.9332 63.8624 48.9941 63.8624 49.0347L63.957 48.9873C63.957 49.1023 63.9976 49.1903 64.072 49.2715C64.1937 49.3932 64.0991 49.2173 64.1937 49.2241C64.241 49.3188 64.3154 49.4676 64.3966 49.5352C64.4371 49.569 64.6197 49.5082 64.525 49.745C64.64 49.6909 64.7414 49.7788 64.8563 49.7923L64.7617 49.8397C64.7617 50.0358 65.0254 49.9141 65.1877 50.0561C65.262 50.1238 65.1606 50.2185 65.2553 50.2658C65.3973 49.975 65.4919 50.3808 65.519 50.4079C65.519 50.4079 65.5934 50.3605 65.6542 50.3876C65.9585 50.4958 66.7023 51.0573 66.9457 51.3076C67.1147 51.1994 67.0674 51.4225 67.2702 51.409L67.2229 51.5511L67.4122 51.524L68.5414 52.4169L68.5211 52.5455C68.724 52.4305 68.7578 52.6875 68.7916 52.7214C68.8322 52.762 69.1297 52.9649 69.1973 52.9784V53.1678C69.5016 53.0596 69.4272 53.4046 69.6774 53.4114L69.63 53.5263C69.6909 53.5466 69.7179 53.4925 69.7923 53.5466C69.9816 53.6684 70.1912 54.0742 70.4347 54.1892L70.34 54.2569C70.5428 54.2096 70.5226 54.4327 70.6037 54.541C70.6443 54.5883 70.7119 54.541 70.766 54.6086C70.8539 54.7168 70.9418 55.0415 71.0229 55.1159C71.1041 55.1836 71.2325 55.0754 71.3475 55.1498C71.4083 55.1904 71.4016 55.2919 71.4489 55.346C71.4962 55.3933 71.5706 55.373 71.6179 55.4272C71.7667 55.5895 71.8276 55.8939 71.929 56.0562C72.1521 56.4418 72.5849 56.8815 72.808 57.3144C72.8283 57.3618 72.8959 57.4497 72.8283 57.4835C72.3211 57.1859 71.9222 56.7665 71.5098 56.3674C71.3069 56.178 70.9282 56.0022 70.962 55.6842L70.7863 55.8262H70.4414L71.5571 57.2468C71.3475 57.1453 71.1581 57.0304 70.9688 56.8883C70.3062 56.4148 69.745 55.8127 69.0823 55.3392C69.1635 54.9401 68.5617 55.1024 68.4535 54.7777C68.3791 54.7642 68.3994 54.8454 68.413 54.886C68.44 54.9671 68.5549 55.1769 68.6023 55.2648C68.8592 55.7383 69.2581 56.1847 69.5421 56.6515L69.4745 56.7192C68.8998 56.1848 68.2709 55.6909 67.7165 55.1363C67.3649 54.7845 67.0065 54.196 66.5467 53.9592C66.4453 53.9051 66.2966 53.9255 66.2019 53.8308L67.4122 56.036C67.4325 56.0969 67.3987 56.1307 67.3446 56.1036C67.2229 56.0495 66.9592 55.6706 66.851 55.5557C66.5332 55.2174 66.1951 54.8521 65.8165 54.6221C65.7083 54.5613 65.5392 54.169 65.4716 54.0878C65.404 54.0066 65.2688 54.0472 65.3297 53.8308C65.262 53.8105 65.2958 54.0134 65.1877 53.9255C65.1741 53.9119 65.1674 53.7563 65.1403 53.7225C65.1403 53.709 65.0524 53.6616 64.978 53.5669C64.7076 53.2219 64.4642 53.019 63.9976 53.046C64.1261 53.1069 64.0923 53.3775 64.099 53.391C64.1126 53.4113 64.1869 53.4113 64.2208 53.479C64.4033 53.8307 64.8226 54.8319 64.9172 55.1972C64.9443 55.2919 64.951 55.3798 64.9375 55.4813C64.8293 55.3933 64.7211 55.2378 64.7008 55.1025L64.6062 55.1972L63.078 53.0731L62.7603 53.2355C62.7467 53.2828 62.8279 53.3639 62.8414 53.4316C62.9631 54.0742 63.1051 54.7304 63.0916 55.3865C62.6994 54.8386 62.3816 54.2163 62.1449 53.5872L61.8136 53.6819C62.0368 53.8172 61.9218 53.9186 61.9691 54.1216C62.1111 54.7372 62.3951 55.319 62.4289 55.9548L62.1585 55.7451C61.8542 55.1972 61.3538 54.6898 61.2186 54.054L60.6709 54.3381C60.9617 54.8048 60.7521 55.461 60.8129 55.9954C60.7453 55.9954 60.725 56.0089 60.6709 55.9615C60.5762 55.8803 60.2855 55.3933 60.2044 55.2513C60.13 55.1228 60.0962 54.9536 60.0151 54.8251C59.9812 54.771 59.9948 54.7237 59.8866 54.7643C59.7581 54.8184 59.8595 55.4203 59.8663 55.5421C59.8663 55.6639 59.8798 56.1239 59.8189 56.1848C59.7446 56.2524 59.7311 56.151 59.7108 56.1239C59.4809 55.8601 59.3186 55.5016 59.1495 55.1904H59.0954L58.4937 55.4745C58.5478 55.8804 58.6559 56.2863 58.6357 56.7057C58.5478 56.8004 58.2502 56.3674 58.2097 56.3065C57.9933 55.9953 57.662 55.4677 57.7364 55.0822C57.7431 55.0483 57.8175 55.0484 57.831 55.0145C57.8919 54.7845 57.9528 54.5342 57.9798 54.2975L58.0744 54.3178L58.115 54.2704C58.1015 54.2163 58.0745 54.1622 58.0947 54.108C58.2503 53.5736 58.7641 52.7957 58.9602 52.2478C59.0211 52.0719 59.0752 51.5578 59.1631 51.3955C59.1901 51.3413 59.2848 51.3414 59.2983 51.2805C59.3118 51.2264 59.2645 51.1452 59.278 51.0708C59.2983 50.9558 59.6432 50.8408 59.4944 50.6244H59.5891L59.704 50.1779C59.3456 49.8667 59.2307 49.4338 58.9873 49.0414C57.1143 46.0177 54.5516 43.366 52.1986 40.7617C50.4947 38.8879 48.8313 37.0074 47.0598 35.1607C46.7082 34.7954 46.3228 34.4031 45.9441 34.0919L45.9847 34.004C45.6466 33.8687 45.4032 33.4628 45.1463 33.199C43.6181 31.6296 42.0833 30.04 40.643 28.4368C39.5139 27.1786 38.4185 25.8933 37.3772 24.6148C35.7273 22.5922 34.2398 20.6035 32.8402 18.3915C32.5494 17.9315 32.2181 17.4783 31.9544 17.0048C31.6907 16.5312 31.5554 16.1321 31.2444 15.6654C30.0611 13.9134 29.1348 11.5188 28.3978 9.57734C28.3707 9.50293 28.1949 9.415 28.3099 9.2053L28.2152 9.25266C28.1138 8.82649 27.911 8.44092 27.7622 8.03505C27.7351 7.95388 27.6946 7.68329 27.6337 7.60212C27.6202 7.58182 27.5796 7.58857 27.5526 7.58857V7.54122L27.6472 7.51417C27.5796 7.41947 27.512 7.32477 27.4647 7.21653C27.1942 6.56038 26.944 5.74185 26.748 5.12628C26.7141 5.01805 26.6871 4.90984 26.6465 4.80837L26.748 4.76102C26.5586 4.64602 26.6533 4.57839 26.6465 4.47692C26.6465 4.44986 26.5789 4.46338 26.5654 4.42279C26.518 4.26721 26.4301 4.04397 26.5113 3.90868L26.4234 3.88841C26.4031 3.80724 26.518 3.86809 26.5248 3.81397C26.5248 3.79368 26.4775 3.47576 26.4707 3.4487C26.4504 3.38782 26.3017 3.38782 26.2814 3.19842C26.2611 2.98195 26.3693 3.15784 26.4234 3.03608C26.3828 3.03608 26.3287 3.02254 26.3084 2.98872C26.2341 2.88049 26.207 2.16345 26.2408 2.01463C26.2611 1.9064 26.3828 1.85906 26.3828 1.77789C26.3828 1.71701 26.2949 1.6561 26.2882 1.58169C26.2408 1.27052 26.7547 0.614391 27.059 0.506159L27.3294 0.424988H27.9921L28.0056 0.452031ZM28.7561 1.50729C28.7561 1.50729 28.6479 1.53435 28.5871 1.50729C27.8636 1.2773 27.1469 0.878173 27.0184 1.99432C26.8696 3.24575 27.7351 5.70803 28.1746 6.93917C29.1213 9.56379 30.1963 11.9111 31.4134 14.3734C31.454 14.4613 31.9544 15.7398 32.0355 15.6654L32.0626 15.5707C32.3263 15.8277 32.4547 16.1998 32.6441 16.5042C34.0505 18.7838 35.5921 21.0364 37.2352 23.0996C40.19 26.8133 43.4964 30.27 46.7623 33.6725C49.6495 36.6759 52.5232 39.7606 55.2752 42.9061C56.0325 43.7719 57.2969 45.0233 57.8581 45.9906C57.8987 46.0583 57.9054 46.1868 57.9122 46.1936C57.9189 46.2004 57.9595 46.0989 58.0812 46.2612C58.6627 47.0189 60.2111 49.0415 60.2179 49.9276C60.2382 51.1791 59.6161 52.6808 59.1022 53.8104C59.0008 54.0337 58.9129 54.2704 58.8115 54.4937C58.8926 54.514 58.8317 54.4125 58.8926 54.3989C58.9535 54.3854 59.0143 54.4125 59.0887 54.3854C59.2239 54.3313 59.7446 54.0269 59.9136 53.9255C59.9677 53.8916 59.9744 53.7969 60.0218 53.7901C60.0623 53.7834 60.1773 53.851 60.1841 53.8308C60.1976 53.8105 60.1638 53.736 60.1976 53.7022C60.2449 53.6481 60.6439 53.4925 60.7588 53.4316C60.9955 53.3031 61.6987 52.9987 61.7798 52.9378C61.8272 52.8972 61.8474 52.789 61.8948 52.7619C61.9488 52.7281 62.03 52.8025 62.0841 52.7619C62.199 52.6875 62.2667 52.5725 62.5033 52.4643C63.8962 51.8352 65.0051 52.3899 66.2966 52.9513C66.5129 53.046 66.7428 53.1678 66.9457 53.3031L67.108 53.2084V53.3978C67.1485 53.3775 67.1891 53.364 67.2364 53.3843C67.8044 53.6278 68.3724 53.8916 68.9403 54.1487C69.1432 54.2366 69.2784 54.4125 69.5219 54.3922C69.3731 54.2501 69.2176 54.0201 69.0756 53.8848C68.3927 53.2422 67.3919 52.4507 66.6279 51.9028C65.5663 51.1452 64.0585 50.462 63.2674 49.4338C63.1524 49.285 62.8887 48.6897 62.767 48.6964L62.6724 48.7911C62.2329 48.3109 61.6987 47.9185 61.2727 47.4247C60.7723 46.8497 60.2787 46.1192 59.8933 45.4698L59.8054 45.5104C59.4403 44.888 58.9873 44.3469 58.5748 43.7787C56.8168 41.3773 55.1602 38.9691 53.3954 36.5948C52.9289 35.9589 52.2865 35.2622 51.9146 34.6128C51.8064 34.4234 51.4751 34.0446 51.2926 33.8078C50.3459 32.5564 49.3452 31.3117 48.5 30.0061C48.0402 29.2891 47.4926 28.6735 46.9922 27.97C44.4769 24.4457 42.3537 20.6576 39.737 17.1942C39.737 16.9304 39.6897 17.086 39.595 16.998C39.0676 16.4974 38.4928 15.3745 37.9587 14.759C37.3907 14.1028 36.7619 13.5887 35.8694 13.4872C34.9768 13.3858 34.0843 13.7916 33.2255 13.8525C32.7117 13.8931 32.6035 13.6631 32.5832 13.1761C32.7861 12.9731 32.9889 12.689 33.2053 12.5064C34.2601 11.5999 35.4434 10.7611 36.5117 9.82085C36.6199 9.72615 36.8363 9.61116 36.9174 9.53675C37.0188 9.44205 37.2081 9.04296 37.3028 8.96179C37.3704 8.90091 37.4718 8.98206 37.6003 8.9347C37.6477 8.91441 38.2765 8.4612 38.3373 8.40032C38.3644 8.37326 38.432 8.27178 38.4185 8.25825C38.1007 8.18384 37.9046 7.8727 37.6747 7.69006C35.3622 5.85688 33.158 3.90871 30.5547 2.45434C29.9665 2.12288 29.4255 1.91994 28.8373 1.60878C28.7764 1.57495 28.7629 1.50051 28.7494 1.48698L28.7561 1.50729ZM38.7633 9.08354L37.9587 9.60438L38.5267 10.707L40.0007 11.2617L38.7701 9.08354H38.7633ZM39.9263 9.50971V9.55707C39.9263 9.55707 39.9601 9.52324 39.9263 9.50971ZM40.4402 10.0576C40.3455 9.96293 40.1292 9.645 40.021 9.59765C39.9601 9.5706 39.9331 9.61117 39.9533 9.66528L41.184 11.7082C41.7317 11.9585 42.3132 12.2426 42.8947 12.3914C42.1306 11.5594 41.2516 10.8423 40.447 10.0509L40.4402 10.0576ZM38.6416 12.7634C38.4117 12.3305 38.2359 11.8637 38.006 11.4308L36.6334 10.8558C36.5049 10.822 36.363 10.9776 36.2615 11.052C36.1601 11.1264 35.4704 11.6879 35.4501 11.7623L38.6957 12.9664C38.8985 12.9596 38.6551 12.7837 38.6416 12.7634ZM40.8797 12.7025C40.8459 12.6484 40.7242 12.5943 40.7039 12.4726C40.5213 12.3779 39.2231 11.8164 39.1419 11.8773L39.9804 13.4331L41.5626 14.0081C41.5761 13.9201 41.5356 13.8457 41.495 13.7713C41.3598 13.5075 41.042 12.9258 40.8797 12.7025ZM35.6394 12.689L34.7131 12.3575L33.9355 12.9664L34.0775 13.0611L34.1046 12.919L34.2127 12.9393L34.1857 12.9866L34.2736 13.0069V12.8649L34.4629 12.9596C34.5508 12.689 34.6117 12.9055 34.6387 12.9122C34.6658 12.919 34.7875 12.8784 34.8416 12.9122C34.8078 12.7364 34.9227 12.7634 35.0715 12.7364C35.1526 12.7228 35.4163 12.7026 35.369 12.8108H35.4366L35.4636 12.7161C35.6056 12.6687 35.511 12.804 35.6056 12.8108L35.653 12.6687L35.6394 12.689ZM42.9826 12.4455H42.8879V12.4928H42.9826V12.4455ZM42.0495 13.0002C42.0495 13.0002 42.0292 12.9461 42.0359 12.9258C41.8737 12.9528 42.0562 13.2166 42.1238 13.3384C42.3537 13.7578 42.6648 14.1569 42.8947 14.5831L43.0434 14.5492L44.7879 15.2054L44.1523 13.7781C43.6925 13.5955 43.1989 13.4737 42.7391 13.2978C42.5836 13.2369 42.1711 13.0746 42.0562 13.0069L42.0495 13.0002ZM39.3719 14.069C39 13.9607 38.6551 13.7849 38.29 13.6564C38.2089 13.6293 38.121 13.6022 38.0398 13.5752C37.9993 13.5617 37.9046 13.4872 37.9114 13.5819L38.317 13.9607C38.7701 14.5222 39.2501 15.0566 39.6694 15.6451C39.7167 15.706 39.7099 15.8075 39.7167 15.8142C39.7167 15.8142 39.8046 15.7668 39.8654 15.7804C40.0277 15.8007 40.1359 15.8548 40.2847 15.9089C40.3049 15.8886 40.1089 15.361 40.075 15.3069C40.0683 15.2866 39.9939 15.2731 39.9601 15.2122C39.764 14.8334 39.5612 14.4546 39.3651 14.069H39.3719ZM42.3064 15.1648L40.5213 14.5357L41.4679 16.3486C41.5761 16.4704 41.8737 16.4906 42.0089 16.5786C42.063 16.6124 42.0765 16.7003 42.09 16.7071C42.0968 16.7071 42.1982 16.6665 42.2726 16.6868C42.6445 16.7748 43.0569 17.0859 43.4559 17.1401L42.3064 15.1648ZM46.3498 18.378L45.3762 16.2945L43.5505 15.6316C43.5167 15.6654 43.7872 16.1795 43.8345 16.2607C43.8548 16.2945 43.9089 16.2945 43.9292 16.3283C44.1929 16.7815 44.4295 17.2551 44.7 17.7015L46.3431 18.378H46.3498ZM41.4882 18.1209C41.326 17.7489 41.0961 17.4445 40.9473 17.0724L40.4943 16.8627L41.5626 18.3306C41.6235 18.1818 41.495 18.148 41.4882 18.1209ZM47.0801 17.5933C46.9652 17.4174 46.8367 17.2483 46.7285 17.0657C46.6541 16.998 46.6744 17.113 46.6879 17.1536C46.8367 17.5662 47.2018 18.1547 47.4249 18.5471C47.5534 18.7703 47.5399 18.9868 47.9118 19.0341C47.9726 18.9732 47.6075 18.4862 47.5601 18.4118C47.3979 18.1344 47.2491 17.8503 47.0801 17.5933ZM43.821 18.1547C43.6249 18.06 43.3747 18.0397 43.1989 17.8706L42.1306 17.5189L43.3139 19.7106L45.6399 20.7861C45.2342 20.1232 44.842 19.4535 44.4363 18.7906C44.3687 18.6756 44.3349 18.493 44.2943 18.4321C44.2673 18.3915 43.8819 18.1885 43.8142 18.1547H43.821ZM48.7096 18.4862C48.7096 18.4862 48.5879 18.4456 48.5812 18.493L49.6089 20.3194C49.8794 20.4141 50.1769 20.3397 50.4541 20.3667C51.0018 20.4141 51.5157 20.5832 52.0431 20.7252C51.9214 20.6643 51.8402 20.5426 51.7388 20.4614C51.3128 20.1503 50.8192 19.8594 50.3933 19.582C49.8388 19.2167 49.2573 18.7973 48.7164 18.4862H48.7096ZM46.2822 19.1491C46.2011 19.1153 46.1132 19.1221 46.0388 19.0882C45.8697 19.0206 45.5723 18.838 45.4235 18.8041C45.3491 18.7906 45.3423 18.8041 45.3559 18.8718L46.7353 21.2867L48.2431 22.0308L46.9651 19.5009C46.7758 19.352 46.5391 19.3182 46.3363 19.2303C46.3025 19.2168 46.2957 19.1627 46.2822 19.1559V19.1491ZM48.5676 20.042L48.1484 19.9879C48.1484 20.1773 48.3107 20.2788 48.3783 20.4073C48.757 21.1311 49.0815 21.9226 49.521 22.6193L50.089 22.8831C49.663 22.024 49.1626 21.1988 48.6961 20.3667C48.6555 20.2923 48.5744 20.0623 48.5609 20.0488L48.5676 20.042ZM50.2716 20.8538C50.2716 20.8538 50.1904 20.8876 50.1431 20.8673C50.0958 20.847 49.7983 20.5358 49.8659 20.8132C50.1769 21.2258 50.4136 21.6926 50.6232 22.1661C51.7456 22.0578 52.7936 22.4772 53.7673 22.9778C53.8552 22.6667 54.1189 22.6869 53.9904 22.3352C53.9634 22.254 53.8282 22.2202 53.8349 22.0849C53.6524 22.0849 53.4022 22.112 53.2196 22.0579C52.4285 21.8414 51.0965 21.3273 50.3459 20.9552C50.2918 20.9282 50.2851 20.8605 50.2783 20.8605L50.2716 20.8538ZM44.9096 21.3341L44.0982 20.9823L44.0306 21.05L45.1936 23.1131C45.7075 23.2822 46.1335 23.634 46.6 23.8911C46.7758 23.9858 46.9651 24.0872 47.1274 24.1752C47.195 24.209 47.7089 24.466 47.7292 24.4457L46.3836 22.0714L44.9164 21.3341H44.9096ZM50.2783 25.7242L48.9057 23.2349L47.5331 22.599C47.5399 22.829 47.736 23.0049 47.8374 23.174C48.0876 23.6069 48.5879 24.7298 48.8854 25.0207C49.095 25.2304 49.4602 25.2439 49.636 25.4739L50.2851 25.7242H50.2783ZM54.0107 24.5269C54.1527 24.4322 53.9093 23.9654 53.8349 23.9046C53.7132 23.8031 53.1588 23.5528 52.983 23.4784C52.3541 23.201 51.6847 23.0184 51.0424 22.7884L52.1783 24.9192C52.5097 24.811 52.9356 24.581 53.2872 24.6351C53.4495 24.6622 53.4833 24.7569 53.7065 24.7163C53.8485 24.6892 53.8485 24.5336 54.0107 24.5269ZM51.0086 24.5675C50.9139 24.4119 50.8598 24.0399 50.684 23.9181C50.5691 23.8369 50.2377 23.7896 50.089 23.7558C50.3189 24.2834 50.6164 24.7704 50.8869 25.2778C51.0356 25.5551 51.137 25.8527 51.3128 26.1368C51.3534 26.2045 51.5698 26.5427 51.6171 26.563C51.6374 26.5698 51.7118 26.5292 51.7794 26.563C51.9822 26.6509 52.131 26.8674 52.3609 26.908C52.4218 26.8471 51.7253 25.7513 51.6442 25.6092C51.4346 25.2507 51.2114 24.9125 51.0086 24.5675ZM47.5601 25.271C47.0733 25.0207 46.5797 24.7839 46.0861 24.5404C46.0523 24.5201 46.005 24.4457 45.9644 24.5201C46.2484 24.9057 46.316 25.4198 46.5053 25.8257C46.6947 26.2316 47.4249 27.3004 47.7157 27.6859C47.9388 27.9836 48.0741 27.9497 48.4257 27.9294L50.2242 28.7141L48.615 25.8933C48.4797 25.7174 47.7698 25.386 47.5534 25.271H47.5601ZM54.0175 25.6363C53.9093 25.616 53.8011 25.6363 53.6929 25.6025C53.436 25.5416 53.0776 25.4536 52.8342 25.3724C52.6652 25.3183 52.557 25.1695 52.3676 25.1966L53.3954 27.0027C53.3954 27.0027 53.9431 26.8742 53.9904 26.8539C54.0581 26.8268 54.1798 26.6239 54.3083 26.6104C54.2744 26.2451 54.2203 25.9474 54.0175 25.6295V25.6363ZM51.2452 27.51C51.0356 26.8201 50.1904 26.7524 49.6833 26.3398C49.6427 26.421 49.7509 26.5833 49.7915 26.6577C50.2783 27.5236 50.8193 28.3624 51.2993 29.2282C51.4413 29.2553 51.563 29.4244 51.6103 29.4582C51.6306 29.4718 51.6915 29.4244 51.7388 29.4447C51.82 29.4853 52.4691 29.8776 52.5029 29.8506L51.2452 27.51ZM55.2549 30.2294C55.363 29.7626 55.6808 29.3838 55.5794 28.89C55.5388 28.6803 54.8695 27.6792 54.6869 27.598C54.5855 27.5506 54.4908 27.6318 54.3826 27.625C54.1595 27.6115 53.9025 27.5574 53.6929 27.483C53.6659 27.5101 53.9431 28.0309 53.9837 28.1053C54.3015 28.6938 54.6598 29.2824 55.0114 29.8844C55.0723 29.9926 55.1737 30.1415 55.2549 30.2294ZM54.5179 30.7367C54.4773 30.6623 54.484 30.5744 54.4435 30.4999C53.9769 29.6206 53.4225 28.7885 52.9627 27.9091L52.0904 27.5777C52.0701 27.6521 52.1581 27.6047 52.1851 27.6588C52.3541 28.0106 52.5029 28.4232 52.7193 28.7276L53.6186 30.4526C54.0243 30.6623 54.4435 30.8991 54.768 31.2238C54.741 31.0952 54.6734 30.9329 54.6125 30.8111C54.5855 30.757 54.5314 30.7503 54.5246 30.7367H54.5179ZM52.4894 30.7705C52.3744 30.7097 52.2054 30.5744 52.0837 30.6352L53.2872 32.7322L54.457 33.4087L53.2737 31.217C53.0168 31.0682 52.7395 30.8991 52.4961 30.7705H52.4894ZM56.6139 34.7481L56.7221 34.8495L55.2752 32.0761L54.3083 31.6499L55.5727 34.0649L56.6139 34.7481ZM54.4232 36.0942C53.9837 35.2419 53.5171 34.4031 53.0303 33.5711L51.563 32.7458C51.563 32.7458 51.6509 32.9081 51.678 32.9352C52.2392 33.5643 52.7598 34.3692 53.2872 35.066C53.6253 35.5124 53.9093 36.0874 54.3691 36.3715C54.3961 36.3851 54.4638 36.3715 54.5381 36.4189C54.6057 36.4595 54.572 36.5406 54.6463 36.5339C54.6261 36.4121 54.5787 36.2768 54.5179 36.1686C54.4908 36.1145 54.43 36.1077 54.4232 36.0942ZM54.5719 34.4166C54.4502 34.3422 54.3015 34.3016 54.1865 34.2069C54.0513 34.1663 54.3826 34.5587 54.3961 34.579C54.8153 35.3095 55.2143 36.0468 55.6606 36.7639C55.7552 36.9195 55.8567 37.2171 55.9987 37.3388C56.188 37.4944 56.5734 37.6162 56.7695 37.8124C56.783 37.6974 56.7154 37.6094 56.6681 37.508C56.2421 36.6083 55.6808 35.7627 55.2549 34.8563C55.0182 34.7345 54.7883 34.5451 54.5719 34.4166ZM58.6695 39.0503L57.9527 37.3253C57.6552 36.9939 57.4524 36.0468 57.1414 35.8168C56.9453 35.6748 56.5396 35.5395 56.3029 35.4516C56.5396 35.756 56.6816 36.1618 56.8709 36.5068C57.1278 36.9736 57.9257 38.4888 58.257 38.7797C58.3043 38.8203 58.6424 39.0841 58.6695 39.0503ZM57.5606 39.2532L56.8641 38.8812L57.9189 40.8361L58.6627 41.3232C58.683 41.242 58.6424 41.1879 58.6086 41.1202C58.3179 40.5047 57.8513 39.8823 57.5606 39.2532ZM59.0346 39.9161C59.0346 39.9161 58.7641 39.8011 58.8115 39.9297L59.4268 40.9985C59.3997 40.8226 59.1293 40.0041 59.0346 39.9229V39.9161ZM61.462 46.2071C61.3538 45.8216 61.0563 45.5509 60.8535 45.2262C60.3666 44.4348 59.9474 43.596 59.5147 42.7708C59.4268 42.7099 58.967 42.4461 58.9061 42.5069L59.4133 43.5352C60.0962 44.2657 60.6236 45.4157 61.293 46.1124C61.3403 46.1665 61.3741 46.2207 61.462 46.2071Z" stroke="#6F7A58" stroke-width="0.85" stroke-linecap="round" stroke-linejoin="round"/>
<path d="M72.9567 57.4903C72.9567 57.4903 72.9902 57.5239 72.9567 57.5373V57.4903Z" fill="#6F7A58" stroke="#6F7A58" stroke-width="0.85" stroke-linecap="round" stroke-linejoin="round"/>
<path d="M32.8807 5.41715L32.9145 5.33597C33.4622 5.5795 34.2465 5.91098 34.5035 6.49949C35.2811 8.24473 32.9483 9.32704 31.5419 9.27969C30.9469 9.2594 30.2843 8.60999 30.1626 8.04178C30.1017 7.75767 30.0544 7.05417 30.149 6.79036C30.1693 6.72271 30.2572 6.72948 30.2707 6.70242C30.2707 6.69565 30.2437 6.59419 30.2775 6.49949C30.3721 6.22891 30.5817 6.20863 30.7305 6.04628C30.9131 5.84335 31.0077 5.5592 31.3729 5.4645C31.4405 5.44421 31.5081 5.5051 31.5554 5.47804C31.6366 5.43069 31.5757 5.30219 31.8732 5.28866C32.022 5.28866 32.2316 5.25481 32.3398 5.26158C32.475 5.26158 32.8334 5.45097 32.8807 5.42392V5.41715ZM33.5298 7.20976C33.1715 6.79036 32.0829 6.44539 31.569 6.64156C31.3053 6.74303 31.0348 7.1083 31.0483 7.39241C31.0551 7.62917 31.3661 8.00121 31.569 8.10267C32.3601 8.50854 33.4419 8.19061 33.6042 7.25711C33.6042 7.23005 33.5501 7.23005 33.5298 7.20976Z" fill="#6F7A58" stroke="#6F7A58" stroke-width="0.85" stroke-linecap="round" stroke-linejoin="round"/>
<path d="M12.8596 32.2046C12.9137 32.2385 13.0962 32.252 13.1774 32.3196L13.1301 32.4549L13.272 32.4076C13.2315 32.5293 13.3397 32.5361 13.3667 32.5902C13.387 32.624 13.3532 32.7052 13.3802 32.7322C13.3938 32.7525 13.4681 32.7323 13.5019 32.7458C13.5155 32.7525 13.6439 32.9961 13.6507 33.0096C13.6642 33.0705 13.6034 33.1584 13.6101 33.1652C13.6372 33.1922 13.7656 33.1381 13.8671 33.3614C14.0564 33.7672 14.3674 34.2205 14.5906 34.6263C14.6852 34.8022 14.7528 35.0051 14.7461 35.2081L14.861 35.1134C15.0233 35.1878 14.9557 35.3975 14.9895 35.438C15.003 35.4583 15.0977 35.438 15.1653 35.5192C15.2735 35.641 15.2938 35.8033 15.1653 35.9183L15.3073 35.8236C15.3681 35.9792 15.3276 36.2498 15.5439 36.2024L15.4425 36.2769L15.4966 36.4392L15.5913 36.3445C15.5507 36.5204 15.7333 36.5407 15.7671 36.5948C15.8482 36.7233 15.9023 37.0345 15.9361 37.0954C15.9564 37.1224 16.0443 37.1224 16.0578 37.1833C16.0781 37.2577 15.9429 37.3727 16.1593 37.393L16.0646 37.4403L16.1457 37.4945C16.0849 37.7245 16.3012 37.6839 16.3553 37.7515C16.4838 37.9206 16.5244 38.2656 16.5379 38.4821L16.6799 38.4348C16.734 38.5092 16.6799 38.7459 16.6867 38.7594C16.6934 38.773 16.7746 38.7797 16.8084 38.8474C16.9436 39.1044 16.9842 39.3817 17.0788 39.6253C17.1262 39.747 17.3358 40.0447 17.2952 40.1461L17.2005 40.1935C17.4237 40.1529 17.3966 40.4573 17.4845 40.5994L17.3899 40.667L17.5319 40.7008C17.613 41.1202 17.8158 41.4449 17.7685 41.9049L17.8632 41.7629C17.8632 41.8982 17.8361 42.0334 17.9578 42.1214L17.8632 42.2364L18.0052 42.2634L17.9646 42.3784C18.1674 42.4123 18.0525 42.622 18.0795 42.7234C18.1201 42.8925 18.2418 43.1293 18.2756 43.2781C18.2959 43.3661 18.1472 43.8869 18.0931 43.9681C18.039 44.0493 17.9578 44.0628 17.924 44.1101C17.8699 44.1913 17.8091 44.3537 17.7415 44.4213C17.5792 44.5972 17.3493 44.4349 17.1329 44.5228C17.1059 44.5228 16.9842 44.3266 16.9436 44.2996C16.3418 43.8396 15.9902 43.1428 15.598 42.4393C15.4966 42.2567 15.3479 42.1281 15.2802 41.9117C15.2667 41.8643 15.3073 41.7899 15.2938 41.7764C15.2802 41.7628 15.1923 41.7831 15.1112 41.6952C14.9692 41.5329 14.9624 41.3096 14.8881 41.1541C14.8543 41.0796 14.692 40.9309 14.6244 40.8023C14.4688 40.525 14.3945 40.1326 14.1511 39.9365C14.2457 39.7268 14.151 39.8079 14.0902 39.7268C13.955 39.5306 13.8671 39.3006 13.7792 39.1247C13.103 37.7786 12.2308 35.7966 11.94 34.2881C11.9062 34.1122 11.8251 33.8822 12.0211 33.8281L11.9265 33.7808C12.082 33.6117 12.0752 33.1246 11.9738 32.9352C11.9535 32.9014 11.9197 32.8946 11.8792 32.9014V32.854C11.9603 32.8879 12.0888 32.4955 12.0955 32.4279C12.109 32.3196 12.0482 32.2046 12.0685 32.0964L12.1158 32.2384L12.2037 32.1979L12.2578 32.2858C12.2646 32.1505 12.4336 32.2249 12.4471 32.022L12.5824 32.0355L12.6094 31.9543C12.7041 31.9949 12.792 32.1978 12.8393 32.2249L12.8596 32.2046ZM13.414 32.8337V32.9014L13.4884 32.969L13.4614 32.827H13.414V32.8337Z" fill="#6F7A58" stroke="#6F7A58" stroke-width="0.85" stroke-linecap="round" stroke-linejoin="round"/>
<path d="M6.80797 16.0172C6.80797 16.0172 6.94997 16.2472 6.97701 16.3013C7.13253 16.5651 7.20692 16.8425 7.30158 17.1536C7.3151 17.1942 7.38272 17.1874 7.38948 17.2212C7.4571 17.4918 7.35566 17.9315 7.26776 18.1818C7.25423 18.2292 7.28806 18.2901 7.28129 18.3104C7.27453 18.3239 7.09196 18.5877 7.07843 18.6012C7.03786 18.6418 6.95672 18.6418 6.92968 18.6689C6.65245 18.9394 6.56456 19.2844 6.09801 19.4265C5.78022 19.5212 4.96882 19.3386 4.69836 19.1559C4.36704 18.9327 4.31971 18.7703 4.13038 18.4659C4.09658 18.4118 4.01544 18.3915 3.96134 18.3036C3.78554 18.0195 3.75172 17.6068 3.54888 17.343L3.64355 17.2957C3.57593 17.1469 3.44746 17.0454 3.59621 16.9168L3.49479 16.8695L3.54213 16.7139L3.45422 16.6666L3.62326 16.6192C3.56241 16.2742 3.86668 16.3554 4.0222 16.2133C4.08981 16.1525 4.08981 16.0645 4.13038 16.0172C4.52256 15.6181 5.2528 15.2595 5.8343 15.449C5.98982 15.4963 6.70654 15.909 6.8012 16.024L6.80797 16.0172ZM5.8005 16.9304C5.7126 16.8357 5.57736 16.626 5.4286 16.6192C5.2528 16.6125 4.85387 16.8086 4.84711 17.0251C4.84711 17.0589 5.00938 17.6204 5.02967 17.6677C5.04319 17.6948 5.24604 17.9924 5.25956 18.006C5.32718 18.0804 5.65851 18.1886 5.75993 18.1886C6.00335 18.1886 5.94249 17.8842 6.11153 17.8301V17.7354L6.01688 17.7083V17.6136L6.11153 17.5866C5.9763 17.4716 6.08448 17.2957 6.00334 17.1198C5.97629 17.0657 5.85459 16.9777 5.8005 16.9236V16.9304Z" fill="#6F7A58" stroke="#6F7A58" stroke-width="0.85" stroke-linecap="round" stroke-linejoin="round"/>
<path d="M39.9736 22.4028C39.9736 22.4028 40.0071 22.4364 39.9736 22.4498V22.4028Z" fill="#6F7A58" stroke="#6F7A58" stroke-width="0.85" stroke-linecap="round" stroke-linejoin="round"/>
<path d="M38.8918 18.3442C39.4597 18.608 40.7377 20.2653 41.184 20.82C42.2726 22.1729 43.3071 23.607 44.3619 25.0275C44.4431 25.1357 44.6256 25.271 44.7135 25.3995C45.2004 26.1031 45.0787 26.8674 44.8285 27.6318C44.815 27.6724 44.7541 27.6656 44.7406 27.7062C44.7068 27.8009 44.7338 28.0174 44.6459 28.1459L44.5039 28.0512V28.288L44.3619 28.2406C44.4093 28.4842 43.9427 28.5315 43.7669 28.5315C43.4491 28.5315 42.9961 28.2677 42.7459 28.0783C40.8594 26.6307 38.7025 22.572 38.0398 20.272C37.8708 19.6903 37.6679 18.9259 38.148 18.4524C38.2156 18.3847 38.2832 18.4321 38.2832 18.4253C38.2968 18.4051 38.2765 18.3306 38.2967 18.3036C38.3779 18.1818 38.7701 18.3036 38.885 18.3577L38.8918 18.3442ZM39.1149 19.6362C39.0608 19.5753 38.7092 19.1086 38.6213 19.1762C38.7633 19.8459 38.9797 20.5156 39.2231 21.1582C39.3989 21.6114 39.7032 22.3961 39.9466 22.7885C39.9736 22.8358 40.0413 22.8493 40.0886 22.8696C40.1427 22.4841 39.9398 22.1052 40.0412 21.7332L40.1833 21.8279L40.0886 21.5235L40.2306 21.3814L40.1359 21.3544V21.2597L40.2306 21.307C40.2712 21.1853 40.2914 21.0973 40.1833 20.9959H40.3252C39.9533 20.59 39.6356 20.1368 39.2637 19.7377C39.2164 19.6903 39.1487 19.67 39.1149 19.6294V19.6362ZM41.5153 25.3928C41.5288 24.6622 41.9075 23.9925 42.0765 23.2958L40.8053 21.6993L40.4334 23.7017L41.5153 25.3928ZM42.7459 24.1143C42.6242 24.1007 42.6715 24.1143 42.6512 24.1819C42.5566 24.4999 42.4754 24.8719 42.3672 25.1763C42.2929 25.3792 41.9616 25.9745 41.9954 26.1166C42.0089 26.1639 42.489 26.766 42.5566 26.8404C42.6851 26.9757 43.1516 27.4221 43.2801 27.5168C43.3071 27.5371 43.6925 27.6927 43.7399 27.6995C44.0441 27.7536 44.0915 27.4965 44.1523 27.253C44.1996 27.0771 44.3281 26.2316 44.2808 26.1166C44.247 26.0422 44.1523 26.0557 44.0779 25.9813C43.6587 25.5484 43.2462 24.7907 42.827 24.2902C42.7865 24.2428 42.7594 24.1752 42.7459 24.1143Z" fill="#6F7A58" stroke="#6F7A58" stroke-width="0.85" stroke-linecap="round" stroke-linejoin="round"/>
</svg>
