<svg width="77" height="58" viewBox="0 0 77 58" fill="none" xmlns="http://www.w3.org/2000/svg">
<path d="M34.0302 0.425049L34.2939 0.851216C34.7063 0.972977 34.5102 1.22325 34.5846 1.51412C34.6387 1.73059 34.8416 2.06883 34.9362 2.29206C35.5583 3.77348 36.1263 5.3902 36.674 6.89868C37.6476 9.58419 38.5199 12.3373 39.453 15.0364C39.5544 15.3205 39.6085 15.6519 39.7708 15.9022C39.8316 15.7331 39.7708 15.5099 39.7978 15.3611C39.8113 15.2731 39.8857 15.2055 39.8857 15.1243C39.8992 14.847 39.7843 14.4208 39.8451 14.1232C39.8654 14.0217 39.9736 13.9608 39.9736 13.9337C39.9736 13.9202 39.8992 13.8391 39.8857 13.7444C39.8181 13.122 39.9466 12.3306 39.9736 11.6947C40.048 9.48947 40.1494 7.36544 40.2306 5.16697C40.2576 4.42964 40.2238 3.52993 40.2982 2.8129C40.3252 2.54908 40.3928 2.34614 40.4402 2.08909L40.6498 2.035V1.89971C40.8459 2.00794 41.0352 2.0147 41.2245 2.06882C41.2718 2.08235 41.3192 2.15 41.3733 2.16353C41.495 2.19735 41.5085 2.03499 41.5423 2.27852C41.6167 2.04176 41.921 2.2244 42.0224 2.23116C42.3469 2.23792 42.7256 2.20412 43.0637 2.21089C46.8569 2.25147 50.8936 2.38 54.8897 2.33941L54.9438 2.43409L56.3164 2.38L56.3435 2.5288C56.4855 2.4138 56.7289 2.40704 56.9114 2.40704C57.5808 2.40704 58.3043 2.47467 58.9873 2.47467C59.0819 2.47467 59.4403 2.40026 59.4876 2.42732L59.4606 2.52203C59.6499 2.40027 59.8595 2.47467 60.0353 2.47467C60.61 2.47467 61.2186 2.52879 61.7933 2.52203C61.9624 2.52203 62.2463 2.35968 62.314 2.56261L62.4086 2.4679L62.4492 2.56261L63.1659 2.48144C63.8353 2.52203 64.4574 2.56262 65.12 2.56938C65.2755 2.56938 65.4108 2.42733 65.4513 2.60997C65.5933 2.47468 65.9111 2.58293 66.1207 2.58293C66.2289 2.58293 66.3439 2.54234 66.4521 2.54234C66.6481 2.54234 66.8442 2.6032 67.0471 2.51526L67.0741 2.65733C67.3446 2.45439 67.6691 2.60998 67.9802 2.61674C69.8531 2.6438 71.672 2.62351 73.545 2.6641C74.14 2.67763 74.6471 2.65057 75.2692 2.6641C75.4788 2.6641 75.7357 2.79262 75.9589 2.6641L75.9115 2.85348H76.0806C76.155 2.95495 76.0941 3.09701 76.1076 3.15789C76.1144 3.19172 76.2699 3.25259 76.2496 3.44876C76.2361 3.55023 75.9724 3.75316 75.8642 3.78699C75.8777 4.48373 75.8101 5.18049 75.7831 5.87724C75.3977 16.0375 75.0799 26.2181 74.7147 36.3716C74.5389 41.1338 74.4172 45.8893 74.1738 50.6718C74.1603 50.9829 74.2076 51.3347 74.1468 51.6526C74.0994 51.8961 74.0183 51.8285 73.9642 51.8623C73.9304 51.8826 73.9304 51.9502 73.8763 51.9773C73.8493 51.9908 73.4976 52.0314 73.4706 52.0247C73.43 52.0179 73.4368 51.9367 73.3827 51.9164C73.0243 51.7676 71.3069 51.8015 70.793 51.7947C70.7119 51.7947 70.6375 51.7676 70.5564 51.7406L70.509 51.842L70.4144 51.7406L64.4574 51.5038C63.2673 51.4565 61.9962 51.355 60.8332 51.3618C60.6844 51.3618 60.5424 51.497 60.5018 51.3212C59.0549 51.4226 57.5741 51.125 56.1609 51.267L56.1136 51.1723C56.0527 51.1723 55.9986 51.2129 55.9378 51.2062C54.6057 51.0777 53.2061 51.0506 51.8808 51.0844L51.8335 50.9897C48.2566 50.9694 44.6324 50.6041 41.0622 50.6515L41.0217 50.5635C40.3455 50.5365 39.6085 50.6177 38.9729 50.408L38.7092 50.5568L38.8039 50.3674C38.6483 50.3471 38.5334 50.3539 38.4725 50.1983C38.4387 50.1171 38.4455 49.7789 38.4523 49.6706C38.459 49.5624 38.6078 49.2242 38.4117 49.2242C37.9451 49.4136 37.4651 49.5692 36.9918 49.7518C35.0917 50.4756 33.1376 51.24 31.2173 51.9908C27.0928 53.5873 22.7451 55.2716 18.4176 56.8681C18.066 56.9966 17.7685 57.2604 17.3763 57.186C17.4169 56.983 17.2208 56.7666 17.045 56.6786V56.5433C17.1059 56.496 17.16 56.5434 17.1329 56.4216H16.9706C16.7272 55.7857 16.3891 55.1769 16.1254 54.5478C15.8955 53.9999 15.6589 53.4182 15.429 52.8567C15.2126 52.3291 15.0436 51.7744 14.8205 51.2535L14.8948 51.1385L14.7123 51.0844L14.5838 50.5162C14.4012 50.3065 14.3133 49.9683 14.2187 49.745C14.0699 49.373 13.9212 48.9874 13.7589 48.6356L13.8535 48.568L13.671 48.3921L13.8062 48.2568C13.7589 48.1824 13.6439 48.196 13.5966 48.1351C13.5493 48.0742 13.1977 47.2151 13.2382 47.1813L13.3802 47.1543L13.1503 47.073L12.8461 46.1666C12.7446 45.9028 12.4201 45.3549 12.393 45.091C12.3795 44.9828 12.4471 44.9693 12.4809 44.8881H12.3389L12.4336 44.6987C12.2443 44.692 12.2781 44.6311 12.224 44.5296C12.0009 44.1238 11.771 43.5081 11.6222 42.9738C11.5411 42.6896 11.2977 42.2365 11.203 41.9929C11.0678 41.6615 10.9731 41.3165 10.8176 41.0053L10.9055 40.985V40.8903C10.6485 40.9783 10.6688 40.4235 10.6215 40.3085C10.6012 40.2679 10.5336 40.2612 10.5133 40.2139C10.4457 40.065 10.3713 39.9162 10.3848 39.7539L10.5268 39.7268C10.2834 39.6389 10.1279 39.2871 10.0603 39.0436C10.0468 38.9895 10.1009 38.9151 10.0873 38.8948C10.0873 38.888 9.99943 38.8745 9.95886 38.8068C9.89801 38.7054 9.9521 38.5971 9.93858 38.5633C9.87772 38.428 9.6884 38.1913 9.63431 37.9883C9.57345 37.7719 9.76278 37.8666 9.71545 37.7651C9.67488 37.6975 9.55993 37.711 9.51936 37.6636C9.48555 37.6163 9.09338 36.6895 9.06633 36.6016C9.03252 36.4934 9.04605 36.4866 9.00548 36.3716C8.93786 36.1822 8.77558 35.959 8.95138 35.7899C8.72149 35.7899 8.72149 35.5802 8.62683 35.4246L8.76206 35.269L8.57274 35.3164L7.998 33.8146L8.13999 33.8417V33.747C8.04533 33.7335 7.96419 33.7064 7.9101 33.6185C7.77487 33.4223 7.61935 32.8 7.51792 32.5429C7.12575 31.535 6.66596 30.4459 6.27379 29.3568C6.23998 29.2621 6.1318 28.9645 6.28731 29.0253V28.978C6.05066 29.0253 6.10475 28.6601 5.95599 28.5248L6.0777 28.5045L6.09799 28.4098C5.84105 28.4166 5.84105 28.1865 5.76667 28.0039L5.86133 27.9363C5.64496 27.9092 5.59087 27.6048 5.71934 27.4628H5.53678L5.48268 27.2734L5.62468 27.2463C5.3745 27.1651 5.44887 27.0636 5.34069 26.8675H5.53001C5.48268 26.7728 5.32717 26.8337 5.2866 26.766C5.24603 26.6916 5.26631 26.5293 5.23926 26.4548C5.22574 26.4143 5.16489 26.4143 5.15136 26.3804C4.82681 25.6093 4.54958 24.8111 4.23855 24.0399L4.38054 23.9723C4.06951 23.8708 4.1236 23.6476 4.02218 23.4311C3.92751 23.2282 3.8058 23.032 3.7179 22.8223V22.7614L3.8058 22.7141C3.63676 22.7006 3.48125 22.3014 3.51506 22.1729L3.60972 22.0985C3.50829 22.0985 3.4542 22.0782 3.40011 22.0038C3.34602 21.9294 2.90651 20.82 2.89975 20.7388C2.97413 20.705 3.0147 20.7388 2.99441 20.6238L2.79833 20.5968C2.73071 20.2856 2.56167 20.015 2.44672 19.7242C2.39263 19.5956 2.39939 19.5483 2.33177 19.3995C2.27092 19.2709 2.22359 19.1424 2.14245 19.0274L2.23711 18.9598C2.18978 18.9598 2.12217 18.9801 2.08836 18.9327C2.04103 18.8718 1.87199 18.3577 1.81113 18.2225C1.59476 17.7828 1.35134 17.3363 1.14173 16.9101L0.905077 17.0522C0.925362 16.8019 0.850984 16.7951 0.668421 16.6869C0.783368 16.281 0.763083 15.9022 0.425003 15.6181V15.5234L0.614328 15.5437C0.553473 15.3814 0.53995 15.2799 0.614328 15.1243C0.627851 15.0972 0.688705 15.0972 0.695467 15.0702C0.70899 15.0228 0.681944 14.7861 0.70899 14.759C0.823938 14.759 1.0065 14.7996 1.10792 14.7928C1.50686 14.759 2.48729 14.2314 2.92003 14.0285C3.98837 13.5414 5.12432 12.9664 6.24674 12.5606C6.28731 12.547 6.28055 12.4726 6.31436 12.4726L6.40226 12.5132L6.42255 12.4253L6.49016 12.52C6.57806 12.3103 6.80796 12.3373 6.98376 12.2562C7.72077 11.9112 8.49836 11.5121 9.23537 11.2347C9.29623 11.2144 9.23537 11.0859 9.46527 11.1874L9.43822 11.0926C9.66811 11.1197 9.84392 10.9236 10.04 10.8356C10.6553 10.5583 11.1557 10.3824 11.7372 10.1186C13.6439 9.26627 15.6318 8.38008 17.613 7.54128C19.2696 6.83777 20.9397 6.06665 22.5895 5.37667C22.8532 5.26844 23.1846 5.14668 23.4618 5.12639C23.4347 4.92345 23.5429 5.01812 23.6579 4.964C24.0095 4.80842 24.3949 4.65286 24.6992 4.52434C27.0049 3.53672 29.3173 2.54911 31.6568 1.66296C32.1843 1.46679 32.7049 1.25706 33.2323 1.07441L33.1917 0.864717L33.3811 0.939158V0.567077L33.807 0.465634H34.0437L34.0302 0.425049ZM34.3818 3.55702C34.1586 3.24585 33.9626 2.55586 33.8138 2.19057C33.78 2.1094 33.6989 2.04854 33.6921 1.95383C33.4419 2.09589 33.1512 2.14997 32.8807 2.2582C32.2789 2.50173 31.6839 2.69792 31.1159 2.92115C29.243 3.63819 27.4849 4.42961 25.6458 5.22106C25.3686 5.34282 25.0034 5.41049 24.7668 5.62695L24.6992 5.53224C24.6721 5.74194 24.3678 5.71488 24.2123 5.78252C21.6497 6.91896 19.1479 7.98777 16.6123 9.09715C16.3215 9.22567 15.9564 9.34068 15.6589 9.44214L15.6792 9.53004C15.5439 9.41505 15.4222 9.65858 15.3817 9.67211C14.9084 9.80064 14.1781 10.078 13.7386 10.3012C13.6575 10.3418 13.5358 10.4974 13.4276 10.5312C12.934 10.6936 12.2781 10.91 11.8251 11.1603C11.6628 11.2483 11.629 11.3633 11.5952 11.3836C11.5411 11.4174 10.6553 11.7218 10.466 11.8029C9.35708 12.2832 8.18056 12.7567 7.09194 13.237C7.0108 13.2708 6.99052 13.4197 6.7471 13.352V13.4805C6.60511 13.4535 6.52397 13.5346 6.42255 13.5617C5.97628 13.6902 5.45564 14.0082 5.03642 14.1976C4.73214 14.3329 4.25207 14.4614 3.98161 14.6102C3.90723 14.6508 3.84637 14.732 3.83285 14.8199L3.76523 14.7252L1.60152 15.652C1.78409 15.9834 2.00722 16.3081 2.18302 16.6463C4.1236 20.4006 5.64496 24.8314 7.15956 28.8157C7.85601 30.6421 8.63359 32.5835 9.31651 34.4708C9.41794 34.7617 9.43146 35.1202 9.62078 35.2555C10.5201 37.7854 11.6493 40.2342 12.508 42.7438C12.5215 42.7844 12.5959 42.7844 12.6026 42.8114C12.6162 42.8858 12.5486 43.0008 12.5621 43.0143C12.7311 43.2511 12.7717 43.1361 12.7987 43.5149C12.7987 43.5488 12.8731 43.542 12.8866 43.5826C14.4012 47.3842 15.8009 51.1994 17.4575 54.9199L17.8699 55.9278L38.5064 48.0065L39.0405 34.6805C38.4861 34.8496 37.9722 35.0864 37.4313 35.2893C36.1263 35.7763 34.7401 36.2499 33.5095 36.7031C31.7583 37.3525 30.007 38.0357 28.2828 38.6783C27.2483 39.0639 26.3219 39.4224 25.2807 39.8147C22.4475 40.87 19.4116 41.8306 16.6393 42.9873C16.5582 43.0211 16.3351 43.1091 16.2877 43.1564C16.2066 43.2308 16.2404 43.339 16.1119 43.4067C15.9361 43.5014 15.6589 43.4879 15.4899 43.3864C15.3479 43.2985 15.3614 43.1023 15.3005 42.9535C14.8678 41.9253 14.5162 40.7685 14.097 39.7809C14.0226 39.6118 13.7995 39.3954 13.9279 39.1586H13.7927C13.7656 38.8813 13.6034 38.6445 13.5155 38.401C13.2247 37.6298 12.9745 36.7707 12.6567 36.0199C12.6297 35.959 12.5486 35.9657 12.5418 35.9319C12.5283 35.8575 12.5959 35.7561 12.5824 35.729C12.5824 35.729 12.508 35.729 12.4809 35.6613C12.4336 35.5463 12.535 35.4178 12.3525 35.3637L12.4471 35.1946L12.2984 35.1675L12.251 35.0322L12.3525 35.0052C12.3728 34.9375 12.2781 34.9578 12.2308 34.9105C12.0955 34.7684 12.0752 34.5452 12.0009 34.3761C11.798 33.862 11.5749 33.1788 11.372 32.7797C11.2368 32.5159 11.1354 32.022 11.0272 31.7312C10.9731 31.5823 10.9461 31.8056 10.9528 31.4538C10.9528 31.42 10.6688 31.0682 10.6418 30.9329C10.6215 30.8247 10.7162 30.8112 10.5471 30.6691C10.6756 30.4527 10.5471 30.5474 10.4795 30.4391C10.4322 30.3512 10.4119 30.1483 10.3646 30.04C10.1752 29.5665 9.99943 29.1065 9.80335 28.606C9.73573 28.4301 9.55993 28.288 9.71545 28.1392C9.49907 28.2001 9.51936 27.7807 9.4585 27.6251C9.39089 27.4357 9.21509 27.1178 9.14747 26.9554C9.11366 26.881 9.10014 26.7931 9.05281 26.7254L9.14071 26.6375C8.92434 26.5901 8.99872 26.3534 8.98519 26.3331C8.97167 26.3128 8.89729 26.3128 8.86348 26.2451C8.78235 26.0828 8.85672 25.9204 8.8432 25.8596C8.82968 25.7987 8.47807 25.2711 8.4037 25.0411C8.3496 24.8652 8.32256 24.8517 8.28875 24.7637C8.01828 24.0399 7.79515 23.465 7.60583 22.8359C7.56526 22.7073 7.57202 22.5788 7.56526 22.5653C7.55849 22.5517 7.4165 22.5314 7.38945 22.3826C7.35565 22.1932 7.51792 22.2338 7.2407 22.0579L7.33536 21.9632C7.09194 21.7603 7.07842 21.4491 6.97023 21.1785C6.57806 20.2112 6.18589 19.2439 5.86133 18.263C5.84781 18.2292 5.78019 18.2292 5.77343 18.1954C5.74638 18.0939 5.78695 17.8842 5.7261 17.7895C5.67877 17.7151 5.54354 17.803 5.50297 17.5325C5.48944 17.4513 5.60439 17.3701 5.44211 17.3701V17.2822C5.44211 17.2822 5.78695 17.1334 5.83429 17.0928C5.9019 17.0319 5.89514 16.8695 6.00333 16.8087C6.20617 16.6869 6.69301 16.5245 6.94319 16.4231C7.15956 16.3351 7.40974 16.2472 7.5923 16.166C9.2489 15.4693 10.9393 14.7184 12.5553 14.0758C12.8393 13.9608 13.0827 13.8052 13.4005 13.8999V13.7105C13.5966 13.7038 13.7454 13.5888 13.9279 13.5414C14.0834 13.4941 14.1984 13.6294 14.2457 13.3723C15.5439 12.8176 16.8827 12.3373 18.1472 11.7082L18.2148 11.8976C18.1945 11.6338 18.465 11.6744 18.6137 11.6C19.7835 10.9979 21.1155 10.5109 22.3596 10.0036C22.5287 9.93592 22.7112 9.67886 22.718 10.0374C22.8059 9.99003 22.7383 9.90211 22.7653 9.848C22.8397 9.70594 23.1169 9.69241 23.2657 9.63153C23.3806 9.58418 23.9621 9.25947 24.0298 9.32035L24.0771 9.46242C24.0568 9.21213 24.2258 9.27978 24.3205 9.2189C24.902 8.86715 25.5241 8.68452 26.1597 8.42747C26.2949 8.37335 26.5586 8.15685 26.6668 8.17714C26.7209 8.18391 26.6668 8.29892 26.7412 8.27863L26.8155 8.08924C27.1469 8.18395 26.9643 8.04188 27.0522 7.98776C27.1266 7.94717 27.4173 7.87277 27.5458 7.82542C27.9244 7.68336 28.6141 7.30455 28.9657 7.23014C29.0536 7.20984 29.1686 7.25043 29.2362 7.23014C29.2835 7.21661 29.243 7.10159 29.3444 7.04071C29.4864 6.95277 29.9394 6.85133 30.122 6.77016C30.3857 6.66192 30.7914 6.40486 31.028 6.33722C31.1903 6.28987 31.1565 6.43191 31.3458 6.20192C31.3729 6.1681 31.3458 6.08692 31.3864 6.07339L32.0423 5.98545C32.4615 6.29662 32.475 6.84454 32.6373 7.29777C33.185 8.79949 33.8476 10.2877 34.4223 11.8029C34.517 12.06 34.943 12.8988 34.9362 13.1017C34.9362 13.1626 34.8754 13.2641 34.8821 13.2708C34.8957 13.2844 34.9768 13.2438 35.0309 13.2979C35.085 13.352 35.0985 13.5347 35.1323 13.6091C35.6056 14.6373 35.9978 15.8143 36.4035 16.829C36.4779 17.0116 36.6131 17.431 36.6942 17.5663C36.7213 17.6069 36.7957 17.6136 36.8227 17.6678C36.8498 17.7286 36.8024 17.8639 36.8092 17.9113C36.8092 17.9316 36.9309 18.1142 36.9782 18.2427C37.3907 19.3183 37.8708 20.3262 38.29 21.4085C38.459 21.855 38.5807 22.4029 38.7836 22.775C38.9729 23.1199 39.0946 23.7558 39.2839 24.1346C39.3245 24.2158 39.3786 24.3241 39.4597 24.3646L39.7032 17.9113L39.5612 17.8842C39.5544 17.7625 39.5544 17.661 39.48 17.5663C39.4192 17.4919 39.3583 17.5257 39.3177 17.4783C39.2163 17.3363 39.1487 17.0184 39.0338 16.8628L39.1217 16.7748C38.8039 16.5381 38.8309 16.1187 38.601 15.8211L38.6957 15.7534C38.5807 15.7534 38.5469 15.6181 38.5199 15.5234C38.3508 15.0229 38.1683 14.4546 38.006 13.9405C37.9181 13.6564 37.7558 13.3182 37.837 13.0341L37.695 13.0814L37.6138 12.6823L37.7423 12.5064L37.6003 12.5335C37.4042 12.2291 37.4583 11.8638 37.2284 11.5729L37.3231 11.458C37.1337 11.458 37.2149 11.2415 37.0864 11.1468L37.1811 11.0791C37.0797 11.0994 36.8633 10.5718 36.8565 10.5244C36.843 10.45 36.9647 10.4027 36.9444 10.3689C36.8565 10.3756 36.816 10.2877 36.7821 10.22C36.6604 9.95622 36.5793 9.59093 36.4643 9.32035L36.6063 9.22567L36.417 9.27303C36.4103 8.93481 35.9302 8.18395 35.9843 7.92013C35.9978 7.86601 36.106 7.9201 36.0857 7.84569H35.8964L35.3284 6.14779L35.4231 6.03281H35.254L35.2337 5.89078L35.3757 5.79607L35.1864 5.84342C35.1661 5.49843 34.8957 5.1399 34.8483 4.81521C34.8348 4.70697 34.9903 4.79492 34.943 4.65286H34.7739L34.3682 3.60437L34.4629 3.55702C34.4629 3.55702 34.3953 3.557 34.3885 3.54348L34.3818 3.55702ZM32.7184 2.28529V2.33264C32.7184 2.33264 32.7522 2.29882 32.7184 2.28529ZM60.3125 3.48258C60.3125 3.48258 60.0962 3.56375 60.015 3.57052C58.9805 3.63816 57.8243 3.51642 56.7762 3.50289C53.2061 3.45554 49.6021 3.42849 46.0117 3.38113C44.6865 3.36084 43.3071 3.2526 42.0021 3.29319C41.806 3.29319 41.5694 3.34731 41.3665 3.33378C41.4274 3.50289 41.3462 3.70582 41.3327 3.8817C41.211 6.01928 41.1975 8.19745 41.1299 10.308C41.1299 10.4771 41.0352 10.68 41.0825 10.8762L40.9879 10.9303C41.1907 10.9844 41.0352 11.2144 41.0352 11.3632C41.0081 12.5673 40.9676 13.67 40.9473 14.8876C40.9473 15.0431 40.7985 15.2664 40.9946 15.3137C40.8256 15.3678 40.9067 15.6993 40.9 15.8819C40.8729 16.3487 40.8729 16.8763 40.758 17.316L40.8526 17.3566C40.7242 18.5404 40.7918 19.7106 40.7174 20.8877C40.7106 21.0365 40.5281 21.1177 40.7647 21.2191L40.6701 21.2733C40.6701 21.9565 40.6363 22.6329 40.5889 23.3161C40.5822 23.4311 40.6633 23.4988 40.5281 23.6476L40.6227 23.6949C40.5281 24.3714 40.5551 25.0681 40.5348 25.7514C40.5348 25.9069 40.3928 26.1302 40.5822 26.1775L40.4875 26.2316C40.4875 26.8066 40.4334 27.3748 40.4064 27.9498C40.3387 29.5327 40.3185 31.1088 40.2441 32.7052C40.2103 33.4967 40.217 34.3761 40.048 35.1337C40.2373 35.3164 40.075 35.844 40.0683 36.1416C40.0412 36.879 40.0953 37.6636 39.9533 38.3739L40.048 38.4145C39.9263 39.5171 39.9128 40.6535 39.8992 41.7562C39.8992 41.905 39.7573 42.135 39.9601 42.1823L39.8654 42.2364C39.8654 42.8385 39.7843 43.4405 39.7708 44.0358C39.7708 44.1711 39.7234 44.2861 39.8654 44.3199L39.737 44.5634L39.622 48.0877L39.7234 48.1824C39.5544 48.223 39.737 48.4463 39.5747 48.6154L39.6693 48.7101C39.5544 48.798 39.6085 48.9942 39.6017 49.1295C39.6017 49.2377 39.48 49.3797 39.6017 49.4947L73.0784 50.8274C73.1528 50.1712 73.146 49.5218 73.1799 48.8657C73.2001 48.3651 73.1934 47.8374 73.2137 47.3301C73.2204 47.1204 73.2137 46.701 73.3895 46.6063L73.2475 46.559C73.3354 46.3628 73.1663 46.0516 73.3895 45.9434C73.2001 45.7472 73.3151 45.4225 73.3286 45.179C73.3354 45.0437 73.2204 44.8272 73.4368 44.7528C73.4368 44.7055 73.3489 44.7731 73.3354 44.6581C73.3219 44.5634 73.3421 43.6637 73.3624 43.5826C73.3895 43.4811 73.3692 43.4608 73.4841 43.4202C73.2678 43.3594 73.4841 43.1091 73.3895 42.9467L73.4841 42.8926L73.3895 42.8385C73.4706 42.6288 73.2745 42.2973 73.5788 42.2432L73.5517 42.1485L73.4368 42.1959C73.4233 41.7494 73.4706 41.33 73.5044 40.8835C73.5247 40.6468 73.403 40.3897 73.6261 40.1665L73.4841 40.1936C73.5517 39.8824 73.4638 39.2465 73.5315 38.9827C73.545 38.9354 73.6261 38.9692 73.6261 38.9286C73.6532 38.8204 73.5382 38.8812 73.5315 38.8271C73.5247 38.7933 73.5382 38.2657 73.545 38.171C73.5585 37.941 73.6194 37.6839 73.6261 37.4539C73.6396 37.1428 73.5788 35.7696 73.7005 35.6207C73.7546 35.5531 73.8695 35.5666 73.8154 35.4314L73.6735 35.4787C73.6464 35.2961 73.6937 35.1134 73.7005 34.9375C73.7073 34.7413 73.545 34.5587 73.8628 34.4979L73.6735 34.4708C73.7208 34.1123 73.7343 33.747 73.7546 33.3885C73.7614 33.2193 73.6329 33.0096 73.8695 32.9217C73.9033 32.7729 73.7073 32.9555 73.7275 32.8744C73.8222 32.4888 73.7614 32.367 73.7681 32.0153C73.7952 31.2238 73.856 30.4188 73.8966 29.6274C73.8966 29.5192 73.8222 29.3298 73.8831 29.2418C73.8966 29.2215 73.9574 29.2418 73.9642 29.2283C73.9777 29.208 73.8763 29.1403 73.8763 29.0659C73.8425 28.4707 73.9439 27.4695 73.9642 26.8201C73.998 25.846 74.0656 24.8652 74.1062 23.8911L74.2482 23.864C74.1197 23.864 74.1062 23.837 74.0859 23.7017C74.0589 23.5055 74.0994 22.5247 74.1535 22.3488C74.1738 22.2811 74.3293 22.2947 74.2955 22.1729L74.1062 22.2406L74.3902 14.9281H74.5322L74.4375 14.847V14.2855L74.5795 14.2585C74.5863 14.1773 74.4781 14.2178 74.4443 14.1367C74.3902 14.0081 74.4781 13.6564 74.4848 13.5211C74.4848 13.2979 74.4308 12.9867 74.4848 12.7703C74.4984 12.7026 74.8229 12.6418 74.4848 12.5673C74.4646 11.9788 74.6201 11.3565 74.5389 10.7815C74.6809 10.8086 74.6674 10.7612 74.7283 10.6597L74.5863 10.6868C74.5322 10.6462 74.5592 9.71272 74.6809 9.61126C74.5525 9.62479 74.6066 9.13773 74.6336 9.04979C74.6539 8.98891 74.7418 8.99565 74.7756 8.94154L74.6336 8.92126C74.5525 8.75215 74.7283 8.54923 74.7283 8.46805C74.7283 8.43423 74.6336 8.48833 74.6268 8.32598C74.6133 8.02835 74.6809 7.74422 74.708 7.46011C74.7215 7.32482 74.593 7.15571 74.7688 7.04071C74.5795 6.9866 74.7215 6.77013 74.7215 6.61454C74.7215 6.45896 74.6742 5.81635 74.735 5.74194C74.7485 5.72165 74.8094 5.74193 74.8162 5.7284C74.8297 5.7081 74.7283 5.63369 74.7215 5.55928C74.708 5.41723 74.7891 4.97757 74.7959 4.78816C74.8026 4.59876 74.6674 4.17259 74.9108 4.1523C74.7891 4.01024 74.7891 3.96286 74.9108 3.8208C74.8297 3.71257 73.1325 3.76672 72.8823 3.72613C72.7336 3.55702 72.7336 3.70584 72.5105 3.72613C72.0574 3.77348 71.5368 3.67201 71.077 3.72613L67.5948 3.67877C67.4393 3.51643 67.5339 3.6314 67.4054 3.65169C67.1417 3.69228 66.9659 3.61114 66.736 3.60437C64.809 3.57055 62.794 3.66522 60.8737 3.52993C60.7182 3.5164 60.4883 3.55699 60.3599 3.52993C60.326 3.52317 60.326 3.44876 60.3193 3.44199L60.3125 3.48258ZM33.9017 13.5076C33.2526 11.6 32.4074 9.7668 31.6907 7.8795C31.6433 7.75774 31.5825 7.28423 31.4405 7.291L14.5432 14.2855L14.5906 14.3802C14.3404 14.2923 14.2187 14.4817 14.0023 14.5832C11.8792 15.5369 9.59374 16.4096 7.44355 17.316C7.31508 17.3701 6.76063 17.6136 6.72682 17.6948C6.88233 17.7422 6.82824 17.891 6.87557 18.0128C6.8891 18.0533 6.96347 18.0466 6.97023 18.0804C6.98376 18.2224 6.86205 18.2225 7.11223 18.3578L7.02433 18.4524C7.25422 18.5539 7.14604 18.6283 7.19337 18.7501C7.22718 18.838 7.30155 18.9192 7.32184 18.9936C7.37593 19.1763 7.25422 19.3724 7.53821 19.3792L7.44355 19.4739C7.61259 19.4874 7.51793 19.873 7.6802 20.0218L7.58554 20.1368C7.86277 20.1368 7.77487 20.333 7.82896 20.4818C7.82896 20.4953 7.95743 20.678 7.96419 20.6982C8.03181 20.8877 8.09942 21.1244 8.11971 21.3273H8.25494C8.10618 21.5709 8.30227 21.5641 8.3496 21.6521C8.41722 21.7738 8.43074 22.0444 8.47807 22.1864C8.5795 22.4976 8.76206 22.8697 8.89729 23.2349C8.92434 23.3026 8.99872 23.3567 9.00548 23.4108C9.01224 23.4649 8.96491 23.5461 8.97167 23.5597C8.99195 23.5935 9.12043 23.7152 9.14747 23.7964C9.34356 24.3376 9.47879 24.8922 9.67488 25.3455C9.74249 25.4943 9.70868 25.4266 9.75602 25.6025C9.79659 25.7446 10.0873 26.2519 10.1482 26.4143C10.3578 26.9284 10.5404 27.4763 10.75 27.9904C10.7905 28.0986 10.8311 28.403 10.8446 28.4233C10.8852 28.4977 11.0137 28.5045 11.0137 28.5519C11.0272 28.6804 10.892 28.7074 11.1016 28.8765L11.0069 28.9442C11.1421 28.9239 11.0813 29.0321 11.1151 29.1201C11.1219 29.1336 11.1962 29.1336 11.1962 29.1674C11.1962 29.2215 11.1421 29.3027 11.1557 29.323C11.1624 29.3365 11.2368 29.3298 11.2774 29.4109C11.3788 29.6071 11.5208 30.0806 11.6019 30.3174C11.6222 30.3715 11.5884 30.4527 11.6222 30.5339C11.6425 30.588 11.8318 30.703 11.8454 30.7232C11.8454 30.7368 11.8251 30.8788 11.8589 30.9735C11.9197 31.1494 12.0076 31.3118 12.0685 31.4809C12.1158 31.6094 12.1226 31.9882 12.2849 31.9341C12.2849 32.4212 12.65 33.0097 12.8258 33.4899C12.8664 33.5914 12.934 33.7199 12.9475 33.7605C12.9745 33.8417 13.1098 34.3152 13.0962 34.3626L13.0016 34.437C13.3735 34.4031 13.2247 34.8834 13.245 34.9105C13.2518 34.924 13.3667 34.9308 13.4073 35.012C13.5358 35.2622 13.6034 35.7899 13.7521 36.0469C13.7995 36.1348 13.8941 36.1484 13.9009 36.1619C13.9076 36.1822 13.8738 36.4189 13.9144 36.5475C13.9279 36.5813 14.124 36.8519 14.1443 36.8992C14.2525 37.1631 14.3404 37.5283 14.4148 37.7786C14.4689 37.9613 14.6379 38.083 14.5906 38.2454H14.6785L14.5838 38.3469C14.8813 38.4821 14.7123 38.9962 15.0571 39.1315C14.8475 39.1856 15.0504 39.3751 15.0842 39.4562C15.3073 39.9636 15.5101 40.4506 15.6995 40.9647C15.7603 41.1271 15.7197 41.3909 15.9158 41.3706C15.7874 41.5397 15.9496 41.5329 15.9632 41.5735C15.9902 41.6682 15.997 41.9929 16.0849 42.0132L39.1622 33.4832V33.4358C38.9459 33.4493 39.1555 33.0367 39.1622 32.9353C39.2366 31.2171 39.2434 29.4583 39.311 27.7401C39.3177 27.5372 39.3854 27.1178 39.338 26.9486C39.311 26.8539 39.2298 26.8607 39.2028 26.7998C38.8039 25.9205 38.4861 24.757 38.0466 24.0535C37.9789 23.9385 37.9384 23.6003 37.8978 23.4785C37.2014 21.5371 36.3629 19.643 35.6327 17.7963C35.3081 16.9778 35.0038 16.0713 34.6793 15.3205C34.4291 14.7387 34.1857 14.1773 33.9693 13.5617L33.8949 13.5076H33.9017ZM41.1028 8.47478V8.52214C41.1028 8.52214 41.1366 8.48831 41.1028 8.47478ZM24.6451 9.1445H24.5504V9.19182H24.6451V9.1445ZM38.1209 13.812V13.67H38.0736V13.812H38.1209ZM74.4443 15.5302V15.5775C74.4443 15.5775 74.4781 15.5437 74.4443 15.5302ZM73.8695 32.2994V32.3467C73.8695 32.3467 73.9033 32.3129 73.8695 32.2994Z" fill="#6F7A58" stroke="#6F7A58" stroke-width="0.85" stroke-linecap="round" stroke-linejoin="round"/>
<path d="M73.2475 6.26957C73.3016 6.3034 73.5585 6.41161 73.5653 6.45896C73.4774 6.74307 73.43 7.04749 73.3421 7.32483C73.2881 7.48718 73.092 7.81861 73.0649 7.92684C72.9229 8.59653 72.9838 9.66534 72.9297 10.3959C72.5105 15.6249 71.9966 20.8944 71.6112 26.164C71.5098 27.5439 71.388 28.9306 71.2799 30.3106L71.3745 30.385L71.2799 30.4188C71.2325 30.7435 71.2596 31.0885 71.2325 31.4132C71.219 31.6026 71.2055 31.7988 71.192 31.9882C71.1852 32.0761 71.0973 32.0558 71.0973 32.0761C71.1176 32.4279 71.2393 32.8676 70.9959 33.1787L71.0973 33.2735C71.0567 34.0852 70.9283 34.8969 70.9012 35.7087C70.9012 35.7628 70.9012 36.1822 70.9147 36.2025C70.935 36.2228 71.0162 36.1754 70.9959 36.2566C70.8742 36.2228 70.8606 36.5137 70.8539 36.6151C70.7592 37.8124 70.7795 39.0368 70.6105 40.2273C70.6037 40.2882 70.4752 40.9512 70.3806 40.755C70.3873 40.4979 70.1371 40.5926 70.3332 40.4032C70.171 40.4303 70.198 40.0109 70.1439 39.9703L69.6909 40.1056C66.6008 39.8012 63.4973 39.7606 60.4004 39.6659C59.8189 39.6456 59.0481 39.7133 58.4937 39.6456C58.399 39.6321 58.4463 39.5442 58.3584 39.5442C57.8784 39.5509 57.3983 39.6118 56.8776 39.5983C53.9702 39.5238 51.0829 39.3344 48.1619 39.3142C47.905 39.3142 47.9997 39.3141 47.878 39.348C47.8103 39.3683 47.5263 39.2736 47.4452 39.2803C47.3979 39.2803 47.3573 39.375 47.3303 39.3547C47.3303 39.3547 47.337 39.2871 47.3167 39.2736C47.1409 39.1518 45.4843 39.3683 45.153 39.2194L44.673 39.2465C44.2537 39.2465 43.6858 39.0706 43.2868 39.0841C43.1922 39.0841 43.1381 39.1586 43.0569 39.1653C42.8879 39.1653 42.8 38.9557 42.6986 38.9083C42.658 38.888 42.2929 38.861 42.4484 38.7392C42.4687 38.7257 42.5295 38.773 42.5092 38.6918L42.3199 38.6174L42.4619 38.5498L42.3131 38.5159C42.3064 38.3536 42.2185 38.1439 42.2185 37.9951C42.2185 37.8192 42.232 37.8124 42.2185 37.6163C42.1712 36.791 42.3199 35.7492 42.3605 34.9037C42.4484 33.1517 42.4957 31.4064 42.6039 29.668C42.6174 29.5056 42.6445 29.3365 42.6512 29.1674L42.8338 29.1133V29.0186L42.6445 29.1133C42.6309 28.9915 42.6309 28.8833 42.7391 28.8021C42.6174 28.7615 42.6377 28.7345 42.6377 28.6127C42.6377 28.2271 42.7256 27.801 42.7391 27.4221C42.9623 21.8211 43.2598 16.281 43.2868 10.7003C43.2868 10.193 43.2463 9.44885 43.2868 8.9821C43.2936 8.86711 43.4626 8.75213 43.2665 8.70478C43.3206 8.02156 43.226 7.29778 43.2124 6.6078C43.2124 6.5131 43.226 6.43192 43.2598 6.35074L43.1245 6.22899C43.2463 6.19517 43.1854 6.10042 43.253 5.97866C43.2801 5.92455 43.3612 5.91782 43.368 5.89076C43.368 5.80959 43.2801 5.71488 43.3409 5.63371C43.9495 5.4443 44.5783 5.58636 45.2004 5.59312C54.5381 5.69459 63.8421 5.95839 73.1596 6.16809C73.2002 6.19515 73.2204 6.26955 73.2542 6.28985L73.2475 6.26957ZM67.5136 7.09482L67.5407 7.00011C67.4325 7.14216 67.3176 7.0407 67.2094 7.04747C66.3642 7.09482 65.4852 7.01364 64.64 7.00011C60.0421 6.91217 55.4239 6.85807 50.826 6.76337C48.7637 6.72278 46.6744 6.59425 44.6256 6.58748C44.5242 6.58748 44.4295 6.6213 44.3281 6.6213L44.416 9.1174C44.4228 11.4579 44.3416 13.8796 44.2537 16.2337C44.2334 16.8763 44.2808 17.688 44.2064 18.3036C44.1929 18.4321 44.2199 18.5674 44.0847 18.6012C44.2402 18.6351 44.1929 18.9665 44.1794 19.1289C43.9224 24.4593 43.6519 29.8168 43.3747 35.1405C43.3747 35.2013 43.4018 35.2622 43.4018 35.3299L43.2733 38.0222C43.7331 38.0898 44.1658 38.0965 44.6256 38.1168C45.8224 38.1845 47.0733 38.1642 48.2972 38.2319C48.3851 38.2319 48.4865 38.1912 48.5879 38.2048C48.6758 38.2115 48.6555 38.3063 48.6826 38.3063C48.7434 38.3063 48.8246 38.2386 48.8922 38.2319C49.3114 38.1845 49.7374 38.2656 50.1566 38.2792C51.8876 38.3198 53.6659 38.3198 55.3968 38.4483C55.5862 38.4618 55.9107 38.3739 55.9648 38.543C56.3029 38.3739 56.7762 38.4821 57.1549 38.4956C57.3915 38.5024 57.7026 38.4618 57.9257 38.4956C58.0204 38.5092 57.9933 38.5971 58.0136 38.5971C58.0744 38.5904 58.1488 38.5227 58.2773 38.5159C59.0616 38.5024 59.9271 38.6174 60.7318 38.6377C60.8061 38.6377 60.8873 38.5836 60.9617 38.5971L61.0157 38.6986L61.0563 38.6107C63.6866 38.8136 66.3101 38.6106 68.9336 39.0097L69.9411 39.0841C69.9411 38.9489 69.9411 38.8136 69.9411 38.6783C69.9275 38.4889 69.8937 38.3062 69.8802 38.1168C69.6841 35.7763 69.9952 33.4696 70.1574 31.1562C70.3468 28.4707 70.4685 25.7378 70.8065 23.0996L70.7119 23.059C70.8133 22.4232 70.8268 21.767 70.8742 21.1244C70.9283 20.4006 70.9418 19.5145 71.1311 18.8651C71.3813 15.4828 71.6382 12.0667 71.9695 8.67096C71.9898 8.48832 71.8546 7.98096 72.0913 7.92684L71.9966 7.85921L72.2738 7.34511L72.2197 7.23012L67.5136 7.12187V7.09482ZM72.6322 12.8108V12.8582C72.6322 12.8582 72.666 12.8244 72.6322 12.8108Z" fill="#6F7A58" stroke="#6F7A58" stroke-width="0.85" stroke-linecap="round" stroke-linejoin="round"/>
<path d="M54.6057 43.9208C54.7004 44.0425 54.342 44.0561 54.3015 44.0628C53.4766 44.0966 52.7057 44.0831 51.9146 44.1372C51.7794 44.144 51.5427 44.2387 51.3534 44.2387C51.1776 44.2387 50.9477 44.1237 50.7246 44.259L50.6773 44.1169C50.6299 44.1507 50.6773 44.2049 50.5826 44.2184C50.2918 44.2455 49.8726 44.2657 49.5819 44.2522C49.4331 44.2522 49.1288 44.2657 49.2708 44.0696C49.1965 44.056 49.2438 44.144 49.1627 44.1778C49.1086 44.2049 49.0409 44.2116 48.9801 44.2116L49.0274 44.0763C48.8787 44.0357 48.6691 43.9005 48.6961 43.7246C48.6961 43.6705 48.953 43.5961 48.8854 43.5081C48.7231 43.5149 48.8719 43.3728 48.7975 43.2646C48.9057 43.1834 50.5894 43.2105 50.8666 43.2308C51.6306 43.2781 52.3879 43.4202 53.1317 43.5758C53.6253 43.6772 54.1121 43.8396 54.6057 43.9343V43.9208Z" fill="#6F7A58" stroke="#6F7A58" stroke-width="0.85" stroke-linecap="round" stroke-linejoin="round"/>
<path d="M67.02 44.7664C67.02 44.7664 66.8578 44.9152 66.8172 44.9219C66.141 44.949 65.377 45.1858 64.7143 45.2061C64.4777 45.2061 64.2005 45.0302 63.9368 45.1114L64.0787 44.9423L63.93 44.8408L64.0517 44.2996C64.0923 44.2455 64.4642 44.1102 64.5318 44.1102C64.5859 44.1102 64.9442 44.1508 65.0524 44.1575C65.6677 44.2049 66.2898 44.3334 66.8983 44.4078C67.0403 44.4484 67.0674 44.6446 67.0133 44.7664H67.02Z" fill="#6F7A58" stroke="#6F7A58" stroke-width="0.85" stroke-linecap="round" stroke-linejoin="round"/>
<path d="M59.5079 44.3537C59.5552 44.5634 59.251 44.5972 59.0887 44.6242C58.6019 44.7189 57.9865 44.8001 57.5132 44.8475C57.2969 44.8678 56.6545 44.9489 56.4855 44.9287C56.4246 44.9219 56.4043 44.9016 56.3638 44.8543L56.4584 44.7325C56.2826 44.7325 56.1474 44.5972 56.1677 44.4213C56.1474 44.3334 56.2691 44.3402 56.2894 44.3063C56.3435 44.2252 56.1542 44.0493 56.5058 43.9478C56.6748 43.9004 57.973 44.0696 58.2435 44.1169C58.3179 44.1304 58.3787 44.1778 58.4463 44.1913C58.7979 44.2522 59.1563 44.3199 59.5079 44.3537Z" fill="#6F7A58" stroke="#6F7A58" stroke-width="0.85" stroke-linecap="round" stroke-linejoin="round"/>
<path d="M61.5161 44.9355C61.4552 44.9625 61.2862 45.0708 61.151 45.064C61.0631 45.064 61.009 44.9625 60.9413 44.9422C60.8602 44.9219 60.7115 44.9896 60.6033 44.9219L60.6979 44.7596L60.5559 44.7325C60.6303 44.5228 60.6168 44.1237 60.8332 44.029C61.0495 43.9343 61.4214 43.9884 61.6716 44.0155C62.2396 44.0764 62.8143 44.2049 63.362 44.3199L63.2673 44.5161C62.9495 44.5972 62.6588 44.7731 62.3275 44.8543C62.1787 44.8881 61.5499 44.9152 61.5093 44.9355H61.5161ZM63.0577 44.3064V44.3537C63.0577 44.3537 63.0915 44.3199 63.0577 44.3064Z" fill="#6F7A58" stroke="#6F7A58" stroke-width="0.85" stroke-linecap="round" stroke-linejoin="round"/>
<path d="M31.6636 45.8892C31.6028 45.9501 31.5622 46.0651 31.4811 46.1124C31.3932 46.1665 31.2714 46.126 31.2647 46.2071L31.9273 46.498V46.6333C31.9273 46.6333 31.4067 46.7145 31.3188 46.7145C30.0273 46.7145 27.1942 45.7269 26.6871 44.4281C26.5248 44.0087 26.4775 43.1834 26.9305 42.9399C27.4647 42.6558 28.9387 42.6828 29.5202 42.8857C29.6149 42.9196 29.6622 43.0549 29.7907 43.0143C29.8245 42.6219 29.865 42.1484 29.9665 41.7696C30.0882 41.3232 30.2842 41.0594 30.5412 40.7144C30.575 40.667 30.5412 40.5723 30.602 40.5114C30.7643 40.3491 31.0483 40.2273 31.2579 40.1394C31.3053 40.1191 31.2917 39.9906 31.5351 40.0244C31.6704 40.0379 32.2789 40.2679 32.4006 40.3356C32.59 40.4506 32.7455 40.6602 32.8199 40.8699C33.4216 42.5611 32.8604 44.6242 31.6704 45.8892H31.6636ZM31.1227 46.1124C31.2917 45.4292 31.4405 44.7393 31.6163 44.056C31.8327 43.1902 32.1099 42.6693 31.9206 41.7223C31.7109 40.6602 31.3593 41.2555 31.1024 41.8778C30.8455 42.5002 30.9469 42.7911 30.886 43.4269C30.8522 43.7855 30.8252 43.7043 30.6426 43.9004C30.575 43.9748 30.6494 44.1101 30.4533 44.0695L30.548 44.1169C30.6088 44.1913 30.2572 44.3943 30.1963 44.401C29.6351 44.4349 29.2362 43.8193 28.6547 43.7516C28.5533 43.7381 28.4316 43.7787 28.3301 43.7787C28.0867 43.7787 27.9042 43.6907 27.6405 43.8328C27.6743 43.9884 27.7351 44.1575 27.8298 44.286C28.2017 44.7798 29.2362 45.1113 29.7907 45.3616C29.838 45.3819 29.838 45.4427 29.8853 45.4698C29.98 45.5104 30.1084 45.5171 30.2099 45.551L30.0679 45.693L30.3045 45.6457V45.7877C30.6832 45.5307 30.5277 45.8622 30.5412 45.8825C30.575 45.9163 30.9672 45.9636 31.0077 45.9907C31.0415 46.011 31.0415 46.126 31.1159 46.1192L31.1227 46.1124Z" fill="#6F7A58" stroke="#6F7A58" stroke-width="0.85" stroke-linecap="round" stroke-linejoin="round"/>
</svg>
