<svg width="48" height="48" viewBox="0 0 48 48" fill="none" xmlns="http://www.w3.org/2000/svg">
<path d="M46.4395 0.502829C46.5274 0.550181 46.6897 0.753088 46.7438 0.854555C47.1495 1.59189 47.2036 3.41156 47.136 4.25712C47.1157 4.53446 47.021 5.35296 46.8317 5.51531C46.595 5.71148 45.7498 5.73853 45.4253 5.75882C43.7416 5.88735 42.031 5.96178 40.3338 6.08354C30.6377 6.78705 20.9686 8.04522 11.2521 8.63373C10.9276 8.7352 11.1913 8.97196 11.2724 9.14107C11.3333 9.26283 11.3671 9.41843 11.455 9.5402C13.5578 10.2978 15.7216 10.9201 17.8515 11.5966C22.3006 13.0036 26.7903 14.4715 31.2597 15.8921C35.2829 17.1706 39.3398 18.3746 43.3495 19.7208C44.0527 19.9575 45.2968 20.2822 45.4997 21.121C45.5538 21.3443 45.2698 22.5551 45.1954 22.8324C45.0196 23.4953 44.6612 24.4694 44.1406 24.9227C43.9851 25.058 43.8904 25.0106 43.8025 25.2744C43.674 25.6532 43.5794 26.0523 43.4509 26.4379C41.2196 33.3377 38.8868 40.1766 36.5608 47.0494C36.5338 47.1035 36.4797 47.1238 36.4188 47.117C36.1686 47.0899 35.6345 46.8599 35.364 46.772C31.3747 45.4935 27.3921 44.1271 23.4027 42.7945C15.8838 40.2848 8.39874 37.667 0.812225 35.3467C0.433575 35.2318 0.365952 35.2318 0.467376 34.8191C0.954212 32.8033 1.6777 30.7401 2.29301 28.7581C3.84818 23.7456 5.48449 18.7873 7.16813 13.8221C7.21546 13.6395 7.01261 13.5921 6.91795 13.4568C6.72863 13.193 6.72862 12.0363 6.73539 11.6507C6.74891 10.5752 6.87061 9.49282 6.97204 8.41726C7.03965 7.71376 6.98557 7.02378 7.44536 6.43527C7.45888 6.41498 7.49945 6.40821 7.51973 6.38791C7.60087 6.28645 7.54001 5.71823 7.54678 5.54235C7.5603 5.02148 7.49268 4.29768 7.96599 3.97975C8.6692 3.50624 9.87277 3.49274 10.7044 3.41833C17.2294 2.83658 23.7543 2.33598 30.259 1.78129C35.1882 1.36189 40.1107 0.888371 45.0399 0.509559C45.3441 0.482501 45.8918 0.408095 46.1691 0.428388C46.2164 0.428388 46.3787 0.482501 46.426 0.509559L46.4395 0.502829ZM46.2434 0.726028L45.0737 0.807199C44.8438 0.847786 44.8708 1.0372 44.7964 1.19955C44.3569 2.1804 43.8836 3.20187 43.4036 4.18272C43.2278 4.54124 43.0317 5.05531 42.8085 5.37324C42.6733 5.56264 42.3826 5.58297 42.173 5.61679L42.2 5.65738L45.9865 5.44091C46.2367 5.35973 46.6424 5.4206 46.7438 5.12973C46.8452 4.83885 46.8655 4.26387 46.8723 3.94594C46.8925 3.2289 46.8452 1.3416 46.3719 0.81397C46.3313 0.766618 46.2637 0.786902 46.2502 0.719257L46.2434 0.726028ZM39.4683 2.44424C39.5765 2.21425 39.6644 1.97747 39.7658 1.74747C39.8267 1.61895 40.0904 1.31457 39.8537 1.26045C38.7381 1.34162 37.6427 1.43632 36.5338 1.54455C36.3512 1.56484 35.7359 1.55809 35.6142 1.63926C35.5533 1.75426 35.506 1.86926 35.4519 1.98426C34.8366 3.30334 34.2483 4.63593 33.5857 5.94825C33.5451 6.02266 33.4099 6.27291 33.4572 6.34056C33.5046 6.4082 33.8224 6.36086 33.9238 6.3541C34.9854 6.25263 36.1213 6.19851 37.1761 6.05646C37.4872 6.01587 37.5007 5.99559 37.663 5.73178C38.2918 4.72387 38.9544 3.50627 39.4751 2.44424H39.4683ZM30.5227 2.41715C30.57 2.30892 30.6917 2.05864 30.5227 2.03834L26.2223 2.4307L24.0789 7.24025C24.1262 7.26054 24.1736 7.2673 24.2277 7.27406C24.5725 7.29436 25.1337 7.17936 25.4988 7.14554C26.1615 7.08465 26.8512 7.0441 27.5206 6.96292C27.649 6.94939 28.0344 6.91555 28.1088 6.85467C28.3658 6.49615 28.5551 6.10382 28.7714 5.72501C29.3597 4.69004 30.0629 3.48595 30.5159 2.42392L30.5227 2.41715ZM21.5568 2.85009C21.5568 2.85009 21.3269 2.82305 21.2931 2.82305C20.5899 2.82305 19.7041 2.97187 18.9874 3.03275C18.575 3.06657 18.149 3.10037 17.7365 3.14096C17.5607 3.16125 17.128 3.14098 16.9927 3.24244C16.7967 3.47244 16.7426 3.79034 16.6141 4.06092C16.1543 5.02825 15.6607 5.95502 15.2009 6.92911C15.0657 7.21998 14.8696 7.60555 14.7682 7.88966C14.7614 7.91671 14.66 7.96404 14.7208 8.07904C14.8493 8.14668 14.9575 8.07907 15.0657 8.06554C16.2557 8.01819 17.6419 7.93699 18.8116 7.78817C18.9942 7.76788 19.1024 7.77464 19.2105 7.61229C19.4404 7.26053 19.623 6.69234 19.8461 6.32706C20.4006 5.29885 20.8739 4.25709 21.4081 3.21536C21.4081 3.15448 21.5839 2.88392 21.5636 2.85686L21.5568 2.85009ZM12.5571 3.60094C12.4827 3.51977 11.5699 3.66185 11.4077 3.67538C10.5827 3.74303 8.87881 3.74978 8.20941 4.16918C7.81724 4.4127 7.85105 4.91328 7.83753 5.31915C7.83077 5.58297 7.85105 5.85355 7.84429 6.12413L7.91191 6.2188C8.36494 6.32703 9.32508 6.04971 9.70373 6.32029C9.73754 6.34734 10.0283 6.73969 10.0553 6.78704C10.1635 6.96968 10.2244 7.15908 10.3393 7.33496C10.5151 7.59201 10.5827 7.18613 10.6503 7.07114C11.2318 5.99558 11.8133 4.94031 12.361 3.85123L12.5504 3.60771L12.5571 3.60094ZM9.57526 6.64497C9.5144 6.58409 9.4806 6.50969 9.37917 6.4894L7.84429 6.55703C7.25603 6.80055 7.33717 7.59199 7.28307 8.11963C7.1546 9.41841 7.02613 10.7172 7.03966 12.016C7.03966 12.4219 7.03289 12.8278 7.12079 13.2269C7.13431 13.2539 7.41154 13.4095 7.45211 13.4298C8.24322 13.7612 9.21014 13.998 10.0351 14.2618C10.86 14.5256 11.7119 14.8368 12.5639 15.0397C12.618 15.0533 12.6518 15.0938 12.7194 15.1074C13.0034 15.1547 13.0575 14.918 13.1116 14.688C13.1792 14.3971 13.1116 14.1265 13.0169 13.856C12.6788 12.9157 12.1988 11.8672 11.7863 10.9472C11.4144 10.1084 11.0087 9.28989 10.603 8.46462C10.3731 8.00464 9.93362 6.96966 9.58878 6.64497H9.57526ZM16.0596 16.1018L19.792 17.3396C19.9949 17.3126 19.8732 17.1164 19.8529 16.9946C19.7109 16.1897 19.5486 15.3915 19.4202 14.5865C19.3052 13.8559 19.2173 13.1254 19.1159 12.388C19.0821 12.3001 19.0347 12.273 18.9536 12.2392C18.7169 12.131 18.433 12.1039 18.1895 12.0228C17.1009 11.6778 16.0055 11.2516 14.9034 10.9743C14.8087 10.954 14.7344 10.8863 14.6262 10.9066C14.545 11.0487 14.6397 11.184 14.66 11.3193C14.9034 12.706 15.3564 14.1198 15.823 15.4524C15.8974 15.6688 15.9176 15.9056 16.0529 16.1018H16.0596ZM25.323 19.4569C19.8664 17.6643 14.4166 15.8988 8.91262 14.2618C8.87205 14.2483 8.83148 14.2618 8.78415 14.2483C8.38522 14.1265 7.9998 13.9845 7.60087 13.856L7.45211 13.8965C7.28984 14.3971 7.09375 14.8909 6.92471 15.3847C5.54534 19.3893 4.24712 23.421 2.97594 27.4729C2.25921 29.7593 1.52895 32.0457 0.906887 34.3592C0.859556 34.535 0.697269 34.8327 0.771646 34.995L36.3309 46.7517C36.3647 46.7382 36.4188 46.5961 36.4391 46.5555C36.6622 46.0211 36.8516 45.3177 37.0477 44.7562C38.6028 40.224 40.1107 35.6512 41.6253 31.0919C42.2203 29.2993 42.8694 27.4999 43.3833 25.6803C43.3968 25.6329 43.4441 25.5991 43.4509 25.5585C43.4644 25.4977 43.5117 25.2406 43.4982 25.2C43.4847 25.1662 43.4644 25.1594 43.4306 25.1527C42.3555 24.9227 41.3142 24.5574 40.2594 24.2462C35.2558 22.7648 30.2658 21.0872 25.3163 19.4569H25.323ZM23.8896 13.883C23.8896 13.883 23.8625 13.9371 23.8693 13.9642C24.1465 15.6553 24.5319 17.3194 24.985 18.9699C25.0458 19.0579 25.1608 19.1052 25.2554 19.1458C26.3238 19.599 27.622 19.829 28.7174 20.2755H28.8323L28.8526 20.0793C28.6227 18.9767 28.4198 17.8605 28.2576 16.7444C28.1967 16.325 28.1832 15.7297 28.0885 15.3374C28.0277 15.0871 27.8383 15.0871 27.6287 15.0194C26.4319 14.6136 25.2081 14.3024 24.0248 13.8695C23.991 13.8627 23.9234 13.8695 23.8963 13.883H23.8896ZM36.8448 17.9687C36.7907 17.9146 35.8306 17.6102 35.6751 17.5629C34.6811 17.2517 33.6804 16.9676 32.6932 16.6226C32.4836 16.582 32.5309 16.7715 32.5512 16.9067C32.6661 17.6914 32.8757 18.5099 33.038 19.2878C33.1868 19.9981 33.3017 20.7557 33.4843 21.4592C33.5046 21.5337 33.5857 21.8516 33.6195 21.8719C33.7209 21.8922 33.8427 21.9192 33.9373 21.9598C34.2957 22.1019 34.6743 22.2372 35.053 22.3589C35.8509 22.616 36.8313 22.9812 37.6224 23.1706C37.6697 23.1842 37.7238 23.1774 37.7711 23.191L37.8252 23.0557C37.6156 21.953 37.4331 20.8504 37.2235 19.7546C37.1356 19.2878 37.0476 18.8278 36.9462 18.3611C36.9192 18.2393 36.9462 18.077 36.838 17.962L36.8448 17.9687ZM44.2217 24.3815C44.7491 23.6712 45.1075 22.3589 45.2157 21.4728C45.2901 20.8843 44.7559 20.5528 44.2826 20.3431C43.39 19.9372 42.2879 19.7749 41.3683 19.3961H41.2737C41.2737 19.3961 41.2534 19.457 41.2466 19.484C41.2466 19.5178 41.3007 19.8425 41.3142 19.9237C41.4359 20.6069 41.6455 21.2834 41.7537 21.9734L42.4772 24.5506C42.5246 24.6386 42.9776 24.7806 43.0925 24.8077C43.5591 24.9227 43.8566 24.8415 44.1744 24.4762C44.1947 24.4492 44.1947 24.4153 44.2217 24.3815Z" fill="#6F7A58" stroke="#6F7A58" stroke-width="0.85" stroke-linecap="round" stroke-linejoin="round"/>
<path d="M8.23644 21.581C15.2212 23.9486 22.2397 26.3568 29.1839 28.7853C32.3551 29.8946 35.5195 31.0175 38.7042 32.1202L38.853 32.3095C38.8597 32.3637 38.7921 32.4651 38.7448 32.4854C38.6231 32.5463 37.6224 32.154 37.4263 32.0863C34.7081 31.1258 31.9967 30.1179 29.2515 29.2114C29.1907 29.1911 29.1433 29.1302 29.0689 29.1505C28.9878 29.1776 28.9946 29.2655 28.9608 29.3196C28.7647 29.6579 28.6362 30.2531 28.4942 30.6522C28.1156 31.721 27.7504 32.8033 27.3718 33.8654C27.3245 34.2104 27.0472 34.6636 27.0067 34.9883C27.0067 35.0289 26.9931 35.0627 27.0269 35.0965C27.0269 35.1033 27.1689 35.1912 27.1825 35.198C27.8857 35.5159 28.8255 35.6918 29.5558 35.9827C31.591 36.7673 33.7074 37.437 35.7629 38.1947C36.0063 38.2826 36.3444 38.3841 36.5676 38.4855C36.7366 38.5599 36.8515 38.6276 36.7569 38.8305C36.6487 38.9523 36.0266 38.702 35.8779 38.6479C34.9177 38.3232 33.9576 37.9512 32.9974 37.6129C24.3223 34.5554 15.6066 31.579 6.88412 28.5958C6.18092 28.3523 5.45066 28.1561 4.74745 27.9058C4.70688 27.8923 4.44994 27.7841 4.43642 27.7706C4.27414 27.6488 4.40937 27.3917 4.63927 27.4526C4.65955 27.4526 4.65955 27.5 4.67983 27.5068C7.72932 28.4741 10.7247 29.5835 13.7674 30.5508C13.8621 30.5778 14.1867 30.7334 14.261 30.6455L14.545 29.9285C14.9034 28.8732 15.2685 27.8517 15.6336 26.7897C15.823 26.235 16.1543 25.4909 16.2625 24.9295C16.2895 24.8077 16.276 24.7401 16.161 24.6792C15.7621 24.483 15.0859 24.3409 14.6397 24.1854C12.4016 23.4142 10.1567 22.6363 7.91865 21.8719C7.48591 21.7231 6.98555 21.6217 6.56633 21.4322C6.49195 21.3984 6.41757 21.3713 6.41081 21.2766C6.39729 21.0196 6.57985 21.0399 6.76918 21.0872C7.20192 21.1887 7.77666 21.4322 8.21616 21.581H8.23644ZM25.438 27.8518C22.9767 26.9994 20.5155 26.1538 18.0408 25.3286C17.8244 25.2542 16.8642 24.8618 16.7155 24.9024L14.6329 30.7875C14.6397 30.8687 15.0251 30.9634 15.113 30.9972C16.2422 31.4234 17.4187 31.7684 18.5614 32.1675C21.097 33.0401 23.6326 33.9736 26.1817 34.8395C26.2899 34.8733 26.5063 34.968 26.601 34.9409C26.7159 34.9071 26.8241 34.3862 26.8714 34.2577C26.9323 34.0751 27.0337 33.8654 27.0946 33.6895C27.622 32.1607 28.102 30.6117 28.6294 29.0829L28.5618 28.9544C28.0885 28.7785 27.5949 28.6364 27.1216 28.4673C26.5604 28.2644 25.9924 28.0344 25.438 27.845V27.8518Z" fill="#6F7A58" stroke="#6F7A58" stroke-width="0.85" stroke-linecap="round" stroke-linejoin="round"/>
<path d="M11.6173 12.8277C11.7795 12.9698 11.8539 13.1524 11.8133 13.3689C11.7728 13.6192 11.7322 13.626 11.5361 13.7342C11.5226 13.741 11.5226 13.7748 11.4955 13.7883C11.4482 13.8086 11.2183 13.8762 11.1642 13.8695C10.6909 13.8356 10.4881 13.2269 10.7788 12.8683C10.9208 12.6925 11.2318 12.618 11.4482 12.6924C11.5361 12.7263 11.5564 12.7669 11.6173 12.821V12.8277Z" fill="#6F7A58" stroke="#6F7A58" stroke-width="0.85" stroke-linecap="round" stroke-linejoin="round"/>
<path d="M8.62863 11.9212C8.6692 11.9483 8.82471 12.131 8.85852 12.1851C9.00051 12.4286 8.98699 12.7533 8.73005 12.9156C8.51368 13.0577 8.31759 13.1186 8.07417 13.0036C8.06741 13.0036 7.9457 12.9089 7.93894 12.9021C7.89837 12.848 7.78342 12.5842 7.77666 12.5165C7.76314 12.3677 7.87133 12.0633 7.99304 11.9686C8.11474 11.8739 8.51368 11.8468 8.63539 11.9212H8.62863Z" fill="#6F7A58" stroke="#6F7A58" stroke-width="0.85" stroke-linecap="round" stroke-linejoin="round"/>
<path d="M9.18984 7.72736C9.34536 7.89647 9.46706 8.28881 9.31154 8.48498C9.25069 8.55939 8.93965 8.75555 8.84499 8.76908C8.50691 8.82996 8.18235 8.41733 8.22968 8.0994C8.27025 7.83558 8.47311 7.59204 8.74357 7.57174C8.89233 7.55822 9.08841 7.61235 9.18984 7.72059V7.72736Z" fill="#6F7A58" stroke="#6F7A58" stroke-width="0.85" stroke-linecap="round" stroke-linejoin="round"/>
<path d="M18.8386 28.3793C20.9415 29.0287 23.423 29.7187 25.4244 30.6184C25.6949 30.7401 25.9924 30.889 26.2291 31.0581C26.1006 31.0716 26.0059 30.9837 25.9113 30.9431C24.9985 30.6116 24.1533 30.2464 23.2337 29.9284C21.354 29.279 19.4269 28.7581 17.5472 28.1155C17.5201 28.0208 17.5066 27.9938 17.6013 28.0073C17.8717 28.0411 18.5411 28.2846 18.8386 28.3793Z" fill="#6F7A58" stroke="#6F7A58" stroke-width="0.85" stroke-linecap="round" stroke-linejoin="round"/>
<path d="M24.5995 28.6634C24.5995 28.6634 24.6131 28.6972 24.6333 28.704C25.3365 28.9611 26.06 29.191 26.7362 29.5022C26.628 29.5157 26.459 29.4751 26.344 29.4481C25.7017 29.279 25.0593 28.9746 24.4372 28.7513C24.0316 28.6093 23.6867 28.4808 23.3216 28.359C21.55 27.7502 19.7379 27.2564 17.9326 26.7558L17.9055 26.6611C18.0678 26.6138 18.2098 26.7152 18.3586 26.7491C20.4614 27.2835 22.5575 27.9193 24.6063 28.6567L24.5995 28.6634Z" fill="#6F7A58" stroke="#6F7A58" stroke-width="0.85" stroke-linecap="round" stroke-linejoin="round"/>
<path d="M22.4155 31.7142C23.3216 32.066 24.2479 32.438 25.1337 32.8507C25.2825 32.9183 25.4785 32.9521 25.6138 33.0604C25.6205 33.1348 25.5867 33.0874 25.5462 33.0739C25.1878 32.9657 24.8565 32.8169 24.5116 32.6816C22.2194 31.7954 19.8664 30.889 17.4999 30.0434C17.297 29.969 17.0806 29.8946 16.8643 29.854V29.712C17.4728 29.8811 18.0543 30.1314 18.6493 30.3411C19.8935 30.7875 21.1714 31.234 22.4155 31.7075V31.7142Z" fill="#6F7A58" stroke="#6F7A58" stroke-width="0.85" stroke-linecap="round" stroke-linejoin="round"/>
</svg>
