<svg width="30" height="39" viewBox="0 0 30 39" fill="none" xmlns="http://www.w3.org/2000/svg">
<path d="M29.0391 19.1694C28.9512 19.3182 29.0053 19.4941 28.9783 19.6497C28.9512 19.8391 28.8363 20.0759 28.8904 20.272L28.843 20.2585L28.7281 20.8267C28.6064 21.1514 28.5117 21.4423 28.4035 21.767C28.3832 21.8414 28.2886 21.8887 28.3427 21.9902H28.2751C28.248 22.0376 28.2412 22.227 28.2345 22.2405C28.106 22.4773 27.9911 22.7208 27.8829 22.9778L27.2338 24.5066C27.2811 24.5675 27.369 24.5337 27.4366 24.5472C27.4907 24.5607 27.6057 24.6013 27.6598 24.6216C27.8491 24.7096 28.1533 25.0072 27.9843 25.2237L28.0519 25.3116L28.0046 25.3386L28.106 25.3792C28.0857 25.4401 28.0519 25.4942 28.0452 25.5619C27.9708 26.3939 28.1534 27.3139 28.1804 28.1527C28.2345 30.0129 27.9032 31.9679 27.2473 33.7063C27.1526 33.9634 26.8889 34.4707 26.8416 34.6872C26.7605 35.0457 26.632 35.0525 26.4697 35.3298C26.3953 35.4584 26.4021 35.526 26.3615 35.6477C26.3345 35.7289 25.7936 36.2024 25.6921 36.2904C24.7996 37.048 23.88 37.6501 22.6968 37.8259C21.4053 38.0153 20.0665 37.8936 18.7682 37.853C16.3611 37.7786 13.9472 37.8733 11.8444 36.6016C11.8106 36.5813 11.7091 36.5813 11.6686 36.5474C11.6415 36.5271 11.6618 36.4866 11.6483 36.473C11.6348 36.4663 11.5536 36.473 11.5063 36.4527C11.4928 36.4527 11.4049 36.358 11.3846 36.3445C11.1074 36.1822 10.8031 35.9724 10.5732 35.7695C10.4718 35.6816 10.3906 35.5598 10.2757 35.4786L10.2892 35.4042C10.154 35.4313 10.2013 35.3636 10.1675 35.3231C9.68741 34.7819 9.43723 34.4707 9.13296 33.801C9.09915 33.7199 9.01126 33.4222 8.93688 33.4019C8.90308 33.3952 8.85573 33.4425 8.81516 33.4357C8.79488 33.4357 8.77461 33.3952 8.74756 33.4019C8.70023 33.4087 8.5988 33.4966 8.57175 33.4019C8.46357 33.4966 8.3013 33.4155 8.17959 33.4764L8.139 33.429L8.09843 33.5034C8.09167 33.4425 7.9294 33.4222 7.87531 33.429C7.8415 33.429 7.81446 33.4628 7.79417 33.4696C7.41552 33.544 6.99631 33.5913 6.63794 33.6049C6.06321 33.6184 5.49523 33.5846 4.96783 33.4966C4.8664 33.4763 4.87315 33.4628 4.8461 33.4561C4.79201 33.4425 4.73793 33.4628 4.67031 33.4357C4.63651 33.4222 4.64326 33.3817 4.63649 33.3817C4.62297 33.3817 4.42012 33.4019 4.33898 33.3817C4.31194 33.3749 4.31194 33.3207 4.2849 33.314C3.75749 33.1922 3.4735 33.0908 2.99343 32.8472C2.8582 32.7796 2.88524 32.7187 2.86496 32.6917C2.86496 32.6917 2.81763 32.739 2.72297 32.6714C2.68916 32.6443 2.4525 32.4684 2.44574 32.4549C2.41869 32.4143 2.42545 32.3467 2.41869 32.3467C2.41193 32.3399 2.35783 32.3467 2.33078 32.3399C2.3105 32.3331 2.19556 32.164 2.16851 32.1302C1.6073 31.4537 1.31655 30.6217 1.41122 29.7085C1.41122 29.6409 1.43149 29.58 1.48558 29.5326L1.4315 29.5056C1.58702 28.6668 2.05356 27.8821 2.70943 27.341C3.10161 27.0163 3.67635 26.6915 4.11586 26.5495C4.42689 26.448 4.74468 26.3533 5.06248 26.2586L5.9753 26.1301L5.96178 26.1774C6.28634 26.0624 6.65822 26.0692 7.00982 26.0557C7.16534 26.0557 7.32087 26.0286 7.48314 26.0286C7.69952 26.0286 7.92263 26.0625 8.139 26.103V25.5483C8.139 25.5078 8.20663 25.3522 8.19987 25.3386C7.83475 24.9869 7.9835 24.5743 8.32158 24.2766C8.48385 24.1278 8.67993 23.9925 8.90306 23.979L8.8287 22.8899C8.55823 22.9575 8.281 23.059 7.99701 23.0861C7.91587 23.0928 7.82797 23.0996 7.74684 23.1064C7.6995 23.1064 7.67246 23.059 7.62513 23.0658C7.57104 23.0658 7.34789 23.1469 7.25323 23.1402L7.2262 23.0928C6.2931 23.1943 5.26532 23.0793 4.37955 22.9914L4.35927 22.944C4.18346 22.9508 3.50054 22.8628 3.34503 22.7884C3.31122 22.7681 3.31122 22.7208 3.28417 22.7208C3.25037 22.7208 3.20305 22.7411 3.16924 22.7411C3.02724 22.7275 2.87849 22.6125 2.77031 22.5719C2.68917 22.5381 2.56744 22.5449 2.47954 22.5043L2.52688 22.457L2.41194 22.4773L2.38489 22.457V22.4096H2.24965L2.2767 22.3352C2.18204 22.3217 2.10766 22.342 2.01976 22.2811C1.96566 22.2405 1.88453 22.1526 1.83043 22.1255C1.72225 22.0714 1.70873 22.0714 1.60054 21.997C1.52616 21.9496 1.43151 21.9699 1.45855 21.8414C1.32332 21.8752 1.37065 21.7873 1.33008 21.7467C1.31656 21.7332 1.26923 21.7332 1.24894 21.7197C1.19485 21.6655 1.1678 21.5911 1.09342 21.564L1.1137 21.4964C1.03257 21.5032 0.937912 21.3746 0.89058 21.3138C0.795918 21.1785 0.640386 20.8808 0.579532 20.7388C0.329353 20.157 0.410497 19.2776 0.626868 18.7229C1.18132 17.3024 2.892 16.1727 4.35927 15.821C5.5155 15.5436 7.96996 15.3475 9.09239 15.7128C9.11943 15.7195 9.13973 15.794 9.2682 15.7601C9.41019 15.3813 9.54543 14.8875 9.84971 14.6102C9.99846 14.4749 10.1607 14.3666 10.3433 14.2922C10.5259 14.2178 10.8775 14.1163 11.0465 14.1299C11.06 14.1299 11.0465 14.0893 11.0736 14.0825C11.1074 14.069 11.1547 14.0825 11.1953 14.0555L11.2088 14.1028H11.2358C11.2358 13.9946 11.3373 14.0555 11.3913 14.0487C11.6212 14.0081 11.8511 13.9404 12.0945 13.9066C13.555 13.6969 15.0629 13.8525 16.5166 14.0284L16.5302 14.0825H16.5572V14.0351H16.6045C16.5978 14.1163 16.6451 14.0555 16.7127 14.0622C16.8209 14.0758 16.8547 14.1299 16.8615 14.1299C16.9359 14.1299 17.1049 14.0555 17.1252 14.184L17.1522 14.1366C17.2198 14.096 17.3077 14.2043 17.3145 14.2043C17.4159 14.2246 17.612 14.2246 17.6999 14.2246C17.7337 14.3057 17.8825 14.2246 17.9974 14.299C18.0177 14.3125 18.011 14.3463 18.0177 14.3463C18.0245 14.3463 18.1191 14.3057 18.2476 14.3328C18.3287 14.3463 18.5519 14.3802 18.5181 14.4749C18.5857 14.5019 18.5586 14.4275 18.5857 14.4275C18.7006 14.4004 18.8967 14.4884 19.0049 14.5222C19.0455 14.5357 19.0725 14.4681 19.1063 14.556L19.2416 14.529L19.2145 14.6034C19.2618 14.6169 19.2821 14.556 19.3024 14.556C19.3227 14.556 19.3903 14.6643 19.485 14.5966V14.4005L19.5594 14.4275C19.5864 14.3599 19.512 14.3531 19.512 14.3396C19.4985 14.2516 19.5729 14.1637 19.5594 14.0757L19.6337 14.0622L19.5594 14.0013L19.6067 13.9743C19.5661 13.8999 19.5932 13.7375 19.6067 13.6563C19.627 13.5684 19.6743 13.5414 19.7013 13.467L19.627 13.494L19.654 13.3181L19.6067 13.3452C19.5323 12.9055 19.37 12.4929 19.201 12.0802C19.086 11.8097 18.8562 11.4443 18.8021 11.167C18.7953 11.1264 18.8021 11.1061 18.8156 11.0656L18.7412 11.052C18.7547 10.8761 18.6601 10.7138 18.6195 10.5515C18.5992 10.4567 18.5857 10.3079 18.5586 10.1929C18.5248 9.99674 18.4437 9.76676 18.491 9.56382C18.4437 9.57735 18.4369 9.40149 18.4437 9.36766C18.4437 9.34737 18.5113 9.36765 18.4978 9.31354L18.4504 9.32708C18.4504 9.32708 18.4234 8.88739 18.4234 8.81974C18.4302 7.5886 18.9373 6.16127 19.4174 5.03837C19.5391 4.74749 19.6946 4.40249 19.8636 4.09809C19.9177 3.99662 19.9786 3.84783 20.0597 3.74636C20.1408 3.6449 20.1882 3.72605 20.222 3.72605C20.2423 3.72605 20.3031 3.65841 20.3572 3.68547C20.3302 3.75988 20.4248 3.76666 20.4316 3.79372C20.4384 3.82078 20.391 3.98986 20.4316 4.05751C19.9786 5.25482 19.0928 6.69567 19.1131 8.00122C19.1131 8.30562 19.1942 8.41386 19.2618 8.67767C19.3971 9.17148 19.4106 9.62471 19.5932 10.1253C19.8433 10.822 20.1206 11.4376 20.2558 12.1952C20.4113 13.0543 20.3505 13.9269 20.0665 14.7522C20.1003 14.7522 20.1409 14.7454 20.1747 14.7522C20.2017 14.7522 20.2288 14.786 20.3167 14.8063C20.4046 14.8266 21.0063 14.9213 21.0266 14.9552C21.0402 14.9687 21.0266 15.0025 21.0266 15.0228H21.0537L21.0672 14.9687C21.1957 15.0025 21.3241 15.0431 21.4459 15.0769C21.6081 15.1175 21.7028 15.1513 21.8312 15.1648C21.9191 15.1716 21.9259 15.2392 21.9327 15.2392C21.9733 15.2392 22.0138 15.2054 22.0747 15.2122C22.0882 15.2122 22.095 15.246 22.095 15.2528C22.1355 15.2731 22.1626 15.2528 22.2031 15.334C22.1355 15.2054 22.3316 15.2866 22.3722 15.3136C22.5209 15.4084 22.5209 15.3881 22.6697 15.4151C22.8252 15.4422 22.859 15.5436 22.9672 15.5098C23.0078 15.6045 23.0957 15.564 23.1836 15.5842C23.2106 15.591 23.1836 15.6519 23.2985 15.6045L23.3256 15.706C23.3594 15.6925 23.3932 15.6789 23.4338 15.6789C23.4608 15.6789 23.7989 15.7939 23.8259 15.8074C23.9544 15.8683 24.1167 15.9563 24.2451 16.0171C24.2519 16.0171 24.3601 16.0036 24.3872 16.0239L24.3601 16.0984C24.4074 16.1051 24.4548 16.0645 24.4953 16.0713C24.5088 16.0713 24.5089 16.1051 24.5291 16.1186C24.59 16.1457 24.6509 16.1186 24.6576 16.2472L24.7185 16.1728C24.8402 16.1998 24.9145 16.281 25.0295 16.3216L25.0092 16.396C25.0498 16.3757 25.0633 16.3419 25.1174 16.3486C25.158 16.3486 25.4217 16.4636 25.3811 16.5448L25.4081 16.4974H25.442L25.5772 16.5516C25.5772 16.6733 25.5975 16.5786 25.6854 16.5989C25.7192 16.6057 26.064 16.7816 26.0776 16.8018C26.0978 16.8289 26.0978 16.8627 26.0978 16.8898L26.1249 16.8357L26.1722 16.8154C26.1452 16.9777 26.4089 16.8221 26.3953 17.0115C26.5373 16.9371 26.6049 17.113 26.7402 17.113L26.7131 17.1874L26.7875 17.1603C26.801 17.3633 27.058 17.113 27.085 17.3971H27.1594L27.1729 17.4309C27.227 17.343 27.3217 17.4309 27.3352 17.5053L27.4096 17.4851L27.3623 17.5595L27.4704 17.5324L27.4975 17.5798L27.5583 17.5595V17.6812L27.6665 17.6339C27.7409 17.6474 27.7409 17.7759 27.768 17.7827L27.7815 17.7354H27.8153C27.8626 17.7827 27.8964 17.8301 27.9776 17.8301V17.9518C28.1128 17.8909 28.0925 17.9653 28.1872 18.0262C28.2413 18.06 28.4373 18.1548 28.4711 18.2021C28.4779 18.2156 28.4576 18.2427 28.4509 18.2562L28.4847 18.29C28.5793 18.2292 28.559 18.29 28.5996 18.3239C28.7213 18.4321 28.6537 18.4118 28.6875 18.4659C28.7213 18.52 28.843 18.5268 28.7754 18.6621L28.9106 18.6891L29.0459 19.0612V19.21L29.0391 19.1694ZM19.4377 14.9822C19.343 14.9348 19.2483 14.9484 19.1604 14.9281C16.5437 14.3328 13.785 13.8661 11.1344 14.4749C10.9857 14.5087 10.6273 14.5966 10.4988 14.6642C10.4853 14.671 10.2757 14.8334 10.2622 14.8401C10.2283 14.8807 10.2284 14.9416 10.2284 14.9957C10.2419 15.2122 10.3974 15.3407 10.5529 15.4625C10.6678 15.5572 10.8098 15.6384 10.9315 15.706C10.9992 15.7398 11.0735 15.7804 11.1479 15.8007L11.1344 15.8683C11.1344 15.8683 11.2088 15.8413 11.2493 15.848C11.4184 15.8819 11.7024 16.0713 11.8579 16.1254C11.8985 16.1389 11.9999 16.1051 12.0405 16.166L12.0269 16.2133C12.1216 16.1795 12.3447 16.2336 12.4326 16.2877C12.4597 16.3013 12.4462 16.3351 12.4462 16.3621C12.5138 16.3757 12.48 16.3486 12.507 16.3148C12.5273 16.3554 12.5746 16.3486 12.6017 16.3621C12.6287 16.3757 12.5814 16.4027 12.5949 16.4095C12.6422 16.4501 12.649 16.3621 12.6558 16.3621C12.6828 16.3621 13.1156 16.4771 13.1426 16.4907C13.1832 16.511 13.1764 16.5516 13.1899 16.5583C13.2034 16.5651 13.3793 16.5042 13.4536 16.6057L14.2244 16.7613L14.2109 16.8086C14.4746 16.7951 14.8127 16.8966 15.0426 16.9439C15.3875 17.0183 15.7458 17.0792 16.0907 17.1603C16.138 17.1739 16.2732 17.2077 16.2597 17.2551L16.3205 17.2077C16.4017 17.2551 16.5504 17.201 16.5572 17.3092C16.6451 17.2145 16.6722 17.2956 16.7262 17.3024C16.8682 17.3227 17.017 17.3362 17.1657 17.3565L17.1793 17.4309C17.2199 17.4445 17.1928 17.3836 17.2198 17.3768C17.2604 17.3768 17.3416 17.3971 17.328 17.4513L17.4362 17.4039L17.4227 17.4783C17.4633 17.4918 17.4362 17.4377 17.4633 17.4309C17.5714 17.4039 17.6053 17.4986 17.6323 17.4986C17.6864 17.4986 17.7202 17.4918 17.8352 17.4986C18.0651 17.5324 18.322 17.5392 18.5248 17.6474L18.5519 17.5933L19.2889 17.7218L19.3024 17.7962C19.343 17.8097 19.3159 17.7557 19.343 17.7489C19.37 17.7489 19.4106 17.7489 19.4377 17.7489C19.5053 17.7489 19.7487 17.7827 19.8028 17.7962C19.8298 17.7962 19.8163 17.8436 19.8163 17.8436H19.8636L19.8907 17.7962V17.8707L20.1882 17.8436V17.918L20.4384 17.8909L20.391 17.9383L20.4789 17.9586L20.4925 17.9112H20.5398L20.5533 17.9586C20.6615 17.8909 20.6345 17.9856 20.6818 18.0127L20.7291 17.9383H20.7764L20.817 18.0127L20.9049 17.9653C20.9725 18.1006 20.9725 18.0059 21.0266 17.9992C21.0402 17.9992 21.0672 18.0262 21.0875 18.0262C21.1686 18.0262 21.2362 17.9789 21.2633 18.1074H21.2903C21.3241 17.9383 21.4729 18.1277 21.5946 18.0803L21.6352 18.1277L21.6487 18.0736C21.7231 18.0871 21.811 18.1277 21.8786 18.1412C21.9462 18.1547 22.1017 18.1074 22.1017 18.2021L22.1423 18.1547C22.9672 18.29 23.8057 18.378 24.6373 18.4659C24.7523 18.4795 24.9213 18.5133 25.0092 18.5268C25.1039 18.5403 25.3473 18.4794 25.3676 18.5809C25.3811 18.5877 25.4081 18.5403 25.4487 18.5403C25.6718 18.5403 25.9626 18.6012 26.1452 18.608C26.6117 18.6215 27.0918 18.6621 27.5516 18.6621C27.7882 18.6621 28.0249 18.6621 28.2548 18.608C27.9911 18.3374 27.6733 18.1412 27.3555 17.9383C25.3608 16.6801 22.7846 15.7195 20.4722 15.1919C20.2761 15.1445 20.0665 15.1175 19.8704 15.0634C19.7352 15.4084 19.5661 15.8481 19.3227 16.1389C19.2551 16.2201 18.9982 16.4433 18.9102 16.4636C18.8832 16.4636 18.7683 16.4772 18.7412 16.4704L18.6263 16.1524C18.7209 16.1727 18.6939 16.1051 18.7344 16.051C19.0725 15.6654 19.1266 15.6045 19.3295 15.1378C19.343 15.1039 19.4309 14.9822 19.4174 14.9619L19.4377 14.9822ZM9.94436 15.5166C9.91055 15.4828 9.89702 15.4151 9.83617 15.4286C9.80912 15.4557 9.76179 15.8278 9.64008 15.8278L9.68741 15.8548V15.8887C9.63332 15.9901 9.586 16.1322 9.55219 16.2472C9.52515 16.3419 9.3899 16.7545 9.3899 16.7815C9.3899 16.8695 9.39666 16.9168 9.3899 16.998C9.38314 17.0724 9.34933 17.1401 9.36962 17.2212L9.32228 17.2618C9.32228 17.2618 9.36285 17.2483 9.36962 17.2754C9.39666 17.3971 9.28172 17.6542 9.32905 17.7962L9.25468 17.8098C9.28173 17.8503 9.302 17.8639 9.30876 17.918C9.32229 18.0127 9.30876 18.29 9.28171 18.3847C9.28171 18.4118 9.22087 18.4118 9.20734 18.4388L9.28171 18.4659C9.28171 18.4659 9.25468 18.5336 9.25468 18.5674C9.24116 18.9868 9.18705 19.4874 9.20058 19.8526C9.20058 19.8729 9.18705 19.8864 9.18029 19.9067L9.22763 19.927C9.20058 20.5494 9.18029 21.2123 9.20058 21.8346C9.20058 21.9293 9.2682 22.1458 9.24791 22.227C9.24791 22.2541 9.17353 22.227 9.20058 22.2946L9.24791 22.2811C9.16001 22.4502 9.32229 22.5584 9.22763 22.7276L9.27496 22.7749C9.20059 22.8629 9.2682 22.8628 9.27496 22.9237C9.3223 23.3431 9.32229 23.7896 9.3561 24.2022C9.36286 24.3037 9.41696 24.4593 9.42372 24.554C9.42372 24.669 9.34933 24.669 9.34933 24.7637L9.39667 24.7366V24.7975C9.30877 24.811 9.30877 25.1019 9.2682 25.1289H9.17354C9.03831 24.9125 8.95716 24.669 8.94363 24.4119C8.7205 24.4119 8.36214 24.6757 8.48385 24.9328C8.48385 24.9463 8.6529 25.0951 8.66642 25.1019C9.05184 25.3251 10.1675 25.4536 10.6408 25.501C12.0607 25.6363 13.4942 25.6431 14.9209 25.7242C18.8629 25.9339 22.6426 26.3263 26.5509 25.4604C26.5914 25.4536 26.6388 25.4604 26.6793 25.4604C26.6523 25.4131 26.6185 25.3792 26.5982 25.3319C26.49 25.0681 26.5576 24.9125 26.6523 24.669C26.7672 24.3646 26.9227 24.0534 27.058 23.7355C27.1594 23.4919 27.2135 23.2011 27.3893 23.0049L27.342 22.9778C27.3961 22.8696 27.4704 22.7411 27.5178 22.6328C27.8626 21.8482 28.2277 20.8876 28.3968 20.0691C28.4238 19.9338 28.4171 19.7444 28.505 19.6294L28.4576 19.6091L28.532 19.0477C28.0046 19.1491 27.4637 19.095 26.9295 19.0815C24.7049 19.0206 22.4871 18.6959 20.2829 18.3509C18.0786 18.0059 15.996 17.6406 13.9405 17.1603C12.6963 16.8695 10.8437 16.4501 9.93084 15.5301L9.94436 15.5166ZM10.9113 15.7263V15.7534C10.9113 15.7534 10.9248 15.7398 10.9113 15.7263ZM7.34114 15.848C7.27352 15.8277 7.22619 15.8886 7.17886 15.8954C7.13153 15.9022 7.08419 15.8819 7.04362 15.8887C6.46889 15.9428 5.98206 15.9292 5.42761 15.9969C5.13686 16.0307 4.85286 16.0984 4.56887 16.1795C3.86567 16.3689 3.29769 16.5921 2.70943 16.9912C2.68915 17.0048 2.64183 17.0589 2.64183 17.0859L2.5945 17.0386C2.61478 17.1401 2.48632 17.1401 2.41194 17.1874C2.37137 17.2145 2.33079 17.2889 2.29698 17.3227C1.93186 17.6339 1.61405 17.9586 1.33683 18.3306C1.22188 18.493 0.98524 19.068 0.951432 19.2641C0.667445 20.82 1.79663 21.7805 3.14219 22.2202C4.77173 22.7479 6.41479 22.6667 8.09843 22.5855C8.33509 22.572 8.57175 22.5787 8.80164 22.5855L8.77459 21.1988L7.72655 21.2123C7.19915 21.1717 6.66498 21.1649 6.13757 21.0973C4.97457 20.9485 2.13471 20.3735 2.82439 18.6485C2.8582 18.5741 2.88525 18.4591 2.97991 18.4727L2.93258 18.4388C2.95962 18.3915 3.0137 18.378 3.04751 18.3441C3.0678 18.3238 3.13542 18.2089 3.1557 18.1886C3.88595 17.4377 5.06925 17.2415 6.0632 17.1401C6.17815 17.1265 6.32014 17.086 6.43508 17.0657V17.113L6.5365 17.0657L6.55679 17.113C6.59736 17.0927 6.64469 17.0724 6.68526 17.0724C6.82049 17.0724 7.10449 17.0724 7.2262 17.0859C7.27353 17.0859 7.26 17.1333 7.28028 17.1401C7.32085 17.1401 7.38171 17.113 7.44932 17.113C7.63865 17.1198 7.82121 17.1942 7.99701 17.2348C8.11872 17.2618 8.21338 17.2077 8.29452 17.3633H8.32834C8.32834 17.2686 8.57175 17.3633 8.6326 17.3904C8.64613 17.3971 8.65289 17.4242 8.67317 17.4377C8.74079 17.4715 8.82869 17.4648 8.8625 17.5662C8.94364 17.5324 8.84898 17.2483 8.97068 17.2416V17.2145C8.87602 17.2348 8.95716 17.0454 8.97068 16.9777C8.99097 16.8221 8.99773 16.6733 9.03154 16.5178C9.04506 16.4501 9.1803 16.0916 9.14649 16.051C9.07888 16.0239 9.0383 16.1186 9.01125 16.1186C8.99097 16.1186 8.69345 16.0036 8.60555 15.9833C8.42975 15.9495 8.19986 15.9631 8.04435 15.9292C8.02406 15.9292 8.03083 15.8819 8.02406 15.8819C8.01054 15.8751 7.99025 15.9157 7.95644 15.9225C7.86854 15.9428 7.70626 15.9089 7.61836 15.9089C7.58456 15.9089 7.544 15.936 7.52371 15.936C7.49667 15.936 7.49665 15.8683 7.46961 15.8616C7.44932 15.8616 7.34791 15.9495 7.28705 15.9089L7.33439 15.8616L7.34114 15.848ZM9.61304 15.8954V15.848H9.58599V15.8954H9.61304ZM24.7793 16.193H24.732V16.2201H24.7793V16.193ZM26.5035 16.9845V17.0115C26.5035 17.0115 26.517 16.998 26.5035 16.9845ZM4.86639 20.4073C5.02866 20.4547 5.2518 20.5223 5.37351 20.5494C5.41408 20.5561 5.50198 20.5426 5.56283 20.5629C5.59664 20.5764 5.6237 20.6238 5.64399 20.6238C5.65751 20.6238 5.68455 20.5832 5.71835 20.5832C5.85359 20.5764 5.98881 20.6576 6.06995 20.6711C6.11728 20.6779 6.19166 20.6373 6.25927 20.6509C6.28632 20.6576 6.27958 20.7185 6.34043 20.7253C6.40805 20.732 6.4351 20.6847 6.4689 20.6779C6.523 20.6711 6.61764 20.7185 6.68526 20.6914L6.6988 20.7658C6.77993 20.7929 6.75965 20.7185 6.80698 20.7117C6.92869 20.7049 7.05039 20.7388 7.15181 20.7388C7.23295 20.7388 7.30733 20.7523 7.38847 20.7388L7.37496 20.7862L7.57103 20.7388V20.7862L7.71304 20.7388C7.74684 20.82 7.94292 20.7388 8.03758 20.7388C8.11872 20.7388 8.1931 20.7388 8.27424 20.7388L8.24044 20.7862C8.40272 20.7253 8.57176 20.7456 8.74756 20.7388L8.84898 17.9924C8.76108 18.0195 8.76108 17.9653 8.72728 17.9451C7.42229 17.2145 4.82582 17.4242 3.66282 18.3441C3.51407 18.4659 3.20304 18.865 3.18952 19.0409C3.176 19.183 3.25036 19.4738 3.34503 19.5888C3.37207 19.6226 3.44645 19.6362 3.45321 19.6497C3.45321 19.6497 3.43294 19.6835 3.4397 19.6903C3.51408 19.7782 3.74397 19.9 3.8454 19.9609C3.88597 19.9879 3.88597 20.0353 3.97387 20.0218L3.94682 20.0691C3.99415 20.0691 4.0888 20.0691 4.12937 20.0962C4.16318 20.1165 4.14291 20.1773 4.18348 20.1909C4.21052 20.1976 4.30518 20.1638 4.36603 20.2044V20.2923L4.4066 20.2382L4.8123 20.3532C4.84611 20.3667 4.85964 20.387 4.85964 20.3938L4.8123 20.4073L4.85964 20.4479V20.4006L4.86639 20.4073ZM27.2 24.7907H27.1459C27.0445 24.9057 27.0647 25.1154 26.9092 25.1966L26.9566 25.2237C26.9025 25.359 26.7808 25.3387 26.7064 25.4334C26.9904 25.386 27.2541 25.2642 27.5245 25.1628C27.5651 25.1019 27.3758 24.9937 27.3284 24.9531C27.2879 24.9125 27.227 24.8516 27.2 24.7975V24.7907ZM27.5786 26.8674C27.6057 26.4683 27.4975 26.076 27.4772 25.6769C27.2946 25.7648 27.1053 25.8122 26.9092 25.8663C26.4224 25.9881 25.9017 26.0557 25.4081 26.1369C25.3338 26.1504 25.2661 26.1707 25.1918 26.1978L25.1647 26.1436C25.0768 26.218 24.9281 26.191 24.8402 26.2045C22.9943 26.5292 21.0672 26.4886 19.201 26.4142C19.0049 26.4075 18.8021 26.4142 18.606 26.4142L18.5857 26.3736C16.0433 26.2519 13.4333 26.1842 10.9113 25.9948C10.2148 25.9407 9.51839 25.8392 8.83546 25.6836C8.80842 25.7107 8.84898 25.758 8.84898 25.7919C8.84898 25.8324 8.80841 25.873 8.80164 25.9204C8.69346 26.7659 8.63261 27.5709 8.70022 28.4165C8.78136 29.4176 8.94364 30.4188 9.0383 31.4199C9.05859 31.6567 9.0383 31.9273 9.07887 32.1573C9.10592 32.3196 9.22762 32.5226 9.26143 32.6646C9.26819 32.6984 9.24115 32.7593 9.24791 32.7661C9.26144 32.7796 9.35609 32.7458 9.34933 32.9014L9.29525 32.9419H9.3899L9.444 33.0772L9.39667 33.1111C9.47105 33.1111 9.49134 33.1652 9.444 33.226H9.48457L9.51162 33.2734L9.46429 33.3005C9.4981 33.4019 9.53189 33.314 9.57922 33.3613C9.63332 33.5169 9.72798 33.6522 9.83617 33.774L9.78883 33.8349C9.88349 33.7943 9.98492 33.9769 9.93759 34.0581L10.039 34.0987L10.012 34.1799C10.1269 34.1799 10.2689 34.3963 10.2486 34.5045L10.2757 34.5249C10.3433 34.464 10.3974 34.6398 10.438 34.7142C10.465 34.7548 10.5326 34.7887 10.5597 34.8428L10.5123 34.9172C10.5935 35.0051 10.7287 35.0322 10.7828 35.1404L10.7355 35.1675L10.7625 35.2283C10.8977 35.1539 10.8775 35.2757 10.918 35.3231C10.9383 35.3434 11.1006 35.4178 11.1276 35.4584C11.1412 35.4854 11.1479 35.5936 11.1614 35.6004C11.1614 35.6004 11.202 35.5801 11.2223 35.5801C11.2967 35.5869 11.344 35.6545 11.3981 35.6951C11.4454 35.7357 11.5063 35.6951 11.4792 35.8236C11.5536 35.7763 11.6821 35.8642 11.7497 35.9116C12.2027 36.1957 12.676 36.4121 13.1899 36.5745C13.5077 36.6759 13.8931 36.7301 14.1501 36.8857C14.1974 36.9127 15.0494 37.0209 15.1508 37.0412C15.2252 37.0615 15.2793 37.0615 15.3401 37.0683C15.3875 37.0818 15.3875 37.1359 15.401 37.1359C15.4415 37.1359 15.4889 37.1089 15.543 37.1089C15.7526 37.1224 15.9825 37.2036 16.1921 37.2239C16.4355 37.2509 16.7803 37.2239 16.9764 37.3051C17.2807 37.2577 17.612 37.3592 17.9163 37.3051L17.9569 37.3795C17.9974 37.3524 18.011 37.3321 18.065 37.3253C18.1935 37.3118 18.4031 37.3456 18.5383 37.3456C19.1739 37.3456 19.8095 37.3254 20.4451 37.3118C20.4925 37.3118 20.5871 37.278 20.6412 37.278L20.6615 37.3253C20.7021 37.2171 20.8914 37.2848 20.9793 37.278C21.0334 37.278 21.0875 37.2509 21.1416 37.2442C21.3579 37.2239 21.5676 37.2171 21.7772 37.1562L21.838 37.2036C21.838 37.2036 21.838 37.163 21.8718 37.1495C22.0003 37.1021 22.2031 37.0886 22.3451 37.0548C23.143 36.8924 23.7854 36.6759 24.4886 36.2836C25.3067 35.8236 25.6177 35.4989 26.0167 34.6466C26.0911 34.4843 26.1654 34.234 26.2533 34.0649C26.2736 34.0243 26.3277 34.0107 26.3345 33.9904C26.3818 33.7943 26.3886 33.7063 26.4697 33.5372C26.4832 33.5102 26.4832 33.4831 26.4832 33.4561L26.5576 33.4696L26.5103 33.429C26.49 33.3343 26.5576 33.2599 26.5779 33.1787C26.6185 33.0164 26.659 32.7255 26.7199 32.5767C26.7402 32.5293 26.8281 32.4481 26.8281 32.4414C26.8281 32.4278 26.7943 32.4075 26.7875 32.3872C26.7672 32.2858 26.8484 32.1573 26.8754 32.0626C26.916 31.8867 26.9566 31.704 26.9971 31.5417C27.0647 31.2576 27.1323 30.9802 27.1797 30.6961L27.2541 30.6826C27.2744 30.6353 27.2067 30.6556 27.2067 30.6285C27.1864 30.5406 27.2338 30.412 27.3081 30.3579C27.2067 30.3241 27.2879 30.1212 27.3081 30.0332C27.3149 29.9859 27.3082 29.9047 27.3217 29.8641C27.342 29.8168 27.4028 29.7897 27.4096 29.7153C27.4096 29.6679 27.3622 29.6815 27.3555 29.6679C27.3555 29.6341 27.4028 29.1606 27.4096 29.0794C27.4299 28.89 27.4975 28.7141 27.484 28.5315C27.5583 28.5585 27.5583 28.4977 27.484 28.4842L27.5313 28.3827C27.5313 28.3827 27.4907 28.3827 27.484 28.3556C27.4434 28.2136 27.5583 28.0039 27.5583 27.8889C27.5583 27.8415 27.5042 27.8551 27.5042 27.8415C27.4907 27.5845 27.5989 27.1921 27.5786 26.9148V26.8877V26.8674ZM8.1052 26.4683C7.88883 26.5224 7.64541 26.4277 7.42904 26.421C6.73259 26.4074 5.84007 26.5765 5.15038 26.678C5.08277 26.6848 4.90696 26.7863 4.82582 26.7863L4.79202 26.7389C4.76497 26.8336 4.52832 26.8336 4.44042 26.8674C4.0212 27.0163 3.53436 27.2868 3.18275 27.5439C1.84396 28.5247 1.38416 30.2564 2.39164 31.677C3.04751 32.597 4.56213 33.0434 5.59665 33.1246C6.38776 33.1855 7.23296 33.1043 8.00378 32.9419L8.79488 32.8811L8.69346 32.6173L8.74079 32.5969C8.59204 32.2858 8.50413 31.934 8.41623 31.5958C7.88206 31.8258 7.28029 32.0423 6.69203 32.1099C6.40804 32.1437 6.13082 32.1234 5.85359 32.137C5.84007 32.137 5.84683 32.0964 5.82654 32.0896C5.12334 31.9273 4.74468 31.7378 4.46745 31.0276C3.85215 29.4582 5.02868 27.8618 6.61089 27.6386C6.93545 27.5912 7.47637 27.6183 7.7874 27.7062C7.8415 27.7198 7.96997 27.8212 8.02406 27.7739C8.08492 27.7197 8.00378 27.6183 8.00378 27.5912C8.00378 27.5709 8.07816 27.5912 8.05112 27.5303L8.00378 27.5439C8.00378 27.4762 7.97674 27.4153 8.05112 27.395V27.3477L8.00378 27.3206C8.0173 27.3071 8.03758 27.2936 8.03758 27.2733C8.07815 27.0095 8.0511 26.7321 8.09843 26.4683H8.1052ZM8.0173 28.89C7.9632 28.7615 8.00377 28.4706 7.99701 28.3285C7.88206 28.2203 7.74007 28.1933 7.59131 28.1594C7.24647 28.0783 6.75964 28.085 6.39451 28.1594C5.90768 28.2609 5.44789 28.6329 5.15038 29.0456C5.02867 29.2147 4.91372 29.4176 4.85287 29.6138C4.83259 29.6747 4.71087 30.0738 4.71763 30.0941C4.71763 30.1076 4.7582 30.1009 4.76497 30.1212C4.77849 30.1685 4.73791 30.297 4.73791 30.3376C4.73791 30.3512 4.85287 30.4188 4.76497 30.5406L4.8123 30.5676C4.76497 30.6691 4.88668 30.7976 4.92049 30.9329C4.93401 30.9803 4.90696 31.0479 4.91372 31.0479C4.91372 31.0547 4.98811 31.0479 5.00839 31.0817C5.03544 31.1155 5.05572 31.2305 5.1301 31.2982C5.17067 31.3388 5.2518 31.332 5.27209 31.4199L5.71835 31.5755L5.73187 31.6499C5.77244 31.6635 5.74539 31.6026 5.77244 31.5958C5.81301 31.5958 5.88739 31.6364 5.94825 31.6432C6.39451 31.6905 6.89488 31.6161 7.32762 31.5146C7.61161 31.447 7.93616 31.305 8.23367 31.2779C8.281 31.2779 8.32157 31.2982 8.36214 31.2982C8.30805 30.9397 8.22691 30.5812 8.16605 30.2159C8.09844 29.7694 8.03759 29.3568 8.06463 28.9036C8.06463 28.89 8.03083 28.8968 8.02406 28.89H8.0173ZM3.08133 32.7796H3.034V32.8066H3.08133V32.7796Z" fill="#6F7A58" stroke="#6F7A58" stroke-width="0.85" stroke-linecap="round" stroke-linejoin="round"/>
<path d="M27.5784 26.8875C27.5784 26.8875 27.565 26.8808 27.5516 26.8741L27.5784 26.8607V26.8875Z" fill="#6F7A58" stroke="#6F7A58" stroke-width="0.85" stroke-linecap="round" stroke-linejoin="round"/>
<path d="M15.6985 0.424988C15.712 0.587336 15.854 0.540004 15.9216 0.614414C15.9351 0.627943 16.0704 0.87144 16.0704 0.884969C16.0704 0.918792 16.0095 0.952611 16.023 0.96614C16.1312 0.945846 16.1921 1.1488 16.2123 1.23674C16.2191 1.28409 16.1921 1.31793 16.1988 1.34499C16.1988 1.36529 16.2462 1.36526 16.2664 1.40585C16.2867 1.44644 16.2935 1.54792 16.3205 1.59528C16.3679 1.67645 16.5166 1.73054 16.564 1.82525L16.5166 1.88614C16.6789 1.84556 16.6113 1.98761 16.618 2.0079C16.618 2.01466 16.6992 2.05523 16.7397 2.11611C16.8006 2.20405 16.8277 2.38672 16.8412 2.40025C16.8479 2.41378 16.9561 2.43405 16.9088 2.5017C16.902 2.51522 16.8547 2.48819 16.8615 2.52878L16.9629 2.54228C16.9832 2.67081 17.1049 2.80611 17.0643 2.93463L17.1116 2.96168L17.0914 3.0158C17.2198 3.04286 17.0914 3.07667 17.0914 3.08343C17.0643 3.17137 17.1522 3.13079 17.1793 3.17137C17.1928 3.19167 17.2198 3.34728 17.2063 3.36757C17.2063 3.37434 17.1657 3.36755 17.1657 3.38784C17.4768 4.44987 16.6721 6.35745 16.4287 7.48036C16.2597 8.27181 16.2665 8.84006 16.2732 9.62474C16.2732 9.63827 16.3205 9.63824 16.3341 9.6856C16.3679 9.80736 16.3949 9.96296 16.3949 10.0847L16.4423 10.0576C16.4423 10.1118 16.449 10.1388 16.3949 10.1321V10.1591C16.3949 10.1591 16.4558 10.1524 16.4625 10.1591C16.4693 10.1659 16.5099 10.4297 16.564 10.4635L16.4896 10.4906L16.5166 10.5515L16.564 10.5041C16.6113 10.5582 16.591 10.7138 16.591 10.7206C16.6045 10.7476 16.6857 10.7679 16.7059 10.8897L16.6586 10.9371L16.7803 11.0453L16.7059 11.0723H16.8006L16.8682 11.3429L16.8209 11.3699C16.9291 11.3023 17.0373 11.5526 16.9967 11.6338L17.0711 11.6202L17.0575 11.9179L16.8818 12.0397C16.7465 11.9923 16.733 12.0194 16.6248 11.9044C16.1921 11.4376 15.712 10.5447 15.5159 9.94265C14.9817 8.30564 15.7931 6.8445 16.1447 5.28867C16.4152 4.09811 16.2529 3.23226 15.9554 2.07553C15.8269 1.58848 15.6849 1.12851 15.4348 0.688813C15.4145 0.648226 15.4686 0.533217 15.4956 0.506159C15.5024 0.499394 15.6173 0.458817 15.6309 0.431759H15.6782L15.6985 0.424988Z" fill="#6F7A58" stroke="#6F7A58" stroke-width="0.85" stroke-linecap="round" stroke-linejoin="round"/>
<path d="M22.8861 2.05527C23.5825 3.61787 23.8124 5.27516 23.1971 6.94599C23.0821 7.26392 22.8252 7.71038 22.7441 8.00125C22.7238 8.07566 22.7643 8.19066 22.6832 8.17714L22.7238 8.20418L22.7441 8.35302C22.5683 8.79271 22.3857 9.17828 22.3316 9.65179C22.2505 10.3485 22.3046 11.0723 22.5953 11.715L22.974 12.1749C22.8861 12.2764 22.9604 12.3711 22.8387 12.4591C22.8387 12.4253 22.717 12.3779 22.6764 12.3711C22.6291 12.3644 22.5818 12.3982 22.5547 12.3779C22.5547 12.3779 22.4871 12.2899 22.4668 12.2697C22.4398 12.2426 22.406 12.2493 22.3789 12.2155C22.3181 12.1411 22.3992 12.1817 22.406 12.1344H22.3113C22.3249 12.0329 22.264 12.0397 22.2437 11.9923C22.149 11.8232 22.0949 11.5932 22.007 11.4376C21.98 11.3835 21.9327 11.3767 21.9191 11.3429C21.8853 11.2753 21.9665 11.2279 21.8515 11.2347C21.8448 11.14 21.7772 11.0791 21.7434 11.0047C21.3241 9.98325 21.3512 9.27973 21.7028 8.23799C22.1085 7.0542 22.9604 5.97191 22.9604 4.66636C22.9604 3.61786 22.548 2.637 22.2572 1.65614C22.2437 1.60203 22.1761 1.41941 22.1896 1.37882C22.1964 1.35852 22.291 1.31114 22.2843 1.22321L22.3722 1.23675L22.3925 1.18939C22.4533 1.24351 22.5683 1.27056 22.6156 1.31115C22.6629 1.35174 22.8387 1.85232 22.8861 1.96056C22.8996 1.99438 22.8793 2.03497 22.8861 2.0485V2.05527Z" fill="#6F7A58" stroke="#6F7A58" stroke-width="0.85" stroke-linecap="round" stroke-linejoin="round"/>
<path d="M10.3095 29.0727C10.3162 29.1268 10.296 29.2012 10.3095 29.2553C10.323 29.2891 10.3771 29.2891 10.3839 29.3094C10.3974 29.3568 10.3703 29.4244 10.3839 29.4785C10.3974 29.5124 10.4447 29.5056 10.4515 29.5394C10.4853 29.6477 10.4718 29.8574 10.492 29.9791C10.5056 30.0671 10.5732 30.2024 10.5799 30.3038L10.5326 30.3512C10.5326 30.3512 10.5867 30.3985 10.6002 30.4324C10.7219 30.7435 10.776 31.1291 10.9113 31.4605C10.9383 31.5282 10.9924 31.5823 11.0194 31.65C11.4387 32.5835 11.8985 33.1652 12.5611 33.9228C12.5949 33.9634 12.5611 34.0311 12.6558 34.0108L12.6287 34.0581H12.7031C12.6828 34.1867 12.7369 34.1393 12.8045 34.1934C12.8451 34.2272 12.8248 34.2746 12.8518 34.2949C13.0209 34.4302 13.1764 34.5722 13.3387 34.7008C13.3725 34.7278 13.4063 34.7413 13.4401 34.7616L13.4198 34.809C13.6024 34.8699 13.7782 35.039 13.9202 35.1472L14.7451 35.5598C14.806 35.7289 14.7992 35.8643 14.7045 36.0131C14.6166 35.9522 14.5423 35.986 14.4746 35.9725C14.3259 35.9386 14.1906 35.8372 14.0487 35.7763C13.5618 35.5598 13.0344 35.3366 12.6017 35.0796C12.5273 35.0322 12.3244 34.8225 12.2568 34.7684C10.8639 33.747 9.76179 31.2441 9.90379 29.4853C9.93083 29.1809 9.94435 29.0186 10.296 29.0997L10.3095 29.0727Z" fill="#6F7A58" stroke="#6F7A58" stroke-width="0.85" stroke-linecap="round" stroke-linejoin="round"/>
<path d="M11.4116 22.3082C11.4116 22.3082 11.3575 22.2946 11.3711 22.3352C11.4319 22.3285 11.4454 22.43 11.4589 22.4841C11.5333 22.7682 11.5806 23.1132 11.6685 23.3905C11.7497 23.6543 11.9255 23.9384 12.0675 24.1549C12.1148 24.2293 12.1622 24.3037 12.2163 24.3781L12.1689 24.4119H12.2433C12.1689 24.554 12.4394 24.6825 12.3244 24.811C12.1621 24.8313 12.0404 24.7772 11.9187 24.6758C11.8782 24.6419 11.8443 24.5675 11.8376 24.5675C11.8105 24.554 11.7294 24.5946 11.6821 24.5946C11.6009 24.5946 11.3778 24.324 11.2967 24.2564C11.2764 24.2361 11.2764 24.2022 11.2629 24.1819C10.3906 23.032 10.3703 20.935 10.9721 19.67C11.0194 19.5753 10.9992 19.44 11.1479 19.4671C11.0532 19.3859 11.1479 19.2912 11.229 19.2371C11.344 19.1559 11.3508 19.2303 11.4454 19.2574C11.486 19.2709 11.5333 19.2439 11.5604 19.2642C11.5942 19.2912 11.6212 19.4536 11.6212 19.5009C11.6212 19.8324 11.4792 20.3465 11.4387 20.705C11.3846 21.1853 11.3508 21.7332 11.4184 22.1999C11.4184 22.2338 11.4319 22.2811 11.4184 22.3082H11.4116Z" fill="#6F7A58" stroke="#6F7A58" stroke-width="0.85" stroke-linecap="round" stroke-linejoin="round"/>
</svg>
