<svg width="17" height="36" viewBox="0 0 17 36" fill="none" xmlns="http://www.w3.org/2000/svg">
<path d="M9.56 34.924H9.57338" stroke="#6F7A58" stroke-width="0.85" stroke-linecap="round" stroke-linejoin="round"/>
<path d="M0.425049 32.482C0.458857 32.4887 0.445319 32.4617 0.45208 32.4414C0.49265 32.1573 0.567039 31.8529 0.675225 31.5687C0.709033 31.4808 0.749598 31.3861 0.796929 31.305C0.857783 31.1967 0.878076 31.0614 0.932169 30.9464C1.02007 30.7638 1.13501 30.5744 1.22291 30.3917C1.45281 29.9115 1.64211 29.4041 1.872 28.9238C1.89229 28.8765 1.91259 28.8359 1.97344 28.8494L1.9261 28.8224C1.9261 28.8224 1.94639 28.748 1.96667 28.7209C1.9802 28.7006 2.00724 28.7006 2.00724 28.6938C2.00724 28.6938 1.99371 28.6668 2.00047 28.6465C2.02076 28.5382 2.18983 28.2406 2.24392 28.1121C2.37239 27.8009 2.50085 27.4492 2.60903 27.1312C2.69017 26.9012 2.76455 26.6171 2.85921 26.3804C2.86597 26.3601 2.8457 26.2857 2.91331 26.2992C2.91331 26.2789 2.87951 26.2857 2.87951 26.2722C2.87951 26.2654 2.90655 26.1774 2.91331 26.1571C2.94036 26.0692 2.98094 25.9678 3.00799 25.873C3.02151 25.8257 3.02149 25.7242 3.07559 25.7107L3.05528 25.6972C3.07557 25.616 3.10941 25.5416 3.12969 25.4672C3.35958 24.6487 3.5151 23.8234 3.72471 23.0117C3.76528 22.8561 3.78554 22.6531 3.81935 22.484C3.85315 22.2879 3.90051 22.0917 3.93432 21.8955C3.94785 21.8211 3.92756 21.7129 3.97489 21.652L3.95459 21.6317C3.95459 21.6317 3.97489 21.6317 3.97489 21.6249C3.98841 21.5843 3.97486 21.4829 3.98839 21.4355C3.98839 21.4355 4.04248 21.3949 3.98839 21.3746C4.10333 20.8402 4.08981 20.3126 4.15743 19.7918L4.13716 19.7782C4.13716 19.7241 4.17096 19.7106 4.17096 19.7038C4.17096 19.6835 4.14394 19.6632 4.1507 19.6227C4.1507 19.555 4.1642 19.4873 4.17096 19.4265C4.17096 19.3859 4.15744 19.3521 4.17096 19.3115L4.14393 19.298C4.1845 19.2912 4.15743 19.2438 4.15743 19.2168C4.17095 19.0679 4.17096 18.9259 4.17096 18.7839L4.19127 18.7703C4.14394 18.7433 4.19127 18.6756 4.19127 18.6688C4.19127 18.6688 4.17096 18.6689 4.17096 18.6621C4.1642 18.635 4.19125 18.5065 4.17096 18.4727L4.19127 18.4591C4.1507 18.4118 4.17098 18.3103 4.19127 18.263H4.16419L4.19127 18.0397H4.17096V18.0127H4.19127C4.15746 17.9586 4.16421 17.8909 4.17773 17.8436L4.1507 17.83C4.19127 17.8233 4.16419 17.7962 4.16419 17.7692C4.16419 17.6677 4.1507 17.5662 4.1507 17.458C4.1507 17.4107 4.16422 17.3633 4.1507 17.3159L4.17773 17.3024L4.14393 17.228L4.16419 17.2145C4.15743 17.1739 4.13041 17.0454 4.14393 17.0116C4.14393 16.998 4.17096 17.0116 4.17096 16.998C4.12363 16.9777 4.14393 16.8695 4.14393 16.8221H4.12363C4.12363 16.8221 4.15069 16.6598 4.14393 16.6395C4.12365 16.5583 4.13716 16.4636 4.13039 16.3689C4.13039 16.3486 4.11685 16.3283 4.11009 16.3148C4.11009 16.3148 4.13039 16.3148 4.13039 16.3013C4.13716 16.2674 4.0966 16.1728 4.14393 16.1592C4.13041 16.1254 4.00194 16.1321 3.97489 16.1321C3.96813 16.1321 3.96812 16.1119 3.96135 16.1119C3.9005 16.0983 3.83286 16.0984 3.77201 16.0848V16.051C3.77201 16.051 3.69764 16.0645 3.65707 16.0577C3.5827 16.0442 3.50831 16.0104 3.43393 16.0172L3.44747 15.9833C3.44747 15.9833 3.37987 16.0036 3.34607 15.9833C3.32578 15.9766 3.31902 15.9563 3.29873 15.9495C3.21759 15.9225 3.09585 15.9021 3.01471 15.8751C2.99443 15.8683 2.97417 15.8278 2.92008 15.848V15.8142C2.88627 15.8278 2.79835 15.8142 2.81187 15.7669L2.79161 15.7939V15.7736C2.75104 15.8007 2.7578 15.7669 2.74427 15.7601C2.69694 15.7398 2.66991 15.7601 2.66991 15.6857C2.66991 15.6857 2.61581 15.7128 2.582 15.6857C2.56848 15.6722 2.59551 15.6384 2.5279 15.6451C2.5279 15.6045 2.46029 15.5572 2.45353 15.5301C2.45353 15.5031 2.46702 15.4287 2.46702 15.4016C2.46702 15.3881 2.39941 15.2595 2.38589 15.2122C2.37237 15.1581 2.37239 15.0701 2.36563 15.0431C2.36563 15.0228 2.33183 15.0296 2.33183 15.0228C2.31154 14.9957 2.35886 14.9957 2.36563 14.9822C2.37239 14.9552 2.35886 14.8672 2.36563 14.8401C2.37239 14.7319 2.39268 14.5628 2.41296 14.4681C2.42649 14.4208 2.47379 14.3057 2.47379 14.2719C2.47379 14.2313 2.4603 14.1907 2.4603 14.1502C2.4603 14.0081 2.6361 13.7849 2.71047 13.6699C2.92008 13.352 3.14995 13.034 3.35956 12.7161C3.35956 12.7093 3.39336 12.7026 3.39336 12.6958C3.33927 12.6687 3.37309 12.662 3.36633 12.6281C3.33928 12.4793 3.29197 12.3237 3.25816 12.1749C3.2514 12.1411 3.25814 12.087 3.23786 12.0532C3.23786 12.0396 3.21759 12.0464 3.21759 12.0464C3.21759 12.0396 3.23786 12.0261 3.23786 12.0194C3.23786 12.0194 3.22432 11.972 3.22432 11.9585C3.22432 11.9449 3.19729 11.945 3.19729 11.9382C3.19729 11.9314 3.18377 11.7894 3.16349 11.7555C3.15673 11.742 3.14321 11.7285 3.12292 11.7285L3.14319 11.7149C3.14319 11.7149 3.12292 11.6947 3.12292 11.6811C3.10264 11.6338 3.08234 11.5255 3.06882 11.4782C3.06882 11.4714 3.07558 11.4511 3.06882 11.4511H3.03502C3.0553 11.397 3.01475 11.3632 3.00799 11.3226C3.00799 11.3023 3.00797 11.2617 2.99445 11.2414C2.98093 11.2144 2.98093 11.1873 2.95388 11.1738L2.98091 11.1332C2.93358 11.1332 2.95387 11.0926 2.94035 11.0655C2.94035 11.0655 2.91331 11.052 2.90655 11.025C2.88626 10.9708 2.88628 10.8829 2.83895 10.8558V10.8356L2.82541 10.822H2.84567C2.84567 10.822 2.83894 10.7814 2.83218 10.7747C2.82542 10.7544 2.7916 10.7206 2.78484 10.7138C2.78484 10.7138 2.78483 10.6664 2.77131 10.6326C2.71045 10.4973 2.66311 10.3011 2.5955 10.1726C2.58197 10.1523 2.59551 10.0982 2.56847 10.0644C2.55494 10.0441 2.53466 10.0441 2.5279 10.0374C2.52114 10.0238 2.55494 9.9156 2.48056 9.90884L2.50087 9.89529V9.86825L2.45353 9.83439H2.48056L2.44676 9.78704L2.47379 9.76677L2.42646 9.73972C2.48055 9.72619 2.41296 9.69913 2.41296 9.69237C2.41296 9.65854 2.41294 9.6247 2.39266 9.59088C2.39266 9.57735 2.36562 9.57737 2.35886 9.56384H2.38589C2.39265 9.52325 2.37914 9.54355 2.35886 9.53002L2.37239 9.50294L2.32506 9.48267L2.35209 9.46913C2.32504 9.42177 2.31154 9.36768 2.29126 9.32033C2.27773 9.29327 2.27094 9.25944 2.25742 9.23238C2.24389 9.1918 2.1898 9.17148 2.21685 9.12413C2.15599 9.12413 2.18982 9.11738 2.18982 9.09709C2.16277 8.96856 2.08838 8.83327 2.04781 8.71828C2.04781 8.70475 2.02078 8.69122 2.02078 8.67769C1.98021 8.56946 1.97344 8.44768 1.88554 8.35974C1.94639 8.33944 1.8923 8.33268 1.88554 8.31915C1.86525 8.27857 1.86526 8.18387 1.81117 8.1974C1.81117 8.1771 1.83144 8.19742 1.8382 8.17712C1.8382 8.13654 1.80439 8.12298 1.79086 8.10268C1.77058 8.05533 1.79089 7.97419 1.73003 7.96743L1.75706 7.94711C1.75706 7.94711 1.73004 7.87948 1.69623 7.87948L1.72327 7.8389C1.6827 7.81184 1.65564 7.75772 1.67593 7.71037H1.64213L1.66916 7.69006C1.64888 7.66976 1.65563 7.63593 1.62182 7.63593L1.64213 7.60889C1.62184 7.57506 1.59478 7.52772 1.58126 7.4939C1.57449 7.46684 1.60156 7.45331 1.56099 7.44655L1.57449 7.40596L1.55423 7.41946C1.55423 7.37887 1.55421 7.33829 1.54069 7.29771C1.51364 7.16918 1.47984 7.02714 1.46632 6.88508C1.44604 6.66862 1.44604 6.41831 1.55423 6.23567C1.83821 5.7351 2.52114 5.47131 3.03502 5.28867C3.21758 5.22102 3.38661 5.1669 3.57594 5.11278C3.65032 5.09249 3.72471 5.07219 3.80585 5.05866L3.71118 4.31458C3.74499 4.26723 3.71794 4.28753 3.71118 4.28076C3.68413 4.24694 3.69764 4.21987 3.69087 4.18605C3.69087 4.15899 3.65709 4.044 3.67061 4.02371C3.67061 4.02371 3.71793 4.03721 3.70441 3.99662H3.67061C3.67061 3.99662 3.66384 3.91546 3.65707 3.88164C3.64355 3.80723 3.6368 3.73281 3.63004 3.6584C3.63004 3.63811 3.603 3.61783 3.63004 3.59077C3.55566 3.6043 3.46774 3.62459 3.39336 3.63136C3.33927 3.63136 3.29195 3.62458 3.23786 3.62458C3.03501 3.63135 2.82542 3.68548 2.62257 3.63813C2.59552 3.63813 2.45351 3.57726 2.43323 3.56373C2.39266 3.52314 2.37915 3.40137 2.36563 3.34726C2.34534 3.25932 2.36563 3.29314 2.36563 3.21873C2.36563 3.13756 2.34535 3.04962 2.33183 2.96845C2.33183 2.96845 2.39944 2.94137 2.33183 2.90755L2.35886 2.89405L2.32506 2.87373C2.32506 2.87373 2.35886 2.81962 2.35886 2.79256C2.35886 2.77227 2.34532 2.75874 2.34532 2.74521C2.34532 2.58962 2.34532 2.43405 2.42646 2.292C2.48731 2.18377 2.62932 2.17699 2.73751 2.14993C2.75103 2.14993 2.77132 2.12966 2.78484 2.12966C2.85246 2.11613 2.92007 2.12289 2.98768 2.12966L3.00799 2.10257V2.13639C3.04856 2.11609 3.10938 2.08229 3.14319 2.07553C3.28518 2.062 3.44071 2.04847 3.58271 2.02817C3.63004 2.02817 3.67738 2.02816 3.71795 2.01463C3.72471 1.98081 3.7044 2.0011 3.69087 1.97404C3.64354 1.85228 3.64357 1.58849 3.63004 1.44643C3.63004 1.42614 3.60974 1.3788 3.60974 1.37203C3.60974 1.35174 3.63004 1.34494 3.63004 1.33818C3.63004 1.33818 3.60973 1.3382 3.60297 1.31791C3.58268 1.25703 3.60973 1.1826 3.60297 1.12848C3.60297 1.12172 3.58271 1.12851 3.58271 1.11498C3.57594 1.0541 3.54214 0.905271 3.54214 0.851155C3.54214 0.803803 3.57594 0.742929 3.57594 0.688813C3.60298 0.709107 3.59621 0.682036 3.60974 0.675271C3.65031 0.661742 3.63004 0.675286 3.67061 0.648228C3.68413 0.641463 3.70442 0.641444 3.71118 0.627915C3.73822 0.607621 3.71118 0.580552 3.71118 0.573787C3.7247 0.546729 3.81938 0.526465 3.85319 0.519701C3.94785 0.499407 4.06276 0.506173 4.15743 0.479115L4.54961 0.424988L4.56315 0.452031C4.73895 0.411444 4.98911 0.458789 5.09053 0.614372C5.09053 0.614372 5.11084 0.654971 5.1176 0.6685C5.18522 0.797026 5.21223 0.89852 5.21223 1.03381C5.21223 1.03381 5.24608 1.1082 5.24608 1.14202C5.25284 1.21643 5.2596 1.31113 5.24608 1.38554H5.26634C5.26634 1.38554 5.23931 1.38553 5.23931 1.41935C5.23931 1.43288 5.25958 1.40582 5.26634 1.41935V1.44643C5.21901 1.4532 5.27311 1.49378 5.27988 1.52761C5.27988 1.55466 5.27311 1.6223 5.27311 1.64936C5.27311 1.64936 5.30691 1.67644 5.30691 1.71026L5.27988 1.73053C5.27988 1.73053 5.30693 1.75759 5.32721 1.77112C5.44892 1.832 5.71938 1.7711 5.86813 1.75758C6.03717 1.74405 6.32793 1.73054 6.46992 1.82525C6.48345 1.83877 6.6119 2.0011 6.61866 2.01463C6.61866 2.04845 6.60512 2.07553 6.64569 2.0823V2.10257H6.61866L6.666 2.17697C6.60514 2.19726 6.666 2.21083 6.666 2.21083L6.63896 2.2311H6.67276C6.67953 2.27845 6.66598 2.26494 6.64569 2.292H6.67276L6.65923 2.34608C6.69304 2.36638 6.6863 2.46784 6.6863 2.5152C6.6863 2.58284 6.72686 2.6167 6.67276 2.67758H6.70656L6.67953 2.71816H6.70656L6.67953 2.74521C6.70658 2.74521 6.70656 2.79932 6.6998 2.82638C6.6998 2.86697 6.66598 2.92108 6.65246 2.95491C6.63217 2.99549 6.63218 2.98875 6.61189 3.0158C6.61189 3.0158 6.61866 3.02931 6.61866 3.03608C6.6119 3.04961 6.4902 3.12402 6.46316 3.12402L6.47665 3.14433C6.44284 3.14433 6.42256 3.16462 6.39551 3.17815C6.24676 3.23903 5.96279 3.21871 5.78023 3.239C5.71261 3.24577 5.57739 3.2796 5.53682 3.33372C5.5233 3.35401 5.53004 3.38109 5.51651 3.40139C5.50299 3.42168 5.47597 3.40137 5.50302 3.46901L5.47595 3.48929H5.50302V3.51637C5.44893 3.51637 5.53005 3.63813 5.48271 3.63813L5.50302 3.75988L5.47595 3.77343C5.50299 3.93577 5.53006 4.0846 5.53682 4.24695C5.53682 4.27401 5.57739 4.29426 5.53682 4.33485L5.58416 4.34839C5.58416 4.34839 5.59766 4.39575 5.56385 4.40252C5.5909 4.47693 5.63146 4.57837 5.64499 4.67307C5.64499 4.69337 5.63146 4.72045 5.64499 4.74074C5.64499 4.74074 5.67879 4.77456 5.68555 4.77456C5.7126 4.77456 5.83434 4.76102 5.88167 4.76102C6.22651 4.74749 6.5781 4.76102 6.92971 4.76779L6.9432 4.7881C7.0311 4.76104 7.11228 4.80837 7.19342 4.8016L7.20692 4.83546L7.24072 4.80837C7.25424 4.85572 7.27454 4.82192 7.30159 4.82192C7.34892 4.82192 7.40977 4.86248 7.47063 4.84219V4.87604L7.51796 4.8625V4.88277H7.545C7.545 4.83542 7.57205 4.87601 7.5991 4.88277C7.75462 4.9166 7.99805 4.99777 8.11976 5.09924C8.14004 5.11954 8.17382 5.10602 8.17382 5.16014C8.23467 5.14661 8.28879 5.26839 8.3226 5.30221C8.32936 5.30897 8.34963 5.30221 8.3564 5.30221C8.3564 5.30221 8.34287 5.32923 8.3564 5.34953C8.36992 5.39011 8.45107 5.42397 8.49164 5.42397C8.47811 5.44426 8.46456 5.55247 8.46456 5.57277C8.46456 5.58629 8.50517 5.58629 8.4984 5.60658C8.45784 5.76893 8.41724 5.9313 8.38343 6.09365C8.36314 6.17482 8.35638 6.25598 8.34286 6.33716C8.34286 6.35745 8.3226 6.35747 8.3226 6.35747C8.3226 6.371 8.33609 6.39127 8.33609 6.41833C8.33609 6.44539 8.3361 6.54008 8.30229 6.53331L8.3226 6.54686L8.30906 6.62803L8.28203 6.64834H8.30906C8.28878 6.73628 8.28202 6.81068 8.27526 6.89185C8.27526 6.93244 8.27526 7.0001 8.27526 7.03392C8.27526 7.04069 8.25499 7.03391 8.24823 7.06096C8.22794 7.32478 8.2144 7.60212 8.18736 7.85917C8.18736 7.89299 8.18735 7.98092 8.18059 8.01474C8.18059 8.02827 8.16708 8.02828 8.15356 8.02828C8.20765 8.06887 8.17382 8.05534 8.17382 8.10945C8.1603 8.2718 8.14678 8.45446 8.13325 8.63033C8.13325 8.69121 8.14679 8.78591 8.10622 8.83326C8.15355 8.84679 8.09268 8.90766 8.13325 8.94825C8.0724 8.96177 8.16707 9.09706 8.09945 9.11059L8.12648 9.1309L8.10622 9.14444C8.14003 9.23238 8.09271 9.35414 8.11976 9.44208H8.09945C8.11298 9.50973 8.11972 9.61793 8.08592 9.66528L8.11299 9.67882C8.07918 9.73294 8.11298 9.78028 8.09945 9.84117C8.09945 9.85469 8.08594 9.84794 8.07242 9.84794V9.86148C8.11299 9.84795 8.09945 9.99 8.05888 9.98323C8.11974 10.0915 8.07919 10.2335 8.07919 10.3553C8.07243 10.7814 8.06565 11.1941 8.05888 11.6202C8.05888 11.6946 8.05211 11.742 8.04535 11.8097C8.04535 11.8097 8.06565 11.8096 8.06565 11.8299C8.07241 11.9314 8.04538 12.0735 8.03862 12.1749C8.03862 12.202 8.06567 12.229 8.03862 12.2629C8.10624 12.2493 8.07241 12.2967 8.10622 12.2967V12.317H8.08592L8.11299 12.3373L8.09945 12.4252C8.09945 12.4252 8.13327 12.459 8.14679 12.4726C8.15355 12.4793 8.17384 12.4793 8.19412 12.4928C8.21441 12.5064 8.2347 12.547 8.24146 12.5537C8.24822 12.5537 8.27526 12.547 8.27526 12.5537C8.27526 12.5537 8.27527 12.5808 8.28203 12.5876C8.29555 12.5943 8.3226 12.5876 8.32936 12.6011C8.33613 12.6079 8.39698 12.689 8.41727 12.7161C8.51869 12.8175 8.6404 12.9326 8.75535 13.0408C8.78916 13.0746 8.86352 13.1084 8.87028 13.1558C8.9379 13.149 8.91086 13.1761 8.91762 13.1896C8.93114 13.2099 8.9582 13.2505 8.96496 13.2505C8.97172 13.2573 8.99876 13.2505 9.00553 13.2505C9.00553 13.2505 9.0055 13.2776 9.01902 13.2911C9.10016 13.3858 9.21513 13.4873 9.29627 13.582C9.35712 13.6496 9.32329 13.6293 9.35033 13.6969C9.3909 13.7984 9.43149 13.8999 9.45854 13.9878C9.53968 14.2922 9.52617 14.6575 9.42474 14.9619C9.32332 15.2663 9.0393 15.4557 8.76208 15.5978C8.56599 15.6992 8.3564 15.7804 8.15356 15.8413L8.14002 15.8548C8.18735 15.9833 8.21442 16.1254 8.24823 16.2539C8.74859 17.9924 9.30978 19.7241 10.04 21.3949C10.1617 21.6723 10.2699 21.9429 10.4187 22.2067C10.466 22.2879 10.4931 22.3961 10.5471 22.4976C11.2706 23.9384 12.1496 25.3184 13.0828 26.6307C13.2653 26.881 13.4344 27.1312 13.6102 27.3815C13.8401 27.6995 14.0835 28.0309 14.3269 28.3353C14.4554 28.4977 14.5906 28.6533 14.719 28.8089C14.8137 28.9239 14.9625 29.0726 15.0774 29.1944C15.0977 29.2147 15.1518 29.2418 15.1518 29.2485C15.1721 29.2756 15.1856 29.3094 15.2262 29.3432C15.2735 29.3906 15.3344 29.4379 15.3749 29.492C15.4088 29.5394 15.4763 29.6815 15.5237 29.7153C15.544 29.7356 15.5846 29.7288 15.5913 29.7356C15.6184 29.7627 15.5913 29.7424 15.6387 29.7762C15.6927 29.8168 15.6792 29.8235 15.7063 29.8574C15.7063 29.8574 15.7333 29.8709 15.7468 29.8844C15.8888 30.067 16.0173 30.3038 16.1255 30.5067C16.3554 30.9532 16.4636 31.2441 16.308 31.7446C16.2945 31.7987 16.2404 31.8596 16.2404 31.8664C16.2404 31.9205 16.2337 31.9138 16.1931 31.9746C16.1661 32.0152 16.0984 32.0828 16.0781 32.1167C16.0781 32.1167 16.0781 32.1573 16.0781 32.164C16.0781 32.164 16.0443 32.1437 16.0308 32.164L16.0579 32.1776L15.9159 32.3399L15.8956 32.3129C15.8956 32.3129 15.8821 32.3602 15.8753 32.367C15.8753 32.367 15.7739 32.4211 15.7401 32.4549C15.6995 32.4955 15.6725 32.509 15.6454 32.5428C15.6251 32.5631 15.6048 32.6173 15.5913 32.6308C15.544 32.6714 15.4628 32.712 15.4087 32.7593C15.3817 32.7796 15.3682 32.8473 15.3073 32.8134L15.2938 32.854H15.26C15.2735 32.9014 15.233 32.8743 15.2059 32.8946C15.1991 32.8946 15.1924 32.9284 15.1721 32.9487C15.1383 32.9826 15.0909 32.969 15.0707 32.9893C15.0504 33.0164 15.0369 33.0502 14.9895 33.0705C14.976 33.0705 14.9557 33.0637 14.9557 33.0705C14.9557 33.0705 14.9557 33.0975 14.9557 33.1043C14.949 33.1178 14.9016 33.1178 14.8881 33.1246C14.8746 33.1313 14.8881 33.1517 14.8814 33.1584C14.8678 33.1652 14.8475 33.1584 14.834 33.1652C14.8273 33.1652 14.8137 33.2058 14.7596 33.2396C14.7461 33.2464 14.6988 33.2802 14.692 33.2802C14.6853 33.2802 14.6717 33.2734 14.665 33.2734C14.665 33.2734 14.6312 33.3275 14.6244 33.341L14.6041 33.314C14.5771 33.3816 14.5297 33.3681 14.4892 33.3884C14.4824 33.3884 14.4351 33.4425 14.4283 33.4425C14.408 33.4425 14.3607 33.4222 14.3472 33.4763L14.3134 33.4628L14.2998 33.5034H14.2525C14.2593 33.5711 14.1849 33.5237 14.1781 33.5778L14.1579 33.5507C14.1579 33.5507 14.1511 33.5778 14.1376 33.5846C14.0699 33.6387 14.0091 33.6455 13.9415 33.6725C13.9415 33.6725 13.8941 33.7334 13.8874 33.7402C13.8874 33.7402 13.8671 33.7334 13.8536 33.7402C13.8198 33.7537 13.7995 33.7943 13.7589 33.7808L13.7724 33.801L13.7319 33.8281C13.7048 33.8213 13.6913 33.7875 13.6575 33.8213V33.8417L13.6304 33.8281L13.644 33.8619C13.6034 33.8416 13.5899 33.8822 13.5899 33.889C13.5696 33.889 13.5425 33.8754 13.5155 33.889L13.5425 33.9093C13.4682 33.916 13.4141 33.9702 13.3397 33.9905C13.2924 34.004 13.2383 34.0108 13.1842 34.0378C13.1369 34.0581 13.076 34.1122 13.0152 34.0919V34.1258C13.0152 34.1258 12.8123 34.1528 12.8123 34.2137L12.792 34.1866C12.792 34.1866 12.7514 34.2069 12.7379 34.2137C12.7176 34.2205 12.6973 34.2272 12.6973 34.2272C12.6973 34.2272 12.6906 34.2746 12.6433 34.234V34.2543C12.6433 34.2543 12.6162 34.2746 12.5959 34.2813C12.5554 34.2948 12.4945 34.2881 12.4675 34.2949C12.339 34.3287 12.2714 34.3828 12.1496 34.4031C12.055 34.4166 11.9806 34.464 11.9062 34.4842C11.8792 34.491 11.8319 34.464 11.8319 34.5113H11.8183C11.8183 34.4505 11.7575 34.5248 11.7304 34.5248C11.6222 34.5451 11.5141 34.5587 11.4059 34.579C11.4059 34.579 11.3856 34.6128 11.3653 34.6128L11.345 34.5857V34.606C11.3112 34.6195 11.2166 34.6196 11.1625 34.6331C11.1151 34.6399 11.034 34.6602 11.0069 34.6804H10.9867C10.9393 34.7075 10.8717 34.7007 10.8176 34.7278C10.7771 34.7481 10.7703 34.7278 10.75 34.7143C10.7432 34.7143 10.75 34.7345 10.7365 34.7345C10.723 34.7345 10.6756 34.721 10.6554 34.7481L10.6418 34.7278C10.6418 34.7278 10.5877 34.7413 10.5877 34.7751L10.5607 34.7481C10.5607 34.7481 10.4863 34.7819 10.466 34.7819C10.3308 34.8022 10.1617 34.8293 10.0468 34.836C9.97242 34.836 9.87101 34.8563 9.80339 34.8901L9.78985 34.8631L9.62758 34.8969C9.62758 34.8969 9.60728 34.8834 9.61404 34.8969C9.50586 34.924 9.39769 34.9172 9.2895 34.9442C9.2895 34.9442 9.22866 34.9983 9.21513 34.9442C9.13399 34.9713 9.03933 34.9578 8.96496 35.0051L8.95142 34.9848L8.70124 35.0457L8.68094 35.0187C8.64037 35.066 8.58628 35.0389 8.55247 35.0389C8.54571 35.0389 8.54573 35.066 8.53897 35.066C8.34965 35.066 8.14677 35.0998 7.95744 35.1066C7.61936 35.1134 7.22723 35.1945 6.89591 35.2284C6.87562 35.2284 6.85533 35.2148 6.8418 35.2216L6.8215 35.2486V35.2284L6.7336 35.2419L6.71333 35.269C6.71333 35.269 6.65925 35.2419 6.63896 35.2486C6.50373 35.2554 6.34145 35.2622 6.21298 35.2757C6.18593 35.2757 6.09124 35.2892 6.098 35.323H6.08451C6.08451 35.2757 6.05069 35.3095 6.0304 35.3095C5.92898 35.3095 5.85462 35.323 5.7532 35.3298C5.69234 35.3298 5.64498 35.3028 5.59088 35.3501L5.57739 35.3298C5.52329 35.3636 5.38806 35.3028 5.36778 35.3637H5.35424C5.35424 35.3637 5.28662 35.3366 5.26634 35.3366C5.11758 35.3366 4.96208 35.3569 4.81332 35.3501C4.79304 35.3501 4.76599 35.3433 4.77275 35.3772H4.61721C4.61721 35.3772 4.55639 35.3569 4.52935 35.3501C4.36707 35.3434 4.19123 35.3569 4.02895 35.3637L4.01546 35.3434C3.96137 35.3704 3.91401 35.3231 3.85991 35.3569L3.84642 35.3366C2.82542 35.2757 1.56777 34.8766 0.938937 34.0108C0.911891 33.9702 0.89159 33.889 0.837497 33.889C0.857782 33.8281 0.783407 33.7469 0.756361 33.6928C0.567036 33.2802 0.519708 33.0028 0.506185 32.5361C0.506185 32.5158 0.519682 32.4887 0.479112 32.4955V32.482H0.425049ZM7.07168 5.05189C7.07168 5.05189 7.03789 5.0722 7.01084 5.0722C6.85533 5.0722 6.65246 5.01806 6.48342 5.0113C6.28057 5.00454 6.02365 5.00454 5.82756 5.0113C5.78023 5.0113 5.73965 5.03161 5.69232 5.02484L5.71935 5.04516V5.0722L5.69232 5.09251H5.72612C5.70584 5.14663 5.73966 5.17367 5.73966 5.20073C5.75318 5.26161 5.75993 5.30896 5.76669 5.37661C5.76669 5.40367 5.787 5.4713 5.787 5.49159C5.787 5.50512 5.75992 5.49161 5.75992 5.51191H5.79376V5.63366L5.76669 5.62012V5.64044H5.79376H5.74643C5.74643 5.64044 5.7667 5.65395 5.77346 5.66748C5.78698 5.72159 5.75996 5.72158 5.7532 5.73511C5.59092 6.12745 4.94178 6.26277 4.54961 6.22894C4.5158 6.22894 4.48875 6.20862 4.45494 6.20186C4.40761 6.20186 4.43468 6.20862 4.39411 6.19509C4.20478 6.11391 4.08305 6.09364 3.99515 5.91776C3.96811 5.85688 3.91404 5.79598 3.89375 5.72834C3.86671 5.64716 3.8667 5.58632 3.84642 5.51191C3.84642 5.49161 3.80585 5.39687 3.80585 5.39011C3.80585 5.34952 3.85316 5.35633 3.78555 5.30221C3.77878 5.30897 3.77204 5.32248 3.75851 5.32248C3.72471 5.32925 3.63002 5.34954 3.60297 5.36307C3.59621 5.36307 3.58947 5.39688 3.58271 5.39688C3.58271 5.39688 3.56916 5.37661 3.5624 5.37661C3.55564 5.37661 3.54212 5.39012 3.5286 5.39688C3.38661 5.41718 3.19728 5.47807 3.06205 5.53895C3.035 5.55248 2.99446 5.55925 3.00122 5.58631L2.98091 5.56599C2.94711 5.59305 2.89978 5.59306 2.85921 5.61335C2.83216 5.62688 2.83217 5.64716 2.82541 5.64716C2.82541 5.64716 2.79835 5.63364 2.76454 5.64716C2.56845 5.70128 2.06811 5.99218 1.93287 6.141C1.91259 6.1613 1.80439 6.30332 1.79763 6.32362C1.79087 6.35067 1.82469 6.40479 1.76383 6.40479L1.79086 6.4251C1.72325 6.53333 1.81115 6.54688 1.872 6.61453C1.88552 6.62805 1.85849 6.6551 1.9261 6.64834L1.91257 6.68215L1.95318 6.6957L1.96667 6.66861L2.02078 6.6957L2.00724 6.72951C2.00724 6.72951 2.06132 6.71598 2.08161 6.72951C2.09513 6.73627 2.08162 6.75656 2.08838 6.76332C2.09514 6.77009 2.14923 6.76334 2.17628 6.77687C2.21685 6.79716 2.28447 6.86478 2.34532 6.83772C2.35208 6.87155 2.36562 6.8445 2.39943 6.85127C2.41971 6.85127 2.46706 6.87156 2.4603 6.89185L2.48056 6.87154V6.89862C2.54142 6.85127 2.58874 6.91889 2.5955 6.91889C2.62254 6.91889 2.66312 6.91889 2.69017 6.91889C2.71045 6.91889 2.70371 6.93921 2.71047 6.93921C2.8119 6.93921 2.83894 6.96626 2.91331 6.97302C3.29196 6.99332 3.67061 7.02039 4.04926 6.99334C4.08307 7.02716 4.1439 6.99334 4.19799 6.99334C4.87415 6.93246 5.55708 6.8783 6.19268 6.66184C6.23324 6.64831 6.29412 6.64834 6.34145 6.64834L6.32792 6.62803C6.32792 6.62803 6.39554 6.62805 6.42259 6.61453C6.82828 6.486 7.29483 6.3101 7.64644 6.08687C7.71405 6.04629 7.76815 5.96512 7.86281 5.96512L7.84251 5.93807C7.88984 5.88396 8.02506 5.78248 8.04535 5.71483C8.05887 5.66748 8.07239 5.52541 8.04535 5.48482C8.03859 5.47129 8.01831 5.48482 8.01155 5.47805C8.01155 5.47805 8.01153 5.45777 7.99801 5.44424C7.89659 5.34953 7.72082 5.27513 7.60587 5.23454C7.44359 5.17366 7.25425 5.14661 7.08521 5.11278L7.06495 5.07897L7.07168 5.05189ZM8.02508 6.18159C8.02508 6.18159 7.99805 6.18833 7.99128 6.20186C7.78844 6.35068 7.57882 6.48598 7.34892 6.59421C7.19341 6.66186 6.99733 6.71596 6.85534 6.79037C6.84182 6.79037 6.8418 6.80392 6.8418 6.81745L6.8215 6.79714C6.8215 6.83773 6.76065 6.81742 6.74036 6.83095C6.46314 6.91889 6.20622 7.00009 5.92224 7.06774C5.73967 7.10832 5.56384 7.12859 5.38127 7.16918C5.35423 7.17594 5.36101 7.16918 5.32044 7.17595C5.25283 7.18271 5.19195 7.20303 5.12433 7.20303L5.13787 7.22331C5.03644 7.22331 4.92828 7.23009 4.82686 7.24362C4.67134 7.25715 4.52255 7.27744 4.36703 7.2842C4.3197 7.2842 4.25886 7.29771 4.21153 7.30448L4.19799 7.2842C4.11009 7.31803 3.94784 7.31802 3.83965 7.31802C3.33253 7.32478 2.71045 7.27743 2.22362 7.14214C2.16276 7.12861 2.10866 7.088 2.04781 7.08124V7.04065C2.04781 7.04065 1.93961 7.04068 1.91257 7.02715C1.89905 7.02715 1.9126 7.0001 1.89907 6.99334C1.89907 6.98657 1.83145 6.97302 1.81117 6.96625C1.79088 6.95272 1.79765 6.93244 1.77737 6.93244C1.75032 6.96626 1.81793 7.1286 1.81117 7.13536H1.7503V7.16918H1.81794C1.86527 7.37888 1.95317 7.57506 2.02755 7.778C2.06135 7.8727 2.1222 8.00801 2.14925 8.08918C2.14925 8.10948 2.14249 8.12977 2.14925 8.13654C2.14925 8.13654 2.16953 8.13652 2.18305 8.15681C2.20333 8.19063 2.22364 8.29211 2.24392 8.33947C2.33858 8.58299 2.46028 8.92797 2.56847 9.1309C2.57523 9.15119 2.56847 9.17827 2.57523 9.1918C2.60228 9.27297 2.64959 9.36088 2.67663 9.415C2.7172 9.49617 2.77805 9.63146 2.75777 9.71264C2.77129 9.71264 2.78485 9.71264 2.79161 9.71941C2.81866 9.76 2.84569 9.88853 2.86598 9.94265C2.92007 10.0982 2.9877 10.2673 3.04855 10.4432C3.06884 10.4973 3.12966 10.565 3.10262 10.6191H3.13646C3.13646 10.6732 3.15673 10.7138 3.17026 10.7611C3.17026 10.7814 3.17023 10.7814 3.18375 10.8085C3.20404 10.8694 3.22435 10.9303 3.25816 10.9844L3.23786 11.0047V11.025C3.30547 11.025 3.27167 11.1467 3.28519 11.1535C3.28519 11.1535 3.31223 11.1535 3.31899 11.1603C3.3528 11.3023 3.4069 11.4376 3.44747 11.5796C3.45423 11.6067 3.43397 11.6473 3.47454 11.6405L3.45423 11.6608C3.50157 11.6608 3.4745 11.7149 3.48127 11.7352C3.48127 11.742 3.54214 11.769 3.50157 11.8164L3.5286 11.8299C3.50156 11.8773 3.52861 11.8638 3.53537 11.8773C3.5827 12.0464 3.61653 12.3711 3.68415 12.5132C3.69091 12.5334 3.74498 12.574 3.75175 12.5876C3.75851 12.6078 3.75176 12.6485 3.76528 12.6552C3.76528 12.662 3.87345 12.6958 3.83288 12.7364C3.87345 12.7364 3.8802 12.777 3.90725 12.804C3.95458 12.8514 4.08306 12.9326 4.08306 12.9867C5.16491 13.8525 6.68626 13.3316 7.61936 12.5876C7.63289 12.5808 7.63292 12.547 7.6532 12.5335C7.67349 12.5132 7.72081 12.5131 7.72757 12.4996C7.7411 12.4793 7.73434 12.4117 7.73434 12.3846C7.72758 12.2561 7.73435 12.114 7.70054 11.9923C7.74787 11.8299 7.7208 11.5797 7.7208 11.3835C7.7208 11.255 7.75463 11.0047 7.73434 10.8964C7.73434 10.8829 7.70727 10.8694 7.71404 10.8626H7.74111C7.74111 10.7882 7.72757 10.7206 7.72757 10.6529C7.72757 10.6123 7.76813 10.5379 7.71404 10.5244C7.76137 10.3282 7.74784 10.1118 7.74784 9.90206C7.74784 9.86148 7.78167 9.75999 7.73434 9.75322V9.73972C7.78167 9.73972 7.73433 9.64501 7.76814 9.60442L7.74111 9.59088L7.76814 9.57734L7.79517 8.58975H7.81548L7.7884 8.56944C7.81545 8.51532 7.82224 8.44093 7.82224 8.38005C7.86958 7.77801 7.88984 7.14214 7.97098 6.5604C7.97774 6.50628 7.97098 6.44537 8.01155 6.40479L7.98452 6.38451L8.01832 6.17482L8.02508 6.18159ZM7.95072 12.6958C7.95072 12.6958 7.9304 12.7229 7.91688 12.7296C7.87631 12.777 7.87634 12.8108 7.86281 12.8176C7.84929 12.8243 7.82223 12.8311 7.80871 12.8514C7.78166 12.8784 7.76138 12.919 7.72757 12.9393L7.70727 12.9123C7.70727 12.9123 7.68701 12.9529 7.6532 12.9461L7.687 12.9664C7.65996 13.0205 7.59233 12.9934 7.59233 12.9934C7.59233 12.9934 7.59232 13.034 7.5788 13.0475C7.56527 13.0678 7.43007 13.1287 7.39626 13.149C7.37598 13.1625 7.3692 13.1896 7.34216 13.2031C7.31511 13.2167 7.26103 13.2031 7.22722 13.2302L7.25425 13.264C7.17311 13.2302 7.15957 13.3114 7.11224 13.3181C7.09196 13.3181 7.06495 13.3046 7.06495 13.3114C7.06495 13.3114 7.06493 13.3452 7.04464 13.3587C7.02436 13.379 6.98379 13.3858 6.95674 13.3723L6.9432 13.4196C6.87559 13.4061 6.84855 13.4534 6.7877 13.4602L6.80124 13.4805C6.80124 13.4805 6.76742 13.4669 6.74713 13.4737C6.72685 13.4805 6.5916 13.5278 6.56455 13.5414C6.54427 13.5481 6.53078 13.5752 6.51726 13.5752C6.49698 13.5752 6.46316 13.5549 6.42259 13.5684C6.41583 13.5684 6.41581 13.5887 6.40228 13.5887C6.2062 13.6428 5.94251 13.6834 5.73966 13.7105C5.39482 13.7511 5.1852 13.7443 4.84712 13.6766C4.82008 13.6766 4.78626 13.6766 4.75245 13.6766C4.71864 13.6766 4.70515 13.6293 4.69839 13.6293C4.68486 13.6293 4.66457 13.6428 4.64428 13.636C4.61047 13.636 4.55639 13.5955 4.52258 13.5887L4.50904 13.609C4.50904 13.609 4.50904 13.5887 4.50227 13.582C4.45494 13.5481 4.33326 13.5143 4.2724 13.4805C4.11012 13.3993 3.94108 13.2708 3.80585 13.149C3.77204 13.122 3.71794 13.0205 3.67061 13.034C3.65709 13.034 3.63681 13.1355 3.58947 13.1287V13.1626C3.50157 13.264 3.4407 13.4061 3.35956 13.5346C3.33252 13.5752 3.27168 13.6361 3.25139 13.6699C3.23111 13.7037 3.21757 13.7646 3.19052 13.7984C3.177 13.8187 3.14995 13.8255 3.14319 13.8322C3.13642 13.8458 3.14319 13.8661 3.14319 13.8864C3.12966 13.9134 3.05531 13.9743 3.04179 13.9946C3.02826 14.0081 3.01475 14.0216 3.00799 14.0419L3.03502 14.0284C3.03502 14.0284 3.04855 14.0419 3.04179 14.0487C3.00798 14.1164 2.94035 14.1908 2.90655 14.2516C2.89978 14.2652 2.85922 14.3666 2.86598 14.3666C2.89979 14.3599 2.90652 14.3869 2.92681 14.4004C2.94033 14.4072 2.98092 14.4208 2.98768 14.4275C3.0012 14.4546 2.96066 14.4275 3.00799 14.4546C3.20407 14.5763 3.52861 14.6846 3.75175 14.7319C3.80584 14.7455 3.80586 14.7319 3.85319 14.7387C3.88699 14.7387 3.88699 14.7725 3.89375 14.7725C3.99518 14.7725 4.11689 14.8063 4.23183 14.8266C5.20551 14.9889 6.25355 14.9281 7.22722 14.6981C7.86281 14.5493 8.53897 14.3058 9.03932 13.8728C9.05285 13.8661 9.07989 13.8728 9.07989 13.8525C9.06637 13.8255 9.07989 13.7849 9.07989 13.7646C9.07989 13.7646 9.04609 13.6902 9.04609 13.6834C9.03933 13.6766 9.00551 13.6834 8.99199 13.6834C8.97847 13.6834 8.92437 13.5752 8.90408 13.5616C8.8838 13.5413 8.85001 13.5346 8.83649 13.5278C8.79592 13.4872 8.74181 13.4061 8.69448 13.3655C8.59981 13.2708 8.5119 13.2031 8.424 13.1152C8.39019 13.0814 8.39022 13.034 8.32936 13.0408V13.0205C8.2347 12.9123 8.09269 12.8176 7.97098 12.7026C7.95746 12.6958 7.95744 12.6755 7.95744 12.6755L7.95072 12.6958ZM9.17457 14.3869C9.16104 14.3396 9.20161 14.2448 9.1678 14.184C9.13399 14.2381 9.06634 14.2652 9.01225 14.3058C8.96492 14.3396 8.90409 14.3937 8.87028 14.4004C8.78238 14.4275 8.68094 14.5087 8.5998 14.556C8.44429 14.6372 8.29553 14.6913 8.13325 14.759C8.0724 14.786 8.01833 14.8401 7.94395 14.8266V14.8604C7.87633 14.8334 7.8087 14.8875 7.7546 14.901C7.30834 15.0228 6.8553 15.1175 6.39551 15.1716L6.05743 15.2122L6.03717 15.1919C5.98984 15.2393 5.87489 15.2122 5.8208 15.2257C5.80727 15.2257 5.80049 15.246 5.80049 15.2595H5.787C5.787 15.2595 5.69911 15.2257 5.67206 15.2257C5.55035 15.2257 5.40835 15.246 5.28664 15.246C5.01618 15.246 4.74571 15.2257 4.47524 15.1919L4.45494 15.2122C4.45494 15.1648 4.36031 15.1851 4.31974 15.1716C4.09661 15.1242 3.85319 15.0972 3.64358 15.0363C3.59625 15.0228 3.5286 15.0025 3.48803 15.0093V14.9822C3.48803 14.9822 3.45422 14.9822 3.4407 14.9822C3.28518 14.9349 3.06208 14.8604 2.92008 14.786C2.86599 14.759 2.80513 14.7116 2.75104 14.6846C2.75104 14.7252 2.73751 14.759 2.73751 14.7996C2.73751 14.8943 2.75101 15.0363 2.75777 15.131C2.75777 15.219 2.75779 15.3069 2.77807 15.3881C2.83893 15.4151 2.8998 15.4354 2.96065 15.4625C3.0215 15.4895 3.1094 15.5301 3.17026 15.5572C3.23111 15.5842 3.28518 15.5978 3.35956 15.6181C3.53536 15.6722 3.71795 15.7195 3.88699 15.7533C3.9546 15.7669 4.04247 15.8007 4.11009 15.8075C4.1439 15.8075 4.15744 15.7872 4.17096 15.7872C4.17772 15.7872 4.19124 15.8075 4.20476 15.8075C4.21152 15.8075 4.26561 15.6993 4.32647 15.7466L4.31297 15.8075H4.35354L4.38057 15.7872C4.41438 15.8007 4.39411 15.8413 4.40087 15.848C4.42792 15.8683 4.41439 15.821 4.43467 15.8278C4.43467 15.8278 4.43467 15.8413 4.43467 15.848C4.47524 15.8819 4.61722 15.8616 4.67131 15.8886L4.68485 15.8684C5.15816 15.936 5.65852 15.9428 6.12508 15.9089C6.33469 15.8954 6.57132 15.8684 6.78093 15.8278C6.8215 15.821 6.87559 15.8413 6.90264 15.7872V15.8142C6.94997 15.7804 6.98378 15.8075 7.03111 15.8007C7.05815 15.8007 7.20015 15.7466 7.20692 15.7533V15.7804L7.22722 15.8007C7.26103 15.8007 7.26101 15.7601 7.28805 15.7466C7.32186 15.7263 7.39627 15.7195 7.4436 15.706C7.57883 15.6654 7.73431 15.6316 7.87631 15.591C8.1941 15.4895 8.90408 15.2122 9.06636 14.9213C9.10693 14.8401 9.19483 14.4884 9.19483 14.4004C9.19483 14.3937 9.17457 14.3937 9.17457 14.3937V14.3869ZM7.80871 15.9292C7.67348 15.9698 7.53826 16.0104 7.40303 16.0442C7.2678 16.078 7.0852 16.1119 6.9432 16.1321C6.87559 16.1389 6.85533 16.1389 6.80124 16.1525C6.72686 16.1728 6.69304 16.1525 6.62543 16.1525C6.62543 16.1525 6.62541 16.1727 6.61189 16.1727C6.57132 16.1795 6.51049 16.1525 6.46992 16.1998L6.45639 16.1727C6.29411 16.2201 6.11154 16.2133 5.9425 16.2201C5.89517 16.2201 5.84782 16.2269 5.80049 16.2336C5.76668 16.193 5.76669 16.2269 5.72612 16.2336C5.42185 16.2539 5.0973 16.2066 4.79979 16.2066L4.42114 16.1795C4.42114 16.2133 4.4076 16.2472 4.44817 16.2539L4.42114 16.2674L4.43467 16.7883H4.46847C4.40762 16.8154 4.44818 16.8695 4.45494 16.9169C4.45494 16.9507 4.42114 17.0115 4.46847 17.0251C4.43467 17.0251 4.44141 17.0927 4.44817 17.1198C4.44817 17.1265 4.46847 17.1198 4.46847 17.1333C4.46847 17.1468 4.46845 17.2754 4.44817 17.2957C4.48874 17.2957 4.46171 17.316 4.46171 17.3498C4.46171 17.4445 4.482 17.5459 4.46847 17.6339L4.49551 17.6474L4.46847 17.6609C4.46847 17.6609 4.48878 17.7151 4.48878 17.7286C4.48878 17.7692 4.47524 17.8436 4.46847 17.8842C4.46847 17.9518 4.48875 18.0398 4.45494 18.1006L4.48201 18.1142L4.46847 18.3171L4.49551 18.3306C4.45494 18.3712 4.4617 18.4051 4.49551 18.4524C4.48198 18.4592 4.47524 18.4524 4.46847 18.4727C4.45495 18.5539 4.482 18.6621 4.46847 18.75L4.43467 18.7771L4.48201 18.8041C4.48201 18.8447 4.4482 18.8988 4.48201 18.9327L4.46171 18.9462C4.49551 19.0815 4.45494 19.2235 4.46171 19.3521C4.46171 19.3859 4.48201 19.4265 4.48201 19.4603C4.48201 19.4806 4.4617 19.4738 4.45494 19.4874C4.44141 19.5212 4.47524 19.5279 4.47524 19.5347C4.482 19.5685 4.45493 19.5618 4.44817 19.5753C4.44817 19.6024 4.44817 19.6903 4.44817 19.7241C4.44817 19.7647 4.44817 19.785 4.44817 19.8188C4.44817 19.8526 4.41437 19.8865 4.46171 19.9C4.40761 19.9473 4.40763 20.0623 4.43467 20.1164C4.40087 20.1232 4.42792 20.1638 4.40087 20.1976L4.43467 20.2382C4.39411 20.2382 4.42114 20.2585 4.42114 20.2788C4.40085 20.3735 4.40086 20.4479 4.38057 20.5426L4.40087 20.5562L4.3738 20.617L4.40087 20.6441C4.36031 20.6373 4.40084 20.7049 4.36703 20.7388H4.39411L4.36703 20.7591L4.35354 20.8538L4.3738 20.8673C4.3738 20.8673 4.34002 20.9214 4.36031 20.9485H4.34C4.36029 21.0161 4.32649 21.0635 4.31297 21.1379L4.34 21.1582C4.29267 21.1582 4.31973 21.2461 4.3062 21.2867L4.33323 21.3138H4.29943C4.29267 21.4355 4.28591 21.5505 4.2521 21.6655L4.2724 21.679C4.22507 21.7399 4.21828 21.8482 4.23856 21.9158C4.21152 21.9497 4.19802 22.0443 4.1845 22.1052C4.17774 22.1526 4.18447 22.2202 4.15743 22.2608L4.19127 22.2811C4.13717 22.2811 4.17096 22.3285 4.16419 22.342C4.16419 22.3488 4.14392 22.342 4.13716 22.369C4.12364 22.4164 4.13038 22.4908 4.11686 22.5449C4.06277 22.7276 4.02896 22.9711 3.98839 23.1808C3.98839 23.2146 3.94108 23.2484 3.97489 23.289H3.95459L3.91402 23.4717C3.87345 23.6678 3.81936 24.0399 3.75175 24.1955C3.73146 24.2428 3.73147 24.2834 3.71795 24.324C3.68414 24.439 3.65709 24.5743 3.63004 24.696C3.62328 24.7299 3.64356 24.784 3.58271 24.7907V24.8042C3.6368 24.8042 3.58271 24.8584 3.58271 24.8719C3.58271 24.899 3.56916 24.9328 3.5624 24.9599C3.5624 24.9801 3.58948 24.9936 3.54891 25.0072L3.57594 25.0343C3.57594 25.0343 3.5489 25.0342 3.54214 25.0545C3.52185 25.0951 3.50157 25.2372 3.50157 25.2778C3.50157 25.2778 3.48127 25.2778 3.48127 25.2913C3.42717 25.4604 3.40015 25.6498 3.33253 25.8325C3.31901 25.8663 3.29197 25.8866 3.29873 25.9272H3.26489L3.29196 25.9542C3.27168 26.0692 3.21756 26.1774 3.18375 26.2857C3.13642 26.4413 3.10938 26.5968 3.06205 26.7457C3.04176 26.8133 2.99443 26.8945 2.97415 26.9689C2.96062 27.0162 2.98093 26.9959 2.96065 27.0365C2.92008 27.1109 2.89979 27.2057 2.87275 27.2868C2.78485 27.5304 2.67666 27.7942 2.582 28.0377C2.56848 28.0715 2.59553 28.1121 2.54143 28.1256L2.55493 28.1662C2.51436 28.1865 2.52788 28.2136 2.50759 28.2542C2.31827 28.7142 2.10866 29.1606 1.91257 29.6138C1.67591 30.1618 1.41901 30.6623 1.14855 31.1967C1.14178 31.2102 1.14855 31.2305 1.14855 31.2373C1.14178 31.2508 1.09443 31.2711 1.08767 31.2982C1.08767 31.3117 1.10121 31.3253 1.10121 31.3455C1.08769 31.4538 1.02004 31.5688 0.986232 31.6702C1.05385 31.7108 1.10118 31.7649 1.15527 31.819C1.18232 31.8461 1.2026 31.8461 1.23641 31.8664C1.23641 31.8664 1.3108 31.934 1.33108 31.9408C1.45279 32.0152 1.58125 32.0693 1.70296 32.137C1.75029 32.164 1.73677 32.1505 1.79086 32.1708C1.96667 32.2384 2.14249 32.3467 2.32506 32.4211C2.69695 32.5699 3.04179 32.6511 3.4272 32.7255C3.47453 32.7323 3.5151 32.7593 3.55567 32.7458V32.7796L3.58947 32.7525C3.89375 32.7999 4.19801 32.854 4.50904 32.8608C4.99588 32.9487 5.4827 32.9352 5.9763 32.9284C6.05068 32.9284 6.14536 32.9419 6.21298 32.9149L6.22647 32.9352C6.82826 32.9081 7.44359 32.8811 8.03185 32.8337C8.04538 32.8337 8.06563 32.8134 8.08592 32.8134C8.1062 32.8134 8.11297 32.8337 8.13325 32.8337C8.1603 32.8337 8.23467 32.7661 8.25496 32.8202C8.282 32.7796 8.30905 32.8067 8.33609 32.8067C8.33609 32.8067 8.3361 32.7864 8.34963 32.7864C8.38344 32.7864 8.43079 32.7999 8.45784 32.7931C8.4646 32.7931 8.46457 32.7661 8.47133 32.7661C8.48486 32.7661 8.50516 32.7796 8.5322 32.7796C8.55249 32.7796 8.63362 32.739 8.65391 32.7458C8.65391 32.7458 8.65392 32.7661 8.66744 32.7661C8.68773 32.7661 8.78236 32.7458 8.80264 32.7323V32.7593C8.8635 32.712 8.92436 32.7593 8.97845 32.6984C9.01226 32.7661 9.0461 32.6984 9.05286 32.6984C9.14752 32.6984 9.22187 32.6714 9.31653 32.6849C9.33006 32.6511 9.42473 32.6646 9.45854 32.6579C9.59377 32.624 9.69518 32.6105 9.81688 32.5902C9.91831 32.5699 10.04 32.5631 10.1279 32.5428C10.1617 32.5361 10.2091 32.5158 10.2226 32.5564C10.2429 32.509 10.2835 32.5225 10.3173 32.4955L10.3443 32.5158C10.3443 32.4752 10.3984 32.4955 10.4322 32.4888C10.5201 32.4752 10.608 32.4617 10.6756 32.4481C10.7297 32.4346 10.8244 32.3805 10.8514 32.4346C10.8717 32.4279 10.8988 32.394 10.9123 32.3873C11.0002 32.367 11.1219 32.3467 11.2233 32.3196C11.4126 32.2723 11.6155 32.2385 11.8048 32.1843C11.8657 32.164 11.9198 32.1302 11.9874 32.1099L12.0009 32.1302C12.0009 32.0829 12.0347 32.1032 12.055 32.0964C12.1767 32.0558 12.2916 32.0152 12.4066 31.9746C12.4674 31.9543 12.5418 31.9476 12.5959 31.907L12.6162 31.9273C12.6162 31.9273 12.6771 31.8799 12.7041 31.8664C12.8664 31.7987 12.9948 31.7649 13.1571 31.6838C13.1774 31.677 13.2247 31.6432 13.2383 31.6364C13.2788 31.6229 13.3059 31.6432 13.3262 31.5958C13.36 31.6635 13.3465 31.5958 13.36 31.5823L13.3803 31.6093C13.3803 31.6093 13.4749 31.5282 13.502 31.5214C13.5223 31.5146 13.5493 31.5282 13.5493 31.5282C13.5493 31.5282 13.5493 31.5079 13.5561 31.4943C13.5764 31.4741 13.644 31.4605 13.671 31.447C13.7183 31.4199 13.7724 31.3726 13.813 31.3523C13.8333 31.3387 13.8603 31.3523 13.8806 31.3388C13.8874 31.3388 13.9482 31.2711 13.9618 31.2576C14.0158 31.2238 14.07 31.1967 14.1241 31.1629C14.4081 30.9803 14.6447 30.7908 14.8881 30.5676C15.0639 30.3985 15.2329 30.182 15.4155 30.0265C15.4223 30.0197 15.429 29.9994 15.4425 29.9859C15.402 29.9521 15.375 29.8912 15.3411 29.8506C15.233 29.6815 15.0977 29.6071 14.9557 29.465C14.7055 29.2147 14.4621 28.9441 14.239 28.6803C14.212 28.6533 14.1241 28.5653 14.1105 28.545C14.1105 28.5315 14.1173 28.5112 14.1105 28.5112C14.1105 28.5112 14.0699 28.5044 14.0564 28.4841C14.0429 28.4706 14.0429 28.4503 14.0362 28.4368C13.7927 28.1459 13.5899 27.8348 13.3667 27.5304C13.2585 27.3883 13.1571 27.2936 13.0828 27.1245C13.0828 27.1245 13.0287 27.0839 13.0219 27.0704C12.8867 26.8877 12.7379 26.6848 12.6297 26.5021H12.6094C12.5959 26.4616 12.6297 26.4886 12.6297 26.4616C12.6027 26.4683 12.5216 26.3871 12.5148 26.3668C12.508 26.3465 12.5283 26.3263 12.5148 26.3195C12.5148 26.3195 12.4945 26.3195 12.481 26.3195C12.4539 26.2992 12.4201 26.2451 12.3998 26.218C12.197 25.9339 12.0077 25.6228 11.8183 25.3251C11.8183 25.3251 11.7913 25.3183 11.7845 25.3048C11.7642 25.2575 11.8183 25.2845 11.8183 25.2642C11.7642 25.2845 11.7304 25.2236 11.7034 25.1763C11.629 25.0545 11.5546 24.9395 11.4803 24.8178C11.3518 24.6149 11.2233 24.4052 11.1016 24.1955C11.0813 24.1616 11.0678 24.1143 11.034 24.0872L11.0543 24.0534L11.0002 24.0264L10.7433 23.5934L10.7703 23.5731C10.7297 23.5731 10.7365 23.5325 10.723 23.5122C10.6012 23.3228 10.4592 23.059 10.3646 22.8628C10.1347 22.3893 9.88453 21.909 9.68169 21.4355C9.66816 21.4017 9.59379 21.2258 9.60055 21.2123H9.62081C9.5532 21.1785 9.587 21.1785 9.57348 21.1379C9.57348 21.1244 9.54645 21.1243 9.54645 21.1176C9.50588 21.0432 9.37739 20.7253 9.36387 20.6509C9.36387 20.6306 9.39093 20.6306 9.33684 20.6035C9.35712 20.5494 9.33006 20.5697 9.31653 20.5494C9.30301 20.5291 9.30979 20.5021 9.2895 20.4818L9.30976 20.4547C9.22186 20.4073 9.21513 20.272 9.21513 20.1773C9.19485 20.1773 9.20834 20.2247 9.18129 20.2044C9.18129 20.2044 9.15425 20.1165 9.14749 20.0962C9.11368 20.015 9.0799 19.9406 9.04609 19.8662L9.07989 19.8526C9.01228 19.8256 9.04608 19.8324 9.03256 19.8053C8.9717 19.67 8.91762 19.5076 8.87028 19.3588C8.87028 19.3385 8.85001 19.3183 8.83649 19.298L8.86352 19.2777C8.86352 19.2777 8.83648 19.2776 8.82972 19.2709C8.80943 19.2371 8.80267 19.1491 8.78915 19.1153C8.59306 18.5403 8.41049 17.9992 8.23469 17.4377C8.11298 17.0386 7.99802 16.6327 7.88308 16.2269C7.88308 16.2066 7.85604 16.1863 7.84928 16.166L7.87631 16.1457C7.87631 16.1457 7.84927 16.1457 7.84251 16.1254C7.83575 16.1119 7.80871 16.0172 7.80871 15.9901C7.80871 15.9698 7.80871 15.9495 7.80871 15.9292ZM15.5981 30.297C15.5981 30.297 15.5981 30.2226 15.571 30.2362C15.5372 30.2767 15.5237 30.3241 15.4899 30.3715C15.4425 30.4526 15.3885 30.5 15.3344 30.5744C15.3276 30.5879 15.287 30.6488 15.2803 30.6556C15.26 30.6759 15.233 30.6555 15.2194 30.6826L15.2397 30.7029C15.1924 30.6894 15.2059 30.7232 15.1924 30.7435C15.145 30.7908 15.091 30.8449 15.0369 30.8855C14.9895 30.9261 15.0166 30.8991 14.9895 30.9126C14.9625 30.9261 14.9557 31.0005 14.8949 30.9938V31.0208H14.8475V31.0479C14.8137 31.0411 14.8137 31.0479 14.7867 31.075L14.8002 31.102C14.7394 31.0885 14.7596 31.1155 14.7394 31.1426C14.7191 31.1629 14.6785 31.1697 14.665 31.1764C14.6515 31.19 14.6515 31.1967 14.6244 31.2238C14.5974 31.2508 14.5838 31.2847 14.5365 31.2576L14.55 31.2914C14.4824 31.2914 14.4351 31.3455 14.381 31.3726L14.4013 31.3929C14.4013 31.3929 14.3472 31.4132 14.3269 31.4267C14.2728 31.4605 14.212 31.5147 14.1646 31.5485C14.1308 31.5688 14.0632 31.6229 14.0294 31.5891C14.0362 31.6094 14.0294 31.6364 14.0091 31.6432C13.9888 31.65 13.9685 31.6297 13.9685 31.6364C13.9685 31.6364 13.9685 31.6635 13.9483 31.6702C13.928 31.6905 13.8874 31.6905 13.8671 31.7176L13.8266 31.6905C13.8266 31.6905 13.8739 31.6973 13.8536 31.7244C13.8401 31.7447 13.7589 31.7041 13.7792 31.7582L13.6304 31.8326L13.6102 31.8123C13.6169 31.8597 13.5966 31.8394 13.5831 31.8529C13.5561 31.8732 13.5222 31.8934 13.4952 31.907C13.4749 31.9137 13.4479 31.9205 13.4276 31.9341L13.4073 31.907C13.4141 31.9543 13.387 31.9408 13.3667 31.9543C13.36 31.9611 13.36 31.9746 13.3397 31.9814C13.3126 31.9949 13.245 31.9814 13.2383 31.9949C13.2315 31.9949 13.2383 32.0287 13.218 32.0423C13.1977 32.0558 13.1571 32.0558 13.1369 32.0423L13.1233 32.0626H13.1031C13.1031 32.0626 13.076 32.0626 13.0422 32.0761C13.0287 32.137 13.0287 32.1031 13.0084 32.1099C12.9678 32.1234 12.9205 32.137 12.9002 32.164L12.8596 32.1505V32.1978H12.8258V32.1776C12.7109 32.2317 12.6838 32.2587 12.5689 32.279C12.5486 32.279 12.5215 32.279 12.4945 32.279L12.5215 32.2993C12.4877 32.2993 12.4539 32.3264 12.4201 32.3331C12.3863 32.3399 12.4201 32.3196 12.4066 32.3061C12.3863 32.3129 12.366 32.3399 12.3525 32.3467C12.2781 32.3805 12.1902 32.394 12.1226 32.4143C12.1091 32.4143 12.1158 32.4346 12.1091 32.4346C12.0956 32.4346 12.0482 32.4346 12.0279 32.4481L12.0077 32.4211C12.0212 32.4684 11.9265 32.4685 11.8859 32.482C11.7913 32.509 11.8183 32.5023 11.7304 32.5023C11.7237 32.5023 11.7304 32.5226 11.7169 32.5226C11.6898 32.5293 11.6493 32.5226 11.6561 32.5564L11.6223 32.5226C11.6087 32.6037 11.5276 32.5496 11.4803 32.5632C11.4464 32.5699 11.4329 32.597 11.4059 32.6105C11.3788 32.6173 11.3045 32.6105 11.2706 32.624C11.2368 32.6308 11.1489 32.6443 11.1489 32.6781H11.1286V32.6443C11.0543 32.7187 10.9528 32.6917 10.8717 32.7187C10.8582 32.7187 10.865 32.739 10.865 32.739C10.8244 32.7661 10.8649 32.7052 10.8379 32.7187L10.7635 32.7661C10.7635 32.7661 10.75 32.7458 10.7365 32.7458C10.6959 32.7322 10.6959 32.7661 10.6892 32.7661C10.6621 32.7661 10.608 32.739 10.5945 32.7931L10.5742 32.7661L10.5066 32.7999L10.493 32.7661C10.493 32.7999 10.4255 32.7932 10.4052 32.827L10.3713 32.8067C10.2564 32.8473 10.1482 32.854 10.0265 32.8676C9.99268 32.8676 9.95214 32.8946 9.92509 32.8946C9.89805 32.8946 9.88451 32.8743 9.87099 32.8743C9.85747 32.8743 9.8372 32.9014 9.81016 32.9081C9.68845 32.9352 9.51939 32.9216 9.4112 32.9622C9.38416 32.969 9.38417 32.9961 9.38417 32.9893C9.37065 32.9893 9.35035 32.9622 9.3233 32.969C9.29625 32.969 9.29627 33.0028 9.2557 32.969C9.22865 33.0299 9.2219 32.9893 9.17457 32.9893C9.14076 32.9893 9.10016 33.0028 9.06636 33.0096L9.05286 32.9893C8.97848 33.0231 8.89733 33.0231 8.82972 33.0502C8.79591 33.0637 8.84322 33.0164 8.80941 33.0299C8.62009 33.0773 8.3699 33.0975 8.16705 33.1111C8.0521 33.1246 7.91689 33.1043 7.80871 33.1449C7.80195 33.0975 7.76815 33.1381 7.73434 33.1449C7.61939 33.1584 7.50445 33.1652 7.39626 33.1719C7.34217 33.1719 7.21367 33.1449 7.20015 33.199L7.17312 33.1719C7.11902 33.1922 7.02437 33.1719 6.97028 33.1855C6.96351 33.1855 6.96351 33.199 6.96351 33.2125L6.92971 33.1855L6.91617 33.2125V33.1855L6.88237 33.2125V33.1855H6.86207C6.86207 33.2261 6.78771 33.1922 6.7539 33.1922C6.666 33.1922 6.57809 33.199 6.49696 33.1922L6.48342 33.2193L6.46992 33.199C6.41583 33.2125 6.35497 33.199 6.29412 33.199C6.11831 33.199 5.92898 33.199 5.73966 33.199C5.30015 33.199 4.85388 33.1516 4.42114 33.1381C4.42114 33.1381 4.39409 33.1111 4.33323 33.1043C3.97487 33.0705 3.66383 33.0299 3.31223 32.969C3.23785 32.9555 3.177 32.9487 3.10939 32.9352C2.71721 32.8405 2.3318 32.6984 1.96667 32.5428C1.91258 32.5225 1.85172 32.4549 1.79086 32.4752V32.4414C1.79086 32.4414 1.75032 32.4414 1.7368 32.4279C1.52043 32.3332 1.24319 32.1979 1.0471 32.0626C1.0133 32.0355 0.918648 31.9476 0.891601 31.9476C0.857793 32.0423 0.851013 32.1437 0.830729 32.2452C0.830729 32.2655 0.810459 32.279 0.803697 32.2993C0.796935 32.3467 0.823982 32.4414 0.803697 32.5023L0.776624 32.5226H0.803697C0.796935 32.5834 0.783392 32.6376 0.783392 32.6917C0.783392 33.1449 1.10119 33.801 1.41898 34.0987C1.44603 34.119 1.50015 34.1663 1.52719 34.1731L1.51366 34.2205C1.54747 34.2205 1.58129 34.2272 1.6151 34.2475C1.65567 34.2678 1.7368 34.349 1.77737 34.376C1.81118 34.3963 1.87877 34.3896 1.8382 34.4572C1.86525 34.4572 1.87201 34.4572 1.87877 34.4369C1.93962 34.4437 1.91259 34.4707 1.93964 34.5046L1.98698 34.4775C2.01402 34.5248 2.11543 34.5384 2.14248 34.5722C2.156 34.5857 2.14249 34.606 2.14925 34.606C2.14925 34.606 2.28448 34.5654 2.27095 34.6669C2.30476 34.6331 2.49407 34.7075 2.50759 34.7278C2.53464 34.7616 2.45351 34.7413 2.47379 34.7751C2.52789 34.7616 2.56848 34.7413 2.62934 34.7616V34.809L2.6496 34.7819C2.69017 34.7751 2.71046 34.8022 2.73751 34.809C2.77131 34.8157 2.79161 34.809 2.83218 34.8292C2.8457 34.836 2.85245 34.8563 2.85921 34.8631C2.87273 34.8631 2.89977 34.8496 2.93358 34.8563C2.98091 34.8563 3.07559 34.9037 3.12292 34.9172C3.30549 34.951 3.52183 34.9578 3.69087 34.9984C3.69764 34.9984 3.69765 35.0254 3.70441 35.0187C3.71793 35.0187 3.73824 34.9984 3.76528 34.9984C3.80585 34.9984 3.87345 35.0187 3.92079 35.0187C4.32648 35.039 4.73216 35.0322 5.12433 35.0187C5.39479 35.0119 5.65853 35.0051 5.92224 34.9916L5.9425 35.0119L5.9763 34.9984L5.9966 35.0254C5.98308 34.9781 6.0304 34.9781 6.07097 34.9713C6.35496 34.924 6.67275 34.9645 6.94997 34.8834L6.96351 34.9036C7.8628 34.8225 8.78239 34.694 9.68169 34.579C9.85073 34.5181 10.1009 34.5316 10.2767 34.464C10.2902 34.464 10.3172 34.464 10.3308 34.4504L10.3511 34.4775C10.3511 34.4234 10.4187 34.4504 10.4525 34.464C10.4998 34.4234 10.6283 34.4031 10.7162 34.3828C10.7568 34.376 10.8109 34.376 10.8447 34.3693C10.8988 34.3557 11.0813 34.2949 11.1084 34.3016C11.1219 34.3016 11.1084 34.3287 11.1286 34.3287L11.1489 34.2949V34.3151C11.1895 34.3287 11.176 34.2949 11.1895 34.2949C11.2842 34.2678 11.3856 34.2678 11.4735 34.234C11.5884 34.1934 11.7169 34.146 11.8319 34.146C11.8319 34.146 11.8589 34.1122 11.8927 34.1054C12.0144 34.0716 12.1632 34.0243 12.2917 33.9837C12.3119 33.9837 12.3863 33.9702 12.3931 33.9634C12.3998 33.9634 12.3998 33.9363 12.4066 33.9363C12.4066 33.9363 12.5012 33.9296 12.5215 33.9161C12.5824 33.8958 12.6568 33.8619 12.7244 33.8417C12.8123 33.8078 12.934 33.7401 13.0084 33.7199C13.2383 33.6522 13.4749 33.5169 13.6913 33.4019C13.7454 33.3749 13.8333 33.3478 13.8806 33.3072C13.8874 33.3072 13.8942 33.3005 13.8942 33.287L13.9144 33.3072C13.9144 33.3072 13.9144 33.287 13.928 33.2802C14.0091 33.2193 14.1173 33.1855 14.1917 33.1381C14.2119 33.1246 14.2458 33.0705 14.2796 33.0569C14.3066 33.0434 14.3336 33.0705 14.3472 33.0569C14.3539 33.0502 14.3472 33.0299 14.3607 33.0164C14.3675 33.0028 14.4419 32.9758 14.4621 32.969C14.6785 32.827 14.8746 32.6714 15.091 32.509C15.2194 32.4143 15.3547 32.3129 15.4764 32.2249C15.5102 32.2046 15.5575 32.1099 15.5981 32.0829C15.6116 32.0761 15.6319 32.0829 15.6387 32.0829C15.6387 32.0829 15.6386 32.0558 15.6589 32.0355C15.7942 31.8799 15.9565 31.7582 16.0173 31.5485C16.0173 31.5282 15.997 31.5214 16.0376 31.5079C16.0105 31.4673 16.0443 31.4808 16.0579 31.4673C16.0646 31.4538 16.0714 31.3997 16.0579 31.3794C16.0579 31.3658 16.024 31.3794 16.0308 31.3455H16.0579C16.0579 31.2914 16.0781 31.2102 16.0714 31.1494C16.0376 30.8652 15.7874 30.5 15.6454 30.2564L15.5981 30.297ZM1.68947 32.1843V32.1573H1.67593V32.1843H1.68947Z" fill="#6F7A58" stroke="#6F7A58" stroke-width="0.85" stroke-linecap="round" stroke-linejoin="round"/>
<path d="M12.819 34.1731C12.819 34.1731 12.8257 34.1798 12.819 34.1865V34.1731Z" fill="#6F7A58" stroke="#6F7A58" stroke-width="0.85" stroke-linecap="round" stroke-linejoin="round"/>
<path d="M9.28955 21.1717H9.31658C9.31658 21.2123 9.36393 21.2258 9.37746 21.2461C9.37746 21.2461 9.42479 21.3611 9.42479 21.3679C9.42479 21.3949 9.41803 21.4084 9.42479 21.422C9.43156 21.4355 9.45183 21.4355 9.45859 21.4423C9.46535 21.4558 9.45183 21.4694 9.45859 21.4896C9.48564 21.5573 9.51268 21.6249 9.53973 21.6926C9.53973 21.7061 9.58031 21.7128 9.55327 21.7602H9.58707C9.58707 21.8008 9.58032 21.8211 9.6006 21.8617C9.6006 21.8684 9.62087 21.8685 9.62087 21.8752C9.62087 21.882 9.60058 21.9564 9.66143 21.9564L9.6344 21.9767C9.6344 21.9767 9.65467 22.0308 9.66143 22.0511C9.66143 22.0646 9.72907 22.1593 9.72907 22.1661C9.72907 22.1932 9.72231 22.2202 9.72907 22.254C9.73584 22.2879 9.81694 22.4231 9.81694 22.4299C9.83046 22.4975 9.83723 22.6261 9.91161 22.6599C9.8778 22.6869 9.91162 22.7614 9.92515 22.7952C9.95895 22.8764 10.0333 22.9913 10.0604 23.0725C10.0671 23.0928 10.0604 23.1267 10.0604 23.1334C10.0604 23.1469 10.1212 23.2146 10.128 23.2281C10.1347 23.2552 10.128 23.3431 10.1753 23.316C10.1753 23.3431 10.1753 23.3769 10.2091 23.3769L10.1889 23.3972L10.2497 23.4784L10.2227 23.5055H10.2565L10.2497 23.5325L10.297 23.5528C10.297 23.5528 10.297 23.6272 10.297 23.6475C10.297 23.6543 10.3308 23.6678 10.3376 23.6813C10.3511 23.7152 10.3511 23.749 10.3646 23.7828C10.3781 23.8166 10.4187 23.8572 10.4187 23.864C10.4187 23.8775 10.3984 23.9046 10.4593 23.9249L10.4255 23.9452C10.4593 23.9452 10.4525 23.979 10.4593 23.9925C10.5202 24.0872 10.581 24.2022 10.6216 24.3104C10.6351 24.3443 10.6216 24.4052 10.6554 24.3713L10.6283 24.3984L10.6824 24.4254V24.4998C10.7433 24.4998 10.7365 24.5675 10.7568 24.6081C10.7703 24.6351 10.7771 24.6757 10.7771 24.6757C10.7839 24.6892 10.8312 24.7095 10.8245 24.7636L10.8447 24.7501C10.8447 24.8178 10.9259 24.8922 10.9056 24.9531C10.9664 24.9531 10.9394 25.0004 10.9867 25.0207L10.9596 25.0478L10.9732 25.0681H11.007V25.129L11.0273 25.1154V25.1763L11.0543 25.156L11.0814 25.1966L11.0543 25.2101L11.0881 25.2439V25.2642H11.1152L11.1017 25.3251H11.1287V25.3589C11.1828 25.3589 11.1963 25.4604 11.1963 25.501L11.2166 25.4874V25.5348C11.2774 25.528 11.2369 25.5889 11.291 25.6024L11.2775 25.643L11.3383 25.6701L11.318 25.6971L11.3924 25.7445L11.3721 25.758V25.7851C11.3721 25.7851 11.406 25.8054 11.4195 25.8257C11.4668 25.8866 11.5006 25.988 11.5412 26.0421L11.5276 26.0827C11.575 26.076 11.5885 26.1436 11.5885 26.1774L11.6088 26.1639C11.602 26.2045 11.6561 26.2315 11.6561 26.2383C11.6561 26.2518 11.6426 26.2654 11.6426 26.2789C11.6426 26.2789 11.6764 26.2924 11.6697 26.3195H11.6899L11.6764 26.3668L11.7102 26.3533L11.6967 26.3939H11.744L11.7237 26.4277C11.7846 26.4548 11.7913 26.5021 11.8184 26.5495C11.8319 26.5698 11.859 26.5968 11.8725 26.6171C11.886 26.6442 11.859 26.7051 11.9198 26.6848C11.8995 26.7389 11.9942 26.793 12.001 26.8065C12.0145 26.8336 12.0009 26.8336 12.028 26.8674C12.0415 26.8877 12.028 26.9215 12.0618 26.9215L12.0348 26.9553C12.0348 26.9553 12.1091 26.9689 12.1091 27.0095C12.1091 27.023 12.0821 27.0095 12.0821 27.0298C12.17 27.0501 12.1362 27.0501 12.1565 27.1042C12.1565 27.1109 12.1767 27.1109 12.1835 27.138C12.1903 27.165 12.17 27.1853 12.2038 27.2056L12.2241 27.1989C12.2241 27.1989 12.2308 27.253 12.2376 27.2597C12.2376 27.2597 12.3255 27.2394 12.2714 27.3341L12.3458 27.3747L12.3255 27.4018C12.3728 27.4018 12.454 27.4965 12.4337 27.5438H12.4675L12.454 27.5912C12.5216 27.598 12.5892 27.713 12.5825 27.7806L12.6028 27.7536C12.5892 27.8212 12.6433 27.8077 12.6568 27.828C12.6703 27.8415 12.6906 27.9024 12.6771 27.9227C12.6906 27.943 12.7177 27.943 12.7312 27.9565C12.7785 28.0039 12.7785 28.085 12.8326 28.1324C12.8664 28.1662 12.9273 28.1527 12.8867 28.2338L12.9476 28.2474V28.315L13.022 28.3285V28.4233C13.0625 28.403 13.1301 28.4368 13.0828 28.4773H13.1166V28.5179L13.1369 28.5044L13.1234 28.5518L13.1572 28.5382C13.1572 28.633 13.1842 28.5924 13.218 28.6126C13.2586 28.6397 13.2383 28.7006 13.2451 28.7006C13.2518 28.7074 13.3127 28.7006 13.2924 28.7615L13.333 28.775V28.8223C13.333 28.8223 13.3871 28.8359 13.3871 28.8427C13.4006 28.8562 13.3939 28.8765 13.4006 28.8832C13.4006 28.8832 13.4277 28.8832 13.4344 28.8832C13.4344 28.8832 13.4344 28.9103 13.4344 28.9238C13.4344 28.9306 13.4885 28.9644 13.4885 28.9644C13.4885 28.9779 13.475 28.9982 13.4885 29.0118C13.4953 29.0253 13.5223 29.0185 13.5291 29.0253C13.5426 29.0388 13.5223 29.12 13.5764 29.0929V29.1471C13.6372 29.1674 13.5967 29.1538 13.6102 29.1944C13.617 29.2147 13.644 29.2485 13.6711 29.2485L13.644 29.2688C13.6778 29.2891 13.6846 29.3297 13.6981 29.3568C13.7657 29.4718 13.8604 29.5935 13.901 29.7017C13.9213 29.7558 13.928 29.7897 13.9145 29.8438C13.9956 29.8438 13.9618 29.925 13.9145 29.8844C13.9009 29.8776 13.9145 29.8573 13.901 29.8506C13.901 29.8506 13.8807 29.8506 13.8739 29.8438C13.8536 29.8235 13.759 29.7558 13.7522 29.7491C13.7454 29.7355 13.7387 29.7085 13.7387 29.695L13.7049 29.7085C13.7049 29.7085 13.6981 29.6814 13.6846 29.6747C13.4479 29.4853 13.2451 29.2418 13.076 29.0185C13.0557 28.9982 12.9679 28.8832 12.9679 28.8765C12.9543 28.8562 12.9611 28.8291 12.9543 28.8156C12.9476 28.802 12.9003 28.7886 12.8867 28.7683C12.8664 28.7412 12.8394 28.6803 12.8191 28.6465C12.7853 28.5923 12.7312 28.5112 12.6839 28.4503C12.6636 28.4232 12.623 28.4097 12.6095 28.3691C12.6027 28.3421 12.6162 28.3218 12.6095 28.3218C12.6095 28.3218 12.5892 28.3218 12.5757 28.3218C12.5419 28.3015 12.5419 28.2541 12.5351 28.2474C12.5284 28.2406 12.4945 28.2474 12.481 28.2C12.4607 28.1256 12.481 28.1797 12.4404 28.1391C12.4404 28.1391 12.4405 28.1188 12.4269 28.1053C12.4067 28.085 12.3661 28.0647 12.4134 28.058C12.3661 28.0444 12.3728 28.0174 12.3525 28.0039C12.2714 27.9092 12.2105 27.8077 12.1429 27.6995C12.1159 27.6521 12.055 27.598 12.028 27.5438C12.028 27.5371 12.028 27.5168 12.028 27.51C12.028 27.51 12.001 27.51 11.9942 27.51C11.9739 27.4965 11.9807 27.4221 11.9807 27.4154C11.9671 27.4018 11.913 27.3747 11.8928 27.3409C11.8792 27.3206 11.8928 27.3071 11.8928 27.2936C11.8928 27.2936 11.8522 27.2665 11.8454 27.253C11.7913 27.1786 11.744 27.0771 11.6967 26.9959C11.6696 26.9553 11.602 26.9012 11.6223 26.8471H11.5885C11.6088 26.7998 11.5817 26.8133 11.5614 26.793C11.5276 26.7456 11.5073 26.6848 11.4668 26.651L11.4803 26.6104C11.433 26.6104 11.4465 26.563 11.433 26.5495C11.4059 26.5089 11.4059 26.4954 11.3856 26.4615C11.3856 26.448 11.3451 26.4751 11.3856 26.421L11.3316 26.4074C11.3451 26.3533 11.291 26.333 11.2707 26.2924C11.2504 26.2586 11.2301 26.1977 11.2098 26.1571C11.2031 26.1368 11.1693 26.1233 11.1625 26.0963C11.1625 26.0692 11.1693 26.0489 11.1625 26.0489C11.1625 26.0489 11.1355 26.0489 11.1287 26.0489C11.1152 26.0354 11.0881 25.9475 11.0746 25.9272C11.0408 25.8595 10.9732 25.7851 10.98 25.731C10.9394 25.7242 10.9394 25.6768 10.9191 25.643C10.8312 25.4874 10.723 25.271 10.6216 25.0951C10.6013 25.0613 10.5743 25.0545 10.6081 25.0004C10.5607 25.0072 10.5675 24.953 10.5269 24.9328C10.5472 24.8786 10.4255 24.7501 10.4187 24.7163C10.4187 24.7028 10.4323 24.6825 10.4255 24.6622C10.4255 24.6554 10.3714 24.6148 10.3579 24.5945C10.3241 24.5134 10.2835 24.4187 10.2565 24.3442C10.2497 24.324 10.2159 24.3172 10.2429 24.2834H10.2091C10.2091 24.2225 10.1888 24.1751 10.1686 24.1345C10.1415 24.0804 10.0604 23.9722 10.0468 23.9181C10.0468 23.8978 10.0604 23.8707 10.0536 23.8707C10.0536 23.8707 10.0198 23.864 10.013 23.8437C9.99953 23.8234 10.0198 23.8031 10.013 23.7963C10.013 23.7963 9.98601 23.7896 9.97925 23.7625C9.87783 23.546 9.7899 23.3025 9.69523 23.0861C9.68171 23.0455 9.64116 22.9846 9.62763 22.9508C9.61411 22.9169 9.62763 22.8967 9.62763 22.8831C9.62763 22.8831 9.58707 22.8628 9.58707 22.856C9.5803 22.8358 9.58706 22.7478 9.5803 22.7411C9.57354 22.7275 9.53972 22.7208 9.52619 22.7005L9.5465 22.6802C9.51269 22.6802 9.52622 22.6396 9.5127 22.6125C9.5127 22.599 9.47211 22.572 9.49239 22.5517C9.49239 22.5449 9.51946 22.5517 9.5127 22.5381H9.46536L9.49239 22.5111C9.45859 22.5246 9.44505 22.4705 9.43829 22.4367C9.42477 22.3758 9.39776 22.3216 9.39099 22.2608C9.39099 22.2405 9.39096 22.227 9.39772 22.2135C9.3842 22.2135 9.36391 22.2134 9.35715 22.1999C9.35715 22.1999 9.33012 22.1255 9.33012 22.1187C9.33012 22.112 9.35042 22.1052 9.34366 22.0782C9.34366 22.0579 9.30985 22.0579 9.30309 22.0376C9.29633 22.024 9.30309 22.0037 9.30309 21.9902C9.28957 21.9632 9.23546 21.8752 9.28955 21.882V21.8685C9.24222 21.8685 9.24899 21.7602 9.20842 21.7602L9.22868 21.7399C9.18811 21.7399 9.2084 21.6993 9.19488 21.6723C9.18812 21.6587 9.16784 21.652 9.16108 21.6452C9.15432 21.6317 9.15431 21.5438 9.14754 21.5235C9.14078 21.4964 9.11374 21.4896 9.10698 21.4829C9.09345 21.4491 9.08671 21.3611 9.07995 21.3273C9.07318 21.2867 9.04612 21.2529 9.05964 21.1988L9.10021 21.2326L9.14078 21.1514C9.18135 21.1379 9.21518 21.1311 9.24899 21.1717L9.26925 21.1379L9.28955 21.1717Z" fill="#6F7A58" stroke="#6F7A58" stroke-width="0.85" stroke-linecap="round" stroke-linejoin="round"/>
<path d="M10.5133 26.0353V26.0151H10.608C10.608 26.0286 10.608 26.0489 10.6148 26.0624C10.6283 26.103 10.6621 26.1504 10.6756 26.1774C10.6824 26.1977 10.6959 26.2586 10.7094 26.2789C10.7229 26.2924 10.7365 26.2789 10.7432 26.2856C10.7432 26.2856 10.723 26.333 10.7432 26.36L10.777 26.3465V26.4547L10.8041 26.4412C10.7838 26.4886 10.8379 26.4953 10.8379 26.5089C10.8514 26.5562 10.8379 26.6509 10.919 26.6577L10.8988 26.6848C10.919 26.7186 10.9596 26.7727 10.9799 26.8065C10.9934 26.8336 11.0002 26.8944 11.0205 26.9147C11.0272 26.9283 11.0475 26.9283 11.0543 26.935C11.0543 26.935 11.0678 27.0094 11.0746 27.0365C11.0881 27.0568 11.1151 27.0365 11.0881 27.0974C11.1692 27.1583 11.1895 27.2665 11.2436 27.3544C11.2504 27.368 11.2909 27.4085 11.2977 27.4288C11.3179 27.4694 11.3247 27.5912 11.3923 27.5641C11.3653 27.6182 11.4194 27.6589 11.4261 27.7062L11.4464 27.6791C11.4464 27.6791 11.4464 27.7062 11.4464 27.7265C11.4464 27.7265 11.4938 27.7806 11.5005 27.7941C11.5005 27.8077 11.487 27.8618 11.5411 27.8618L11.514 27.882C11.5749 27.882 11.5749 27.9362 11.5952 27.9768C11.6155 28.0173 11.656 28.085 11.6831 28.1256C11.6966 28.1459 11.7237 28.1526 11.7304 28.1797H11.7507C11.7304 28.2135 11.771 28.2338 11.771 28.2406C11.771 28.2676 11.7507 28.2812 11.8183 28.2947L11.7913 28.3285H11.8251L11.8183 28.3488C11.8386 28.3961 11.8792 28.4097 11.9062 28.4571C11.9197 28.4773 11.8927 28.5044 11.9536 28.5044L11.94 28.5315C11.9738 28.545 11.9536 28.572 11.9671 28.5856C11.9671 28.5923 12.0076 28.5924 12.0144 28.5991C12.0144 28.6059 12.0144 28.6329 12.0144 28.6464C12.0279 28.687 12.0685 28.7073 12.0888 28.7276C12.1091 28.7479 12.1361 28.8359 12.1429 28.8426C12.1564 28.8562 12.1834 28.8561 12.1902 28.8629C12.1902 28.8629 12.1902 28.9103 12.2037 28.9373C12.224 28.9915 12.2781 29.0185 12.3119 29.0794C12.3322 29.1132 12.3119 29.0997 12.3525 29.147C12.3998 29.2079 12.4201 29.2485 12.4607 29.3094C12.481 29.3432 12.4877 29.3229 12.5215 29.3906C12.5283 29.4041 12.5621 29.3906 12.535 29.4379C12.5621 29.4311 12.6365 29.5191 12.6433 29.5394C12.6433 29.5529 12.6297 29.5664 12.6365 29.5732C12.6365 29.5799 12.6973 29.5867 12.6771 29.6341C12.7379 29.6476 12.7109 29.6679 12.7244 29.6882C12.7312 29.7017 12.7649 29.7423 12.7852 29.7761C12.819 29.837 12.8664 29.8979 12.9002 29.952C12.9069 29.9656 12.9678 30.0737 12.961 30.0805C12.961 30.094 12.9205 30.0941 12.9272 30.1076C12.9881 30.0941 13.0016 30.1211 13.0151 30.1752L12.9881 30.2023C13.0557 30.182 13.076 30.2496 13.0963 30.3037C13.1098 30.3376 13.1233 30.4052 13.1368 30.4323C13.1504 30.4593 13.1909 30.4864 13.1909 30.527C13.1233 30.554 13.0692 30.4661 13.0286 30.4255C13.0286 30.4255 13.0084 30.4255 13.0016 30.4187C12.9948 30.412 13.0016 30.3782 12.9746 30.3849L12.9948 30.3646C12.9948 30.3646 12.934 30.3444 12.9069 30.3308C12.8258 30.2767 12.5959 30.0061 12.5215 29.9182C12.4945 29.8843 12.3863 29.7761 12.3728 29.7423C12.3593 29.7085 12.4133 29.7423 12.4066 29.7152C12.3119 29.7355 12.3322 29.6476 12.3052 29.6205C12.3052 29.6205 12.2646 29.6003 12.2375 29.5664C12.2105 29.5326 12.1631 29.4244 12.1429 29.4041C12.1293 29.3905 12.0888 29.3567 12.0685 29.3297C12.0482 29.3026 12.0009 29.1876 11.9806 29.1741C11.9603 29.1606 11.9333 29.1876 11.9603 29.1132C11.8995 29.1335 11.8927 29.0456 11.8657 29.005C11.8048 28.9103 11.7507 28.8358 11.6898 28.7344C11.6898 28.7344 11.6425 28.6871 11.6425 28.6803C11.6425 28.66 11.6425 28.6465 11.656 28.6262H11.6222L11.6087 28.6532C11.629 28.5923 11.5817 28.5923 11.5681 28.572C11.5614 28.5585 11.5479 28.5315 11.5343 28.5112C11.5208 28.4909 11.5411 28.4571 11.487 28.4638L11.514 28.4165C11.514 28.4165 11.4126 28.3624 11.4397 28.3353C11.3788 28.3353 11.3923 28.2676 11.3923 28.2676C11.372 28.2338 11.3315 28.2135 11.3044 28.1526C11.2774 28.0782 11.2571 28.0782 11.2165 28.0173C11.1895 27.9768 11.176 27.9226 11.1557 27.882C11.1489 27.8685 11.1287 27.8685 11.1219 27.855C11.1151 27.8347 11.1219 27.7941 11.1219 27.7806C11.1219 27.7738 11.0881 27.7806 11.0746 27.7603C11.061 27.74 11.0746 27.7197 11.0746 27.7129C11.0746 27.7129 11.0408 27.6926 11.034 27.6791C11.0002 27.625 10.9731 27.5641 10.9461 27.51C10.7297 27.1177 10.5269 26.6983 10.3578 26.2789C10.3578 26.2721 10.324 26.2315 10.324 26.2315C10.324 26.2045 10.3172 26.1842 10.324 26.1571H10.3646L10.3713 26.0759C10.4119 26.0489 10.4457 26.0624 10.4863 26.0827L10.5133 26.0353Z" fill="#6F7A58" stroke="#6F7A58" stroke-width="0.85" stroke-linecap="round" stroke-linejoin="round"/>
<path d="M11.3045 29.3906C11.3045 29.4312 11.3383 29.4717 11.3721 29.4988C11.4059 29.5326 11.4059 29.5191 11.4397 29.5664C11.4532 29.58 11.4803 29.5935 11.4871 29.6205C11.4871 29.6341 11.4803 29.6544 11.4871 29.6544C11.4938 29.6544 11.5141 29.6544 11.5276 29.6679C11.5411 29.6814 11.5479 29.7153 11.5614 29.7356C11.744 29.9994 11.9604 30.2835 12.1564 30.5473C12.1767 30.5743 12.1767 30.6217 12.2173 30.642L12.1902 30.6826C12.1902 30.6826 12.2173 30.6826 12.224 30.6893C12.2443 30.7164 12.2646 30.7976 12.2985 30.8314L12.2714 30.8517L12.3052 30.8855C12.3052 30.8855 12.2579 30.8855 12.2308 30.8855C12.1362 30.8652 11.9806 30.7434 11.9063 30.6826C11.8725 30.6555 11.8589 30.6082 11.8048 30.6149L11.8319 30.5946C11.7913 30.5811 11.7845 30.5405 11.7643 30.5202C11.7575 30.5135 11.744 30.5067 11.7372 30.5C11.7237 30.4864 11.7372 30.4526 11.6899 30.4594L11.7169 30.4391C11.7169 30.4391 11.6832 30.412 11.6696 30.3917C11.6426 30.3511 11.6155 30.297 11.5952 30.2632C11.5547 30.2091 11.46 30.1076 11.4397 30.0535C11.433 30.0264 11.4397 29.9858 11.4397 29.9791C11.4397 29.9791 11.4127 29.9791 11.3991 29.9791C11.3856 29.9791 11.3789 29.9317 11.345 29.9453L11.3586 29.9114C11.318 29.8979 11.3045 29.837 11.2842 29.81C11.2775 29.7964 11.2504 29.7829 11.2436 29.7694C11.2031 29.7085 11.1354 29.6003 11.1354 29.5191C11.1354 29.4379 11.1963 29.492 11.1963 29.4176L11.2098 29.4379H11.2301C11.2301 29.3973 11.291 29.4041 11.3248 29.3906H11.3045Z" fill="#6F7A58" stroke="#6F7A58" stroke-width="0.85" stroke-linecap="round" stroke-linejoin="round"/>
<path d="M7.23401 8.38008C7.28134 8.4139 7.27454 8.50859 7.32188 8.53565L7.29484 8.54919C7.29484 8.58301 7.30838 8.63712 7.30838 8.67094C7.30838 9.02946 7.28809 9.38799 7.26104 9.73975C7.26104 9.77357 7.22722 9.94265 7.24074 9.96295H7.26781C7.2002 10.0103 7.26103 10.1388 7.20694 10.193L7.22724 10.2065C7.20696 10.3012 7.20694 10.3959 7.20694 10.4974C7.18665 10.9641 7.22046 11.4241 7.20694 11.8773C7.20694 11.9111 7.19342 11.9382 7.20694 11.972L7.17991 11.9855L7.20694 12.0058C7.19342 12.087 7.20694 12.1682 7.20694 12.2426C7.20694 12.2899 7.19344 12.3508 7.14611 12.2832C7.09202 12.202 7.08524 12.1614 7.05144 12.0735C7.04467 12.0464 6.99732 11.9991 6.9838 11.9653C6.87561 11.6338 6.88916 11.3023 6.88916 10.9641C6.88916 10.8018 6.87564 10.6259 6.88916 10.4635C6.88916 10.4297 6.88916 10.3485 6.92973 10.3485V10.3283L6.89593 10.3079C6.89593 10.2809 6.90943 10.2538 6.9162 10.2335C6.94324 9.79385 6.99058 9.34061 7.0041 8.90091L6.99056 8.56946C6.97704 8.52211 6.90944 8.583 6.8824 8.54242L6.9162 8.51537C6.88239 8.51537 6.8959 8.49507 6.90266 8.46802C6.85533 8.46802 6.8283 8.43418 6.87563 8.41389L6.86209 8.38685L6.9365 8.3733L6.92296 8.31241C6.98382 8.29888 7.05141 8.25831 7.11227 8.29213C7.11227 8.29213 7.22048 8.36654 7.22724 8.3733L7.23401 8.38008Z" fill="#6F7A58" stroke="#6F7A58" stroke-width="0.85" stroke-linecap="round" stroke-linejoin="round"/>
<path d="M6.11157 11.1873C6.11157 11.1873 6.11159 11.2008 6.12511 11.2076C6.13863 11.2143 6.17244 11.2211 6.17244 11.2211C6.19273 11.2482 6.14538 11.2414 6.15214 11.2549H6.17244C6.17244 11.2549 6.18594 11.2752 6.18594 11.2888C6.18594 11.3158 6.17245 11.3632 6.17921 11.3902C6.17921 11.4376 6.23331 11.5391 6.17921 11.5594C6.24007 11.5796 6.18595 11.6338 6.19271 11.6338C6.19271 11.6338 6.20625 11.6338 6.21301 11.6338C6.22654 11.6608 6.21301 11.7487 6.21301 11.7758C6.21301 11.8367 6.21975 11.9043 6.22651 11.9652C6.22651 12.0464 6.25357 12.1681 6.24681 12.2425C6.24681 12.2561 6.2468 12.2764 6.23328 12.2831C6.21299 12.2966 6.20624 12.229 6.19948 12.2155C6.19948 12.2087 6.17244 12.2087 6.17244 12.1952L6.18594 12.1546L6.15214 12.1343C6.17919 12.0802 6.14539 12.1005 6.12511 12.0734C6.05749 11.9449 6.04395 11.7082 5.9831 11.5864C5.9831 11.5729 5.96959 11.5729 5.95607 11.5729L5.98987 11.5526C5.94254 11.5526 5.96283 11.5187 5.95607 11.4917C5.94931 11.4646 5.92226 11.4511 5.9155 11.4376C5.90874 11.4173 5.94252 11.397 5.88843 11.4037C5.88843 11.3834 5.90874 11.4038 5.9155 11.3835C5.9155 11.3699 5.9155 11.3496 5.9155 11.3293C5.93579 11.282 5.96958 11.2346 5.98987 11.1873C6.0372 11.1737 6.09131 11.1737 6.13188 11.1873H6.11157Z" fill="#6F7A58" stroke="#6F7A58" stroke-width="0.85" stroke-linecap="round" stroke-linejoin="round"/>
</svg>
