<svg width="56" height="100" viewBox="0 0 56 100" fill="none" xmlns="http://www.w3.org/2000/svg">
<path d="M31.2106 0.424988C31.1835 0.573807 31.2917 0.533195 31.3931 0.526431C32.2789 0.519666 33.4622 0.445276 34.3074 0.715856C34.4832 0.769973 34.5238 0.884962 34.4426 1.04731L33.5906 1.14875L33.9017 1.33141C33.9558 1.66963 33.0227 1.66963 32.8131 1.66286L33.5839 1.95373C33.6448 2.21755 32.8536 2.39343 32.6576 2.38667L33.2796 2.64372L33.2593 2.79929C33.1917 2.894 32.2248 3.08341 32.0423 3.05635L32.9753 3.34722L33.0227 3.49606C33.0024 3.71252 32.6576 3.70577 32.6102 3.80724C32.7387 3.86812 32.786 3.93574 32.8063 4.0778C32.8063 4.42278 30.9401 5.15334 30.5953 5.33598C30.6629 5.3901 30.7373 5.44425 30.8049 5.49837C30.7575 5.55248 30.6696 5.64715 30.5344 5.71479C30.4127 5.77567 30.3045 5.78924 30.2369 5.79601C30.2369 5.94482 30.2775 6.86477 31.0483 7.50063C31.6839 8.02826 32.5561 8.14326 33.2458 7.87944C33.7394 7.69004 34.0437 7.33828 34.1654 7.20299C34.3615 6.973 34.5373 6.77684 34.5711 6.4995C34.6455 5.89746 34.0234 5.41719 33.9558 5.36984C33.9558 5.34954 34.1248 5.24808 34.1519 5.24131C34.4899 5.19396 35.3284 6.63478 35.7476 6.7836L35.7679 5.97862L36.2006 6.06656L37.3231 6.68215V6.48596C36.9377 6.39125 36.5861 5.95834 36.5455 5.57277C36.532 5.45777 36.5117 4.59868 36.7551 4.90309C36.8362 5.00455 36.9174 5.34275 37.0188 5.51187C37.2013 5.80274 37.6138 6.3236 37.9925 6.14096C37.8505 6.02596 37.7761 5.91775 37.7152 5.74188C37.6476 5.54571 37.5327 5.09924 37.8843 5.26158C37.9519 5.29541 38.628 6.00569 38.7092 5.91099C38.6957 5.62012 38.601 5.43071 38.7498 5.15337C38.9594 4.76779 39.2434 5.22099 39.5341 5.2954C39.48 5.04511 39.3786 4.8963 39.4868 4.62572C39.6288 4.51072 40.2982 5.17366 40.5213 4.85573C39.8384 4.38221 39.1284 3.94252 38.459 3.45547C37.8031 2.97519 37.0323 2.19728 36.3764 1.8117C35.9167 1.54112 35.2878 1.35169 34.801 1.10817C34.6996 1.06082 34.7266 0.837626 34.8551 0.851155C35.1999 0.898506 35.5583 1.20288 35.8693 1.29082C36.6063 1.51405 37.1811 1.63582 37.891 2.01463C39.5341 2.88725 41.691 5.07897 42.6377 6.68215C43.0704 7.41948 43.0839 7.60212 43.679 8.27857C44.0373 8.68444 44.7541 9.88175 45.0313 10.3891C45.2409 10.7747 45.3626 11.2887 45.5993 11.6337C46.032 12.2696 46.343 12.4996 46.6879 13.291C47.3708 14.8469 47.7427 16.5245 48.331 18.1141C48.4324 18.3915 48.8989 19.6429 49.0274 19.7985C49.0544 19.8323 49.2979 19.9067 49.4128 19.9811C49.9943 20.387 51.1776 21.9631 51.6103 22.5922C54.342 26.5698 54.795 30.9938 55.4171 35.6613L55.5726 37.8597V40.2408C55.478 40.4573 55.5185 40.7685 55.5185 41.0187C55.5118 43.1157 55.2075 45.4833 54.8288 47.5533C54.6801 48.3582 54.3961 49.2309 54.2812 50.0088C54.1933 50.6108 54.2203 51.3008 54.173 51.9164C54.1459 52.2546 54.0175 52.6875 54.0175 53.0055C54.0175 53.5263 54.4434 54.3043 54.5854 54.8725C55.2413 57.5174 54.6869 62.1781 53.6794 64.7284C52.8071 66.9471 51.5224 68.7871 50.2512 70.7691C49.9132 71.2967 49.6427 72.034 49.1491 72.3722C47.9523 75.6057 46.5662 78.7376 45.1598 81.8764C44.6121 83.1075 44.0711 84.9339 43.2259 85.9486C42.9893 86.2327 41.3327 87.545 41.3327 87.6803C42.1847 88.6747 43.6249 88.9723 44.8825 89.1008C46.8772 89.3038 49.7509 89.0467 51.2993 90.447C52.5367 91.5631 50.6772 91.0152 50.2648 91.0693C50.1971 91.0761 50.116 91.0964 50.1904 91.1708C50.3662 91.2722 50.6231 91.2384 50.7719 91.2858C50.8598 91.3128 51.1235 91.4143 51.2249 91.4549C51.6712 91.6308 52.131 92.226 52.3676 92.6387C52.5231 92.916 52.7057 93.2272 52.6719 93.5519C52.3406 93.606 52.0972 93.3625 51.8064 93.2543C50.8192 92.889 50.6569 93.3557 49.7982 93.4436C48.642 93.5586 47.4114 93.0107 46.3228 92.686C45.6195 92.4763 44.9028 92.2869 44.1929 92.1043C44.2943 92.2396 44.4565 92.3005 44.585 92.4155C44.7405 92.5508 44.8758 92.774 44.9975 92.8822C45.1395 93.004 45.3829 93.0919 45.5655 93.2407C45.9306 93.5451 46.343 94.1269 46.3701 94.6139C46.4107 95.358 45.5046 94.5936 45.18 94.5328C45.1665 94.5328 45.1462 94.5328 45.1259 94.5328C45.1057 94.4381 45.0313 94.4516 44.9704 94.4313C44.6932 94.3095 44.4295 94.1742 44.3213 93.8631C44.2064 93.5113 44.2064 92.9972 44.6594 92.9296C44.7135 92.8687 44.4768 92.6657 44.4227 92.6184C43.5302 91.8269 42.6985 91.854 41.6302 91.5834C41.5558 91.5631 41.4679 91.5834 41.4476 91.482H42.4551C42.8135 91.482 44.5512 91.9487 45.0245 92.0637C45.9103 92.2869 46.7758 92.6116 47.6548 92.8484C48.6217 93.1122 49.5142 93.3692 50.5014 92.9769C50.5285 92.8281 50.3053 92.8281 50.1971 92.7402C49.8793 92.4899 49.6224 92.0975 49.8929 91.7187C49.9943 91.5766 50.1701 91.5361 50.2445 91.3737C48.8719 91.2452 47.4993 91.0964 46.1469 90.8393C45.6263 90.7379 45.0516 90.6229 44.5444 90.4808C44.4092 90.4402 43.5843 90.2576 43.8818 90.0547L44.0576 90.0343C45.9035 90.6432 47.8509 90.8529 49.7779 91.0693C49.8455 91.0152 49.5345 90.7649 49.5007 90.704C49.2978 90.3455 49.521 90.1088 49.6224 89.7773C48.784 89.7096 47.9523 89.5946 47.1139 89.5202C45.3288 89.3647 43.3679 89.4661 41.7992 88.4718C41.6302 88.3635 41.069 87.9103 41.0893 87.7344L42.1982 86.4627C42.4889 86.4357 42.6039 86.2395 42.7932 86.023C43.8277 84.8663 44.2808 83.1752 44.9096 81.7681C46.5053 78.2033 48.074 74.6316 49.4196 70.9584C50.3594 68.3947 50.8463 65.8512 51.5157 63.2198C52.4014 59.7361 53.3413 56.2118 53.8079 52.6267C53.9296 51.7134 53.889 50.7326 54.0242 49.8465C54.1256 49.1632 54.3894 48.4056 54.5246 47.7021C55.789 41.1337 55.3495 34.8292 54.0039 28.3218C53.1858 25.8595 52.1242 23.6069 50.5014 21.5776C50.1363 21.1243 49.7171 20.7117 49.3655 20.2585V20.5358L49.2843 20.617C49.1221 20.5223 48.9868 20.6711 48.8854 20.6644C48.7772 20.6576 48.5473 20.4885 48.4053 20.4682C48.2836 20.4547 48.1822 20.5156 48.074 20.4953C47.8712 20.4614 47.6886 20.1638 47.5128 20.1232C47.4249 20.1029 47.337 20.1638 47.2423 20.1435C47.195 20.1367 46.4918 19.8797 46.3971 19.8459C46.2078 19.7647 45.9982 19.5279 45.8292 19.4806C45.6804 19.4468 45.8291 19.6835 45.6804 19.6362C45.6263 19.6159 45.3558 19.3656 45.295 19.4332L45.3761 19.6903C44.9502 19.4671 44.5174 19.1356 44.0576 19.0206C44.2469 19.2168 44.5309 19.4332 44.7811 19.5414C44.7608 19.6429 44.4768 19.4873 44.4227 19.4603C44.1523 19.3453 43.9156 19.1762 43.6452 19.0747L43.7533 19.2506L44.2402 19.7444C43.9224 19.6429 43.1854 18.98 42.8946 19.0206C42.8473 19.1356 42.9081 19.2032 42.7661 19.2641L42.7121 19.7444C42.5768 19.3385 42.6377 18.8785 42.117 18.8109L42.2455 19.068L41.8871 18.9665L41.9412 19.2777C41.6978 19.1356 41.7316 18.7771 41.3733 18.865L41.5829 19.3317L41.1704 19.122C41.1704 19.122 41.2921 19.352 41.1163 19.3791C41.069 19.2776 41.0149 19.1356 40.9676 19.0409C40.9405 18.9868 40.9946 18.9394 40.8594 18.9665L40.7039 19.6362C40.6024 19.582 40.6565 19.3318 40.6498 19.2235C40.6498 19.1559 40.6498 19.0882 40.6498 19.0138L40.5483 19.2235L40.3387 19.7918V19.122H40.1832C40.1562 19.3385 40.0953 19.5415 40.0277 19.7444H39.9263C39.9195 19.5888 39.933 19.4332 39.9263 19.2777C39.7978 19.3115 39.6558 19.3385 39.5273 19.3723C39.4665 19.3926 39.3718 19.3453 39.4056 19.4535C39.4192 19.4874 39.8992 19.8459 39.9263 19.9947C39.8992 20.0218 39.3313 19.6903 39.3042 19.6565C39.2095 19.555 39.3245 19.3926 39.1487 19.4197L39.3583 20.042L38.9458 19.7309L38.9999 20.3532C38.9053 20.0353 38.6483 19.7511 38.6348 19.4197C38.4793 19.44 38.2629 19.44 38.2832 19.6362C38.2967 19.7917 38.6213 20.5697 38.5875 20.6102C38.4522 20.6373 38.4996 20.5764 38.459 20.5088C38.2967 20.2382 38.1345 19.9203 38.0195 19.6294C37.9248 19.6294 37.9113 19.6024 37.9181 19.7038C37.9248 19.9068 38.0871 20.1164 38.0195 20.3532C37.7761 20.2517 37.7558 19.6429 37.4988 19.7579L37.6544 20.1976C37.3907 20.1097 37.411 19.7715 37.0593 19.8324C36.7618 19.8865 37.154 20.1976 37.0864 20.4005L36.5725 19.9879L36.8836 20.6102L36.2141 20.042L36.2683 20.8199C36.106 20.6914 36.0992 20.3938 36.0248 20.2112C35.991 20.1368 36.0181 20.13 35.9099 20.1435L35.8084 21.077C35.6462 21.0432 35.7408 20.5561 35.68 20.5561L35.4974 21.077C35.4501 20.8741 35.4569 20.6644 35.4433 20.4547C35.4433 20.3397 35.4974 20.2112 35.3419 20.245C35.3419 20.3126 35.3419 20.3803 35.3419 20.4547C35.3351 20.6576 35.3487 20.8673 35.3419 21.077C35.1729 20.962 35.1796 20.6847 35.1188 20.4953C35.0985 20.4411 35.1052 20.3397 35.0309 20.3532C35.0038 20.5629 35.1052 20.8538 34.9497 21.0229L34.7672 20.5088L34.5846 20.9756L34.5102 20.7185L34.3818 21.2326C34.2939 21.1717 34.3074 21.0905 34.3006 21.0026C34.3006 20.9485 34.348 20.3465 34.1992 20.5088L34.1451 21.2326L33.9423 20.8673L33.8408 21.2258L33.7867 20.8132L33.5839 21.1244C33.5433 21.0026 33.6853 20.6238 33.4825 20.6576L33.381 21.3273L33.2255 21.0161C33.1917 21.1379 33.1579 21.2596 33.1241 21.3814L33.07 21.2258H32.9686C32.9618 21.2935 32.9821 21.3747 32.9686 21.4355C32.9551 21.4897 32.901 21.7129 32.8672 21.6452C32.8672 21.4761 32.8672 21.3002 32.8672 21.1311C32.8672 21.0702 32.8874 20.8741 32.8401 20.8741C32.7928 20.9417 32.786 21.0499 32.7657 21.1311C32.7319 21.2326 32.7184 21.4423 32.6102 21.4964V20.9823L32.3736 21.3408L32.2992 21.0838L32.1166 21.6046L32.0423 21.1379C32.0423 21.3138 31.9476 21.4491 31.8867 21.6046H31.7853C31.7718 21.4152 31.8191 21.3002 31.8394 21.1379C31.8462 21.0702 31.8394 20.9958 31.8394 20.9282C31.7177 20.9485 31.7583 21.077 31.738 21.1379C31.6163 21.422 31.596 21.4761 31.3661 21.6587C31.3526 21.6723 31.2106 21.8887 31.2241 21.679C31.2376 21.4626 31.3323 21.2393 31.3796 21.0296C31.2849 20.9282 31.001 21.5235 30.9401 21.5437L30.886 21.3341L30.5479 21.5641L30.8049 21.0229C30.6155 20.9755 30.5953 21.1852 30.4938 21.307C30.3992 21.4152 30.291 21.564 30.1355 21.5437L30.1896 21.2867C29.6689 21.4896 29.439 22.1255 29.3106 22.6328C29.1145 22.6734 29.2429 22.3555 29.2091 22.2472L29.1077 22.2202L28.7967 22.7614C28.9184 22.6869 29.2024 22.6058 29.1347 22.8425C29.0807 23.0252 28.4315 23.5934 28.2895 23.864C28.2895 23.8707 28.2017 24.094 28.276 24.0602C28.4586 23.9113 28.844 23.2619 28.9995 23.1807C29.0671 23.1469 29.1348 23.1469 29.2024 23.1537C29.2362 23.4649 28.8508 23.5867 28.7358 23.8505L28.9387 23.8234L28.9657 24.0263L27.9312 25.271L27.85 25.8392L28.8508 24.5066L29.0942 24.439C29.1348 24.6419 29.0401 24.7298 28.9387 24.8786C28.7358 25.1763 27.823 25.9813 27.8027 26.2315C27.7892 26.4007 27.9177 26.4616 27.9109 26.5833C27.9109 26.6848 27.7824 26.8945 27.7621 27.0568C27.7419 27.2057 27.6878 28.1459 27.7148 28.2339C27.7419 28.3286 27.8568 28.3421 27.8636 28.4977C27.8636 28.6668 27.7216 28.9035 27.7148 29.0253C27.7148 29.0929 27.8095 29.1809 27.8162 29.3229C27.8298 29.5867 27.681 29.9723 27.654 30.2564C27.6337 30.4932 27.6404 30.7908 27.654 31.0344C27.654 31.0952 27.6134 31.2237 27.7081 31.217V30.412C27.7081 30.3647 27.8906 30.2429 27.965 30.2835C28.0732 30.3917 27.7351 31.4876 27.7148 31.7108C27.7013 31.8529 27.6607 32.0896 27.8095 32.1437L27.965 31.6499L28.1746 31.7108C28.1205 31.8935 28.0394 32.0693 27.965 32.2452C27.8636 32.4887 27.7689 32.5023 27.7554 32.8405C27.7554 32.8811 27.7419 33.0299 27.8095 32.9419L27.965 32.2926C28.0326 32.2587 28.2355 32.164 28.2287 32.3196C28.2287 32.4549 27.938 33.0434 27.965 33.0704H28.1138C28.2084 33.3951 27.8839 33.6387 27.8568 33.9228C27.8365 34.2069 28.0529 33.8551 28.1138 34.1257C27.9921 34.4775 27.7283 34.7345 27.8027 35.1404L28.2693 34.2137L28.5262 34.2881L27.8095 35.641C27.8298 35.7086 27.8433 35.9995 27.8568 36.013C27.8839 36.0401 28.0732 35.986 28.107 36.101L27.85 36.7436L28.0799 36.4866L28.2016 36.5745C28.276 36.8113 28.0056 36.9533 27.9582 37.1495C27.8906 37.4336 28.0461 37.5486 28.0394 37.65C28.0326 37.853 27.5525 38.3671 27.6337 38.7865C27.6404 38.827 27.823 38.8473 27.7689 39.03C27.7081 39.2397 27.3497 39.6726 27.2415 39.9094C27.3024 40.1664 26.9508 40.6941 26.9575 40.8632C26.9575 40.8902 27.1401 40.8632 27.0319 41.1473L25.8757 43.0346C25.6119 43.1428 25.4294 43.0549 25.5579 42.7572L25.2671 42.7099C25.1589 41.4449 25.4564 40.1191 25.8283 38.915C25.9095 38.6579 26.1056 38.3332 26.1664 38.11C26.2002 37.995 26.1664 37.765 26.2273 37.6636C26.2611 37.6027 26.3625 37.6635 26.3828 37.5959C26.3963 37.5621 26.4775 37.1968 26.4842 37.1359C26.4842 37.1089 26.4842 37.0818 26.4842 37.0615C26.4504 37.0209 26.0988 37.5283 26.065 37.5959C24.0162 41.5464 24.2258 45.2669 23.9013 49.5623C23.6646 52.6943 23.3468 55.9615 22.9614 59.08C22.7383 60.8929 22.4475 62.7937 21.8931 64.5322C21.1561 66.8592 19.9457 68.9832 18.9315 71.1681C18.8571 71.3305 18.7422 71.2358 18.6813 71.2764C18.6543 71.2899 18.519 71.6823 18.5934 71.7364C18.7151 71.6484 18.8368 71.4049 18.9315 71.3237C18.8368 71.8649 18.3906 72.3452 18.3635 72.8796L18.9585 72.0002C19.0194 71.9461 19.2425 71.662 19.2425 71.8717L18.235 73.759L18.208 74.2527L18.6746 73.4749L18.9585 73.2381L18.9856 73.3192C18.7827 73.9078 18.208 74.6789 18.1539 75.281C18.1539 75.3351 18.1201 75.5245 18.208 75.5177C18.2959 75.0307 18.5867 74.6383 18.8301 74.2257C18.9247 74.2392 18.8165 74.4828 18.803 74.5369C18.6543 75.0578 18.4379 75.5651 18.3094 76.0927C18.6407 75.7815 18.8233 75.1998 19.2899 75.0848C19.0262 75.6192 18.5866 76.1333 18.3162 76.6474C18.1269 77.0127 18.1133 77.2495 18.1539 77.6689C18.1539 77.7162 18.1742 77.865 18.2553 77.8515L18.8639 76.4715L19.1343 76.1468C19.0126 76.5189 18.9112 76.8977 18.776 77.263C18.5123 77.9529 18.0728 78.5212 18.3094 79.3059C18.519 79.1503 18.5461 78.7512 18.8233 78.7106L18.3568 80.0093L18.4109 80.5505C18.5123 80.6723 18.7151 80.0297 18.8233 80.0364C18.8436 80.4152 18.5528 80.9091 18.5326 81.2608C18.519 81.4773 18.634 81.7749 18.6205 82.0049L18.776 81.7952C18.8098 81.9711 18.7084 82.1334 18.6881 82.2958C18.6407 82.7354 18.5055 83.7163 18.3365 84.129C18.2486 84.3454 18.0728 84.5145 18.0998 84.8257C18.1133 84.9339 18.2283 84.9677 18.2553 85.0827C18.3094 85.3533 18.235 85.8133 18.2553 86.1177C18.2756 86.4762 18.3635 86.8618 18.3635 87.2271C18.4582 87.2135 18.4447 87.1189 18.4717 87.0512C18.5664 86.8009 18.634 86.5439 18.7219 86.2936H18.8233C18.7354 86.6251 18.8098 86.9903 18.6813 87.315C18.5393 87.6735 18.181 87.7074 18.1133 87.288L17.9443 85.8268L17.7347 87.0715V85.5698C17.6197 85.6171 17.4034 85.7254 17.3222 85.7998C16.7407 86.3274 15.8076 88.0929 15.2464 88.8438C14.3877 90.0005 13.3058 91.2249 12.0752 91.9893C11.798 92.1652 11.2233 92.5372 10.8919 92.4561C10.8176 92.4019 10.7905 92.2531 10.8041 92.172C10.8446 91.8878 12.251 90.7243 12.5418 90.4335C14.0496 88.9588 15.4831 87.3624 16.4906 85.4954C16.335 85.2721 15.8144 85.0895 15.5913 85.2518C14.0699 87.1797 12.8528 89.5203 10.9393 91.1032C10.7229 91.279 10.3172 91.7052 10.0941 91.3805C10.0603 91.2722 10.1549 91.0896 10.2023 90.9814C10.5877 90.0614 11.4261 88.81 12.0144 87.978C12.3322 87.5315 12.7446 87.0986 12.988 86.6251C12.8258 86.5777 12.8596 86.4221 12.9137 86.2868C12.9745 86.1177 13.7386 85.3939 13.9211 85.2248C14.2322 84.9339 14.5905 84.6904 14.9016 84.3995C14.9016 84.3724 14.7528 84.2845 14.7123 84.2777C14.6108 84.2642 14.0767 84.6904 13.9482 84.7919C12.4809 85.9418 11.0339 87.4638 9.72895 88.8032C9.26916 89.2767 8.34958 90.4673 7.8357 90.7378C7.32182 91.0084 7.56524 90.3793 7.45705 90.2102C7.20687 89.8179 5.46915 90.7717 5.05669 90.6973C4.86737 90.5281 5.15811 90.244 5.27981 90.102C6.76737 88.3906 8.54567 87.1053 10.3443 85.7524C11.0069 85.2518 11.6493 84.7174 12.3119 84.2304C12.3119 84.1222 12.0617 84.2574 12.0211 84.271C9.53286 85.3262 7.36239 86.5777 4.71184 87.3624C4.13711 87.5315 2.69013 87.9441 2.16948 87.6938C2.04101 87.6329 1.98692 87.4503 2.10186 87.3285C2.34528 87.0783 3.35953 86.9633 3.62999 86.6047L1.66236 86.3206C1.26343 86.1109 1.50008 85.9824 1.79759 85.8809C2.53461 85.6374 3.41361 85.5157 4.1912 85.2722C6.83498 84.4469 9.83714 83.2157 12.2916 81.9373C12.6297 81.7614 13.1098 81.5381 13.1503 81.1187C10.6215 81.7749 8.2414 82.8911 5.78018 83.7569C4.52252 84.2034 2.8186 84.8324 1.52713 85.0354C1.47304 85.0421 1.34457 85.0895 1.35809 84.9948C2.6428 84.4266 4.0154 84.0748 5.34068 83.6216C5.96951 83.4051 6.58481 83.1548 7.20688 82.9248C7.4841 82.8234 7.82218 82.7693 8.08589 82.5866C7.97094 82.5596 7.80866 82.6272 7.69371 82.661C7.51791 82.7151 7.34211 82.8234 7.20012 82.8708C6.63214 83.0602 6.03036 83.209 5.45562 83.3713C4.63747 83.6013 3.14991 84.0816 2.36556 84.1628C1.6015 84.2372 1.06058 83.9869 0.424988 83.5945V83.4931C0.533173 83.4254 0.661643 83.3916 0.783352 83.3646C1.58122 83.1819 2.5008 83.1143 3.33248 82.9654C6.12502 82.4446 10.5742 81.4367 12.988 80.0026C13.4478 79.732 13.9955 78.6632 14.1916 78.1559C14.2119 78.1085 14.2728 78.0003 14.2051 77.9665C13.9955 78.1559 13.8738 78.4265 13.6642 78.6159C13.6304 78.6497 13.272 78.9203 13.3532 78.7173L14.3336 77.3171C14.3877 77.1412 14.1172 77.3374 14.0767 77.2697L15.0098 75.7139L14.6311 75.9574L14.3877 75.998L15.0098 75.1998L14.4621 75.4839C14.3945 75.5042 14.3674 75.4839 14.3877 75.4095C14.4621 75.1592 14.9624 74.7939 15.0098 74.476L14.7528 74.6045L14.9557 73.9551L14.6987 74.0092L15.1112 73.2584L14.8002 73.3598V73.2381C14.9489 72.9404 15.6724 72.1963 15.7197 71.9258C15.7333 71.8581 15.5913 71.459 15.5777 71.3102C15.4966 70.397 15.7806 69.4703 15.8347 68.5638C15.9361 66.9471 15.5642 65.371 15.6318 63.7475C15.713 61.6302 16.2336 59.5535 16.619 57.4836C15.5304 54.9604 14.9286 52.0111 15.5034 49.2782C15.6792 48.4327 15.9767 47.6142 16.1322 46.7551C16.3148 45.7539 16.3824 44.7528 16.5987 43.7516C16.8692 42.4731 17.3087 41.2894 17.7888 40.0785C17.9646 39.632 18.0322 39.2329 18.1674 38.7526C18.9653 35.9657 20.9397 32.4549 22.4678 29.9588C23.4077 28.4233 24.8411 26.8674 25.5511 25.2845C26.7344 22.6464 26.633 19.5076 28.9454 17.4512C29.1212 17.2956 29.5337 17.1265 29.5878 16.856C29.7298 16.1254 28.7561 14.3396 28.3639 13.6834C27.5999 12.3914 26.6262 11.0046 25.7066 9.82085C25.1454 9.10381 24.8614 8.61003 24.023 8.1974C22.9546 7.67653 21.4265 7.14211 20.4731 6.48596C20.3447 6.39802 20.1418 6.09363 20.0336 6.03275C19.6279 5.78246 18.5461 5.60658 17.9578 5.31571C17.5183 5.10601 16.1457 4.29428 16.0984 3.80724C16.0781 3.63136 16.5379 3.29311 16.6934 3.18488C18.2148 2.13638 20.0877 2.55581 21.8052 2.71139C21.9877 2.72492 22.3867 2.64373 22.4813 2.81961L22.4543 2.97518L21.6767 3.3134C21.6294 3.45546 21.8795 3.37428 21.9269 3.35399C22.1568 3.27958 22.292 3.11724 22.4543 3.02931C23.0223 2.71137 23.1845 2.59639 23.8742 2.61668C24.9628 2.6505 25.5173 2.99547 26.5721 2.46784C27.796 1.85903 28.5397 1.31112 29.6351 0.918783C29.8042 0.857903 30.3383 0.830825 30.9807 0.560245C31.0956 0.512893 31.1835 0.472311 31.2444 0.438489L31.2106 0.424988ZM21.5888 3.3743H21.4874V3.42166H21.5888V3.3743ZM26.4504 5.86363C24.0365 5.44423 22.0892 3.48931 19.5671 3.63813L20.1148 3.84105C20.1824 3.88164 20.223 4.04399 20.1824 4.09811C20.0742 4.25369 18.6543 4.21308 18.4311 4.49042C18.3973 4.646 19.655 5.59982 19.8646 5.69452C21.386 6.41832 24.2799 5.98539 25.9568 5.90422C26.1326 5.89745 26.3693 6.03274 26.4504 5.85686V5.86363ZM43.5505 19.0071V19.0612C43.5505 19.0612 43.5843 19.0274 43.5505 19.0071ZM28.702 22.8425V22.8966C28.702 22.8966 28.7358 22.8628 28.702 22.8425ZM28.0056 24.9125L28.6006 23.9316C28.3369 24.1346 28.0259 24.3984 27.965 24.7433C27.9582 24.7975 27.9109 24.926 28.0056 24.9125ZM23.144 38.5226C23.144 38.5226 23.2048 38.5024 23.2183 38.4686C23.286 38.3265 23.2319 38.1574 23.1169 38.0559L22.7788 38.3129C22.7721 38.1709 23.144 37.6433 22.7518 37.7921C22.5151 37.88 21.8458 38.7797 21.67 39.0435C21.5415 39.2329 21.3724 39.5238 21.2642 39.7267C21.1763 39.9026 20.9059 40.4235 20.8653 40.5791C20.8383 40.6941 20.9667 40.7482 20.96 40.8158C20.9329 40.9782 20.2365 41.5802 20.3717 41.8846C20.7977 41.3637 20.8991 41.8034 20.5069 42.1214L20.6557 42.3649L19.8849 43.5148C20.4664 43.4404 19.8781 43.9275 19.8375 44.0966C19.8105 44.2049 19.9255 44.2522 19.9322 44.3469C19.9593 44.5701 19.3913 45.0436 19.4657 45.3548L19.7226 45.3007C19.7361 45.6592 19.371 45.8892 19.2696 46.2206C19.229 46.3559 19.0532 47.2962 19.0532 47.4044C19.0532 47.5397 19.1682 47.5871 19.1546 47.7562C19.1411 47.9524 18.8842 48.1485 18.8909 48.3853C18.8909 48.5003 19.0194 48.4665 19.0464 48.5476C19.1005 48.7032 18.7557 49.2376 18.7016 49.4338C18.6543 49.6097 18.5326 50.2929 18.5326 50.462C18.5326 50.5567 18.6272 50.5297 18.6543 50.6041C18.7489 50.8341 18.0998 51.5782 18.5258 51.7405L18.5393 51.8081C18.3568 52.1667 18.2824 52.5184 18.2824 52.9243C18.3703 52.9311 18.3297 52.8093 18.4176 52.7755C18.492 52.7484 18.6137 52.7349 18.5934 52.8499C18.5731 53.0055 18.3297 53.3099 18.2824 53.4722C18.2418 53.6143 18.4582 53.5196 18.492 53.5466C18.5461 53.8307 18.2756 54.1081 18.235 54.3516C18.181 54.6763 18.1472 55.7248 18.1742 56.0563C18.181 56.1645 18.2756 56.2457 18.2689 56.3065C18.2621 56.3674 18.1133 56.638 18.0863 56.7936C18.039 57.0371 18.0863 57.3145 18.066 57.4903C18.0525 57.585 17.9578 57.6527 17.9646 57.815C17.9714 57.9774 18.181 57.815 18.181 58.0721C18.181 58.2615 17.9511 58.5321 17.8902 58.7215C17.8632 58.8162 17.8496 58.9244 17.8294 59.0191C17.6197 60.0541 17.5995 61.1364 17.3425 62.1646C17.329 62.2728 17.4845 62.2525 17.5318 62.3405C17.6333 62.5299 17.1126 63.5851 17.1938 63.8895C17.3155 63.8895 17.4372 63.8692 17.4507 64.0248C17.4777 64.2886 17.0112 65.486 17.1397 65.601H17.3493C17.4237 65.6686 17.1938 66.8186 17.187 67.0215C17.187 67.4003 17.2614 68.0226 17.3019 68.415C17.3222 68.6112 17.4034 68.8141 17.4034 69.017C17.5657 69.0576 17.471 68.9021 17.5589 68.8344C17.5995 68.8074 17.6806 68.8209 17.7144 68.7735C17.8226 68.6247 18.1607 67.2244 18.2148 66.9539C18.4988 65.486 18.3568 64.0384 18.6881 62.5637C18.7963 62.097 18.9653 61.6302 19.1073 61.1702C19.1411 60.9267 18.803 61.3731 18.7489 61.1973C18.8909 61.1837 18.8639 61.0349 18.9788 60.9334C19.2087 60.7373 19.1952 60.9335 19.2628 60.4938C19.2628 60.46 19.2763 60.4126 19.2358 60.4194L18.6948 61.0146C18.7963 60.8049 18.8842 60.5885 18.9923 60.3855C19.1141 60.1691 19.3913 59.9932 19.2831 59.7497L18.9991 60.0879C19.0194 59.7429 19.3913 59.1882 19.4116 58.8974C19.4116 58.8635 19.4251 58.8094 19.3845 58.8161C19.2763 58.9041 19.2358 59.0597 19.1614 59.1611C19.1276 59.2085 19.1343 59.31 19.0464 59.2017C19.1005 58.8026 19.5333 58.2953 19.4589 57.9097C19.2358 56.6989 19.2155 55.5827 19.6144 54.3854C19.7767 53.8916 20.0674 53.4993 20.1824 53.0122L20.0269 52.9851C20.2771 52.5996 20.5069 52.2478 20.5408 51.7675L20.2838 51.9976C20.4258 51.6458 20.6557 51.3346 20.5949 50.9355L20.5205 50.8814C20.5205 50.8814 20.5002 50.9288 20.4934 50.9355C20.3717 51.037 20.3041 51.2196 20.1959 51.3346C20.1689 51.3684 20.1621 51.4834 20.0742 51.3752C20.1148 51.0776 20.5002 50.6582 20.5408 50.3944C20.5543 50.3132 20.5408 50.3064 20.4664 50.3199L20.1824 50.6311C20.3852 50.205 20.4934 49.9344 20.4393 49.4406C20.4393 49.4067 20.4393 49.3729 20.4393 49.3391H20.2838C20.1486 48.9874 20.1553 48.5274 20.1283 48.1486L20.3852 48.6153V47.7359L20.1283 47.9929C20.1959 47.8644 20.1959 47.6345 20.2297 47.5262C20.2297 47.5195 20.3041 47.4924 20.3244 47.4383C20.365 47.3165 20.3717 47.1948 20.4393 47.0865C20.3514 47.0392 20.3514 47.188 20.3311 47.215C20.3176 47.2218 20.2906 47.1677 20.2838 47.1677L20.5408 46.1598L20.3852 46.3424C20.3109 46.3424 20.2635 46.3695 20.2838 46.268C20.3311 46.0854 20.5408 45.8216 20.6151 45.6119C20.6489 45.5239 20.7706 45.2466 20.6422 45.1992L20.25 46.0245C20.223 45.8486 20.2973 45.6592 20.3447 45.4969C20.5948 44.5634 20.9532 43.4607 21.2845 42.5543C21.3319 42.4258 21.6158 41.6614 21.6496 41.6208C21.7037 41.5531 21.7578 41.5667 21.8322 41.5667C21.8457 41.5667 21.8728 41.6614 21.9607 41.5667L22.1974 41.0729C22.1162 40.9646 22.1094 41.0729 22.0756 41.1135C21.9877 41.2217 21.8998 41.3908 21.8322 41.5126C21.7917 41.3096 21.9675 41.0255 22.0621 40.8361C22.3596 40.2409 22.7586 39.6862 23.0696 39.1044L22.9141 39.0029C22.9006 38.8947 22.9208 38.8135 22.9682 38.7188C22.9885 38.6782 23.0831 38.57 23.1237 38.5091L23.144 38.5226ZM26.1461 39.9703C26.1326 40.0582 25.9095 41.0526 26.0177 41.0593C26.1529 40.7211 26.1394 40.3288 26.2002 39.9703C26.2002 39.9635 26.2814 39.95 26.3016 39.8417C26.3152 39.7605 26.376 38.9353 26.3287 38.9353C26.2002 39.26 26.2002 39.6253 26.1461 39.9703ZM21.67 42.0943V42.1484C21.67 42.1484 21.7038 42.1146 21.67 42.0943ZM21.5888 42.4596L21.6429 42.2025L21.4941 42.3852V42.4596H21.5956H21.5888ZM20.0404 42.8722L20.2703 42.4596C20.1486 42.5678 20.0201 42.6896 20.0404 42.8722ZM19.8849 43.6975V43.596H19.8375V43.6975H19.8849ZM20.8653 44.7325L20.8383 44.5228L20.7098 44.6513V44.7257H20.8653V44.7325ZM19.4454 45.4089V45.463C19.4454 45.463 19.4792 45.4292 19.4454 45.4089ZM20.5813 46.0313V46.0854C20.5813 46.0854 20.6151 46.0516 20.5813 46.0313ZM52.9424 65.4928C52.9424 65.5469 52.9424 65.5942 52.9424 65.6483C53.037 65.6416 53.0235 65.5401 53.0438 65.4928C54.1121 63.3619 54.5246 60.4938 54.599 58.1194C54.6328 56.9086 54.5854 55.6774 54.2068 54.5207C54.173 54.5207 54.031 55.1633 54.031 55.2242C53.9972 55.7112 54.031 56.1104 53.9634 56.6515C53.8011 57.8556 53.9634 59.08 53.8214 60.2908C53.7199 61.1229 53.3683 61.9008 53.2601 62.7328C53.2196 63.0508 53.2399 63.416 53.1993 63.7069C53.1249 64.2684 52.9221 64.9381 52.9424 65.4928ZM19.3372 59.6414V59.6956C19.3372 59.6956 19.371 59.6617 19.3372 59.6414ZM17.2479 61.5558L17.3493 60.832C17.2208 60.8793 17.0585 61.522 17.0923 61.5558H17.2479ZM15.2802 74.706C15.2059 74.6248 14.9692 75.0442 14.9692 75.1186C15.0503 75.1998 15.3208 74.7534 15.2802 74.706ZM14.3742 77.0871L14.2998 77.1615L14.3268 77.1886C14.3268 77.1886 14.4283 77.1209 14.3809 77.0871H14.3742ZM8.11293 82.5258V82.5799C8.11293 82.5799 8.14674 82.5461 8.11293 82.5258Z" fill="#6F7A58" stroke="#6F7A58" stroke-width="0.85" stroke-linecap="round" stroke-linejoin="round"/>
<path d="M27.6945 87.9576C27.6945 87.9576 27.6945 87.9915 27.6945 88.0118C27.6945 88.1065 27.6066 88.2688 27.5999 88.3974C27.5728 89.8585 29.0942 90.2711 30.2301 90.6702C31.8732 91.252 33.9625 91.5699 35.2472 92.7943C35.4028 92.9431 35.6056 93.1258 35.4568 93.3557C35.3689 93.491 34.402 93.4504 34.1857 93.4436C34.0031 93.4436 33.7462 93.3422 33.5704 93.3557C33.3946 93.3693 33.1714 93.491 32.9686 93.4707C33.6515 93.8766 34.3209 94.3095 34.9362 94.8169C35.0714 94.9319 35.2472 95.1822 35.3757 95.2566C35.5988 95.3919 35.8152 95.3783 36.0519 95.6151C36.4914 96.0548 36.9579 97.1303 36.6469 97.7188C36.4711 97.827 36.106 97.3603 35.9166 97.2521C35.849 97.2115 35.4704 97.0356 35.4163 97.0221C35.2743 97.0018 35.1188 97.1777 34.9497 97.2115C34.1316 97.3603 33.4825 96.8395 32.7657 96.6027C32.7387 96.738 32.7995 96.6906 32.8672 96.7312C33.6245 97.1709 33.9084 97.8203 34.0031 98.7064C34.0166 98.8485 34.0707 99.0717 33.9084 99.1394H33.6988C33.5298 99.0312 33.1038 98.6659 32.9348 98.632C32.8198 98.6118 32.6575 98.7403 32.5223 98.7673C31.2444 98.9906 30.0476 97.5835 29.1686 96.8665C28.1814 96.0615 27.1739 95.2295 26.0785 94.5801C24.9155 93.8901 23.739 93.4504 22.7045 92.5169C21.7646 91.6646 21.5347 91.2182 21.9674 89.9667C22.0553 89.7097 22.3123 89.2767 22.3461 89.0535C22.3732 88.8844 22.2582 88.6882 22.2582 88.5056C22.2582 88.3567 22.3393 88.2147 22.3123 88.0659L22.5692 88.1471L22.4678 88.7356C22.576 88.6612 22.6098 88.4312 22.7518 88.377C22.86 88.3297 22.887 88.5665 22.8329 88.6476C22.6436 88.925 22.745 88.8167 22.6504 89.1008C22.3191 90.0952 21.5753 90.8055 22.3867 91.7931C23.5226 93.1663 25.6593 93.8969 27.1401 94.9048C28.4045 95.7707 29.4458 96.8733 30.6426 97.7662C31.197 98.1788 31.8259 98.5847 32.5494 98.5238C32.5764 98.3885 32.5155 98.4359 32.4479 98.3953C32.1098 98.1991 31.5148 98.0909 31.5081 97.6174C31.5081 97.0897 32.049 96.7921 32.4953 96.6839C30.7102 95.1145 28.6412 93.8698 27.0116 92.1246C27.0387 91.9352 27.2483 91.9825 27.37 92.0772C28.9251 93.5384 30.6764 94.9386 32.4885 96.0683C33.2729 96.5553 33.9693 97.0018 34.9294 96.968C34.9835 96.968 35.1323 96.9883 35.1391 96.9409C35.0985 96.8868 34.9971 96.8868 34.9294 96.8665C34.7604 96.8124 34.5238 96.7786 34.3818 96.6636C34.0504 96.3862 33.9693 95.9195 34.3277 95.6286L35.0511 95.2701C33.2526 93.8563 31.197 92.8416 29.1821 91.7728C29.1686 91.5225 29.3579 91.597 29.5134 91.6443C30.5344 91.9622 31.9273 93.1595 33.0294 93.2001C33.0835 93.2001 33.1714 93.2272 33.1579 93.146C32.9551 93.1189 32.6237 92.6184 32.6373 92.4493C32.6508 92.3343 33.043 91.8946 33.0024 91.854C31.5622 91.3737 29.9867 91.022 28.6209 90.359C28.0799 90.0952 27.7013 89.872 27.4714 89.2835C27.3497 88.9656 27.0589 87.8697 27.6742 87.9712L27.6945 87.9576ZM32.7657 96.5012H32.6643V96.5486H32.7657V96.5012Z" fill="#6F7A58" stroke="#6F7A58" stroke-width="0.85" stroke-linecap="round" stroke-linejoin="round"/>
<path d="M55.5794 41.0052H55.5253C55.5253 40.7617 55.478 40.4438 55.5794 40.2273V41.0052Z" fill="#6F7A58" stroke="#6F7A58" stroke-width="0.85" stroke-linecap="round" stroke-linejoin="round"/>
<path d="M39.7505 84.129C40.0547 84.0004 40.3793 83.9193 40.6836 83.7907C40.8188 83.7366 41.6775 83.2631 41.7181 83.2969C41.8128 83.3781 41.6437 83.4119 41.6234 83.4322C40.5551 84.2236 39.1216 84.6972 37.8572 85.0489C36.8362 85.333 35.8558 85.7659 34.8145 86.0433C33.6853 86.3409 32.4006 86.5642 31.2376 86.713C30.7237 86.7807 30.1963 86.8415 29.6757 86.8145L29.6148 86.5642C29.9056 86.4559 30.2166 86.5371 30.5209 86.51C34.517 86.1515 38.0465 85.0354 41.0487 82.3431C41.2448 82.1672 41.8601 81.457 42.0156 81.3893C42.0765 81.3623 42.1779 81.369 42.1373 81.457L40.8459 82.9858C40.8459 82.9858 41.5491 82.5731 41.637 82.5122C41.7452 82.4378 41.975 82.1943 42.0629 82.1605C42.1238 82.1334 42.1644 82.174 42.1373 82.2349C42.09 82.3431 41.4747 82.8708 41.3327 82.9858C40.8256 83.3984 40.2305 83.7366 39.7031 84.0748C39.6355 84.1154 39.5206 84.1289 39.4935 84.2304C39.622 84.2778 39.6896 84.156 39.7505 84.129ZM40.7039 83.0399V83.094C40.7039 83.094 40.7377 83.0602 40.7039 83.0399ZM40.6024 83.094V83.1481C40.6024 83.1481 40.6363 83.1143 40.6024 83.094ZM39.4124 84.2304V84.2845C39.4124 84.2845 39.4462 84.2507 39.4124 84.2304Z" fill="#6F7A58" stroke="#6F7A58" stroke-width="0.85" stroke-linecap="round" stroke-linejoin="round"/>
<path d="M44.9704 94.5327C45.0178 94.5327 45.0786 94.5327 45.1259 94.5327C45.1462 94.5327 45.1598 94.5327 45.18 94.5327C45.126 94.8439 44.7744 94.8168 44.5309 94.7898C44.1388 94.7492 43.7736 94.3704 43.4355 94.181C41.3597 93.0039 37.2352 92.6049 35.8964 90.6499C35.5786 90.1899 35.5312 89.6758 35.5515 89.1211C35.5651 88.8167 35.7273 87.8156 35.8761 87.5788C35.9234 87.4976 35.9504 87.4773 36.0451 87.4909C36.3021 87.5179 36.0181 88.0862 35.9843 88.262C35.8355 89.0061 35.7138 89.8381 36.1533 90.4943C37.3839 92.3207 41.6032 92.774 43.5573 93.9036C44.2334 94.296 44.105 94.4245 44.9704 94.5327Z" fill="#6F7A58" stroke="#6F7A58" stroke-width="0.85" stroke-linecap="round" stroke-linejoin="round"/>
<path d="M29.3511 87.8021C29.2497 87.8156 29.2159 87.7615 29.1956 87.6735C29.1347 87.3421 29.2226 86.8009 29.1956 86.4289C29.1212 85.2112 28.6952 84.0275 28.5803 82.8166C28.6276 82.6746 28.8846 82.7016 28.8846 82.8572C29.0401 84.1222 29.5066 85.3466 29.4525 86.6318C29.4525 86.7739 29.3579 86.9836 29.3646 87.1121C29.3646 87.2 29.4593 87.2541 29.4593 87.4097C29.4593 87.545 29.3646 87.6668 29.3511 87.8021Z" fill="#6F7A58" stroke="#6F7A58" stroke-width="0.85" stroke-linecap="round" stroke-linejoin="round"/>
<path d="M19.3169 87.3353C19.3372 87.5044 19.2764 87.7142 19.4183 87.8562C19.4183 87.89 19.4183 87.9238 19.4183 87.9576L19.3643 88.0118C19.0397 87.4436 18.9045 86.9633 18.8436 86.3003C18.8436 86.2462 18.8639 86.1718 18.7895 86.1448C18.8098 86.1177 18.7895 85.6983 19.0262 85.9351C19.1005 86.0095 19.2831 87.1324 19.3102 87.3353H19.3169Z" fill="#6F7A58" stroke="#6F7A58" stroke-width="0.85" stroke-linecap="round" stroke-linejoin="round"/>
<path d="M27.5931 90.3387C27.6945 90.4199 27.228 90.6499 27.1807 90.677C27.0116 90.7514 25.8486 91.1302 25.7878 91.0626C25.7878 90.9949 25.7742 90.9205 25.8148 90.8529C25.8757 90.7514 27.4917 90.244 27.5999 90.3387H27.5931Z" fill="#6F7A58" stroke="#6F7A58" stroke-width="0.85" stroke-linecap="round" stroke-linejoin="round"/>
<path d="M40.785 88.4785C40.8729 88.5462 40.5551 88.695 40.5281 88.7153C40.3996 88.7897 39.48 89.2091 39.4124 89.2091C39.2704 89.2091 39.2366 89.0197 39.338 88.925C39.3583 88.9047 39.8384 88.695 39.906 88.6679C40.19 88.5664 40.4807 88.5123 40.785 88.4853V88.4785Z" fill="#6F7A58" stroke="#6F7A58" stroke-width="0.85" stroke-linecap="round" stroke-linejoin="round"/>
<path d="M40.3725 87.9576L41.4071 86.6859L41.6167 86.74C41.6978 86.828 41.6167 86.9362 41.5626 87.0039C41.3733 87.2136 40.812 87.7141 40.5821 87.8832C40.5145 87.9374 40.4807 87.9779 40.3725 87.9576Z" fill="#6F7A58" stroke="#6F7A58" stroke-width="0.85" stroke-linecap="round" stroke-linejoin="round"/>
<path d="M24.0703 88.9385C23.9824 88.9588 23.9621 88.9182 23.9283 88.8505C23.8675 88.7491 23.908 88.5664 23.8134 88.5258C23.7593 88.7017 23.6714 88.8911 23.5767 89.0467C23.5361 89.1143 23.5835 89.1752 23.4482 89.1482C23.4415 88.9723 23.597 88.1538 23.739 88.1132L24.1109 88.2958L24.0635 88.9385H24.0703Z" fill="#6F7A58" stroke="#6F7A58" stroke-width="0.85" stroke-linecap="round" stroke-linejoin="round"/>
<path d="M41.4003 88.837C41.522 88.9588 40.7647 89.3173 40.6971 89.3443C40.616 89.3782 40.3455 89.5067 40.2846 89.5067C40.1494 89.5067 40.1223 89.3444 40.1832 89.2429C40.2441 89.1414 41.353 88.7829 41.4003 88.8303V88.837Z" fill="#6F7A58" stroke="#6F7A58" stroke-width="0.85" stroke-linecap="round" stroke-linejoin="round"/>
<path d="M20.4529 87.2609L20.5813 87.1865C20.6287 87.227 20.6828 87.2677 20.703 87.3285C20.7707 87.5518 20.6557 88.3906 20.5948 88.6476C20.5813 88.695 20.5746 88.8032 20.5069 88.7897C20.5543 88.695 20.4529 88.5529 20.4529 88.5055V87.2609Z" fill="#6F7A58" stroke="#6F7A58" stroke-width="0.85" stroke-linecap="round" stroke-linejoin="round"/>
<path d="M26.8696 90.0817L25.5781 90.3929C25.5105 90.0953 25.8689 90.0547 26.092 90.0005C26.3151 89.9464 26.7276 89.8314 26.8696 90.0817Z" fill="#6F7A58" stroke="#6F7A58" stroke-width="0.85" stroke-linecap="round" stroke-linejoin="round"/>
<path d="M24.7465 89.0941C24.6248 89.2361 24.3949 88.377 24.3949 88.2891C24.3949 88.1065 24.4828 88.0591 24.6451 88.1335L24.7465 89.0941Z" fill="#6F7A58" stroke="#6F7A58" stroke-width="0.85" stroke-linecap="round" stroke-linejoin="round"/>
<path d="M38.6078 87.8562C38.5537 87.802 39.027 87.0782 39.1081 87.0241C39.2501 86.9362 39.4259 87.0512 39.3583 87.1797C39.3313 87.2338 38.8647 87.6803 38.7836 87.7479C38.7227 87.7953 38.7024 87.8764 38.601 87.8494L38.6078 87.8562Z" fill="#6F7A58" stroke="#6F7A58" stroke-width="0.85" stroke-linecap="round" stroke-linejoin="round"/>
<path d="M19.4183 87.8021C19.4183 87.6126 19.4048 87.4165 19.4183 87.2338C19.4319 87.0715 19.4792 86.855 19.682 86.9971C19.7497 87.0444 19.7023 87.6262 19.6685 87.7209C19.6347 87.8291 19.4995 87.8088 19.4183 87.8088V87.8021Z" fill="#6F7A58" stroke="#6F7A58" stroke-width="0.85" stroke-linecap="round" stroke-linejoin="round"/>
<path d="M39.737 87.9442C39.6896 87.9712 39.6423 87.9509 39.595 87.9577C39.5206 87.89 39.879 87.3421 39.9601 87.261C40.075 87.1392 40.1156 87.0648 40.2441 87.2339L40.2644 87.3489C40.1427 87.4233 39.7978 87.9104 39.7437 87.9442H39.737Z" fill="#6F7A58" stroke="#6F7A58" stroke-width="0.85" stroke-linecap="round" stroke-linejoin="round"/>
<path d="M32.9686 86.5641C33.0768 86.6656 32.5764 87.2068 32.475 87.288C32.4141 87.3353 32.3938 87.4165 32.2924 87.3894L32.6643 86.5709H32.9686V86.5641Z" fill="#6F7A58" stroke="#6F7A58" stroke-width="0.85" stroke-linecap="round" stroke-linejoin="round"/>
<path d="M20.1418 88.2147C20.0472 87.89 19.9931 87.4977 19.9863 87.1594C20.2094 87.0309 20.2297 87.2271 20.2432 87.4165C20.2635 87.6397 20.2635 87.9982 20.2432 88.2215H20.1418V88.2147Z" fill="#6F7A58" stroke="#6F7A58" stroke-width="0.85" stroke-linecap="round" stroke-linejoin="round"/>
<path d="M21.6429 88.837V87.9847C21.6429 87.8427 21.9337 87.6939 21.9539 87.9306C21.9539 87.9712 21.812 88.6882 21.7917 88.7559C21.7714 88.8303 21.724 88.8573 21.6497 88.8438L21.6429 88.837Z" fill="#6F7A58" stroke="#6F7A58" stroke-width="0.85" stroke-linecap="round" stroke-linejoin="round"/>
<path d="M20.9668 87.775C20.9938 87.5991 21.2845 87.5788 21.2778 87.7209C21.271 87.89 21.1426 88.3432 21.0817 88.5123C21.0547 88.5935 21.1087 88.6476 20.9668 88.6273C20.9938 88.3635 20.9262 88.0253 20.9668 87.775Z" fill="#6F7A58" stroke="#6F7A58" stroke-width="0.85" stroke-linecap="round" stroke-linejoin="round"/>
<path d="M25.9365 88.8911C25.8216 88.9114 25.8554 88.8912 25.8216 88.8235C25.754 88.7018 25.5241 88.0659 25.7066 88.0118C25.9839 87.9238 25.9365 88.7356 25.9365 88.8911Z" fill="#6F7A58" stroke="#6F7A58" stroke-width="0.85" stroke-linecap="round" stroke-linejoin="round"/>
<path d="M33.5839 87.5856C33.5298 87.6194 33.4081 87.6261 33.4419 87.5247L33.7597 86.8821L33.9626 86.8956C34.0234 86.9362 34.0167 86.9768 34.0031 87.0444C33.9964 87.085 33.6177 87.5653 33.5839 87.5856Z" fill="#6F7A58" stroke="#6F7A58" stroke-width="0.85" stroke-linecap="round" stroke-linejoin="round"/>
<path d="M33.1241 87.4909C33.097 87.3353 33.2255 86.6453 33.4622 86.713C33.5636 86.7806 33.5433 86.8212 33.5163 86.9227C33.5027 86.9768 33.212 87.5923 33.1241 87.4909Z" fill="#6F7A58" stroke="#6F7A58" stroke-width="0.85" stroke-linecap="round" stroke-linejoin="round"/>
<path d="M34.5238 87.7006C34.4494 87.775 34.4291 87.7006 34.4223 87.6262C34.4021 87.4706 34.3885 86.9024 34.6522 86.9768C34.8551 87.0377 34.5373 87.5653 34.5238 87.7006Z" fill="#6F7A58" stroke="#6F7A58" stroke-width="0.85" stroke-linecap="round" stroke-linejoin="round"/>
<path d="M35.707 87.2406C35.8558 87.3488 35.5177 87.8223 35.4298 87.802C35.2473 87.7614 35.4636 87.0647 35.707 87.2406Z" fill="#6F7A58" stroke="#6F7A58" stroke-width="0.85" stroke-linecap="round" stroke-linejoin="round"/>
<path d="M38.1953 87.5991C38.1277 87.5315 38.4117 87.0444 38.5807 87.0782C38.8579 87.1323 38.4184 87.687 38.1953 87.5991Z" fill="#6F7A58" stroke="#6F7A58" stroke-width="0.85" stroke-linecap="round" stroke-linejoin="round"/>
<path d="M36.6942 87.1797C36.7754 87.288 36.4846 87.9171 36.3832 87.8021L36.4576 87.2338L36.6942 87.1865V87.1797Z" fill="#6F7A58" stroke="#6F7A58" stroke-width="0.85" stroke-linecap="round" stroke-linejoin="round"/>
<path d="M32.4006 86.6183C32.5426 86.7197 32.2519 87.2474 32.0423 87.1324L32.1707 86.6656C32.2113 86.6047 32.3601 86.5912 32.4006 86.6183Z" fill="#6F7A58" stroke="#6F7A58" stroke-width="0.85" stroke-linecap="round" stroke-linejoin="round"/>
<path d="M26.917 88.5259C26.6735 88.6138 26.5721 88.0118 26.7344 87.9576C26.9981 87.8765 26.9034 88.3973 26.917 88.5259Z" fill="#6F7A58" stroke="#6F7A58" stroke-width="0.85" stroke-linecap="round" stroke-linejoin="round"/>
<path d="M27.6945 87.9576C27.6945 87.9103 27.5458 87.5788 27.7216 87.545C27.9447 87.4977 27.9109 88.032 27.9042 88.1673L27.6945 88.0118C27.6945 88.0118 27.6945 87.9779 27.6945 87.9576Z" fill="#6F7A58" stroke="#6F7A58" stroke-width="0.85" stroke-linecap="round" stroke-linejoin="round"/>
<path d="M37.7829 87.4909C37.7829 87.4909 37.9587 86.9497 38.1209 87.0241C38.3508 87.2338 38.0128 87.5044 37.7829 87.4909Z" fill="#6F7A58" stroke="#6F7A58" stroke-width="0.85" stroke-linecap="round" stroke-linejoin="round"/>
<path d="M37.6273 87.4435L37.2216 87.3894L37.2419 87.1864C37.3298 87.0512 37.7423 87.2203 37.6341 87.4503L37.6273 87.4435Z" fill="#6F7A58" stroke="#6F7A58" stroke-width="0.85" stroke-linecap="round" stroke-linejoin="round"/>
<path d="M18.8977 71.1885H18.9991V71.317C18.9991 71.3711 18.9112 71.3305 18.8977 71.344C18.803 71.4252 18.6813 71.6687 18.5596 71.7567C18.4852 71.7093 18.6205 71.317 18.6475 71.2967C18.7084 71.2561 18.8233 71.3508 18.8977 71.1885Z" fill="#6F7A58" stroke="#6F7A58" stroke-width="0.85" stroke-linecap="round" stroke-linejoin="round"/>
<path d="M28.6276 88.1132C28.4789 88.2553 28.249 87.7074 28.4451 87.6465C28.6885 87.5721 28.6276 87.9915 28.6276 88.1132Z" fill="#6F7A58" stroke="#6F7A58" stroke-width="0.85" stroke-linecap="round" stroke-linejoin="round"/>
<path d="M7.15955 82.8843C7.29478 82.8369 7.47059 82.7287 7.65315 82.6746C7.7681 82.6408 7.92362 82.5731 8.04532 82.6002C7.78162 82.7828 7.44354 82.8302 7.16631 82.9384V82.8843H7.15955Z" fill="#6F7A58" stroke="#6F7A58" stroke-width="0.85" stroke-linecap="round" stroke-linejoin="round"/>
<path d="M27.9042 32.3128L27.7487 32.9622C27.681 33.0501 27.6946 32.9013 27.6946 32.8607C27.7081 32.5225 27.8027 32.509 27.9042 32.2654V32.3196V32.3128Z" fill="#6F7A58" stroke="#6F7A58" stroke-width="0.85" stroke-linecap="round" stroke-linejoin="round"/>
<path d="M19.4183 87.8021C19.4183 87.8021 19.4183 87.8359 19.4183 87.8562C19.2696 87.7141 19.3372 87.5044 19.3169 87.3353L19.4183 87.2338C19.4048 87.4165 19.4183 87.6194 19.4183 87.8021Z" fill="#6F7A58" stroke="#6F7A58" stroke-width="0.85" stroke-linecap="round" stroke-linejoin="round"/>
<path d="M32.9213 21.4422C32.9348 21.3814 32.9145 21.3002 32.9213 21.2325H33.0227L33.0768 21.3882C33.07 21.4152 33.0768 21.4558 33.0768 21.4896L32.9213 21.4355V21.4422Z" fill="#6F7A58" stroke="#6F7A58" stroke-width="0.85" stroke-linecap="round" stroke-linejoin="round"/>
<path d="M18.7963 86.1448C18.8639 86.1718 18.8436 86.2462 18.8504 86.3003H18.6949C18.776 86.0839 18.7895 86.1651 18.7963 86.1448Z" fill="#6F7A58" stroke="#6F7A58" stroke-width="0.85" stroke-linecap="round" stroke-linejoin="round"/>
<path d="M35.3013 20.4614C35.3013 20.3938 35.3013 20.3261 35.3013 20.2517C35.4568 20.2179 35.396 20.3396 35.4028 20.4614H35.3013Z" fill="#6F7A58" stroke="#6F7A58" stroke-width="0.85" stroke-linecap="round" stroke-linejoin="round"/>
<path d="M32.8131 21.1311H32.7116C32.7387 21.05 32.7387 20.935 32.786 20.8741C32.8333 20.8741 32.8131 21.077 32.8131 21.1311Z" fill="#6F7A58" stroke="#6F7A58" stroke-width="0.85" stroke-linecap="round" stroke-linejoin="round"/>
<path d="M40.6295 19.2168H40.528L40.6295 19.0071C40.6295 19.0747 40.6295 19.1424 40.6295 19.2168Z" fill="#6F7A58" stroke="#6F7A58" stroke-width="0.85" stroke-linecap="round" stroke-linejoin="round"/>
<path d="M31.7785 21.1311H31.6771C31.7042 21.077 31.6568 20.9417 31.7785 20.9214C31.7785 20.989 31.7853 21.0634 31.7785 21.1311Z" fill="#6F7A58" stroke="#6F7A58" stroke-width="0.85" stroke-linecap="round" stroke-linejoin="round"/>
<path d="M40.0074 19.7308C39.9804 19.812 40.075 19.9202 39.906 19.8864C39.906 19.8323 39.906 19.785 39.906 19.7308H40.0074Z" fill="#6F7A58" stroke="#6F7A58" stroke-width="0.85" stroke-linecap="round" stroke-linejoin="round"/>
<path d="M31.8326 21.5978C31.8056 21.6655 31.9002 21.7872 31.7312 21.7534C31.7312 21.6993 31.7312 21.652 31.7312 21.5978H31.8326Z" fill="#6F7A58" stroke="#6F7A58" stroke-width="0.85" stroke-linecap="round" stroke-linejoin="round"/>
<path d="M34.9362 96.8597C34.9971 96.88 35.1053 96.88 35.1458 96.9341C35.1458 96.9815 34.9903 96.9612 34.9362 96.9612V96.8597Z" fill="#6F7A58" stroke="#6F7A58" stroke-width="0.85" stroke-linecap="round" stroke-linejoin="round"/>
<path d="M45.1259 94.5328C45.0786 94.5328 45.0178 94.5328 44.9704 94.5328V94.4313C45.0313 94.4583 45.1056 94.4381 45.1259 94.5328Z" fill="#6F7A58" stroke="#6F7A58" stroke-width="0.85" stroke-linecap="round" stroke-linejoin="round"/>
<path d="M20.2423 88.2147C20.2423 88.2482 20.2423 88.2817 20.2423 88.3152H20.1686C20.115 88.3152 20.1485 88.2415 20.1418 88.2147H20.2423Z" fill="#6F7A58" stroke="#6F7A58" stroke-width="0.85" stroke-linecap="round" stroke-linejoin="round"/>
<path d="M42.232 81.3352L42.1306 81.3081L42.259 81.1796L42.232 81.3352Z" fill="#6F7A58" stroke="#6F7A58" stroke-width="0.85" stroke-linecap="round" stroke-linejoin="round"/>
<path d="M19.4178 88.0118C19.4178 88.052 19.4379 88.1123 19.391 88.1123C19.3374 88.1123 19.3776 88.0319 19.3642 88.0118H19.4178Z" fill="#6F7A58" stroke="#6F7A58" stroke-width="0.85" stroke-linecap="round" stroke-linejoin="round"/>
<path d="M42.205 82.059C42.205 82.059 42.2385 82.0925 42.205 82.1126V82.059Z" fill="#6F7A58" stroke="#6F7A58" stroke-width="0.85" stroke-linecap="round" stroke-linejoin="round"/>
<path d="M19.4179 88.0113H19.3642L19.4179 87.9576C19.4179 87.9576 19.4179 87.9912 19.4179 88.0113Z" fill="#6F7A58" stroke="#6F7A58" stroke-width="0.85" stroke-linecap="round" stroke-linejoin="round"/>
<path d="M22.4205 3.01576C22.2582 3.10369 22.123 3.26607 21.8931 3.34048C21.8458 3.35401 21.5956 3.44195 21.6429 3.2999L22.4205 2.96167V3.01576Z" fill="#6F7A58" stroke="#6F7A58" stroke-width="0.85" stroke-linecap="round" stroke-linejoin="round"/>
<path d="M26.1935 39.9703H26.1394C26.1935 39.6253 26.1867 39.26 26.3219 38.9353C26.3693 38.9353 26.3084 39.7605 26.2949 39.8417C26.2746 39.95 26.1935 39.9635 26.1935 39.9703Z" fill="#6F7A58" stroke="#6F7A58" stroke-width="0.85" stroke-linecap="round" stroke-linejoin="round"/>
<path d="M26.1934 39.9702C26.1326 40.3287 26.1529 40.7211 26.0109 41.0593C25.9027 41.0593 26.1258 40.0649 26.1394 39.9702H26.1934Z" fill="#6F7A58" stroke="#6F7A58" stroke-width="0.85" stroke-linecap="round" stroke-linejoin="round"/>
<path d="M17.2479 61.5558H17.0923C17.0585 61.522 17.2208 60.8793 17.3493 60.832L17.2479 61.5558Z" fill="#6F7A58" stroke="#6F7A58" stroke-width="0.85" stroke-linecap="round" stroke-linejoin="round"/>
<path d="M21.8525 41.5261C21.9269 41.3975 22.008 41.2352 22.0959 41.127C22.1297 41.0864 22.1297 40.9782 22.2176 41.0864L21.981 41.5802C21.8931 41.6749 21.866 41.5802 21.8525 41.5802V41.5261Z" fill="#6F7A58" stroke="#6F7A58" stroke-width="0.85" stroke-linecap="round" stroke-linejoin="round"/>
<path d="M20.2432 47.5329L20.1418 47.5871C20.1148 47.5465 20.2162 47.188 20.2973 47.1744C20.2973 47.1744 20.3311 47.2286 20.3447 47.2218C20.3717 47.2015 20.3717 47.0459 20.4528 47.0933C20.392 47.2015 20.3785 47.33 20.3379 47.445C20.3176 47.4991 20.25 47.5262 20.2432 47.5329Z" fill="#6F7A58" stroke="#6F7A58" stroke-width="0.85" stroke-linecap="round" stroke-linejoin="round"/>
<path d="M20.0404 42.8723C20.0269 42.6896 20.1486 42.5678 20.2703 42.4596L20.0404 42.8723Z" fill="#6F7A58" stroke="#6F7A58" stroke-width="0.85" stroke-linecap="round" stroke-linejoin="round"/>
<path d="M20.8653 44.7325H20.7098V44.6581L20.8383 44.5295L20.8653 44.7325Z" fill="#6F7A58" stroke="#6F7A58" stroke-width="0.85" stroke-linecap="round" stroke-linejoin="round"/>
<path d="M21.5888 42.4596H21.4874V42.3852L21.6429 42.1958L21.5888 42.4596Z" fill="#6F7A58" stroke="#6F7A58" stroke-width="0.85" stroke-linecap="round" stroke-linejoin="round"/>
<path d="M20.2973 49.3458H20.4528C20.4528 49.3796 20.4528 49.4135 20.4528 49.4473H20.3041C20.3041 49.4473 20.3041 49.3661 20.2973 49.3458Z" fill="#6F7A58" stroke="#6F7A58" stroke-width="0.85" stroke-linecap="round" stroke-linejoin="round"/>
<path d="M53.0438 65.4927C53.0168 65.5401 53.037 65.6415 52.9424 65.6483C52.9424 65.5942 52.9424 65.5469 52.9424 65.4927H53.0438Z" fill="#6F7A58" stroke="#6F7A58" stroke-width="0.85" stroke-linecap="round" stroke-linejoin="round"/>
<path d="M22.9885 38.7324C22.9885 38.7324 22.9614 38.685 22.9344 38.6783C22.9614 38.6174 23.1305 38.5429 23.144 38.5226C23.1034 38.5835 23.0088 38.6918 22.9885 38.7324Z" fill="#6F7A58" stroke="#6F7A58" stroke-width="0.85" stroke-linecap="round" stroke-linejoin="round"/>
<path d="M21.5879 3.37427H21.4874V3.42119H21.5879V3.37427Z" fill="#6F7A58" stroke="#6F7A58" stroke-width="0.85" stroke-linecap="round" stroke-linejoin="round"/>
<path d="M20.6075 50.9486H20.507C20.507 50.9486 20.507 50.9017 20.5338 50.895L20.6075 50.9486Z" fill="#6F7A58" stroke="#6F7A58" stroke-width="0.85" stroke-linecap="round" stroke-linejoin="round"/>
<path d="M21.67 42.0943C21.67 42.0943 21.7035 42.1278 21.67 42.1479V42.0943Z" fill="#6F7A58" stroke="#6F7A58" stroke-width="0.85" stroke-linecap="round" stroke-linejoin="round"/>
<path d="M8.11295 82.5258C8.11295 82.5258 8.14646 82.5592 8.11295 82.5793V82.5258Z" fill="#6F7A58" stroke="#6F7A58" stroke-width="0.85" stroke-linecap="round" stroke-linejoin="round"/>
<path d="M32.4547 5.72832C32.2519 5.78244 32.1369 5.91099 32.0963 5.96511C32.3465 5.73511 32.7658 5.82304 33.0768 5.86362C33.043 5.83657 32.7793 5.64039 32.4547 5.72832Z" fill="#6F7A58" stroke="#6F7A58" stroke-width="0.85" stroke-linecap="round" stroke-linejoin="round"/>
<path d="M33.2526 6.79037C33.6109 6.62802 33.7935 6.57391 33.8341 6.41156C33.9017 6.14774 33.4757 5.78248 33.1241 5.62689C32.2924 5.26838 31.5013 5.87041 31.4405 5.91099C30.9604 6.26951 31.2106 6.50626 31.6433 6.74301M31.6433 6.74978C32.2113 7.06772 32.6711 7.06095 33.2526 6.79037ZM32.9956 5.96512C32.6846 6.03953 32.4074 6.026 32.0963 5.96512C32.1369 5.911 32.2586 5.78245 32.4547 5.72834C32.7793 5.6404 33.043 5.84334 33.0768 5.86364C33.0903 5.99893 33.0768 5.94483 32.9956 5.96512Z" fill="#6F7A58"/>
<path d="M31.6433 6.74301C31.2106 6.50626 30.9604 6.26951 31.4405 5.91099C31.5013 5.87041 32.2924 5.26838 33.1241 5.62689C33.4757 5.78248 33.9017 6.14774 33.8341 6.41156C33.7935 6.57391 33.6109 6.62802 33.2526 6.79037C32.6711 7.06095 32.2113 7.06772 31.6433 6.74978M32.9956 5.96512C32.6846 6.03953 32.4074 6.026 32.0963 5.96512C32.1369 5.911 32.2586 5.78245 32.4547 5.72834C32.7793 5.6404 33.043 5.84334 33.0768 5.86364C33.0903 5.99893 33.0768 5.94483 32.9956 5.96512Z" stroke="#6F7A58" stroke-width="0.85" stroke-linecap="round" stroke-linejoin="round"/>
<path d="M39.7505 84.129C39.6896 84.156 39.6152 84.2778 39.4935 84.2304C39.5138 84.1357 39.6288 84.1222 39.7031 84.0748L39.7572 84.129H39.7505Z" fill="#6F7A58" stroke="#6F7A58" stroke-width="0.85" stroke-linecap="round" stroke-linejoin="round"/>
<path d="M39.4124 84.2304C39.4124 84.2304 39.4459 84.2639 39.4124 84.284V84.2304Z" fill="#6F7A58" stroke="#6F7A58" stroke-width="0.85" stroke-linecap="round" stroke-linejoin="round"/>
<path d="M22.9344 38.6783C22.887 38.6783 22.8329 38.6783 22.7788 38.6783C22.7788 38.428 22.9006 38.3265 23.144 38.3671C23.1372 38.4144 23.1575 38.4888 23.144 38.5226C23.1372 38.5429 22.9614 38.6174 22.9344 38.6783Z" fill="#6F7A58" stroke="#6F7A58" stroke-width="0.85" stroke-linecap="round" stroke-linejoin="round"/>
<path d="M20.2973 46.3898V46.4709L20.1959 46.5454V46.3898H20.2973Z" fill="#6F7A58" stroke="#6F7A58" stroke-width="0.85" stroke-linecap="round" stroke-linejoin="round"/>
<path d="M20.0404 53.1204V53.2219L19.9119 53.276L19.9322 53.1204H20.0404Z" fill="#6F7A58" stroke="#6F7A58" stroke-width="0.85" stroke-linecap="round" stroke-linejoin="round"/>
<path d="M19.0528 59.2829H19.0059V59.3835H19.0528V59.2829Z" fill="#6F7A58" stroke="#6F7A58" stroke-width="0.85" stroke-linecap="round" stroke-linejoin="round"/>
<path d="M19.8578 53.3301C19.8578 53.3301 19.8914 53.3637 19.8578 53.3838V53.3301Z" fill="#6F7A58" stroke="#6F7A58" stroke-width="0.85" stroke-linecap="round" stroke-linejoin="round"/>
<path d="M20.0674 51.4631C20.0674 51.4631 20.101 51.4967 20.0674 51.5168V51.4631Z" fill="#6F7A58" stroke="#6F7A58" stroke-width="0.85" stroke-linecap="round" stroke-linejoin="round"/>
<path d="M32.9956 5.96512C32.6846 6.03953 32.4074 6.02601 32.0963 5.96512C32.1369 5.91101 32.2586 5.78246 32.4547 5.72834C32.7793 5.6404 33.043 5.84335 33.0768 5.86364C33.0903 5.99893 33.0768 5.94483 32.9956 5.96512Z" fill="#6F7A58" stroke="#6F7A58" stroke-width="0.85" stroke-linecap="round" stroke-linejoin="round"/>
</svg>
