<svg width="22" height="143" viewBox="0 0 22 143" fill="none" xmlns="http://www.w3.org/2000/svg">
<path d="M14.0903 1.58423C14.3269 1.73981 14.5568 1.92923 14.7799 2.10511C14.8475 2.15922 14.9219 2.20656 14.9828 2.26068C15.0031 2.28097 15.0301 2.29451 15.0504 2.3148C18.4988 5.33177 16.4636 10.4255 15.7942 14.288C15.3614 16.8111 14.239 23.0683 14.6447 25.3547C14.7461 25.9297 15.0707 26.5588 15.1518 27.1608C16.0511 27.5193 16.7611 27.8914 17.5522 28.4461C18.0458 28.7911 18.6002 29.2037 19.06 29.5825C20.6693 30.9219 21.4942 32.4101 21.2305 34.5341C20.9871 36.4958 21.1021 38.1058 21.1088 40.081C21.1561 62.6948 21.4604 85.2814 21.4266 107.875C20.9533 108.22 21.1494 108.707 21.0547 109.214C20.8248 110.52 19.9728 111.9 18.9721 112.759C18.6408 113.043 16.4365 114.288 16.0308 114.349C15.9903 114.349 15.4696 114.254 15.4426 114.308C15.2871 119.165 16.8355 123.853 17.0924 128.703C17.3223 133.167 16.8963 142.009 10.7433 142.069C4.5902 142.13 3.5354 134.493 4.07633 129.86C4.58345 125.503 5.42187 121.025 5.8749 116.642C5.94928 115.911 5.92222 115.14 6.07774 114.43C4.32648 113.3 2.56171 112.15 1.47309 110.317C0.830737 109.228 0.715791 108.145 0.587321 106.941L0.425049 33.8915C0.479142 32.5454 1.0539 31.2804 1.88558 30.2251C2.0411 30.2522 2.12898 30.0425 2.21012 29.9343C2.75105 29.2037 3.54892 28.5881 4.31974 28.1079C4.766 27.8305 5.91548 27.4382 6.09804 27.0188C6.37527 26.4032 6.49699 24.225 6.5308 23.4539C6.68631 19.7469 5.81404 15.9588 5.61796 12.2586C5.44215 8.99138 5.07705 4.31708 7.54504 1.83451L7.67351 1.78715L7.64644 1.69925C9.47883 -0.0324598 11.5749 0.150175 13.6169 1.35426C13.7454 1.42867 13.9144 1.47603 13.9415 1.48956C13.9888 1.52338 14.0294 1.56394 14.0767 1.591L14.0903 1.58423ZM16.1796 5.89998C15.8144 3.49858 14.1376 2.07128 11.9401 1.46247C7.5518 0.258389 6.37525 4.35766 6.29412 7.87521C6.19945 11.8121 6.8283 15.4853 7.15962 19.3681C7.37599 21.8981 7.38952 24.4686 6.86888 26.9647C9.28277 26.322 11.8724 26.1664 14.2931 26.9038C13.7522 25.402 13.8333 23.7853 13.9686 22.216C14.1782 19.7266 14.5906 16.9126 15.0166 14.4503C15.4561 11.9069 16.565 8.41638 16.1796 5.89998ZM16.6056 28.6964C12.9475 26.6467 7.99805 26.6129 4.48878 28.7978C4.10337 29.0346 3.37311 29.5014 3.12969 29.8531C3.0215 29.8599 2.9674 29.9275 2.90655 30.0087C1.7706 31.3683 1.33787 32.5251 1.10798 34.2568C1.08769 34.4056 1.02008 34.5409 1.10798 34.6897C0.999792 35.4338 1.16208 36.7799 1.15531 37.5984C1.15531 38.0517 0.993048 38.6943 1.16885 39.0393C1.10123 39.2084 0.95924 39.3775 1.16885 39.4722C1.11476 39.8172 1.18234 40.0405 1.17558 40.2975C1.06063 43.8556 1.19589 47.3867 1.20265 50.9245C1.20265 52.778 1.0877 54.6788 1.16208 56.4917C1.10799 56.6811 1.01332 57.0599 1.19588 57.1614C1.19588 57.1817 1.14854 57.202 1.14178 57.229C1.10121 57.3643 1.22968 57.3846 1.22968 57.3981C1.22968 57.4184 1.1891 57.4388 1.17558 57.4658C0.999775 57.8717 1.14179 57.6349 1.15531 57.777C1.35816 59.6169 1.15532 61.7748 1.16208 63.6283C1.16208 65.13 1.03358 67.3149 1.21614 68.7016C1.11472 68.8843 1.04036 69.1075 1.22968 69.2496C1.04036 70.961 1.16208 73.1527 1.16208 74.9115C1.16208 75.04 1.13501 75.1482 1.21614 75.27L1.19588 80.9589C1.24321 81.933 1.27702 82.9815 1.14855 83.9421C1.14855 83.9826 1.16209 84.0232 1.16885 84.0638C1.17561 84.1044 1.18235 84.145 1.18911 84.1856C1.14854 84.3412 1.05389 84.4697 1.24322 84.5441C1.20265 84.9297 1.20266 85.2003 1.20942 85.5926C1.20942 85.7346 1.20942 85.8767 1.20942 86.0255C1.2297 87.392 1.35138 88.6637 1.21614 90.0166C1.19586 90.206 1.10122 90.3075 1.28379 90.4969C1.22969 91.383 1.28377 92.2286 1.22291 93.1486C1.21615 93.2771 1.20264 93.3921 1.27702 93.5071C1.22969 94.1565 1.25673 94.772 1.23645 95.4147C1.23645 95.6717 1.29055 95.7529 1.29055 95.7732C1.27027 98.2896 1.26348 101.043 1.26348 103.674C1.26348 104.161 1.36492 104.723 1.19588 105.189L1.35815 105.257C1.39872 105.189 1.37843 105.088 1.39195 105.068L2.4265 103.694C3.00123 102.93 5.1041 101.746 6.03044 101.367C8.69452 100.278 11.886 100.441 14.55 101.469C14.6988 101.523 14.9625 101.652 15.2059 101.746C15.7536 101.956 16.0308 102.084 16.5312 102.423C16.7814 102.592 17.0518 102.916 17.3358 102.923C17.5454 103.072 17.7889 103.261 18.0255 103.444C18.1337 103.728 18.5394 103.938 18.7963 104.134C18.8166 104.154 18.8437 104.168 18.864 104.188C18.8504 104.364 19.1006 104.466 19.2223 104.567C19.3778 104.696 19.5604 104.79 19.6821 104.966L20.7369 106.414L20.4259 57.4996C20.3853 51.256 20.3244 45.0124 20.3177 38.7755C20.3177 37.3414 20.0472 35.1294 20.2568 33.7901C20.2907 33.5871 20.4529 33.4586 20.4529 33.1677C20.4394 31.5848 18.3703 29.7719 17.1465 28.9737L16.8219 28.8384C16.7746 28.8114 16.734 28.764 16.6867 28.737L16.7002 28.6422L16.6123 28.6828L16.6056 28.6964ZM15.287 105.94C14.6041 105.419 13.5155 104.919 12.6838 104.682C9.8913 103.877 7.15285 104.831 5.0838 106.793L5.18524 108.132C5.93578 107.787 6.51726 107.198 7.28132 106.853C9.47208 105.866 12.6771 106.17 14.6515 107.51C15.0639 107.787 15.4629 108.233 15.9429 108.375C16.0308 108.443 16.1255 108.511 16.2201 108.585C16.1999 108.768 16.4636 108.856 16.5785 108.964C16.5988 108.984 16.6258 108.998 16.6461 109.018C16.6664 109.038 16.6597 109.207 16.8017 109.241C16.9842 109.12 16.9842 108.91 17.0451 108.775C17.0789 108.7 17.16 108.646 17.1938 108.538C17.4169 107.76 16.2743 106.826 15.7266 106.38C15.7266 106.191 15.4493 106.062 15.3006 105.947L15.287 105.94ZM16.2742 109.485C14.2661 108.267 13.36 107.219 10.8514 106.968C9.06637 106.786 6.8283 107.34 5.67883 108.822C5.64502 108.869 5.6112 108.917 5.57739 108.957C5.82757 109.715 6.34824 110.297 6.6187 111.054C7.25429 112.874 6.57137 116.506 6.36852 118.461C6.21301 119.956 6.10479 121.458 5.91547 122.946C5.27988 127.945 3.42045 134.358 6.34822 138.924C8.20766 141.826 12.5216 142.164 14.55 139.215C14.6041 139.14 14.6988 139.059 14.638 138.958C16.7814 135.785 16.5244 129.46 16.0579 125.733C15.4696 121.066 13.4006 115.16 15.7671 110.75C15.9632 110.385 16.2269 110.06 16.4298 109.701C16.4703 109.627 16.538 109.566 16.5853 109.498L16.2742 109.478V109.485Z" fill="#6F7A58" stroke="#6F7A58" stroke-width="0.85" stroke-miterlimit="10"/>
<path d="M19.06 29.5825C18.6002 29.1969 18.039 28.791 17.5522 28.446C18.0796 28.6625 18.7084 29.136 19.06 29.5825Z" fill="#6F7A58" stroke="#6F7A58" stroke-width="0.85" stroke-miterlimit="10"/>
<path d="M14.7732 2.09827C14.5501 1.9224 14.3202 1.73974 14.0835 1.57739C14.3269 1.57739 14.7191 1.87504 14.7732 2.09827Z" fill="#6F7A58" stroke="#6F7A58" stroke-width="0.85" stroke-miterlimit="10"/>
<path d="M1.89227 30.2116C1.95313 30.1304 2.00047 30.0425 2.07485 29.9748L2.22363 29.9207C2.13573 30.0289 2.05456 30.2386 1.89904 30.2116H1.89227Z" fill="#6F7A58" stroke="#6F7A58" stroke-width="0.85" stroke-miterlimit="10"/>
<path d="M13.9483 1.48277C13.9483 1.48277 13.7522 1.42188 13.6237 1.34747L13.9483 1.48277Z" fill="#6F7A58" stroke="#6F7A58" stroke-width="0.85" stroke-miterlimit="10"/>
<path d="M7.55182 1.82774C7.59239 1.78716 7.61265 1.72627 7.65322 1.69244L7.68025 1.78039L7.55182 1.82774Z" fill="#6F7A58" stroke="#6F7A58" stroke-width="0.85" stroke-miterlimit="10"/>
<path d="M15.0498 2.30711C15.0498 2.30711 15.0029 2.27358 14.9828 2.25347L15.0699 2.21326L15.0565 2.30711H15.0498Z" fill="#6F7A58" stroke="#6F7A58" stroke-width="0.85" stroke-miterlimit="10"/>
<path d="M18.5664 71.9891C18.7558 72.1109 18.7963 72.5641 18.8369 72.7806C19.6483 77.7322 19.1953 82.305 19.0465 87.2566C18.8775 92.6615 18.7017 98.0731 19.1479 103.464C19.1276 103.613 19.0194 103.715 18.8842 103.776C18.7084 103.863 18.5935 103.721 18.4921 103.83L18.7828 104.161C18.5259 103.965 18.1202 103.755 18.012 103.471C18.1066 103.546 18.3703 103.83 18.4718 103.715C18.323 103.525 18.3095 103.167 18.2825 102.916C17.5049 94.427 18.4582 85.6467 18.4718 77.1301C18.4718 75.7434 18.323 73.457 18.5259 72.1921C18.5326 72.1312 18.5461 72.0636 18.5597 72.0027L18.5664 71.9891Z" fill="#6F7A58" stroke="#6F7A58" stroke-width="0.85" stroke-miterlimit="10"/>
<path d="M15.1924 101.34C15.1586 101.442 15.2329 101.53 14.9828 101.618L15.1856 101.773C14.949 101.679 14.6785 101.55 14.5297 101.496C14.5297 101.415 14.4959 101.334 14.4959 101.252L15.0301 101.53L15.1856 101.34H15.1924Z" fill="#6F7A58" stroke="#6F7A58" stroke-width="0.85" stroke-miterlimit="10"/>
<path d="M15.9362 108.362C15.4561 108.227 15.0639 107.78 14.6447 107.496C15.1045 107.645 15.544 108.064 15.9362 108.362Z" fill="#6F7A58" stroke="#6F7A58" stroke-width="0.85" stroke-miterlimit="10"/>
<path d="M17.3223 102.95C17.0383 102.95 16.7678 102.619 16.5176 102.45C16.8016 102.456 17.0789 102.774 17.3223 102.95Z" fill="#6F7A58" stroke="#6F7A58" stroke-width="0.85" stroke-miterlimit="10"/>
<path d="M1.21612 68.7084C1.24993 68.9587 1.27022 68.8842 1.22965 69.2563C1.03357 69.1142 1.11469 68.891 1.21612 68.7084Z" fill="#6F7A58" stroke="#6F7A58" stroke-width="0.85" stroke-miterlimit="10"/>
<path d="M17.0315 108.761C16.9707 108.896 16.9775 109.099 16.7881 109.228C16.6461 109.194 16.6597 109.025 16.6326 109.004L16.7678 109.106L17.0248 108.761H17.0315Z" fill="#6F7A58" stroke="#6F7A58" stroke-width="0.85" stroke-miterlimit="10"/>
<path d="M1.16208 39.0392C1.32436 39.3572 1.20941 39.1678 1.16208 39.4722C0.952468 39.3775 1.09446 39.2084 1.16208 39.0392Z" fill="#6F7A58" stroke="#6F7A58" stroke-width="0.85" stroke-miterlimit="10"/>
<path d="M1.18909 85.6129L1.39869 85.7684L1.18909 86.0458C1.18909 85.897 1.18909 85.7617 1.18909 85.6129Z" fill="#6F7A58" stroke="#6F7A58" stroke-width="0.85" stroke-miterlimit="10"/>
<path d="M1.10794 34.6829C1.02004 34.5341 1.08766 34.3988 1.10794 34.25C1.37841 34.4191 1.12147 34.5814 1.10794 34.6829Z" fill="#6F7A58" stroke="#6F7A58" stroke-width="0.85" stroke-miterlimit="10"/>
<path d="M1.19585 90.0369C1.39194 90.1383 1.27022 90.3819 1.26345 90.5172C1.08089 90.321 1.17557 90.2263 1.19585 90.0369Z" fill="#6F7A58" stroke="#6F7A58" stroke-width="0.85" stroke-miterlimit="10"/>
<path d="M1.27023 95.8002C1.27023 95.8002 1.21613 95.6987 1.21613 95.4417C1.35812 95.5431 1.37165 95.6649 1.27023 95.8002Z" fill="#6F7A58" stroke="#6F7A58" stroke-width="0.85" stroke-miterlimit="10"/>
<path d="M15.713 106.366C15.5643 106.245 15.287 106.13 15.287 105.933C15.4358 106.048 15.713 106.177 15.713 106.366Z" fill="#6F7A58" stroke="#6F7A58" stroke-width="0.85" stroke-miterlimit="10"/>
<path d="M16.2742 109.485L16.5853 109.505C16.5447 109.58 16.4703 109.64 16.4297 109.708C16.3959 109.634 16.3418 109.525 16.2742 109.485Z" fill="#6F7A58" stroke="#6F7A58" stroke-width="0.85" stroke-miterlimit="10"/>
<path d="M1.17555 57.4725L1.31079 57.574L1.15529 57.7837C1.14177 57.6417 0.99975 57.8784 1.17555 57.4725Z" fill="#6F7A58" stroke="#6F7A58" stroke-width="0.85" stroke-miterlimit="10"/>
<path d="M16.565 108.95C16.45 108.842 16.1863 108.754 16.2066 108.572C16.3351 108.673 16.5785 108.781 16.565 108.95Z" fill="#6F7A58" stroke="#6F7A58" stroke-width="0.85" stroke-miterlimit="10"/>
<path d="M3.1297 29.8531C3.1297 29.8531 3.22436 29.9816 3.0418 30.1101L2.90656 30.0087C2.97417 29.9342 3.02151 29.8599 3.1297 29.8531Z" fill="#6F7A58" stroke="#6F7A58" stroke-width="0.85" stroke-miterlimit="10"/>
<path d="M19.2088 104.587C19.0803 104.486 18.8369 104.384 18.8504 104.208C18.9789 104.31 19.2223 104.418 19.2088 104.587Z" fill="#6F7A58" stroke="#6F7A58" stroke-width="0.85" stroke-miterlimit="10"/>
<path d="M1.17556 84.1991C1.20936 84.402 1.26347 84.2465 1.22966 84.5576C1.0471 84.4765 1.14175 84.3479 1.17556 84.1991Z" fill="#6F7A58" stroke="#6F7A58" stroke-width="0.85" stroke-miterlimit="10"/>
<path d="M1.15527 56.4917C1.16879 56.769 1.20935 56.8908 1.18907 57.1614C1.00651 57.0599 1.10118 56.6811 1.15527 56.4917Z" fill="#6F7A58" stroke="#6F7A58" stroke-width="0.85" stroke-miterlimit="10"/>
<path d="M17.133 28.994C17.133 28.994 16.9369 28.9331 16.8084 28.8587L17.133 28.994Z" fill="#6F7A58" stroke="#6F7A58" stroke-width="0.85" stroke-miterlimit="10"/>
<path d="M1.20939 93.1688C1.41224 93.2568 1.27022 93.3853 1.26346 93.5274C1.18908 93.4056 1.20263 93.2973 1.20939 93.1688Z" fill="#6F7A58" stroke="#6F7A58" stroke-width="0.85" stroke-miterlimit="10"/>
<path d="M14.5501 139.222C14.4824 139.12 14.5839 139.039 14.638 138.964C14.7056 139.066 14.6042 139.147 14.5501 139.222Z" fill="#6F7A58" stroke="#6F7A58" stroke-width="0.85" stroke-miterlimit="10"/>
<path d="M1.16886 74.925C1.35142 75.0062 1.25673 75.1347 1.22292 75.2835C1.14178 75.1617 1.17562 75.0467 1.16886 74.925Z" fill="#6F7A58" stroke="#6F7A58" stroke-width="0.85" stroke-miterlimit="10"/>
<path d="M1.22287 57.4049C1.22287 57.4049 1.10115 57.3643 1.13496 57.2358L1.22287 57.4049Z" fill="#6F7A58" stroke="#6F7A58" stroke-width="0.85" stroke-miterlimit="10"/>
<path d="M5.57739 108.964C5.61119 108.917 5.64502 108.869 5.67883 108.829L5.71939 108.917L5.57062 108.971L5.57739 108.964Z" fill="#6F7A58" stroke="#6F7A58" stroke-width="0.85" stroke-miterlimit="10"/>
<path d="M16.6726 28.7496C16.6726 28.7496 16.6323 28.7094 16.6055 28.696L16.6927 28.6558L16.6793 28.7496H16.6726Z" fill="#6F7A58" stroke="#6F7A58" stroke-width="0.85" stroke-miterlimit="10"/>
<path d="M1.16209 84.0773C1.16209 84.0367 1.14178 83.9962 1.14178 83.9556L1.16209 84.0773Z" fill="#6F7A58" stroke="#6F7A58" stroke-width="0.85" stroke-miterlimit="10"/>
<path d="M14.5027 101.252C14.4757 91.5589 15.7334 81.6353 16.112 71.9282C16.2675 67.8357 16.112 63.7432 16.2202 59.6575C16.4771 59.7657 16.4907 60.0769 16.538 60.3204C16.8355 61.8897 16.9031 63.8379 16.9369 65.4208C17.1668 75.5811 15.8551 86.0458 15.3817 96.2264C15.3277 97.4575 15.544 100.339 15.1924 101.334L15.0369 101.523L14.5027 101.246V101.252Z" fill="#6F7A58" stroke="#6F7A58" stroke-width="0.85" stroke-miterlimit="10"/>
<path d="M16.3486 101.611C16.2337 100.894 16.2877 100.17 16.3959 99.453C16.5447 99.4395 17.2344 101.543 17.1803 101.766C17.1262 101.983 16.8828 102.328 16.6393 102.274C16.2945 102.125 16.3892 101.841 16.3486 101.604V101.611Z" fill="#6F7A58" stroke="#6F7A58" stroke-width="0.85" stroke-miterlimit="10"/>
<path d="M18.5326 72.1786L18.4717 71.5427C18.8639 71.6848 18.5867 71.8809 18.5664 71.9892C18.5529 72.05 18.5394 72.1177 18.5326 72.1786Z" fill="#6F7A58" stroke="#6F7A58" stroke-width="0.85" stroke-miterlimit="10"/>
<path d="M13.3803 139.634C12.3255 140.879 10.6756 141.102 9.14073 140.723C8.70123 140.615 7.45031 140.189 7.93715 139.58C8.28875 139.14 8.91758 139.56 9.45851 139.58C10.919 139.641 12.5621 138.741 13.36 137.517C14.4959 135.751 13.9685 134.358 14.0294 132.444C14.0564 131.49 14.2052 130.428 14.3539 129.481C14.4824 129.542 14.4891 129.65 14.5297 129.765C14.8069 130.59 14.8408 133.201 14.8475 134.175C14.8543 135.887 14.8746 137.456 13.9009 138.944C13.8603 139.005 13.813 139.066 13.8671 139.134C13.8198 139.208 13.7657 139.269 13.7116 139.337C13.5561 139.31 13.4749 139.526 13.387 139.627L13.3803 139.634Z" fill="#6F7A58" stroke="#6F7A58" stroke-width="0.85" stroke-miterlimit="10"/>
<path d="M12.197 137.767C12.1023 137.821 12.1429 137.997 11.9536 137.801C12.1902 137.037 12.339 136.164 12.4066 135.373C12.5959 133.1 12.1158 131.003 11.9062 128.777C11.6966 126.552 11.5817 124.258 11.5749 122.019C11.5749 121.093 11.5005 118.455 11.744 117.71C11.9468 117.081 12.3931 117.413 12.4472 117.92C12.5148 118.63 12.2646 119.889 12.2511 120.7C12.2105 123.203 12.3187 126.078 12.5621 128.628C12.792 131.003 13.8468 135.657 12.4269 137.618L12.2037 137.774L12.197 137.767Z" fill="#6F7A58" stroke="#6F7A58" stroke-width="0.85" stroke-miterlimit="10"/>
<path d="M13.2991 117.582C13.3059 117.298 13.0895 116.878 13.4141 116.56L13.7792 116.588C14.0564 116.784 13.8739 118.488 13.8874 118.887C13.9077 119.632 13.9347 120.396 13.9685 121.133C14.0835 123.623 14.5906 126.112 14.2661 128.601L14.1511 128.676C14.1037 128.256 13.955 127.864 13.8806 127.451C13.4817 125.246 13.2721 122.161 13.3329 119.97C13.3329 119.848 13.2991 119.78 13.2991 119.726C13.2991 119.706 13.2315 119.692 13.2315 119.672L13.2112 119.55C13.2112 119.002 13.2721 118.427 13.2856 117.88C13.2856 117.778 13.2991 117.677 13.3059 117.568L13.2991 117.582Z" fill="#6F7A58" stroke="#6F7A58" stroke-width="0.85" stroke-miterlimit="10"/>
<path d="M13.3803 139.634C13.4682 139.526 13.5493 139.316 13.7049 139.343C13.6237 139.451 13.5291 139.661 13.3803 139.634Z" fill="#6F7A58" stroke="#6F7A58" stroke-width="0.85" stroke-miterlimit="10"/>
<path d="M12.197 137.767L12.4201 137.612C12.3255 137.74 12.2782 137.713 12.197 137.767Z" fill="#6F7A58" stroke="#6F7A58" stroke-width="0.85" stroke-miterlimit="10"/>
<path d="M13.3262 119.977L13.191 119.875L13.2924 119.74C13.2924 119.794 13.3262 119.862 13.3262 119.983V119.977Z" fill="#6F7A58" stroke="#6F7A58" stroke-width="0.85" stroke-miterlimit="10"/>
<path d="M13.8671 139.134C13.813 139.066 13.8671 139.005 13.9009 138.944C13.955 139.012 13.9009 139.073 13.8671 139.134Z" fill="#6F7A58" stroke="#6F7A58" stroke-width="0.85" stroke-miterlimit="10"/>
<path d="M13.2788 117.893C13.2045 117.792 13.2248 117.683 13.2991 117.582C13.2991 117.69 13.2856 117.792 13.2788 117.893Z" fill="#6F7A58" stroke="#6F7A58" stroke-width="0.85" stroke-miterlimit="10"/>
<path d="M13.2247 119.686C13.2247 119.686 13.2112 119.618 13.2045 119.564L13.2247 119.686Z" fill="#6F7A58" stroke="#6F7A58" stroke-width="0.85" stroke-miterlimit="10"/>
<path d="M13.6034 2.94385C15.6589 4.54028 15.4155 7.06346 15.0436 9.34986C14.6447 11.8054 14.0226 14.2068 13.7116 16.6623C13.3735 19.3546 13.1909 22.0739 13.2247 24.7797L12.8596 25.2126L12.5486 24.9353C12.5621 23.5553 12.4945 22.1889 12.5959 20.8089C12.8055 17.9746 13.245 14.9576 13.7454 12.1706C13.9144 11.2304 14.55 9.22808 14.5162 8.40281C14.5027 8.1187 14.2457 7.55049 14.1916 7.21903C13.9009 5.58202 13.7859 4.44556 12.4201 3.22795C12.2916 3.11295 12.1429 2.97767 11.9536 2.98444C11.7372 2.84238 11.2504 2.63946 11.1692 2.45006C11.1016 2.28771 11.2842 1.90889 11.4532 1.84801C11.6425 1.78036 12.7041 2.39595 12.934 2.538C13.0895 2.63947 13.2248 2.78153 13.3803 2.883L13.6034 2.93708V2.94385Z" fill="#6F7A58" stroke="#6F7A58" stroke-width="0.85" stroke-miterlimit="10"/>
<path d="M11.6763 17.6499C11.8318 17.2981 11.8048 17.0005 11.8521 16.6082C12.1023 14.4638 12.4742 12.0421 12.7311 9.78954C12.8123 9.08603 12.7379 8.20666 12.9002 7.55726C13.0084 7.10404 13.3803 6.99582 13.5831 7.39492C13.6237 7.4761 13.4749 9.01165 13.4479 9.26193C13.0489 13.6115 12.4742 18.6037 11.7507 22.8992C11.6763 23.3524 11.5343 24.2791 11.4059 24.6715C11.372 24.7797 11.2706 25.0029 11.1422 25.0164C11.0948 23.7041 11.1083 22.5677 11.3247 21.2757C11.345 21.1472 11.3383 21.0322 11.2707 20.9172C11.5682 20.1054 11.5276 18.8066 11.7101 17.9069C11.7237 17.8325 11.913 17.7784 11.6763 17.6634V17.6499Z" fill="#6F7A58" stroke="#6F7A58" stroke-width="0.85" stroke-miterlimit="10"/>
<path d="M13.6034 2.94387L13.3803 2.88975C13.2248 2.78828 13.0895 2.64626 12.934 2.54479C13.1842 2.51097 13.3938 2.82211 13.6034 2.94387Z" fill="#6F7A58" stroke="#6F7A58" stroke-width="0.85" stroke-miterlimit="10"/>
<path d="M12.4133 3.23471C12.2443 3.29559 12.0888 3.07913 11.9468 2.99119C12.1362 2.97766 12.2781 3.11971 12.4133 3.23471Z" fill="#6F7A58" stroke="#6F7A58" stroke-width="0.85" stroke-miterlimit="10"/>
<path d="M11.3247 21.2689L11.1219 21.1133C11.1557 21.0389 11.2571 20.9713 11.2774 20.9104C11.345 21.0322 11.3518 21.1404 11.3315 21.2689H11.3247Z" fill="#6F7A58" stroke="#6F7A58" stroke-width="0.85" stroke-miterlimit="10"/>
<path d="M11.6763 17.6499C11.913 17.7649 11.7237 17.8123 11.7101 17.8935L11.5749 17.792C11.5952 17.7379 11.656 17.6973 11.6763 17.6567V17.6499Z" fill="#6F7A58" stroke="#6F7A58" stroke-width="0.85" stroke-miterlimit="10"/>
</svg>
