<svg width="122" height="207" viewBox="0 0 122 207" fill="none" xmlns="http://www.w3.org/2000/svg">
<path d="M65.2921 0.540982C71.1544 -0.169291 76.4488 2.42149 79.6943 7.28517C82.5477 11.5536 83.4065 14.0903 88.5453 16.2211C91.4933 17.4455 91.1958 16.6202 94.0154 16.0723C96.3279 15.619 99.2286 17.0328 101.541 17.3711C106.633 18.1219 114.023 15.3011 119.378 14.8614C120.081 14.8005 120.589 14.8276 121.217 15.1726L121.386 15.7543C121.278 15.937 121.386 16.1602 121.312 16.3496C121.055 17.0328 117.965 19.0825 117.16 19.8672C114.26 22.6812 111.758 28.1943 107.505 29.0872C104.76 29.6622 101.149 29.0872 98.3631 29.6622C97.9912 29.7366 97.7478 29.9733 97.2813 30.0545C94.5901 30.5213 85.2118 26.422 82.9804 24.6361C81.6349 23.5538 80.5125 21.8627 79.221 20.9292C78.8423 20.6586 75.2452 18.6902 74.9815 18.6428C74.3527 18.5346 73.0409 19.0419 73.3722 19.7927C73.4601 19.9957 74.1092 20.5774 74.3324 20.9224C75.1573 22.2212 75.2722 23.1885 74.4473 24.5008C74.2512 24.8188 73.7779 25.0555 73.6697 25.4479C73.5413 25.9146 73.548 28.4242 73.5413 29.1007C73.5007 33.2338 73.832 37.4008 73.8726 41.5406C73.9267 46.5328 73.7036 51.5318 73.8388 56.524C74.0011 62.6121 74.4879 68.8422 74.6299 74.9979C74.9477 88.7772 74.9274 102.631 74.6705 116.403C74.5961 120.293 74.8395 124.203 74.515 128.086C74.3391 130.169 73.9064 132.185 73.4736 134.133C73.4534 134.228 73.1829 134.296 73.1626 134.6C73.1423 134.945 73.3384 135.567 73.3519 135.98C73.6562 143.13 73.4128 150.307 73.7035 157.45C74.1701 168.849 72.3647 183.812 66.6309 193.789C63.7505 198.802 61.012 202.265 55.2984 204.227C54.2639 204.579 52.9725 204.978 51.9109 205.221C45.8931 206.622 34.4863 206.446 28.9215 203.611C19.5769 198.842 19.2456 185.76 17.5214 176.695C17.3185 175.62 16.8182 172.813 16.3652 171.987C16.0879 171.487 15.0737 171.074 14.7829 170.377C14.0865 168.707 13.2548 163.018 15.0128 161.793C15.7025 161.306 16.4598 161.644 16.5004 161.577C16.6492 161.326 16.115 156.463 16.0339 155.78C15.5943 152.242 14.6815 145.883 12.369 143.184C10.584 141.107 9.48183 141.682 7.17613 141.019C4.76223 140.329 2.28751 139.274 0.820244 137.123L0.509196 136.075C0.928415 135.31 0.536222 134.424 0.488891 133.66C-0.0114678 125.711 2.46328 120.631 6.62167 114.158C11.5103 106.541 17.0143 99.641 24.9794 95.1561C28.8674 92.9644 38.3539 88.5472 42.2689 92.0985C47.3063 96.6713 45.5212 106.635 45.2439 112.696C46.1027 113.819 46.9208 113.623 47.5023 112.351C48.3949 110.376 48.4287 105.973 49.4767 104.41C49.6728 104.119 50.092 103.936 50.1664 103.612C50.3557 102.807 50.2814 100.074 50.2881 99.0727C50.2949 96.8337 50.0447 94.5879 50.1799 92.3488C48.3678 92.2 47.0087 90.103 46.7721 88.4254C46.5692 86.9981 47.5699 82.2968 48.76 81.4715C49.0575 81.2618 49.6728 81.1942 49.7675 81.0927C49.9027 80.9371 49.7675 77.5954 49.8216 76.9596C49.8418 76.7296 50.0988 76.0666 50.0853 75.8164C50.0718 75.539 49.639 75.2211 49.497 74.8964C48.7803 73.3203 48.7397 71.6698 49.4091 70.0598C49.5308 69.7622 50.1934 68.8083 50.1934 68.7272C50.1867 68.6054 49.9636 68.3416 49.923 67.9898C49.5241 64.2017 50.3692 59.6627 49.9365 55.834C49.7404 54.0888 49.6863 54.9276 48.76 54.1429C47.0561 52.7088 47.6308 48.5284 49.328 47.1687C49.6728 46.8914 50.5586 46.5667 50.7073 46.2284C50.8764 45.8496 50.9507 42.8191 51.0048 42.1021C51.397 37.1775 51.397 32.0568 52.2152 27.1728C52.276 26.8008 52.8237 24.7376 52.7223 24.6564C52.6885 24.6294 52.1205 24.7106 51.8162 24.6091C50.8493 24.2979 50.491 23.0194 50.3219 22.1197C50.0988 20.9224 50.9643 19.7183 51.7419 18.8728C52.1138 18.4737 53.7974 17.2019 53.8785 17.0463C53.9326 16.9516 53.7298 15.3079 53.7501 14.8682C54.0002 10.2683 57.2593 4.94468 61.0323 2.36741L62.9458 1.20389L65.2786 0.513897L65.2921 0.540982ZM87.531 19.0757C82.5748 16.5864 80.3097 12.1624 77.0573 7.99548C71.0598 0.317766 63.1622 0.899509 57.8138 8.9628C56.3195 11.2221 55.2376 13.752 55.1362 16.4714C59.7341 15.2267 65.238 16.4579 69.6804 17.9258C70.0455 18.0475 71.1274 18.636 71.364 18.6293C71.8306 18.609 72.2836 17.2764 72.9733 16.9449C76.0228 15.477 79.9986 19.4748 82.2435 21.0915C84.7317 22.8841 88.1125 25.7388 91.1011 26.0905C92.9538 26.307 95.4218 26.4017 95.8681 24.1423C95.9627 23.6756 95.8681 22.8165 95.9086 22.5053C95.9965 21.8018 96.1385 20.8007 97.1055 21.0171C98.4645 21.3283 98.3226 24.927 98.0453 26.0161C97.7884 27.024 95.9154 29.5742 98.2482 28.086C101.609 25.9417 99.5261 19.4072 95.8951 18.5616C96.1791 19.7387 95.5638 20.3542 94.4685 20.6316C92.7307 21.0713 89.1335 19.8672 87.531 19.0622V19.0757ZM71.4249 23.2832C71.932 23.5132 72.8921 24.3452 73.2167 23.6417C73.8252 22.3294 72.0267 21.6462 71.0462 21.193C66.9217 19.2583 56.8469 16.7893 53.0874 20.016C52.5803 20.4489 51.8027 22.0994 52.391 22.6C52.8169 22.9653 55.1565 21.8289 55.7109 21.6665C61.5935 19.9551 66.0562 20.848 71.4181 23.2832H71.4249ZM72.5541 100.304C72.3715 95.474 72.6352 90.4345 72.6014 85.5708C72.5811 82.7838 72.3445 79.8615 72.5203 77.0949C72.5338 76.919 72.6825 76.689 72.669 76.5808C72.6555 76.459 71.1341 75.2211 70.8637 74.9167C67.1921 70.6957 66.5768 62.0371 70.8772 58.0528C71.1612 57.789 72.0537 57.3561 72.0875 57.2884C72.1146 57.2343 71.8441 56.3617 71.8306 56.0167C71.7494 54.6367 71.9793 53.0064 71.9793 51.5859C71.9793 43.4279 71.3167 35.2902 71.0327 27.1458C71.0259 26.8684 71.1747 26.1176 71.1476 26.0296C71.1003 25.8808 68.8622 24.4941 68.5512 24.325C65.8871 22.8571 62.912 22.0724 59.8558 22.4783C58.0572 22.715 56.2789 23.4591 54.6764 24.2506C54.2504 26.5978 53.4593 28.8301 53.1077 31.1909C52.729 33.7412 52.3707 37.0084 53.8447 39.2475C57.2931 38.4831 60.8024 37.2384 64.359 37.9419C67.3071 38.5304 67.7195 39.5654 67.9359 42.42C68.0305 43.7053 67.9629 45.2341 67.9494 46.5464C67.8615 55.0629 67.0637 63.5929 66.9961 72.1094C66.9555 76.8784 66.8608 83.0747 67.7128 87.7016C67.7804 88.0736 67.9967 89.3792 68.1523 89.5821C68.274 89.7445 69.89 89.8866 70.3227 90.0963C72.9462 91.3612 72.1754 96.2722 72.2498 98.7075C72.2701 99.3163 72.3783 99.7695 72.4391 100.331C72.4459 100.399 72.3107 101.765 72.642 101.67C72.7704 101.636 72.5608 100.48 72.5541 100.297V100.304ZM114.74 18.6089C114.496 18.5278 113.807 18.8998 113.529 18.9539C111.805 19.2922 110.081 19.6845 108.357 19.9754C107.599 20.1039 102.501 20.5504 102.312 20.7939C102.123 21.0374 102.86 22.0792 103.083 22.2821C103.678 22.8165 106.788 22.7015 107.681 22.6541C108.431 22.6136 109.804 22.5865 110.473 22.3903C111.541 22.0724 113.895 19.8198 114.665 18.9201C114.726 18.8457 114.997 18.7037 114.74 18.6157V18.6089ZM66.5024 49.3874C66.1508 48.8801 66.063 43.0423 65.8601 41.7909C65.7587 41.1753 65.7316 40.1336 65.0555 39.8969C64.6092 39.7413 62.6078 39.8225 62.0398 39.863C59.6597 40.0389 56.7725 40.5327 54.4735 41.155C54.1625 41.243 52.1746 41.8247 52.0935 41.9194C52.0394 41.9803 51.9447 42.9477 51.9379 43.1168C51.9379 43.3332 52.0056 43.2791 52.1543 43.2385C52.6344 43.0897 53.4187 42.4268 54.0138 42.19C55.3323 41.6692 56.6643 41.4189 58.0775 41.5677C58.7807 41.6421 59.6665 42.0344 60.2682 42.0412C61.9789 42.0683 63.7504 40.7018 64.7241 43.0356C66.1102 46.357 65.8127 53.5612 65.3597 57.2072C65.2786 57.8634 64.9743 60.3663 64.7444 60.7924C64.1765 61.868 63.0675 61.2592 62.3373 61.2456C60.444 61.205 58.3953 61.3809 56.5629 61.868C56.901 62.2468 57.4892 62.3888 57.9355 62.6729C58.2059 62.842 58.7604 63.4644 58.8213 63.4779C58.9294 63.505 59.1931 63.2547 59.4027 63.2209C60.5049 63.0382 62.4928 63.2276 62.9999 64.3641C63.933 66.4543 63.7369 71.1354 63.6355 73.5232C63.4665 77.494 62.0533 85.0838 63.5273 88.5742C63.8654 89.3725 64.2373 88.4187 64.4401 87.9857C66.2793 84.0556 65.0554 77.7172 64.9337 73.4488C64.8526 70.7024 64.9743 67.6381 65.2718 64.9052C65.3529 64.1814 65.5626 61.8003 65.7789 61.2862C65.9209 60.9615 66.3267 61.0157 66.4078 60.7992L66.8067 49.7595C66.7661 49.2589 66.5498 49.4483 66.516 49.401L66.5024 49.3874ZM53.7163 53.0606C54.1896 56.8217 58.1451 54.6908 59.0376 52.3841C59.5583 51.038 59.6191 48.1699 59.1188 46.844C58.2262 44.4764 55.2579 43.9285 53.7095 46.0323C53.5337 46.269 53.2159 46.8981 53.4728 47.1011C54.0949 47.5881 55.5081 47.791 56.1301 48.5284C56.5697 49.056 56.617 49.8474 55.8191 49.9895C54.5953 50.2127 51.3429 49.0289 50.5518 49.4078C50.0379 49.658 50.0785 51.1056 50.4368 51.3153C50.7344 51.4845 52.8778 51.3627 53.5404 51.4709C54.2639 51.5859 55.2917 51.755 55.4608 52.5871C55.6974 53.7032 53.7771 52.905 53.7027 53.0538L53.7163 53.0606ZM62.7024 43.942L61.7693 44.2194C63.0067 46.7831 62.8647 49.6581 61.8437 52.2556C60.3629 56.0235 57.2255 58.6616 53.0198 57.126L51.5525 56.4902C51.965 57.6807 51.7554 58.9457 51.9988 60.1633C55.1159 59.3042 58.3547 58.993 61.58 58.8713C61.9181 58.7631 62.317 58.2084 62.4793 57.8904C63.5071 55.9152 63.4732 48.109 63.1014 45.7752C63.0608 45.5317 62.7835 43.9826 62.7024 43.942ZM55.5892 64.7158C54.9536 64.9391 53.5878 66.9007 53.6757 67.4893C53.7095 67.7395 54.433 68.2401 54.6426 68.5175C55.7042 69.8636 55.9273 71.5683 55.1024 73.0835C54.7643 73.6991 53.3173 74.9235 54.8116 75.0385C56.7725 75.194 58.2533 73.0091 58.4358 71.2706C58.5778 69.8704 57.5703 65.4937 56.4006 64.7564C56.1842 64.6211 55.8326 64.6279 55.5892 64.7158ZM60.985 63.992C60.4846 63.992 59.1526 63.877 59.5042 64.5535L60.985 63.992ZM71.9455 61.1441C71.6818 61.0021 71.1206 62.8421 71.0597 63.0653C70.3498 65.7034 70.7217 68.3416 71.7562 70.8445L71.9455 61.1441ZM61.5191 85.6587C61.5529 85.5437 61.4245 83.6767 61.4312 83.3047C61.4786 79.2121 61.9451 75.2549 62.1006 71.2165C62.1479 70.0192 62.2765 65.6696 61.127 65.0879C60.9715 65.0067 59.9775 65.1285 59.9504 65.1826C59.8896 65.3043 60.4305 66.3258 60.5049 66.6099C60.7956 67.6516 60.9174 69.2413 60.8295 70.3236C60.4643 74.8017 56.3262 79.2257 51.7351 76.4861C51.823 77.6496 51.6202 78.813 51.5593 79.9698C51.3294 84.2923 51.5187 88.6013 51.37 92.9035C51.708 94.1482 51.4511 103.24 51.8568 103.591C51.9177 103.639 52.6411 103.531 52.8981 103.571C55.4134 103.984 58.7874 105.567 59.7544 108.07C61.2284 111.885 61.2284 115.795 58.1924 118.785C57.9017 119.069 56.1775 120.401 56.191 120.564C56.2113 120.902 57.3404 122.146 57.665 122.329C57.8611 122.444 59.6462 122.796 59.8693 122.789C60.6604 122.762 61.3298 121.849 62.2088 122.004C62.0465 118.697 61.4515 115.409 61.2419 112.108C60.9985 108.36 60.6874 104.43 64.3928 102.259C64.8729 101.975 66.4754 101.447 66.6918 101.109C66.827 100.899 66.7391 100.169 66.7053 99.8912C66.6309 99.1472 66.3672 97.3072 66.1509 96.6646C65.664 95.244 64.3725 95.6634 63.2704 95.5146C63.0135 95.4808 62.3981 95.1561 62.2764 95.217C62.1953 95.2575 61.4853 96.5022 61.2893 96.7457C59.6529 98.8495 58.0978 100.568 55.3796 98.7886C51.397 96.1843 52.4654 90.4277 54.8116 87.1334C56.7522 84.4073 58.3412 83.5144 61.2284 85.5911C61.296 85.6384 61.4583 85.909 61.5394 85.6587H61.5191ZM52.2422 70.1477C51.9988 70.2559 50.9034 70.9527 50.8561 71.1556C50.6262 72.1027 51.5931 72.5018 52.3977 72.0959C53.1009 71.7374 53.9597 69.4036 52.249 70.1477H52.2422ZM49.8486 82.6214C49.6593 82.5132 49.0034 84.0352 48.929 84.2246C48.1582 86.254 48.4152 87.9857 49.6728 89.7783L49.8486 82.6214ZM50.6803 175.112C50.1529 174.923 50.2949 173.212 50.1799 172.664C50.038 171.974 49.7675 171.094 49.2942 170.553C48.8209 170.012 47.8404 170.073 47.1507 169.633C44.96 168.226 44.2094 164.533 44.2973 162.098C44.3109 161.671 44.5881 160.589 44.5543 160.366C44.4867 159.886 44.108 159.081 44.0133 158.411C43.1952 152.898 43.655 146.235 43.5265 140.593C43.4319 136.433 43.1005 132.266 43.0938 128.099C43.0938 124.791 43.5603 121.511 43.3642 118.243C42.918 110.694 45.0952 102.435 42.5258 95.2373C41.8902 93.4514 41.7888 92.9441 39.9023 92.6803C31.998 91.5709 23.4919 96.9825 17.8595 102.063C15.0534 104.593 13.7552 106.791 11.5915 109.72C6.04696 117.215 -0.829587 126.503 3.01777 136.413C4.94482 141.378 12.8964 140.444 16.8993 138.99C18.7182 138.327 20.3342 137.076 22.2748 136.778L21.7136 137.793L17.42 140.106C19.8474 141.412 20.8684 144.557 20.9292 147.168C20.9495 148.23 20.6723 149.279 20.625 150.334C20.6047 150.781 20.7872 153.419 20.652 153.5C19.9217 153.953 19.7798 152.999 19.6513 152.451C19.0292 149.664 20.0232 146.147 18.2449 143.36C17.5281 142.244 14.5328 141.459 13.221 141.344C13.8701 142.575 14.6409 143.739 15.1751 145.038C17.021 149.489 17.7715 156.28 18.1096 161.124C18.1367 161.475 18.0488 162.963 18.0894 163.072C18.1773 163.336 19.8068 163.958 20.1719 164.093C20.7873 164.323 22.2748 164.858 22.8631 164.905C25.2364 165.108 28.3062 164.364 30.7403 164.391C32.0386 165.128 31.4706 165.169 31.4571 166.244C31.4368 167.881 32.0791 169.241 31.4571 170.858C30.3887 173.638 27.0214 173.631 24.5197 173.55C22.5317 173.482 20.5168 173.218 18.5627 172.887C19.7933 177.839 20.1719 183.068 21.2403 188.026C24.1342 201.447 35.0069 205.756 47.6578 204.288C49.3482 204.092 51.5796 203.415 53.1753 203.341C53.5878 203.321 53.9258 203.666 54.4127 203.591C56.7995 203.226 60.5184 200.479 62.1006 198.66C74.5961 184.312 71.9455 161.726 71.4317 144.138C71.3235 140.411 72.0875 134.153 69.7818 131.177C69.6466 131.008 68.1455 129.445 67.9292 129.817C67.8751 129.919 67.8953 131.813 67.9021 132.111C67.9697 134.417 69.2139 139.004 68.727 140.796C68.0509 143.292 64.5754 143.177 63.0405 141.574C60.7821 139.227 62.1209 135.588 62.1885 132.713C62.2223 131.366 62.459 129.209 60.4779 129.743C57.9896 130.413 57.7664 132.746 56.3668 134.343C54.9671 135.939 52.8305 136.751 50.6871 136.731C51.0251 137.123 51.8027 137.184 52.1002 137.556C53.1009 138.814 51.5255 143.516 51.8433 143.691C51.9515 143.752 53.3376 142.298 53.6621 142.088C55.9002 140.593 57.9423 141.202 60.0248 142.623C64.2306 145.491 62.3508 152.621 59.3081 155.556C57.7597 157.051 55.4946 157.694 53.5202 156.72C52.2558 156.098 52.4315 155.753 51.8027 154.839C51.512 154.413 51.0386 154.109 50.7885 153.649C50.6668 155.665 51.2144 157.998 50.065 159.825C49.3753 160.914 47.8404 161.333 46.9952 160.244C45.7781 158.675 46.7991 154.393 46.8262 152.458C46.8262 152.208 45.7984 152.282 45.7781 152.33C45.7443 152.391 45.9134 153.432 45.8998 153.723C45.7714 156.517 45.7781 157.687 46.1162 160.508C46.1568 160.853 46.0148 161.563 46.1568 161.78C46.3191 162.016 48.6112 161.922 49.1048 161.956C50.4774 162.05 51.7622 162.267 53.0063 162.889C53.6757 163.227 54.0746 163.369 53.9664 164.256C51.9109 164.276 49.95 163.112 47.7998 163.538C49.2806 165.182 51.7013 166.143 52.986 167.956C53.2632 168.341 54.1895 169.755 53.5675 170.066C53.0265 170.33 52.2084 168.815 51.8433 168.436C50.7141 167.245 49.213 166.63 47.8336 165.811C49.3144 167.638 51.1671 168.997 51.3903 171.527C51.4105 171.751 51.2347 171.96 51.2415 172.136C51.2753 172.576 51.8771 175.518 50.7073 175.099L50.6803 175.112ZM56.0219 97.0096C57.4013 97.9972 59.1255 96.5022 59.8828 95.3996C61.3095 93.3297 61.891 89.6295 60.3832 87.4784C59.6529 86.4434 59.0647 86.0578 57.8814 86.6599C56.2113 87.4987 54.6156 90.1571 54.575 92.0174C54.5479 93.1876 55.0753 96.3331 56.0219 97.0096ZM69.3761 100.73C69.5451 98.8427 70.2416 94.4052 68.7067 93.0658C67.5302 92.0444 65.2042 92.0174 63.8181 92.5924C65.1636 93.6476 67.8886 92.6803 68.7541 94.4052C69.3423 95.5687 69.1057 98.3963 69.1868 99.7898C69.2003 99.9927 69.153 100.656 69.3761 100.723V100.73ZM54.5479 106.547C50.092 105.851 49.328 111.465 53.0198 112.128C53.4593 112.209 55.0686 112.027 55.2106 112.155C55.8867 112.771 54.4803 113.211 54.0138 113.38C52.2287 114.029 49.7945 114.672 47.9486 115.145C46.9208 115.409 45.8458 115.707 44.8045 115.707C44.6963 116.275 45.0682 115.97 45.4671 115.93C47.5632 115.727 50.207 115.47 52.2828 115.477C52.8102 115.477 55.028 115.666 55.3863 115.896C55.4742 115.95 55.5351 116.079 55.5081 116.113C55.4337 116.228 53.2362 116.924 52.9184 116.999C52.6817 117.053 51.5458 117.1 51.5052 117.161C53.439 119.968 57.4013 117.256 58.0099 114.678C58.6049 112.142 57.665 107.035 54.5479 106.547ZM64.4807 105.756C63.4394 106.23 62.9931 106.92 62.9052 108.036C62.6889 110.762 63.3313 117.026 63.7437 119.867C63.7911 120.198 63.9398 121.632 64.2981 121.639C64.7309 121.639 64.7241 120.787 64.7241 120.503C64.7444 116.938 63.5341 112.351 63.8249 108.929C64.0277 106.534 67.5302 106.25 69.4234 106.135C70.1064 106.094 73.8388 106.602 72.3918 105.364C71.1747 104.322 65.8804 105.12 64.4875 105.756H64.4807ZM70.769 108.611C70.4782 108.496 68.3619 108.638 68.017 108.753C66.7188 109.186 66.8337 111.093 66.8405 112.236C66.854 115.592 67.4626 119.129 68.1455 122.41C69.4167 122.004 71.2559 122.41 71.0868 120.435C70.9448 118.724 69.6534 119.759 69.1124 118.379C68.5715 116.999 69.6128 113.745 69.4437 112.088C69.7007 110.728 71.9185 110.579 71.1815 109.023C71.1206 108.902 70.8975 108.658 70.7758 108.604L70.769 108.611ZM48.9696 118.027C48.6788 118.047 48.7938 118.115 48.7532 118.257C48.6653 118.561 48.1312 120.509 48.3408 120.624L49.95 119.637L48.9696 118.027ZM56.076 125.671C55.1565 124.128 55.1971 122.397 52.8846 121.896C47.455 120.712 46.2649 131.346 50.5721 134.052C52.1137 135.019 54.2842 134.329 55.3052 132.909C56.3262 131.488 56.4953 127.808 56.3668 126.029C56.333 125.535 56.0963 125.711 56.076 125.671ZM58.3615 126.192C58.3885 126.598 58.0775 127.112 58.3885 127.436C58.6657 127.727 63.6423 127.402 64.5484 127.463C66.4889 127.592 69.6195 128.803 71.2288 128.695C72.7839 128.593 72.5068 126.679 71.6818 125.887C70.8569 125.096 68.4971 125.042 67.3544 125.015C64.2711 124.94 61.3298 125.366 58.3615 126.185V126.192ZM47.2048 134.032C46.9276 134.059 47.0223 134.099 46.9884 134.255C46.7924 135.182 46.86 137.022 46.8938 138.03C46.9479 139.511 47.0561 141.026 47.4077 142.474L48.2123 136.785C48.4354 136.298 48.8682 136.169 49.3618 136.19L47.2048 134.032ZM65.0216 129.926C64.4469 130.183 64.3725 131.055 64.2914 131.63C64.048 133.274 64.1359 136.447 64.4739 137.908C64.5483 138.246 65.0622 140.093 65.5558 139.524C66.0968 138.902 65.1095 131.218 65.0284 129.926H65.0216ZM49.7404 139.626C49.5917 139.518 49.4091 140.032 49.3888 140.093C49.1589 140.877 48.7465 144.03 48.9493 144.747C49.1251 145.342 49.5714 145.958 49.6458 146.634C49.8283 146.377 50.1664 145.924 50.2002 145.613C50.2881 144.76 50.1326 142.156 50.0379 141.209C50.0109 140.904 49.9095 139.748 49.7404 139.626ZM47.5091 142.819L47.4415 142.589L47.3265 142.623L47.3941 142.853L47.5091 142.819ZM58.4967 152.35C59.5245 150.361 60.0924 147.804 59.2472 145.646C58.1383 142.799 54.0746 143.488 53.1483 146.052C55.1294 146.492 57.5771 146.641 58.0775 149.042C58.4764 150.95 57.5906 152.621 55.4878 152.533C54.6561 152.499 52.9252 151.667 52.3775 152.668C52.0935 153.182 53.8785 154.156 54.3113 154.332C56.5156 155.252 57.5433 154.19 58.4967 152.35ZM45.8593 150.158C46.887 149.779 48.3137 149.631 49.3753 149.908C50.8764 150.294 52.4586 150.578 54.0611 150.476C54.602 150.442 55.7109 150.49 55.596 149.739C55.4945 149.069 54.1963 148.379 53.5878 148.284C52.3234 148.082 51.7689 148.893 50.6871 148.927C49.896 148.954 49.6931 148.278 49.1792 148.102C48.3272 147.811 45.7037 149.029 45.8525 150.158H45.8593ZM49.5444 155.895C49.6525 155.685 49.4767 152.932 49.3685 152.627C49.1927 152.12 48.645 151.646 48.0906 151.91C47.7119 152.093 48.0095 153.006 48.0027 153.439C47.9892 154.264 47.6308 158.215 48.2191 158.607C48.6518 158.891 49.0981 156.361 49.1657 156.233C49.2671 156.037 49.5038 155.989 49.5444 155.901V155.895ZM17.7107 166.021C17.4741 165.967 16.7776 165.48 16.399 165.696C15.4726 166.231 16.6829 168.984 17.3591 169.633C18.9616 171.176 25.6353 171.784 27.7652 171.23C29.3069 170.831 29.388 169.972 29.2798 168.517C29.2528 168.165 28.9688 166.434 28.8065 166.346C28.7321 166.305 27.5083 166.752 27.2311 166.806C23.9246 167.489 20.8413 166.758 17.7107 166.021Z" fill="#6F7A58" stroke="#6F7A58" stroke-width="0.85" stroke-miterlimit="10"/>
<path d="M55.285 204.234L55.3188 204.349L51.9312 205.343L51.8974 205.228C52.959 204.978 54.2504 204.585 55.285 204.234Z" fill="#6F7A58" stroke="#6F7A58" stroke-width="0.85" stroke-miterlimit="10"/>
<path d="M60.985 63.992L59.5042 64.5535C59.1526 63.877 60.4846 63.992 60.985 63.992Z" fill="#6F7A58" stroke="#6F7A58" stroke-width="0.85" stroke-miterlimit="10"/>
<path d="M72.5541 100.304C72.5608 100.487 72.7637 101.637 72.642 101.677C72.3107 101.772 72.4459 100.405 72.4391 100.338L72.5541 100.304Z" fill="#6F7A58" stroke="#6F7A58" stroke-width="0.85" stroke-miterlimit="10"/>
<path d="M37.5628 110.525C35.2571 114.523 32.3902 118.243 29.2122 121.612C27.9478 122.951 26.3994 123.966 25.3987 125.414C22.7413 129.249 16.8452 133.166 12.7612 135.479C9.39394 137.387 7.98753 137.827 4.31598 136.67C3.96438 136.562 3.41668 136.724 3.0786 136.129C2.63909 135.358 3.51812 135.351 3.64659 135.087C3.76154 134.85 3.70066 133.389 3.75476 132.916C4.17398 129.459 6.44589 120.881 9.18434 118.717C9.88079 118.162 10.7395 117.668 10.1512 119.001C9.08968 121.416 7.7779 123.114 6.83128 125.867C5.80351 128.857 4.98539 132.111 4.95834 135.283L6.22276 135.297C6.35799 133.146 7.06118 130.798 7.94019 128.83C8.65692 127.227 9.04909 127.01 10.0092 125.738C10.3203 125.319 10.922 123.655 11.3548 123.641C11.4495 123.641 11.6117 123.75 11.6253 123.871C11.6388 123.993 10.6583 125.752 10.5096 126.11C9.30603 128.992 8.13627 132.084 7.85229 135.202L9.38718 134.823C9.54946 134.647 9.75908 132.286 10.1512 131.657C10.3947 131.265 11.037 130.812 11.321 130.379C11.7267 129.75 12.0513 128.782 12.4772 128.072C12.626 127.822 13.6943 126.219 13.8093 126.151C14.1135 125.962 14.2893 126.185 14.2352 126.482C14.2014 126.645 12.6666 128.782 12.3961 129.303C11.8146 130.426 10.9018 132.801 10.8071 134.025C10.7801 134.336 11.4495 134.038 11.605 133.971C16.6221 131.637 23.0524 125.569 27.0823 121.626C32.2482 116.573 37.1841 109.625 37.5966 102.164C37.6845 100.595 37.7656 98.0783 35.8183 97.686C35.1759 97.5575 34.7905 98.0445 34.2225 98.261C33.7425 98.4436 33.2151 98.5113 32.7417 98.7277C31.4435 99.3298 30.0371 100.865 28.6442 101.494C27.5353 101.995 27.5962 101.63 27.2581 100.689C28.4414 99.9589 29.4151 98.9374 30.524 98.1054C32.4037 96.6916 35.6019 94.2834 37.8941 94.0331C41.613 93.634 42.0593 97.5846 41.6874 100.372C41.2141 103.923 39.3276 107.461 37.5628 110.525Z" fill="#6F7A58" stroke="#6F7A58" stroke-width="0.85" stroke-miterlimit="10"/>
<path d="M67.7871 171.243C68.6526 175.606 66.286 181.796 65.407 186.173C65.2853 186.768 64.9135 190.116 64.6768 190.285C64.3793 190.502 64.0141 190.387 63.7572 190.482C63.6287 190.529 63.622 190.813 63.3921 190.806C63.3921 190.245 63.1013 190.333 62.9661 190.204C62.6889 189.947 62.9255 188.635 62.9796 188.175C63.2839 185.57 64.1021 183.061 64.67 180.565C65.2583 177.974 65.6504 173.942 67.1853 171.791C67.3003 171.629 67.591 171.311 67.7804 171.236L67.7871 171.243Z" fill="#6F7A58" stroke="#6F7A58" stroke-width="0.85" stroke-miterlimit="10"/>
<path d="M30.6524 196.387C30.7403 196.407 31.5044 197.442 31.8357 197.726C34.4524 199.945 40.2742 201 43.5941 200.432C45.6496 200.08 47.7254 199.012 49.8892 198.599C50.1664 198.545 50.8764 198.396 51.0792 198.396C51.5255 198.396 51.4917 198.876 50.9169 199.072C50.2002 199.309 49.0372 199.37 48.2799 199.58C43.8984 200.764 41.924 201.805 37.1706 201.264C35.0812 201.027 30.436 199.688 29.9154 197.314C29.8343 196.942 30.1926 197.172 30.3211 196.989C30.3414 196.955 30.2196 196.285 30.6592 196.4L30.6524 196.387Z" fill="#6F7A58" stroke="#6F7A58" stroke-width="0.85" stroke-miterlimit="10"/>
<path d="M67.1854 171.798L68.1455 153.94C68.2199 153.845 68.5512 153.723 68.5986 153.743C68.8014 153.852 68.727 155.854 68.727 156.213C68.6797 161.096 68.2131 166.15 67.3138 170.939C67.3476 171.324 67.6519 170.783 67.7939 170.858C67.9224 170.932 67.7736 171.223 67.7804 171.243C67.5911 171.324 67.3003 171.642 67.1854 171.798Z" fill="#6F7A58" stroke="#6F7A58" stroke-width="0.85" stroke-miterlimit="10"/>
<path d="M28.0559 196.238C27.6367 196.705 27.3122 196.157 27.0687 195.852C24.4723 192.531 24.3235 189.372 23.289 185.55C23.1673 185.104 22.3289 183.203 22.6061 183.02C22.8968 182.824 23.0388 183.068 23.1402 183.298C24.1612 185.685 24.168 188.797 25.1755 191.07C25.7029 192.261 26.9605 193.607 27.6164 194.865C27.7517 195.129 28.2858 195.988 28.0627 196.238H28.0559Z" fill="#6F7A58" stroke="#6F7A58" stroke-width="0.85" stroke-miterlimit="10"/>
<path d="M64.386 7.15665C62.8985 7.75869 60.586 9.72719 60.0113 11.2424C59.8423 11.6889 59.9437 12.5006 59.4163 12.6833C58.4223 13.035 58.7672 11.5401 58.97 10.9651C60.1195 7.74516 65.2853 4.79587 68.6594 5.95936C68.5985 6.19612 68.1996 6.02697 68.1185 6.05403C66.9555 6.39902 65.4747 6.71023 64.386 7.14992V7.15665Z" fill="#6F7A58" stroke="#6F7A58" stroke-width="0.85" stroke-miterlimit="10"/>
<path d="M50.8426 125.001C54.1152 123.641 55.028 130.074 52.986 131.353C50.6127 132.841 49.0778 130.447 49.1927 128.207C49.2401 127.254 49.8892 125.4 50.8358 125.008L50.8426 125.001ZM51.3091 126.997C51.255 127.024 50.7885 127.862 50.7547 127.977C50.5113 128.782 50.8967 131.224 52.0732 130.068C52.9928 129.168 52.0123 126.645 51.3091 126.997Z" fill="#6F7A58" stroke="#6F7A58" stroke-width="0.85" stroke-miterlimit="10"/>
</svg>
