<svg width="161" height="143" viewBox="0 0 161 143" fill="none" xmlns="http://www.w3.org/2000/svg">
<path d="M17.6192 78.368C17.6733 78.3071 17.7409 78.2733 17.822 78.2733C17.9032 78.2733 17.9708 78.2936 18.0249 78.341C18.079 78.3883 18.106 78.456 18.0993 78.5236C18.0993 78.598 18.0722 78.6657 18.0113 78.7265C16.517 80.3433 15.1174 82.0006 13.8259 83.6849C14.1167 83.8405 14.3939 84.0367 14.6441 84.2667C15.4217 84.977 15.9964 85.8563 16.375 86.9116C16.7537 87.9668 16.8889 89.1033 16.7807 90.3276C16.5779 93.0808 15.3202 95.7257 13.0078 98.2624C12.7373 98.5601 12.3992 98.8442 12.007 99.108C11.6149 99.3718 11.1821 99.6018 10.7156 99.7845C10.249 99.9739 9.77572 100.048 9.28888 100.014C8.80881 99.9806 8.38283 99.798 8.02446 99.4733C7.35506 98.8645 6.9967 98.0054 6.95613 96.8892C6.86823 94.7516 7.88923 91.8835 10.0124 88.2983C10.675 87.1889 11.412 86.0525 12.2302 84.889C11.8853 84.8146 11.4594 84.774 10.959 84.7672C10.4586 84.7672 10.0394 84.7672 9.68782 84.7943C9.33621 84.8146 8.84261 84.8552 8.20702 84.9025C7.56467 84.9567 7.07784 84.9905 6.73976 85.0175C6.40168 85.0378 5.94865 85.0513 5.38067 85.0446C4.8127 85.0378 4.35291 85.004 4.00131 84.9364C3.6497 84.8687 3.27105 84.7537 2.86536 84.5914C2.45966 84.429 2.11482 84.2193 1.83083 83.9623C1.22229 83.4076 0.809829 82.6567 0.593458 81.7164C0.377087 80.7762 0.370325 79.7277 0.566411 78.571C0.762498 77.4345 1.15467 76.3049 1.73617 75.182C2.3109 74.0523 3.02764 73.0241 3.8796 72.0906C4.62337 71.2788 5.33334 70.6768 6.01626 70.2912C6.69919 69.9056 7.29421 69.7568 7.80133 69.8448C8.15969 69.9327 8.43016 70.1221 8.5992 70.4062C8.66005 70.4806 8.70738 70.5686 8.73443 70.6565C8.78852 70.8391 8.73443 70.9609 8.55187 71.015C8.37606 71.0759 8.26112 71.015 8.20702 70.8324C8.1935 70.7986 8.17998 70.7647 8.16646 70.7309C8.03798 70.6565 7.80133 70.67 7.45649 70.7715C7.11165 70.873 6.67214 71.0894 6.13797 71.4276C5.60381 71.7591 5.10345 72.1852 4.63014 72.6994C3.72408 73.6937 3.00735 74.8911 2.48671 76.2846C1.9593 77.6781 1.70236 78.9633 1.70912 80.1336C1.71589 81.3038 1.97282 82.1156 2.47318 82.5756C2.75717 82.8394 3.09525 83.0355 3.4739 83.1776C3.85255 83.3129 4.3191 83.3873 4.88032 83.4076C5.43477 83.4211 5.90808 83.4143 6.28673 83.394C6.67214 83.3737 7.22659 83.3196 7.95684 83.2385C8.78852 83.164 9.43764 83.1167 9.90419 83.0897C10.3707 83.0626 10.932 83.0761 11.6014 83.1235C12.2707 83.1708 12.8387 83.2858 13.3188 83.4549C14.6576 81.6962 16.0911 79.9983 17.6192 78.368ZM8.39635 99.0606C8.6871 99.3245 9.03194 99.4597 9.43087 99.48C9.82981 99.4936 10.2355 99.4192 10.6344 99.2433C11.0334 99.0674 11.4053 98.8645 11.7433 98.6209C12.0814 98.3842 12.3654 98.1339 12.5953 97.8836C13.3796 97.0245 14.0152 96.0098 14.5021 94.8531C14.9889 93.6964 15.2797 92.4855 15.3811 91.2138C15.4352 90.4088 15.4081 89.6445 15.3067 88.9274C15.2053 88.2104 15.0227 87.5677 14.759 86.9995C14.4953 86.4313 14.164 85.9645 13.7583 85.5925C13.5081 85.3625 13.1903 85.1866 12.8049 85.0513C11.101 87.4257 9.78248 89.6512 8.84262 91.7279C7.90275 93.8046 7.45649 95.516 7.51058 96.8554C7.55791 97.816 7.85542 98.5465 8.40311 99.0471L8.39635 99.0606Z" fill="#6F7A58" stroke="#6F7A58" stroke-width="0.85" stroke-miterlimit="10"/>
<path d="M18.9445 61.0306C18.9445 61.0306 18.985 61.0644 18.9918 61.0712C18.9918 61.0712 19.0121 61.0915 19.0391 61.1118C19.0526 61.1253 19.0662 61.1321 19.0729 61.1456C19.4448 61.5312 19.7626 62.0047 20.0331 62.5797C20.3035 63.1547 20.4929 63.7905 20.6146 64.4873C20.7295 65.184 20.7701 65.9213 20.7228 66.6925C20.5875 69.4862 19.4854 72.0567 17.4163 74.3973C18.0114 76.3454 18.7957 78.2259 19.7626 80.0524C19.2082 77.9689 19.3502 76.4672 20.1886 75.5405C20.3712 75.3375 20.5672 75.1819 20.7769 75.0737C20.9865 74.9655 21.2096 74.9181 21.453 74.9317C21.6964 74.9452 21.906 74.9655 22.0954 75.0061C22.2779 75.0467 22.5078 75.1414 22.7715 75.2902C23.0352 75.4458 23.2381 75.5675 23.3801 75.669C23.5221 75.7637 23.7317 75.9057 24.0021 76.0884C24.631 76.5281 25.1043 76.8122 25.4356 76.9339C25.7602 77.0557 26.0306 77.0016 26.2335 76.7784C26.6797 76.2846 26.9096 75.5878 26.9299 74.6814L26.9096 74.6678C26.9029 73.7141 26.6594 72.3544 26.1861 70.5888C26.0306 70.0341 25.9292 69.6553 25.8751 69.4524C25.8413 69.2698 25.9224 69.1615 26.0982 69.1345C26.2808 69.1007 26.3957 69.1751 26.4363 69.3442C26.4701 69.5268 26.558 69.8921 26.7135 70.4468C27.153 72.077 27.4032 73.3555 27.4573 74.2823V74.3161C27.4641 74.4784 27.4708 74.6273 27.4776 74.7626C27.4776 76.0816 27.153 77.1098 26.4836 77.8336C26.2673 78.0704 26.0306 78.2395 25.7737 78.3207C25.5235 78.4086 25.2868 78.4424 25.0772 78.4221C24.8609 78.4018 24.6107 78.3274 24.3199 78.1921C24.0292 78.0568 23.7993 77.9419 23.6438 77.8336C23.4815 77.7322 23.2651 77.5766 22.9744 77.3601C22.6295 77.1098 22.3658 76.9272 22.1765 76.8122C21.9872 76.6972 21.7776 76.5957 21.5544 76.5078C21.3245 76.4198 21.1285 76.3996 20.9662 76.4469C20.8039 76.4943 20.6416 76.6093 20.4726 76.7851C19.9587 77.3466 19.8978 78.4018 20.29 79.9442C20.3035 79.978 20.3103 80.005 20.3103 80.0321C20.3373 80.0794 20.3441 80.1065 20.3306 80.12C20.5808 81.0062 20.9324 81.9059 21.3854 82.8258C21.4124 82.8461 21.4395 82.8867 21.4733 82.9408C21.4733 82.9611 21.4801 82.9814 21.4936 82.9882C21.764 83.3873 21.8046 83.6984 21.6085 83.9149C21.5882 83.942 21.5544 83.9623 21.5071 83.9893C21.3516 84.1111 21.1352 84.1246 20.858 84.0367C20.5808 83.9487 20.3644 83.7999 20.2156 83.6037C18.8701 81.7638 17.7409 79.7344 16.8348 77.5157C15.9288 75.2969 15.3 73.0308 14.9551 70.7241C14.6508 68.6542 14.617 66.794 14.8402 65.1502C15.0701 63.5064 15.5298 62.3023 16.2263 61.5312C16.4629 61.2674 16.7064 61.0576 16.943 60.9021C17.1797 60.7465 17.396 60.6518 17.5854 60.6112C17.7747 60.5706 17.9573 60.5774 18.1331 60.618C18.3156 60.6585 18.4644 60.7194 18.5861 60.7871C18.7078 60.8547 18.8227 60.9427 18.9309 61.0374L18.9445 61.0306ZM17.2338 73.7749C17.9843 72.882 18.5929 71.9282 19.0662 70.9136C19.5395 69.8989 19.8573 68.9315 20.006 68.0048C20.1615 67.078 20.2089 66.1919 20.148 65.3396C20.0939 64.4872 19.9249 63.7364 19.6544 63.0802C19.384 62.4309 19.0391 61.8964 18.6199 61.4973C18.1669 61.105 17.7815 61.0847 17.4637 61.4297C17.085 61.8491 16.7807 62.4647 16.5711 63.2764C16.3548 64.0881 16.2331 65.042 16.1992 66.1378C16.1654 67.2337 16.2263 68.4039 16.3886 69.6486C16.5576 71.0083 16.8348 72.3814 17.2338 73.7749Z" fill="#6F7A58" stroke="#6F7A58" stroke-width="0.85" stroke-miterlimit="10"/>
<path d="M30.1079 63.2831C30.4054 63.202 30.6082 63.344 30.7299 63.7161C30.7435 63.7702 30.7908 63.9258 30.8719 64.1761C31.7374 67.2471 32.7584 69.3103 33.9282 70.3791C34.3609 70.7714 34.7937 70.9676 35.2264 70.9744C35.3413 70.9947 35.4225 71.0556 35.4698 71.1638C35.5171 71.272 35.4969 71.3667 35.4225 71.4479C35.3008 71.5832 35.1723 71.6914 35.0236 71.7929C34.8816 71.8944 34.6855 71.9755 34.4488 72.0432C34.2122 72.1108 33.9349 72.0973 33.6307 72.0026C33.3196 71.9079 33.0154 71.7185 32.6976 71.4344C31.9335 70.7376 31.2709 69.8582 30.7164 68.8097C30.8787 70.0273 30.9395 71.042 30.899 71.8403C30.8584 72.6385 30.6488 73.254 30.2566 73.687C29.5264 74.4919 28.6541 74.431 27.6534 73.5178C27.2004 73.1052 26.8014 72.5167 26.4566 71.7658C26.1118 71.015 25.8616 70.3115 25.7061 69.6688C25.6655 69.4997 25.6925 69.3441 25.7872 69.2021C25.8819 69.06 26.0171 68.9653 26.1861 68.9248C26.389 68.8706 26.5851 68.8909 26.7812 68.9924C26.9772 69.0939 27.1395 69.3035 27.268 69.6147C27.7007 70.9676 28.2214 71.9349 28.8434 72.5032C29.31 72.9293 29.6548 73.024 29.8712 72.7805C30.1687 72.4558 30.331 71.8064 30.3648 70.8324L30.3445 70.8188C30.3175 70.2912 30.2363 69.4727 30.0943 68.3565C30.0335 67.7951 29.9862 67.3554 29.9456 67.0374C29.7225 66.4422 29.5128 65.7251 29.31 64.8796V64.8457C29.2491 64.6225 29.31 64.3249 29.4723 63.9596C29.6413 63.5943 29.8442 63.3779 30.0943 63.2967L30.1079 63.2831Z" fill="#6F7A58" stroke="#6F7A58" stroke-width="0.85" stroke-miterlimit="10"/>
<path d="M41.5417 52.1894C41.7243 52.1691 41.8257 52.257 41.846 52.4532C41.8933 53.0011 41.7919 53.7114 41.5417 54.5772C41.2915 55.4431 40.9873 56.2548 40.6289 56.9989L40.6492 57.0124C40.6492 57.0124 40.6289 57.0395 40.6154 57.0463C40.372 57.5536 40.1759 57.8851 40.0271 58.0542C39.831 58.2707 39.6011 58.433 39.3442 58.548C39.0873 58.663 38.7965 58.7239 38.4787 58.7239C38.1609 58.7239 37.8972 58.7171 37.6944 58.6833C37.4915 58.6495 37.2143 58.6021 36.8559 58.5412C36.6328 58.4939 36.4705 58.4668 36.3623 58.4533C36.2541 58.4398 36.1189 58.4262 35.9566 58.4127C35.7944 58.3992 35.6659 58.3992 35.5712 58.4195C35.4766 58.4398 35.3954 58.4803 35.3413 58.5412C34.8748 59.0553 34.8748 60.2188 35.3481 62.0317L35.3684 62.0452C35.3819 62.0993 35.3954 62.1467 35.4089 62.1805V62.2143C35.7808 63.4928 36.2677 64.7375 36.8762 65.9484C36.9033 65.9957 36.9235 66.0295 36.9303 66.0633C37.2008 66.4625 37.2346 66.7804 37.025 67.0036C36.9912 67.0374 36.9574 67.0645 36.9235 67.078C36.7477 67.1998 36.5178 67.2269 36.2474 67.1525C35.9769 67.0781 35.7605 66.936 35.5983 66.7263C35.0371 65.9754 34.415 64.9608 33.7388 63.6823C33.0627 62.4038 32.6029 61.3958 32.3595 60.6517C32.2513 60.3609 32.3595 60.1444 32.6773 60.0159C32.8936 59.9279 33.1235 59.9415 33.3872 60.07C33.6442 60.1985 33.8808 60.4285 34.0904 60.7735C34.1648 60.9561 34.2865 61.2065 34.4556 61.5312C34.7057 62.025 34.8613 62.3294 34.9086 62.4376C34.8951 62.4038 34.8883 62.3632 34.8883 62.3158C34.8748 62.3023 34.868 62.2888 34.868 62.2685C34.7463 61.8491 34.6449 61.4838 34.5773 61.1659C34.5029 60.8479 34.4353 60.4285 34.3744 59.9144C34.3068 59.3936 34.3338 58.9065 34.4556 58.4601C34.5705 58.0068 34.7734 57.628 35.0573 57.3168C35.2737 57.0801 35.5442 56.9584 35.8755 56.9584C36.2068 56.9584 36.6463 57.0125 37.2143 57.1139C37.5727 57.2019 37.8499 57.256 38.046 57.283C38.2421 57.3101 38.4855 57.3236 38.7762 57.3236C39.067 57.3236 39.3239 57.2763 39.5538 57.1748C39.7769 57.0734 39.9866 56.9177 40.1691 56.7148C40.4937 56.0248 40.7777 55.2672 41.0211 54.4487C41.2645 53.6302 41.3592 52.9741 41.2983 52.4803C41.2915 52.2976 41.3794 52.1961 41.562 52.1758L41.5417 52.1894Z" fill="#6F7A58" stroke="#6F7A58" stroke-width="0.85" stroke-miterlimit="10"/>
<path d="M48.3439 44.7281C48.5265 44.7214 48.6211 44.8093 48.6279 44.992C48.7158 46.4125 48.6346 47.8736 48.3845 49.3889C48.1343 50.9041 47.7759 52.3044 47.3094 53.5829C47.3094 53.6032 47.3094 53.6302 47.3094 53.6505L47.2756 53.6843C47.0727 54.2661 46.8834 54.7261 46.7008 55.0711C46.3763 55.7881 46.0788 56.3022 45.7948 56.6134C45.6731 56.7419 45.5514 56.8569 45.4229 56.9516C45.2944 57.0463 45.1389 57.1207 44.9428 57.1884C44.7535 57.256 44.5506 57.2898 44.3478 57.2831C44.1449 57.2831 43.9083 57.2222 43.6446 57.1004C43.3809 56.9786 43.1104 56.796 42.8332 56.5457C42.272 56.0316 41.8325 55.3416 41.5147 54.4758C41.1969 53.6099 41.0752 52.7238 41.136 51.8241C41.1969 50.9244 41.4809 50.2006 41.9812 49.6527C42.3599 49.2333 42.7656 49.0033 43.178 48.9695C43.5973 48.9357 43.9353 49.0101 44.1923 49.2062C44.2058 49.2198 44.2193 49.2265 44.2261 49.2401L44.2599 49.2739C44.4763 49.47 44.5844 49.7609 44.5912 50.133C44.6183 50.6809 44.4425 51.3438 44.0706 52.1082C43.6987 52.8794 43.3471 53.4679 43.009 53.8873C43.2592 54.5502 43.5634 55.0508 43.9218 55.3755C44.341 55.7543 44.6926 55.9302 44.9834 55.9031C45.2741 55.8693 45.5446 55.7205 45.7948 55.4431C46.0652 55.1455 46.383 54.4961 46.7346 53.5085L46.7482 53.4544C46.7482 53.4544 46.7684 53.4273 46.782 53.4205C47.2147 52.1758 47.5596 50.8162 47.803 49.3415C48.0532 47.8669 48.1343 46.426 48.0599 45.019C48.0532 44.8364 48.1411 44.7417 48.3236 44.7349L48.3439 44.7281ZM43.2254 49.9909C42.9008 50.3495 42.7115 50.823 42.6574 51.4115C42.6033 52 42.6574 52.602 42.8129 53.2311C43.1375 52.7779 43.4282 52.2503 43.6919 51.6482C43.9556 51.0462 44.0841 50.5456 44.0773 50.1397C44.0706 49.9368 44.0097 49.7812 43.9015 49.6865C43.7595 49.558 43.5364 49.6595 43.2254 49.9909Z" fill="#6F7A58" stroke="#6F7A58" stroke-width="0.85" stroke-miterlimit="10"/>
<path d="M135.481 0.495056C137.847 1.21209 139.355 3.51205 139.822 5.85257C140.647 9.99245 140.457 16.0128 139.524 20.1257C139.423 20.5654 138.868 22.0197 138.868 22.2159C138.868 22.6082 139.943 24.1911 139.612 24.5294H138.733C138.652 24.5902 139.301 26.119 139.335 26.3761C139.375 26.6534 139.24 26.9307 139.274 27.0795C139.389 27.6681 140.444 30.2792 139.051 29.4065C139.031 28.7504 138.3 28.1348 138.253 27.5598C138.226 27.2622 138.496 27.154 138.483 26.8563C138.469 26.3761 138.077 25.3208 138.097 24.7052C138.111 24.3197 138.665 23.9341 138.165 23.5215C137.739 24.8676 136.664 25.7808 136.001 26.9849C136.989 28.7369 136.989 30.2589 136.563 32.1868C136.285 33.4382 135.609 34.6287 135.602 35.9208C137.266 34.1146 137.955 31.835 138.037 29.4065C138.111 29.2239 138.605 29.3862 138.605 29.4065V31.3479C138.605 31.5238 138.287 32.6941 138.199 32.9512C138.023 33.4788 137.076 35.0008 137.103 35.3458C137.827 36.861 138.483 38.4169 138.618 40.1148C138.828 42.78 139.639 44.4102 140.173 46.9402C140.423 48.1239 140.417 50.0315 140.741 50.9989C140.89 51.4453 141.499 52.1624 141.755 52.7373C142.438 54.2729 142.804 55.9775 142.986 57.6416C143.169 59.3057 142.851 59.6033 143.885 61.1253C144.318 61.7612 147.455 65.502 146.867 66.0905L146.245 66.1513C146.685 66.9901 147.009 67.8695 147.428 68.7218C147.692 69.2562 148.105 69.7433 148.355 70.3047C149.362 72.5911 149.342 75.4458 149.525 77.9013C150.458 79.0851 151.783 79.9171 152.757 81.0535C152.878 81.2024 153.548 81.9126 153.068 81.872L149.437 78.4965C149.166 79.1324 148.963 80.3771 149.119 81.04C149.153 81.1888 149.518 81.1888 149.606 81.4662C149.7 81.7773 149.484 82.1088 149.491 82.4335C149.579 84.8146 150.802 87.7978 151.438 90.1383C152.195 92.9252 152.784 95.4619 153.751 98.2151C156.191 105.183 160.046 113.936 160.384 121.316C160.397 121.593 160.282 122.019 160.512 122.195V124.326C160.289 124.468 160.404 124.84 160.384 125.077C160.289 126.45 158.653 129.927 157.632 130.901C152.959 135.373 147.861 134.588 142.33 136.624C139.328 137.733 135.109 141.231 131.796 140.716C131.471 140.669 131.079 140.344 130.781 140.358C130.579 140.371 130.376 140.622 130.126 140.696C128.178 141.251 125.629 141.467 123.682 140.818C123.256 140.676 122.803 140.297 122.39 140.236C121.572 140.108 120.497 140.426 119.537 140.338C117.725 140.175 115.791 139.323 114.831 137.727C114.763 137.612 114.614 137.422 114.581 137.348C113.174 134.317 114.865 130.543 116.893 128.209C117.136 127.925 118.401 126.538 118.705 126.836C118.651 127.472 117.873 127.904 117.461 128.405C115.473 130.786 113.512 134.426 115.304 137.442C116.589 139.6 119.517 140.141 121.836 139.736C120.213 136.401 122.127 132.613 124.398 130.096C124.777 129.677 126.508 127.749 126.589 129.095C126.434 129.088 126.278 129.122 126.15 129.217C124.351 130.576 122.174 133.688 121.863 135.954C121.755 136.759 121.714 138.437 122.147 139.107C123.607 141.346 128.144 140.703 130.335 140.114C129.639 137.875 130.227 135.569 131.41 133.614C131.674 133.181 132.918 131.348 133.398 131.476L133.587 131.787C131.64 133.546 130.281 136.36 130.599 139.039C130.7 139.884 131.079 140.121 131.911 140.229C134.196 140.534 138.091 138.2 139.599 136.55C140.031 136.069 140.626 134.54 141.059 134.378C141.14 134.344 141.343 134.304 141.357 134.425C141.417 134.94 140.342 136.455 139.977 136.928C139.957 137.023 140.099 137.01 140.16 136.989C140.802 136.786 141.526 136.326 142.161 136.11C149.254 133.729 156.354 134.899 159.471 126.504C160.424 123.927 159.937 121.066 159.484 118.414C158.835 114.626 157.49 110.141 156.279 106.468C155.941 105.433 154.623 101.476 154.177 100.806C154.143 100.752 154.021 100.637 153.987 100.684C154.035 101.963 153.609 103.444 153.095 104.614C152.283 106.454 150.931 108.984 148.646 109.065C148.125 109.086 147.591 108.802 147.036 108.815C146.232 108.829 144.994 109.383 144.278 109.336C143.939 109.316 143.77 109.221 143.277 109.201C142.662 109.174 142.736 108.788 143.175 108.463C143.872 107.963 145.373 107.55 146.225 107.131C147.388 106.556 150.782 104.723 151.073 103.471C151.506 101.631 151.844 98.993 152.074 97.0787C152.128 96.6119 151.817 96.4089 152.351 95.8678L149.227 84.402C148.902 84.3682 149.031 84.402 148.977 84.5846C148.395 86.5734 147.861 88.7854 147.07 90.693C146.928 91.0312 146.915 91.3965 146.475 91.2882C146.232 91.0515 147.963 86.384 148.165 85.6534C148.368 84.9228 148.801 83.5361 148.842 82.8191C148.902 81.7503 148.409 80.2959 148.463 79.1933C148.483 78.8416 149.011 78.6251 148.828 77.9824C148.788 77.8404 146.935 76.244 146.658 76.014C144.846 74.5664 142.384 73.1255 140.302 72.1109C139.774 71.8538 137.651 70.8324 137.245 70.7715C137.103 70.7512 137.002 70.758 136.894 70.873L132.83 74.7626C135.17 75.8787 137.617 77.1707 139.7 78.7198C140.146 79.0512 141.248 80.208 141.593 80.3365C141.83 80.4245 142.053 80.1877 142.337 80.3297C142.702 80.5124 142.526 81.1144 142.682 81.4932C142.885 81.9938 143.906 82.447 143.655 83.1505L142.594 82.0276V83.969C142.594 84.8078 142.229 85.0176 141.972 85.5046C141.83 85.7752 141.891 86.2216 141.654 86.5396C141.526 86.7087 141.269 86.7357 141.221 86.8845C141.113 87.1957 141.1 88.4674 140.64 88.5351L140.275 88.2916L140.153 88.4133C139.815 88.9139 139.835 89.7189 139.565 90.2059C139.47 90.375 139.267 90.4089 139.173 90.5712C138.645 91.4574 138.037 92.9726 137.212 93.4799C137.016 93.5949 136.765 93.4799 136.529 93.6693C136.339 93.8249 136.197 94.3729 136.022 94.542C135.9 94.6637 135.69 94.6367 135.582 94.7584C135.386 94.9817 134.98 95.9016 134.838 95.9896C134.419 96.2534 134.385 95.9152 134.284 95.8475C133.993 95.6649 133.926 95.9084 133.898 95.2996C133.581 95.6581 132.796 96.3887 132.648 96.8081C132.506 97.2072 132.722 97.4236 132.654 97.6874C132.593 97.931 131.992 98.7292 131.654 98.5601L131.397 98.303C130.849 99.0201 130.098 99.453 129.449 99.9874C129.226 100.177 128.969 100.644 128.935 100.671C128.854 100.725 128.624 100.508 128.455 100.61C128.158 100.786 127.921 101.8 127.333 102.003C126.623 102.24 126.697 101.814 126.623 101.8C126.014 101.712 124.973 103.045 124.507 103.18C124.128 103.288 124.432 102.707 124.385 102.558C123.222 103.275 122.296 103.437 120.943 103.173C120.822 103.038 121.22 101.942 121.376 101.8C121.545 101.645 121.809 101.685 122.012 101.557C122.079 101.516 123.012 100.657 123.202 100.488C123.594 100.136 123.932 99.7033 124.324 99.3448L125.237 99.5477C125.399 99.5071 126.353 97.9648 126.576 97.8431C126.826 97.7145 127.123 97.9648 127.198 97.9107C127.232 97.8836 127.374 97.2883 127.576 97.0922C127.8 96.8757 128.104 96.896 128.327 96.7134C128.604 96.4901 128.956 95.6919 129.233 95.3604C129.382 95.1778 130.626 93.9061 130.721 93.852C130.883 93.7573 131.106 93.8046 131.275 93.6558C131.518 93.4394 131.654 92.5735 131.89 92.3909C132.053 92.2691 132.296 92.3029 132.458 92.2082C132.641 92.0932 132.769 91.667 132.972 91.4709C133.094 91.3559 133.317 91.3491 133.425 91.2409C133.594 91.0785 133.689 90.6591 133.892 90.5171C134.095 90.375 134.365 90.4292 134.527 90.2736C134.818 89.9962 134.75 88.7989 135.582 89.2657C135.711 88.9139 136.542 87.1889 136.718 87.0739C136.853 86.986 137.083 87.0536 137.185 86.986C137.279 86.9251 137.658 85.8699 137.82 85.6737C136.137 83.5226 133.892 81.5879 131.694 79.9509C131.295 79.6533 129.639 78.3816 129.334 78.3004C129.24 78.2733 129.165 78.2192 129.077 78.3004C128.543 79.0986 127.84 79.7412 127.144 80.3839C127.076 80.4515 127.096 80.6003 127.076 80.6274C127.056 80.6544 126.961 80.7491 126.948 80.7559C126.035 81.2565 125.419 81.987 124.567 82.6364C124.48 82.7041 124.412 82.8191 124.317 82.8867C124.263 82.9273 124.04 82.9341 123.905 83.0288C120.659 85.3761 117.015 87.5475 113.181 88.7718C115.007 90.5035 115.311 93.4393 113.931 95.5296C115.02 95.6581 115.967 96.5916 116.562 97.471C119.28 101.476 117.082 107.395 112.721 109.16C111.923 109.485 111.376 109.336 110.551 109.119C104.357 107.476 102.491 98.2489 108.921 95.5972C107.643 93.8452 107.542 91.7009 108.799 89.9015C106.169 90.1789 103.505 89.9218 100.915 89.4618C97.7239 88.9004 93.6669 87.7031 90.9893 85.8699C89.7587 85.0311 87.6897 84.5711 86.1548 83.942C84.1939 83.137 82.206 81.8585 80.2722 81.2565C80.1775 81.2294 80.1843 81.1956 80.1437 81.1279C80.1234 81.0941 80.1978 80.9859 80.0626 80.8709C79.9274 80.7559 78.2708 79.7886 78.1017 79.7209C77.9733 79.6736 77.9192 79.5789 77.7636 79.6803C77.4864 79.8562 75.9651 82.9003 75.7419 83.4211C75.4174 84.1787 75.201 84.9972 74.89 85.7616C75.9786 85.2205 76.0732 86.641 76.5804 87.1348C77.3309 87.8654 77.3985 88.1089 78.0206 88.826C78.2978 89.1439 78.6426 89.2927 78.8996 89.5768C79.2512 89.9759 79.6096 91.0447 79.8395 91.2679C80.4277 91.8362 81.1985 92.3097 81.8476 92.7697C82.1587 92.9861 82.801 94.3187 82.916 94.3999C83.0039 94.4608 83.2744 94.2105 83.5245 94.339C83.7206 94.4405 83.8558 94.9005 84.0925 95.0358C84.4847 94.2849 84.6672 95.2725 84.9242 95.5837C85.1811 95.8949 85.6071 95.976 85.6544 96.4157L85.9655 96.0437C86.1683 96.5578 86.6011 96.5848 86.9121 96.8486C87.142 97.0448 87.737 97.7889 87.9128 97.8633C88.1292 97.9513 88.2982 97.7077 88.6025 97.9107C88.7986 98.0392 88.8865 98.3639 89.0285 98.4924C89.2313 98.6683 89.468 98.6954 89.6641 98.8577C89.8196 98.9863 89.9819 99.3989 90.1036 99.4259C90.2388 99.453 90.4146 99.1959 90.6039 99.1689C91.1043 99.108 91.5303 100.177 91.9765 100.427L92.0982 99.9265L92.4566 99.8183L93.7278 101.306L93.7886 100.745C94.2552 100.481 94.4783 101.327 94.8029 101.611C94.8705 101.672 95.6819 102.166 95.736 102.186C95.8374 102.213 95.8239 101.753 96.1079 101.814L96.5541 102.686C97.4331 102.348 97.2574 102.829 97.5549 103.011C97.6969 103.099 97.9065 102.93 98.089 102.964C98.1431 102.977 98.968 103.39 99.0965 103.464C99.6577 103.775 100.449 104.229 100.05 104.946C99.3129 104.959 98.8666 104.662 98.2378 104.33C98.0485 104.668 97.7036 105.007 97.2776 104.925C94.9111 104.1 92.389 103.627 90.036 102.761C89.7925 102.673 89.7925 102.463 89.7114 102.443C89.4883 102.396 89.2178 102.497 88.9947 102.423C88.8256 102.369 88.8391 102.091 88.7039 102.064C86.7633 101.597 86.3982 101.104 84.7484 100.17C83.9843 99.7371 82.8146 99.365 82.1722 98.8712C81.5772 98.4112 81.3743 97.7281 80.9146 97.2478C79.9747 96.2669 78.8725 96.3345 78.1355 94.8937C77.7028 94.0481 77.4391 93.0673 76.9725 92.1744C76.648 91.5588 76.2085 91.0447 75.8839 90.3818C75.3024 89.1709 74.8021 87.7166 74.9102 86.3569L74.5181 86.2216C74.3828 85.5317 75.8163 82.4267 76.2085 81.6488C76.4384 81.2024 77.4999 79.6939 77.385 79.3557C77.3377 79.2068 75.032 77.6375 74.89 77.5834C74.7344 77.5292 74.6601 77.4886 74.4843 77.536C74.3693 77.5631 72.99 79.1189 72.9494 79.2677C72.7803 79.8224 72.9223 80.8303 72.8953 81.4662C72.8209 82.8732 72.5166 85.6601 72.902 86.9454C72.9359 87.0536 73.1387 87.0401 73.1522 87.1213C73.1793 87.3378 73.0035 88.0345 73.0238 88.481C73.1184 90.3886 73.8419 92.3773 74.1124 94.2781C74.322 95.7393 74.3423 97.3898 73.3077 94.9614L72.023 89.1777C71.9149 90.1789 71.3536 90.9703 70.9953 91.8429C70.0825 94.082 69.1426 96.3278 68.4191 98.6074C68.933 101.266 69.9269 104.513 71.9554 106.461C72.5302 107.016 73.727 107.192 74.5181 107.658C75.5188 108.247 76.4857 109.485 77.3647 109.945C77.8245 110.188 78.6967 110.195 78.9131 110.405C79.8935 111.365 77.0469 110.54 76.817 110.499C75.1942 110.202 73.2942 110.08 71.8134 109.248C71.3131 108.964 70.9277 108.436 70.5152 108.166C70.0351 107.855 69.3995 107.719 68.8586 107.32C66.9654 105.927 67.4387 104.838 66.9113 102.883C66.8707 102.727 66.8437 102.335 66.6476 102.335C66.4515 102.964 66.1675 103.667 65.8767 104.263C64.707 106.664 63.8415 108.517 62.8611 111.007C62.0767 113.002 61.1369 114.254 60.481 116.513C59.8319 118.745 59.7304 119.747 59.771 122.053C59.7778 122.696 59.6425 124.157 59.7913 124.664C59.8522 124.86 60.366 125.266 60.5486 125.537C61.1301 126.403 61.9483 127.979 62.266 128.953C62.4216 129.427 62.3134 130.096 62.4554 130.387C62.7461 130.982 65.302 132.017 65.9985 132.227C70.8803 133.681 75.9515 133.81 80.7928 135.203C83.4366 135.968 85.9317 137.145 88.4875 138.146C88.0819 136.928 87.5747 135.704 87.6762 134.392H88.048C88.2374 135.508 88.4335 136.786 88.9609 137.801C89.894 139.58 93.3018 141.406 95.2424 141.406H97.0545C97.0883 141.704 97.0545 141.853 96.7435 141.907C95.9794 142.042 94.2079 141.927 93.4573 141.691C91.3342 141.034 90.09 139.519 88.2779 138.606C85.1744 137.043 80.3533 135.42 76.9387 134.804C73.0102 134.101 67.6415 133.796 64.0579 132.038C63.571 131.801 62.8137 131.151 62.4554 131.016C62.2187 130.922 62.2999 131.091 62.2728 131.206C61.6845 133.749 59.9468 135.041 57.4653 135.663C51.6841 137.125 44.1044 135 38.7424 132.701C34.2054 130.759 31.1897 129.244 28.3498 125.07C28.0929 124.691 27.2612 123.555 27.126 123.291C26.815 122.682 26.1726 120.437 25.9833 119.672C22.7174 106.603 32.8531 94.0414 43.9962 88.6365C47.2959 82.7582 51.7923 77.3195 57.3436 73.4435C59.8995 71.6577 62.8273 70.0612 65.8903 69.4118C65.9511 69.3577 65.2209 68.1333 65.1194 67.9913C64.9842 67.8019 64.9098 67.6598 64.6394 67.6598C64.6394 67.6193 64.6394 67.5719 64.6394 67.5313C64.5447 66.794 63.6995 65.2043 63.4493 64.2776C63.0233 62.6676 62.8746 60.875 63.0098 59.2109C63.0977 58.1624 63.7198 56.9043 63.7671 56.0722C63.7942 55.5852 63.5643 55.2334 63.5237 54.814C62.9557 48.3607 64.6529 42.922 67.7159 37.3751C67.7903 37.2466 67.9187 37.1587 68.0202 37.0505C67.77 36.7393 66.8437 37.0708 66.776 36.7934C66.6949 36.5161 67.4928 34.5747 67.77 35.1902C67.5604 36.0899 68.8316 36.5837 68.7775 37.294C68.7504 37.6119 67.1682 40.0133 66.8707 40.6627C65.3291 44.0923 63.9226 48.6854 64.1322 52.46C64.1593 52.9673 64.3554 53.4814 64.2607 54.0226C65.1735 54.1038 64.9301 52.5547 65.7618 52.6494L65.8226 53.15C65.9511 52.8794 66.6138 52.5479 66.6949 52.3991C66.9113 52.0135 67.0533 51.7091 67.317 51.2694C67.8106 50.4374 68.9127 46.0607 69.1494 45.8984C69.2237 45.8443 69.4874 45.9864 69.6565 45.9525C70.1704 45.8511 70.3462 45.3099 70.7113 45.019L71.0223 45.3911C71.7391 44.7755 71.6173 45.1476 72.1109 45.364C73.3483 45.8984 74.0042 45.9728 74.9643 44.8905C75.654 44.1126 75.8839 43.3076 76.79 42.5838C80.6982 39.4383 86.7025 41.7788 87.8317 46.5343C88.0886 47.6098 88.1833 49.7001 88.1765 50.8365C88.1765 52.1015 87.5477 53.4882 87.6694 54.7802H87.0406C86.8445 50.8703 85.0121 53.2514 83.0647 53.495C79.4946 53.9482 76.7359 52.115 75.8366 48.6448C75.5255 47.4407 75.5594 46.4937 75.6473 45.2625C75.1334 45.6819 74.6668 46.1961 74.0515 46.4802C72.4287 47.2378 71.3604 46.7643 69.812 48.3133C69.7106 48.4148 68.8045 49.6189 69.3252 49.3957L69.8255 49.0236L69.9946 49.3212C69.9878 49.6189 69.3049 49.9774 69.2643 50.1194C69.0817 50.8365 68.622 52.0068 68.5273 52.6291C68.4935 52.8658 68.622 53.062 68.5746 53.2853C68.2636 54.7938 65.7888 55.6461 64.5041 56.0993C62.9287 59.7995 63.544 63.8988 65.2614 67.4231C65.4643 67.3757 65.6739 67.3419 65.8767 67.3013V67.5516C65.8091 67.5651 65.4846 67.6937 65.5049 67.741C65.897 68.4378 68.5002 71.9012 69.0615 71.9282C72.1515 70.7106 75.3633 69.6012 78.7035 69.3036C78.9469 69.2833 79.9612 69.3442 80.0085 69.2968C80.0693 69.236 79.8868 68.6745 80.5089 68.4783C81.1783 68.2686 80.9416 68.8504 81.016 69.2157C81.0363 69.3171 81.4081 69.3171 81.2661 69.6756C77.1619 69.3915 73.1319 70.6498 69.3793 72.1853C69.3252 72.3747 69.4266 72.395 69.501 72.4964C69.6632 72.7332 71.5565 74.4176 71.7593 74.5055C71.9013 74.5596 72.3882 74.3837 72.5031 74.3161L72.6316 74.4446C72.5302 74.5123 72.0974 74.8234 72.1921 74.9452C72.4828 75.2563 73.044 75.4661 73.328 75.6961C73.4362 75.784 73.47 75.9666 73.5512 76.0275C73.7675 76.1899 74.5451 76.8189 74.7615 76.7581C76.3302 75.4863 77.8786 74.0929 79.7651 73.315C79.8395 73.2067 78.8387 72.0026 79.0145 71.5629C79.1363 71.5629 79.4676 71.59 79.5149 71.5629C79.9003 71.9214 80.3195 72.3747 80.2654 72.9429L81.8882 72.4423C81.9491 72.7738 81.8206 72.6588 81.638 72.7467C81.3067 72.9091 80.8943 72.9564 80.6373 73.2608L81.9694 74.5596L83.768 73.6938C84.0722 73.9643 82.5644 74.4446 82.5171 74.634C82.4291 74.9858 83.3555 75.0061 83.2676 75.4457C82.8213 75.6487 82.1925 75.0737 81.9491 75.0669C81.8003 75.0669 80.5427 76.2237 80.3263 76.4402C79.9138 76.8663 78.5683 78.3951 78.3587 78.8551C78.2978 78.9836 78.2031 79.173 78.2775 79.3015C79.0078 79.518 79.7854 80.5191 80.5156 80.323L80.6441 80.4515C80.6441 80.6341 80.7049 80.7086 80.8402 80.81C82.321 81.9735 87.3922 84.0299 89.3057 84.6184C94.884 86.3298 102.599 87.5407 108.299 86.2757C111.545 85.5587 114.797 84.2802 117.806 82.8935C117.833 82.7717 116.65 81.6623 116.426 81.4526L116.555 81.0738C117.055 81.5676 117.644 81.9735 118.022 82.5823C118.164 82.6703 118.279 82.6702 118.435 82.6432C118.705 82.6026 121.707 81.1144 121.876 80.9453L121.308 80.3839C121.207 80.3095 121.227 80.1268 121.187 80.0727C121.552 80.2689 122.174 80.7289 122.471 80.6815C123.039 80.5868 124.141 79.5586 124.818 79.4504C124.851 79.3015 124.723 79.1866 124.689 79.0783C124.669 79.0107 124.703 78.9092 124.689 78.828C124.75 78.8618 125.135 79.0512 125.162 79.0512C125.48 79.1121 127.509 77.8539 127.881 77.5698C128.002 77.4819 127.928 77.4684 127.82 77.3872C125.44 75.6825 121.065 73.8426 118.252 72.9361C117.481 72.6859 115.946 72.1515 115.209 72.0838C114.77 72.0432 114.641 72.5912 114.554 72.9361C116.643 73.6938 118.543 74.8099 120.436 75.9396V76.1899C118.408 75.1481 116.426 73.9846 114.27 73.2135C113.986 73.2608 112.512 74.5731 112.552 74.7423C113.972 75.5134 115.399 76.2643 116.805 77.0625V77.3128C115.953 76.8189 114.865 76.244 113.972 75.8313C113.614 75.6622 112.397 75.067 112.106 75.0534C111.538 75.0331 111.105 75.7772 110.551 76.0004C110.997 76.271 111.389 76.6431 111.802 76.9407L111.673 77.0692C111.504 76.9475 110.199 76.1966 110.111 76.1966C109.699 76.3725 108.657 77.0557 108.252 76.9339C107.278 76.6431 109.651 76.0546 109.672 75.8178C108.326 75.2496 107.041 74.3567 105.54 74.2552L105.419 73.8155C107.129 73.9982 108.61 74.9452 110.104 75.6961C110.334 75.297 110.977 75.2361 111.389 74.9655C111.511 74.8843 111.612 74.979 111.551 74.6881L107.92 73.2473C108.083 72.997 108.177 73.0985 108.394 73.1323C109.171 73.2608 111.639 74.5461 112.086 74.4176L113.553 72.9294L111.261 72.3071L111.179 71.9282C112.288 71.6847 114.053 73.3623 114.56 71.9282L113.56 71.7997V71.4276C118.813 72.1988 123.709 74.5731 128.286 77.1572L131.701 74.8708C129.706 73.5855 127.407 72.7806 125.169 72.0162C121.417 70.7309 117.623 69.6824 113.641 69.3983L113.431 69.0466C119.929 69.3983 126.271 71.7659 132.14 74.4243C132.614 74.4108 135.866 71.2924 136.339 70.7377C136.475 70.5753 136.434 70.3318 136.461 70.298C136.475 70.2777 136.711 70.2574 136.894 70.0409C137.164 69.723 137.158 69.3848 137.333 69.1007C137.557 68.7489 138.199 68.201 138.51 67.7748C141.837 63.2426 143.838 58.5007 141.174 52.9876C140.924 52.4668 140.248 51.7226 140.139 51.2694C139.788 49.8353 139.788 48.0563 139.423 46.4734C139.098 45.0664 137.962 42.4485 137.861 41.2783C137.827 40.8589 137.996 40.2365 137.955 39.6818C137.908 39.1001 137.097 36.1981 136.644 35.9884L135.602 37.0166C135.853 37.4834 135.379 38.2004 135.014 37.7404C134.068 36.5499 135.656 33.1609 135.92 31.7606C136.204 30.2657 136.17 29.0277 135.433 27.6816C135.271 27.384 134.94 27.3366 134.974 26.9375C135.007 26.5384 135.521 26.4775 135.758 26.2137C137.665 24.0897 139.058 20.0986 139.328 17.271C139.734 13.0838 140.342 4.66875 136.563 1.88177C135.217 0.894154 133.817 1.75327 132.533 2.45678C126.386 5.8458 118.266 14.2067 114.574 20.173C114.371 20.4977 113.505 22.27 113.357 22.3377C112.992 22.4932 112.924 21.9656 112.978 21.7153C113.167 20.8156 114.513 19.2936 114.932 18.4075C115.007 18.2587 115.094 18.1504 115.047 17.961C114.668 17.8663 114.29 18.3466 113.986 18.333C113.81 18.3263 113.641 18.1031 113.363 18.076C113.019 18.0422 112.626 18.2181 112.241 18.2248C111.66 18.2316 111.098 18.0084 110.51 18.0828C110.402 18.1098 110.341 18.3533 110.3 18.4616L110.172 18.333V18.0828L109.922 17.9542C108.874 17.7513 107.454 18.2519 106.352 18.0828C100.374 17.4604 94.6609 18.0963 88.8392 19.4628C87.3651 19.4086 86.2224 18.4345 84.9377 17.8528L84.1466 17.2034C84.3697 18.421 85.6882 20.288 85.7491 21.4312C85.7694 21.7762 85.553 21.9791 85.2149 21.9589C84.6875 20.6533 84.3021 19.253 83.6665 17.9948C82.3548 15.4108 76.0597 10.1616 73.5444 8.33513C71.5971 6.92135 65.5319 2.61235 63.3411 2.82882C61.7386 2.9844 61.7319 4.01937 61.529 5.40609C60.65 11.2844 63.3885 20.8901 66.3433 25.9296C66.7219 26.579 67.344 27.9116 68.1216 27.8439C68.2365 28.2701 67.9255 28.1957 67.7632 28.4189C67.3237 29.0548 66.7558 30.6445 66.8707 31.4021C66.9248 31.7741 66.9451 31.8756 66.9856 32.268C66.9924 32.3559 67.2155 32.3288 67.2426 32.4303C67.6753 34.1349 66.8707 35.2781 66.5529 36.8475C66.492 37.1451 66.4785 37.4292 66.4988 37.7336H66.1269L66.3839 35.0617C65.8903 34.7776 65.6604 33.9523 65.5049 33.4112C64.6732 30.4686 65.5657 27.1337 64.6867 24.3399C63.9159 21.8912 62.6177 19.3748 61.928 16.8313C61.2383 14.2879 60.5689 9.75565 60.6095 7.12426C60.6297 5.79165 61.1301 4.50643 61.1707 3.18059C61.4276 2.3012 63.3952 2.10501 64.1661 2.19295C66.9248 2.51088 73.896 7.62486 76.2423 9.51892C79.8733 12.448 83.3555 16.8111 87.9331 18.2316C90.6851 19.0839 94.2755 17.3725 97.21 17.2034C101.03 16.9802 105.108 17.2643 108.975 17.2034C109.449 17.1966 110.429 17.704 110.551 16.9599H110.733C110.76 17.4131 111.078 17.4199 111.484 17.4604C112.133 17.5146 113.959 17.4537 114.554 17.2778C114.973 17.156 116.318 15.9384 116.738 15.5799C118.252 14.2743 119.51 12.6035 120.923 11.1356C122.722 9.26188 124.743 7.3475 126.751 5.69696C129.28 3.61349 132.14 1.4827 135.318 0.562726H135.447L135.481 0.495056ZM115.27 17.7716V17.9002C115.351 17.8596 115.351 17.819 115.27 17.7716ZM66.1472 33.4179C66.2351 33.7562 66.3974 34.0741 66.4582 34.4191C67.1479 34.1958 66.5191 33.7697 66.3974 33.4179C66.5191 32.1665 66.3974 31.0639 66.7355 29.8124C66.8301 29.4607 67.2629 28.6692 67.2629 28.473C67.2629 28.2769 65.9444 26.5654 65.8294 26.5316C65.5522 26.4505 65.6468 26.721 65.6401 26.8428C65.5251 28.818 65.6536 31.5103 66.1404 33.4179H66.1472ZM86.1683 45.5669C86.1075 45.4384 86.0601 45.0461 85.7964 45.1273C85.8235 45.1949 85.8776 45.3099 85.9317 45.4249C85.9317 45.4249 85.9925 45.5602 86.0399 45.6887C86.148 45.966 85.9317 50.2074 82.916 50.9921C81.8612 51.2627 80.4412 51.1274 79.4946 50.2751C77.8651 48.8139 77.7907 45.3978 80.0355 42.3065C76.8103 42.7123 75.8772 46.9199 77.0063 49.5242C79.7448 55.8355 89.495 52.1962 86.1683 45.5602V45.5669ZM83.0106 44.0855C82.1519 44.2682 82.0437 46.0675 82.9768 46.0743C84.1263 46.0811 84.2615 43.8217 83.0106 44.0855ZM142.986 60.4624C142.662 60.4286 142.79 60.4624 142.736 60.6451C142.006 63.1412 141.302 64.9472 139.788 67.0848C139.524 67.4569 137.151 70.2506 137.36 70.4806C141.566 72.0432 145.562 74.3364 148.875 77.3669C148.889 75.4458 148.754 73.3082 148.213 71.4547C147.827 70.1086 146.962 69.0465 146.387 67.7681C146.218 67.396 145.407 65.5831 145.616 65.3463C145.826 65.2787 146.299 65.6846 146.238 65.2855L142.986 60.4624ZM68.5273 72.3544C68.676 72.1853 67.6212 71.2924 67.459 71.1029C67.2561 70.8662 66.438 69.6959 66.2283 69.7365C63.2059 71.5832 61.0354 74.0996 59.771 77.4278C62.5838 75.6217 65.2885 73.3961 68.5273 72.3544ZM72.28 84.4426C72.5437 83.4617 72.0839 81.3038 72.28 80.1877C72.5234 79.8156 72.0974 80.2418 72.0366 80.3162C70.0689 82.6297 68.4191 86.3028 67.5266 89.198C67.344 89.7933 67.2696 90.4562 67.0871 91.0176C67.0194 91.2341 67.0803 91.3153 66.776 91.2679C67.2155 88.0886 68.649 84.8484 70.3529 82.1426C71.7458 79.9239 72.7533 79.518 72.7939 76.5619C72.8006 76.0005 72.2867 75.3578 71.7729 75.182C71.4686 75.0805 70.1906 76.1154 69.8458 76.3793C68.9938 77.0286 67.5536 78.1042 67.1276 79.0445C66.4244 80.6071 66.3433 81.9329 65.9646 83.5158C64.8287 88.2713 64.4839 90.7741 64.6394 95.7258C64.6597 96.3954 65.0315 98.8848 63.997 96.7472C63.0572 94.8058 63.2127 93.6287 63.0031 91.6062C62.9625 91.1935 62.6312 90.3615 62.6515 90.0774C62.6717 89.8068 62.9963 89.7392 63.0098 89.4686C63.0166 89.313 62.8881 89.0627 62.8881 88.8395C62.8611 86.8237 63.2194 84.0908 64.1525 82.3253C64.2607 82.1223 64.3216 82.0006 64.2742 81.757L63.5846 82.3794C61.3803 85.1731 59.2909 88.278 58.8312 91.897C58.5877 92.1405 58.5201 91.8294 58.5269 91.5994C58.6013 89.2521 60.6771 85.7278 62.0429 83.8405C62.6177 83.0491 64.0579 81.642 64.4027 80.9453C65.1668 79.403 64.9436 76.6634 66.3433 75.1278C66.607 74.837 67.0465 74.8031 67.2561 74.5393C67.5739 74.147 67.8782 73.2608 68.1419 72.8008C66.5867 73.3961 65.0721 74.2958 63.6522 75.1887C62.6244 75.8381 59.7237 77.6848 59.1895 78.6116C58.2158 80.3095 57.3368 87.6016 57.3977 89.6851C57.4247 90.7809 58.1077 91.9579 58.3308 93.0132C58.7568 95.0087 58.3511 97.2004 58.5134 99.2162C58.6486 100.914 59.5141 102.937 59.5817 104.54C59.5885 104.723 59.6696 104.77 59.4465 104.912C59.0746 104.993 58.2226 102.889 58.1009 102.504C57.9116 101.936 57.4383 100.224 57.3909 99.6965C57.3571 99.3042 57.5532 99.0133 57.4856 98.6209C57.303 97.498 56.5254 96.1587 56.397 94.9411C56.2347 93.4123 56.6404 91.7888 56.5863 90.4697C56.5592 89.7662 56.0386 88.6095 55.9101 87.791C55.6464 86.1134 55.7749 84.2667 55.8763 82.5688C55.8966 82.2035 56.0116 81.6691 56.1198 81.3106L54.3076 83.0017C53.5841 83.7796 53.0094 84.7199 52.2994 85.4978C52.1236 85.694 52.1507 85.5925 51.9952 85.4369C51.9681 85.2814 53.219 83.7526 53.4354 83.4955C53.9357 82.9002 55.998 80.9994 56.1874 80.6138C56.5728 79.8021 56.5728 78.0501 56.7891 77.0896C56.9582 76.3455 57.3706 75.6419 57.445 74.864C57.2354 75.0669 56.7824 75.1684 56.5931 75.3578C56.4714 75.4796 56.4916 75.696 56.3767 75.7907C54.4496 77.4075 52.7457 77.9689 51.8397 80.5259C50.9336 83.0829 50.1966 87.5474 50.5009 90.3277C50.5685 90.95 51.2514 94.0008 51.0688 94.2781C50.7916 94.5825 50.609 94.1834 50.4806 93.9873C48.9592 91.6671 48.1005 88.2104 48.1208 85.4437C48.1208 84.6523 48.4521 83.7932 48.3169 83.0085C44.6656 87.6828 41.9204 93.1823 41.0008 99.1012C40.8453 99.2433 40.5478 99.1418 40.514 98.9592C40.4666 98.7224 40.8656 96.9434 40.9602 96.551C41.5012 94.1767 42.4207 91.8767 43.5026 89.7053L43.32 89.5227C41.8933 90.3885 40.4463 91.2138 39.0873 92.1744C37.2481 93.4664 35.5307 94.9005 34.1243 96.5916C33.2655 97.6198 32.4474 98.7224 31.7442 99.8453C32.2513 99.8656 32.7719 99.5409 33.2993 99.5477C34.3001 99.5544 36.1865 100.501 36.9912 101.11C37.3563 101.388 38.2624 102.578 38.5599 102.544C38.8912 102.152 38.6275 101.029 39.3239 101.536C38.4314 107.476 39.52 113.212 45.051 116.33C48.7226 118.4 53.0094 119.645 56.5593 122.094L59.1489 123.947C59.1625 121.979 59.0408 119.997 59.46 118.062C60.7244 112.191 64.2066 107.144 66.1202 101.564C67.4928 97.5657 69.4672 93.7167 70.7924 89.8339C71.3739 88.1224 71.8337 86.154 72.2867 84.4426H72.28ZM80.1505 73.3691C78.3113 74.1605 76.7426 75.4728 75.2145 76.7378V77.1166L77.669 78.8077H77.9124C78.9875 77.3466 80.2384 76.0546 81.5434 74.7896L80.4074 73.7952L80.1505 73.3623V73.3691ZM71.401 74.9858C71.4415 74.8099 71.3739 74.7829 71.2793 74.6746C71.1846 74.5664 70.3394 73.8223 70.2109 73.7344C70.1027 73.6599 70.0892 73.5585 69.8999 73.6126C70.0284 74.4649 69.217 74.6002 68.8721 75.1481L67.8985 77.4886L71.401 74.9858ZM140.951 81.845C140.991 81.8044 141.37 80.81 141.343 80.7086C141.208 80.1809 138.334 78.1989 137.719 77.8133C136.847 77.2586 133.195 75.1211 132.391 75.1143C132.269 75.1143 132.208 75.1346 132.1 75.1752C131.917 75.2361 129.828 76.7987 129.74 76.9543C129.666 77.0828 129.409 77.8945 129.47 77.9824C129.645 78.023 129.801 78.0772 129.95 78.1854C131.789 79.5383 133.655 80.8912 135.339 82.4335C135.846 82.9002 137.955 85.2272 138.307 85.349C139.118 85.6263 138.875 84.6523 139.335 84.2126C139.477 84.0773 139.686 84.1246 139.828 83.9285C140.126 83.5226 140.295 82.2712 140.579 81.9532C140.68 81.8382 140.87 81.9059 140.931 81.845H140.951ZM74.2611 77.0083L73.2807 76.3658L73.0305 78.4965C73.2875 78.2733 74.464 77.3533 74.2611 77.0083ZM129.098 77.3669H128.848V77.6172L129.098 77.3669ZM111.572 85.8834C110.605 85.9849 110.206 86.2081 110.084 87.2092C109.962 88.2104 110.057 90.0977 110.713 90.9433C110.977 91.2815 111.524 91.1935 111.835 90.9433C111.409 89.2995 111.037 87.5474 111.572 85.8901V85.8834ZM111.95 89.1371L112.133 90.2668C113.221 90.5644 113.695 91.4371 113.539 92.5464C113.411 93.4935 112.599 94.1091 113.512 95.144C113.857 95.144 114.283 93.3988 114.31 93.0673C114.445 91.5521 113.85 89.0492 111.95 89.1371ZM109.699 89.7595C109.401 89.5362 108.712 91.0312 108.637 91.2612C108.204 92.6344 108.455 93.7776 109.178 94.9749C109.726 95.8881 110.368 96.4225 111.497 96.3954L111.653 95.7528C110.131 95.5566 109.137 93.6423 109.354 92.2218C109.496 91.2815 110.328 90.8215 109.699 89.7527V89.7595ZM112.512 91.0176C112.228 91.4573 111.186 91.8632 110.733 91.6738C110.51 91.5791 110.328 91.1529 110.138 91.3897C109.624 92.0256 109.773 93.3852 110.26 94.0143C110.537 93.7167 110.977 93.3108 111.396 93.2702C111.815 93.2297 112.552 93.7167 112.701 93.5882C113.174 92.7696 113.323 91.6535 112.505 91.0109L112.512 91.0176ZM37.9648 106.062C37.9243 106.015 37.6741 106.021 37.5524 105.92C36.9236 105.406 36.6599 104.885 35.8214 104.513C34.983 104.141 32.968 103.688 32.0958 103.843C31.4399 103.958 28.7623 105.271 28.3498 105.73C25.99 108.382 25.8751 113.895 26.2199 117.244C26.3146 118.15 26.5783 119.158 26.7203 120.064L26.869 118.529C28.2417 115.972 28.857 113.638 31.7239 112.366C33.8808 111.413 36.9236 112.184 39.236 112.055C39.3713 111.433 38.8439 111.108 38.6207 110.601C38.2421 109.735 38.2826 108.199 38.1204 107.219C38.0865 107.016 38.0054 106.116 37.9581 106.062H37.9648ZM47.1268 118.935C46.0923 118.089 44.6994 117.805 43.5837 117.034C43.1172 116.716 41.6026 115.133 41.4065 115.079C41.1766 115.011 39.831 114.835 39.5538 114.829C37.6809 114.768 35.4833 115.911 34.1107 117.122C33.6847 117.501 33.0965 117.981 32.8531 118.495C32.6908 118.84 32.4541 119.997 32.3257 120.159C32.2175 120.288 31.8388 120.247 31.7509 120.524L31.7171 122.053L31.1018 122.27L31.1694 124.698C31.4602 126.044 32.4879 127.079 33.0492 128.209C33.3399 128.791 33.0086 128.479 33.5563 129.075C34.2054 129.778 34.3947 129.92 35.2399 130.401C37.1332 131.476 39.3239 132.369 41.3727 133.086L39.1211 130.766C39.1211 130.373 39.5403 130.529 39.7431 130.394C39.3104 129.92 37.789 127.959 37.8905 127.404C37.9243 127.214 38.2083 127.018 38.4111 127.079C38.614 127.14 38.6951 127.681 38.9858 127.634L38.7559 126.457L39.4862 126.308C39.5132 126.085 39.4659 125.862 39.5065 125.638C39.6214 125.009 40.1556 123.798 40.4937 123.244C40.8926 122.594 41.7446 122.513 41.2645 121.762C42.9481 120.443 44.7873 118.637 47.1268 118.928V118.935Z" fill="#6F7A58" stroke="#6F7A58" stroke-width="0.99" stroke-linecap="round" stroke-linejoin="round"/>
<path d="M101.064 142.218C100.625 142.191 98.684 141.914 98.684 141.406C98.684 140.838 99.6712 141.413 100.09 141.508C106.866 143.023 109.489 137.679 106.392 132.071C106.169 131.672 104.83 129.954 105.074 129.697C105.365 129.643 105.459 129.771 105.642 129.941C106.027 130.306 106.622 131.321 106.893 131.821C108.448 134.703 108.921 138.031 106.703 140.71C114.026 140.047 113.83 131.598 109.895 127.066C109.131 126.186 106.751 124.197 105.621 124.103C103.762 123.94 103.593 123.643 102.031 122.791C95.2356 119.077 87.852 114.944 79.9814 114.423C75.9651 114.159 72.4625 115.512 69.244 117.825C66.1202 120.071 65.2682 123.663 65.5116 127.363L65.3223 127.553C64.4636 127.844 64.1187 126.437 64.1458 125.814L63.6319 125.74C63.4696 125.314 63.5508 124.867 63.4696 124.427C63.2803 123.44 63.1991 123.961 63.3682 122.838C63.8753 119.51 63.7468 118.475 66.5935 116.303C74.5181 110.256 84.2615 113.726 92.4296 117.244C95.8915 118.732 99.0356 120.808 102.416 122.398C103.789 123.048 105.446 123.318 106.832 123.995C109.117 125.111 110.808 127.133 112.018 129.318C113.62 126.538 115.987 124.238 118.834 122.743C122.458 120.842 126.467 119.273 130.146 117.406C134.122 115.383 137.016 113.713 141.593 112.955C146.685 112.109 149.254 112.542 153.541 115.316C157.605 117.947 158.957 120.856 158.247 125.733C158.146 126.443 158.091 126.687 157.273 126.545C157.037 125.774 157.064 124.921 156.847 124.157C156.442 122.716 154.846 121.336 153.953 120.166C153.521 119.604 153.23 118.827 152.757 118.238C148.652 113.144 140.525 113.652 135.028 116.019C134.649 116.182 134.237 116.554 133.865 116.669C133.297 116.844 132.803 116.716 132.269 116.892C131.052 117.284 129.044 118.556 127.772 119.158C123.235 121.316 117.502 123.251 114.215 127.127C113.823 127.593 112.424 129.541 112.356 130.029C112.315 130.346 112.965 132.058 113.052 132.667C113.242 133.986 113.154 135.697 112.714 136.949C112.694 137.009 112.532 137.3 112.464 137.449C111.531 139.533 109.8 140.886 107.508 141.19C107.035 141.251 106.487 141.122 106.054 141.237C105.27 141.44 104.783 142.069 103.586 142.211C103.228 142.252 102.714 142.083 102.457 142.34H101.828C101.686 142.117 101.314 142.232 101.078 142.211L101.064 142.218Z" fill="#6F7A58" stroke="#6F7A58" stroke-width="0.99" stroke-linecap="round" stroke-linejoin="round"/>
<path d="M103.566 142.218V142.347H102.437C102.694 142.09 103.208 142.265 103.566 142.218Z" fill="#6F7A58" stroke="#6F7A58" stroke-width="0.99" stroke-linecap="round" stroke-linejoin="round"/>
<path d="M160.505 122.189C160.282 122.013 160.39 121.586 160.377 121.309H160.505V122.189Z" fill="#6F7A58" stroke="#6F7A58" stroke-width="0.99" stroke-linecap="round" stroke-linejoin="round"/>
<path d="M160.505 125.07H160.377C160.39 124.833 160.282 124.461 160.505 124.319V125.07Z" fill="#6F7A58" stroke="#6F7A58" stroke-width="0.99" stroke-linecap="round" stroke-linejoin="round"/>
<path d="M101.815 142.347H101.064V142.218C101.301 142.232 101.673 142.123 101.815 142.347Z" fill="#6F7A58" stroke="#6F7A58" stroke-width="0.99" stroke-linecap="round" stroke-linejoin="round"/>
<path d="M133.851 116.682C134.615 117.061 135.494 116.716 136.312 116.729C144.649 116.885 150.917 122.878 148.76 131.537C148.585 132.254 148.504 132.971 147.699 133.201C147.543 133.133 147.469 133.012 147.401 132.863C146.996 131.956 147.266 129.839 147.09 128.797C146.955 127.992 146.326 127.532 146.144 127.12C145.86 126.457 145.934 125.097 145.643 124.36L142.736 121.756L143.108 121.383C142.046 120.024 140.004 119.185 138.381 118.596C136.914 118.069 135.386 117.724 133.851 117.433V116.689V116.682Z" fill="#6F7A58" stroke="#6F7A58" stroke-width="0.99" stroke-linecap="round" stroke-linejoin="round"/>
<path d="M85.1608 117.047C82.659 117.981 79.9138 119.293 78.095 121.309C77.7839 121.661 77.5202 122.222 77.243 122.52C77.0807 122.696 76.5601 122.912 76.4722 123.068C76.222 123.521 76.2558 125.063 76.1476 125.625C75.911 126.876 74.8358 130.137 75.1807 131.246C75.2821 131.564 75.9583 131.923 75.0928 132.335C74.3085 131.172 73.4632 130.164 73.1793 128.736C72.7262 126.457 73.8689 122.445 75.1469 120.497C76.3978 118.596 80.3533 117.257 82.5238 116.865C82.9295 116.79 84.9242 116.432 85.1 116.675L85.1473 117.047H85.1608Z" fill="#6F7A58" stroke="#6F7A58" stroke-width="0.99" stroke-linecap="round" stroke-linejoin="round"/>
<path d="M83.0377 132.207H82.5441C82.7402 130.712 82.5441 129.196 82.8822 127.729C83.9708 123.061 86.4658 120.66 91.1787 119.753C91.5167 119.686 92.4634 119.334 92.2876 119.983C92.2132 120.261 89.9413 121.674 89.4883 122.073C87.1758 124.083 83.8964 128.635 83.0986 131.584C83.0445 131.794 83.0377 131.997 83.0377 132.213V132.207Z" fill="#6F7A58" stroke="#6F7A58" stroke-width="0.99" stroke-linecap="round" stroke-linejoin="round"/>
<path d="M138.983 127.945C138.794 127.972 138.692 127.945 138.537 127.83C138.219 127.587 137.611 126.694 137.171 126.315C136.306 125.557 135.372 125.246 134.541 124.563C132.905 123.217 131.809 122.601 129.754 121.837C128.618 121.417 127.401 121.099 126.231 120.795V120.321C129.645 119.692 133.675 120.585 136.285 122.939C137.117 123.683 138.544 126.166 138.882 127.228C138.963 127.472 139.017 127.681 138.976 127.945H138.983Z" fill="#6F7A58" stroke="#6F7A58" stroke-width="0.99" stroke-linecap="round" stroke-linejoin="round"/>
<path d="M64.6461 67.4772C64.6461 67.5178 64.6461 67.5651 64.6461 67.6057C64.6461 67.6869 64.6664 67.768 64.6394 67.8492C57.8642 69.2089 51.1905 72.3679 45.9976 76.9339C45.4094 77.4548 44.7805 78.3207 44.1855 78.7468C43.9827 78.8956 43.8069 79.1054 43.6243 78.8077C43.5296 78.341 48.3304 74.5799 49.0403 74.0861C53.6518 70.8797 59.1287 68.5663 64.6461 67.4772Z" fill="#6F7A58" stroke="#6F7A58" stroke-width="0.99" stroke-linecap="round" stroke-linejoin="round"/>
<path d="M136.231 106.535C137.016 105.494 137.557 104.756 138.415 103.775C138.828 103.302 138.868 102.395 139.612 102.531C139.632 102.713 139.619 102.856 139.544 103.025C139.01 104.188 138.016 105.135 137.239 106.096C136.772 106.664 135.542 108.456 134.98 108.734C134.73 108.856 134.636 108.524 134.48 108.592L133.662 109.539C133.473 109.573 133.445 109.539 133.473 109.349C133.581 108.599 135.231 106.989 135.542 106.157C136.157 105.845 136.049 105.974 136.103 106.407L135.602 107.158C135.9 107.192 136.069 106.745 136.224 106.535H136.231ZM135.542 107.293L135.352 107.482L135.413 107.543C135.481 107.462 135.663 107.381 135.542 107.3V107.293Z" fill="#6F7A58" stroke="#6F7A58" stroke-width="0.99" stroke-linecap="round" stroke-linejoin="round"/>
<path d="M96.1349 131.334C96.6218 131.206 98.2783 133.093 98.542 133.539C99.5698 135.285 100.199 139.337 98.6908 140.906C98.4609 141.149 97.3926 141.988 97.3182 141.285C99.0762 140.168 99.2317 138.322 98.9275 136.414C98.6435 134.642 97.947 133.296 96.5744 132.132C96.4527 132.031 95.3776 131.537 96.1417 131.334H96.1349Z" fill="#6F7A58" stroke="#6F7A58" stroke-width="0.99" stroke-linecap="round" stroke-linejoin="round"/>
<path d="M145.082 96.3616C144.994 96.4495 144.805 96.3886 144.582 96.6727C144.142 97.2207 143.831 98.5195 143.453 98.9862C143.277 99.2027 142.722 99.5274 142.553 99.8994C142.296 99.9468 142.337 99.798 142.391 99.6153C142.492 99.2433 143.284 97.5251 143.5 97.126C144.183 95.8407 145.211 94.8328 145.589 93.2973C145.697 92.8711 145.664 91.3897 146.421 91.6535L146.604 92.0459L145.089 96.3616H145.082Z" fill="#6F7A58" stroke="#6F7A58" stroke-width="0.99" stroke-linecap="round" stroke-linejoin="round"/>
<path d="M130.098 112.17C130.058 111.961 130.207 111.839 130.301 111.683C130.585 111.223 132.228 109.126 132.594 108.849C132.735 108.741 132.823 108.619 133.033 108.666C133.574 109.059 132.58 109.404 132.485 109.755C132.418 110.026 132.675 110.249 132.485 110.486C132.262 110.756 132.053 110.52 131.85 110.601C131.633 110.689 130.382 112.468 130.092 112.17H130.098Z" fill="#6F7A58" stroke="#6F7A58" stroke-width="0.99" stroke-linecap="round" stroke-linejoin="round"/>
<path d="M139.484 103.911C139.72 103.058 140.079 102.118 140.464 101.32C140.64 100.948 141.174 99.8724 141.377 99.6086C141.505 99.4394 141.559 99.365 141.796 99.4056C142.208 99.5139 141.546 100.549 141.424 100.786C141.018 101.57 140.532 102.598 140.085 103.322C139.95 103.539 139.801 103.938 139.484 103.911Z" fill="#6F7A58" stroke="#6F7A58" stroke-width="0.99" stroke-linecap="round" stroke-linejoin="round"/>
<path d="M82.916 106.914C81.8409 106.461 80.2654 105.304 79.8056 104.208C79.6434 103.816 79.7515 103.451 80.1708 103.715C80.2384 103.755 80.8943 104.804 81.1039 105.034C81.5569 105.541 82.1046 105.893 82.5441 106.346C82.6996 106.508 82.9498 106.657 82.916 106.914Z" fill="#6F7A58" stroke="#6F7A58" stroke-width="0.99" stroke-linecap="round" stroke-linejoin="round"/>
<path d="M80.2857 81.2497C79.9612 82.2102 79.5149 83.1167 79.1565 84.0637C78.8861 84.7875 78.7035 85.809 78.4195 86.4516C78.3384 86.641 78.291 86.8033 78.0341 86.756C77.8042 86.4854 79.4 82.4335 79.6772 81.8314C79.7921 81.5811 79.8935 81.2632 80.1572 81.1212C80.1978 81.182 80.1911 81.2159 80.2857 81.2497Z" fill="#6F7A58" stroke="#6F7A58" stroke-width="0.99" stroke-linecap="round" stroke-linejoin="round"/>
<path d="M124.588 82.6229C125.906 84.3208 127.603 85.8699 128.219 88.0074C127.881 88.0819 128.002 87.906 127.908 87.7572C126.785 86.066 125.825 84.3005 124.338 82.8732C124.432 82.7988 124.507 82.6838 124.588 82.6229Z" fill="#6F7A58" stroke="#6F7A58" stroke-width="0.99" stroke-linecap="round" stroke-linejoin="round"/>
<path d="M75.5323 99.5274C75.2078 99.5951 75.316 99.4598 75.2213 99.2839C74.9846 98.8442 74.1191 96.4428 74.8494 96.2737L75.1604 96.5848L75.5391 99.5274H75.5323Z" fill="#6F7A58" stroke="#6F7A58" stroke-width="0.99" stroke-linecap="round" stroke-linejoin="round"/>
<path d="M79.285 104.161L78.6088 103.525C78.264 103.18 77.1416 101.205 77.9732 101.036C78.3519 100.955 78.2843 101.766 78.3722 102.017C78.6224 102.754 79.1768 103.397 79.285 104.168V104.161Z" fill="#6F7A58" stroke="#6F7A58" stroke-width="0.99" stroke-linecap="round" stroke-linejoin="round"/>
<path d="M127.096 80.6206C128.043 81.5541 129.179 82.5011 130.038 83.4955C130.369 83.8743 130.768 84.4087 130.977 84.8755L126.975 80.7424C126.975 80.7424 127.076 80.6409 127.103 80.6138L127.096 80.6206Z" fill="#6F7A58" stroke="#6F7A58" stroke-width="0.99" stroke-linecap="round" stroke-linejoin="round"/>
<path d="M77.2835 102.03C77.0131 102.321 76.1408 100.481 76.0935 100.278C75.938 99.6221 76.1882 98.7968 76.5398 99.5748C76.6412 99.7912 77.3647 101.929 77.2768 102.023L77.2835 102.03Z" fill="#6F7A58" stroke="#6F7A58" stroke-width="0.99" stroke-linecap="round" stroke-linejoin="round"/>
<path d="M114.581 137.341C114.614 137.415 114.763 137.598 114.831 137.72L114.418 138.078L112.457 137.469C112.525 137.321 112.687 137.03 112.708 136.969L114.587 137.348L114.581 137.341Z" fill="#6F7A58" stroke="#6F7A58" stroke-width="0.99" stroke-linecap="round" stroke-linejoin="round"/>
<path d="M64.3959 109.417C64.592 109.627 63.5575 111.095 63.2735 110.79C63.1315 110.134 63.8077 109.532 64.3959 109.417Z" fill="#6F7A58" stroke="#6F7A58" stroke-width="0.99" stroke-linecap="round" stroke-linejoin="round"/>
<path d="M136.231 106.535C136.076 106.745 135.9 107.198 135.609 107.158L136.11 106.407C136.116 106.468 136.177 106.522 136.238 106.535H136.231Z" fill="#6F7A58" stroke="#6F7A58" stroke-width="0.99" stroke-linecap="round" stroke-linejoin="round"/>
<path d="M65.897 67.2269C70.5084 66.3069 75.1266 66.2528 79.7921 66.8549V67.2269C76.959 66.909 74.0786 66.706 71.2117 66.8481C69.785 66.9157 67.2629 67.1592 65.897 67.4772V67.2269Z" fill="#6F7A58" stroke="#6F7A58" stroke-width="0.99" stroke-linecap="round" stroke-linejoin="round"/>
<path d="M72.5302 74.2349C72.5707 74.2078 72.6451 74.0116 72.7804 73.9305C75.6878 72.2191 78.9605 70.4941 82.4156 70.4806C82.49 70.7647 82.3007 70.7782 82.0776 70.8188C81.4284 70.9473 80.2722 70.8865 79.6907 71.1909C79.4811 71.2991 79.5555 71.475 79.5352 71.4817C79.4879 71.5088 79.1565 71.4817 79.0348 71.4817C77.669 71.5155 73.9366 73.5314 72.6519 74.3634L72.5234 74.2349H72.5302Z" fill="#6F7A58" stroke="#6F7A58" stroke-width="0.99" stroke-linecap="round" stroke-linejoin="round"/>
<path d="M80.5359 80.2485C81.2661 78.6859 82.3209 77.0151 83.4772 75.7366C84.1871 74.952 85.2014 73.9373 86.2968 73.8629C86.3509 74.1199 86.1683 74.1537 86.006 74.2619C85.6139 74.5258 85.1608 74.6611 84.7348 74.9925C82.9971 76.3454 81.9491 78.6386 80.6644 80.3703L80.5359 80.2418V80.2485Z" fill="#6F7A58" stroke="#6F7A58" stroke-width="0.99" stroke-linecap="round" stroke-linejoin="round"/>
<path d="M116.582 80.9994L116.454 81.3782C116.312 81.2429 115.98 81.1888 115.811 80.9385C115.683 80.7423 115.838 80.5867 115.656 80.3703C114.993 79.5924 112.572 77.6036 111.7 76.9948L111.829 76.8663C113.796 78.2801 114.871 79.3082 116.582 80.9994Z" fill="#6F7A58" stroke="#6F7A58" stroke-width="0.99" stroke-linecap="round" stroke-linejoin="round"/>
<path d="M110.321 18.3939C109.834 19.6995 109.252 22.987 108.691 23.9408C108.61 24.0761 108.448 24.022 108.441 24.0288H108.313C108.881 22.1956 109.327 20.3015 109.969 18.4818C110.01 18.3736 110.084 18.306 110.186 18.2654L110.314 18.3939H110.321Z" fill="#6F7A58" stroke="#6F7A58" stroke-width="0.99" stroke-linecap="round" stroke-linejoin="round"/>
<path d="M121.214 79.9983C119.713 79.2 118.326 78.111 116.832 77.2451V76.9948C118.097 77.7118 120.429 78.8483 121.214 79.9983Z" fill="#6F7A58" stroke="#6F7A58" stroke-width="0.99" stroke-linecap="round" stroke-linejoin="round"/>
<path d="M124.716 78.7401C124.73 78.8213 124.696 78.9227 124.716 78.9904L120.463 76.1087V75.8584C121.951 76.7513 123.344 77.9216 124.716 78.7401Z" fill="#6F7A58" stroke="#6F7A58" stroke-width="0.99" stroke-linecap="round" stroke-linejoin="round"/>
<path d="M74.2611 77.0083C74.4572 77.3533 73.2875 78.2733 73.0305 78.4965L73.2807 76.3657L74.2611 77.0083Z" fill="#6F7A58" stroke="#6F7A58" stroke-width="0.99" stroke-linecap="round" stroke-linejoin="round"/>
<path d="M66.3974 33.4179C66.5191 33.7697 67.1479 34.1958 66.4582 34.419C66.3906 34.0741 66.2283 33.7561 66.1472 33.4179H66.3974Z" fill="#6F7A58" stroke="#6F7A58" stroke-width="0.99" stroke-linecap="round" stroke-linejoin="round"/>
<path d="M86.1683 45.567L86.0399 45.6955C86.0263 45.6075 85.8438 45.2626 85.7897 45.1273C86.0534 45.0461 86.1007 45.4384 86.1616 45.567H86.1683Z" fill="#6F7A58" stroke="#6F7A58" stroke-width="0.99" stroke-linecap="round" stroke-linejoin="round"/>
<path d="M129.098 77.3669L128.848 77.6172V77.3669H129.098Z" fill="#6F7A58" stroke="#6F7A58" stroke-width="0.99" stroke-linecap="round" stroke-linejoin="round"/>
<path d="M110.199 18.0219C110.071 18.0693 109.962 17.9001 109.949 17.8934L110.199 18.0219Z" fill="#6F7A58" stroke="#6F7A58" stroke-width="0.99" stroke-linecap="round" stroke-linejoin="round"/>
<path d="M135.542 107.293C135.663 107.374 135.481 107.455 135.413 107.537L135.352 107.476L135.542 107.286V107.293Z" fill="#6F7A58" stroke="#6F7A58" stroke-width="0.99" stroke-linecap="round" stroke-linejoin="round"/>
<path d="M118.543 42.7258C119.07 43.152 120.348 44.5658 120.957 44.7552C121.565 44.9446 123.229 44.8431 124.027 44.9378C125.081 45.0664 126.211 45.3234 127.137 45.8307C128.327 46.4869 128.956 47.2377 129.7 48.3945C130.159 49.1115 130.308 49.7339 130.977 50.4983C131.978 51.6415 134.933 53.2243 136.421 53.177C136.968 53.1635 138.483 51.9729 138.713 52.7779C138.767 52.9267 138.733 53.0485 138.665 53.1838C138.618 53.2852 137.286 54.5975 137.144 54.672C136.928 54.7937 136.008 55.044 135.765 55.0575C134.088 55.1387 130.829 54.0225 129.713 52.744C127.603 50.3224 128.253 48.0698 124.547 46.8928C122.701 46.311 120.605 46.1825 119.199 44.674C119.692 46.5478 119.462 48.5501 118.374 50.1735C116.257 53.3258 112.599 54.1037 109.151 52.6629C108.116 52.2299 107.4 51.3438 106.257 51.3032C105.554 52.3788 106.548 54.3202 105.561 55.2605C104.905 55.8896 104.492 54.4893 104.242 54.0699C103.89 54.2323 103.918 55.8152 103.126 55.5649C102.957 55.5108 102.89 55.3349 102.944 55.1658C103.309 54.0361 103.546 52.8523 103.884 51.7159C104.56 49.443 105.385 46.6222 106.528 44.5928C106.669 44.3358 107.839 42.5161 107.954 42.4485C108.089 42.3741 108.34 42.4485 108.549 42.3538C108.908 42.1847 109.259 41.6773 109.712 41.515C113.188 40.2771 115.615 40.3786 118.523 42.7123L118.543 42.7258ZM109.449 42.9355C109.171 42.9355 108.853 43.0032 108.644 43.1926C108.576 43.2535 107.677 44.4981 107.596 44.647C106.244 46.9604 106.933 49.3347 108.57 51.1476C108.745 51.3438 108.671 51.5467 108.982 51.7361C111.504 53.2514 115.48 52.717 117.333 50.39C118.097 49.4295 118.009 48.8545 118.401 47.8263C118.509 47.5422 118.78 47.4204 118.84 47.1363C119.138 45.6075 117.941 43.0099 116.339 42.5703C116.575 42.9964 117.589 44.9581 116.893 47.2648C116.785 47.6233 115.906 50.5118 113.553 50.8432C111.524 51.1273 109.922 49.3009 109.286 48.1442C109.158 47.9007 108.231 46.1487 108.86 44.1667C109.029 43.6323 109.273 43.2196 109.455 42.9491L109.449 42.9355ZM114.925 45.1611C115.98 44.099 113.147 42.232 112.951 44.1396C112.85 45.1475 114.384 45.709 114.925 45.1611Z" fill="#6F7A58" stroke="#6F7A58" stroke-width="0.99" stroke-linecap="round" stroke-linejoin="round"/>
<path d="M96.8111 58.5886V60.3406C96.8111 60.3947 97.1762 60.2865 97.5346 60.9359C98.062 61.8897 97.8456 61.477 98.5691 62.1535C99.0898 62.6473 99.4346 63.4387 100.185 63.2087L100.388 62.3496L100.827 62.2888C100.638 63.4726 100.009 64.5819 98.9342 65.1501C98.3054 65.4816 97.7036 65.4613 97.1086 65.7048C95.9118 66.1986 96.5203 67.1321 96.0538 68.0318C95.763 68.5865 94.3566 69.2427 94.2282 69.8312C94.0591 70.582 94.2417 71.6305 94.3228 72.3949C94.431 72.6993 98.1026 74.2619 98.6638 74.4649C99.6442 74.8166 100.645 75.2292 101.7 75.121L101.646 75.6283C100.043 76.0004 98.0011 75.4051 96.4865 74.7625C95.7766 74.4649 94.546 73.5449 93.8766 73.6058C93.5047 73.6396 91.7331 74.8843 91.1719 75.1684C90.6513 75.4322 88.1157 76.6565 87.737 76.1289C87.5206 75.0601 88.3185 75.2563 88.9406 75.0602C89.4071 74.9113 89.9548 74.7219 90.3943 74.5122C90.7459 74.3499 92.8758 73.1661 93.0111 72.9969C93.4235 72.4828 93.1057 71.617 93.0584 71.042C93.0449 70.8323 93.1598 70.6294 93.1463 70.44C93.0922 69.5538 91.4897 69.2359 91.0029 68.4783C90.4146 67.5718 90.9014 66.8683 89.6708 66.1851C88.7039 65.6439 87.8317 65.5763 87.1285 64.4737C86.7701 63.919 87.0744 63.804 87.0676 63.2967C87.0541 62.742 86.3374 61.4094 87.1893 61.2267L87.3178 62.6067L88.2036 62.052C88.5484 61.4094 89.3328 60.7262 89.5424 60.0091C89.6032 59.813 89.5559 59.0418 89.7587 58.9741L90.0698 59.0621C90.2997 59.3935 90.0224 60.6585 90.0698 60.7262C90.0901 60.7532 90.3605 60.7735 90.4822 60.8547C90.5634 60.9088 90.5566 61.0914 90.658 61.1117C90.9961 61.1794 91.4018 60.9223 91.7602 60.9765L91.8886 61.362C92.1591 61.3756 92.6797 60.6382 92.7677 61.4906C93.0652 61.477 93.4032 61.1726 93.6602 61.1523C93.836 61.132 94.0388 61.2605 94.2552 61.2402C94.4986 61.2132 94.7488 61.017 94.9178 61.017C95.1274 61.017 95.2221 61.2944 95.4588 61.247C95.8171 60.4353 95.8983 59.4003 96.4527 58.6968C96.5677 58.548 96.6894 58.6292 96.8381 58.6156L96.8111 58.5886ZM93.552 68.9788C93.6737 69.1074 95.2086 67.9912 95.3303 67.6936C95.763 66.6383 94.7015 66.361 94.8096 65.9348C94.8299 65.8469 95.7225 64.8187 95.8577 64.724C96.8449 64.0408 98.968 65.0554 99.367 64.2234C99.6983 63.5402 97.4805 61.9302 96.9193 61.7814C95.9794 61.5311 94.3566 62.052 93.3491 62.0723C92.5986 62.0858 91.6249 61.7679 90.9758 61.7476C90.7797 61.7408 89.3936 61.8626 89.2854 61.9167C89.1164 61.9979 87.737 63.4522 87.6424 63.6619C87.3381 64.3519 88.758 64.751 89.2246 64.981C89.6979 65.0013 88.9609 64.3113 89.4747 64.3519C89.7452 64.3722 90.7054 64.8458 90.915 65.0419C91.4965 65.5898 91.1043 66.2798 91.1584 67.0577C91.2463 68.3295 91.9563 68.4174 92.8555 69.1209L92.7947 65.9889H93.1666L93.5452 68.9924L93.552 68.9788Z" fill="#6F7A58" stroke="#6F7A58" stroke-width="0.99" stroke-linecap="round" stroke-linejoin="round"/>
<path d="M118.333 62.8435C118.266 62.485 118.644 62.1265 118.955 62.025C120.227 61.5988 121.964 61.6123 123.134 60.9494C123.661 60.6518 123.716 60.2932 124.547 60.2256C126.616 60.0633 128.462 62.6405 131.451 62.0047C132.668 61.7476 135.46 59.8198 136.177 59.8401C136.333 59.8401 136.387 59.9212 136.481 60.0294C134.947 63.8379 131.072 65.3463 127.299 63.7026C126.434 63.3238 125.541 62.6203 124.676 62.3226C122.64 61.6191 120.429 63.0938 118.333 62.8435Z" fill="#6F7A58" stroke="#6F7A58" stroke-width="0.99" stroke-linecap="round" stroke-linejoin="round"/>
<path d="M69.7782 17.643C69.8728 16.9395 71.401 17.0951 71.9757 17.1357C75.1942 17.386 78.3586 20.0241 80.6103 22.1482C80.7793 22.067 80.6103 21.81 80.5697 21.6882C79.4946 18.6645 78.1693 17.3454 75.654 15.4649C73.585 13.9158 71.5497 13.0364 68.9059 13.0093C69.0953 12.6238 69.8458 12.7388 70.2177 12.7591C72.5504 12.8943 75.1401 14.3623 76.9184 15.8234C77.2768 16.121 77.7839 16.6216 78.0476 17.014C78.3384 17.014 77.953 16.4254 77.8989 16.351C76.5939 14.4502 74.9576 12.1232 72.875 11.1085C71.5971 10.4929 70.0148 10.175 68.6625 9.75561C68.6625 9.53915 68.5949 9.48504 68.8383 9.5121C70.3935 9.68121 72.0906 10.4524 73.5444 11.0071C73.5714 10.75 73.3754 10.5673 73.2334 10.3779C71.881 8.62593 68.1351 5.69014 66.0796 4.89193C65.1127 4.51312 64.0646 4.35753 63.0301 4.2493C63.0639 3.57961 64.8219 4.03963 65.3088 4.16139C70.3867 5.44665 76.4654 12.6035 79.2309 16.9057C80.306 18.5833 81.7733 21.8776 82.3615 23.7852C82.4494 24.0693 82.7064 24.6646 82.2263 24.7593C81.6854 24.8675 81.4081 23.5417 81.1241 23.1426C80.7455 22.615 79.1295 21.3026 78.5412 20.8426C77.3309 19.8956 74.0853 17.6363 72.6045 17.6363H69.7917L69.7782 17.643ZM73.7202 11.0138C73.5985 11.1017 73.7878 11.1829 73.8487 11.2574C73.9704 11.1762 73.7878 11.095 73.7202 11.0138Z" fill="#6F7A58" stroke="#6F7A58" stroke-width="0.99" stroke-linecap="round" stroke-linejoin="round"/>
<path d="M135.981 2.6191C136.157 2.8085 135.968 2.84232 135.792 2.86938C133.567 3.14673 132.323 3.91789 130.66 5.37226C128.631 7.14456 126.954 9.39712 125.223 11.4468C126.278 10.8718 127.299 10.2562 128.476 9.94507C129.165 9.76243 129.882 9.78947 130.551 9.51213L130.856 9.82331C130.788 10.1074 129.632 10.1277 129.348 10.1954C125.872 11.0477 123.526 12.8808 122.025 16.1413C121.978 16.2428 121.91 16.5269 122.093 16.3308C123.648 14.6058 125.927 13.5032 128.131 12.8606C128.881 12.6441 129.902 12.2991 130.673 12.387C130.863 12.4073 131.059 12.4141 131.106 12.6373L130.606 12.6982L130.727 13.0094C125.947 13.2123 121.552 15.9317 119.895 20.518C119.834 20.6871 119.706 20.9442 120.024 20.8968C122.417 17.9339 126.454 16.2293 130.227 16.1413L130.173 16.5201C130.004 16.7501 128.706 16.6081 128.3 16.6487C127.069 16.7907 124.588 17.8257 123.479 18.4616C121.464 19.625 119.097 21.8776 118.84 24.2723L118.462 24.2182C117.995 23.8799 118.685 21.9926 118.874 21.4853C121.376 14.7479 125.812 9.14009 131.045 4.36435C132.282 3.23468 134.284 2.16588 135.995 2.6191H135.981ZM119.834 21.2756V21.0253H119.713V21.2756H119.834Z" fill="#6F7A58" stroke="#6F7A58" stroke-width="0.99" stroke-linecap="round" stroke-linejoin="round"/>
<path d="M108.448 24.0288C108.414 24.0896 108.15 25.0773 108.11 25.2531C107.657 27.0322 107.305 30.4483 107.582 32.2206C107.63 32.5182 107.853 32.9376 108.198 32.9173C108.198 32.7617 108.225 32.5926 108.299 32.4573C109.577 30.0289 111.443 26.1393 113.269 24.1573C113.377 24.0423 113.986 23.332 113.965 23.8461C113.938 24.4346 113.546 24.5293 113.282 24.9216C110.848 28.4865 108.137 32.18 107.954 36.6784C109.746 34.6693 111.105 32.1259 113.519 30.7933C113.614 30.7392 113.735 30.5362 113.837 30.7324C113.776 31.5374 113.593 31.2938 113.188 31.5847C111.281 32.9647 108.914 36.2184 107.521 38.1869C107.305 38.4913 107.17 39.1542 106.893 39.188C106.555 39.2286 106.149 39.2489 106.074 38.8633C105.946 38.1801 106.074 36.7596 106.074 35.9816C106.074 34.9196 105.892 33.587 106.419 32.5791C106.588 32.2544 107.055 32.0176 107.075 31.95C107.265 31.1653 107.008 29.3456 107.089 28.358C107.237 26.5993 107.846 25.5778 108.326 24.022H108.455L108.448 24.0288Z" fill="#6F7A58" stroke="#6F7A58" stroke-width="0.99" stroke-linecap="round" stroke-linejoin="round"/>
<path d="M84.9174 34.9196C84.9039 34.737 84.9242 34.5476 84.9106 34.3649C84.9445 34.2635 85.5327 34.4055 85.3975 33.6343C82.5982 26.6737 79.5757 21.2215 71.2184 20.89C70.6437 20.8697 69.4266 21.2486 69.3995 20.6465C74.8088 20.1798 79.7042 22.27 82.5644 26.9375C83.4163 28.331 84.4711 31.4832 85.3028 32.4641C85.5395 32.7414 85.9655 32.7279 86.1075 33.2894C86.1751 32.8023 86.7295 32.4506 86.885 32.065C87.0608 31.6253 87.0135 30.9962 87.0406 30.5295H87.2907C87.2907 30.9083 87.1285 31.4697 87.1623 31.7132C87.1961 31.9703 87.4598 32.0582 87.5206 32.2476C87.6829 32.7685 87.2299 34.5882 87.169 35.224C87.1217 35.7111 87.2164 36.2387 87.169 36.7257C87.0608 37.7066 86.8445 38.6942 86.7363 39.6751C86.2968 39.9051 85.8032 39.5871 85.5733 39.2016C84.7889 37.8757 85.0797 36.5431 84.5388 35.1631C84.5455 35.1699 84.6605 35.1428 84.7551 35.2037C84.7754 35.2172 84.8363 35.6434 85.0391 35.4134C85.1338 35.3119 84.9242 34.994 84.9174 34.9128V34.9196Z" fill="#6F7A58" stroke="#6F7A58" stroke-width="0.99" stroke-linecap="round" stroke-linejoin="round"/>
<path d="M92.0374 38.9174C91.8142 38.958 91.4221 38.9107 91.2868 38.7145C91.1922 38.5724 90.8541 37.3075 90.827 37.0843C90.6918 36.0831 91.2124 35.366 90.543 34.4799L90.9352 33.9861C90.7053 33.2961 90.1441 32.7144 90.3064 31.9229H90.6715C90.5092 30.658 89.6776 29.5959 88.8188 28.7098C88.8256 27.0863 91.0772 27.5869 91.5708 28.5745C91.9359 29.2915 92.3011 31.2735 92.4025 32.1259C92.673 34.3514 92.3281 36.7054 92.0306 38.9242L92.0374 38.9174Z" fill="#6F7A58" stroke="#6F7A58" stroke-width="0.99" stroke-linecap="round" stroke-linejoin="round"/>
<path d="M100.685 18.8945C100.543 20.2474 100.855 21.7491 100.287 23.0614C100.05 23.6161 99.6307 23.792 99.3332 24.2317C99.1438 24.509 97.8727 26.7075 97.8389 26.8698C97.5211 28.3783 97.0072 30.5091 96.8178 31.9838C96.6759 33.0864 97.1424 34.5408 96.9125 35.711L96.304 35.9139C96.2769 35.1901 96.3378 34.4528 96.304 33.7222C96.2837 33.3773 96.0876 33.039 96.0808 32.7211C96.0606 31.8147 96.6488 30.5497 96.6759 29.6974C96.757 27.1472 97.2641 25.8619 98.0958 23.4875C98.657 21.8776 99.2453 20.4773 100.124 19.0095L100.685 18.8877V18.8945Z" fill="#6F7A58" stroke="#6F7A58" stroke-width="0.99" stroke-linecap="round" stroke-linejoin="round"/>
<path d="M75.5323 62.0926C75.8569 62.5188 73.6796 62.7217 73.47 62.7285C72.8818 62.742 72.1853 62.1264 71.7999 62.3632C71.7458 62.397 71.3807 63.2967 71.2522 63.5064C70.9953 63.9258 70.1568 64.609 70.7789 64.7849L70.5761 65.0825C69.4401 64.7375 68.2568 64.1017 67.5266 63.1546C67.0262 62.5052 66.7625 62.1197 67.4725 61.477C67.797 61.3959 68.96 62.7488 70.1163 62.2482C70.9547 61.8829 71.0967 59.9077 71.4753 59.8468C71.7593 59.7994 74.8021 62.1602 75.5255 62.0926H75.5323Z" fill="#6F7A58" stroke="#6F7A58" stroke-width="0.99" stroke-linecap="round" stroke-linejoin="round"/>
<path d="M104.911 27.6883L105.013 28.6624C104.769 28.9127 104.438 28.9804 104.147 29.1833C102.842 30.1303 100.476 33.6817 100.09 35.2646C99.8741 36.1575 99.9214 37.3007 99.6983 38.2274L99.2047 38.2815C98.6164 35.4945 99.3467 32.6061 101.064 30.3535C101.578 29.6771 103.505 27.4786 104.283 27.4313C104.54 27.4177 104.709 27.5801 104.911 27.6883Z" fill="#6F7A58" stroke="#6F7A58" stroke-width="0.99" stroke-linecap="round" stroke-linejoin="round"/>
<path d="M91.8886 25.8687C91.7669 25.9769 91.5911 26.0581 91.4288 25.9769C90.7188 25.6725 90.6648 23.7514 90.827 23.1223C90.8541 23.0073 91.9089 21.2959 92.0509 21.1267C92.4904 20.5788 93.4776 19.5844 93.7683 20.7479C93.9374 21.4041 93.2004 23.5079 92.8893 24.1911C92.7811 24.4346 92.0171 25.7604 91.8886 25.8754V25.8687Z" fill="#6F7A58" stroke="#6F7A58" stroke-width="0.99" stroke-linecap="round" stroke-linejoin="round"/>
<path d="M103.721 25.6252C103.214 25.1314 103.106 23.1967 103.241 22.5203C103.356 21.952 104.797 19.368 105.358 19.4154C105.655 19.4424 105.946 19.7671 105.946 20.0783C105.973 21.2959 104.993 22.4323 104.844 23.7446C104.783 24.2587 104.972 24.7323 104.918 25.0569C104.837 25.5305 104.127 26.0108 103.721 25.6184V25.6252Z" fill="#6F7A58" stroke="#6F7A58" stroke-width="0.99" stroke-linecap="round" stroke-linejoin="round"/>
<path d="M136.481 70.2303C135.345 70.2641 134.277 69.6418 133.195 69.3238C127.739 67.7071 122.099 66.8142 116.399 66.5978C115.46 66.5639 114.432 66.5504 113.519 66.7331C113.377 66.7331 113.37 66.3001 113.769 66.2325C114.425 66.1107 116.149 66.1919 116.9 66.2325C122.444 66.4692 131.194 67.6192 136.204 69.9597C136.38 70.0409 136.542 69.8853 136.481 70.2438V70.2303Z" fill="#6F7A58" stroke="#6F7A58" stroke-width="0.99" stroke-linecap="round" stroke-linejoin="round"/>
<path d="M97.92 19.2868C98.1702 19.6859 97.6225 19.8551 97.5616 19.9971L96.5339 24.3196C96.2702 24.7323 95.3235 25.2937 95.2965 24.4684C95.2694 23.6432 95.5399 22.0941 95.9118 21.3162C96.2837 20.5383 96.9125 19.943 97.3114 19.2057C97.4264 19.0907 97.8929 19.2395 97.92 19.2868Z" fill="#6F7A58" stroke="#6F7A58" stroke-width="0.99" stroke-linecap="round" stroke-linejoin="round"/>
<path d="M131.221 20.2744C127.766 19.8618 123.601 20.2812 120.835 22.5879C120.463 22.8991 119.368 24.4549 118.962 24.1505C119.686 22.9803 120.869 21.8912 122.052 21.1741C124.067 19.9498 128.327 19.3883 130.633 19.801C130.869 19.8416 131.275 19.943 131.228 20.2744H131.221Z" fill="#6F7A58" stroke="#6F7A58" stroke-width="0.99" stroke-linecap="round" stroke-linejoin="round"/>
<path d="M94.6676 32.1529L94.0523 32.1664C94.5933 30.4144 93.9644 28.5948 94.1673 26.836C94.2349 26.2339 95.0531 26.0175 95.31 26.5789C95.7022 27.4313 95.0936 29.0615 94.9381 29.9883C94.8232 30.6647 94.9652 31.4494 94.6609 32.1529H94.6676Z" fill="#6F7A58" stroke="#6F7A58" stroke-width="0.99" stroke-linecap="round" stroke-linejoin="round"/>
<path d="M84.5455 35.1699C84.0993 34.7369 83.7544 33.8372 83.3487 33.2961C81.6921 31.0976 77.9868 27.4651 75.2078 27.0389C74.6263 26.951 73.9907 27.066 73.4024 26.8969V26.5248C74.8359 26.579 75.9515 26.7548 77.243 27.3771C79.3594 28.3986 83.7274 32.4641 84.505 34.6422C84.6064 34.9331 84.4982 34.9669 84.9174 34.9128C84.9242 34.994 85.1338 35.3119 85.0391 35.4134C84.8295 35.6366 84.7754 35.2172 84.7551 35.2037C84.6605 35.1428 84.5455 35.1766 84.5388 35.1631L84.5455 35.1699Z" fill="#6F7A58" stroke="#6F7A58" stroke-width="0.99" stroke-linecap="round" stroke-linejoin="round"/>
<path d="M89.9278 46.6899C89.9886 45.6414 90.3673 44.8431 90.3064 43.7405C90.2456 42.6379 89.2719 41.1362 89.7925 40.2365C90.3132 39.3368 90.5701 40.5544 90.658 41.0144C90.8135 41.8465 90.9352 43.5376 90.9285 44.3764C90.9217 44.9243 90.6783 46.8184 89.9278 46.6899Z" fill="#6F7A58" stroke="#6F7A58" stroke-width="0.99" stroke-linecap="round" stroke-linejoin="round"/>
<path d="M124.338 56.5795C123.939 55.4634 125.284 55.0507 125.44 54.2322C125.507 53.8805 125.332 53.6708 125.332 53.3867C125.332 52.8658 125.737 52.2029 126.271 52.0743C127.008 53.5422 126.15 56.3495 124.338 56.5795Z" fill="#6F7A58" stroke="#6F7A58" stroke-width="0.99" stroke-linecap="round" stroke-linejoin="round"/>
<path d="M94.7894 34.5611C94.6947 35.1158 94.9381 35.9951 94.8908 36.4687C94.8705 36.6445 94.6879 36.8204 94.6744 37.1045C94.6339 37.8216 95.0396 39.5127 94.0524 39.2962L93.7075 35.2578C93.7481 34.5679 94.1538 34.2905 94.7894 34.5543V34.5611Z" fill="#6F7A58" stroke="#6F7A58" stroke-width="0.99" stroke-linecap="round" stroke-linejoin="round"/>
<path d="M98.6841 30.0424C98.4406 29.8665 98.8598 28.6422 98.9207 28.3378C98.9816 28.0537 98.8598 27.6681 98.9951 27.411C99.1168 27.1743 99.4413 27.2284 99.5698 27.0795C99.8132 26.7819 99.6577 26.2746 100.368 26.3016C100.516 26.3422 100.841 27.1607 100.8 27.3231C100.773 27.4246 99.8741 28.4933 99.7118 28.7504C99.5495 29.0074 99.1438 30.3671 98.6908 30.0424H98.6841Z" fill="#6F7A58" stroke="#6F7A58" stroke-width="0.99" stroke-linecap="round" stroke-linejoin="round"/>
<path d="M119.584 58.088C119.659 58.5142 119.422 58.548 119.118 58.6833C118.414 59.0012 117.326 59.0824 116.596 58.8118L116.562 58.3451C115.568 58.1827 114.581 58.0068 113.614 57.716C113.411 57.6551 113.262 57.8174 113.323 57.4521C115.412 57.8715 117.427 58.2301 119.577 58.0812L119.584 58.088Z" fill="#6F7A58" stroke="#6F7A58" stroke-width="0.99" stroke-linecap="round" stroke-linejoin="round"/>
<path d="M129.598 23.907C129.605 24.1437 129.659 24.164 129.409 24.164C128.902 24.164 128.313 23.934 127.786 23.907C126.373 23.8258 124.703 23.8596 123.337 24.2249C123.006 24.3129 121.43 25.0096 121.335 24.9149C120.991 24.5699 122.309 24.1505 122.552 24.0693C124.77 23.3117 127.34 23.3726 129.591 23.9137L129.598 23.907Z" fill="#6F7A58" stroke="#6F7A58" stroke-width="0.99" stroke-linecap="round" stroke-linejoin="round"/>
<path d="M71.1508 24.6579C71.1035 24.4414 71.259 24.3264 71.4348 24.252C72.0433 23.9746 74.349 23.9679 75.0793 24.0423C75.6135 24.0964 78.9199 24.9623 78.7847 25.5914C78.7576 25.7267 78.575 25.8079 78.406 25.7199C78.1626 25.5914 77.9665 25.287 77.527 25.0908C76.3843 24.5767 74.0786 24.225 72.848 24.2791C72.591 24.2926 71.2793 24.7593 71.1508 24.6443V24.6579Z" fill="#6F7A58" stroke="#6F7A58" stroke-width="0.99" stroke-linecap="round" stroke-linejoin="round"/>
<path d="M76.2693 58.7239L76.2828 59.0824C75.6675 59.0418 74.9373 59.2042 74.3693 58.9268C73.6052 58.5548 73.044 57.1275 74.0312 57.3845C74.8021 57.5807 75.4782 58.5007 76.2626 58.7239H76.2693Z" fill="#6F7A58" stroke="#6F7A58" stroke-width="0.99" stroke-linecap="round" stroke-linejoin="round"/>
<path d="M87.169 27.7831C87.3989 25.8078 88.2644 22.3038 89.1096 20.518C89.184 20.3556 89.2584 20.1257 89.4815 20.1392C89.6573 20.2271 89.4815 20.4774 89.4477 20.6059C88.9879 21.9385 88.4402 23.3929 88.0818 24.7458C87.8249 25.7131 87.737 27.1066 87.2975 27.7763H87.169V27.7831Z" fill="#6F7A58" stroke="#6F7A58" stroke-width="0.99" stroke-linecap="round" stroke-linejoin="round"/>
<path d="M70.4476 53.4138C70.522 53.4746 70.7113 53.4002 70.7857 53.5355C70.8803 53.7182 70.9006 54.097 71.0494 54.3743C71.428 55.0778 72.0366 55.7137 72.0366 56.5796C71.3063 56.5796 70.8397 56.2142 70.6707 55.504C70.5152 54.8613 70.4949 54.7599 70.2785 54.1443C70.238 54.0225 69.839 52.8591 70.2177 53.0755C70.3326 53.1635 70.3394 53.3258 70.4476 53.4138Z" fill="#6F7A58" stroke="#6F7A58" stroke-width="0.99" stroke-linecap="round" stroke-linejoin="round"/>
<path d="M87.0473 60.4624L86.6687 60.4082L86.5673 60.2594C86.4117 58.8863 86.8107 57.5266 87.2772 56.2548C87.5342 55.5716 87.852 55.7949 87.7708 56.3699C87.6762 57.0463 87.1487 57.8918 87.0608 58.6698C86.9932 59.2515 87.0811 59.8806 87.0473 60.4691V60.4624Z" fill="#6F7A58" stroke="#6F7A58" stroke-width="0.99" stroke-linecap="round" stroke-linejoin="round"/>
<path d="M75.2821 53.5761C75.3159 53.7453 75.2348 53.8805 75.0725 53.9279C74.3761 54.1511 71.0494 53.0011 71.0291 51.8173C71.5227 51.7226 71.5633 52.1962 71.8608 52.4262C72.7736 53.1364 74.18 53.3394 75.2821 53.5761Z" fill="#6F7A58" stroke="#6F7A58" stroke-width="0.99" stroke-linecap="round" stroke-linejoin="round"/>
<path d="M123.465 56.336C123.465 56.5389 123.513 56.7825 123.404 56.9651C123.249 57.2222 120.889 58.0813 120.463 57.716C120.024 57.0463 122.525 56.8163 122.87 56.681C123.114 56.5931 123.181 56.2954 123.465 56.336Z" fill="#6F7A58" stroke="#6F7A58" stroke-width="0.99" stroke-linecap="round" stroke-linejoin="round"/>
<path d="M100.8 40.5679C100.929 40.6559 101.301 43.5037 100.314 43.1858C100.118 42.7123 100.232 42.232 100.178 41.7517C100.158 41.5285 99.9282 41.3188 99.962 41.1429C100.009 40.8656 100.496 40.365 100.8 40.5679Z" fill="#6F7A58" stroke="#6F7A58" stroke-width="0.99" stroke-linecap="round" stroke-linejoin="round"/>
<path d="M76.222 56.4578C75.8704 56.4104 74.9305 56.0586 75.2213 55.5784C76.2152 56.3292 77.8921 55.6799 78.832 55.9775C79.116 56.0654 79.0889 56.3022 78.8523 56.4578C78.0274 56.3766 77.0199 56.5728 76.222 56.4578Z" fill="#6F7A58" stroke="#6F7A58" stroke-width="0.99" stroke-linecap="round" stroke-linejoin="round"/>
<path d="M101.882 56.0857C102.721 55.8422 103.14 58.4262 102.626 58.5886C102.024 58.778 102.119 57.4792 102.038 57.1748C101.984 56.9516 101.355 56.2345 101.882 56.0857Z" fill="#6F7A58" stroke="#6F7A58" stroke-width="0.99" stroke-linecap="round" stroke-linejoin="round"/>
<path d="M100.564 60.2121C100.699 59.7386 100.347 58.1827 100.55 57.9054C101.247 56.9516 101.984 60.5841 100.564 60.2121Z" fill="#6F7A58" stroke="#6F7A58" stroke-width="0.99" stroke-linecap="round" stroke-linejoin="round"/>
<path d="M114.952 35.6772V36.0493C114.013 36.0899 112.836 36.1237 111.917 36.3334C111.396 36.4552 110.95 36.7663 110.449 36.9286C110.104 36.5566 111.355 36.144 111.545 36.0831C111.957 35.9613 114.838 35.5487 114.952 35.6772Z" fill="#6F7A58" stroke="#6F7A58" stroke-width="0.99" stroke-linecap="round" stroke-linejoin="round"/>
<path d="M79.6636 57.3304C78.9942 57.2154 78.2708 57.4995 77.6352 57.4251C77.243 57.3777 76.2896 57.1275 76.4113 56.5795C77.554 57.2154 78.575 56.8028 79.7921 56.8298L79.6704 57.3304H79.6636Z" fill="#6F7A58" stroke="#6F7A58" stroke-width="0.99" stroke-linecap="round" stroke-linejoin="round"/>
<path d="M91.0434 47.319C91.3071 47.5084 90.8135 48.983 90.6851 49.2672C90.4417 49.788 90.0427 49.6324 90.0427 49.1386C90.0427 48.6448 90.516 48.036 90.4484 47.4678L91.0502 47.3257L91.0434 47.319Z" fill="#6F7A58" stroke="#6F7A58" stroke-width="0.99" stroke-linecap="round" stroke-linejoin="round"/>
<path d="M97.3182 35.5622C97.4467 35.4743 97.8659 35.5419 97.9267 35.7516C97.7036 36.1439 97.9741 37.8554 97.6225 37.9298C96.9598 38.0651 97.1492 35.684 97.325 35.5622H97.3182Z" fill="#6F7A58" stroke="#6F7A58" stroke-width="0.99" stroke-linecap="round" stroke-linejoin="round"/>
<path d="M75.4106 28.7842C74.6871 28.7707 73.9501 28.2904 73.2198 28.3107C72.8209 28.3174 72.5302 28.5407 72.1921 28.6354C72.0095 28.6895 71.854 28.7368 71.9081 28.473C72.8277 27.4989 74.5181 27.9724 75.4106 28.7842Z" fill="#6F7A58" stroke="#6F7A58" stroke-width="0.99" stroke-linecap="round" stroke-linejoin="round"/>
<path d="M79.6637 57.3304C79.8395 57.2628 80.0355 57.2154 80.2249 57.2019C80.6306 57.5198 79.3661 58.0813 79.2242 58.0813H77.1619V57.7092C77.9665 57.7431 78.6359 57.7363 79.4202 57.5198C79.5487 57.486 79.6231 57.3507 79.6637 57.3304Z" fill="#6F7A58" stroke="#6F7A58" stroke-width="0.99" stroke-linecap="round" stroke-linejoin="round"/>
<path d="M95.4047 83.022C95.4588 83.1099 95.479 83.3737 95.3709 83.3737C94.884 83.2384 93.0652 82.4064 93.1801 81.8111C93.6061 81.2903 94.0862 82.1493 94.4445 82.4267C94.6203 82.562 95.3776 82.9746 95.4047 83.022Z" fill="#6F7A58" stroke="#6F7A58" stroke-width="0.99" stroke-linecap="round" stroke-linejoin="round"/>
<path d="M82.321 66.4422C82.037 66.1581 82.1114 65.4546 82.4697 65.2111C83.1864 64.7308 83.6462 66.246 82.8281 66.5775C82.6861 66.6113 82.4156 66.5369 82.321 66.4355V66.4422Z" fill="#6F7A58" stroke="#6F7A58" stroke-width="0.99" stroke-linecap="round" stroke-linejoin="round"/>
<path d="M82.2871 37.3007C81.2797 36.8813 80.4006 36.1237 79.285 35.9884L79.1633 35.5487C79.4134 35.2984 81.7259 36.5498 82.0437 36.861C82.179 36.9895 82.3345 37.0775 82.2939 37.3007H82.2871Z" fill="#6F7A58" stroke="#6F7A58" stroke-width="0.99" stroke-linecap="round" stroke-linejoin="round"/>
<path d="M117.833 56.7081C117.86 57.1613 116.974 57.1884 116.65 57.2154C115.946 57.2695 114.932 57.2966 114.33 56.8975C114.27 56.5998 114.587 56.7013 114.763 56.7148C115.804 56.7892 116.785 56.9448 117.833 56.7148V56.7081Z" fill="#6F7A58" stroke="#6F7A58" stroke-width="0.99" stroke-linecap="round" stroke-linejoin="round"/>
<path d="M109.665 67.8695C109.976 67.7816 110.551 67.9169 110.584 68.2889C110.584 68.688 110.206 68.945 109.868 69.0736C109.097 69.0397 108.968 68.0657 109.665 67.8695Z" fill="#6F7A58" stroke="#6F7A58" stroke-width="0.99" stroke-linecap="round" stroke-linejoin="round"/>
<path d="M127.847 27.2825C127.766 27.3501 126.109 27.0322 125.791 27.0457C125.419 27.0592 124.804 27.5463 124.716 26.9713C125.115 26.5992 125.764 26.6263 126.278 26.6601C126.427 26.6736 128.232 26.9578 127.84 27.2825H127.847Z" fill="#6F7A58" stroke="#6F7A58" stroke-width="0.99" stroke-linecap="round" stroke-linejoin="round"/>
<path d="M81.1647 37.8013C80.0558 37.3142 79.2918 37.2196 78.0949 37.179C77.9056 37.1722 77.6014 37.2939 77.6622 36.9895C78.0341 36.6716 78.8522 36.7663 79.3188 36.834C79.5014 36.861 81.5298 37.4631 81.1647 37.8013Z" fill="#6F7A58" stroke="#6F7A58" stroke-width="0.99" stroke-linecap="round" stroke-linejoin="round"/>
<path d="M102.065 82.5011L99.6915 82.1223C99.6577 81.9059 99.6509 81.5 99.9755 81.5203C100.3 81.5406 102.004 82.0276 102.065 82.5011Z" fill="#6F7A58" stroke="#6F7A58" stroke-width="0.99" stroke-linecap="round" stroke-linejoin="round"/>
<path d="M116.082 36.6783C116.278 36.8272 116.082 36.9083 115.899 36.9286C114.851 37.0504 113.702 37.0031 112.768 37.5578L112.579 37.3683C112.626 36.9625 113.972 36.6783 114.27 36.6783H116.082Z" fill="#6F7A58" stroke="#6F7A58" stroke-width="0.99" stroke-linecap="round" stroke-linejoin="round"/>
<path d="M73.6526 29.6636C73.8487 29.8124 73.6526 29.8936 73.47 29.9139C72.3611 30.0491 71.1778 29.9274 70.0892 30.2927C69.8052 30.0221 70.7789 29.6636 70.8397 29.6636H73.6526Z" fill="#6F7A58" stroke="#6F7A58" stroke-width="0.99" stroke-linecap="round" stroke-linejoin="round"/>
<path d="M78.9131 38.5521C77.8312 38.4642 76.8981 38.6333 75.9109 39.0527C75.5188 38.6401 76.9996 38.2207 77.2362 38.1869C77.3985 38.1666 79.4202 38.1057 78.9131 38.5521Z" fill="#6F7A58" stroke="#6F7A58" stroke-width="0.99" stroke-linecap="round" stroke-linejoin="round"/>
<path d="M126.089 25.5305C126.15 25.889 126.014 25.7402 125.798 25.8011C124.845 26.0649 123.783 26.0784 122.836 26.4098L122.911 26.0243C123.952 25.7469 125 25.4425 126.089 25.5372V25.5305Z" fill="#6F7A58" stroke="#6F7A58" stroke-width="0.99" stroke-linecap="round" stroke-linejoin="round"/>
<path d="M98.1769 39.8103C98.0958 40.1891 99.394 41.2241 98.7313 41.4203C97.9943 41.6435 97.0883 39.763 98.1769 39.8103Z" fill="#6F7A58" stroke="#6F7A58" stroke-width="0.99" stroke-linecap="round" stroke-linejoin="round"/>
<path d="M76.533 54.8275V55.1996C75.8704 55.1996 74.5248 55.1996 73.9839 54.8073C73.7675 54.6517 73.7473 54.5908 73.7811 54.3202C74.6871 54.5705 75.5661 54.9019 76.533 54.8208V54.8275Z" fill="#6F7A58" stroke="#6F7A58" stroke-width="0.99" stroke-linecap="round" stroke-linejoin="round"/>
<path d="M92.4296 40.5545C92.4566 40.8318 92.4701 42.5297 91.9901 42.435C91.7196 42.3741 91.2801 40.0471 92.4296 40.5545Z" fill="#6F7A58" stroke="#6F7A58" stroke-width="0.99" stroke-linecap="round" stroke-linejoin="round"/>
<path d="M100.287 47.7248C100.429 47.8466 100.104 48.0833 100.733 47.6978C101.49 48.1239 100.8 49.3145 100.435 48.3201L100.117 48.7057C99.1303 48.6786 99.7794 47.2919 100.287 47.7316V47.7248Z" fill="#6F7A58" stroke="#6F7A58" stroke-width="0.99" stroke-linecap="round" stroke-linejoin="round"/>
<path d="M121.836 53.5761C122.39 54.1849 119.49 54.8681 119.212 54.9019C119.016 54.9222 118.827 55.0102 118.712 54.7599C118.597 54.5096 118.976 54.5705 119.111 54.5367C119.753 54.3878 120.483 54.2796 121.092 54.009C121.396 53.8737 121.525 53.5829 121.843 53.5693L121.836 53.5761Z" fill="#6F7A58" stroke="#6F7A58" stroke-width="0.99" stroke-linecap="round" stroke-linejoin="round"/>
<path d="M131.221 30.2927C131.403 30.4415 131.221 30.5294 131.032 30.5497C130.193 30.6309 129.084 29.9883 128.158 30.4212C127.82 29.7515 129.077 29.8733 129.53 29.9206C130.112 29.9748 130.633 30.2927 131.221 30.2927Z" fill="#6F7A58" stroke="#6F7A58" stroke-width="0.99" stroke-linecap="round" stroke-linejoin="round"/>
<path d="M89.2989 80.12L88.6633 78.9971L88.2982 79.1189C88.1292 78.6386 88.1292 78.2192 88.2982 77.7389C88.6701 77.7186 88.6972 77.9757 88.5484 78.2395H88.9135L88.9406 79.1054L89.3125 79.1798C89.3192 79.4436 89.2787 79.7277 89.3057 79.9847C89.3057 80.0253 89.3057 80.0659 89.3057 80.1133L89.2989 80.12Z" fill="#6F7A58" stroke="#6F7A58" stroke-width="0.99" stroke-linecap="round" stroke-linejoin="round"/>
<path d="M100.814 46.4396C99.9485 46.6763 100.111 44.6131 100.388 44.5523C101.341 44.3426 100.618 45.9052 100.814 46.4396Z" fill="#6F7A58" stroke="#6F7A58" stroke-width="0.99" stroke-linecap="round" stroke-linejoin="round"/>
<path d="M103.694 81.2497V81.6217C103.079 81.5405 101.666 81.9261 101.564 81.0603C101.7 80.6138 103.289 81.3579 103.694 81.2497Z" fill="#6F7A58" stroke="#6F7A58" stroke-width="0.99" stroke-linecap="round" stroke-linejoin="round"/>
<path d="M77.0334 40.5545L76.7426 40.9535C76.4519 41.0144 74.491 42.4079 74.4031 42.3064C74.349 42.2456 74.3828 41.9141 74.4843 41.7923C74.5789 41.6841 76.9252 40.453 77.0334 40.5545Z" fill="#6F7A58" stroke="#6F7A58" stroke-width="0.99" stroke-linecap="round" stroke-linejoin="round"/>
<path d="M118.955 55.7069C119.003 55.9775 118.935 55.9572 118.712 56.0181C118.103 56.1805 116.629 56.3428 116.082 56.0181C116.021 55.7137 116.325 55.8422 116.514 55.8287C117.333 55.7949 118.137 55.6731 118.955 55.7069Z" fill="#6F7A58" stroke="#6F7A58" stroke-width="0.99" stroke-linecap="round" stroke-linejoin="round"/>
<path d="M82.4291 68.4918C82.8957 68.4039 83.4298 68.4715 83.4298 69.0397C83.1323 70.1356 82.0099 69.4186 82.4291 68.4918Z" fill="#6F7A58" stroke="#6F7A58" stroke-width="0.99" stroke-linecap="round" stroke-linejoin="round"/>
<path d="M78.663 59.5897L78.6089 60.0971L78.4533 60.1918L76.1612 60.4624C76.1003 60.1039 76.2423 60.2527 76.4519 60.1985C77.1889 59.9888 77.9462 59.8738 78.663 59.5897Z" fill="#6F7A58" stroke="#6F7A58" stroke-width="0.99" stroke-linecap="round" stroke-linejoin="round"/>
<path d="M109.915 64.6158C110.726 64.4941 110.294 66.4558 109.435 65.6711C109.137 65.299 109.476 64.6835 109.915 64.6158Z" fill="#6F7A58" stroke="#6F7A58" stroke-width="0.99" stroke-linecap="round" stroke-linejoin="round"/>
<path d="M91.4288 81.2497L91.6655 81.2294C91.6858 80.952 91.7872 80.9791 92.0509 80.9994L92.4296 82.129C91.8007 82.1426 91.1854 81.8923 91.057 81.182C91.0232 80.9994 90.9826 80.8235 91.2395 80.8776L91.4288 81.2497ZM91.7399 81.4999V81.6285C91.821 81.5879 91.821 81.5473 91.7399 81.4999Z" fill="#6F7A58" stroke="#6F7A58" stroke-width="0.99" stroke-linecap="round" stroke-linejoin="round"/>
<path d="M85.6409 68.6271C85.8438 69.4862 85.4245 69.6621 84.6875 69.3374L84.8025 68.3633L85.6409 68.6271Z" fill="#6F7A58" stroke="#6F7A58" stroke-width="0.99" stroke-linecap="round" stroke-linejoin="round"/>
<path d="M129.098 28.4121C129.301 28.5745 129.084 28.6421 128.908 28.6624C128.144 28.7571 127.259 28.5609 126.467 28.7842L126.542 28.3986C127.367 28.1618 128.259 28.2971 129.098 28.4121Z" fill="#6F7A58" stroke="#6F7A58" stroke-width="0.99" stroke-linecap="round" stroke-linejoin="round"/>
<path d="M95.9321 44.0652L95.8104 45.4925C95.3168 46.1487 94.5865 43.6391 95.9321 44.0652Z" fill="#6F7A58" stroke="#6F7A58" stroke-width="0.99" stroke-linecap="round" stroke-linejoin="round"/>
<path d="M95.6819 38.0516L96.0605 38.1057L96.162 38.2545C96.0741 38.5589 96.473 39.5668 96.1146 39.6751C95.5128 39.8577 95.4723 38.3627 95.6819 38.0516Z" fill="#6F7A58" stroke="#6F7A58" stroke-width="0.99" stroke-linecap="round" stroke-linejoin="round"/>
<path d="M99.2926 82.3929L99.3061 82.7514C99.0289 82.8258 97.5616 82.3726 97.5481 82.1764C97.6901 81.1888 98.7449 82.3455 99.2926 82.3929Z" fill="#6F7A58" stroke="#6F7A58" stroke-width="0.99" stroke-linecap="round" stroke-linejoin="round"/>
<path d="M96.8043 82.8732C96.1552 82.6838 95.053 82.6499 95.1815 81.7503C95.3303 81.6014 97.1153 82.535 96.8043 82.8732Z" fill="#6F7A58" stroke="#6F7A58" stroke-width="0.99" stroke-linecap="round" stroke-linejoin="round"/>
<path d="M110.179 72.5911C109.847 72.7264 109.435 72.8414 109.124 72.6181C108.434 72.1108 110.524 71.1908 110.179 72.5911Z" fill="#6F7A58" stroke="#6F7A58" stroke-width="0.99" stroke-linecap="round" stroke-linejoin="round"/>
<path d="M73.7811 51.452C73.6932 52.4667 71.4754 51.2626 71.9081 50.8229L73.7811 51.452Z" fill="#6F7A58" stroke="#6F7A58" stroke-width="0.99" stroke-linecap="round" stroke-linejoin="round"/>
<path d="M123.337 51.9526C123.56 52.1353 123.168 52.23 123.1 52.2773C122.505 52.7035 121.68 52.9402 120.957 53.0823L121.038 52.7035L123.33 51.9526H123.337Z" fill="#6F7A58" stroke="#6F7A58" stroke-width="0.99" stroke-linecap="round" stroke-linejoin="round"/>
<path d="M81.1512 65.3667C81.1918 65.3937 81.2797 65.7184 81.2864 65.7996C81.3405 66.8346 79.9612 66.5302 80.421 65.5493C80.5089 65.3328 80.9889 65.2652 81.1512 65.3667Z" fill="#6F7A58" stroke="#6F7A58" stroke-width="0.99" stroke-linecap="round" stroke-linejoin="round"/>
<path d="M77.412 39.1812C77.4796 39.5398 77.3174 39.3842 77.1416 39.4653C76.5195 39.7562 75.7013 40.0742 75.0387 40.1824C74.6127 39.8171 77.1618 39.0798 77.412 39.1812Z" fill="#6F7A58" stroke="#6F7A58" stroke-width="0.99" stroke-linecap="round" stroke-linejoin="round"/>
<path d="M94.1808 43.9367C94.1402 44.3967 94.147 44.8566 94.0523 45.3166L93.6331 45.3031C93.2139 45.161 93.6128 43.9096 93.8833 43.8284C94.005 43.7946 94.1132 43.9299 94.1808 43.9367Z" fill="#6F7A58" stroke="#6F7A58" stroke-width="0.99" stroke-linecap="round" stroke-linejoin="round"/>
<path d="M72.0298 31.1653C72.0907 31.5238 71.9554 31.3749 71.7391 31.4358C71.0697 31.6185 70.3259 31.6185 69.6497 31.7944L69.7241 31.4088C70.4746 31.172 71.2455 31.1315 72.0298 31.172V31.1653Z" fill="#6F7A58" stroke="#6F7A58" stroke-width="0.99" stroke-linecap="round" stroke-linejoin="round"/>
<path d="M71.2793 33.0458C71.3401 33.4111 71.1914 33.2487 70.9885 33.3096C70.7045 33.3976 68.9871 33.8846 68.9059 33.7967L68.9871 33.4179C69.7444 33.2758 70.4949 32.9849 71.2793 33.0458Z" fill="#6F7A58" stroke="#6F7A58" stroke-width="0.99" stroke-linecap="round" stroke-linejoin="round"/>
<path d="M118.705 38.5521C118.103 38.2545 117.089 38.2545 116.541 38.0245C116.366 37.9501 116.291 37.8757 116.325 37.6795C116.859 37.6051 117.278 37.7607 117.765 37.9298C117.867 37.9636 118.962 38.3221 118.705 38.5589V38.5521Z" fill="#6F7A58" stroke="#6F7A58" stroke-width="0.99" stroke-linecap="round" stroke-linejoin="round"/>
<path d="M107.035 64.9879C107.569 64.8391 107.968 65.502 107.501 65.8334C106.642 66.4422 106.399 65.1637 107.035 64.9879Z" fill="#6F7A58" stroke="#6F7A58" stroke-width="0.99" stroke-linecap="round" stroke-linejoin="round"/>
<path d="M104.661 68.945C104.161 69.4388 103.235 68.7556 104.019 68.2348C104.553 67.883 105.087 68.5189 104.661 68.945Z" fill="#6F7A58" stroke="#6F7A58" stroke-width="0.99" stroke-linecap="round" stroke-linejoin="round"/>
<path d="M104.945 80.3703L104.871 80.7559C104.357 80.9318 103.782 80.9318 103.268 80.7559L103.194 80.3703H104.945Z" fill="#6F7A58" stroke="#6F7A58" stroke-width="0.99" stroke-linecap="round" stroke-linejoin="round"/>
<path d="M105.899 72.0026C107.251 71.847 107.265 72.9226 105.899 72.7197L105.682 72.3003L105.899 72.0026Z" fill="#6F7A58" stroke="#6F7A58" stroke-width="0.99" stroke-linecap="round" stroke-linejoin="round"/>
<path d="M94.6812 42.435C94.1064 40.7709 95.878 40.4801 95.0598 42.3809L94.6812 42.435Z" fill="#6F7A58" stroke="#6F7A58" stroke-width="0.99" stroke-linecap="round" stroke-linejoin="round"/>
<path d="M96.5068 42.3199L96.9395 42.3673L97.041 42.5093C96.8584 42.7731 97.21 43.4699 96.8719 43.5646C96.2566 43.7337 96.1011 42.462 96.5136 42.3267L96.5068 42.3199Z" fill="#6F7A58" stroke="#6F7A58" stroke-width="0.99" stroke-linecap="round" stroke-linejoin="round"/>
<path d="M93.552 41.8059C93.5452 42.0629 93.5047 43.267 93.1192 43.1791C92.558 43.0573 92.815 41.4947 93.552 41.8059Z" fill="#6F7A58" stroke="#6F7A58" stroke-width="0.99" stroke-linecap="round" stroke-linejoin="round"/>
<path d="M85.7018 72.6993C85.3164 72.3138 85.9114 71.5967 86.2968 71.7862C86.9459 72.1109 86.2021 73.1999 85.7018 72.6993Z" fill="#6F7A58" stroke="#6F7A58" stroke-width="0.99" stroke-linecap="round" stroke-linejoin="round"/>
<path d="M106.71 69.0871C106.487 68.945 106.528 68.0656 107.109 68.1333C108.076 68.255 107.332 69.4862 106.71 69.0871Z" fill="#6F7A58" stroke="#6F7A58" stroke-width="0.99" stroke-linecap="round" stroke-linejoin="round"/>
<path d="M84.1533 71.9958L83.9573 72.5911C83.2811 72.7264 82.7199 72.5437 83.2473 71.8538L84.1533 71.9958Z" fill="#6F7A58" stroke="#6F7A58" stroke-width="0.99" stroke-linecap="round" stroke-linejoin="round"/>
<path d="M84.3224 65.2516L84.7078 65.1163L85.0459 65.5357C85.0729 65.8469 84.7619 66.1445 84.4779 66.2257C84.0181 66.2257 84.1398 65.4749 84.3224 65.2516Z" fill="#6F7A58" stroke="#6F7A58" stroke-width="0.99" stroke-linecap="round" stroke-linejoin="round"/>
<path d="M94.1808 43.9367C94.2011 43.6932 94.0456 42.7191 94.4918 42.8138C94.884 43.0911 94.857 43.6323 94.9313 44.0652C94.6676 44.1126 94.431 43.9841 94.1808 43.9435V43.9367Z" fill="#6F7A58" stroke="#6F7A58" stroke-width="0.99" stroke-linecap="round" stroke-linejoin="round"/>
<path d="M112.221 68.3701L112.998 68.2416C113.904 68.5325 111.991 69.9598 112.221 68.3701Z" fill="#6F7A58" stroke="#6F7A58" stroke-width="0.99" stroke-linecap="round" stroke-linejoin="round"/>
<path d="M71.401 49.4498C71.4483 49.4024 72.5504 49.7812 72.7059 49.8353C72.875 49.8962 73.044 49.8895 73.0237 50.1398C72.6992 50.7959 71.144 49.6865 71.401 49.4565V49.4498Z" fill="#6F7A58" stroke="#6F7A58" stroke-width="0.99" stroke-linecap="round" stroke-linejoin="round"/>
<path d="M97.7915 42.0764L97.9335 43.1858C96.9531 43.4496 97.041 41.6165 97.7915 42.0764Z" fill="#6F7A58" stroke="#6F7A58" stroke-width="0.99" stroke-linecap="round" stroke-linejoin="round"/>
<path d="M99.5563 47.1904L99.1776 47.1363C98.4271 46.5816 100.293 44.6808 99.5563 47.1904Z" fill="#6F7A58" stroke="#6F7A58" stroke-width="0.99" stroke-linecap="round" stroke-linejoin="round"/>
<path d="M93.8022 40.4327L93.667 41.6706L93.1801 41.6841L93.241 40.683L93.8022 40.4327Z" fill="#6F7A58" stroke="#6F7A58" stroke-width="0.99" stroke-linecap="round" stroke-linejoin="round"/>
<path d="M91.8007 45.1881C91.679 44.7687 91.1516 44.2411 91.9833 43.9367C92.1794 43.9773 92.4566 45.0055 91.8007 45.1881Z" fill="#6F7A58" stroke="#6F7A58" stroke-width="0.99" stroke-linecap="round" stroke-linejoin="round"/>
<path d="M131.471 31.9229V32.295L129.72 32.0447C129.862 31.2397 130.95 31.8959 131.471 31.9229Z" fill="#6F7A58" stroke="#6F7A58" stroke-width="0.99" stroke-linecap="round" stroke-linejoin="round"/>
<path d="M96.1214 39.8035C96.4392 39.7359 96.757 40.7438 96.3716 40.9265C95.8577 41.0821 95.5737 40.0268 96.1214 39.8035Z" fill="#6F7A58" stroke="#6F7A58" stroke-width="0.99" stroke-linecap="round" stroke-linejoin="round"/>
<path d="M103.032 71.8809C103.904 71.6238 103.884 72.6182 103.133 72.6182C102.511 72.6182 102.606 72.0027 103.032 71.8809Z" fill="#6F7A58" stroke="#6F7A58" stroke-width="0.99" stroke-linecap="round" stroke-linejoin="round"/>
<path d="M115.453 69.98C115.453 70.4536 115.541 71.4412 114.831 71.3532C114.723 71.245 114.98 69.8786 115.453 69.98Z" fill="#6F7A58" stroke="#6F7A58" stroke-width="0.99" stroke-linecap="round" stroke-linejoin="round"/>
<path d="M92.7406 45.6887C93.1125 45.6075 93.3829 46.6898 92.9908 46.8116C92.3957 47.001 92.4498 45.7495 92.7406 45.6887Z" fill="#6F7A58" stroke="#6F7A58" stroke-width="0.99" stroke-linecap="round" stroke-linejoin="round"/>
<path d="M92.5716 40.0403C92.3484 39.6886 92.7271 39.0392 93.1869 39.3639C93.721 39.7427 92.9029 40.568 92.5716 40.0403Z" fill="#6F7A58" stroke="#6F7A58" stroke-width="0.99" stroke-linecap="round" stroke-linejoin="round"/>
<path d="M123.715 50.4509C123.81 50.9177 122.336 51.5806 122.214 51.4521L122.296 51.0733L123.709 50.4509H123.715Z" fill="#6F7A58" stroke="#6F7A58" stroke-width="0.99" stroke-linecap="round" stroke-linejoin="round"/>
<path d="M90.4214 80.12L90.8 81.4932C90.5972 81.7231 89.5491 80.0591 90.4214 80.12Z" fill="#6F7A58" stroke="#6F7A58" stroke-width="0.99" stroke-linecap="round" stroke-linejoin="round"/>
<path d="M91.8007 45.1881C91.9021 45.5466 91.8683 45.7563 91.8007 46.1081C91.6384 46.4598 91.1178 45.9931 91.3206 45.391C91.4153 45.1137 91.6384 45.2287 91.8007 45.1881Z" fill="#6F7A58" stroke="#6F7A58" stroke-width="0.99" stroke-linecap="round" stroke-linejoin="round"/>
<path d="M112.43 64.8661L112.451 65.4749L111.754 65.3599C111.538 64.7443 111.937 64.5887 112.43 64.8661Z" fill="#6F7A58" stroke="#6F7A58" stroke-width="0.99" stroke-linecap="round" stroke-linejoin="round"/>
<path d="M123.715 49.4497C123.797 49.7947 123.601 49.6662 123.465 49.7542C123.344 49.8421 122.789 50.2818 122.715 50.1939C122.634 49.6865 123.296 49.4024 123.715 49.443V49.4497Z" fill="#6F7A58" stroke="#6F7A58" stroke-width="0.99" stroke-linecap="round" stroke-linejoin="round"/>
<path d="M89.2989 79.9983C89.7181 79.9103 89.9142 80.8371 89.4274 80.7491C89.3665 80.5394 89.326 80.3433 89.2989 80.1268C89.2989 80.0862 89.2989 80.0456 89.2989 79.9983Z" fill="#6F7A58" stroke="#6F7A58" stroke-width="0.99" stroke-linecap="round" stroke-linejoin="round"/>
<path d="M87.2975 27.7831C87.2029 27.9251 87.4936 29.021 87.1082 28.9127C86.9189 28.8586 87.142 27.9995 87.169 27.7831H87.2975Z" fill="#6F7A58" stroke="#6F7A58" stroke-width="0.99" stroke-linecap="round" stroke-linejoin="round"/>
<path d="M87.0473 29.9138C87.0541 29.7582 86.9865 29.3118 87.1082 29.2847H87.2907C87.4124 29.5012 87.169 29.8529 87.169 29.9138H87.0406H87.0473Z" fill="#6F7A58" stroke="#6F7A58" stroke-width="0.99" stroke-linecap="round" stroke-linejoin="round"/>
<path d="M87.2975 30.543H87.0473C87.0608 30.3333 87.0406 30.1235 87.0473 29.9138H87.1758C87.1758 30.0897 87.3043 30.3197 87.3043 30.543H87.2975Z" fill="#6F7A58" stroke="#6F7A58" stroke-width="0.99" stroke-linecap="round" stroke-linejoin="round"/>
<path d="M46.6264 107.665C46.241 108.112 45.0578 105.433 44.9631 105.325C44.7535 105.095 44.2937 104.919 43.9488 104.526C41.8189 102.105 41.2713 98.0392 42.2517 95.0222C42.3869 95.0087 42.5086 95.0087 42.6303 95.0831C42.9549 95.2725 44.0435 98.675 44.1111 99.2297C44.3275 100.88 44.4086 101.976 44.9969 103.606C45.4905 104.986 46.4033 106.197 46.6264 107.672V107.665Z" fill="#6F7A58" stroke="#6F7A58" stroke-width="0.99" stroke-linecap="round" stroke-linejoin="round"/>
</svg>
