<svg width="102" height="138" viewBox="0 0 102 138" fill="none" xmlns="http://www.w3.org/2000/svg">
<path d="M70.3133 7.59528C70.4959 7.63586 70.7393 7.74409 70.9084 7.76439C71.6995 7.85909 72.3756 7.48704 73.3561 7.76439C74.1134 7.98085 74.8233 9.02259 75.4657 9.12406C76.108 9.22553 76.1418 8.63028 76.6152 8.51528C77.0885 8.40028 77.6226 8.87379 77.8322 9.26613C78.2379 10.017 78.3191 11.3564 77.1696 11.3428C76.8653 11.3428 76.676 11.079 76.4056 11.0993L78.4543 23.2078L78.5557 23.1672L78.6504 23.2687L88.1031 23.776C88.4547 23.8166 88.5359 23.9925 88.5832 24.3239C88.7117 25.3183 88.6305 26.4412 88.644 27.4559C88.6643 29.2079 88.6643 31.0072 88.7049 32.7457C88.7252 33.5777 88.6711 34.4165 88.7522 35.2418C89.8476 35.5868 90.916 36.04 91.937 36.5677C93.9452 37.6026 95.5882 38.9961 97.3665 40.3558C97.5018 40.4572 97.6775 40.694 97.8128 40.7819C98.0021 40.8969 98.1576 40.8428 98.3469 40.9375C98.5701 41.0525 99.3071 41.5396 99.5167 41.7019C99.6722 41.8237 99.9292 42.0469 99.9156 42.2634C99.8954 42.7639 99.422 43.0751 98.9487 43.0413C98.9014 43.1969 99.0434 43.1292 99.084 43.2239C99.1719 43.4472 98.969 43.5621 98.7797 43.6095C99.0028 43.826 98.8405 44.0357 98.8338 44.2657C98.8067 45.1789 98.7594 46.0853 98.7188 46.9917L98.6039 47.0323L98.7256 47.1744L98.543 50.5296C98.7526 50.6108 98.9352 50.8408 99.084 51.0234C99.7195 51.7946 100.72 53.4383 100.876 54.4124C100.896 54.5477 100.795 54.9265 100.997 54.8927V54.9468C100.754 54.9197 100.937 55.3392 100.937 55.4406C100.923 56.2659 100.714 57.0844 100.653 57.8826C100.544 59.2964 100.565 60.7372 100.484 62.1578C99.9562 71.6146 99.4558 81.0713 98.996 90.5281C98.9081 92.2869 98.9082 94.0727 98.7662 95.8315C98.6985 96.6567 98.4078 97.5902 98.3131 98.5102C97.7857 103.672 97.7587 108.894 97.2854 114.062C97.0622 116.497 96.8459 118.06 95.2975 119.987C95.1487 120.177 95.1352 120.346 94.8106 120.414C94.6619 120.414 94.743 120.204 94.5334 120.238C94.2832 120.278 93.4651 121.171 93.3096 121.415C92.6334 122.463 93.1811 123.816 92.6199 124.824C91.964 126.008 89.2593 126.698 88.0084 126.989C87.2782 127.158 86.5277 127.3 85.7839 127.415C86.602 129.383 87.4608 131.332 88.2181 133.327C88.3736 133.733 88.6711 134.342 88.7658 134.721C89.0159 135.783 87.596 136.033 86.8116 136.222C84.5668 136.763 81.8148 136.824 79.4956 136.933C69.2856 137.406 59.4542 136.791 49.3186 135.674C47.3307 135.458 45.0588 135.377 43.1249 135.039C42.7733 134.978 42.611 134.917 42.3473 134.667L45.0249 125.595C44.4232 125.474 43.8011 125.365 43.2061 125.223C41.7794 124.878 38.4256 124.161 37.3708 123.316C36.316 122.47 36.5324 121.07 36.9448 119.9C36.1267 119.548 34.7879 118.81 34.7473 117.809C34.7338 117.471 34.9907 117.174 34.7811 116.923C34.6324 116.741 33.8345 116.24 33.5708 116.023C33.253 115.76 32.9555 115.442 32.6445 115.171C32.5295 115.07 32.4281 115.185 32.3943 114.914C32.7053 97.137 33.0299 79.3734 33.2936 61.5895L33.422 53.1069C33.4626 52.9986 33.6452 53.0325 33.7601 52.931C33.9224 52.7822 34.2469 52.1733 34.416 51.9366C34.8758 51.321 36.2213 49.4676 36.742 49.082C37.2626 48.6964 37.5804 48.9737 37.6683 48.1349C37.7968 46.9782 37.7157 45.4698 37.7562 44.2792C37.79 43.2713 37.9117 42.2566 37.8171 41.2487C38.1011 40.8563 38.3377 40.6737 38.7772 40.4708C40.0416 39.9026 41.4616 39.5711 42.7936 39.1923C43.2804 38.7932 43.5847 38.3197 44.0986 37.9206C45.5997 36.7503 47.3442 35.9521 49.136 35.3365C49.7581 35.1268 51.1848 34.9171 51.4823 34.3218C51.6513 33.9768 51.5972 33.0231 51.631 32.5901C51.7933 30.5743 52.0841 28.5517 52.4965 26.5697C52.6723 25.7444 53.1321 23.3228 53.8285 22.8899C54.4574 22.5043 55.2417 22.9304 55.3296 23.6204C57.3108 22.6734 59.6909 22.7275 61.8411 22.9981C62.1183 23.0319 62.6186 23.2145 62.8215 23.2213C63.2272 23.2348 63.1799 22.6125 63.261 22.3013C64.2482 18.3441 65.0934 14.2651 67.1692 10.7205C67.1692 10.5649 66.5539 10.7205 66.3781 10.4905C66.0806 10.0914 66.2361 9.6314 66.4051 9.212C66.5742 8.7926 66.8852 8.23114 67.372 8.18378C67.8251 8.1432 67.8251 8.3732 68.1902 8.53555V8.86701C68.5959 8.81289 68.7446 8.37322 69.0219 8.1297C69.2382 7.94029 69.556 7.79147 69.7927 7.61559H70.3066L70.3133 7.59528ZM70.7731 8.21764C70.2931 8.10264 69.9415 8.04173 69.5763 8.44084C69.8333 8.44084 69.7995 8.76553 69.9685 8.81288C70.2187 8.88729 70.4621 8.80612 70.7123 8.77906L70.7731 8.21087V8.21764ZM72.1931 8.16351L71.3411 8.2785C71.3411 8.63025 71.2329 8.98201 71.7062 8.96172C72.1795 8.94143 72.0916 8.48821 72.1931 8.16351ZM73.5522 8.60995C73.7144 8.33261 72.7948 8.09587 72.592 8.16351C72.5717 8.25145 72.6731 8.19734 72.707 8.25823C72.8084 8.48822 72.7069 8.81967 72.903 9.00908C72.9842 9.01584 73.5251 8.6573 73.5522 8.60995ZM74.7016 9.30672C74.5191 9.33377 74.1472 8.88054 74.0187 8.96172L73.9578 9.212C74.1201 9.37435 74.2892 9.36761 74.5055 9.36084C74.5732 9.36084 74.7151 9.40142 74.7016 9.30672ZM71.1112 9.69907C70.9963 9.09026 70.3336 9.50288 69.9144 9.29994V9.81405L71.1112 9.69907ZM69.1098 9.42847C68.9475 9.33377 68.3592 9.57728 68.2646 9.75993L69.4005 9.87491L69.103 9.42847H69.1098ZM72.1931 9.41493C71.6724 9.50287 71.4358 9.4014 71.571 10.044L72.3689 9.98317L72.1998 9.41493H72.1931ZM73.3358 9.47583L72.8219 9.52996L72.707 10.044C72.8489 10.0643 72.9774 10.1252 73.0923 10.1996C73.187 10.2605 73.1667 10.4702 73.3223 10.2402V9.4826L73.3358 9.47583ZM76.4056 9.4826L75.7294 9.64494L75.7835 10.4973C75.9931 10.477 76.1756 10.5311 76.2703 10.7272C76.5475 10.5514 76.7774 10.707 76.7977 10.2808C76.8112 9.94934 76.5814 9.71259 76.4056 9.47583V9.4826ZM75.2696 9.81405C74.8233 9.92228 74.3433 9.89522 73.9037 9.75993L73.8429 10.159C74.0457 10.1726 74.2959 10.2605 74.4852 10.3349C74.5326 10.3552 74.5258 10.4431 74.5529 10.4431C74.7557 10.4161 74.9653 10.2402 75.2696 10.389V9.82082V9.81405ZM70.2592 18.4726C70.6987 18.3576 72.308 18.6688 72.592 18.4997C72.7002 18.4388 72.7407 17.9585 72.7543 17.8097C72.8219 16.8424 72.6461 15.6315 72.6664 14.6371C72.6799 14.211 72.7813 13.6292 72.8084 13.1963C72.8557 12.5672 73.0315 11.6269 72.9909 11.0317C72.9504 10.4364 72.0308 10.592 71.6251 10.6123C70.6988 13.1219 70.7055 15.8547 70.2525 18.4658L70.2592 18.4726ZM69.5087 10.734C69.3735 10.6731 68.9948 10.6123 68.8866 10.707C68.7717 10.8084 68.4201 11.5863 68.3322 11.7893C67.6357 13.2978 66.8987 15.158 66.466 16.7544C66.3646 17.14 66.155 17.9112 66.2226 18.2765C66.2361 18.3576 66.2496 18.3644 66.3172 18.4117C66.4998 18.5267 67.8589 18.52 68.0414 18.3914C68.1834 18.29 68.3863 17.5729 68.4336 17.3632C68.6703 16.4027 68.7852 15.3812 68.961 14.4139C69.0422 13.9607 69.6169 10.9099 69.5155 10.7408L69.5087 10.734ZM74.7016 18.7026H75.7835C75.6753 18.2223 75.5062 17.6812 75.4454 17.1941C75.2764 15.9494 75.1682 14.4071 75.1073 13.1489C75.087 12.7228 75.202 11.079 74.9788 10.8558C74.9315 10.8084 74.8031 10.7814 74.7354 10.7814C74.6137 11.3022 74.6746 11.8231 74.6543 12.3507C74.5799 14.123 74.4311 16.5447 74.5934 18.2765C74.6069 18.4456 74.6611 18.547 74.7084 18.7026H74.7016ZM67.5208 20.4208L65.8304 20.2517L65.0258 22.9237C65.2895 22.9643 65.5261 22.9913 65.7966 22.9778C66.0197 22.971 66.6012 22.9034 66.8176 22.8628C67.0948 22.8086 67.1219 22.6057 67.1827 22.3757C67.3382 21.7602 67.4126 21.0567 67.5276 20.4276L67.5208 20.4208ZM69.529 23.1942C69.6439 23.2483 69.7589 23.3024 69.8874 23.316C70.3607 23.3701 71.1585 23.3701 71.6521 23.3633C71.855 23.3633 72.5582 23.3634 72.6799 23.2619C72.7813 23.1401 72.7746 22.9237 72.7948 22.7613C72.8354 22.4028 72.8354 21.936 72.8219 21.5708C72.8151 21.3881 72.761 20.7252 72.6731 20.6373C72.4027 20.3531 70.3742 20.6372 69.9076 20.4884C69.6575 20.6643 69.4884 22.7883 69.5222 23.1874L69.529 23.1942ZM74.9586 23.3769C75.3372 23.458 75.9728 23.316 76.3785 23.3769C76.4529 23.3769 76.507 23.0387 76.5002 22.9575C76.4867 22.7072 76.2297 21.3002 76.1351 21.1175C76.0945 21.0363 75.9998 20.9078 75.9119 20.8808L74.8166 20.8131L74.7895 23.2619C74.7895 23.2619 74.9315 23.3701 74.9586 23.3769ZM75.1005 25.7106L56.4859 25.3115L56.1478 30.4931C56.8848 30.6149 57.6489 30.5269 58.3926 30.5472C63.5314 30.7096 68.8325 31.0072 73.9443 30.926C74.4041 30.9193 74.8706 30.8584 75.3304 30.8922C75.2696 30.2428 75.1276 29.5867 75.1005 28.9305C75.0532 27.855 75.1682 26.7727 75.1005 25.7106ZM84.6074 31.3522C84.6547 31.3049 84.6479 30.1346 84.6615 29.9587C84.7426 29.0049 84.9455 28.0038 84.9995 27.05C85.0401 26.3465 84.9995 26.36 84.3302 26.2382C83.4782 26.0827 82.5857 26.0624 81.7269 25.9947C80.5234 25.8933 79.3198 25.7851 78.1095 25.7648L77.8255 30.8381C80.0974 30.6758 82.3625 30.9937 84.6006 31.3522H84.6074ZM85.9732 34.6533L85.723 33.341C84.9657 33.1651 84.1611 33.2598 83.3835 33.2328C74.6475 32.9216 65.925 32.6645 57.2026 32.3737C56.4791 32.3466 55.7488 32.4481 55.0389 32.2587L54.667 34.1121L85.98 34.6533H85.9732ZM96.8256 41.1743C96.6565 41.0999 96.4266 41.0525 96.2508 41.039C92.7957 40.7549 89.1038 41.2081 85.6081 41.1743C80.4828 41.1269 75.2425 40.5452 70.124 40.2949C63.8966 39.9905 57.73 40.5114 51.5093 40.2408C49.1563 40.1393 46.7424 39.9702 44.4029 39.6658C44.2 39.6388 43.5306 39.4493 43.436 39.4561C43.3143 39.4696 43.1926 39.6455 43.0573 39.6996C42.415 39.9567 41.4683 40.0987 40.7651 40.3152C40.2715 40.4708 39.7779 40.6602 39.2979 40.8428C39.2776 40.9984 39.3925 40.9037 39.4669 40.9037C42.6043 40.7008 45.9175 41.0187 49.0549 41.1067C57.0471 41.3164 65.0528 41.3366 73.0247 41.7831C75.7226 41.9387 78.4137 42.2228 81.1049 42.3513C85.8515 42.5881 90.6455 42.446 95.4056 42.4325C96.4807 42.4325 98.0089 42.6084 99.0366 42.4596C99.1651 42.4393 99.3747 42.3987 99.3544 42.2363C98.8608 42.1281 98.2861 41.4381 97.8736 41.296C97.5829 41.1946 97.1704 41.3231 96.8932 41.2622C96.8459 41.2555 96.8459 41.181 96.8323 41.1743H96.8256ZM96.3928 85.59V84.6498C96.1697 84.6768 95.9601 84.7647 95.737 84.7918C94.1345 84.9812 92.4103 84.9947 90.7875 85.1368C88.9416 85.2991 87.1159 85.5427 85.2632 85.6509C82.7885 85.7929 80.4355 85.8065 77.9742 85.82C75.3372 85.8335 72.7002 85.9553 70.0564 85.7727L69.9482 85.6509L69.8941 85.7524C66.7229 85.6239 63.5585 85.4209 60.3805 85.4209C59.6638 85.2788 58.8997 85.4547 58.1965 85.245C58.1289 84.6768 58.3926 84.8527 58.7307 84.8527C62.7268 84.8933 66.7026 85.2044 70.692 85.2518C71.0233 85.2518 70.9084 85.2924 71.0233 85.3127C72.2066 85.4547 73.728 85.333 74.945 85.3262C78.265 85.3262 81.5308 85.3262 84.8643 85.1368C88.448 84.9271 92.0384 84.4806 95.622 84.2236C95.8925 84.2033 96.1765 84.2371 96.4469 84.2236L98.3267 43.0886L96.8188 43.0277C88.8469 43.1225 80.9088 43.1292 72.9639 42.4054C71.8888 42.3107 71.1721 42.1687 70.0632 42.1822C69.2247 42.1822 68.3863 42.1484 67.5546 42.1213C60.7862 41.9252 53.9908 41.7966 47.2292 41.6072C44.6057 41.5328 41.9417 41.3502 39.3182 41.4922C39.0409 41.5058 38.7637 41.4787 38.4932 41.4922L37.1341 81.6192C37.168 81.7207 37.621 81.8628 37.7562 81.9101C41.0559 83.0872 44.7071 83.8583 48.2029 84.1627C51.3538 84.44 54.5182 84.4062 57.6556 84.9068C57.7435 84.9203 57.8314 84.9068 57.8517 85.0218L54.8631 85.1436C51.2456 84.8594 47.5808 84.8662 44.0039 84.2101C41.6306 83.7771 39.3249 83.0398 37.0395 82.289L36.9651 83.8786C41.5021 84.6971 46.0257 85.59 50.5965 86.2124C52.1043 86.4153 53.6325 86.6385 55.1471 86.7873C60.2859 87.3014 65.472 87.085 70.6244 87.1526C71.1585 87.1594 71.6927 87.2203 72.2336 87.1864L75.1614 87.3894C75.0329 87.4976 74.7895 87.5112 74.6205 87.5314C73.3425 87.7006 72.0308 87.6667 70.7461 87.7006C67.6154 87.7885 64.4916 87.7682 61.3542 87.7006C56.3777 87.5991 51.4214 86.997 46.5057 86.2124C43.3143 85.6983 40.1633 84.9744 36.9651 84.5145L36.5053 93.3692C36.2281 99.7346 35.9373 106.1 35.6534 112.459C35.5993 113.764 35.3018 115.618 35.5317 116.842C35.5655 117.018 35.3897 117.201 35.4505 117.383C35.5452 117.566 37.0192 118.256 37.3032 118.378C39.8794 119.48 42.6719 120.035 45.4306 120.502C50.7926 121.401 56.3506 122.159 61.7531 122.795C67.1557 123.431 72.4771 123.424 77.9675 122.673C83.5526 121.909 89.2661 120.732 94.4996 118.641L94.743 118.75L96.3387 85.9891C94.317 86.5709 92.2006 86.8685 90.1045 87.0714C86.0003 87.4773 81.5984 87.6532 77.4671 87.7546C77.2034 87.7546 76.7369 87.9576 76.7571 87.4367C76.7639 87.227 77.1764 87.2 77.3522 87.1864C82.5113 86.7671 87.6839 86.9158 92.8295 86.1515C93.58 86.0432 95.3042 85.563 95.9128 85.6171C95.9669 85.6171 96.021 85.7253 96.048 85.705C96.048 85.705 96.0345 85.6035 96.0886 85.59C96.1765 85.5697 96.2982 85.6035 96.3928 85.59ZM93.5462 119.724C93.3434 119.69 93.1878 119.832 93.0053 119.9C84.986 122.612 75.2831 124.121 66.8108 123.83C63.8695 123.728 60.9553 123.18 58.041 122.808C50.9346 121.895 43.4427 121.313 36.742 118.709L35.4167 117.985C35.5452 118.459 36.0794 118.743 36.4715 118.98C38.4053 120.17 41.4616 121.09 43.6591 121.753C49.1292 123.41 54.4303 124.29 60.1507 124.56C67.034 124.892 73.9579 124.919 80.8209 124.215C85.3376 123.755 89.4081 123.059 93.1676 120.332C93.2216 120.292 93.4718 120.123 93.4853 120.103C93.5056 120.069 93.438 119.981 93.4515 119.92C93.4651 119.845 93.5868 119.812 93.553 119.71L93.5462 119.724ZM94.6822 119.264C94.3711 119.338 93.9384 119.446 93.7152 119.663L94.1277 119.595L94.6822 119.264ZM92.7483 121.259L89.6853 122.896C84.3775 124.871 78.1568 125.25 72.5109 125.365C62.9364 125.555 53.2403 125.216 44.0175 122.484C41.7861 121.821 39.5548 121.09 37.4384 120.123C37.31 120.935 37.0124 121.733 37.3776 122.517C37.6683 123.133 38.9395 123.539 39.5751 123.728C46.6815 125.839 54.8563 126.894 62.2603 127.239C65.7966 127.401 69.2653 127.138 72.7881 127.178C74.323 127.198 75.8646 127.32 77.3995 127.354C80.5166 127.428 83.37 127.286 86.4398 126.711C87.7853 126.461 90.9565 125.764 91.8964 124.824C92.7078 124.006 92.0248 122.199 92.7483 121.259ZM82.2678 129.979C82.3625 129.891 81.6593 129.153 81.5579 129.059L81.4565 129.018C77.6294 129.695 73.7077 129.931 69.8265 130.087C66.2767 130.229 62.7809 130.161 59.2446 129.742C56.1816 129.377 52.9563 128.964 49.9203 128.423C49.6228 128.369 49.1022 128.166 48.8452 128.24C48.7912 128.254 48.3922 128.504 48.3246 128.558C48.2367 128.619 47.7228 129.086 47.7093 129.153C47.689 129.282 47.7566 129.228 47.8378 129.255C48.0812 129.336 48.3516 129.37 48.6018 129.404C50.468 129.661 52.3613 129.762 54.2207 130.046C54.9104 130.148 56.0396 130.52 56.6279 130.547C60.3941 130.723 64.1535 130.878 67.9468 130.892C71.6792 130.905 75.5941 130.479 79.3333 130.202C80.3137 130.128 81.2874 130.006 82.2678 129.972V129.979ZM46.4043 132.712C48.4328 132.996 50.4951 133.171 52.5168 133.516C53.815 133.74 54.7211 134.017 56.0531 134.078C60.7795 134.288 65.4923 134.66 70.2254 134.653C73.9511 134.646 78.2582 134.633 81.9433 134.132C82.1664 134.105 83.2348 133.936 83.3159 133.801C83.4444 133.591 83.201 133.286 83.0184 133.178C82.8223 133.063 82.4099 133.009 82.1732 132.996C79.3807 132.8 76.0675 133.057 73.2344 133.117C71.5642 133.151 69.8941 133.212 68.224 133.232C61.4692 133.293 54.6264 132.603 47.973 131.447C47.8242 131.42 47.6755 131.413 47.5538 131.305L46.3908 132.718L46.4043 132.712Z" fill="#6F7A58" stroke="#6F7A58" stroke-width="0.85" stroke-miterlimit="10"/>
<path d="M79.1169 51.9434C79.2183 52.0313 79.286 52.1463 79.455 52.2072C79.5497 52.3898 79.4347 52.5792 79.428 52.7483C79.1102 61.4948 78.6977 70.2752 78.2853 79.0081C78.2379 80.0769 78.292 81.3284 78.1771 82.3701C78.1365 82.7286 77.9742 82.7015 77.8525 82.9721C77.6091 83.0939 77.4062 82.9721 77.1831 82.9721C71.5304 82.9112 65.871 82.6272 60.2183 82.4039C59.6773 82.3836 59.1161 82.4783 58.5887 82.3228C58.3859 81.8492 58.5278 81.3554 58.5346 80.9022C58.5752 78.4805 58.7239 76.0724 58.8186 73.6642C59.0485 67.8941 59.2581 62.0969 59.5015 56.3471C59.5556 55.0753 59.5015 53.6819 59.63 52.4304C59.657 52.1463 59.657 51.9569 59.8193 51.7134C60.4482 50.8069 62.3549 49.9411 63.3962 49.5893C68.1226 47.9794 73.1194 48.7776 77.5077 50.9693C78.0283 51.2263 78.6774 51.5781 79.1169 51.9501V51.9434ZM77.3183 66.3924C77.4333 65.398 77.5415 64.4036 77.6023 63.4024C77.7917 60.3178 77.8187 57.1994 77.8863 54.1148C77.8863 53.9186 78.0148 53.8171 77.8863 53.6007C77.6294 53.161 76.1689 52.5387 75.6618 52.356C74.5731 51.9637 73.4372 51.7472 72.3148 51.4901C71.3749 51.2737 70.692 51.1113 69.7115 51.0166C67.2909 50.7866 65.2962 50.9422 63.0243 51.8419C62.3684 52.099 61.7531 52.4372 61.1446 52.7821C61.3069 53.2151 61.1243 53.6412 61.0905 54.0606C60.9755 55.3053 60.8674 56.5703 60.7997 57.8149C60.7862 58.1261 60.793 58.4508 60.7997 58.7552L60.6307 58.7823L60.7997 58.8093C60.6307 60.5613 60.6983 62.3201 60.6848 64.0789L60.8741 65.6888C60.9958 65.8106 62.2805 65.9594 62.5375 65.9865C63.0176 66.0338 63.5923 66.0812 64.0724 66.1015C64.8297 66.1353 66.0535 65.9662 66.6959 66.2097C66.7297 66.0677 66.9393 66.1015 67.088 66.0947C69.8197 65.9797 72.6664 66.1556 75.398 66.2706C76.0336 66.2976 76.6963 66.1759 77.3048 66.3856L77.3183 66.3924ZM75.9525 81.4907C75.966 81.3622 75.9052 81.2472 75.8984 81.1187C75.8173 78.8187 76.1892 76.3091 76.4055 74.0024C76.5475 72.5345 76.8856 71.026 76.5813 69.5514C72.1525 69.6731 67.7372 69.2537 63.3421 68.7261C62.3076 68.7126 61.2731 68.6043 60.2385 68.7261L59.8396 80.4084C65.1948 80.9563 70.5635 81.4433 75.9525 81.4907Z" fill="#6F7A58" stroke="#6F7A58" stroke-width="0.85" stroke-miterlimit="10"/>
<path d="M55.6609 50.6378C56.2357 51.0166 57.4933 51.9501 57.9058 52.4642C58.1424 52.7619 58.014 53.1272 58.0207 53.4316C58.0207 54.3515 57.9464 55.258 57.9126 56.1712C57.6421 63.3551 57.3108 70.5255 56.9997 77.7026C56.9456 78.8729 56.9997 80.0634 56.8375 81.2269C56.5197 81.2946 56.4859 81.5381 56.2019 81.6869C55.2012 82.2145 53.4769 82.0657 52.368 82.0589C48.8182 82.0454 44.6328 81.9439 41.1641 81.2472C40.4676 81.1051 39.5818 80.8143 39.2843 80.104C38.8245 79.0014 38.926 76.6947 38.9192 75.4432C38.8651 68.557 39.3046 61.5354 39.5278 54.6221C39.5548 53.763 39.4128 52.4981 39.8996 51.7472C39.9334 51.6999 40.2377 51.3346 40.2918 51.2805C40.6975 50.8543 41.2114 50.5905 41.7253 50.3199C46.1744 47.9794 51.3606 47.8035 55.6677 50.6243L55.6609 50.6378ZM52.652 51.4834C49.8054 50.4146 46.6477 50.2522 43.774 51.3075C42.9559 51.6051 42.1783 52.0246 41.4818 52.5522C41.3939 53.0122 41.3263 53.4857 41.279 53.9457C41.0829 55.9006 41.11 57.8555 41.0559 59.8173C40.9071 64.9177 40.6366 70.0317 40.5961 75.1389C40.5826 76.3362 40.5961 77.5403 40.6231 78.7308C40.7043 79.1299 41.9822 79.4275 42.3676 79.5223C44.91 80.1378 48.1758 80.2461 50.8129 80.4152C52.1517 80.5031 53.4972 80.706 54.836 80.4963C54.9104 80.2461 54.9915 79.9958 55.0389 79.7455C55.5528 77.1682 55.6068 74.2392 55.7353 71.6145C55.9923 66.3721 56.1681 61.1431 56.3641 55.8938C56.3844 55.2783 56.4656 54.6289 56.4791 54.0133C56.4791 53.8239 56.3371 53.6074 56.4791 53.391L54.5791 52.3222C53.9097 52.126 53.247 51.7269 52.6453 51.4969L52.652 51.4834Z" fill="#6F7A58" stroke="#6F7A58" stroke-width="0.85" stroke-miterlimit="10"/>
<path d="M96.9811 52.126C96.9811 52.126 97.0825 52.1193 97.0825 52.2816L96.8459 56.4418C96.4672 63.2333 96.048 70.052 95.6491 76.8368C95.5544 78.44 95.5679 80.077 95.4192 81.6801C95.3854 82.0184 95.338 82.2281 94.9661 82.3092C94.4726 82.4242 93.7964 82.3566 93.2825 82.3904C89.2864 82.6407 85.1551 83.0195 81.159 83.1345C80.9967 83.1345 80.0568 83.1548 80.0027 83.121C79.9757 83.1075 79.9622 82.9992 79.9081 82.9586C79.8404 82.9045 79.712 82.9045 79.6714 82.8504C79.5632 82.7016 79.6984 81.9169 79.7052 81.6801C79.7863 77.2494 79.9554 72.8322 80.0974 68.4014C80.2664 63.328 80.4828 58.2682 80.618 53.1948C80.1244 53.0392 80.5707 52.5792 80.7803 52.3357C82.633 50.1981 86.9401 49.684 89.6313 49.569C91.6868 49.4811 96.1562 49.8058 96.9676 52.1193L96.9811 52.126ZM95.1825 52.4981C93.837 51.8081 92.2953 51.4969 90.7807 51.4022C88.2248 51.2466 85.7298 51.4022 83.3971 52.559C83.2077 52.6537 82.5857 52.9716 82.4639 53.0731C82.3287 53.1881 82.2814 53.6819 82.2746 53.8781C82.18 55.3527 82.2138 56.895 82.1529 58.3764C82.0718 60.4125 81.9433 62.4419 81.9365 64.478C81.9365 64.5795 81.9027 64.6674 81.8689 64.7621L81.9839 64.823C81.7607 65.1342 81.8892 65.6889 81.8689 66.0744C81.8486 66.46 81.8216 66.8659 81.8148 67.2785C81.8148 67.4679 81.7472 67.6709 81.7675 67.867L81.8689 67.9009L81.7472 68.0091C81.6728 71.3913 81.497 74.8209 81.4159 78.1558C81.4159 78.3588 81.2333 78.6632 81.47 78.7241C81.4768 78.7782 81.3889 78.7376 81.3686 78.7646C81.3145 78.8458 81.3686 79.6237 81.355 79.8131C81.3415 80.0431 81.2198 81.2608 81.301 81.3149L93.9316 80.5775L95.1758 52.4981H95.1825Z" fill="#6F7A58" stroke="#6F7A58" stroke-width="0.85" stroke-miterlimit="10"/>
<path d="M72.1119 100.289C72.2066 100.303 72.5784 100.424 72.6731 100.465C73.3966 100.797 72.7813 101.399 72.3215 101.642C72.1998 101.703 71.909 101.838 71.7806 101.899C71.4222 102.055 71.0503 102.244 70.6582 102.143L70.1308 103.042C69.0016 105.234 66.9596 105.856 64.6268 105.336C62.4631 104.855 60.8403 103.205 59.9004 101.257C59.4136 101.473 58.9809 101.541 58.4805 101.345C57.3919 100.918 58.3723 100.08 59.1364 100.005C59.373 99.9849 59.6165 100.005 59.8531 100.039C59.9748 99.5181 60.3061 99.0513 60.4887 98.5643C60.5225 98.4696 60.4887 98.2666 60.5496 98.199C60.6036 98.1381 60.7524 98.1652 60.8065 98.111C60.8674 98.0502 61.219 97.2588 61.3407 97.0829C62.4699 95.4662 64.5051 95.0873 66.3713 95.2226C68.9475 95.4053 71.8414 97.4008 71.2938 100.296C71.5575 100.316 71.8617 100.262 72.1186 100.296L72.1119 100.289ZM65.3097 96.19C65.2489 96.1291 64.0385 96.4132 63.9439 96.5011C63.8763 96.5687 63.8763 96.6094 63.8898 96.6973L65.3097 96.5823V96.1832V96.19ZM65.7627 96.589H66.6756V96.2508L65.8574 96.19L65.7695 96.589H65.7627ZM68.3254 96.819L67.4261 96.3793L67.1286 96.3658V96.6432C67.5275 96.6973 67.9197 96.8326 68.3254 96.819ZM65.2489 97.0423L63.9371 97.1573V97.8405L65.188 97.7864L65.2421 97.049L65.2489 97.0423ZM66.6147 97.0423H65.7019V97.7796H66.5539L66.6079 97.0423H66.6147ZM68.2645 97.2723L67.0678 97.1031L67.0136 97.7864L68.2104 97.8405L68.2645 97.2723ZM63.43 97.2181L62.294 97.4481L62.3481 97.9623L63.4841 97.8473L63.4232 97.2181H63.43ZM69.272 97.4685C69.103 97.3805 68.9137 97.3805 68.7243 97.3872L68.6635 97.8405L69.5154 97.8946C69.5831 97.8269 69.3396 97.4955 69.2653 97.4617L69.272 97.4685ZM65.1948 98.1855L63.998 98.2463V98.9296L65.1948 98.8754V98.1922V98.1855ZM66.5606 98.1855H65.6478V98.8687H66.5606V98.1855ZM68.2104 98.2396L67.0136 98.1787V98.8619C67.372 98.9296 67.7304 98.9363 68.0887 98.916L68.2104 98.2396ZM69.4613 98.3005L68.6094 98.2396V98.9837L69.4073 99.0378L69.4613 98.3005ZM63.4841 98.3005L62.3481 98.3613V99.0987C62.7403 99.0107 63.146 98.9769 63.5449 98.9837L63.4909 98.3005H63.4841ZM61.8884 98.4087C61.4556 98.456 61.2392 98.3749 61.077 98.8281C61.0567 98.889 61.0161 99.1934 61.0296 99.2069L61.8275 99.1257L61.8816 98.4087H61.8884ZM70.0902 99.1528C70.1037 99.0716 70.0834 98.9972 70.0631 98.9228C70.0429 98.8484 69.9955 98.6116 69.9211 98.5846L69.8603 99.0581L70.0902 99.1528ZM66.5606 99.2678H65.7087V99.951C65.9994 99.9848 66.2766 99.8631 66.5606 99.951V99.2678ZM68.0279 99.9375C68.1158 99.8495 68.1428 99.4166 68.0482 99.349L67.0204 99.2678V99.951C67.2368 99.8901 67.9062 100.059 68.0279 99.9375ZM65.1948 99.3219H63.998V100.005C64.4037 100.046 64.7891 99.9172 65.1948 99.951V99.3219ZM63.5449 99.3828L62.409 99.4437L62.3481 100.181L63.5449 100.066V99.3828ZM69.3464 99.4369L68.5485 99.3828L68.5756 100.012L69.2923 100.12L69.3532 99.4369H69.3464ZM61.8884 99.5519C61.8343 99.4978 61.0093 99.6195 60.9417 99.721L60.9214 100.404L61.8884 100.235V99.5519ZM70.1443 99.5519H69.7994L69.7453 100.235L70.1984 100.35L70.1443 99.5519ZM65.2489 101.087C65.2218 100.932 65.3097 100.452 65.1948 100.37L63.998 100.404V101.148L65.2489 101.094V101.087ZM66.5606 100.35H65.7087V101.094L66.5877 101.148L66.5606 100.35ZM68.0414 100.404C67.6966 100.445 67.3585 100.269 67.0136 100.377L67.0678 101.148L68.0347 101.202V100.404H68.0414ZM63.5449 100.465L62.3481 100.58V101.148H63.5449V100.465ZM68.4944 100.465V101.263H69.2315L69.2653 100.573L68.4944 100.465ZM61.8884 100.634L60.9214 100.803L61.0026 101.202C61.0634 101.297 61.7193 101.142 61.8884 101.202V100.634ZM70.0834 101.372C70.1646 100.979 70.2727 100.634 69.7453 100.634V101.311L70.0834 101.372ZM65.2489 101.547H63.998V101.947C64.1603 101.947 65.1948 101.96 65.2421 101.886V101.547H65.2489ZM66.6147 101.547H65.7019C65.7019 101.669 65.6749 101.811 65.7898 101.892H66.6147V101.547ZM61.8884 101.602L61.1513 101.662L61.3271 102.224C61.4624 102.258 61.7869 102.244 61.8613 102.122L61.8884 101.608V101.602ZM63.5449 101.602H62.3481V102.055C62.7268 102.082 63.0987 101.974 63.4773 101.987L63.5449 101.595V101.602ZM67.0745 101.947L67.9468 102.001C68.3524 101.432 67.372 101.649 67.0745 101.608V101.953V101.947ZM69.2315 101.717L68.4944 101.656C68.4944 101.777 68.4471 102.001 68.5891 102.048L69.2923 102.116L69.2315 101.723V101.717ZM70.0293 101.717H69.7453V102.346C69.867 102.325 70.0564 101.744 70.0293 101.717ZM65.3097 102.968C65.2894 102.779 65.3773 102.535 65.2218 102.4H64.025C63.8763 102.508 64.0521 102.697 63.9439 102.88L64.025 102.968H65.303H65.3097ZM66.6756 102.4H65.7627V102.968C66.0873 103.002 66.4051 103.049 66.7297 103.022L66.6756 102.393V102.4ZM68.0955 102.461L67.1286 102.4L67.1962 103.015L68.1564 103.137L68.1023 102.454L68.0955 102.461ZM63.4841 102.454L62.3887 102.569C62.294 102.63 62.2873 102.968 62.294 103.083L63.4909 103.029V102.461L63.4841 102.454ZM69.2788 102.582L68.5485 102.515L68.6635 103.232L69.1706 103.428L69.4546 103.049L69.2788 102.582ZM65.2962 103.496C65.1677 103.347 64.1873 103.516 63.9506 103.489L63.7951 104.395C63.9101 104.571 65.2083 104.754 65.4788 104.794C65.2286 104.524 65.4788 103.712 65.2962 103.496ZM65.8168 103.428V104.713C65.8168 104.713 65.7289 104.781 65.7627 104.801L66.9596 104.659C66.7297 104.301 66.7905 103.895 66.7905 103.489L65.8236 103.435L65.8168 103.428ZM63.43 103.482L62.3481 103.57C62.436 103.699 63.3556 104.307 63.43 104.226V103.489V103.482ZM67.2435 103.536V104.564C67.6492 104.456 68.0482 104.321 68.3863 104.071C68.393 104.023 68.2848 103.685 68.2578 103.665C68.1834 103.611 67.2909 103.496 67.2435 103.536Z" fill="#6F7A58" stroke="#6F7A58" stroke-width="0.85" stroke-miterlimit="10"/>
<path d="M74.3838 46.3018C74.5461 46.0515 74.8031 45.8756 74.9653 45.6253L74.3162 43.7853L74.3297 43.4877C74.7557 43.0412 75.3034 42.7098 75.939 43.0209C76.649 43.3659 76.5881 44.2995 76.25 44.8947C76.1351 45.0909 75.6821 45.5983 75.6347 45.7606C75.5942 45.9027 75.8105 46.5588 75.8173 46.8294C75.8308 47.4991 75.5942 48.0402 74.8707 48.1349C74.323 48.2093 74.0525 47.6276 74.066 47.1608C74.0728 46.7888 74.181 46.5994 74.3771 46.3018H74.3838ZM75.7632 43.623C75.5063 43.3592 75.1749 43.4471 74.8707 43.5486L75.3237 45.03C75.4387 45.145 75.6888 44.7189 75.7294 44.6106C75.8579 44.3198 76.0134 43.88 75.7564 43.623H75.7632ZM75.1547 46.3356C75.0668 46.2544 75.0532 46.3761 75.0262 46.41C74.7828 46.6873 74.4244 47.3232 74.8572 47.587C75.2899 47.6343 75.2764 46.4506 75.1614 46.3423L75.1547 46.3356Z" fill="#6F7A58" stroke="#6F7A58" stroke-width="0.85" stroke-miterlimit="10"/>
<path d="M67.0542 43.2172C67.5952 43.7854 65.9589 44.5768 65.6478 44.8271C65.6208 44.9489 66.2631 45.1315 66.4186 45.2533C66.5268 45.3412 66.6688 45.5171 66.7026 45.6524C67.1286 47.2759 65.1272 48.3311 63.7681 47.9658C63.6599 47.9388 63.5179 47.905 63.545 47.7629C63.6599 47.7629 63.7816 47.7765 63.9033 47.7494C64.5186 47.6006 65.5532 47.2826 65.9386 46.7685C66.5268 45.9839 65.9724 45.3886 65.1136 45.4021C64.8094 45.4021 64.2955 45.6794 64.2414 45.233C64.2617 45.003 64.4984 45.0436 64.6133 44.9489C64.6742 44.9015 64.7553 44.7121 64.8432 44.6242C65.2827 44.2048 66.0738 43.9613 66.5065 43.4877L64.9987 43.3728C64.7147 43.4472 64.451 43.4336 64.2008 43.2645C64.2279 42.9601 64.2955 42.8857 64.5998 42.8586C65.0934 42.8181 66.2564 42.9195 66.7229 43.0751C66.8041 43.1022 67.0204 43.1766 67.061 43.2172H67.0542Z" fill="#6F7A58" stroke="#6F7A58" stroke-width="0.85" stroke-miterlimit="10"/>
<path d="M71.1112 45.3683C71.4493 45.3818 71.882 45.2939 72.1322 45.5712C72.1322 45.7268 71.0233 45.9771 70.834 45.95C70.7325 46.2206 70.6311 46.5318 70.5094 46.7956C70.4486 46.9377 70.0293 47.8982 69.7994 47.7088C69.6034 47.0932 69.9685 46.5453 70.1984 45.9974L69.0624 46.0448C69.0354 45.8756 68.8799 45.5239 69.1436 45.4833C69.3464 45.4495 70.3607 45.4495 70.4148 45.4157C70.6244 44.8948 70.9489 44.3874 70.9422 43.8057C70.8948 43.6231 69.6169 43.7042 69.414 43.6163C69.2923 43.5689 69.1571 43.2172 69.2856 43.1089C69.5222 42.9128 70.8205 43.0616 71.1112 43.2172C71.8617 43.6298 71.3546 44.7595 71.1112 45.3548V45.3683Z" fill="#6F7A58" stroke="#6F7A58" stroke-width="0.85" stroke-miterlimit="10"/>
<path d="M86.5141 117.647C86.8725 117.309 87.3255 117.18 87.7582 117.498C88.4006 117.978 88.1842 118.892 87.6433 119.379C87.1835 119.791 86.5614 120.136 86.1017 119.548C85.6419 118.959 86.0205 118.1 86.5074 117.64L86.5141 117.647ZM87.3187 119.074C87.738 118.675 87.9543 117.667 87.1429 117.789C86.6831 117.857 86.291 118.77 86.3721 119.182C86.4533 119.622 87.1294 119.257 87.3187 119.081V119.074Z" fill="#6F7A58" stroke="#6F7A58" stroke-width="0.85" stroke-miterlimit="10"/>
<path d="M79.4077 119.338C79.739 119.636 79.7052 120.441 79.5294 120.82C79.2792 121.361 78.6166 121.773 78.0351 121.476C77.3386 121.117 77.7105 119.737 78.1974 119.318C78.4273 119.122 78.5084 119.257 78.7112 119.25C78.9479 119.25 79.171 119.122 79.4077 119.338ZM78.1838 121.016C78.5692 121.401 79.5903 120.529 79.1508 119.791C78.6842 119.007 77.6767 120.508 78.1838 121.016Z" fill="#6F7A58" stroke="#6F7A58" stroke-width="0.85" stroke-miterlimit="10"/>
<path d="M43.8281 116.152C44.2 116.477 44.457 117.275 44.1324 117.701C44.0242 117.843 43.5915 118.107 43.4225 118.127C41.8402 118.323 41.7118 116.247 43.037 115.976C43.3143 115.922 43.6118 115.963 43.8281 116.152ZM43.5982 116.605C42.9018 115.821 42.131 117.356 42.9762 117.654C43.7605 117.931 44.0377 117.099 43.5982 116.605Z" fill="#6F7A58" stroke="#6F7A58" stroke-width="0.85" stroke-miterlimit="10"/>
<path d="M50.299 119.703C49.6634 118.953 50.3328 117.945 51.2253 117.843C52.3072 117.728 52.5033 119.358 51.6107 119.879C51.2321 120.103 50.5897 120.042 50.299 119.697V119.703ZM50.5762 119.365C50.9413 119.812 51.6716 119.446 51.7527 118.892C51.9218 117.681 49.9744 118.635 50.5762 119.365Z" fill="#6F7A58" stroke="#6F7A58" stroke-width="0.85" stroke-miterlimit="10"/>
<path d="M8.45142 26.7456C8.74217 26.2585 9.1749 25.9609 9.74964 25.8459C10.3244 25.7377 11.102 25.9677 12.0756 26.5494C12.7586 26.9553 13.3941 27.4424 13.9824 28.0038C14.5707 28.572 15.0913 29.1876 15.5443 29.864C15.9974 30.5405 16.3625 31.2507 16.6397 31.9948C17.0725 33.138 17.2618 34.2609 17.2077 35.3703C17.1536 36.4797 16.8628 37.4673 16.3422 38.3467C15.9771 38.9623 15.4835 39.3817 14.8682 39.6184C14.2461 39.8552 13.6038 39.8552 12.9276 39.6184C12.7586 39.5576 12.7045 39.4358 12.7653 39.2667C12.8262 39.0976 12.9479 39.0367 13.1304 39.084C13.6646 39.2667 14.1785 39.2667 14.6789 39.084C15.186 38.9014 15.5849 38.5632 15.8824 38.0626C16.2137 37.5079 16.349 36.7773 16.2881 35.8844C16.2273 34.9915 15.9906 34.0445 15.5849 33.0501C15.1251 31.9813 14.5233 31.014 13.7795 30.1414C13.0358 29.2688 12.2244 28.5652 11.3319 28.0309C10.5543 27.5641 9.96601 27.3544 9.5806 27.3882C9.19519 27.422 8.91119 27.5911 8.72863 27.8956C8.51226 28.2608 8.3838 28.714 8.33646 29.2755V29.3094C8.31618 30.4999 8.57988 31.9204 9.13433 33.5642C9.68878 35.2147 10.4731 36.9397 11.4806 38.7458C12.4881 40.5519 13.6038 42.358 14.8344 44.1574C16.065 45.9568 17.397 47.7629 18.8305 49.5623C19.8853 50.7731 20.7102 51.6593 21.3188 52.2275C21.623 52.5048 21.7041 52.7686 21.5554 53.0189L21.5081 53.046C21.4472 53.1407 21.3458 53.2083 21.2038 53.2489C21.0618 53.2827 20.9063 53.2895 20.7372 53.2489C20.5682 53.2083 20.4059 53.1542 20.2572 53.0595C19.7568 52.7619 18.9792 52.0245 17.9244 50.8543C16.8696 49.684 15.9298 48.5746 15.1048 47.5397C14.2799 46.5047 13.0899 44.9827 11.5279 42.9804L11.5077 42.9669C10.5746 41.7763 9.86459 40.8699 9.37099 40.2543C8.87739 39.6387 8.27561 38.9014 7.5724 38.0288C6.86243 37.1561 6.30123 36.4932 5.86848 36.04C5.4425 35.5868 5.11118 35.2892 4.87453 35.1471C4.73253 35.0659 4.63787 35.0321 4.57701 35.0524C4.51616 35.0727 4.46206 35.1336 4.40121 35.2283C4.2254 35.5192 4.11722 35.9656 4.06313 36.5541V36.588V36.6082C4.02932 37.305 4.02256 38.482 4.06313 40.1393C4.06989 41.2961 4.07665 42.1754 4.06313 42.7707C4.05636 43.3727 4.00905 44.0289 3.92791 44.7392C3.84677 45.4495 3.71154 45.9636 3.52897 46.268C3.19089 46.8362 2.75139 47.2353 2.21722 47.4518C1.68306 47.6682 1.14212 47.6682 0.601189 47.4382C0.432149 47.3773 0.384823 47.2556 0.459201 47.0864C0.533579 46.9173 0.655293 46.8565 0.824333 46.9241C1.23003 47.0932 1.64249 47.0932 2.04818 46.9241C2.45388 46.7618 2.79871 46.4506 3.06917 45.9906C3.22469 45.7268 3.33963 45.2398 3.40725 44.5227C3.47487 43.8124 3.50869 43.1631 3.50869 42.5881C3.50869 42.0131 3.50868 41.1946 3.49515 40.1326C3.46811 38.4414 3.47488 37.2509 3.52897 36.5609C3.51545 36.5541 3.51544 36.5406 3.52221 36.5271C3.58982 35.438 3.73857 34.6871 3.98199 34.2812C4.08341 34.1121 4.1916 33.9701 4.32007 33.8618C4.44178 33.7469 4.57702 33.6657 4.72577 33.6251C4.87453 33.5845 5.03004 33.5777 5.19232 33.6048C5.3546 33.6319 5.51011 33.6927 5.66562 33.7874C5.92933 33.943 6.29446 34.2542 6.75425 34.7142C7.21404 35.1742 7.80905 35.8438 8.5393 36.7232C9.26956 37.6026 9.92544 38.4008 10.4934 39.1179C11.0682 39.8349 11.8728 40.8564 12.9208 42.1687C11.8322 40.4505 10.9126 38.827 10.1621 37.305C8.5258 33.9972 7.7482 31.2981 7.82258 29.2146C7.85638 28.2338 8.07953 27.4017 8.49199 26.705L8.45142 26.7456Z" fill="#6F7A58" stroke="#6F7A58" stroke-width="0.85" stroke-miterlimit="10"/>
<path d="M25.4568 26.3262C25.6191 26.245 25.7476 26.2856 25.8355 26.4547C26.0045 26.7456 26.1736 27.192 26.3494 27.8076C26.5252 28.4232 26.6739 29.1335 26.8024 29.9452C26.9309 30.7569 26.9512 31.616 26.8565 32.5225C26.7618 33.4289 26.5184 34.2068 26.133 34.863C26.0721 34.9577 26.0181 35.0389 25.964 35.0998C26.0383 35.4447 26.0789 35.7965 26.0721 36.155C26.0721 36.3241 26.0519 36.4932 26.0248 36.6623C25.9437 37.3117 25.7205 37.9341 25.3689 38.5294C25.112 38.9623 24.686 39.2193 24.0978 39.314C23.5095 39.402 22.8739 39.2464 22.191 38.8405C21.8123 38.6173 21.481 38.3332 21.1903 37.9747C20.8995 37.6229 20.6899 37.3253 20.5547 37.0885C20.4262 36.8518 20.2572 36.5068 20.0476 36.0671C19.9935 35.9588 19.9394 35.8371 19.8785 35.6815C19.7906 35.5124 19.7974 35.3432 19.9056 35.1606C19.7433 34.7615 19.6959 34.3286 19.7636 33.8618C19.8244 33.3883 19.9664 32.9757 20.1828 32.6104C20.291 32.4278 20.4262 32.2654 20.5885 32.1166C20.7508 31.9678 20.9739 31.8257 21.2579 31.6837C21.5419 31.5416 21.9002 31.501 22.3262 31.5687C22.759 31.6363 23.2255 31.8189 23.7259 32.1166C24.686 32.6848 25.3622 33.4492 25.7611 34.403C26.0789 33.8009 26.275 33.0839 26.3494 32.2519C26.4238 31.4198 26.3899 30.6284 26.2547 29.8911C26.1195 29.1537 25.9707 28.5043 25.8152 27.9429C25.6597 27.3882 25.5042 26.9756 25.3689 26.6982C25.281 26.5291 25.3148 26.4073 25.4771 26.3262H25.4568ZM25.3622 34.9983C25.0579 33.9904 24.4155 33.1922 23.4216 32.6036C22.1436 31.8393 21.2173 31.9407 20.6426 32.9013C20.4938 33.1516 20.3856 33.456 20.3248 33.8145C20.2639 34.173 20.2707 34.5112 20.3518 34.8224C20.7913 34.6871 21.1294 34.863 21.3728 35.3433C21.3999 35.3974 21.4472 35.4921 21.5148 35.6274C21.6095 35.8168 21.6839 35.9588 21.7447 36.0468C23.212 36.6556 24.4155 36.3038 25.3622 35.005V34.9983ZM25.4568 36.6894C25.5042 36.3579 25.5177 36.04 25.4974 35.7221C24.5846 36.7232 23.4892 37.075 22.218 36.7706C22.4817 37.1156 22.7928 37.3929 23.1376 37.6026L23.1579 37.6161C23.4757 37.8055 23.78 37.9205 24.0572 37.9544C24.544 38.022 24.9294 37.8123 25.2134 37.3388C25.3284 37.1426 25.4095 36.9261 25.4568 36.6894Z" fill="#6F7A58" stroke="#6F7A58" stroke-width="0.85" stroke-miterlimit="10"/>
<path d="M31.7925 15.733C31.9683 15.6788 32.0832 15.7397 32.1441 15.9291C32.2996 16.4567 32.3469 17.167 32.2725 18.0667C32.1982 18.9664 32.0629 19.8187 31.8668 20.6237L31.8871 20.6372C31.8871 20.6372 31.8669 20.6643 31.8601 20.6778C31.7249 21.219 31.6031 21.591 31.4882 21.7872C31.3394 22.0375 31.1501 22.2472 30.9202 22.4095C30.6903 22.5719 30.4199 22.6936 30.1021 22.7613C29.791 22.8289 29.5273 22.8695 29.3245 22.8763C29.1216 22.883 28.8376 22.8966 28.4725 22.9033C28.2494 22.9033 28.0804 22.9033 27.9722 22.9169C27.864 22.9236 27.7287 22.9439 27.5665 22.9574C27.4042 22.9777 27.2825 23.0048 27.1878 23.0454C27.0999 23.086 27.0323 23.1401 26.9917 23.2077C26.6334 23.8098 26.87 24.9462 27.7017 26.6238L27.722 26.6373C27.749 26.6915 27.7693 26.732 27.7896 26.7591V26.7929C28.4184 27.9699 29.1419 29.0929 29.9804 30.1549C30.0142 30.1955 30.0412 30.2293 30.0615 30.2563C30.4063 30.5946 30.501 30.8922 30.3455 31.156C30.3184 31.1966 30.2914 31.2304 30.2643 31.2507C30.1156 31.4063 29.8992 31.474 29.6152 31.4604C29.3312 31.4401 29.0946 31.3454 28.8985 31.1763C28.1953 30.554 27.3839 29.6814 26.4643 28.572C25.5447 27.4558 24.8889 26.5629 24.5035 25.8797C24.3412 25.6159 24.402 25.3859 24.686 25.1965C24.8753 25.068 25.112 25.0341 25.3892 25.1086C25.6665 25.183 25.9437 25.3656 26.2209 25.6565C26.3359 25.8188 26.5049 26.042 26.728 26.3262C27.0729 26.7591 27.2825 27.0229 27.3569 27.1244C27.3366 27.0973 27.323 27.0567 27.3095 27.0094C27.296 27.0026 27.2825 26.9823 27.2825 26.962C27.0796 26.5764 26.9106 26.2382 26.7754 25.9406C26.6401 25.6429 26.4914 25.2506 26.3223 24.7501C26.1533 24.2562 26.0857 23.776 26.106 23.3092C26.1262 22.8425 26.248 22.4298 26.4643 22.0645C26.6266 21.7872 26.87 21.6113 27.1946 21.5504C27.5124 21.4895 27.9654 21.449 28.5401 21.4287C28.912 21.4422 29.1893 21.4422 29.3921 21.4287C29.5882 21.4151 29.8316 21.3813 30.1156 21.3204C30.3996 21.2663 30.643 21.1649 30.8459 21.016C31.0419 20.874 31.2177 20.6778 31.353 20.441C31.5288 19.6969 31.6572 18.8987 31.7316 18.0464C31.806 17.1941 31.7654 16.5379 31.6099 16.0644C31.5626 15.8885 31.6302 15.7668 31.806 15.7126L31.7925 15.733Z" fill="#6F7A58" stroke="#6F7A58" stroke-width="0.85" stroke-miterlimit="10"/>
<path d="M35.8629 8.85349C36.0387 8.77908 36.1604 8.82641 36.2281 9.00229C36.7555 10.3011 37.1882 11.3564 37.5128 12.1884C37.8441 13.0137 38.1619 13.8998 38.4729 14.8333C38.7839 15.7736 39.0003 16.538 39.122 17.14C39.2437 17.742 39.2978 18.3102 39.2843 18.8446C39.264 19.379 39.1626 19.8187 38.9598 20.1502C38.4662 20.989 37.7765 21.3407 36.911 21.219C36.1334 21.0972 35.2476 20.5696 34.2401 19.6293C33.2327 18.6891 32.2117 17.4309 31.1704 15.8547C30.1697 14.3327 29.2839 12.7363 28.5131 11.052C27.3636 11.911 26.3561 12.7566 25.5042 13.5886C24.6522 14.4207 23.8881 15.4083 23.2052 16.5515C22.8468 17.1467 22.5899 17.7217 22.4276 18.2629C22.2653 18.8041 22.1842 19.2505 22.1774 19.582C22.1707 19.9134 22.218 20.2314 22.3127 20.5223C22.4073 20.8131 22.4817 21.0093 22.5561 21.1175C22.6237 21.2257 22.6913 21.3069 22.7522 21.3611C22.8807 21.4963 22.8807 21.6248 22.7522 21.7534C22.617 21.8819 22.4885 21.8819 22.36 21.7534C21.9137 21.3001 21.6771 20.6711 21.65 19.8593C21.5959 18.7702 21.9611 17.5729 22.7387 16.2674C23.4486 15.07 24.2533 14.0351 25.139 13.176C26.0248 12.3169 27.0796 11.4308 28.2967 10.5311C27.6949 9.13759 27.2554 7.85911 26.9849 6.69561C26.9308 6.47238 26.9376 6.20854 27.0052 5.90414C27.0729 5.59973 27.2148 5.39005 27.4245 5.28858C27.722 5.20065 27.9451 5.43065 28.0938 5.97181C28.3778 6.95266 28.8579 8.17025 29.5408 9.63138C30.217 9.13081 30.7714 8.70464 31.2042 8.35965C31.6369 8.01467 32.1035 7.57498 32.6174 7.05411C33.1245 6.52648 33.564 5.99209 33.9223 5.4577C33.9629 5.39005 34.0238 5.34947 34.0914 5.33594C34.1658 5.32241 34.2334 5.33594 34.3078 5.37653C34.4498 5.48476 34.4768 5.61329 34.3889 5.76211C33.8412 6.58738 33.2124 7.32468 32.4957 7.97407C31.7789 8.62347 30.8729 9.34728 29.7775 10.1455C30.9675 12.5875 32.2793 14.7927 33.7195 16.7612C35.1597 18.7296 36.3633 19.7714 37.3234 19.8931C37.7765 19.954 38.1416 19.7511 38.4256 19.2776C38.7569 18.7229 38.7366 17.7555 38.3647 16.3823C37.9928 14.955 37.1071 12.5739 35.7142 9.23903C35.6466 9.06992 35.7007 8.94817 35.8765 8.86699L35.8629 8.85349Z" fill="#6F7A58" stroke="#6F7A58" stroke-width="0.85" stroke-miterlimit="10"/>
<path d="M40.8192 0.46551C40.9815 0.384336 41.11 0.424925 41.1979 0.594038C41.3669 0.884911 41.5359 1.33137 41.7117 1.94694C41.8875 2.56251 42.0363 3.27276 42.1648 4.0845C42.2932 4.89624 42.3135 5.75533 42.2189 6.66178C42.1242 7.56822 41.8808 8.34615 41.4954 9.00231C41.4345 9.09701 41.3804 9.17817 41.3263 9.23905C41.4007 9.58404 41.4413 9.93579 41.4345 10.2943C41.4345 10.4634 41.4142 10.6325 41.3872 10.8017C41.306 11.451 41.0829 12.0734 40.7313 12.6687C40.4744 13.1016 40.0484 13.3587 39.4601 13.4534C38.8719 13.5413 38.2295 13.3857 37.5533 12.9798C37.1747 12.7566 36.8434 12.4725 36.5526 12.114C36.2619 11.7622 36.0523 11.4646 35.917 11.2278C35.7886 10.9911 35.6128 10.6461 35.4099 10.2064C35.3558 10.0982 35.3017 9.97641 35.2409 9.82083C35.153 9.65172 35.1597 9.48259 35.2679 9.29995C35.1056 8.90084 35.0583 8.46793 35.1259 8.00118C35.1868 7.52766 35.3288 7.115 35.5451 6.74972C35.6533 6.56708 35.7886 6.40474 35.9508 6.25592C36.1131 6.1071 36.3363 5.96504 36.6202 5.82299C36.9042 5.68093 37.2626 5.64036 37.6886 5.708C38.1213 5.77565 38.5879 5.95829 39.0882 6.25592C40.0484 6.82414 40.7245 7.58853 41.1235 8.54233C41.4413 7.94029 41.6374 7.22326 41.7117 6.39122C41.7861 5.55919 41.7523 4.76775 41.6171 4.03042C41.4818 3.29309 41.3331 2.64369 41.1776 2.08224C41.0221 1.52755 40.8665 1.11489 40.7313 0.83755C40.6434 0.668437 40.6772 0.546684 40.8395 0.46551H40.8192ZM40.7313 9.13084C40.427 8.12293 39.7847 7.32473 38.7907 6.73622C37.5128 5.97183 36.5864 6.0733 36.0117 7.03386C35.8629 7.28415 35.7548 7.58853 35.6939 7.94705C35.633 8.30557 35.6398 8.64379 35.721 8.95495C36.1605 8.81966 36.4985 8.99555 36.742 9.47583C36.769 9.52995 36.8163 9.62464 36.884 9.75993C36.9786 9.94934 37.053 10.0914 37.1138 10.1793C38.5811 10.7881 39.7847 10.4364 40.7313 9.13761V9.13084ZM40.826 10.8287C40.8733 10.4973 40.8868 10.1793 40.8665 9.86142C39.9537 10.8626 38.8583 11.2143 37.5872 10.9099C37.8509 11.2549 38.1619 11.5322 38.5067 11.7419L38.527 11.7555C38.8448 11.9449 39.1491 12.0599 39.4263 12.0937C39.9132 12.1613 40.2986 11.9516 40.5826 11.4781C40.6975 11.2819 40.7786 11.0655 40.826 10.8287Z" fill="#6F7A58" stroke="#6F7A58" stroke-width="0.85" stroke-miterlimit="10"/>
</svg>
