<svg width="119" height="183" viewBox="0 0 119 183" fill="none" xmlns="http://www.w3.org/2000/svg">
<path d="M46.0596 182.167C45.9446 181.95 45.7621 181.714 45.9108 181.463L49.8663 176.485C49.9002 176.782 49.5756 177.188 49.4133 177.452C48.5749 178.805 47.4186 180.652 46.472 181.89C46.3909 181.998 46.2218 182.025 46.1678 182.167H46.0663H46.0596Z" fill="#6F7A58" stroke="#6F7A58" stroke-width="0.85" stroke-linecap="round" stroke-linejoin="round"/>
<path d="M86.6224 158.018L87.5352 158.119C86.8523 158.139 85.8313 158.762 85.2295 158.816C84.9928 158.836 84.8914 158.62 84.7629 158.64C84.6277 158.66 84.2964 159.188 84.0935 158.985L84.4992 158.221C84.0462 158.403 83.8366 158.444 83.6405 158.931C83.2416 158.511 82.8156 159.113 82.3355 158.836C82.1868 158.748 82.3761 158.464 82.1192 158.525C81.4295 158.626 80.6654 159.1 79.9825 159.141C79.6106 159.161 79.4077 159.168 79.428 158.735C79.1508 158.897 78.8195 158.755 78.6031 158.789C78.1028 158.877 77.4942 159.601 76.791 159.343L76.9939 158.532C76.1622 158.626 75.5604 159.316 74.6611 159.141V158.633C73.9173 158.633 73.2682 159.371 72.5447 159.026L72.4839 158.633C72.1525 158.721 71.7401 159.053 71.4426 159.12C71.091 159.201 71.1924 158.85 71.0639 158.836C70.9625 158.829 69.4952 159.688 69.191 159.337C68.9408 159.046 69.6169 158.816 69.2518 158.85C69.0422 158.904 68.765 159.161 68.5824 159.195C68.4202 159.222 68.3255 159.059 68.1632 159.086C67.6831 159.168 67.2166 159.979 66.6486 159.648L67.007 158.735C66.5472 158.768 66.1956 159.296 65.844 159.404C65.4924 159.513 65.276 159.242 64.9785 159.749C64.7892 159.648 65.2151 159.032 64.8771 159.141C64.2415 159.343 63.9913 159.979 63.3084 159.844L63.1529 159.343C63.0312 159.343 61.8411 160.243 61.6247 160.257C61.4084 160.27 61.2867 160.054 61.1447 160.067C60.7593 160.094 59.6504 160.865 60.1304 159.641C61.3678 159.506 62.5578 159.215 63.7141 158.775C63.6803 157.693 63.7344 156.611 63.7141 155.528C63.6397 151.625 63.6262 147.668 63.5045 143.765C63.4909 143.406 63.4436 142.25 63.6059 142.026C63.7141 141.878 64.0319 141.844 64.0995 141.607C64.1468 141.445 64.2009 140.396 64.2212 140.105C65.2828 120.766 66.2294 101.433 67.2707 82.0658C67.7237 73.5628 67.4938 64.9854 67.5682 56.381C67.575 55.5354 67.8522 52.1667 67.6223 51.6661C67.5614 51.5376 67.3586 51.4497 67.2639 51.2129C66.9529 50.4756 66.9799 47.1542 67.3518 46.4169C67.6493 45.8283 69.4885 45.7066 69.5899 45.4089V43.914C69.4885 43.6299 68.5824 43.4878 68.5824 42.7843C68.5824 42.0808 69.3668 42.0064 69.6102 41.6749C69.7387 41.4991 69.759 39.6388 69.7049 39.3344C69.6372 38.9962 69.1707 38.7933 69.191 38.2183C69.218 37.5689 69.928 37.3862 69.8063 36.7436C70.1308 36.6219 70.07 37.0074 70.2525 36.9398C70.3472 36.906 70.4621 36.7504 70.6177 36.6895C71.6589 36.2769 72.8625 36.0536 73.9579 35.8236C73.9376 35.2893 74.0864 34.7413 74.4447 34.3422C74.2825 32.0693 74.607 29.7694 74.7693 27.5033L73.9579 27.7536C73.6266 27.4627 73.1262 27.3071 73.0654 26.8133C72.9842 25.8528 75.0059 25.6972 75.4387 25.3725C75.5672 25.2778 76.3109 23.8775 76.5543 23.5461C77.1899 22.7073 78.0216 21.9564 78.9953 21.5235C79.3875 21.3476 80.1718 21.2123 80.3882 21.0906C80.6384 20.9417 80.564 20.4141 81.0643 20.4953C80.848 20.0624 80.9967 19.6903 81.5038 19.6835L81.5647 19.4806C80.8818 19.2371 80.7398 18.3103 80.9224 17.6677C81.0508 17.228 81.9028 16.2945 82.4167 16.3351C82.5925 16.8695 83.0117 16.7883 83.343 17.1333C83.9313 17.7489 83.8569 19.2641 82.9846 19.5753C82.9373 19.643 83.3363 19.9068 83.3768 20.0556C83.4242 20.2518 83.2754 20.4682 83.2889 20.4885C83.3024 20.502 83.5323 20.5156 83.6338 20.6035C84.3775 21.2191 84.4452 21.0432 85.2836 21.3882C86.6359 21.9429 87.5352 22.9643 88.2722 24.1819C88.4074 24.4052 88.7996 25.3725 88.8875 25.4401C89.2256 25.7107 90.5847 25.6566 90.8484 26.4751C91.0309 27.0501 90.5509 28.0174 89.8815 27.8009C89.8341 29.005 89.6448 30.2091 89.5772 31.4064C89.5434 32.0626 89.3946 33.9769 89.4961 34.5249C89.5434 34.7819 89.8003 35.0863 89.7868 35.4042C90.916 35.4448 94.2022 35.9116 94.6687 37.0616C94.9189 37.6839 94.7295 38.3265 94.1345 38.6309L94.236 41.0458C96.8797 41.7358 96.3726 43.1631 94.0601 43.7584L93.837 45.3548L95.9737 46.4439C96.2982 47.2286 96.6972 50.9423 95.9669 51.3008C95.5883 51.4835 95.3381 51.1858 95.257 51.9096C95.3381 60.2638 95.1623 68.6653 95.257 76.9789C95.3922 88.9047 96.3726 101.142 96.9879 113.101C97.4545 122.24 97.6032 131.609 98.3065 140.701C98.3605 141.377 98.6513 141.972 98.7121 142.527C99.057 145.645 98.7527 150.083 98.8203 153.384C98.8541 155.251 98.9218 157.098 98.8947 158.958L98.7459 159.113C98.063 158.992 97.4207 159.425 96.731 159.431C96.2577 159.431 95.737 159.222 95.2299 159.323L95.0608 158.911C94.6078 159.012 92.7214 159.567 92.4238 159.371C92.3495 159.323 92.3494 159.12 92.2683 159.113L90.5644 159.634C90.206 159.289 90.7064 158.965 90.801 158.613C89.6178 158.633 88.0829 159.952 87.1498 158.87C87.5217 158.417 87.5149 157.578 88.2654 157.7C88.2654 157.862 88.2858 158.2 88.164 158.309C88.1167 158.349 87.6772 158.451 87.6569 158.714C87.9206 158.714 88.2316 158.559 88.4683 158.511C88.5562 158.491 88.6847 158.532 88.7726 158.511L88.9754 158.41C89.0633 158.39 89.185 158.43 89.2797 158.41L89.4825 158.309C89.5772 158.295 89.6921 158.322 89.7868 158.309L90.0911 158.207C90.3413 158.207 90.2736 158.525 90.8484 158.403C91.0309 158.363 91.2811 158.051 91.4096 158.309V158.511C91.3893 158.572 91.4299 158.674 91.4096 158.714C91.3826 158.762 91.1932 158.796 91.2068 158.917C91.369 158.985 91.4434 158.836 91.511 158.816C91.8558 158.714 92.1669 158.687 92.5252 158.714C92.6064 156.509 92.2886 154.317 92.221 152.119C92.221 152.018 92.221 151.916 92.221 151.815C92.0858 146.491 92.7687 141.275 92.5252 135.986C92.5252 135.884 92.5252 135.783 92.5252 135.681C92.505 135.1 92.5523 134.531 92.4238 133.956L92.363 133.862H92.1196C91.8423 133.807 91.4164 133.862 91.1053 133.855H85.7298C85.358 133.855 84.9861 133.841 84.6142 133.855C84.2423 133.868 84.1544 133.855 83.8028 133.956C83.7217 133.977 83.5932 133.936 83.4985 133.956C83.6338 134.213 83.4985 134.477 83.4985 134.612V137.656C83.4985 137.69 83.3903 137.812 83.3903 137.954C83.3903 138.164 83.5323 138.394 83.4985 138.617L83.6473 138.719C83.9718 138.719 84.2964 138.712 84.6142 138.719C85.1889 138.725 85.7637 138.719 86.3384 138.719C86.6089 138.908 87.1024 138.82 87.454 138.82C88.0964 138.82 88.7388 138.82 89.3811 138.82C89.6178 139.009 90.0776 138.921 90.3954 138.921C90.916 138.921 91.6463 138.719 91.7071 139.388L91.6192 145.578C91.6327 145.713 91.3352 145.882 91.2068 145.929H88.9754C88.6035 145.929 88.2317 145.929 87.8598 145.929C87.143 145.747 86.2775 145.821 85.527 145.828C85.0605 145.828 84.5736 145.801 84.1071 145.828L83.9583 145.727L83.9042 145.828C83.8028 149.63 83.7284 153.479 83.8028 157.294V158.106C83.9313 158.092 84.08 158.126 84.2085 158.106L84.5128 158.004C84.7494 157.97 84.9793 157.896 85.2227 157.903C85.2295 157.97 85.216 158.038 85.2227 158.106C85.2295 158.173 85.2227 158.241 85.2227 158.309C85.3918 158.376 85.4729 158.221 85.527 158.207C85.8786 158.106 86.095 158.126 86.4398 158.106C86.5277 158.106 86.6156 158.106 86.6427 158.004L86.6224 158.018ZM81.1996 21.0229C81.8081 20.962 82.5925 21.0229 83.228 21.0229C83.2551 21.0229 83.3633 21.165 83.4782 21.1244C83.485 20.7726 83.0996 20.7388 82.8224 20.7117C82.153 20.6509 81.5039 20.8403 80.8412 20.82C80.7871 21.3611 80.9765 21.0432 81.1996 21.0229ZM85.1957 26.6172C83.1266 26.3872 81.0103 26.103 78.9412 26.421C78.5626 28.7547 78.5287 31.1561 78.7181 33.5034H85.6149C85.3783 31.2238 85.6758 28.8833 85.1957 26.6172ZM78.2042 29.2485C77.0209 29.35 75.8579 28.7683 75.06 27.9295L74.6543 34.3219C75.8376 33.8011 77.1291 33.659 78.407 33.5102C78.0419 32.1235 78.265 30.6691 78.2042 29.2485ZM89.158 34.3152L89.4623 28.2271C88.3331 28.7953 87.116 29.35 85.811 29.2418V33.6049C86.9537 33.6793 88.0829 33.9161 89.158 34.3152ZM89.5637 36.1957C89.4758 36.7436 89.6313 37.5012 89.5637 38.0762C89.8409 37.968 90.2398 38.0897 90.3277 37.7718H90.5712L91.7206 40.4844L93.7221 40.9173L93.8235 38.888C93.7356 38.7865 91.8491 39.862 91.4907 39.6523C92.2616 38.9962 94.8783 38.7324 94.3779 37.2713C94.0669 36.3648 91.1053 35.7425 90.2263 35.7357C89.8477 35.7357 89.638 35.7628 89.5637 36.2025V36.1957ZM73.9511 40.1056L74.0593 36.1957C73.7686 36.0063 71.2803 36.7436 70.8408 36.9465C70.6041 37.0548 70.3269 37.1698 70.1511 37.3727C70.0429 37.5892 70.0497 39.0841 70.1984 39.2532C70.5027 39.5982 73.7213 40.3423 73.9511 40.1123V40.1056ZM69.7927 37.8733C69.2924 37.9003 69.5155 38.4821 69.5899 38.7865C69.928 38.6377 69.7589 38.1642 69.7927 37.8733ZM73.3358 40.3085C72.2202 40.2476 71.118 39.9297 70.0903 39.4968L69.9888 41.5261L73.3358 40.3085ZM73.9444 40.6129C72.565 40.7685 71.2803 41.3299 70.0091 41.8441L70.0429 43.7584C70.1173 43.8734 72.3554 44.7257 72.6056 44.7528C72.991 44.8001 73.4373 44.5499 73.843 44.5634L73.9511 40.6129H73.9444ZM93.7153 41.127L91.9032 40.8158L93.0256 43.6502L93.6274 43.4811L93.7153 41.127ZM94.0263 43.454C94.6349 43.2849 95.5139 43.0887 95.6626 42.3852C95.6626 41.9049 94.689 41.4449 94.2765 41.3232C94.0669 41.2623 94.148 41.3773 94.1345 41.4788C94.1142 41.5938 94.0263 41.9591 94.0263 41.9861V43.4608V43.454ZM69.6913 43.5555V42.0335C68.6568 42.4529 68.5892 43.1767 69.6913 43.5555ZM93.6206 43.8599L91.795 44.2184L90.9836 44.6716L93.5192 45.2804L93.6206 43.8599ZM72.1187 44.7731C71.375 44.6987 70.6718 44.3604 69.9888 44.0628V45.3819C70.5974 45.2466 71.2465 45.1384 71.8348 44.949C71.9429 44.9151 72.139 44.9219 72.1187 44.7798V44.7731ZM96.8662 121.584L94.7904 82.5123C94.6687 82.3296 92.6875 81.8967 92.3224 81.8358C87.6163 80.9767 81.8352 80.9699 77.0344 81.0917C74.891 81.1458 71.713 81.1729 69.7116 81.7817C68.9611 82.0117 68.3931 82.4649 67.6628 82.6272L66.4525 106.1L66.6486 106.229C67.3924 106.1 68.17 105.931 68.9273 105.863C70.07 105.762 71.5508 105.674 72.6664 105.87C72.7746 105.89 73.0451 105.904 73.0316 106.059L66.5404 106.716L66.3376 107.582C66.3917 107.629 67.0002 107.46 67.0475 107.784L66.3511 108.156L66.2362 110.423C68.3525 110.145 70.4081 109.787 72.5244 110.267C72.6394 110.294 72.8558 110.267 72.8287 110.416C71.9429 110.544 66.5742 110.565 66.2294 111.092L66.1347 113.054L66.9461 113.21L66.0468 113.575V114.779C67.5073 114.502 69.0152 114.36 70.5162 114.4L71.7198 114.677C69.8604 115.252 67.8386 114.671 66.0333 115.428L65.7358 120.664C67.487 120.651 69.218 120.238 70.9625 120.055C77.0682 119.419 84.4384 119.379 90.5238 120.17C92.674 120.448 94.8039 120.941 96.873 121.577L96.8662 121.584ZM83.9853 142.033C84.1138 142.973 83.8907 144.157 83.9853 145.131L90.8822 145.334L90.9836 139.652L83.3768 139.348C83.5391 139.835 83.3971 140.477 83.4782 140.917C83.5256 141.154 83.9245 141.607 83.9853 142.033Z" fill="#6F7A58" stroke="#6F7A58" stroke-width="0.85" stroke-linecap="round" stroke-linejoin="round"/>
<path d="M109.037 17.1671C109.152 17.2754 108.577 17.7895 108.483 17.8774C104.967 21.2326 101.058 23.9114 97.0555 26.6374C96.8662 26.7389 96.6228 26.8268 96.4064 26.8133C96.2306 26.8066 96.2847 26.6442 96.1833 26.6036C95.9466 26.5089 95.6897 26.7592 95.879 26.0692C96.1224 25.1966 98.9623 23.5934 99.8007 22.9914C100.091 22.7884 100.45 22.4096 100.693 22.2337C103.344 20.3803 106.096 18.5336 109.037 17.1604V17.1671Z" fill="#6F7A58" stroke="#6F7A58" stroke-width="0.85" stroke-linecap="round" stroke-linejoin="round"/>
<path d="M63.8087 26.0963C61.7464 24.7231 59.603 23.4581 57.5475 22.0714C56.1951 21.1582 53.9435 19.7376 52.8076 18.6892C52.5844 18.4795 52.2667 18.1548 52.3884 17.8436C52.6183 17.2415 53.2944 17.1604 53.8015 17.4648C53.8894 17.5189 53.93 17.6812 54.0382 17.7556C57.6692 20.13 60.908 22.6532 63.9169 25.5281C64.1265 25.731 64.4646 25.9136 64.5254 26.191C64.3091 26.1504 64.0318 26.2519 63.8155 26.0895L63.8087 26.0963Z" fill="#6F7A58" stroke="#6F7A58" stroke-width="0.85" stroke-linecap="round" stroke-linejoin="round"/>
<path d="M95.7506 0.425003V0.932341L95.9534 0.830867C96.3456 1.37879 95.0609 3.21874 94.7972 3.78019C93.3637 6.83098 92.1263 10.0306 90.3818 12.9596L89.5704 14.1231C89.5502 13.839 89.6516 13.582 89.7192 13.3114C90.5374 10.1118 91.6665 6.84452 93.0729 3.88166C93.5125 2.95493 94.1616 1.50733 94.8107 0.797053C94.8715 0.729408 94.8513 0.533233 94.9392 0.465588L95.7506 0.425003Z" fill="#6F7A58" stroke="#6F7A58" stroke-width="0.85" stroke-linecap="round" stroke-linejoin="round"/>
<path d="M71.2803 1.06087C73.275 4.93017 75.148 8.88063 76.5814 13.007L75.9729 12.3238C74.0053 9.02945 71.7604 5.93807 70.1985 2.49494C69.7725 1.56144 70.1241 0.337068 71.2736 1.06087H71.2803Z" fill="#6F7A58" stroke="#6F7A58" stroke-width="0.85" stroke-linecap="round" stroke-linejoin="round"/>
<path d="M109.95 30.7706C109.903 30.9735 109.767 30.9464 109.605 30.96C106.353 31.2508 102.167 31.6635 98.8406 31.3794C98.6716 31.3658 98.0766 31.2576 98.0022 31.1494C97.9278 31.0411 97.9278 30.5541 97.6776 30.412C97.8128 30.3444 97.894 30.2159 98.0225 30.1482C99.0908 29.6003 100.524 30.1415 101.681 29.8776C104.453 29.9859 107.184 30.4932 109.943 30.7706H109.95Z" fill="#6F7A58" stroke="#6F7A58" stroke-width="0.85" stroke-linecap="round" stroke-linejoin="round"/>
<path d="M65.1272 34.3219C65.1475 34.4978 64.8973 34.4166 64.7756 34.4234C63.7614 34.464 62.7404 34.261 61.7329 34.2137C60.3603 34.1528 58.9539 34.2272 57.6489 34.0446C57.1485 33.9769 54.5453 33.6117 54.4709 33.1381L54.5791 32.1911L54.9713 32.279C55.0051 32.2046 55.0254 32.0761 55.0795 32.0355C55.2621 31.907 58.8727 32.8878 59.4678 32.827L65.1272 34.3219Z" fill="#6F7A58" stroke="#6F7A58" stroke-width="0.85" stroke-linecap="round" stroke-linejoin="round"/>
<path d="M16.4437 166.135C16.4437 166.135 16.464 166.047 16.491 166.054C16.9441 166.636 17.059 166.02 17.5594 165.932C17.1942 166.372 16.1935 167.975 15.7337 168.124C15.4836 168.205 15.3957 168.076 15.0238 168.266C15.0035 168.225 14.9291 168.191 14.9223 168.164C14.8953 168.083 14.9832 167.874 14.8209 168.009L12.7924 170.343L12.2988 170.383L12.1366 169.585C11.5618 169.95 10.1081 171.668 9.58068 171.804C9.36431 171.858 9.22232 171.648 9.09385 171.648C8.99242 171.648 8.82339 171.892 8.63406 171.81C8.67463 171.242 8.93156 169.889 9.55363 170.789H9.69564C10.2501 170.336 10.8045 169.862 11.3793 169.436C11.8661 169.084 12.7789 168.604 13.1576 168.225C13.4551 167.928 13.5768 167.19 14.1515 167.238C14.6722 167.278 14.3071 167.941 14.0028 168.104C14.1853 168.3 14.2868 167.914 14.4152 167.806C15.0373 167.299 15.8149 166.933 16.2341 166.223L16.437 166.122L16.4437 166.135ZM15.4295 167.556V167.353H15.328V167.556H15.4295ZM12.3394 169.382V169.483C12.407 169.45 12.407 169.416 12.3394 169.382Z" fill="#6F7A58" stroke="#6F7A58" stroke-width="0.85" stroke-linecap="round" stroke-linejoin="round"/>
<path d="M78.0014 164.917C77.7377 165.026 77.8255 164.714 77.7444 164.708C76.7099 164.674 73.0181 167.644 71.8415 168.151C71.5035 168.219 71.2465 167.765 71.5102 167.508L76.5814 164.363C77.1832 164.092 78.0554 164.065 78.0014 164.917Z" fill="#6F7A58" stroke="#6F7A58" stroke-width="0.85" stroke-linecap="round" stroke-linejoin="round"/>
<path d="M30.9474 163.294C30.8256 163.159 28.7431 164.917 28.5267 164.038C28.4794 163.849 28.5875 163.754 28.7228 163.652C29.3516 163.179 30.6904 163.091 31.4139 162.733L31.6776 162.861C31.8196 163.091 31.5559 163.341 31.8196 163.497L35.5182 162.435C34.8285 163.064 32.2929 164.417 31.4612 164.173C31.1096 164.072 30.9203 163.652 30.9541 163.301L30.9474 163.294Z" fill="#6F7A58" stroke="#6F7A58" stroke-width="0.85" stroke-linecap="round" stroke-linejoin="round"/>
<path d="M48.5951 161.975C48.5478 162.049 48.5546 162.286 48.4396 162.374L47.8852 162.99L48.2368 161.468L46.0595 163.957L45.593 164.18C45.4104 164.058 45.2955 163.815 45.3901 163.598C45.5727 163.192 46.641 162.597 46.9656 162.225C46.5396 162.333 45.9581 161.995 46.3841 161.589C46.7357 161.251 48.5005 161.339 48.7506 160.561C48.967 160.669 49.4403 160.69 49.224 160.96C49.0482 161.183 49.2375 161.183 49.1969 161.265C49.1766 161.305 48.7304 161.765 48.5884 161.975H48.5951Z" fill="#6F7A58" stroke="#6F7A58" stroke-width="0.85" stroke-linecap="round" stroke-linejoin="round"/>
<path d="M49.2037 161.265C49.9812 161.224 50.5898 159.871 51.178 161.055C51.8272 160.94 53.3688 160 53.9233 160.04C54.2546 160.067 54.2072 160.561 54.1802 160.805C54.1396 161.163 53.8962 161.84 53.4702 161.664L53.5243 160.345L51.4485 161.623C51.1104 161.704 51.0293 161.325 50.6845 161.305C49.9069 161.589 49.4741 162.509 48.6019 161.975C48.7439 161.765 49.1901 161.305 49.2104 161.265H49.2037Z" fill="#6F7A58" stroke="#6F7A58" stroke-width="0.85" stroke-linecap="round" stroke-linejoin="round"/>
<path d="M4.98279 173.948C4.94899 174.043 4.82726 174.151 4.77993 174.252L4.37423 174.861L4.42157 173.136L1.09487 176.755C0.729745 177.026 0.290225 176.715 0.466027 176.383L4.41482 172.927C4.665 172.615 4.52299 171.986 5.07745 172.27C5.56428 172.528 5.03011 173.447 4.88812 173.813C4.83403 173.962 4.97603 173.935 4.97603 173.941L4.98279 173.948Z" fill="#6F7A58" stroke="#6F7A58" stroke-width="0.85" stroke-linecap="round" stroke-linejoin="round"/>
<path d="M38.3378 169.68L37.6414 169.531C37.2424 170.058 36.8435 170.742 36.4243 171.235C36.2214 171.472 35.6061 172.21 35.3154 171.81C35.0855 171.486 35.8495 170.809 36.0659 170.6C36.7421 169.937 37.5197 169.409 38.2161 168.841C38.7705 168.388 39.2236 167.677 39.9673 167.501L38.3378 169.68Z" fill="#6F7A58" stroke="#6F7A58" stroke-width="0.85" stroke-linecap="round" stroke-linejoin="round"/>
<path d="M53.0578 176.586C53.1186 176.64 52.145 177.756 52.0435 177.858C51.8407 178.068 50.5763 179.231 50.4207 179.278C50.2855 179.326 50.1503 179.333 50.0083 179.326C50.0556 178.69 50.2247 178.074 50.3126 177.445C50.3464 177.222 50.2652 175.896 50.9211 176.221C51.5026 176.505 50.5898 177.939 50.5695 178.406L53.0578 176.579V176.586Z" fill="#6F7A58" stroke="#6F7A58" stroke-width="0.85" stroke-linecap="round" stroke-linejoin="round"/>
<path d="M27.1608 162.854C26.4914 163.571 25.4096 164.214 24.659 164.863C24.1857 165.08 24.2601 164.694 24.206 164.715L23.5501 165.425C23.611 165.08 23.7057 164.66 23.8341 164.342C23.9626 164.025 24.4359 162.922 24.8754 163.24L25.0174 163.801L27.3502 162.381C27.4854 162.482 27.2285 162.78 27.1608 162.854Z" fill="#6F7A58" stroke="#6F7A58" stroke-width="0.85" stroke-linecap="round" stroke-linejoin="round"/>
<path d="M22.9348 171.005C22.9348 171.005 22.9078 171.168 22.8334 171.256C21.8868 172.385 20.8726 173.468 19.9597 174.624C19.4594 174.963 19.0537 174.638 19.3782 174.09C19.527 173.833 20.6021 172.859 20.9064 172.575C21.5149 171.993 22.2181 171.472 22.8334 170.904L22.9348 171.005Z" fill="#6F7A58" stroke="#6F7A58" stroke-width="0.85" stroke-linecap="round" stroke-linejoin="round"/>
<path d="M106.704 161.67L107.009 161.062C106.197 160.527 104.953 161.129 104.263 161.008C103.959 160.953 104.02 160.629 104.155 160.412C104.216 160.311 105.805 160.033 106.042 160.033C107.245 160.04 108.178 161.028 106.704 161.664V161.67Z" fill="#6F7A58" stroke="#6F7A58" stroke-width="0.85" stroke-linecap="round" stroke-linejoin="round"/>
<path d="M67.6628 169.483C67.7034 169.673 67.5547 169.727 67.46 169.835C67.1422 170.214 65.4383 171.844 65.0529 171.905C64.5458 171.98 64.4241 171.371 64.255 171.114C64.1063 170.884 63.5248 170.491 64.0116 170.241C64.3564 170.065 64.8838 170.83 65.0732 171.1L67.6628 169.483Z" fill="#6F7A58" stroke="#6F7A58" stroke-width="0.85" stroke-linecap="round" stroke-linejoin="round"/>
<path d="M29.1217 176.586L29.2164 176.025L32.773 172.426C32.5228 172.974 32.0968 173.495 31.7384 173.982C31.2787 174.611 30.3997 175.903 29.8723 176.377C29.6356 176.586 29.4327 176.613 29.1217 176.586Z" fill="#6F7A58" stroke="#6F7A58" stroke-width="0.85" stroke-linecap="round" stroke-linejoin="round"/>
<path d="M101.43 159.743L97.1367 161.955C96.7648 161.792 96.8189 161.373 97.1367 161.183C98.4079 160.852 99.6115 160.121 100.822 159.695C101.025 159.628 101.356 159.458 101.43 159.743Z" fill="#6F7A58" stroke="#6F7A58" stroke-width="0.85" stroke-linecap="round" stroke-linejoin="round"/>
<path d="M117.861 161.67C116.867 162.563 115.542 163.037 114.413 163.761L113.804 163.693L113.966 163.084L117.854 161.67H117.861Z" fill="#6F7A58" stroke="#6F7A58" stroke-width="0.85" stroke-linecap="round" stroke-linejoin="round"/>
<path d="M21.0078 164.917C21.0483 165.107 20.8996 165.161 20.8049 165.269C20.4804 165.655 19.1145 167.271 18.7832 167.393C18.675 167.434 18.4113 167.386 18.2693 167.454C18.1949 166.811 18.6277 166.751 18.9184 166.331C19.0875 166.094 19.2227 165.54 19.3038 165.452C19.5337 165.181 19.9732 165.472 20.2167 165.411C20.3519 165.377 20.8793 164.796 21.001 164.917H21.0078Z" fill="#6F7A58" stroke="#6F7A58" stroke-width="0.85" stroke-linecap="round" stroke-linejoin="round"/>
<path d="M56.6076 177.195C56.8308 176.322 57.1824 174.225 57.8721 173.644C58.3386 173.251 58.528 173.786 58.3792 174.259C58.2845 174.564 57.419 176.032 57.1891 176.417C57.0336 176.674 56.8375 177.012 56.6009 177.195H56.6076Z" fill="#6F7A58" stroke="#6F7A58" stroke-width="0.85" stroke-linecap="round" stroke-linejoin="round"/>
<path d="M28.4523 168.509C28.4523 168.509 28.4253 168.645 28.3441 168.665C27.9384 168.773 27.7491 168.577 27.8505 168.164L31.4545 165.628C31.495 165.817 31.353 165.871 31.2516 165.979C30.4875 166.872 29.4801 167.934 28.4523 168.509Z" fill="#6F7A58" stroke="#6F7A58" stroke-width="0.85" stroke-linecap="round" stroke-linejoin="round"/>
<path d="M112.08 160.96C111.099 161.089 109.821 161.819 108.868 161.873C108.577 161.887 108.469 161.758 108.232 161.664C108.287 161.123 108.665 161.19 109.118 161.102C110.085 160.913 111.059 160.92 112.026 160.771L112.073 160.974L112.08 160.96Z" fill="#6F7A58" stroke="#6F7A58" stroke-width="0.85" stroke-linecap="round" stroke-linejoin="round"/>
<path d="M4.9828 173.948C5.88886 173.305 6.74081 172.419 7.67391 171.817C7.76181 171.756 7.89704 171.574 7.92409 171.817C7.61305 171.905 7.49812 172.358 7.26823 172.629C6.93015 173.021 5.76713 174.252 5.38848 174.503C5.25325 174.591 5.11802 174.672 4.94898 174.665L4.78671 174.252C4.83404 174.151 4.95574 174.043 4.98955 173.948H4.9828Z" fill="#6F7A58" stroke="#6F7A58" stroke-width="0.85" stroke-linecap="round" stroke-linejoin="round"/>
<path d="M39.9741 162.279C40.1905 162.198 41.1371 161.975 41.3467 161.975C41.6036 161.968 41.8471 162.097 42.104 162.083C42.1581 162.374 42.0161 162.245 41.8808 162.313C41.5428 162.482 40.63 162.99 40.3257 163.003C39.6563 163.03 39.9809 162.705 39.9741 162.286C39.2506 162.557 37.8645 163.652 37.0328 163.253C36.6744 163.077 36.7082 162.611 36.999 162.381C37.2424 162.327 37.3844 162.55 37.567 162.563C38.1687 162.597 39.352 162.327 39.9268 162.083C40.0147 162.083 39.9741 162.218 39.9741 162.286V162.279Z" fill="#6F7A58"/>
<path d="M39.9741 162.286C39.9809 162.705 39.6563 163.03 40.3257 163.003C40.63 162.99 41.5428 162.482 41.8808 162.313C42.0161 162.245 42.1581 162.374 42.104 162.083C41.8471 162.097 41.6036 161.968 41.3467 161.975C41.1371 161.975 40.1905 162.198 39.9741 162.279V162.286ZM39.9741 162.286C39.2506 162.557 37.8645 163.652 37.0328 163.253C36.6744 163.077 36.7082 162.611 36.999 162.381C37.2424 162.327 37.3844 162.55 37.567 162.563C38.1687 162.597 39.352 162.327 39.9268 162.083C40.0147 162.083 39.9741 162.218 39.9741 162.286Z" stroke="#6F7A58" stroke-width="0.85" stroke-linecap="round" stroke-linejoin="round"/>
<path d="M21.5149 166.237C21.4608 166.176 21.7989 165.553 21.8665 165.425C22.0558 165.066 22.6103 163.97 22.8267 163.747C23.0768 163.483 23.5704 163.51 23.5434 163.95C23.5231 164.255 22.4074 165.492 22.1234 165.79C22.0423 165.878 21.6163 166.352 21.5149 166.243V166.237Z" fill="#6F7A58" stroke="#6F7A58" stroke-width="0.85" stroke-linecap="round" stroke-linejoin="round"/>
<path d="M34.4769 164.836C34.5242 164.924 34.4904 165.032 34.4972 165.12C34.4498 165.168 33.4356 165.195 33.253 165.242C32.9352 165.323 32.1509 166.182 32.09 165.452C32.0292 164.721 33.3342 164.397 33.9224 164.532C33.9968 164.545 34.4634 164.809 34.4769 164.836Z" fill="#6F7A58" stroke="#6F7A58" stroke-width="0.85" stroke-linecap="round" stroke-linejoin="round"/>
<path d="M101.025 160.96L103.608 160.453C103.709 160.453 103.675 160.588 103.608 160.663C103.493 160.798 101.43 161.752 101.255 161.758C100.808 161.765 100.971 161.15 100.916 161.068L101.018 160.967L101.025 160.96Z" fill="#6F7A58" stroke="#6F7A58" stroke-width="0.85" stroke-linecap="round" stroke-linejoin="round"/>
<path d="M101.025 160.96L100.923 161.062C100.923 161.062 100.646 161.123 100.72 160.913C101.112 160.622 101.958 159.086 102.485 159.242C102.701 159.31 102.681 159.682 102.6 159.844C102.485 160.074 101.342 160.669 101.025 160.96Z" fill="#6F7A58" stroke="#6F7A58" stroke-width="0.85" stroke-linecap="round" stroke-linejoin="round"/>
<path d="M57.419 160.656C56.7564 160.94 56.2087 161.163 55.4582 161.068L55.2823 160.514C55.2959 160.399 57.4731 159.973 57.419 160.656Z" fill="#6F7A58" stroke="#6F7A58" stroke-width="0.85" stroke-linecap="round" stroke-linejoin="round"/>
<path d="M27.6004 164.512L27.3975 164.464C27.3705 164.227 27.8235 162.421 27.952 162.279C28.1481 162.07 28.6078 162.279 28.5943 162.516L27.5936 164.512H27.6004Z" fill="#6F7A58" stroke="#6F7A58" stroke-width="0.85" stroke-linecap="round" stroke-linejoin="round"/>
<path d="M41.8876 165.837C42.4218 166.203 41.0356 167.738 40.684 167.961C40.6975 167.562 41.3196 165.445 41.8876 165.837Z" fill="#6F7A58" stroke="#6F7A58" stroke-width="0.85" stroke-linecap="round" stroke-linejoin="round"/>
<path d="M33.6858 173.542C33.6182 172.954 33.5235 172.149 33.6993 171.58C33.7805 171.31 34.1321 171.364 34.2808 171.58C34.4837 171.865 34.0645 173.346 33.6791 173.549L33.6858 173.542Z" fill="#6F7A58" stroke="#6F7A58" stroke-width="0.85" stroke-linecap="round" stroke-linejoin="round"/>
<path d="M81.7337 162.705C81.8825 162.962 81.2063 163.686 81.0102 163.869C80.9291 163.943 80.4017 164.383 80.3341 164.309C80.307 163.964 81.0576 162.53 81.3145 162.496C81.3686 162.489 81.7202 162.685 81.7337 162.705Z" fill="#6F7A58" stroke="#6F7A58" stroke-width="0.85" stroke-linecap="round" stroke-linejoin="round"/>
<path d="M116.948 164.41C116.779 164.437 116.847 164.173 116.847 164.052C116.847 163.686 117.016 162.327 117.482 162.394C118.463 162.536 117.043 163.943 116.948 164.41Z" fill="#6F7A58" stroke="#6F7A58" stroke-width="0.85" stroke-linecap="round" stroke-linejoin="round"/>
<path d="M112.79 161.366C112.79 161.982 111.972 162.245 111.451 162.313C111.363 162.327 111.208 162.421 111.167 162.232C111.126 162.009 112.431 160.953 112.79 161.373V161.366Z" fill="#6F7A58" stroke="#6F7A58" stroke-width="0.85" stroke-linecap="round" stroke-linejoin="round"/>
<path d="M43.321 165.323C43.4968 164.992 43.7606 163.889 44.031 163.747C44.2677 163.625 44.4435 163.781 44.4976 164.004C44.5652 164.275 43.5577 165.547 43.321 165.323Z" fill="#6F7A58" stroke="#6F7A58" stroke-width="0.85" stroke-linecap="round" stroke-linejoin="round"/>
<path d="M53.8557 176.39V177.026C53.2742 177.608 53.4026 176.546 53.051 176.431C53.1186 176.248 53.6866 176.349 53.8557 176.39Z" fill="#6F7A58" stroke="#6F7A58" stroke-width="0.85" stroke-linecap="round" stroke-linejoin="round"/>
<path d="M43.3211 162.381L43.1318 161.738C43.8958 160.723 44.1054 162.124 43.3211 162.381Z" fill="#6F7A58" stroke="#6F7A58" stroke-width="0.85" stroke-linecap="round" stroke-linejoin="round"/>
<path d="M44.8019 161.474C44.9168 161.44 45.0385 161.461 45.1467 161.515C45.451 161.61 45.2819 162.212 45.0858 162.273C44.6734 162.401 44.4367 161.589 44.8019 161.474Z" fill="#6F7A58" stroke="#6F7A58" stroke-width="0.85" stroke-linecap="round" stroke-linejoin="round"/>
<path d="M64.5187 26.1977C64.8027 26.2519 64.9447 26.4548 65.1205 26.6645L64.9244 26.908C64.9447 26.5698 64.5457 26.6713 64.3226 26.5427C64.1265 26.4277 63.9507 26.191 63.8087 26.0963C64.0251 26.2586 64.3023 26.1572 64.5187 26.1977Z" fill="#6F7A58" stroke="#6F7A58" stroke-width="0.85" stroke-linecap="round" stroke-linejoin="round"/>
<path d="M18.5466 165.249C18.817 165.526 18.5128 165.959 18.1679 165.79C17.6473 165.526 18.2423 164.938 18.5466 165.249Z" fill="#6F7A58" stroke="#6F7A58" stroke-width="0.85" stroke-linecap="round" stroke-linejoin="round"/>
<path d="M22.9349 171.005L22.8334 170.904C23.0498 170.701 23.2459 170.336 23.5434 170.194C23.5772 170.451 23.3744 170.66 23.2256 170.843C23.1107 170.992 22.9484 170.992 22.9349 171.005Z" fill="#6F7A58" stroke="#6F7A58" stroke-width="0.85" stroke-linecap="round" stroke-linejoin="round"/>
<path d="M15.0238 168.266C15.0238 168.266 15.0035 168.354 14.9697 168.367H14.8209L14.9223 168.164C14.9291 168.191 15.0035 168.225 15.0238 168.266Z" fill="#6F7A58" stroke="#6F7A58" stroke-width="0.85" stroke-linecap="round" stroke-linejoin="round"/>
<path d="M16.4437 166.135L16.2408 166.236C16.2882 166.149 16.3761 166.162 16.4437 166.135Z" fill="#6F7A58" stroke="#6F7A58" stroke-width="0.85" stroke-linecap="round" stroke-linejoin="round"/>
<path d="M53.6663 161.772H53.5649V161.975H53.6663V161.772Z" fill="#6F7A58" stroke="#6F7A58" stroke-width="0.85" stroke-linecap="round" stroke-linejoin="round"/>
<path d="M26.0452 168.888C27.3772 168.455 25.653 170.884 25.3149 171.107C25.3487 170.742 25.7747 168.976 26.0452 168.888Z" fill="#6F7A58" stroke="#6F7A58" stroke-width="0.85" stroke-linecap="round" stroke-linejoin="round"/>
<path d="M69.6913 43.5555C68.5892 43.1767 68.6568 42.4529 69.6913 42.0335V43.5555Z" fill="#6F7A58" stroke="#6F7A58" stroke-width="0.85" stroke-linecap="round" stroke-linejoin="round"/>
<path d="M81.1996 21.0229C80.9832 21.0432 80.7871 21.3611 80.8412 20.82C81.5039 20.8403 82.153 20.6509 82.8224 20.7117C83.0928 20.7388 83.485 20.7658 83.4782 21.1244C83.3633 21.165 83.2483 21.0229 83.2281 21.0229C82.5925 21.0229 81.8081 20.962 81.1996 21.0229Z" fill="#6F7A58" stroke="#6F7A58" stroke-width="0.85" stroke-linecap="round" stroke-linejoin="round"/>
<path d="M69.7927 37.8733C69.7589 38.1574 69.928 38.6377 69.5899 38.7865C69.5155 38.4821 69.2924 37.9003 69.7927 37.8733Z" fill="#6F7A58" stroke="#6F7A58" stroke-width="0.85" stroke-linecap="round" stroke-linejoin="round"/>
<path d="M15.4295 167.353H15.328V167.556H15.4295V167.353Z" fill="#6F7A58" stroke="#6F7A58" stroke-width="0.85" stroke-linecap="round" stroke-linejoin="round"/>
<path d="M90.2737 147.769C90.037 147.769 89.7868 147.81 89.5569 147.722L89.4758 147.073C89.5163 147.005 90.9295 146.856 91.1324 146.863C91.7612 146.876 91.8897 148.094 91.3352 148.081C91.1324 148.081 91.0986 147.851 90.9836 147.769C90.7808 147.627 90.4562 147.573 90.2737 147.769Z" fill="#6F7A58" stroke="#6F7A58" stroke-width="0.85" stroke-linecap="round" stroke-linejoin="round"/>
<path d="M48.9062 112.648C49.0076 112.52 49.1293 112.499 49.2645 112.587C49.3118 112.614 49.4336 112.695 49.6432 112.824C52.4289 114.508 54.3628 115.942 55.4514 117.126C56.3033 118.033 56.7226 118.831 56.6955 119.528C56.6617 120.556 55.8774 121.036 54.356 120.989C51.8204 120.901 48.5951 119.988 44.6666 118.249C46.7763 119.541 48.5951 120.718 50.1368 121.78C51.3133 122.612 52.3275 123.39 53.1727 124.1C55.3229 125.9 56.3845 127.327 56.3439 128.376C56.3304 128.856 56.1343 129.221 55.7692 129.471C55.4041 129.728 54.8902 129.843 54.2343 129.816C53.5649 129.796 52.7738 129.674 51.861 129.465C50.9549 129.255 49.8866 128.937 48.6627 128.504C47.4389 128.071 46.4314 127.706 45.6403 127.401C44.8492 127.104 43.7606 126.671 42.3744 126.116C41.1709 125.622 40.2581 125.257 39.6427 125.014C39.0274 124.777 38.3513 124.533 37.6143 124.297C36.884 124.06 36.3634 123.938 36.0591 123.925C35.9104 123.925 35.8089 123.938 35.7751 123.979C35.7345 124.019 35.7143 124.087 35.7075 124.182C35.7008 124.466 35.8089 124.845 36.0321 125.304L36.0523 125.325V125.345C36.3363 125.873 36.8773 126.752 37.6548 127.963C38.189 128.815 38.5947 129.465 38.8584 129.911C39.1221 130.358 39.3858 130.865 39.6427 131.426C39.8997 131.988 40.0214 132.421 40.0079 132.718C39.9876 133.28 39.8118 133.747 39.467 134.125C39.1289 134.504 38.6758 134.714 38.1282 134.768C37.9591 134.775 37.8645 134.707 37.8509 134.552C37.8306 134.403 37.905 134.315 38.0741 134.295C38.2093 134.288 38.3445 134.261 38.4662 134.213C38.5879 134.173 38.7029 134.119 38.8043 134.051C38.9057 133.983 39.0004 133.902 39.0883 133.807C39.1762 133.706 39.2506 133.605 39.3047 133.496C39.3588 133.388 39.4061 133.266 39.4399 133.131C39.4737 132.996 39.494 132.854 39.5008 132.705C39.5075 132.448 39.3791 132.035 39.1086 131.48C38.8381 130.926 38.5744 130.432 38.3107 130.006C38.0538 129.58 37.6751 128.978 37.1815 128.193C36.3972 126.948 35.8563 126.062 35.552 125.528V125.507V125.487C35.1057 124.662 34.8894 124.053 34.9029 123.661C34.9096 123.444 34.9637 123.255 35.0584 123.093C35.153 122.93 35.2883 122.808 35.4573 122.727C35.6264 122.646 35.8292 122.605 36.0591 122.612C36.3972 122.626 36.9787 122.754 37.8104 123.005C38.642 123.255 39.4196 123.512 40.1431 123.776C40.8666 124.04 41.9552 124.445 43.4022 124.987C45.3022 125.683 46.7695 126.218 47.804 126.583C48.8385 126.948 50.0353 127.341 51.3944 127.733C52.7535 128.132 53.7745 128.342 54.4439 128.362C54.64 128.369 54.809 128.362 54.951 128.328C55.093 128.301 55.1809 128.254 55.235 128.193C55.2823 128.132 55.3162 128.078 55.3297 128.031C55.35 127.983 55.3567 127.929 55.3567 127.855C55.3703 127.429 55.0795 126.867 54.4845 126.17C53.8895 125.474 53.3282 124.885 52.7941 124.418L52.7738 124.398C52.0773 123.816 51.2457 123.174 50.272 122.484C49.3051 121.794 48.4058 121.178 47.5741 120.637C46.7424 120.096 45.762 119.473 44.6261 118.777C43.4901 118.08 42.6246 117.559 42.0364 117.207C41.4481 116.856 40.684 116.416 39.7577 115.875C38.8719 115.367 38.2904 115.022 38.0065 114.847C37.7089 114.684 37.5534 114.515 37.5399 114.339C37.5399 114.204 37.6278 114.096 37.7833 114.021C37.9523 113.933 38.1822 113.886 38.4662 113.879C38.7502 113.879 38.9666 113.92 39.1153 114.001C45.9243 117.674 51.1037 119.568 54.6603 119.69C55.2688 119.71 55.6475 119.589 55.7962 119.318C55.9112 119.129 55.8977 118.858 55.7557 118.506C55.6137 118.154 55.377 117.776 55.0389 117.383C53.9368 116.206 52.0368 114.813 49.3389 113.183C49.1293 113.054 49.0008 112.973 48.9602 112.946C48.8115 112.844 48.7912 112.729 48.8926 112.608L48.9062 112.648Z" fill="#6F7A58" stroke="#6F7A58" stroke-width="0.85" stroke-miterlimit="10"/>
<path d="M49.2105 104.889C49.366 104.815 49.4877 104.842 49.5756 104.984C49.819 105.39 50.3194 106.58 51.0767 108.562C51.6379 110.057 52.0706 111.167 52.3816 111.89C52.8685 111.85 53.308 111.843 53.6866 111.857C54.2817 111.877 54.8023 112.012 55.2418 112.269C55.6813 112.526 56.0059 112.844 56.2155 113.237C56.4251 113.629 56.5671 114.015 56.655 114.393C56.7429 114.772 56.7767 115.144 56.7632 115.516C56.7496 115.854 56.6888 116.145 56.5874 116.382C56.4792 116.619 56.3237 116.795 56.1073 116.91C55.8977 117.025 55.6543 117.079 55.377 117.072C54.9037 117.059 54.4169 116.714 53.9233 116.037C53.4297 115.361 52.8955 114.393 52.3276 113.128C52.1585 113.135 51.888 113.162 51.5229 113.203C50.6507 113.311 50.0354 113.358 49.6838 113.345C49.1023 113.325 48.6222 113.095 48.2435 112.648C47.8581 112.202 47.6823 111.728 47.6959 111.221C47.7161 110.7 47.9798 110.328 48.4937 110.098C48.5072 110.084 48.5208 110.078 48.5411 110.078H48.5613H48.5816C48.5816 110.064 48.5884 110.057 48.6019 110.057C48.6154 110.057 48.629 110.057 48.6357 110.071C48.6425 110.078 48.656 110.084 48.6695 110.084C48.683 110.084 48.7033 110.084 48.7169 110.084C48.7304 110.098 48.7439 110.111 48.7642 110.125H48.7845C48.7845 110.125 48.8115 110.152 48.8183 110.166C48.825 110.179 48.8318 110.193 48.8386 110.199C48.8453 110.206 48.8521 110.22 48.8521 110.233V110.253C48.8521 110.253 48.8724 110.301 48.8724 110.314C48.8724 110.328 48.8656 110.348 48.8453 110.375C48.8453 110.402 48.8386 110.423 48.8183 110.436L48.7912 110.456C48.7912 110.456 48.7845 110.477 48.7709 110.477C48.5343 110.673 48.5005 110.971 48.6695 111.376C48.7507 111.573 48.8791 111.742 49.0549 111.884C49.224 112.026 49.4268 112.1 49.6567 112.107C49.9745 112.12 50.529 112.08 51.3133 111.999C51.5432 111.978 51.7122 111.965 51.8204 111.958C51.4959 111.167 51.0767 110.084 50.556 108.711C49.8122 106.743 49.3254 105.572 49.0955 105.194C49.0076 105.065 49.0414 104.964 49.1969 104.889H49.2105ZM56.2628 115.496C56.2696 115.212 56.1952 114.887 56.0194 114.535C55.8503 114.184 55.5529 113.852 55.1269 113.548C54.7009 113.243 54.1938 113.081 53.5987 113.061C53.3824 113.054 53.139 113.061 52.8617 113.074C53.0037 113.365 53.139 113.649 53.2674 113.927C54.1397 115.679 54.8496 116.565 55.3973 116.585C55.945 116.605 56.2358 116.24 56.2628 115.489V115.496Z" fill="#6F7A58" stroke="#6F7A58" stroke-width="0.85" stroke-miterlimit="10"/>
<path d="M39.4602 93.1866C39.4602 93.1866 39.5075 93.1866 39.5143 93.1866C39.521 93.1866 39.5413 93.1866 39.5684 93.1866C39.5819 93.1866 39.6022 93.1866 39.6157 93.1866C40.1161 93.234 40.6435 93.3693 41.1844 93.5925C41.7253 93.8157 42.2527 94.1201 42.7666 94.5125C43.2805 94.8981 43.7538 95.3513 44.2001 95.8789C45.8161 97.7527 46.6004 100.012 46.5531 102.65C48.1691 103.584 49.8798 104.375 51.6919 105.025C50.015 103.983 49.1969 102.934 49.2307 101.879C49.2375 101.649 49.2848 101.439 49.3659 101.257C49.4471 101.074 49.5823 100.925 49.7581 100.797C49.9407 100.675 50.1029 100.573 50.2585 100.499C50.414 100.425 50.6304 100.364 50.9211 100.316C51.2051 100.269 51.4282 100.242 51.5905 100.228C51.7528 100.215 51.9827 100.188 52.2937 100.161C53.0172 100.107 53.5311 100.026 53.8354 99.9241C54.1464 99.8226 54.3019 99.6467 54.3154 99.3897C54.3357 98.8282 54.072 98.2532 53.5243 97.658H53.504C52.9158 97.0492 51.9083 96.3051 50.4884 95.4189C50.0421 95.1416 49.7311 94.9522 49.5688 94.8507C49.4336 94.7492 49.42 94.641 49.535 94.5193C49.6432 94.3975 49.7716 94.384 49.9001 94.4719C50.0353 94.5734 50.3261 94.7628 50.7724 95.0333C52.0909 95.8451 53.051 96.5351 53.6595 97.1033L53.6798 97.1236C53.7813 97.2251 53.8827 97.313 53.9706 97.4009C54.782 98.2465 55.1742 99.0921 55.1471 99.9241C55.1403 100.195 55.066 100.431 54.9375 100.628C54.809 100.824 54.6603 100.973 54.498 101.074C54.3357 101.176 54.1058 101.263 53.8151 101.338C53.5243 101.412 53.2877 101.46 53.1119 101.48C52.9361 101.5 52.6791 101.521 52.341 101.534C51.9421 101.561 51.6378 101.588 51.435 101.615C51.2254 101.642 51.0158 101.69 50.7994 101.757C50.583 101.825 50.4343 101.92 50.3396 102.041C50.2517 102.163 50.2044 102.325 50.1976 102.528C50.1773 103.171 50.7791 103.881 52.0029 104.666C52.03 104.68 52.057 104.693 52.0706 104.707C52.1179 104.72 52.1382 104.734 52.1382 104.747C52.8549 105.18 53.6596 105.572 54.5521 105.917C54.5859 105.917 54.6265 105.924 54.6873 105.944C54.7008 105.958 54.7144 105.965 54.7346 105.965C55.1741 106.073 55.3905 106.256 55.377 106.499C55.377 106.526 55.3702 106.56 55.35 106.601C55.3161 106.763 55.1674 106.892 54.9105 106.986C54.6535 107.081 54.4101 107.101 54.187 107.054C52.0976 106.601 50.0421 105.904 48.0407 104.964C46.0325 104.023 44.2001 102.907 42.53 101.602C41.0424 100.431 39.8794 99.2476 39.0342 98.0638C38.189 96.8801 37.7833 95.8518 37.8103 94.9725C37.8171 94.6748 37.8644 94.4043 37.9388 94.1743C38.0132 93.9443 38.1079 93.7684 38.2228 93.6399C38.3378 93.5113 38.4662 93.4166 38.6218 93.349C38.7773 93.2813 38.9193 93.234 39.0477 93.2069C39.1762 93.1866 39.3114 93.1731 39.4467 93.1799L39.4602 93.1866ZM46.046 102.339C46.0325 101.351 45.8905 100.404 45.6065 99.4912C45.3225 98.578 44.9574 97.7797 44.4976 97.1033C44.0378 96.4268 43.5307 95.8248 42.9695 95.3039C42.4082 94.7831 41.8267 94.3907 41.2317 94.1134C40.6367 93.8428 40.0687 93.6872 39.5143 93.6534C38.9531 93.6534 38.6623 93.8428 38.6488 94.2419C38.6353 94.7222 38.7975 95.2769 39.1424 95.9195C39.4872 96.5621 39.9808 97.2454 40.6299 97.9692C41.2791 98.6997 42.0363 99.4167 42.9154 100.134C43.8687 100.918 44.91 101.656 46.046 102.332V102.339Z" fill="#6F7A58" stroke="#6F7A58" stroke-width="0.85" stroke-miterlimit="10"/>
<path d="M48.8317 88.5665C48.994 88.3568 49.2307 88.3365 49.5417 88.5124C49.5891 88.5394 49.7108 88.6138 49.9204 88.7288C52.4222 90.2373 54.4168 91.022 55.9111 91.0693C56.4588 91.0896 56.8916 90.9814 57.2094 90.7446C57.304 90.6905 57.3987 90.6905 57.4934 90.7311C57.588 90.7785 57.6354 90.8461 57.6354 90.9408C57.6354 91.0896 57.6083 91.2384 57.561 91.3805C57.5204 91.5226 57.4325 91.6782 57.3041 91.854C57.1756 92.0299 56.9727 92.1652 56.6955 92.2734C56.4183 92.3817 56.0802 92.429 55.6813 92.4155C54.7076 92.3816 53.6934 92.1787 52.6521 91.7999C53.5176 92.5034 54.1734 93.119 54.64 93.6534C55.0998 94.1878 55.3229 94.7019 55.3094 95.1957C55.2756 96.1089 54.6197 96.5486 53.3417 96.5012C52.7602 96.4809 52.1179 96.3186 51.4079 96.021C50.698 95.7233 50.0894 95.4054 49.5823 95.0739C49.4471 94.986 49.3727 94.871 49.3524 94.7289C49.3321 94.5869 49.3727 94.4516 49.4673 94.3298C49.5823 94.181 49.7378 94.0863 49.9339 94.0457C50.1367 94.0051 50.3802 94.0457 50.6642 94.181C51.8001 94.8236 52.767 95.1551 53.5649 95.1822C54.1599 95.2024 54.4642 95.0739 54.4709 94.8033C54.4845 94.4381 54.2005 93.924 53.6325 93.2746H53.6122C53.2741 92.9499 52.7062 92.4628 51.9218 91.8202C51.5364 91.4955 51.2321 91.2385 51.009 91.049C50.4816 90.7852 49.8933 90.4335 49.2374 90.0005L49.2172 89.9802C49.0414 89.8653 48.8994 89.642 48.7912 89.3173C48.6898 88.9926 48.7033 88.7356 48.8317 88.5462V88.5665Z" fill="#6F7A58" stroke="#6F7A58" stroke-width="0.85" stroke-miterlimit="10"/>
<path d="M50.1976 75.2404C50.299 75.1119 50.4207 75.0984 50.556 75.1998C51.604 75.8627 52.4898 76.5257 53.2268 77.1818C53.9638 77.838 54.498 78.44 54.8496 78.9947C55.1944 79.5494 55.4446 80.0432 55.5866 80.4761C55.7286 80.9091 55.7962 81.3285 55.7827 81.7276C55.7557 82.5867 55.0998 82.9993 53.8151 82.9519C53.6798 82.9519 53.5378 82.9452 53.4026 82.9384C53.9706 83.3308 54.4439 83.7366 54.8293 84.156C54.8767 84.1966 54.9105 84.2507 54.951 84.3049C54.9848 84.359 55.0186 84.3996 55.0524 84.4131C55.4649 84.961 55.661 85.4819 55.6407 85.9757C55.6407 86.1516 55.6001 86.3207 55.5393 86.483C55.4784 86.6454 55.377 86.8145 55.235 86.9836C55.093 87.1595 54.8699 87.2948 54.5656 87.3895C54.2613 87.4909 53.903 87.5315 53.4702 87.518C52.7535 87.4909 52.0165 87.288 51.2592 86.9092C50.5019 86.5304 49.8663 86.0298 49.3659 85.4075C48.8588 84.7851 48.6222 84.1628 48.6424 83.5337C48.6695 82.8234 49.0346 82.2349 49.7378 81.7682C49.6499 81.714 49.5688 81.6599 49.4944 81.6126C49.393 81.5382 49.2848 81.4164 49.1834 81.2405C49.082 81.0647 49.0211 80.8888 49.0076 80.7129C48.994 80.537 49.0143 80.3814 49.082 80.2461C49.2442 80.0364 49.4876 80.0229 49.819 80.2123C51.4215 81.1052 52.8414 81.572 54.0788 81.6126C54.4439 81.6261 54.7008 81.5923 54.8361 81.5043C54.9781 81.4232 55.0524 81.2608 55.0592 81.0308C55.0727 80.5776 54.8902 80.0297 54.498 79.3668L54.4777 79.3465C53.6798 78.1153 52.2802 76.8639 50.2788 75.5922C50.13 75.4907 50.1097 75.3757 50.2111 75.2539L50.1976 75.2404ZM51.9894 82.6814C51.3674 82.5258 50.7791 82.3026 50.2247 82.0252C49.988 82.2079 49.8663 82.4784 49.8528 82.8302C49.8257 83.5946 50.2449 84.3522 51.1037 85.1098C51.9624 85.8675 52.9496 86.2598 54.0653 86.3004C54.4033 86.3139 54.6332 86.2666 54.7617 86.1719C54.8834 86.0704 54.951 85.9216 54.9578 85.7186C54.9713 85.4075 54.8902 85.1098 54.7144 84.8257V84.8054C54.4101 84.386 53.9976 83.9801 53.477 83.581C52.9564 83.1887 52.4628 82.8843 51.9962 82.6814H51.9894Z" fill="#6F7A58" stroke="#6F7A58" stroke-width="0.85" stroke-miterlimit="10"/>
<path d="M48.5681 73.8199C48.5681 73.9552 48.5207 74.0837 48.4396 74.1919C48.3585 74.3002 48.2503 74.3949 48.1218 74.4557C47.9866 74.5166 47.8446 74.5504 47.6958 74.5437C47.4524 74.5369 47.2496 74.4557 47.1008 74.3001C46.9453 74.1446 46.8709 73.9619 46.8777 73.7522C46.8844 73.5425 46.9723 73.3666 47.1346 73.2246C47.2969 73.0893 47.4997 73.0217 47.7364 73.0284C47.9731 73.0352 48.1759 73.1164 48.3382 73.2652C48.5005 73.414 48.5816 73.5966 48.5681 73.8199ZM50.414 69.0983C50.5154 68.9697 50.6371 68.9494 50.7724 69.0374C51.8204 69.7003 52.7062 70.3632 53.4432 71.0194C54.1802 71.6755 54.7144 72.2776 55.066 72.8323C55.4176 73.3869 55.661 73.8808 55.803 74.3137C55.945 74.7534 56.0126 75.166 55.9991 75.5651C55.972 76.4377 55.3094 76.8571 54.0314 76.8098C53.2201 76.7827 52.429 76.6339 51.6379 76.3701C50.8535 76.1063 50.2044 75.7951 49.6973 75.4501C49.5147 75.3487 49.3727 75.1389 49.2713 74.821C49.1699 74.5031 49.1699 74.2663 49.2848 74.104C49.4471 73.8943 49.6905 73.874 50.0218 74.0499C51.6243 74.9563 53.0443 75.4298 54.2816 75.4704C54.6468 75.4839 54.9037 75.4501 55.0389 75.3622C55.1809 75.281 55.2553 75.1119 55.2621 74.8684C55.2756 74.4287 55.093 73.8875 54.7009 73.2246C54.7009 73.2111 54.7009 73.1975 54.6806 73.184C53.8827 71.9529 52.483 70.7014 50.4816 69.4297C50.3329 69.3418 50.3058 69.2335 50.414 69.1118V69.0983Z" fill="#6F7A58" stroke="#6F7A58" stroke-width="0.85" stroke-miterlimit="10"/>
<path d="M50.7724 58.7418C50.8738 58.6133 50.9955 58.5997 51.1307 58.7012C52.1788 59.3641 53.0645 60.027 53.8015 60.6832C54.5386 61.3394 55.0727 61.9414 55.4243 62.4961C55.7759 63.0508 56.0194 63.5446 56.1614 63.9775C56.3034 64.4104 56.371 64.8298 56.3574 65.2289C56.3304 66.088 55.6745 66.5007 54.3898 66.4533C54.2546 66.4533 54.1126 66.4466 53.9774 66.4398C54.5453 66.8321 55.0186 67.238 55.404 67.6574C55.4514 67.698 55.4852 67.7521 55.5258 67.8062C55.5596 67.8603 55.5934 67.9009 55.6272 67.9145C56.0329 68.4624 56.229 68.9832 56.2154 69.4771C56.2154 69.6529 56.1749 69.822 56.114 69.9844C56.0532 70.1467 55.9517 70.3158 55.8097 70.485C55.6677 70.6608 55.4446 70.7961 55.1403 70.8908C54.8361 70.9923 54.4777 71.0329 54.045 71.0194C53.3282 70.9923 52.5912 70.7894 51.8339 70.4106C51.0766 70.0317 50.441 69.5312 49.9407 68.9088C49.4336 68.2865 49.1901 67.6642 49.2172 67.0351C49.2442 66.3248 49.6093 65.7363 50.3126 65.2695C50.2247 65.2154 50.1435 65.1613 50.0691 65.114C49.9677 65.0395 49.8595 64.9178 49.7581 64.7419C49.6567 64.566 49.5958 64.3902 49.5823 64.2143C49.562 64.0384 49.5891 63.8828 49.6567 63.7475C49.819 63.5378 50.0624 63.5243 50.3937 63.7137C51.9962 64.6066 53.4161 65.0734 54.6535 65.114C55.0186 65.1275 55.2756 65.0937 55.4108 65.0057C55.546 64.9178 55.6272 64.7622 55.634 64.5322C55.6475 64.079 55.4649 63.5311 55.0727 62.8681L55.0524 62.8478C54.2546 61.6167 52.8549 60.3653 50.8535 59.0935C50.7047 58.9921 50.6845 58.8771 50.7859 58.7553L50.7724 58.7418ZM52.5642 66.1827C51.9421 66.0272 51.3538 65.8039 50.7994 65.5266C50.5627 65.7092 50.441 65.9798 50.4275 66.3316C50.4005 67.0959 50.8197 67.8536 51.6784 68.6112C52.5371 69.3688 53.5243 69.7612 54.64 69.8018C54.9781 69.8153 55.208 69.7679 55.3297 69.6732C55.4514 69.5718 55.519 69.4229 55.5258 69.22C55.5393 68.9088 55.4581 68.6112 55.2823 68.3271V68.3068C54.9781 67.8874 54.5656 67.4815 54.045 67.0824C53.5243 66.6901 53.0307 66.3857 52.5642 66.1827Z" fill="#6F7A58" stroke="#6F7A58" stroke-width="0.85" stroke-miterlimit="10"/>
</svg>
