<svg width="48" height="23" viewBox="0 0 48 23" fill="none" xmlns="http://www.w3.org/2000/svg">
<path d="M10.3578 0.730443C10.3578 0.730443 10.6824 0.710163 10.7229 0.723692C10.7567 0.730457 10.7229 0.811614 10.7905 0.791321L10.8108 0.723692L10.8649 0.791321C10.9393 0.798085 11.0137 0.777792 11.088 0.791321C11.345 0.838672 11.6425 0.913088 11.8589 0.987497C12.0279 1.04838 12.2105 1.0078 12.3795 1.06192C12.3998 1.06192 12.3931 1.1228 12.4133 1.1228C13.0963 1.18368 13.813 1.36631 14.5094 1.47454C14.6785 1.5016 14.9084 1.49483 15.0639 1.53542C15.1383 1.55571 15.1247 1.62336 15.145 1.62336C15.1856 1.62336 15.2126 1.57602 15.2397 1.56926C15.3614 1.56249 15.4561 1.63013 15.544 1.64365C15.6386 1.65718 15.8009 1.59631 15.8347 1.71808L15.8482 1.65043H15.9158V1.70453C16.1593 1.74512 16.4027 1.75188 16.6596 1.806C16.9706 1.86688 17.2546 1.94806 17.5724 2.00894C17.7144 2.036 17.8902 2.03601 18.0255 2.07659C18.0525 2.08336 18.0525 2.11716 18.0457 2.14422L18.0931 2.07659C18.2621 2.24571 18.8504 2.30657 18.9586 2.48245C18.9789 2.5095 18.9653 2.56364 18.9856 2.60422C19.0532 2.73275 19.1006 2.59069 19.1344 2.62452L19.1682 2.7395L19.2966 2.70569C19.3237 2.74627 19.3575 2.91538 19.371 2.92891C19.3913 2.9492 19.4522 2.92891 19.4657 2.92891C19.4657 2.92891 19.4319 2.98302 19.4386 3.01008C19.4454 3.05066 19.513 3.04392 19.5265 3.09127C19.5941 3.22656 19.5468 3.54449 19.5604 3.70684C19.6483 5.02592 19.7294 6.35176 19.7902 7.6776H19.6618L19.7902 7.71142C19.7632 7.74524 19.7902 7.86024 19.7835 7.86701C19.7767 7.87377 19.6821 7.86701 19.7294 7.93466C19.7362 7.94818 19.8037 7.91435 19.824 8.09023C19.939 9.04402 19.9052 10.0316 19.9593 10.9854C20.0336 12.3113 20.2297 13.7521 20.223 15.0712C20.223 15.3012 20.1892 15.2877 20.1148 15.4635C19.8849 15.9641 19.7632 16.1129 19.3778 16.4512C19.3169 16.5053 19.3034 16.627 19.1682 16.6067L19.202 16.6676C19.087 16.6676 19.0329 16.7623 18.9518 16.83C18.6881 17.0261 18.5529 17.1614 18.2486 17.3441C18.2148 17.3644 18.2486 17.4185 18.2215 17.4455C18.1472 17.52 17.8091 17.8176 17.7076 17.892C17.6468 17.9393 17.5183 17.9461 17.498 17.9664C17.4845 17.9799 17.4981 18.034 17.4845 18.0476C17.4643 18.0679 17.4102 18.0476 17.3899 18.0746C17.3696 18.1085 17.3899 18.1761 17.3493 18.2099C17.329 18.2302 17.2749 18.2302 17.2479 18.2505C17.1802 18.3182 17.1397 18.4264 17.0315 18.3858C17.0382 18.5279 16.9436 18.4873 16.9369 18.494C16.6799 18.7646 16.4297 18.9608 16.1728 19.1908C15.6319 19.6778 15.0639 20.2731 14.4418 20.6857C14.3674 20.7331 14.266 20.6857 14.2998 20.821L14.1984 20.7534C14.2119 20.8751 13.9685 21.0037 13.8671 21.0645C13.698 21.1525 13.6372 21.1931 13.4681 21.2946C13.2788 21.4095 13.0692 21.4501 12.8731 21.5245C12.7649 21.5651 12.7176 21.6869 12.5485 21.5786C12.508 21.856 12.3795 21.6463 12.366 21.6463C12.3187 21.6463 12.2578 21.6869 12.2037 21.6869C12.1158 21.6869 12.0482 21.5854 11.9265 21.6531L11.9603 21.5516L11.7642 21.6463L11.6966 21.5178L11.798 21.5042C11.7507 21.4569 11.7101 21.4163 11.6425 21.396C11.3315 21.3081 10.9055 21.3013 10.5809 21.2404C8.91757 20.9293 7.2745 20.5369 5.58409 20.2663C4.52252 20.0972 3.26488 20.0161 2.2574 19.5764C2.0816 19.502 1.94638 19.4884 1.81115 19.4343C1.7503 19.414 1.34458 19.2246 1.33106 19.2043C1.31754 19.184 1.35135 19.1434 1.33783 19.1096C1.31754 19.0623 1.20258 18.9405 1.19582 18.927C1.19582 18.8864 1.23638 18.7443 1.22285 18.697C1.21609 18.6631 1.12144 18.697 1.19582 18.5955L1.12822 18.609C1.17555 18.4873 1.14851 18.4399 1.09442 18.3317L1.16202 18.2979C1.06736 18.1355 1.10792 17.9529 1.06735 17.7702C1.05383 17.7161 1.01328 17.7229 1.00652 17.7026C0.986232 17.6214 1.05381 17.5267 1.05381 17.4794C1.05381 17.2629 0.87805 16.9382 1.09442 16.7961H0.965949C0.965949 16.7217 0.905076 16.627 0.905076 16.5729C0.905076 16.5256 0.959174 16.4985 0.952413 16.4512C0.938889 16.0453 0.857735 15.5921 0.810404 15.193C0.803643 15.1321 0.884777 15.0306 0.763068 15.0441L0.830709 14.963L0.796909 14.4691L0.729268 14.415L0.796909 14.3947C0.729293 14.2053 0.796911 13.8401 0.756341 13.6709C0.756341 13.6506 0.695468 13.6574 0.695468 13.6371C0.695468 13.5898 0.749553 13.5221 0.729268 13.4477L0.661669 13.4071L0.763068 13.3395L0.668437 13.2042L0.736036 13.1433C0.607566 12.9539 0.715743 12.751 0.600796 12.5819C0.70222 12.5616 0.708982 12.318 0.600796 12.2842C0.708982 12.2031 0.621094 12.0813 0.614332 11.9798C0.594048 11.6484 0.566983 11.3101 0.55346 10.9787C0.55346 10.911 0.648152 10.8163 0.499397 10.7622L0.560228 10.7351C0.52642 10.3902 0.492622 10.0316 0.48586 9.67989C0.48586 9.55136 0.52643 8.96284 0.48586 8.90873C0.472337 8.8952 0.424988 8.91549 0.424988 8.88843L0.492629 8.84785C0.506152 8.31345 0.70224 7.71818 0.959181 7.24466C1.51363 6.22999 3.18373 5.08679 4.15064 4.37652C5.42182 3.43625 6.70655 2.55686 8.02506 1.66395C8.43752 1.3866 9.02574 0.87926 9.50582 0.771028C9.71543 0.723677 10.1211 0.656031 10.2902 0.791321C10.3172 0.791321 10.324 0.710164 10.3443 0.7034L10.3578 0.730443ZM10.946 1.67072V1.57601C10.7973 1.75865 10.8514 1.67747 10.7297 1.65718C10.5945 1.64365 10.3105 1.63689 10.1752 1.64365C10.013 1.64365 9.85069 1.75189 9.7087 1.67072L9.72896 1.73837C9.62077 1.69778 9.6005 1.78572 9.57346 1.79925C8.36989 2.31335 7.55847 3.15213 6.46309 3.83535C6.41576 3.86241 6.27378 3.83536 6.30759 3.97742C6.17236 3.90977 6.22646 3.99094 6.18589 4.01123C5.84105 4.19387 5.51651 4.49828 5.19195 4.73504C4.32647 5.3709 3.35279 6.01352 2.60901 6.73733C2.54816 6.79144 2.43997 6.82527 2.39264 6.87262C2.03427 7.20408 1.46631 7.86023 1.4325 8.34051C1.4325 8.3608 1.37162 8.35404 1.36486 8.38109C1.27696 8.73285 1.29723 9.27402 1.31076 9.6393C1.31076 9.91665 1.35134 10.2075 1.36486 10.4849L1.30403 10.5187C1.37165 10.5593 1.40542 10.8569 1.39189 10.911C1.39189 10.9449 1.32431 10.9787 1.33783 10.999C1.33783 10.999 1.39867 10.9922 1.40543 11.0193C1.41895 11.0801 1.446 11.4522 1.45276 11.5536C1.46629 11.7431 1.45275 12.0407 1.43923 12.2301L1.50687 12.2639C1.41221 12.4128 1.52714 12.4466 1.5339 12.4601C1.55419 12.5277 1.47307 12.6495 1.47307 12.6901C1.47307 12.7104 1.52714 12.7036 1.5339 12.7239C1.56771 12.8727 1.50011 13.096 1.50687 13.2177C1.50687 13.238 1.57447 13.2177 1.57447 13.2854C1.60828 13.84 1.60829 14.3947 1.66914 14.9021C1.78409 15.9506 1.76379 16.9923 1.94635 18.0476C1.95311 18.0949 1.99369 18.1085 2.00045 18.1287C2.00721 18.149 1.87197 18.1626 1.89901 18.2438H2.02748C2.0072 18.4805 2.10863 18.5279 2.28443 18.6293C2.48052 18.7376 2.83212 18.8931 3.04172 18.954C3.09582 18.9675 3.21753 18.8999 3.21753 19.0352L3.28517 18.9676L3.29867 19.0284H3.58269L3.54885 19.0961C3.57589 19.1164 3.96806 19.1096 4.05597 19.1299C4.38052 19.2111 4.76595 19.2517 5.13108 19.3058C6.76063 19.5561 8.41044 19.9146 10.0129 20.219C10.0535 20.2257 10.2361 20.2934 10.2023 20.3408H10.2361C10.2631 20.1649 10.3443 20.3408 10.351 20.3408C10.3848 20.3408 10.4254 20.3069 10.4795 20.3069C10.6756 20.3272 10.8514 20.4084 11.0407 20.4016L11.061 20.5031C11.1151 20.5166 11.0745 20.449 11.1151 20.4354C11.1962 20.4152 11.798 20.5166 11.9265 20.5437C12.1226 20.5843 12.2916 20.6519 12.4607 20.7331C12.481 20.7331 12.4809 20.6857 12.4877 20.679C12.677 20.6046 12.9001 20.5504 13.0219 20.4354L13.103 20.4693C13.0692 20.3543 13.2991 20.2596 13.4005 20.3069C13.3735 20.1784 13.4411 20.2257 13.4884 20.1987C13.5087 20.1852 13.5019 20.1513 13.5019 20.1446C13.6101 20.0702 13.4817 20.246 13.5966 20.2055L13.6642 20.104L13.6778 20.1716C13.7183 20.0837 13.7589 20.0702 13.8468 20.0431L13.8265 19.9416C13.8806 19.9416 14.0564 19.9011 14.0834 19.8672C14.0834 19.8672 14.0699 19.8199 14.0834 19.8064C14.1646 19.7184 14.3066 19.6372 14.3607 19.5425L14.4283 19.6102C14.3945 19.4749 14.4891 19.529 14.5162 19.5019C14.5973 19.4208 14.6379 19.2855 14.7867 19.2787L14.7596 19.2246C14.8204 19.1434 14.9827 19.1367 15.0165 19.1164C15.0165 19.1164 14.9895 19.069 15.0165 19.0352C15.1518 18.8661 15.5643 18.6767 15.6724 18.5481C15.6995 18.5143 15.6859 18.4264 15.7197 18.3993C15.7468 18.3723 15.9158 18.352 15.9361 18.3182C15.9632 18.2708 15.9632 18.1491 16.0781 18.0814C16.1931 18.0138 16.1255 18.0949 16.2201 17.9799C16.3013 17.8785 16.3688 17.8988 16.4365 17.8514C16.6123 17.7161 16.7678 17.3441 17.0315 17.3441L17.0045 17.2832C17.0991 17.2358 17.0991 17.1411 17.2276 17.1749L17.1938 17.1073C17.3696 17.1411 17.302 17.0667 17.3425 17.0126C17.3696 16.9788 17.4237 16.9856 17.4507 16.972C17.4845 16.945 17.755 16.6406 17.7955 16.5932C17.8699 16.512 18.1336 16.4309 18.1742 16.3767C18.1877 16.3564 18.1742 16.3091 18.2013 16.2821C18.2283 16.255 18.3568 16.2347 18.3703 16.2144C18.3906 16.1873 18.3636 16.1197 18.3771 16.0926C18.3906 16.0724 18.4717 16.0724 18.5123 16.0521C18.5528 16.025 18.7557 15.8829 18.7895 15.8559C18.8504 15.8018 18.8504 15.6529 19.0329 15.6529L18.9991 15.5582L19.4251 15.3891L19.398 15.078L19.4589 15.0509C19.3102 14.9224 19.4116 14.8818 19.4116 14.8006C19.4116 13.9348 19.2628 12.9404 19.2087 12.0475C19.1885 11.6687 19.2087 11.3101 19.1614 10.9651C19.1479 10.8569 19.1546 10.7216 19.1479 10.6066C19.1479 10.5254 19.0667 10.5119 19.1952 10.3902L19.0938 10.3428L19.1614 10.2413C19.0194 10.1737 19.1614 9.92341 19.06 9.78135L19.1276 9.74754C19.0329 9.52431 19.0532 9.24695 19.0397 9.01696C19.0194 8.61109 19.0194 8.20523 18.9924 7.80613C18.9856 7.67084 18.8774 7.61672 19.0194 7.50849C18.8706 7.36643 18.9653 7.33936 18.9653 7.17701C18.9653 7.09584 18.9247 6.98761 18.8977 6.90644L18.9586 6.87937C18.8707 6.54791 18.9045 6.15558 18.8774 5.81059C18.8707 5.6956 18.7557 5.44532 18.8909 5.39797C18.8098 5.30326 18.7692 4.92443 18.7895 4.80944C18.7895 4.77562 18.8504 4.79591 18.8571 4.78915C18.9112 4.7215 18.7963 4.72826 18.7895 4.7012C18.7895 4.67415 18.7692 4.47122 18.7692 4.4374C18.7692 4.37652 18.8842 4.38329 18.7557 4.33593L18.7016 3.37537C18.6408 3.25361 18.0728 2.95597 17.9308 2.89509C17.7415 2.82068 17.5386 2.82744 17.329 2.78686C17.1329 2.74627 16.9098 2.69892 16.6867 2.65833C16.3554 2.59745 16.0781 2.5501 15.7603 2.48922C15.7197 2.48245 15.6792 2.48921 15.6454 2.50274L15.6319 2.44186L15.5642 2.54335L15.544 2.4757C15.4155 2.55011 15.4561 2.46217 15.3614 2.43511C15.1044 2.3607 14.6987 2.37421 14.4283 2.33363C14.381 2.32686 14.2863 2.26599 14.2254 2.25246L14.1443 2.31333L14.1781 2.21187C14.124 2.2254 13.9753 2.25247 13.9347 2.24571C13.9077 2.24571 13.9211 2.18483 13.9009 2.18483C13.8062 2.17806 13.7116 2.24569 13.6034 2.14422L13.5561 2.21187C13.5561 2.10364 13.4343 2.11717 13.3735 2.04953C13.2991 2.21864 13.2518 2.04953 13.245 2.04953C13.1977 2.04953 13.1706 2.11041 13.1233 2.11041C12.9678 2.11041 12.6026 1.88042 12.393 1.98865L12.3525 1.921L12.224 1.96159C12.1902 1.8263 12.1226 1.93453 12.0617 1.921C12.0212 1.91424 12.0212 1.82629 11.9468 1.806C11.8386 1.77894 11.5816 1.84659 11.5478 1.66395C11.4126 1.806 11.345 1.69778 11.1827 1.71808L11.1489 1.63688C11.0678 1.72482 11.0475 1.65042 10.9528 1.66395L10.946 1.67072Z" fill="#6F7A58" stroke="#6F7A58" stroke-width="0.85" stroke-linecap="round" stroke-linejoin="round"/>
<path d="M18.4177 3.88947L18.3906 4.00446L18.4515 4.06535C18.4515 4.19388 18.1607 4.56591 18.0593 4.66061C17.9308 4.78237 17.7212 4.89061 17.5792 5.00561C16.3892 5.96617 15.145 6.8929 13.955 7.87375C13.3938 8.3405 12.792 8.8208 12.339 9.38902L12.4201 11.1545C12.4878 11.8378 12.4945 12.5548 12.5215 13.2312C12.5215 13.3395 12.6027 13.5695 12.4877 13.5965V13.6439C12.6297 13.6574 12.5215 13.9821 12.5553 14.1039L12.4201 14.1377L12.5553 14.158L12.623 15.5718L12.5215 15.6191C12.6635 15.6056 12.6771 15.8288 12.6162 15.8762C12.5892 15.8965 12.5148 15.8491 12.5215 15.9168L12.6568 15.9371L12.6703 16.8232C12.7582 16.9517 12.7041 17.1073 12.7244 17.2561L12.6568 17.3373L12.7515 17.3914C12.7785 18.0137 12.8258 18.6429 12.9205 19.2652L12.8529 19.3193L12.9205 19.3396C12.8394 19.5087 12.9813 19.6981 12.8867 19.8672L12.792 19.8469C12.792 19.8469 12.8055 20.0972 12.6027 20.104C12.5621 20.104 12.5351 20.0566 12.481 20.0499C12.4269 20.0431 12.3728 20.0905 12.3119 20.0769C12.2714 20.0702 12.3119 19.9957 12.2578 20.0093L12.224 20.1108C12.2376 20.0093 12.1226 19.9213 12.1023 19.8605C12.0753 19.7793 12.1159 19.4749 12.1023 19.3734C11.9941 18.1761 11.8251 16.9044 11.8589 15.6868L11.7981 15.6665L11.8251 15.5921L11.7575 15.5515C11.8251 14.5977 11.6696 13.583 11.6561 12.6224C11.6561 12.5075 11.771 12.3316 11.6222 12.291L11.6831 12.2707L11.629 11.6619C11.6425 11.0666 11.5614 10.4646 11.5208 9.88958C11.5141 9.78135 11.5614 9.32814 11.487 9.28755L11.0611 9.24695L11.0949 9.17932C11.0002 9.15226 11.0611 9.24695 10.9799 9.24695C10.6486 9.26048 10.0198 9.12519 9.6614 9.07783C9.58026 9.0643 9.4856 9.0846 9.40446 9.07783C9.17456 9.05078 8.93792 8.94255 8.6945 8.98314L8.7621 8.90872H8.82297L8.71476 8.8208L8.66066 8.95608H8.35642C8.25499 8.84108 8.34966 8.87491 8.39699 8.79374L8.26851 8.8952L8.23471 8.82755C8.16034 8.80726 8.11299 8.88843 8.05214 8.88843C7.96424 8.88843 7.70054 8.86815 7.59235 8.86139C7.51121 8.86139 7.43008 8.81402 7.34218 8.82755L7.40978 8.72609C6.94999 8.83432 6.44286 8.69227 5.96955 8.63139C5.93574 8.63139 5.90193 8.64491 5.87488 8.65844L5.84785 8.59756C5.70586 8.6855 5.54357 8.57727 5.4151 8.56375C5.19196 8.53669 4.9418 8.54345 4.7119 8.4961L4.7457 8.42845C4.53609 8.51639 4.35353 8.42168 4.15745 8.40138C3.59623 8.35403 3.03503 8.27962 2.47382 8.21198C2.37239 8.19845 2.29125 8.23229 2.1763 8.16464L2.2101 8.06993C2.07487 8.09699 1.99374 8.01582 1.88556 7.96847L2.01403 7.71141C1.79766 7.71141 1.89231 7.50171 2.04783 7.51523L1.98023 7.48142C2.0208 7.36642 2.13573 7.44084 2.21687 7.42731C2.71723 7.3732 3.43395 7.48818 3.94107 7.5423C5.33396 7.70465 6.73362 7.9414 8.12651 8.06993C9.0258 8.15787 10.0671 8.35403 11.0272 8.40138C11.2165 8.40815 11.1219 8.40815 11.1963 8.42845C11.4329 8.48933 11.7372 8.47581 11.9739 8.52316C12.0753 8.45551 12.1497 8.34728 12.2443 8.26611C13.1369 7.45436 14.1646 6.65615 15.1586 5.87824C15.26 5.79706 15.7536 5.35736 15.8144 5.34384C15.855 5.33707 15.9091 5.37089 15.9159 5.36413C15.9294 5.35736 16.0376 5.20178 16.1458 5.11384C16.4771 4.86356 16.8084 4.59975 17.1465 4.33593C17.2682 4.24123 17.3764 4.1127 17.5184 4.018C17.6401 3.93682 18.0525 3.77447 18.181 3.80153C18.2621 3.82182 18.3298 3.90976 18.4177 3.90976V3.88947ZM12.6906 17.8244V17.7567H12.6568V17.8244H12.6906Z" fill="#6F7A58" stroke="#6F7A58" stroke-width="0.85" stroke-linecap="round" stroke-linejoin="round"/>
<path d="M17.0518 11.4793C17.8294 12.3992 16.6258 13.4545 15.6454 13.1027C15.1653 12.9336 14.7461 12.406 14.9354 11.8851C15.2532 11.0328 16.4432 10.769 17.0518 11.486V11.4793Z" fill="#6F7A58" stroke="#6F7A58" stroke-width="0.85" stroke-linecap="round" stroke-linejoin="round"/>
<path d="M18.2689 8.02937C18.35 8.10378 18.4717 8.16467 18.5258 8.31349C18.5732 8.43525 18.5258 8.46907 18.5258 8.52319C18.5258 8.56378 18.607 8.54347 18.6205 8.61788C18.6611 8.90199 18.4852 9.34169 18.2689 9.51757C17.2817 10.3293 15.6386 9.0711 16.5109 8.0226C16.9774 7.46115 17.782 7.56938 18.2689 8.0226V8.02937Z" fill="#6F7A58" stroke="#6F7A58" stroke-width="0.85" stroke-linecap="round" stroke-linejoin="round"/>
<path d="M15.314 15.0644C16.1457 15.5988 15.7333 17.0194 14.7799 17.1209C13.2518 17.29 13.1977 15.2674 14.435 14.963C14.6987 14.9021 15.0841 14.9156 15.314 15.0577V15.0644Z" fill="#6F7A58" stroke="#6F7A58" stroke-width="0.85" stroke-linecap="round" stroke-linejoin="round"/>
<path d="M10.4051 2.61097C10.5944 2.67862 10.8311 2.88155 10.9393 3.07772C11.0881 3.36183 11.061 3.57154 10.9528 3.86918C10.5268 5.03944 8.46456 4.74179 8.74178 3.37536C8.74178 3.34831 8.92433 2.9492 8.93785 2.9289C8.95138 2.90861 9.24213 2.68539 9.2827 2.6651C9.58697 2.47569 10.0738 2.49599 10.4051 2.60422V2.61097Z" fill="#6F7A58" stroke="#6F7A58" stroke-width="0.85" stroke-linecap="round" stroke-linejoin="round"/>
<path d="M3.40688 17.0397L3.46771 17.0532C3.4001 16.8367 3.67736 16.7623 3.79907 16.6879C3.83288 16.6676 3.79903 16.5932 3.84636 16.5729L3.8802 16.6406C4.00191 16.4444 4.35349 16.3091 4.57663 16.37C4.66453 16.3903 5.07698 16.6203 5.15812 16.6812C5.9357 17.2561 5.27983 18.5482 4.40759 18.5888C3.47449 18.6293 3.08909 17.8649 3.40688 17.0464V17.0397Z" fill="#6F7A58" stroke="#6F7A58" stroke-width="0.85" stroke-linecap="round" stroke-linejoin="round"/>
<path d="M9.43823 17.0871C9.72898 17.2832 9.91155 17.29 10.04 17.6823C10.1076 17.8988 10.0671 18.3182 9.94535 18.5008C9.93183 18.5279 9.7425 18.6632 9.68841 18.6767L9.75605 18.7241C9.64786 18.812 9.58697 18.9879 9.42469 18.9067L9.40443 19.0082C8.94464 19.1096 8.41049 19.0082 8.10621 18.6294C8.07241 18.582 7.89659 18.2979 7.88307 18.2573C7.81545 18.0002 7.95066 17.4388 8.15351 17.2562C8.18056 17.2359 8.22116 17.2562 8.22792 17.2494C8.52543 16.9991 8.6877 16.8571 9.10692 16.8976C9.37738 16.9247 9.30975 17.0059 9.43146 17.0871H9.43823Z" fill="#6F7A58" stroke="#6F7A58" stroke-width="0.85" stroke-linecap="round" stroke-linejoin="round"/>
<path d="M5.06349 11.5469C4.86064 11.716 4.43465 11.8513 4.16418 11.8919V11.7904C4.12361 11.7904 4.01542 11.8243 3.98838 11.8243C3.96809 11.8243 3.97485 11.7701 3.94104 11.7634C3.81257 11.716 3.71113 11.7025 3.58942 11.5943C3.32572 11.371 3.25814 10.9246 3.32575 10.6067C3.39337 10.2887 3.84638 9.84228 4.15742 9.79493C4.30617 9.76787 4.80653 9.78816 4.92148 9.86933C4.96881 9.90315 4.96881 10.0181 5.00938 10.079C5.07024 10.1873 5.19871 10.2617 5.26633 10.4173C5.43537 10.7825 5.38801 11.2831 5.07022 11.5469H5.06349Z" fill="#6F7A58" stroke="#6F7A58" stroke-width="0.85" stroke-linecap="round" stroke-linejoin="round"/>
<path d="M9.55316 13.8806C10.2564 14.6247 9.445 15.8153 8.52542 15.7476C8.05211 15.7138 7.65993 15.2133 7.72079 14.7397C7.73431 14.6315 7.7884 14.6112 7.80192 14.5639C7.81545 14.5233 7.78164 14.4827 7.80192 14.4421C7.80868 14.415 8.11295 14.0362 8.13323 14.0159C8.2279 13.9212 8.43753 13.8468 8.53219 13.7724C8.57952 13.7318 8.57272 13.6709 8.62005 13.6777L8.63359 13.7386C8.91081 13.5695 9.34355 13.6506 9.55992 13.8874L9.55316 13.8806Z" fill="#6F7A58" stroke="#6F7A58" stroke-width="0.85" stroke-linecap="round" stroke-linejoin="round"/>
<path d="M11.4938 5.64149C12.1226 6.1353 11.7981 6.99439 11.1895 7.33261C10.3511 7.79936 9.37739 7.01467 9.82366 6.16235C9.86423 6.08117 10.2294 5.64149 10.297 5.6009C10.3308 5.58061 10.4322 5.62796 10.4728 5.49267L10.5066 5.56032C10.8041 5.3912 11.2301 5.43179 11.5005 5.64149H11.4938Z" fill="#6F7A58" stroke="#6F7A58" stroke-width="0.85" stroke-linecap="round" stroke-linejoin="round"/>
<path d="M7.78838 11.4387L7.84249 11.4184C7.78163 11.2763 7.91687 11.1816 7.84249 11.0057L7.90332 11.0328C7.95065 10.9719 7.95065 10.8569 7.99122 10.8096C8.05884 10.7284 8.38341 10.4443 8.46454 10.4172C8.54568 10.3902 8.64035 10.3766 8.72149 10.3496C9.00548 10.4646 9.39088 10.4308 9.60049 10.6811C10.1414 11.3102 9.68838 12.3519 8.87699 12.4263C8.24816 12.4804 7.80866 12.0678 7.78162 11.4454L7.78838 11.4387Z" fill="#6F7A58" stroke="#6F7A58" stroke-width="0.85" stroke-linecap="round" stroke-linejoin="round"/>
<path d="M4.67807 13.1163C4.67807 13.1163 4.69835 13.1839 4.71863 13.1907C4.74568 13.2042 4.8471 13.1569 4.92824 13.1772C5.02967 13.2042 5.28661 13.556 5.30689 13.6575C5.32041 13.698 5.30686 13.7521 5.27982 13.7792L5.37449 13.7657L5.30689 13.8671C5.50298 13.8942 5.27984 14.1107 5.46916 14.0633L5.40156 14.2121C5.55708 14.246 5.33394 14.6721 5.26632 14.7736C4.95529 15.2742 4.02218 15.2945 3.65706 14.8412C3.51506 14.6586 3.40687 14.1851 3.44068 13.9686C3.50154 13.6033 4.03568 13.1501 4.39405 13.1095C4.44814 13.1095 4.63748 13.096 4.66453 13.1163H4.67807Z" fill="#6F7A58" stroke="#6F7A58" stroke-width="0.85" stroke-linecap="round" stroke-linejoin="round"/>
<path d="M28.1341 10.0993C28.1341 10.0993 28.1071 9.80166 28.1138 9.76107C28.1138 9.72725 28.195 9.76107 28.1747 9.69342L28.1138 9.6799L28.1747 9.62579C28.1747 9.55815 28.1544 9.48372 28.1679 9.41607C28.2017 9.17255 28.2558 8.90197 28.3167 8.69904C28.364 8.54345 28.3167 8.37435 28.364 8.21876C28.364 8.19847 28.4181 8.20524 28.4181 8.18495C28.4451 7.55585 28.5804 6.88617 28.6547 6.24354C28.675 6.08796 28.6548 5.87825 28.6886 5.72943C28.7021 5.66179 28.7629 5.6753 28.7629 5.65501C28.7629 5.61442 28.7156 5.59415 28.7088 5.56709C28.6953 5.45886 28.7562 5.36415 28.7629 5.28297C28.7765 5.19503 28.7088 5.05298 28.8238 5.0124L28.7629 4.99885V4.93798L28.8103 4.93123C28.8373 4.708 28.8305 4.48475 28.8711 4.24123C28.9184 3.95712 28.9726 3.68656 29.0199 3.38892C29.0402 3.26039 29.0334 3.09803 29.0672 2.9695C29.074 2.94244 29.101 2.94246 29.1281 2.94246L29.0672 2.90187C29.216 2.73953 29.243 2.19836 29.4053 2.09013C29.4324 2.06983 29.4797 2.07659 29.5135 2.06306C29.6284 1.99542 29.5 1.96161 29.527 1.92778L29.6352 1.89395L29.6014 1.77896C29.6352 1.75867 29.7907 1.71809 29.8042 1.69779C29.8177 1.6775 29.8042 1.62337 29.8042 1.6166C29.8042 1.6166 29.8583 1.64366 29.8786 1.63689C29.9124 1.62337 29.9057 1.56927 29.9462 1.54897C30.0679 1.48133 30.3587 1.50838 30.5142 1.49485C31.7245 1.35956 32.9416 1.2378 34.1587 1.12281V1.24456L34.1925 1.12281C34.2263 1.1431 34.3345 1.12281 34.3345 1.12281C34.3413 1.12957 34.3345 1.21751 34.4021 1.17016C34.4156 1.1634 34.3818 1.10251 34.5373 1.07545C35.4096 0.933396 36.3224 0.926641 37.1946 0.831938C38.4117 0.710177 39.7303 0.473415 40.9406 0.426064C41.1502 0.419299 41.1434 0.446354 41.3057 0.507234C41.779 0.69664 41.921 0.80486 42.2456 1.14985C42.2929 1.20397 42.4078 1.21074 42.3943 1.3325L42.4484 1.29867C42.4484 1.4069 42.5431 1.4475 42.6039 1.52191C42.7933 1.75867 42.9217 1.88042 43.1043 2.151C43.1246 2.17806 43.1719 2.151 43.199 2.1713C43.2733 2.23894 43.5573 2.53659 43.6249 2.62453C43.6655 2.67864 43.679 2.8004 43.6993 2.81393C43.7128 2.82746 43.7602 2.81392 43.7737 2.82068C43.794 2.83421 43.7737 2.88835 43.8075 2.90187C43.8346 2.9154 43.8954 2.90187 43.936 2.93569C43.9563 2.95598 43.9563 3.00334 43.9766 3.02363C44.0374 3.08451 44.1456 3.11157 44.1118 3.21981C44.247 3.20628 44.2064 3.30098 44.2132 3.30098C44.4701 3.52421 44.6662 3.74743 44.8894 3.97743C45.3559 4.45094 45.9307 4.95827 46.3363 5.51296C46.3837 5.58061 46.3363 5.67531 46.4648 5.64149L46.4107 5.7362C46.5257 5.72267 46.6541 5.93237 46.7082 6.02707C46.7961 6.17589 46.8367 6.23677 46.9381 6.38559C47.0531 6.5547 47.0936 6.7441 47.1748 6.92674C47.2153 7.02144 47.3303 7.06203 47.2357 7.22438C47.4926 7.25144 47.3033 7.37996 47.3033 7.39349C47.3033 7.44085 47.3438 7.4882 47.3438 7.54231C47.3438 7.62349 47.2559 7.69114 47.3236 7.79937L47.2289 7.7723L47.3236 7.94819L47.2086 8.01584L47.1883 7.9279C47.141 7.96848 47.1072 8.01583 47.0936 8.07671C47.026 8.36759 47.0395 8.75992 46.9922 9.06433C46.7758 10.6134 46.4783 12.1354 46.3025 13.698C46.1876 14.6789 46.1606 15.8424 45.8022 16.7894C45.7413 16.9517 45.7345 17.0803 45.6872 17.202C45.6669 17.2561 45.5182 17.6417 45.4979 17.6553C45.4844 17.6688 45.4371 17.635 45.41 17.6553C45.3694 17.6755 45.2613 17.7905 45.2477 17.7905C45.2072 17.7905 45.0787 17.7635 45.0381 17.777C45.0111 17.7905 45.0381 17.8717 44.9435 17.8108L44.9637 17.8717C44.8488 17.8311 44.8082 17.865 44.7068 17.9123L44.673 17.8514C44.531 17.9461 44.3552 17.9191 44.1862 17.9596C44.1388 17.9732 44.1456 18.0138 44.1321 18.0205C44.0577 18.0476 43.9698 17.9867 43.9224 17.9867C43.7264 17.9867 43.4356 18.1694 43.2936 17.9732V18.0949C43.2328 18.0949 43.1449 18.1558 43.0976 18.1626C43.057 18.1626 43.0299 18.1152 42.9893 18.122C42.6175 18.1491 42.205 18.2438 41.8399 18.3046C41.7858 18.3114 41.6844 18.2438 41.7047 18.352L41.6303 18.2911L41.1772 18.3452L41.1299 18.4061L41.1096 18.3452C40.9338 18.4129 40.6025 18.3655 40.447 18.4129C40.4267 18.4129 40.4335 18.467 40.4199 18.467C40.3794 18.467 40.3118 18.4196 40.2441 18.4399L40.2103 18.5008L40.1427 18.4129L40.021 18.5076L39.9602 18.4467C39.7911 18.5752 39.595 18.4805 39.453 18.5955C39.426 18.5008 39.2028 18.5076 39.1826 18.6091C39.1082 18.5143 39 18.6023 38.9054 18.6091C38.6011 18.6361 38.2968 18.6767 37.9925 18.7037C37.9317 18.7037 37.837 18.6226 37.7964 18.7579L37.7694 18.7037C37.4516 18.7511 37.1203 18.7917 36.8025 18.8187C36.6876 18.8255 36.1398 18.8187 36.0925 18.8458C36.079 18.8526 36.0993 18.8999 36.0722 18.8999L36.0384 18.839C35.5448 18.8458 34.9904 18.6902 34.5441 18.4738C33.5907 18.007 32.4683 16.512 31.7786 15.6529C30.859 14.5165 30.0003 13.3733 29.1281 12.1963C28.8508 11.8242 28.3708 11.3102 28.2491 10.8705C28.195 10.6811 28.1206 10.309 28.2423 10.1467C28.2423 10.1196 28.1679 10.1128 28.1544 10.0993H28.1341ZM28.9793 9.51756H28.8914C29.0605 9.65285 28.9861 9.60549 28.9793 9.72048C28.9726 9.84225 28.9793 10.1061 28.9861 10.2346C28.9996 10.3834 29.0942 10.5255 29.0334 10.6608L29.0943 10.6405C29.0604 10.7419 29.1483 10.7555 29.1619 10.7825C29.6825 11.8648 30.4871 12.5819 31.1565 13.5627C31.1836 13.6033 31.1566 13.7386 31.2985 13.7048C31.2445 13.8333 31.3121 13.7792 31.3323 13.813C31.5149 14.1242 31.8056 14.4083 32.0355 14.6992C32.6576 15.4703 33.2864 16.3429 33.9829 16.9991C34.037 17.0532 34.0708 17.1547 34.1114 17.1953C34.4292 17.5132 35.058 18.007 35.5042 18.0205C35.5245 18.0205 35.5245 18.0747 35.5448 18.0814C35.8694 18.1491 36.3697 18.1017 36.7078 18.0814C36.9648 18.0679 37.2284 18.0205 37.4854 18.0002L37.5192 18.0544C37.553 17.9935 37.8235 17.9461 37.8776 17.9529C37.9114 17.9529 37.9452 18.0138 37.9587 18.0002C37.9587 18.0002 37.9452 17.9461 37.979 17.9394C38.0331 17.9258 38.3779 17.8852 38.4658 17.8717C38.6349 17.8514 38.9121 17.8582 39.0879 17.8582L39.1217 17.7905C39.2637 17.8717 39.284 17.7635 39.2975 17.7567C39.3584 17.7364 39.4733 17.8041 39.5139 17.8041C39.5342 17.8041 39.5207 17.7499 39.5409 17.7499C39.6762 17.7094 39.8858 17.7635 39.994 17.7499C40.0142 17.7499 39.994 17.6891 40.0548 17.6823C40.562 17.6282 41.0758 17.6011 41.5424 17.5335C42.5025 17.3847 43.4627 17.3576 44.4228 17.1479C44.4634 17.1412 44.4769 17.1006 44.4972 17.0938C44.5175 17.087 44.531 17.2088 44.6054 17.1817V17.06C44.8217 17.0667 44.8623 16.9788 44.9435 16.8097C45.0381 16.6271 45.1666 16.2956 45.2139 16.0994C45.2275 16.0453 45.1598 15.9438 45.2815 15.9371L45.2207 15.883L45.2748 15.8694V15.6124L45.3289 15.6394C45.3424 15.6124 45.3288 15.2538 45.3424 15.1727C45.4032 14.875 45.4235 14.5165 45.4641 14.1715C45.6264 12.663 45.8901 11.1275 46.1132 9.64608C46.1132 9.61226 46.1741 9.43637 46.2214 9.46343V9.43637C46.0524 9.42284 46.2214 9.33492 46.2214 9.32815C46.2214 9.30109 46.1876 9.2605 46.1876 9.21315C46.1943 9.0305 46.2687 8.86816 46.2484 8.69229L46.3431 8.67199C46.3566 8.62464 46.289 8.65846 46.2822 8.62464C46.262 8.55023 46.3296 7.99553 46.3499 7.87377C46.3837 7.69113 46.4378 7.53555 46.5054 7.3732C46.5054 7.35967 46.458 7.35967 46.4513 7.34614C46.3769 7.17702 46.3161 6.96733 46.2079 6.86586L46.2349 6.79146C46.1267 6.83205 46.0321 6.61558 46.0726 6.52764C45.9577 6.5547 45.9983 6.49383 45.9645 6.45324C45.9509 6.43971 45.9171 6.44646 45.9171 6.4397C45.8428 6.33823 46.0118 6.45322 45.9712 6.35175L45.8766 6.29765L45.9374 6.27735C45.8563 6.24353 45.8427 6.20971 45.8089 6.12853L45.7211 6.14883C45.7143 6.10148 45.6737 5.93913 45.6467 5.91884C45.6467 5.91884 45.6061 5.93913 45.5926 5.91884C45.5047 5.84443 45.4235 5.72266 45.3356 5.6753L45.3965 5.61443C45.2748 5.64825 45.3154 5.56032 45.2951 5.54003C45.2207 5.47238 45.0922 5.43855 45.0787 5.29649L45.0246 5.32356C44.9502 5.26944 44.9367 5.12062 44.9164 5.09357C44.9164 5.09357 44.8758 5.12062 44.842 5.09357C44.6797 4.97857 44.4904 4.59975 44.3687 4.51181C44.3349 4.48475 44.2605 4.50505 44.2267 4.47122C44.1997 4.44417 44.1794 4.29536 44.1456 4.27507C44.0983 4.24801 43.9833 4.26152 43.9224 4.15329C43.8616 4.04506 43.936 4.1127 43.821 4.02476C43.7263 3.95712 43.7399 3.88947 43.6926 3.83536C43.5573 3.67977 43.2125 3.55125 43.199 3.30773L43.1448 3.33479C43.0975 3.25362 43.0096 3.25363 43.0367 3.13186L42.9758 3.16568C42.9961 3.00333 42.9353 3.07099 42.8812 3.0304C42.8474 3.00334 42.8541 2.95598 42.8406 2.93569C42.8136 2.90187 42.5228 2.67186 42.4822 2.63128C42.4011 2.56363 42.3199 2.32687 42.2658 2.29305C42.2456 2.27952 42.205 2.29305 42.1779 2.27276C42.1509 2.25247 42.1306 2.13072 42.1036 2.11719C42.0765 2.10366 42.0157 2.13072 41.9954 2.11719C41.9751 2.10366 41.9751 2.02924 41.9548 1.99541C41.9278 1.95483 41.7925 1.77896 41.7655 1.7519C41.7114 1.69778 41.5762 1.70454 41.5694 1.53543L41.4815 1.56927L41.3125 1.18368L41.0285 1.22427L41.0014 1.17016C40.8865 1.31222 40.8527 1.22427 40.7716 1.22427C39.9805 1.26486 39.0676 1.44074 38.2495 1.52191C37.9046 1.55573 37.5733 1.54897 37.2555 1.60985C37.1541 1.63015 37.0324 1.62337 36.931 1.63689C36.8566 1.64366 36.8498 1.71808 36.7281 1.60308L36.6875 1.69779L36.5929 1.64367C36.5388 1.77896 36.3021 1.65043 36.1736 1.7519L36.1398 1.69102C35.937 1.78573 35.6868 1.77896 35.4704 1.79926C35.0986 1.83308 34.7267 1.85338 34.3548 1.8872C34.2263 1.90073 34.1857 2.00218 34.0843 1.87366C33.9626 2.01571 33.9288 1.92778 33.7868 1.94131C33.7124 1.94131 33.611 1.9819 33.5434 2.00895L33.5163 1.95483C33.2121 2.04953 32.8537 2.02925 32.5359 2.06983C32.4345 2.08336 32.2046 2.19836 32.1572 2.06983C32.0693 2.15101 31.7245 2.19837 31.6163 2.18484C31.5893 2.18484 31.6028 2.1307 31.5961 2.12394C31.5352 2.07659 31.542 2.17807 31.5217 2.18484C31.5014 2.18484 31.3121 2.21188 31.285 2.21188C31.2309 2.21188 31.2309 2.11041 31.1903 2.23217L30.3113 2.32012C30.2032 2.381 29.9462 2.9154 29.9057 3.05069C29.8448 3.22657 29.8583 3.41596 29.8313 3.60537C29.8042 3.78801 29.7704 3.99095 29.7366 4.20065C29.6893 4.51181 29.6622 4.76211 29.6149 5.05975C29.6149 5.09357 29.6149 5.13414 29.6352 5.16797L29.5811 5.18151L29.6757 5.23562L29.6149 5.25591C29.6893 5.3709 29.6081 5.33708 29.5811 5.42502C29.5202 5.66854 29.5473 6.04059 29.5202 6.29088C29.5202 6.33823 29.4594 6.4194 29.4526 6.48028L29.5135 6.54793L29.4188 6.52087C29.4323 6.56822 29.4594 6.70352 29.4594 6.74411C29.4594 6.7644 29.4053 6.75763 29.4053 6.77792C29.4053 6.86586 29.4661 6.94704 29.3782 7.05527L29.4391 7.09585C29.3377 7.10262 29.358 7.21086 29.2971 7.27174C29.4526 7.33262 29.2971 7.37996 29.2971 7.39349C29.2971 7.44085 29.3512 7.46115 29.358 7.5085C29.3647 7.65055 29.1619 8.00231 29.2701 8.18495L29.2092 8.22553L29.2498 8.34052C29.1281 8.38111 29.2295 8.43523 29.2227 8.49611C29.2227 8.52993 29.1348 8.5367 29.1213 8.60435C29.101 8.70581 29.1754 8.9358 29.0064 8.97638C29.1416 9.09815 29.0469 9.15904 29.0672 9.30786L28.9928 9.34167C29.0807 9.41608 29.0131 9.43638 29.0267 9.51756H28.9793Z" fill="#6F7A58" stroke="#6F7A58" stroke-width="0.85" stroke-linecap="round" stroke-linejoin="round"/>
<path d="M30.717 2.55011L30.8252 2.5704L30.8793 2.50952C31.001 2.50952 31.3526 2.75981 31.4472 2.84775C31.5622 2.96274 31.6771 3.15215 31.7853 3.27391C32.7184 4.33594 33.6177 5.43856 34.5711 6.49382C35.0241 6.9944 35.4839 7.52878 36.0249 7.92112L37.6409 7.7723C38.2697 7.68437 38.9256 7.65056 39.5477 7.59644C39.6423 7.58968 39.8587 7.5085 39.8857 7.60996H39.933C39.9398 7.48144 40.2441 7.56261 40.3523 7.52879L40.3861 7.65055L40.3996 7.52879L41.6978 7.40702L41.7452 7.49496C41.7249 7.36643 41.9345 7.34615 41.9818 7.40027C42.0021 7.42732 41.9615 7.49496 42.0224 7.48144L42.0359 7.35968L42.8541 7.31232C42.969 7.22438 43.1178 7.26497 43.2462 7.24467L43.3206 7.30555L43.3679 7.21761C43.9427 7.16349 44.5174 7.10262 45.0854 6.98762L45.1327 7.0485L45.1462 6.98762C45.3085 7.05526 45.4708 6.91322 45.6331 7.00116L45.6196 7.0891C45.6196 7.0891 45.8495 7.0688 45.863 7.25145C45.863 7.29203 45.8224 7.31909 45.8224 7.35968C45.8224 7.40027 45.863 7.45437 45.8562 7.51525C45.8562 7.54907 45.7819 7.51526 45.7954 7.56938L45.89 7.59644C45.7954 7.58968 45.721 7.6979 45.6601 7.7182C45.5858 7.74526 45.3085 7.71819 45.2071 7.73172C44.1117 7.87377 42.9487 8.09025 41.8263 8.10378L41.806 8.15789L41.7384 8.13759L41.7046 8.19847C40.8256 8.17141 39.8992 8.35405 39.0135 8.40817C38.9053 8.40817 38.743 8.32023 38.7092 8.44875L38.6889 8.39465L38.1277 8.46905C37.58 8.48258 37.0256 8.57728 36.4982 8.63816C36.3967 8.65169 35.9843 8.62464 35.9437 8.69229L35.9234 9.08462L35.8626 9.05756C35.8423 9.14549 35.9234 9.0914 35.9302 9.15904C35.9572 9.46344 35.8558 10.0452 35.8288 10.3766C35.8288 10.4511 35.8423 10.5322 35.8355 10.6134C35.8152 10.8299 35.7341 11.0463 35.7747 11.2696L35.7003 11.2087V11.1478L35.6192 11.256L35.7409 11.3034L35.7544 11.5875C35.6462 11.689 35.6732 11.601 35.5989 11.5537L35.6935 11.6687L35.6327 11.7025C35.6191 11.7701 35.6935 11.8107 35.7003 11.8648C35.7071 11.946 35.7003 12.1895 35.6935 12.291C35.6935 12.3654 35.6597 12.4398 35.6732 12.521L35.5786 12.4669C35.7003 12.8863 35.5786 13.3598 35.5448 13.7927C35.5448 13.8198 35.5583 13.8536 35.5718 13.8807L35.5177 13.9077C35.6056 14.0362 35.5177 14.1918 35.5042 14.3068C35.4907 14.5165 35.5042 14.7465 35.4704 14.963L35.4096 14.9359C35.5042 15.1253 35.4163 15.2944 35.4096 15.4771C35.3893 15.998 35.3487 16.5121 35.3014 17.0397C35.2946 17.1344 35.3284 17.2088 35.2676 17.317L35.1729 17.29C35.1999 17.4117 35.1323 17.4861 35.0917 17.5944L34.8483 17.4861C34.8619 17.6891 34.659 17.6079 34.6658 17.4658L34.6387 17.5267C34.5373 17.4929 34.5914 17.3847 34.5846 17.3103C34.517 16.857 34.5846 16.1873 34.6252 15.7206C34.7199 14.4353 34.8754 13.1366 34.943 11.8513C34.9836 11.0193 35.1256 10.0519 35.1323 9.16579C35.1323 8.98991 35.1323 9.07787 35.1526 9.01022C35.2 8.78699 35.1729 8.51641 35.2067 8.28641C35.1391 8.19847 35.0376 8.13083 34.9565 8.04965C34.1722 7.26497 33.4013 6.34499 32.644 5.46561C32.5697 5.37767 32.1369 4.93798 32.1234 4.88387C32.1166 4.84328 32.1437 4.79592 32.1369 4.78916C32.1302 4.77563 31.9814 4.68093 31.9003 4.58623C31.6569 4.29536 31.3999 3.99771 31.143 3.69331C31.0551 3.58508 30.9266 3.49038 30.8387 3.36186C30.7643 3.25362 30.5953 2.88157 30.6156 2.7598C30.6291 2.6854 30.7035 2.62452 30.7102 2.53659L30.717 2.55011ZM43.7601 7.26497H43.6993V7.2988H43.7601V7.26497Z" fill="#6F7A58" stroke="#6F7A58" stroke-width="0.85" stroke-linecap="round" stroke-linejoin="round"/>
<path d="M37.7559 3.50388C38.5741 2.75302 39.5883 3.81506 39.3043 4.73503C39.1691 5.18148 38.6957 5.59413 38.2089 5.43854C37.411 5.18149 37.1203 4.0924 37.7559 3.51065V3.50388Z" fill="#6F7A58" stroke="#6F7A58" stroke-width="0.85" stroke-linecap="round" stroke-linejoin="round"/>
<path d="M34.5305 2.52307C34.5982 2.44866 34.6455 2.32689 34.7807 2.27277C34.8889 2.22542 34.9227 2.27278 34.9701 2.26602C35.0039 2.25925 34.9836 2.19161 35.0512 2.17808C35.3081 2.13073 35.7206 2.27278 35.8964 2.46895C36.6807 3.34157 35.5921 4.91094 34.5914 4.14655C34.0505 3.73392 34.1248 2.99657 34.5238 2.52982L34.5305 2.52307Z" fill="#6F7A58" stroke="#6F7A58" stroke-width="0.85" stroke-linecap="round" stroke-linejoin="round"/>
<path d="M41.1231 4.95826C41.5762 4.17358 42.9014 4.49152 43.0367 5.37091C43.2531 6.77116 41.3936 6.89968 41.0691 5.77001C41.0015 5.53325 40.9947 5.17473 41.1231 4.95826Z" fill="#6F7A58" stroke="#6F7A58" stroke-width="0.85" stroke-linecap="round" stroke-linejoin="round"/>
<path d="M29.8651 9.97753C29.9192 9.80165 30.095 9.57166 30.2776 9.47019C30.5345 9.32137 30.7306 9.33489 31.0078 9.42283C32.1032 9.76782 31.9071 11.6754 30.6427 11.4725C30.6224 11.4725 30.2437 11.3169 30.2234 11.3101C30.2099 11.2966 29.9868 11.0395 29.9665 11.0057C29.7839 10.7351 29.7772 10.2819 29.8651 9.97753Z" fill="#6F7A58" stroke="#6F7A58" stroke-width="0.85" stroke-linecap="round" stroke-linejoin="round"/>
<path d="M43.4153 15.8424V15.7883C43.2327 15.8627 43.1448 15.6124 43.0772 15.4974C43.0569 15.4636 42.9893 15.5042 42.969 15.4568L43.0299 15.423C42.8473 15.3215 42.7053 15.0036 42.7527 14.7939C42.7729 14.7127 42.9623 14.3204 43.0164 14.246C43.51 13.5019 44.727 14.0566 44.8014 14.8615C44.8758 15.7206 44.1861 16.1062 43.4221 15.8424H43.4153Z" fill="#6F7A58" stroke="#6F7A58" stroke-width="0.85" stroke-linecap="round" stroke-linejoin="round"/>
<path d="M43.2125 10.2819C43.3815 10.0114 43.3747 9.8355 43.7399 9.70021C43.936 9.6258 44.3214 9.65285 44.4972 9.75431C44.5175 9.76784 44.6527 9.93697 44.6662 9.98433L44.7068 9.92343C44.7947 10.0249 44.957 10.0655 44.8894 10.2211L44.984 10.2346C45.0922 10.654 45.0246 11.1478 44.6865 11.4454C44.6459 11.4793 44.389 11.6551 44.3552 11.6619C44.1185 11.7296 43.5979 11.6281 43.4221 11.4522C43.4018 11.4319 43.4221 11.3913 43.4086 11.3846C43.1651 11.1207 43.0299 10.9787 43.0502 10.5864C43.0637 10.3361 43.1381 10.3969 43.2057 10.2819H43.2125Z" fill="#6F7A58" stroke="#6F7A58" stroke-width="0.85" stroke-linecap="round" stroke-linejoin="round"/>
<path d="M38.2968 14.5368C38.4591 14.7194 38.6011 15.105 38.6552 15.3553H38.5605C38.5605 15.3959 38.6011 15.4974 38.5943 15.5244C38.5943 15.5447 38.5469 15.538 38.5402 15.565C38.4996 15.6868 38.4929 15.7747 38.3982 15.8965C38.2021 16.1468 37.7964 16.2279 37.4989 16.1806C37.2014 16.1332 36.7754 15.7341 36.7146 15.4432C36.6875 15.3079 36.6808 14.848 36.7552 14.733C36.7822 14.6924 36.8904 14.6789 36.9445 14.645C37.0391 14.5842 37.1 14.4692 37.242 14.3947C37.5733 14.2256 38.0331 14.2459 38.29 14.53L38.2968 14.5368Z" fill="#6F7A58" stroke="#6F7A58" stroke-width="0.85" stroke-linecap="round" stroke-linejoin="round"/>
<path d="M40.2644 10.3158C40.9203 9.63933 42.0494 10.3428 42.0224 11.1816C42.0089 11.6213 41.5694 12.0001 41.1299 11.9663C41.0284 11.9596 41.0082 11.9122 40.9608 11.8987C40.9203 11.8919 40.8865 11.9257 40.8459 11.9122C40.8188 11.9054 40.4604 11.6416 40.4402 11.6213C40.3523 11.5401 40.2711 11.3507 40.1968 11.2628C40.1562 11.2222 40.1021 11.229 40.1089 11.1884L40.1697 11.1749C40.0074 10.9246 40.0615 10.5255 40.2644 10.3158Z" fill="#6F7A58" stroke="#6F7A58" stroke-width="0.85" stroke-linecap="round" stroke-linejoin="round"/>
<path d="M32.6103 8.85463C33.0363 8.25936 33.8409 8.51641 34.179 9.0711C34.6455 9.82196 33.9626 10.7487 33.158 10.3766C33.0836 10.3428 32.6643 10.0249 32.6238 9.96402C32.6035 9.9302 32.6441 9.84225 32.5156 9.80843L32.5765 9.7746C32.4074 9.51078 32.4277 9.11169 32.6103 8.86141V8.85463Z" fill="#6F7A58" stroke="#6F7A58" stroke-width="0.85" stroke-linecap="round" stroke-linejoin="round"/>
<path d="M38.0872 12.0272L38.0669 11.9798C37.9384 12.0407 37.8438 11.919 37.6883 11.9934L37.7153 11.9392C37.6612 11.8919 37.553 11.9054 37.5057 11.8716C37.4245 11.8175 37.1541 11.5266 37.127 11.4522C37.1 11.3778 37.0865 11.2898 37.0527 11.2154C37.1406 10.9448 37.1 10.5999 37.3231 10.3902C37.8776 9.86929 38.858 10.2481 38.9527 10.9854C39.0271 11.5604 38.6619 11.9866 38.0939 12.0339L38.0872 12.0272Z" fill="#6F7A58" stroke="#6F7A58" stroke-width="0.85" stroke-linecap="round" stroke-linejoin="round"/>
<path d="M39.7573 14.8277C39.7573 14.8277 39.8181 14.8074 39.8249 14.7871C39.8384 14.76 39.7911 14.6721 39.8046 14.5977C39.8317 14.503 40.1427 14.2527 40.2306 14.2256C40.2711 14.2121 40.3117 14.2189 40.3455 14.2459L40.3252 14.158L40.4199 14.2121C40.4334 14.0362 40.643 14.2256 40.5957 14.0498L40.7377 14.1039C40.758 13.9551 41.1637 14.1512 41.2583 14.2054C41.7317 14.4692 41.7925 15.3283 41.3868 15.6868C41.2245 15.8288 40.7986 15.9438 40.5889 15.9235C40.2509 15.883 39.8113 15.4094 39.764 15.078C39.7572 15.0306 39.7437 14.8547 39.764 14.8277H39.7573Z" fill="#6F7A58" stroke="#6F7A58" stroke-width="0.85" stroke-linecap="round" stroke-linejoin="round"/>
</svg>
