<svg width="36" height="58" viewBox="0 0 36 58" fill="none" xmlns="http://www.w3.org/2000/svg">
<path d="M13.7533 57.1817C13.6519 57.0938 13.4017 57.1885 13.2935 57.1141C13.2529 57.0803 13.307 56.9179 13.0907 56.8773C13.023 56.8638 12.9622 56.9044 12.8946 56.8909C12.3469 56.7826 11.8736 56.5662 11.3529 56.4039C10.8323 56.2415 10.3184 56.2347 9.81127 56.0656C7.97212 55.4501 6.03154 54.4489 4.27352 53.6101C3.24576 53.1231 1.89344 52.7037 1.44717 51.5334C1.11586 50.6675 1.15641 49.5379 1.17669 48.6247C1.17669 48.5029 1.09557 48.3203 1.2308 48.2864C1.09557 48.1917 1.18347 48.0903 1.19023 47.982C1.21052 47.6168 1.20376 47.2312 1.197 46.8456L1.2646 46.8118C1.21051 45.0057 1.50803 43.0778 1.54859 41.3257C1.56212 40.8319 1.5824 40.2637 1.56211 39.7699C1.50802 37.9706 0.872438 36.3403 0.791299 34.541C0.723683 32.9648 0.595202 31.3752 0.527586 29.7855C0.399116 26.9309 0.263893 24.0627 0.980623 21.2825C1.03472 21.0728 1.24431 20.6264 1.2646 20.5249C1.31869 20.2476 1.32547 20.1731 1.42689 19.8823C1.77173 18.8541 2.17065 17.8123 2.65749 16.8382C2.71834 16.7165 2.65749 16.5542 2.84681 16.5677V16.5339C2.69129 16.5745 2.88063 16.243 2.9212 16.1551C2.94148 16.1145 2.98204 16.0536 3.01585 15.9859C3.09699 15.8236 3.14434 15.5665 3.3269 15.4989L3.25251 15.4447L3.43509 15.1742C3.9084 14.1933 4.44932 13.1989 4.99025 12.279C5.24043 11.846 5.5109 11.359 5.78137 10.9667C5.88955 10.8178 5.8084 10.9058 5.83545 10.8246C5.83545 10.8179 5.95716 10.7502 5.96392 10.7367C6.0383 10.5337 6.07887 10.4864 6.20058 10.297C6.56571 9.69493 6.99169 8.95759 7.23511 8.30143C7.26891 8.2135 7.42442 7.69941 7.41089 7.63853C7.40413 7.6047 7.35004 7.57763 7.32976 7.53704C7.25538 7.39499 7.17424 7.36793 7.09987 7.24617C7.0593 7.18529 7.05929 7.09736 7.01196 7.03648L7.08635 6.98239H6.97816L7.05253 6.83355L6.90377 6.73884L6.97816 6.55622L6.86997 6.57649L6.94436 6.42769L6.86997 6.40738L6.94436 6.25858C6.70094 6.18417 7.00522 5.93386 6.79561 5.85269L6.86997 5.68357L6.79561 5.70389L6.83617 5.48742L6.76179 5.44683V5.41302L6.83617 5.39271L6.76179 5.31831H6.82941C6.80912 5.26419 6.82941 5.17625 6.82941 5.14919C6.82941 5.1289 6.77531 5.13568 6.76855 5.12215C6.74827 5.08156 6.78883 5.10859 6.73473 5.00712C6.72797 4.9936 6.72122 4.72978 6.72122 4.70948C6.72122 4.68243 6.78884 4.68243 6.79561 4.6689C6.82265 4.56067 6.72798 4.58774 6.72122 4.55391C6.69417 4.44568 6.76855 4.34423 6.76179 4.26982C6.76179 4.24276 6.68741 4.26983 6.68065 4.19542C6.67389 4.06013 6.66713 3.69481 6.68065 3.56628C6.68065 3.49864 6.75502 3.51895 6.75502 3.49865C6.74149 3.32278 6.79559 3.13336 6.91054 2.98454C7.19453 2.6125 7.80308 2.69369 8.20878 2.62605C9.13512 2.47046 10.0479 2.23371 10.981 2.07812C14.9501 1.42873 18.8786 1.26638 22.8679 0.894336C24.9776 0.698165 27.121 0.393761 29.2441 0.427583C29.7512 0.434348 30.1231 0.481678 30.5424 0.78608L30.5221 0.86048L30.4206 0.894336C30.3192 0.968745 30.5356 1.08375 30.5829 1.15139C30.8601 1.5302 31.0359 2.54484 31.063 3.01836C31.09 3.53923 31.1036 4.66213 30.8263 5.08829C30.7249 5.24388 30.3868 5.36567 30.2178 5.41302C30.5559 6.46152 30.894 7.52352 31.1577 8.59907C31.232 8.88995 31.2658 9.20112 31.3335 9.49199C32.6046 14.8968 34.0449 20.2002 34.7413 25.6862C35.3566 30.5161 35.4039 35.3798 35.4851 40.2434C35.5257 42.6719 35.5527 45.0057 35.3769 47.4273C35.3499 47.7859 35.3498 48.2797 35.3025 48.6111C35.2957 48.6788 35.2281 48.6585 35.2281 48.6855C35.174 50.0317 34.9644 51.4319 34.7413 52.7645C34.6466 53.3328 34.5384 53.9077 34.3965 54.4489C34.3086 54.7736 34.4979 54.848 34.4911 54.9833C34.4844 55.0983 34.3018 55.3892 34.2071 55.4703C33.1726 56.3362 31.3132 56.2077 30.0623 56.2144C28.6153 55.9641 27.2968 55.9709 25.9039 56.113C22.1444 56.4986 18.3377 56.7827 14.5647 57.0735C14.3415 57.0938 14.044 57.175 13.8412 57.1817H13.7668H13.7533ZM29.5213 4.74334C29.5213 4.74334 29.8189 4.73658 29.8594 4.74334C30.0352 4.76363 30.2246 4.92596 30.3868 4.68244C30.2989 4.4998 30.2651 4.22246 30.2448 4.01276C30.1502 3.07926 30.1299 2.28782 29.7242 1.40167C29.5213 0.955216 29.5146 0.989014 29.0142 0.995778C27.1007 0.995778 25.0519 1.25285 23.1452 1.44226L21.2992 1.59783L22.8409 5.30476C23.6793 5.21683 24.5245 5.19653 25.363 5.13565C26.7018 5.04095 28.0338 4.86507 29.3794 4.8786C29.5011 4.85154 29.4875 4.75686 29.5146 4.73657L29.5213 4.74334ZM16.8095 5.9474C16.8433 5.91358 16.7014 5.5077 16.6811 5.43329C16.512 4.74331 16.3227 4.10068 16.0996 3.43775C16.0455 3.26188 15.6803 2.06457 15.6127 2.05104C13.2597 2.30133 10.9202 2.65985 8.60094 3.11307C8.74294 3.46483 8.81732 3.86395 8.85789 4.236C8.94579 5.10186 8.89846 6.54267 8.37782 7.25294C8.30344 7.36118 8.05325 7.51676 8.04649 7.63175C8.04649 7.64528 8.11411 7.64528 8.12087 7.67234C8.14116 7.76028 8.11412 7.88206 8.12764 7.99029C8.2223 8.54498 8.60771 9.26199 8.79703 9.82345C9.69633 12.4278 10.2711 15.0592 10.5551 17.7921C10.5753 18.0018 10.6294 18.2115 10.6159 18.4279L10.6903 18.4888C10.6091 18.4414 10.6227 18.6173 10.6362 18.6917C10.9405 20.924 10.9472 23.1834 11.2312 25.4495L11.2785 26.5047L11.3529 26.5656L11.2785 26.5859C11.3056 26.7483 11.3664 26.9444 11.38 27.1068C11.4543 28.0268 11.4273 29.0009 11.4273 29.9411C11.4273 29.9885 11.3935 30.0493 11.3935 30.0899C11.3935 30.1508 11.4679 30.1779 11.4679 30.232C11.4679 30.259 11.4002 30.2455 11.3935 30.2726C11.3597 30.4958 11.407 30.8408 11.3935 31.0775C11.2853 32.8025 10.9945 34.5071 10.839 36.205C10.8255 36.3877 10.8661 36.5703 10.7985 36.7529L10.8729 36.7935C10.6835 37.5511 10.7038 38.4035 10.6903 39.1882C10.6903 39.2355 10.67 39.2694 10.6565 39.3099L10.7241 39.3302L10.6497 39.3979C10.6497 40.7102 10.6294 42.0293 10.67 43.3416C10.67 43.4092 10.7173 43.4633 10.7173 43.5242C10.7173 43.6595 10.6362 44.1398 10.697 44.2345C10.7106 44.2548 10.7647 44.2277 10.7647 44.2616L10.6903 44.3021C10.7849 44.4577 10.7173 44.6066 10.7241 44.7824C10.7647 45.743 10.8796 46.6968 10.9472 47.6574C10.981 48.1376 10.9202 48.672 11.096 49.132L11.0216 49.1726C11.2583 50.9584 11.3259 52.7172 11.3529 54.5098C11.3529 54.6518 11.2583 54.8683 11.3935 54.9901C11.3462 55.0306 11.2988 54.9833 11.3191 55.0848C12.0764 55.2336 12.8134 55.4703 13.5302 55.7477C13.5031 55.6124 13.4558 55.5041 13.4558 55.3621C13.4287 53.2651 13.4355 51.1613 13.3882 49.0576C13.3138 45.973 13.0636 42.9086 12.9892 39.8443C12.8337 33.5263 13.1109 27.1744 12.9486 20.8631C12.8743 17.7785 12.5971 15.0389 11.4543 12.1504C11.0284 11.0749 10.4942 9.78965 9.98708 8.74791C9.86537 8.50439 9.42587 7.84145 9.41234 7.63175C9.40558 7.43558 9.52053 7.39499 9.649 7.28676C9.81128 7.33411 9.87213 7.4897 10.0682 7.46264L9.99383 7.61148C10.1561 7.5709 10.1494 7.69266 10.2508 7.7806L10.1764 7.86854L10.2846 7.88881L10.2305 7.94294C10.3252 8.01058 10.4469 8.12558 10.4874 8.24058C10.5077 8.29469 10.4672 8.34203 10.4672 8.34879C10.4807 8.35556 10.5415 8.32852 10.5821 8.3691C10.5956 8.38263 10.6565 8.53146 10.6565 8.54499L10.5821 8.59907C10.7782 8.66672 10.7782 8.92379 10.839 9.08614C10.8593 9.13349 11.0284 9.20788 10.9134 9.35669L10.9878 9.33642C10.9134 9.49201 11.0013 9.42436 11.0554 9.50554C11.1163 9.60024 11.0892 9.78286 11.2042 9.78286V9.8573L11.1298 9.89112C11.3056 9.89112 11.2109 10.1076 11.2447 10.1482C11.2583 10.1617 11.3191 10.1346 11.3529 10.1752C11.4408 10.2767 11.4543 10.5608 11.4881 10.6893C11.5017 10.7367 11.5558 10.7434 11.5558 10.7502C11.5625 10.7772 11.5287 10.8719 11.5693 10.9261L11.6437 10.8517C11.6775 10.9531 11.6437 11.102 11.6775 11.1967C11.6978 11.244 11.7654 11.2034 11.7924 11.244C11.8195 11.2846 11.8059 11.3725 11.8262 11.4131C11.86 11.4808 11.9682 11.5078 11.8938 11.6634H12.002C12.002 11.6634 11.9885 11.8393 12.002 11.8934C12.0156 11.9407 12.1575 11.9272 12.0832 12.0625H12.144V12.1437L12.0696 12.1234V12.1775C12.286 12.1572 12.1981 12.394 12.2522 12.5157C12.2725 12.5631 12.3469 12.5631 12.3536 12.5969C12.3536 12.6307 12.3198 12.6848 12.3266 12.7389C12.3266 12.7525 12.428 12.8201 12.4551 12.9351C12.5835 13.4492 12.8134 14.0851 12.9486 14.6263C13.6316 17.4809 13.6045 20.5452 13.6451 23.481C13.7127 28.9196 13.5369 34.3516 13.6181 39.7699C13.6181 39.9796 13.7398 40.2434 13.5842 40.4328C13.5842 40.4531 13.6519 40.4329 13.6586 40.5005C13.7465 41.1431 13.6924 41.9751 13.7262 42.6448C13.9223 46.5141 14.1725 50.3834 14.1657 54.2595L14.1319 55.8221C14.328 55.795 14.5512 55.8221 14.7337 55.8086C14.7811 55.8086 14.8284 55.7477 14.8892 55.7477C14.9366 55.7477 14.9704 55.8086 15.0177 55.8018C15.0853 55.8018 15.0853 55.7071 15.1124 55.7071C15.1597 55.7071 15.207 55.7409 15.2544 55.7409C15.349 55.7341 15.5519 55.6733 15.6195 55.6733C15.6398 55.6733 15.6398 55.7409 15.6668 55.7477C15.7682 55.768 16.3227 55.8965 16.3565 55.8965C16.6067 55.8897 17.0124 55.7883 17.2828 55.7477C21.3398 55.1592 25.4982 54.8818 29.5822 54.6045L31.4416 54.5707L31.516 52.8931L31.4416 52.8728L31.516 52.7645L31.4416 52.7307C31.5363 52.7646 31.5363 52.4331 31.5431 52.3384C31.5431 52.2775 31.4957 52.2369 31.4957 52.2031C31.5093 51.9325 31.6107 51.6281 31.5228 51.3507C31.7053 51.256 31.5566 51.2899 31.5498 51.1343C31.5363 50.9313 31.6039 50.5864 31.6039 50.3632C31.6377 48.6517 31.6242 46.8997 31.6918 45.2018C31.5431 45.168 31.6715 45.1139 31.6851 45.053C31.6851 45.0192 31.6986 44.7486 31.6986 44.7351C31.6851 44.6945 31.6107 44.7351 31.6242 44.6742L31.6986 44.6539C31.6242 44.2886 31.6648 43.8895 31.6648 43.5107C31.658 41.4002 31.685 39.2694 31.6039 37.1656C31.5904 36.8612 31.5904 36.7936 31.5363 36.4959C31.4755 36.1306 31.5228 35.7247 31.516 35.3662C31.489 34.223 31.4619 33.046 31.658 31.9366C31.5295 31.9028 31.6039 31.5646 31.658 31.4564C31.658 31.4361 31.5836 31.4428 31.5836 31.4158C31.5633 31.3346 31.6513 30.7867 31.6445 30.6176C31.6175 29.0144 31.4484 27.1609 31.3267 25.5645C31.3132 25.3818 31.2591 25.1924 31.2591 25.0098L31.3267 24.976L31.2185 24.9218L31.2861 24.8677C31.2523 24.8001 31.2388 24.7121 31.232 24.6377C31.1306 23.2713 31.0562 21.9184 30.9075 20.5587C30.8534 20.0649 30.7925 19.5643 30.7384 19.0841C30.6032 19.0299 30.7046 19.0435 30.7181 18.9691C30.752 18.7797 30.637 18.5564 30.61 18.367C30.5424 17.907 30.5018 17.4065 30.4206 16.9329C30.3395 16.4594 30.2178 16.013 30.1502 15.5462L30.2246 15.4853C30.1028 15.4718 30.0555 15.2689 30.1502 15.1945C30.0285 15.208 30.0961 15.0998 30.0758 15.0321C29.7851 14.0716 29.643 13.0637 29.3658 12.0896C28.9872 10.7434 28.3854 9.41761 28.0406 8.03765C28.0135 7.93618 28 7.78734 27.9797 7.67911C28.0067 7.65205 28.2366 7.76706 28.169 7.86177H28.2772L28.2434 7.93617C28.4057 7.9294 28.3719 8.04441 28.3989 8.07146C29.1224 8.80879 29.5078 10.182 29.7648 11.0681C30.1164 12.2857 30.468 13.5101 30.6708 14.7683L30.7452 14.8292H30.6708V14.8833C30.7993 15.1201 30.8128 15.4515 30.8602 15.7221C31.6513 19.8485 31.8879 24.083 32.1381 28.2973C32.3409 31.6728 32.5032 35.0551 32.5438 38.4306C32.5505 39.0461 32.5303 39.6617 32.5438 40.2773L32.4694 40.3449L32.5438 40.4937C32.5303 43.4769 32.5235 46.4465 32.5776 49.4161C32.5776 49.6055 32.6384 49.8287 32.6182 50.0384L32.5438 50.079C32.7331 50.167 32.51 50.5255 32.6925 50.6675C32.7061 50.6946 32.6249 50.6675 32.6182 50.7081C32.6046 50.769 32.6587 51.1478 32.6587 51.256C32.6723 52.176 32.7737 53.0419 32.8075 53.9483C32.8075 54.0701 32.8278 54.4016 32.8075 54.4963C32.794 54.5368 32.7196 54.4962 32.7331 54.5571H33.3619C33.5039 53.5289 33.6662 52.5007 33.8014 51.4725C34.2207 48.3202 34.4438 45.4521 34.437 42.2593C34.437 40.5749 34.4235 38.8635 34.3627 37.1724C34.3018 35.4407 34.126 33.7969 34.0651 32.0855C33.9908 30.0088 34.1395 27.8306 33.957 25.7471C33.8691 24.7324 33.5783 23.7381 33.4498 22.7504C33.4296 22.5881 33.4498 22.3851 33.4025 22.216L33.4769 22.1754C33.3484 21.9657 33.389 21.6005 33.3484 21.3434C32.936 18.9014 32.2125 16.4662 31.6445 14.0918C31.0292 11.5146 30.5626 8.80202 29.758 6.28563C29.7039 6.13004 29.5551 5.62269 29.4943 5.51446C29.474 5.47387 29.4605 5.44684 29.4064 5.4536L23.0167 5.85946C23.0167 5.91357 23.0167 5.96091 23.0302 6.01503C23.2466 6.90118 23.659 7.87529 23.916 8.78173C24.8085 11.9002 25.2412 15.0592 25.3765 18.3062C25.39 18.6038 25.4238 19.1247 25.3765 19.402C25.363 19.4899 25.0993 19.7741 25.0181 19.7808C24.8491 19.8079 24.7138 19.659 24.6124 19.544C24.342 19.2329 24.1662 18.8541 23.9092 18.5429C23.5171 17.7041 22.8679 16.8856 22.4961 16.0536C22.469 15.9927 22.5028 15.9318 22.4961 15.925C22.4893 15.9115 22.4149 15.9048 22.3879 15.8642C22.3608 15.8236 22.2459 15.4312 22.1715 15.5124C22.1106 16.0806 21.874 16.6015 21.7117 17.1359C21.4818 17.88 21.2722 18.8879 20.9814 19.5711C20.853 19.8823 20.4202 19.7538 20.3594 19.4494C19.8387 16.9938 19.1896 14.5721 18.5135 12.1572C18.1145 10.7502 17.6412 9.28906 17.2828 7.92939C17.1408 7.37471 17.0124 6.81327 16.8771 6.25858L16.0387 6.42092C14.2942 6.3871 12.5565 6.61031 10.8187 6.69825L9.52728 6.76592L8.88494 6.73211C8.81056 6.6374 8.90521 6.42767 8.76998 6.4412V6.40738C8.89169 6.42091 8.85112 6.28561 8.89169 6.2315C8.96606 6.13679 9.05397 6.24504 9.08778 6.24504C9.29063 6.24504 9.75719 6.19767 10.0074 6.18414C11.691 6.0962 13.4017 5.89327 15.0853 5.85269C15.6601 5.83916 16.2348 5.85272 16.796 5.96771L16.8095 5.9474ZM8.20201 3.54601C8.14116 3.44454 8.42513 3.16721 8.10734 3.18074C7.97211 3.18074 7.49203 3.25511 7.39061 3.30923C7.32299 3.34981 7.25538 3.55955 7.24862 3.64072C7.19453 4.07365 7.28243 5.04771 7.31624 5.51446C7.34329 5.88651 7.39738 6.6171 7.5529 6.93503C7.59347 7.00944 7.63404 7.06353 7.70166 7.11765C7.98565 6.88089 8.14116 6.50208 8.24935 6.15033C8.27639 6.06239 8.21553 5.94062 8.35077 5.84592C8.16144 5.77151 8.35077 5.71064 8.35077 5.69035C8.36429 5.61594 8.31019 5.54153 8.32371 5.48065C8.32371 5.44683 8.38457 5.41301 8.38457 5.36566C8.38457 5.31831 8.3102 5.26418 8.3102 5.18301C8.3102 5.11536 8.38457 5.13566 8.39133 5.10184C8.41162 4.97331 8.34399 5.0139 8.42513 4.85155C8.43866 4.83126 8.36428 4.85157 8.344 4.78393C8.29667 4.63511 8.38458 4.41186 8.3102 4.26305L8.38457 4.1751L8.3102 4.15479C8.39134 4.03979 8.26963 4.09394 8.26963 4.01276C8.26963 3.94512 8.31696 3.87069 8.3102 3.83011C8.3102 3.80981 8.19524 3.8166 8.23581 3.68131L8.3102 3.60687L8.20201 3.54601ZM9.89918 18.1438C9.86537 18.1032 9.83833 17.2712 9.81804 17.1359C9.50701 14.7209 8.96607 12.3466 8.16144 10.0602L7.97889 9.67465C7.97889 9.87758 8.00592 10.094 8.00592 10.2902C8.00592 10.6555 7.94506 11.0275 8.00592 11.386L7.93155 11.4266L7.97212 11.7514C7.83012 11.7987 7.97212 11.8055 7.97212 11.9407C7.98564 12.1775 7.92479 12.4481 7.91127 12.6781C7.89774 12.9554 7.9383 13.4154 7.85716 13.6657C7.84364 13.6995 7.80984 13.6928 7.78279 13.6928L7.85716 13.7536C7.80307 13.943 7.83688 14.146 7.81659 14.3354C7.72869 15.1742 7.52584 16.1348 7.30947 16.9533C7.28243 17.048 7.33652 17.3727 7.18777 17.3794L7.26214 17.4335C7.18776 17.5688 7.22834 17.9274 7.03901 17.8935C7.21482 18.0694 6.97141 18.2655 6.94436 18.4482C6.92408 18.5497 6.97139 18.6985 6.93083 18.8203L6.82264 18.7864C6.82264 18.8541 6.86997 18.915 6.86321 18.9894C6.85644 19.0638 6.78884 19.0367 6.78884 19.057C6.80912 19.402 6.6874 19.4967 6.58598 19.774C6.57245 19.8214 6.60626 19.9905 6.56569 20.0717L6.49133 20.0311C6.57246 20.2476 6.43047 20.4505 6.38314 20.6602C6.28171 20.579 6.26143 20.6873 6.38314 20.7143C6.22086 21.0525 6.16677 21.4516 6.02477 21.7966C5.99773 21.8643 5.90306 21.8102 5.97744 21.9319L5.90982 21.959C5.82868 22.3513 5.61232 22.9128 5.47708 23.3186C5.4568 23.3728 5.40947 23.5081 5.37567 23.5554C5.34186 23.6028 5.26748 23.6095 5.26748 23.6366C5.26748 23.6772 5.30804 23.738 5.30804 23.7786C5.30804 23.7922 5.16605 23.9342 5.139 24.0222C5.11196 24.1236 5.2269 24.1507 5.04433 24.2251L5.11872 24.2995L4.96996 24.3536L5.00376 24.6513L4.89558 24.6174L4.96996 24.7663L4.89558 24.7865L4.93616 24.9286C4.91588 24.9895 4.84149 24.9489 4.83472 24.9556C4.77387 25.0098 4.80769 25.233 4.78064 25.3277C4.73331 25.5374 4.61159 25.7539 4.60483 25.9839C4.53722 25.9974 4.57779 25.923 4.57103 25.9095C4.54399 25.8824 4.48313 25.9365 4.46284 25.9636C4.62512 26.2206 4.40876 26.5724 4.34114 26.8362C4.31409 26.9512 4.32761 27.0797 4.28704 27.188C4.26675 27.2421 4.2059 27.2421 4.2059 27.2624C4.17209 27.7223 4.06391 28.2094 4.02334 28.6558C3.89487 30.1982 4.10449 32.7484 5.14577 33.9051C5.80841 34.6357 6.38313 34.9942 7.30947 34.3786C9.2771 33.0798 8.30344 29.2782 7.5529 27.5397C7.51909 27.4585 7.50557 27.3638 7.44471 27.2894L7.51908 27.2353C7.36356 27.2353 7.43119 27.1135 7.40415 27.0391C7.39062 27.0053 7.34329 27.0053 7.33653 26.985C7.323 26.9579 7.07281 26.4777 7.26214 26.6468C7.26214 26.6468 7.26216 26.7076 7.30273 26.7347C8.74971 27.9794 9.22301 29.9952 9.08778 31.8216C9.08778 31.8757 9.12159 31.9434 9.10806 32.0043L9.03369 32.0651L9.10129 32.0787C9.01339 32.5116 9.01341 32.9378 8.84437 33.3504H8.73618V33.391C8.81732 33.3842 8.82409 33.3978 8.8038 33.4722C8.78352 33.5466 8.47247 34.1554 8.4319 34.1892C8.41838 34.196 8.15467 34.2569 8.27638 34.2975C8.27638 34.2975 8.3102 34.2704 8.33048 34.2907L8.28991 34.4192L8.22229 34.3854C8.04649 34.7439 7.55965 35.0618 7.20129 35.2242C5.83544 35.833 4.60483 34.6154 4.03686 33.4722C3.97601 33.3504 3.91515 33.2895 3.8881 33.2354C3.8881 33.2287 3.92193 33.1542 3.90164 33.0934C3.80698 32.7551 3.6447 32.3966 3.56356 32.0449C2.82655 28.6964 4.03686 25.4698 5.07138 22.4798C5.78135 20.4234 6.42371 18.4008 6.84969 16.2565C6.92407 15.8777 6.94436 15.3771 7.04578 15.0186C7.05254 14.9848 7.0931 14.9915 7.12015 14.9915L7.04578 14.9307C7.22158 13.9498 7.28243 12.9554 7.31624 11.9611C7.33653 11.3455 7.39062 10.6622 7.34329 10.0331C7.34329 9.94521 7.28243 9.76934 7.22834 9.91816C7.16748 10.094 7.15395 10.0467 7.0931 10.1482C6.73473 10.7637 6.40343 11.2914 6.05183 11.9002C6.01802 11.961 5.96392 11.9678 5.92335 12.076C5.90983 12.1166 5.94363 12.1708 5.93687 12.1775C5.90306 12.2316 5.79488 12.3196 5.71375 12.4548C5.40947 12.969 5.08491 13.5439 4.78064 14.0986C4.21943 15.1268 3.64468 16.2768 3.14432 17.4065C3.06995 17.5756 3.0429 17.6094 3.02262 17.8056C3.02262 17.8191 2.89414 17.8665 2.955 18.0085L2.88063 17.9679C2.93472 18.137 2.81977 18.1438 2.79273 18.1979C2.75892 18.2791 2.69807 18.4347 2.67102 18.5226C2.64398 18.6173 2.73864 18.6647 2.58312 18.7323C2.65074 18.8541 2.51551 18.942 2.46142 19.0841C2.38028 19.3073 2.25856 19.5847 2.17742 19.8282C2.0219 20.2476 1.8799 20.7346 1.77172 21.1202C1.71763 21.3096 1.67031 21.5464 1.6365 21.6884C1.16995 23.5351 1.08203 25.2195 1.11584 27.1338C1.15641 29.657 1.34574 32.1801 1.52154 34.6898C1.64325 36.4553 2.21122 38.0382 2.25855 39.7699C2.26532 40.1081 2.25855 40.4328 2.25855 40.7711C2.25855 40.9199 2.35323 41.0484 2.22476 41.1769L2.29912 41.2108L2.23152 41.2446C2.23829 41.576 2.19771 41.9075 2.18419 42.239C2.18419 42.3404 2.22476 42.4419 2.22476 42.496C2.22476 42.5231 2.15713 42.496 2.15037 42.5704C2.13008 42.7057 2.19094 42.8748 2.17742 42.9763C2.17742 43.0304 2.11657 43.0778 2.11657 43.1657C2.10304 43.3416 2.17067 43.6663 2.14362 43.7948C2.1301 43.8692 2.07601 43.7339 2.08277 43.9775C2.08277 44.4307 2.06247 44.938 2.00838 45.3439C1.94076 45.8715 1.96106 46.5006 1.9543 47.035C1.9543 47.2515 1.94076 47.2244 1.96781 47.4476C1.96781 47.4679 1.90695 47.4612 1.90019 47.4815C1.85962 47.6573 1.86638 48.5705 1.85962 48.8141C1.85962 49.5649 1.87991 50.3564 2.03543 51.0869L2.35997 51.1749L10.5618 55.0442L10.6024 55.1592C10.6159 54.9833 10.6565 54.8007 10.6632 54.6248C10.7173 52.3857 10.4063 49.9505 10.244 47.7047C9.97354 44.0721 9.79775 40.4261 10.0885 36.7935C10.1155 36.435 10.1426 36.0495 10.1899 35.6842C10.2034 35.5962 10.2034 35.373 10.2981 35.4L10.2237 35.3459C10.2981 35.1701 10.2846 34.9468 10.3184 34.7507C10.3387 34.6086 10.3725 34.6154 10.3725 34.6086C10.386 34.541 10.3252 34.4057 10.3387 34.3177C10.4266 33.9119 10.4874 33.3166 10.5821 32.8837C10.5888 32.8431 10.5483 32.6672 10.5483 32.5928C10.6362 31.2331 10.7985 29.887 10.697 28.5341L10.7782 28.4597C10.6024 26.5859 10.4604 24.631 10.3049 22.7843C10.2575 22.2093 10.2034 21.6275 10.1426 21.0458L10.2237 20.9714C10.1155 20.7752 10.0479 20.2341 10.0479 20.0041C10.0479 19.9026 10.1899 19.9161 10.0412 19.862L9.89918 18.2047L9.96678 18.1506C9.96678 18.1506 9.91269 18.1506 9.90593 18.1438H9.89918ZM5.04433 24.2657V24.2995C5.04433 24.2995 5.07138 24.2725 5.04433 24.2657Z" fill="#6F7A58" stroke="#6F7A58" stroke-width="0.85" stroke-linecap="round" stroke-linejoin="round"/>
<path d="M21.6847 29.4135C21.9551 30.5905 22.3541 31.957 22.5434 33.1407C22.6245 33.6616 22.6042 34.1419 22.6245 34.656C22.4893 34.6695 22.5163 34.5274 22.4893 34.4733C22.3067 34.1351 22.0701 33.7293 21.9686 33.4519C21.7523 32.8837 21.6847 32.2614 21.5224 31.6729C21.0694 31.9299 20.6299 31.9231 20.1227 31.9705C20.1565 32.1261 20.0822 32.2952 20.0822 32.4305C20.0619 33.4046 20.2106 34.4395 19.9131 35.3866C19.8726 35.4271 19.8455 35.6436 19.7711 35.6165C19.7103 35.5962 19.6291 35.4474 19.5953 35.3866C19.2032 34.5342 19.4533 33.2354 19.4195 32.3222L19.4939 32.3425C19.5277 32.2478 19.4263 32.2816 19.4195 32.2478C19.3722 32.0449 19.4533 31.5917 19.4533 31.3684C19.4872 29.4067 19.548 27.2421 19.7508 25.2939C19.7779 25.0368 19.8252 24.5972 20.1498 24.6378V24.5295C20.2715 24.4822 20.3323 24.6175 20.3932 24.631C20.427 24.6377 20.4811 24.5971 20.5149 24.6174C20.596 24.6716 20.9274 26.0786 20.9747 26.2951C21.2181 27.3368 21.4277 28.3921 21.6644 29.4203L21.6847 29.4135ZM20.4202 26.8092C20.2918 26.7821 20.3932 26.9444 20.2715 26.9174L20.3459 26.9783L20.1565 31.3008C20.5825 31.1655 21.0423 31.2196 21.448 31.409C21.5156 31.2264 21.4277 31.2332 21.4142 31.1993C21.1505 30.3335 21.0761 29.4406 20.8259 28.6559L20.4202 26.8024V26.8092Z" fill="#6F7A58" stroke="#6F7A58" stroke-width="0.85" stroke-linecap="round" stroke-linejoin="round"/>
<path d="M29.8391 35.2242C29.8391 35.2242 29.8932 35.3324 29.927 35.373C29.9473 35.4001 30.0014 35.4001 30.0014 35.4204C30.0014 35.5218 29.785 35.6842 29.8526 35.8398L29.7783 35.7315L29.7512 35.8465C29.6025 35.9277 29.4267 35.8803 29.305 35.9074C25.7754 36.5568 22.2053 37.0168 18.6419 37.5444C17.3437 37.7338 15.6803 38.16 14.3618 37.9841C14.301 37.9773 14.2874 37.8556 14.159 37.9097C14.1454 37.8421 14.2333 37.8962 14.2604 37.8691C14.2739 37.8556 14.2536 37.788 14.2874 37.7609C14.3889 37.6865 15.2273 37.4497 15.3964 37.4024C16.0184 37.2535 16.6675 37.1994 17.2964 37.0912C20.4135 36.5635 23.5441 36.178 26.6612 35.6639C27.574 35.6301 28.7099 35.2039 29.6092 35.1836C29.6566 35.1836 29.8053 35.2039 29.8324 35.2242H29.8391Z" fill="#6F7A58" stroke="#6F7A58" stroke-width="0.85" stroke-linecap="round" stroke-linejoin="round"/>
<path d="M29.3253 24.1304C29.3253 24.1304 29.3794 24.2251 29.3591 24.2657C29.1427 24.401 29.048 24.6174 28.7843 24.6242C28.6762 24.6242 28.0811 24.5633 28.0473 24.5972L27.8242 28.4326C27.9932 28.4326 28.1285 28.5003 28.3043 28.5273C28.6762 28.5747 29.0818 28.4462 29.3726 28.7844C29.5281 28.9603 29.4064 29.055 29.2509 29.1429C29.1765 29.1835 29.0616 29.1429 29.0751 29.2444L29.021 29.17C28.9601 29.1903 28.906 29.2106 28.8384 29.2106C28.4868 29.2106 28.1352 29.17 27.7904 29.17C27.7431 29.2038 27.716 30.0358 27.7025 30.1779C27.6822 30.4079 27.6619 30.6446 27.6416 30.8814C27.5875 31.5172 27.4861 32.1261 27.4658 32.7687C27.4523 33.1543 27.4658 33.5263 27.5673 33.8984C27.5808 33.9389 27.8986 33.9931 27.9527 33.9998C28.2772 34.0269 28.5071 33.9457 28.8384 34.0337C29.3996 34.1757 29.3185 34.4395 28.8384 34.6357C28.737 34.6763 28.4801 34.7642 28.3719 34.798C27.9729 34.913 27.3374 34.8116 27.0804 34.4666C26.6747 33.9051 26.7491 32.904 26.7964 32.2546C26.8167 31.9705 26.837 31.6255 26.8776 31.3414C26.8979 31.1587 26.9384 31.1655 26.9384 30.9964C26.9384 30.5364 27.0399 30.0764 27.0128 29.6367C27.121 29.6029 27.0534 29.5623 27.0601 29.4676C27.1007 29.0347 27.1345 28.6018 27.1548 28.1621L27.2697 28.1418C27.2833 28.0876 27.2224 28.1215 27.1954 28.0809C27.1345 27.9591 27.2224 27.5803 27.2359 27.4247C27.2495 27.2488 27.2089 27.0324 27.2359 26.87C27.2427 26.8024 27.3103 26.8227 27.3171 26.7956C27.3171 26.7483 27.2697 26.6942 27.2765 26.6197C27.3103 26.1936 27.3576 25.7066 27.3712 25.2466C27.3712 25.1451 27.29 24.8069 27.4185 24.8272L27.3441 24.773L27.4185 24.0763C27.5267 24.0628 27.5402 23.9748 27.6213 23.941C27.7498 23.8869 28.737 23.9207 28.906 23.9545C28.9939 23.9748 29.2779 24.0831 29.332 24.1372L29.3253 24.1304Z" fill="#6F7A58" stroke="#6F7A58" stroke-width="0.85" stroke-linecap="round" stroke-linejoin="round"/>
<path d="M30.468 36.5433C30.468 36.5433 30.5559 36.7259 30.5829 36.7665C30.6167 36.8139 30.7046 36.8139 30.6911 36.8815C30.61 36.9356 30.637 37.0844 30.6032 37.1318C30.5762 37.1724 30.4883 37.1656 30.4409 37.1859C30.1299 37.3415 29.7512 37.3415 29.4064 37.4092C26.384 38.0247 23.4224 38.6674 20.3526 39.0732C19.0814 39.2424 17.2761 39.4859 16.0184 39.3032C15.9102 39.2897 15.8359 39.195 15.7074 39.2288C15.7074 39.1747 15.8156 39.1544 15.8562 39.1409C17.3505 38.5591 19.5277 38.4915 21.1302 38.2615C23.943 37.8624 26.7423 37.2062 29.5078 36.6921C29.6295 36.6718 30.4274 36.5162 30.468 36.5433Z" fill="#6F7A58" stroke="#6F7A58" stroke-width="0.85" stroke-linecap="round" stroke-linejoin="round"/>
<path d="M18.1551 25.1721C18.2633 25.321 18.4661 25.5104 18.3579 25.7201C18.4053 25.7539 18.4526 25.7201 18.4323 25.8148C18.2159 25.8824 18.0604 26.038 17.817 25.9365C17.6412 25.8621 17.5736 25.0707 17.107 25.4969C17.0868 25.5172 16.8163 25.9027 16.8095 25.9365C16.0387 27.9118 16.1672 30.807 16.512 32.8837C16.5932 33.3775 16.7351 33.9795 16.9718 34.4869C17.08 34.7169 17.3166 35.1836 17.6277 35.1227C17.7426 35.1024 18.101 34.798 18.1077 34.6628C18.1956 34.6628 18.1077 34.798 18.1077 34.8319C18.1077 34.8522 18.1686 34.8454 18.1754 34.8725C18.2024 35.001 18.1416 35.3865 18.0672 35.4948C17.9928 35.603 17.844 35.5963 17.7697 35.6436C17.7494 35.6571 17.6885 35.9683 17.5668 35.7316L17.4722 35.806C17.4857 35.6707 17.3234 35.7654 17.2152 35.7451C17.2017 35.7451 16.9583 35.6301 16.938 35.6165C16.8704 35.5759 16.5864 35.2851 16.5661 35.2107C16.5391 35.1227 16.654 35.1025 16.485 35.0957C16.4647 34.9266 16.3362 34.798 16.2754 34.656C16.0522 34.1216 15.8832 33.3843 15.7818 32.7957C15.5924 31.7405 15.5181 30.5161 15.5316 29.4067C15.5451 28.6559 15.5992 27.8915 15.7344 27.1609L15.6668 27.1068C15.6668 27.1068 15.7209 27.1068 15.7277 27.0933C15.775 27.0256 15.8764 26.5386 15.9102 26.4033C15.9846 26.1259 16.0657 25.8757 16.228 25.578C16.3092 25.436 16.485 25.3075 16.4782 25.1113L16.5864 25.1519C16.5729 24.9963 16.8974 24.8475 17.0259 24.8001C17.6006 24.6107 17.8035 24.7122 18.1483 25.1721H18.1551Z" fill="#6F7A58" stroke="#6F7A58" stroke-width="0.85" stroke-linecap="round" stroke-linejoin="round"/>
<path d="M26.2758 24.5972L26.2419 24.7054C26.3772 24.7121 26.58 24.7257 26.5327 24.9016C26.5124 24.9828 26.3907 24.9827 26.5733 25.0436L26.5327 25.1451H26.3569L26.4313 25.2601C26.127 25.3074 25.8295 25.1519 25.5658 25.118C24.8896 25.0301 24.6056 25.6795 24.369 26.1936C24.3555 26.2139 24.3014 26.2207 24.3014 26.2207C24.3014 26.2342 24.3419 26.3154 24.3284 26.3762C24.3149 26.4777 24.2473 26.5589 24.227 26.6468C24.0512 27.4518 24.1188 28.25 24.1797 29.0685C24.1932 29.2444 24.1797 29.2647 24.2135 29.4067C24.2608 29.6435 24.2338 29.8802 24.2879 30.117C24.7138 30.0561 25.1871 29.9817 25.6131 30.0629C25.8701 30.3402 25.532 30.5635 25.2683 30.6784C25.0046 30.7934 24.6665 30.7393 24.396 30.7799C24.4231 31.2467 24.511 31.7067 24.5786 32.1666C24.68 32.8905 24.9167 33.8781 24.7206 34.656C24.7071 34.7169 24.5718 35.0889 24.4704 35.0145L24.1458 34.0269L23.6928 30.8746C23.5644 30.7934 23.4426 30.6243 23.4765 30.4688C23.4765 30.4349 23.5644 30.4349 23.5846 30.3876C23.6523 30.1982 23.4562 29.0955 23.4427 28.8047C23.4021 28.0606 23.4224 27.2218 23.5644 26.4912C23.6861 25.8621 23.8889 25.4089 24.3284 24.9354C24.369 24.8948 24.3555 24.8136 24.4231 24.7731C24.4366 24.7663 24.6394 24.6445 24.653 24.6378C24.8355 24.5836 25.2277 24.4551 25.3765 24.4416C25.6943 24.4078 25.958 24.5769 26.2758 24.5904V24.5972Z" fill="#6F7A58" stroke="#6F7A58" stroke-width="0.85" stroke-linecap="round" stroke-linejoin="round"/>
<path d="M25.4644 22.4663L25.5252 22.5746L25.5793 22.4663L25.674 22.5746L25.7822 22.4596L25.9647 22.5746C26.0121 22.4325 26.2014 22.4799 26.2961 22.5746L27.8986 22.6422V22.7505C27.7904 22.7302 27.7092 22.8113 27.6213 22.8249C27.547 22.8384 27.5199 22.8249 27.5334 22.7505H27.4996C27.4996 22.7978 27.4861 22.8316 27.4388 22.8519C27.3712 22.879 26.9587 22.9466 26.8505 22.9669C26.6815 22.994 26.4922 22.9669 26.3366 23.0481L26.2825 22.9737C26.2825 22.9737 26.2825 23.0278 26.269 23.0346C26.2014 23.0819 25.647 23.136 25.5117 23.1495C22.3946 23.4201 19.1829 23.4269 16.059 23.5689C15.8223 23.5825 15.5248 23.6434 15.2814 23.6366C15.0786 23.6298 14.9771 23.4404 14.9636 23.2578V23.2104C15.065 23.1563 15.1597 23.1157 15.2476 23.0548C15.2814 23.0278 15.2882 22.9602 15.3085 22.9534C15.3828 22.9128 15.6601 22.9534 15.7615 22.906L15.7818 23.0142C15.8426 23.0142 15.8359 22.9128 15.8832 22.906C15.9508 22.8925 16.2213 22.8722 16.3159 22.8654C16.512 22.8519 16.7081 22.879 16.9042 22.8654L16.9786 22.9804L17.0868 22.8316L17.1611 22.9804C17.1611 22.9804 17.2017 22.8993 17.2288 22.879C17.3708 22.7775 18.0266 22.8655 18.2295 22.8249L18.2701 22.9398L18.3444 22.791C18.5067 22.8519 18.8313 22.7099 18.8921 22.8654L18.9259 22.791H19.0003L19.0544 22.8654L19.0747 22.7572L19.1626 22.7843L19.1829 22.8316C19.2099 22.7166 19.4195 22.7166 19.4398 22.8316C19.4736 22.8316 19.4331 22.7775 19.5142 22.7505C19.6562 22.7099 19.9402 22.764 20.0957 22.7166L20.1565 22.791L20.2106 22.7166L20.3053 22.8249L20.3256 22.7099L20.5149 22.7437C20.5419 22.6287 20.6839 22.7098 20.7854 22.676L20.8192 22.7843C20.9071 22.5746 21.2992 22.7369 21.4953 22.6354L21.59 22.7505C21.59 22.7505 21.6035 22.676 21.6238 22.6558C21.6644 22.6287 22.1985 22.5881 22.1985 22.7099C22.2256 22.5881 22.3135 22.6422 22.4149 22.6354L22.4555 22.7505L22.4758 22.6422C22.5569 22.6422 22.638 22.6151 22.6245 22.7166L22.753 22.6084L22.8815 22.7166L22.9017 22.6084L22.9423 22.6828H22.9964C22.9964 22.6828 22.9964 22.6287 23.0032 22.6219C23.0573 22.5813 23.3074 22.6287 23.4021 22.6152L23.3615 22.6896H23.4359C23.4224 22.5407 23.7199 22.5543 23.8146 22.5814C23.8213 22.5814 23.9092 22.7911 23.8957 22.5814L24.3217 22.5475L24.3555 22.6963L24.3758 22.5475L24.5245 22.6219C24.6327 22.419 24.9978 22.5475 25.2074 22.5137L25.2277 22.6219L25.3765 22.4799H25.4644V22.4663ZM23.2534 22.7166V22.6422H23.2195V22.7166H23.2534Z" fill="#6F7A58" stroke="#6F7A58" stroke-width="0.85" stroke-linecap="round" stroke-linejoin="round"/>
<path d="M19.2708 21.0864L19.2978 21.0255C19.3925 21.0728 19.5615 21.1675 19.5953 21.0255C19.6562 21.1269 19.7306 21.0526 19.8117 21.0593C19.9267 21.0661 20.0416 21.1675 20.0686 21.0255L20.1024 21.0999L20.1971 21.0255C20.1971 21.0796 20.1971 21.0932 20.2512 21.0999C20.6772 21.154 21.2587 21.039 21.6847 21.1337L21.7252 21.0593C23.0573 21.1337 24.3961 21.0458 25.7281 21.2555C25.8971 21.2826 26.0865 21.384 26.269 21.357V21.4652L24.1459 21.7561C22.016 21.8237 19.8861 21.8508 17.7426 21.7561C17.6277 21.7561 17.5601 21.8575 17.4249 21.7425C17.337 21.6681 17.391 21.5734 17.1747 21.6073L17.1341 21.5193C17.2558 21.4923 17.1611 21.4111 17.1747 21.3028C17.1949 21.1405 17.2355 21.1608 17.391 21.1676V21.0728C17.4654 21.0593 17.5601 21.0323 17.6345 21.0323C18.1822 21.0187 18.7231 21.0728 19.2572 21.0796L19.2708 21.0864Z" fill="#6F7A58" stroke="#6F7A58" stroke-width="0.85" stroke-linecap="round" stroke-linejoin="round"/>
<path d="M29.3185 22.9602C29.2779 23.0075 29.163 23.1699 29.1494 23.1767C29.0007 23.2511 28.8316 23.0955 28.7099 23.2307C28.6964 23.0481 28.3245 22.8993 28.7099 22.8249L28.6356 22.764C28.6153 22.5813 28.7573 22.5543 28.8249 22.4731C29.1021 22.1078 29.3861 21.5531 29.927 21.6614C30.1366 22.1078 29.6025 22.622 29.3252 22.9534L29.3185 22.9602Z" fill="#6F7A58" stroke="#6F7A58" stroke-width="0.85" stroke-linecap="round" stroke-linejoin="round"/>
</svg>
