<svg width="47" height="55" viewBox="0 0 47 55" fill="none" xmlns="http://www.w3.org/2000/svg">
<path d="M15.0429 54.5827C15.0091 54.5151 14.9009 54.5692 14.8671 54.5151C14.6508 54.2174 14.8536 53.2095 14.8739 52.8239C15.0429 49.1914 14.5967 45.5318 15.1308 41.8993L15.5636 38.8755C15.3134 38.8214 15.0429 38.8891 14.8063 38.8755C14.2315 38.8552 13.3796 38.8147 12.8522 38.6997C12.2504 38.5644 11.9732 38.1923 11.723 37.6512C11.5742 37.3265 11.4525 37.0626 11.6013 36.7109C11.608 36.6906 11.8379 36.3186 11.8582 36.305C12.2436 35.9871 13.2376 35.9465 13.7244 35.9127C16.8415 35.7165 20.1074 35.9262 23.2583 35.9533C25.8277 35.9736 28.4444 35.9803 31.0476 35.9736C31.6427 35.9736 32.2377 35.96 32.8327 35.9533C34.753 35.9533 36.8423 36.048 38.7491 35.9533C39.1616 35.933 39.4929 35.8518 39.8783 35.818C40.5815 35.7571 42.326 35.7639 42.9413 36.0615C43.0698 36.1224 43.5837 36.5891 43.6445 36.7109C43.8406 37.0965 43.6648 37.8811 43.3808 38.1855C43.2794 38.2938 42.6979 38.5576 42.5356 38.6049C41.7377 38.8417 40.8993 38.6591 40.0744 38.6929L40.426 42.4337C40.5071 42.4472 40.5342 42.366 40.6221 42.3457C41.021 42.2646 41.7445 42.3051 42.1908 42.2646C42.7317 42.2172 43.5363 42.1698 44.0434 42.0278C45.4701 41.6287 45.362 39.2476 45.4228 38.0976C45.4904 36.8326 45.6257 35.5474 45.4972 34.2825C45.4634 33.951 45.3146 32.801 45.1659 32.571C45.105 32.4763 44.9225 32.4154 44.8346 32.3343C44.7534 32.2599 44.5844 32.0163 44.4965 31.9757C44.3951 31.9284 43.9014 31.9081 43.7459 31.9013C42.3463 31.8405 40.9602 32.0163 39.5673 32.0366C38.269 32.0569 36.9438 31.9757 35.6523 31.9893C32.1363 32.0231 28.5661 32.4019 25.0366 32.2531C24.5024 32.2328 23.9074 32.2802 23.38 32.2125C23.2786 32.199 23.3394 32.1178 23.2988 32.1178C23.2515 32.2666 22.8661 32.2125 22.6903 32.2057C20.2629 32.1178 17.9437 32.1246 15.5095 32.2057C15.2187 32.2125 14.928 32.1922 14.644 32.2057L14.5967 32.1178L14.5493 32.2057L14.3735 32.1178C14.3532 32.2396 14.1369 32.226 14.0219 32.2057C13.9205 32.1922 13.8664 32.1178 13.8056 32.1178C13.7785 32.1178 13.8056 32.199 13.7244 32.2125C13.5824 32.2328 12.3315 32.2396 12.2707 32.199C12.2504 32.1854 12.2842 32.1178 12.2436 32.1246C12.2098 32.2396 12.1828 32.2125 12.0678 32.2125C11.8515 32.2125 11.6148 32.1516 11.3917 32.1652L11.412 32.0772C11.2159 32.2328 10.9792 32.1246 10.7628 32.1246C10.6749 32.1246 10.5735 32.1719 10.4518 32.1652C10.107 32.1652 9.75535 32.0434 9.41051 32.1652L9.36319 32.0772C9.26853 32.226 9.09949 32.1381 8.97778 32.1652C8.84255 32.199 8.70056 32.9972 8.68703 33.146C8.61266 34.0795 8.80196 35.0333 8.77492 35.9736C8.77492 36.1359 8.75465 36.7853 8.7276 36.88C8.71408 36.9274 8.55856 36.8665 8.7276 37.1032C8.71408 38.3479 8.22048 40.127 8.47066 41.3243C8.61265 41.994 9.24825 42.1766 9.85003 42.2916C11.0806 42.5284 12.3383 42.5216 13.5757 42.6501C13.8056 42.6772 14.5358 42.7584 14.6913 42.8869C14.7319 42.9207 14.9077 43.2387 14.9009 43.286C14.9009 43.4551 14.4952 43.5836 14.3668 43.6445L13.2173 43.4484C12.0408 43.5431 10.7493 43.4957 9.5728 43.3469C9.23472 43.3063 8.53151 43.1777 8.234 43.0425C8.17314 43.0154 8.15963 42.9072 8.09201 42.8733L8.02439 42.9613C8.02439 42.7381 7.81477 42.7651 7.72011 42.6366C6.98309 41.6828 7.25357 39.4438 7.28738 38.2803C7.30766 37.6579 7.36852 37.022 7.37528 36.4065C7.3888 35.3377 7.23328 34.2148 7.32795 33.146C7.38204 32.5913 7.80801 32.1584 8.14609 31.7458C8.20695 31.6714 8.22047 31.5631 8.25428 31.5225C8.38951 31.3737 8.91015 31.2046 9.113 31.2925C9.07243 31.1099 8.9913 30.9408 8.97778 30.7514C8.95073 30.1358 9.0251 29.385 9.03186 28.7491C9.05891 25.9351 9.113 23.1684 9.07243 20.3476C9.03862 18.1085 8.80874 15.5583 9.20767 13.3463C9.22795 13.2381 9.21444 13.1231 9.32263 13.0825L9.28204 12.9743C9.4646 13.0284 9.45108 12.7037 9.53898 12.5684C9.57279 12.521 9.64718 12.5142 9.67422 12.4737C9.89736 12.1354 9.99202 11.9934 10.3707 11.7769C10.6817 11.5943 11.1009 11.5266 11.4593 11.4725C11.4796 11.0261 12.0002 11.2222 12.3112 11.2155C14.1639 11.1817 16.0166 11.2155 17.8625 11.2155C18.1533 11.2155 19.9518 11.1343 20.06 11.202C20.0803 11.2155 20.0465 11.2831 20.0871 11.2764C20.1412 11.0937 20.4387 11.2155 20.601 11.2155C23.6167 11.1884 26.6594 11.1884 29.6548 11.2561C30.0334 11.2628 30.5743 11.1681 30.9598 11.1884C31.0409 11.1884 31.0206 11.2764 31.0409 11.2764C33.2722 11.1411 35.5035 11.3034 37.7484 11.2087C39.5537 11.3711 41.5281 11.0802 43.3132 11.2358C43.462 11.2493 43.8744 11.4455 43.9353 11.5537C43.9623 11.601 43.9353 11.689 43.9691 11.7566C44.4694 12.6901 44.6452 13.0284 44.7737 14.131C45.0036 16.0859 44.936 18.2438 44.9901 20.2258C44.9901 20.3881 45.1321 20.652 44.9495 20.7061L45.0374 20.7534C44.9901 21.342 45.0915 21.9508 45.078 22.5325C45.0644 23.0331 45.0442 23.6148 45.0374 24.1424C45.0306 24.8865 45.0306 25.6306 45.0374 26.368L44.9495 26.4491C45.0915 26.5777 44.9901 26.6927 44.9901 26.8415C44.9833 27.6668 44.963 28.5123 45.0374 29.3241L44.9495 29.3714C45.0103 29.4864 45.1253 29.7164 44.9495 29.7638C45.0103 29.8111 45.0306 29.8585 45.0374 29.9329C45.078 30.2711 45.0036 30.6702 45.0374 31.0152C45.0442 31.049 45.4431 31.2317 45.5175 31.2858C45.5581 31.3196 45.9705 31.8066 45.984 31.8404C46.0516 31.996 46.0111 32.226 46.0449 32.3681C46.0787 32.5101 46.2139 32.7401 46.2545 32.8957C46.4912 33.8157 46.383 35.4865 46.3897 36.4809C46.3897 36.6162 46.3559 36.8191 46.4303 36.9138V36.9544C46.2748 37.0694 46.3897 37.225 46.3897 37.3671C46.3897 37.5294 46.3559 37.6241 46.3897 37.7797C46.3965 37.8203 46.3762 37.8812 46.4303 37.9082V37.9488C46.3289 38.2735 46.3965 38.6456 46.3897 38.977C46.3694 39.6399 46.2951 40.2758 46.2612 40.9319C46.2612 41.0605 46.3154 41.189 46.2545 41.3649C46.2342 41.419 46.0787 41.3649 46.2545 41.5678C46.0381 41.5881 46.1733 41.7301 46.1531 41.7775C46.1531 41.7775 46.0922 41.7775 46.0787 41.8181C46.0043 42.021 45.984 42.1496 45.8217 42.3051C45.3011 42.799 44.9563 42.7448 44.3342 42.8937C43.2862 43.1507 42.441 43.3469 41.3523 43.3536C41.0481 43.3536 40.737 43.3875 40.4598 43.2657L41.5417 54.2716C41.2036 54.4677 40.7776 54.3933 40.3922 54.4069C37.5591 54.5286 34.6381 54.4339 31.7779 54.4474C27.9576 54.4677 24.1035 54.5286 20.2696 54.5354C19.0796 54.5354 17.8896 54.5354 16.6995 54.5354C16.2465 54.5354 15.7867 54.5354 15.3269 54.5354C15.2525 54.5354 15.1308 54.5083 15.0903 54.5827H15.0024H15.0429ZM43.3673 12.1016C43.1171 12.1354 42.8399 12.0475 42.61 12.0475C38.3907 12.034 34.185 12.1016 29.9928 12.0949C24.0223 12.0813 17.9639 11.9799 11.9461 12.1016C11.4863 12.6022 10.8913 12.2437 10.418 12.839C9.78917 13.6304 9.84327 15.6868 9.82975 16.6947C9.81622 17.8921 9.89059 19.0961 9.90411 20.307C9.9244 21.856 9.95821 23.4119 9.90411 24.9542L9.81621 25.0015C9.81621 25.0421 9.89736 24.9812 9.91088 25.0827C9.9785 25.6306 9.87031 26.2394 9.86355 26.7806C9.84326 28.005 9.96497 29.7164 9.82298 30.8799C9.81622 30.9611 9.74184 30.934 9.74184 30.9611C9.74184 31.0152 9.78241 31.1572 9.73507 31.2452L13.8867 31.3331C17.1728 31.2384 20.4522 31.1437 23.7248 31.3128C23.7789 31.3128 23.8195 31.2858 23.8668 31.2858V31.4143C23.9412 31.3669 23.9683 31.3399 24.0629 31.3264C24.2928 31.2993 25.5978 31.3873 25.6519 31.3264C25.591 31.1437 25.6384 30.9746 25.6384 30.819C25.6316 30.447 25.4964 29.7367 25.7398 29.4999L25.6519 29.3511C25.6925 28.7964 25.6181 28.2012 25.6519 27.6465C25.6654 27.4233 25.6924 27.2135 25.8277 27.0377C25.8074 26.9565 25.4491 26.9091 25.3814 26.8821C22.2643 25.7389 20.2764 22.5731 20.6483 19.157C20.6551 19.0758 20.7362 19.1029 20.7632 19.0082C20.8309 18.7985 20.7971 18.5144 20.8376 18.3791C20.9796 17.9394 21.2095 17.2765 21.4056 16.9112C22.9878 13.9687 26.3821 12.3925 29.6548 13.4139C35.8687 15.3418 36.4637 23.4728 30.8583 26.5033C30.6081 26.6386 30.3039 26.7468 30.0402 26.8685C30.0131 27.0309 30.1145 27.1932 30.1213 27.3421C30.1484 28.0185 29.9996 28.7896 29.9928 29.4729L30.1281 31.367C31.237 31.3331 32.3526 31.2317 33.4548 31.1911C35.8889 31.1167 38.3164 31.1978 40.7641 31.1437C41.7039 31.1234 42.6303 31.076 43.5566 31.076C43.7459 31.076 43.9488 31.0964 44.1381 31.1031L44.0908 27.2068C44.2057 23.3307 44.1854 19.387 43.9894 15.5042C43.9353 14.3542 43.8271 13.1366 43.347 12.0881L43.3673 12.1016ZM31.3925 15.0712C30.2092 14.2663 28.7217 13.9416 27.295 13.9822L26.5985 14.1039L26.5579 14.016C26.4836 14.2189 26.3686 14.1107 26.2199 14.1581C25.6654 14.3204 24.9014 14.618 24.4078 14.9157C21.6828 16.5324 20.6956 20.2123 22.1291 23.0263C22.2508 23.2631 22.6024 23.6622 22.6903 23.8583C22.7241 23.9327 22.6971 24.041 22.7174 24.068C22.7309 24.0816 22.7985 24.068 22.8391 24.1018C23.3124 24.5212 23.6099 24.988 24.1508 25.3533C26.9839 27.2541 30.7907 26.5168 32.7651 23.7772C33.2452 23.1142 33.4615 22.4513 33.6509 21.7952C33.7388 21.4975 33.9349 21.1999 33.8064 20.8752C33.8064 20.8481 33.8943 20.8549 33.8943 20.8211C34.0228 18.9405 33.4548 17.0194 32.0889 15.6665C31.9537 15.5312 31.5818 15.1998 31.3993 15.0712H31.3925ZM29.3167 27.1121L28.1875 27.2406C28.3227 27.5315 28.343 27.8156 28.3498 28.1335C28.3701 28.6814 28.3227 29.2767 28.316 29.8314C28.316 30.0817 28.2822 29.9938 28.2686 30.0885C28.2145 30.5146 28.2754 30.9881 28.2281 31.421L29.3572 31.3805C29.1747 30.6161 29.2355 29.8314 29.222 29.0535L29.3099 27.1188L29.3167 27.1121ZM26.869 27.1662C26.8216 27.1391 26.6323 27.2541 26.5309 27.1594C26.6188 28.2147 26.4836 29.2564 26.5309 30.3184L26.4362 30.3996C26.5918 30.4402 26.4903 30.4672 26.4903 30.5755C26.4903 30.8866 26.5174 31.1978 26.5241 31.509L27.3964 31.4684L27.5249 27.2879C27.3288 27.2541 27.0989 27.2879 26.9028 27.2406C26.869 27.2271 26.869 27.1729 26.8622 27.1662H26.869ZM17.9369 32.0772V32.1178C17.9369 32.1178 17.9639 32.0907 17.9369 32.0772ZM30.5 38.6794C30.5 38.6794 30.4864 38.6049 30.4729 38.6049C27.7615 38.8823 24.9284 38.5306 22.2035 38.7673L18.1803 38.8214L18.0518 48.7044C19.2486 48.657 20.4454 48.6773 21.6422 48.6638C25.6181 48.6096 29.6142 48.5082 33.5968 48.4608C34.3879 48.4541 35.2601 48.3932 36.0512 48.4202C36.4164 48.427 36.7477 48.5488 37.1128 48.5353L36.6327 38.6523L35.916 38.6117C34.7192 38.6658 33.5089 38.632 32.2985 38.6523C32.0146 38.6523 30.6487 38.7673 30.5067 38.6861L30.5 38.6794ZM41.0616 53.9266L39.4996 38.6658L37.1466 38.6455C37.1466 39.0311 37.2007 39.4167 37.221 39.8023C37.3697 42.6095 37.5929 45.5589 37.6267 48.3729C37.6267 48.5894 37.7619 48.9208 37.4374 49.0155C37.3292 49.0493 37.2683 48.9952 37.1804 49.0155C37.0317 49.0426 36.7341 49.1508 36.6057 49.1373C36.4772 49.1238 36.5245 48.9411 36.1797 48.9344C35.3413 48.9208 34.4893 48.9479 33.6441 48.9614C29.4451 49.002 25.2259 49.1305 21.027 49.1846C19.9383 49.1982 18.8565 49.1779 17.7679 49.2185C17.6056 49.0832 17.4906 48.8938 17.4839 48.6773C17.4839 48.5961 17.5244 48.5082 17.5244 48.4202C17.5041 46.5397 17.5785 44.6795 17.6056 42.7989C17.6259 41.4731 17.6259 40.1472 17.6529 38.8146C17.423 38.8552 17.1864 38.8079 16.9767 38.8146C16.855 38.8146 16.7266 38.862 16.5846 38.8688C16.4291 38.8688 16.2262 38.7538 16.1315 38.8891C15.9625 39.7955 15.8002 40.7155 15.692 41.6287C15.2931 45.0651 15.4148 48.3458 15.3878 51.7687C15.381 52.5466 15.4216 53.2907 15.2593 54.0551L41.0616 53.9266Z" fill="#6F7A58" stroke="#6F7A58" stroke-width="0.85" stroke-linecap="round" stroke-linejoin="round"/>
<path d="M20.3102 54.5353V54.5759H16.7401V54.5353C17.9301 54.5353 19.1202 54.5353 20.3102 54.5353Z" fill="#6F7A58" stroke="#6F7A58" stroke-width="0.85" stroke-linecap="round" stroke-linejoin="round"/>
<path d="M16.7401 54.5353V54.5759H15.1308C15.1782 54.5015 15.2931 54.5353 15.3675 54.5286C15.8273 54.5286 16.2803 54.5286 16.7401 54.5286V54.5353Z" fill="#6F7A58" stroke="#6F7A58" stroke-width="0.85" stroke-linecap="round" stroke-linejoin="round"/>
<path d="M46.4573 37.7796H46.4168C46.3829 37.6241 46.4168 37.5294 46.4168 37.367C46.4168 37.225 46.3018 37.0693 46.4573 36.9543V37.7796Z" fill="#6F7A58" stroke="#6F7A58" stroke-width="0.85" stroke-linecap="round" stroke-linejoin="round"/>
<path d="M46.4573 36.9071C46.3762 36.8056 46.4168 36.6094 46.4168 36.4741H46.4573V36.9071Z" fill="#6F7A58" stroke="#6F7A58" stroke-width="0.85" stroke-linecap="round" stroke-linejoin="round"/>
<path d="M8.20018 8.67201C8.43683 8.99671 8.63291 9.36877 8.88985 9.70023C9.24146 10.1467 9.66068 10.5323 9.992 10.9923C10.019 11.0937 9.91086 11.0531 9.85001 11.0464C9.07919 10.9111 8.68024 10.2887 8.23398 9.707C6.92899 7.99558 5.87418 6.09475 4.64357 4.33598C4.00798 3.42954 3.21686 2.52986 2.60832 1.63018C2.49337 1.45431 2.39872 1.319 2.38519 1.10253C2.51366 1.02812 2.69622 0.94022 2.83821 1.05522C4.65032 3.27397 6.10407 5.743 7.72686 8.09705C7.86885 8.30675 8.07847 8.51644 8.20018 8.68555V8.67201Z" fill="#6F7A58" stroke="#6F7A58" stroke-width="0.85" stroke-linecap="round" stroke-linejoin="round"/>
<path d="M14.2586 0.426016C14.2586 1.46775 14.1301 2.49596 13.934 3.5174C13.5689 5.41146 13.1158 7.34611 12.6831 9.22664C12.6358 9.42958 12.4397 10.3698 12.3518 10.451L12.2842 10.4849C12.061 10.4646 12.007 10.4375 11.9123 10.2481C12.6087 7.45435 13.0956 4.61328 13.7514 1.81277C13.8055 1.57601 14.0219 0.622211 14.1301 0.493686C14.1639 0.446334 14.1977 0.419251 14.2586 0.426016Z" fill="#6F7A58" stroke="#6F7A58" stroke-width="0.85" stroke-linecap="round" stroke-linejoin="round"/>
<path d="M8.07169 12.1083C8.13931 12.1692 8.13254 12.3519 8.12578 12.4466C8.00407 12.4195 7.88913 12.5277 7.80123 12.5345C7.74714 12.5345 7.03717 12.2436 6.92898 12.1963C5.93503 11.7566 4.9546 11.1884 3.97416 10.7149C2.99373 10.2413 1.45208 9.72725 0.654214 9.07109C0.613645 9.03727 0.383739 8.84111 0.43107 8.79376C1.00581 8.92229 1.56703 9.0846 2.11472 9.30783C3.81865 10.0181 5.42789 10.9448 7.10477 11.716C7.30086 11.8107 7.95673 12.0001 8.07844 12.1083H8.07169Z" fill="#6F7A58" stroke="#6F7A58" stroke-width="0.85" stroke-linecap="round" stroke-linejoin="round"/>
<path d="M17.2539 24.3115C17.2066 24.3656 17.0984 24.3656 17.0308 24.3724C15.9693 24.4536 14.7927 24.3927 13.7176 24.413C12.9739 24.4265 12.007 24.5483 11.2835 24.4603C11.182 24.4468 11.1077 24.3791 11.0062 24.3656C11.0468 23.7433 11.0671 23.1007 11.0468 22.4783C10.9521 19.9552 10.4315 16.8097 10.8304 14.3406C10.871 14.0971 11.013 13.5153 11.2023 13.3665C11.5134 13.1298 12.6696 13.2448 13.1091 13.2313C13.8123 13.211 14.5358 13.1501 15.239 13.1433C15.523 13.1433 16.713 13.096 16.8685 13.211C17.0849 13.3665 17.1525 14.4286 17.1728 14.733C17.3621 17.317 17.2945 20.0161 17.3013 22.6136C17.3013 22.9654 17.4568 24.095 17.2472 24.3183L17.2539 24.3115ZM15.7394 23.9327C15.6109 23.6418 15.5906 23.3104 15.5771 22.9992C15.408 20.3137 15.5974 17.317 15.6177 14.5977C15.6177 14.4691 15.6177 14.2324 15.6177 14.1242C15.6109 13.9618 15.55 13.7859 15.55 13.6168L15.2187 13.5762C15.1917 15.6732 15.1173 17.804 15.1714 19.9146C15.1984 21.0848 15.4351 22.4377 15.266 23.5742C15.2525 23.6689 15.266 23.7568 15.266 23.8515C15.2255 23.8515 15.1984 23.8109 15.1917 23.7771C15.0564 23.3442 15.0294 22.0927 15.0023 21.5719C14.9685 20.8887 14.9821 20.2055 14.9618 19.5223C14.9618 19.4073 14.9144 19.299 14.9144 19.1773C14.8806 17.3644 15.0159 15.565 14.9347 13.7589C14.8739 13.6777 14.8062 13.6101 14.6981 13.6304C14.4614 15.7274 14.6102 17.8514 14.5628 19.9687L14.7386 23.9936L15.7394 23.9462V23.9327ZM15.8746 23.9327H16.8077L16.8753 23.7839C16.8888 21.9236 16.8347 20.0634 16.7874 18.2099C16.7536 16.8773 16.8009 15.5244 16.6589 14.2054C16.6522 14.1242 16.5778 13.5763 16.5507 13.5695H16.0504C16.0436 14.0565 16.0639 14.5436 16.0504 15.0306C15.9963 17.5064 16.0166 19.9484 16.0504 22.4242C16.0504 22.7827 16.0774 23.2495 15.9963 23.5945C15.9693 23.7095 15.8543 23.7974 15.8746 23.9327ZM13.7312 13.6709H13.2578C13.2714 13.8468 13.339 14.0295 13.3457 14.2054C13.4066 15.0915 13.3322 16.0521 13.3187 16.9518C13.3187 17.087 13.4269 17.2967 13.2578 17.3373C13.2578 17.3779 13.3187 17.3441 13.3322 17.3644C13.3931 17.4591 13.3119 18.2099 13.3187 18.3858C13.3187 19.0014 13.4404 19.7117 13.2578 20.2934C13.3998 20.3272 13.2984 20.6925 13.2984 20.8548C13.2916 21.8966 13.3255 22.9316 13.3457 23.9665L13.7785 23.9462C13.7514 23.7027 13.7041 23.4051 13.6906 23.1616C13.5756 20.2461 13.765 17.3238 13.7785 14.4151C13.7785 14.158 13.7176 13.9145 13.7244 13.6574L13.7312 13.6709ZM14.4344 13.6168H14.0016C14.0219 17.0735 13.792 20.5301 14.0016 23.98H14.5696C14.5696 23.8786 14.4952 23.7974 14.4885 23.6959C14.3465 22.4445 14.387 21.0037 14.3532 19.7387C14.3532 19.6373 14.3059 19.5425 14.3059 19.4343V15.6462L14.4411 13.6236L14.4344 13.6168ZM11.9055 13.7115C11.6553 13.6101 11.5201 13.7115 11.4322 13.9415C11.2361 14.4218 11.182 15.3688 11.1685 15.9032C11.1347 18.2573 11.4728 20.6249 11.5201 22.9519C11.5269 23.3104 11.5201 23.6621 11.4728 24.0206H11.9934L11.8988 13.7115H11.9055ZM12.913 13.6642H12.345L12.4329 24.0274C12.5208 24.0274 12.94 24.0545 12.9603 23.953C12.8657 22.8842 12.8657 21.8086 12.8657 20.7399C12.8657 20.6654 12.8995 20.591 12.8995 20.5234C12.8995 20.3746 12.8386 20.219 12.913 20.0431V13.6642Z" fill="#6F7A58" stroke="#6F7A58" stroke-width="0.85" stroke-linecap="round" stroke-linejoin="round"/>
<path d="M43.0359 19.5967C42.5897 20.0634 42.1502 19.9078 41.5619 19.9755C40.2434 20.1243 38.8032 20.361 37.4847 20.1378C36.6598 19.9957 36.342 19.7522 36.2338 18.9067C36.0783 17.6688 36.2541 16.3226 36.058 15.078C35.9836 14.2865 36.2676 13.6033 36.511 12.8727C36.5989 12.7848 36.7071 12.8727 36.8085 12.8727C36.9708 12.8592 37.1263 12.751 37.3427 12.751C37.6267 12.751 37.816 12.9066 38.0797 12.9336C39.121 13.0351 40.3043 12.9336 41.3455 12.9336C41.9744 12.9336 42.5761 12.5413 43.09 13.2313C43.6039 13.9213 43.5972 15.8491 43.5836 16.7421C43.5836 17.405 43.5701 18.0138 43.4349 18.6767C43.347 19.1029 43.3335 19.2923 43.0359 19.6034V19.5967ZM37.4847 13.3665C37.2074 13.4071 36.8355 13.9077 36.7544 14.1647C36.6665 14.4353 36.7274 14.618 36.7138 14.8615C36.653 16.0453 36.5786 17.2426 36.6665 18.4332C36.7003 18.9405 36.7544 19.299 37.2683 19.4884C38.3637 19.8808 40.2164 19.6846 41.3861 19.5358C42.3057 19.4208 42.9007 19.4411 43.0224 18.3858C43.1441 17.3306 43.09 15.6462 42.921 14.5706C42.8534 14.1309 42.8263 13.5762 42.3327 13.4612C41.643 13.2921 40.8993 13.4071 40.2163 13.4071C39.3914 13.4071 38.553 13.4071 37.7349 13.4071C37.6537 13.4071 37.5861 13.353 37.4847 13.3665Z" fill="#6F7A58" stroke="#6F7A58" stroke-width="0.85" stroke-linecap="round" stroke-linejoin="round"/>
<path d="M13.5824 29.9125C13.3255 30.1966 12.8116 30.6228 12.4059 30.6296C12.3451 30.6296 12.291 30.5552 12.1963 30.5484C12.0746 30.5484 11.9326 30.6296 11.7703 30.5957C11.7297 30.589 11.1482 30.2913 11.0806 30.244C10.9792 30.1696 10.9657 30.0681 10.9454 30.0478C10.8237 29.9328 10.702 29.926 10.5465 29.7231C10.3504 29.4661 10.0799 28.8032 10.134 28.4852C10.1408 28.4446 10.2287 28.4987 10.2151 28.4243L10.1272 28.4041C10.2827 28.3499 10.2151 28.1334 10.2828 27.9914C10.729 27.0511 12.2842 26.6926 13.2173 26.9226C14.8198 27.315 14.4614 28.9587 13.5824 29.9193V29.9125ZM13.2917 27.7344C13.2443 27.7141 12.8116 27.6464 12.7643 27.6464C12.5547 27.66 12.0813 27.7749 11.9191 27.8426C11.466 28.0388 10.9251 28.1605 11.0062 28.7693C11.0603 29.1414 11.6486 29.8314 12.0611 29.8043C12.1422 29.8043 12.6155 29.6217 12.7034 29.5743C13.1835 29.3105 13.6568 28.4717 13.4472 27.9305C13.4337 27.9035 13.2984 27.7276 13.2849 27.7208L13.2917 27.7344Z" fill="#6F7A58" stroke="#6F7A58" stroke-width="0.85" stroke-linecap="round" stroke-linejoin="round"/>
<path d="M41.7039 22.3499C41.4673 22.5866 40.994 22.6813 40.6694 22.6069C40.5545 22.5799 40.426 22.4649 40.3787 22.4581C40.3449 22.4581 39.9121 22.6678 39.7363 22.6678C39.5132 22.6678 39.3171 22.5055 39.2157 22.4919C39.1142 22.4784 38.9114 22.5663 38.7829 22.5798C37.8431 22.6543 37.4779 21.5584 38.1338 20.9699C38.4381 20.6926 38.8776 20.4964 39.2968 20.5843C39.4658 20.6182 39.8107 20.7805 40.0068 20.8346C40.5139 20.9699 40.4057 20.6655 40.7573 20.6249C40.8993 20.6114 41.3185 20.7129 41.4605 20.7737C42.0488 21.0375 42.157 21.8966 41.7107 22.3431L41.7039 22.3499ZM39.236 21.0646C38.8235 20.9158 38.2555 21.2878 38.2758 21.7411C38.2893 22.0319 38.5801 22.2349 38.8573 22.1469C39.0804 22.0793 39.0669 21.4908 39.1143 21.3149C39.1345 21.2269 39.2495 21.1728 39.236 21.0646ZM41.3591 22.0522C41.8189 21.6802 41.2644 20.8346 40.6762 21.1525C40.879 21.4772 40.8114 21.8087 40.7167 22.1537C40.879 22.1537 41.2306 22.1537 41.3591 22.0522ZM39.8174 21.3352C39.7228 21.4164 39.4659 21.9575 39.5335 22.0928C39.689 22.4175 40.4328 22.0387 40.3178 21.5246C40.2772 21.3419 39.9594 21.2134 39.8174 21.3352Z" fill="#6F7A58" stroke="#6F7A58" stroke-width="0.85" stroke-linecap="round" stroke-linejoin="round"/>
<path d="M35.7267 25.3601C35.7267 25.3601 35.7875 25.3736 35.7943 25.4074C35.8078 25.448 35.8348 25.6645 35.8348 25.705C35.8348 25.8606 35.49 26.6588 35.3818 26.767C35.1857 26.9564 35.0234 26.8618 34.8274 26.9091C34.7733 26.9226 34.7259 26.9971 34.6651 27.0106C34.4622 27.0579 34.0971 27.1188 33.9078 27.0309C33.8605 27.0106 33.8943 26.9362 33.8672 26.9091C33.8469 26.8888 33.7861 26.9091 33.7455 26.8685C33.4548 26.5776 33.3398 26.3747 33.3263 25.9553C33.3263 25.8471 33.4548 25.3939 33.5088 25.2924C33.5224 25.2586 33.901 24.7986 33.9281 24.785C34.0768 24.6971 34.327 24.7715 34.442 24.7512C34.5366 24.7377 34.6042 24.6498 34.7192 24.6362C34.8815 24.616 35.2804 24.6768 35.3953 24.7918C35.4224 24.8189 35.6658 25.1436 35.6793 25.1639C35.7064 25.2315 35.6929 25.2992 35.7131 25.3668L35.7267 25.3601Z" fill="#6F7A58" stroke="#6F7A58" stroke-width="0.85" stroke-linecap="round" stroke-linejoin="round"/>
<path d="M19.9518 13.5627C19.9518 13.5627 19.9586 13.4951 19.9924 13.4883C20.1817 13.4409 20.3237 13.4883 20.3508 13.6845C20.4251 14.1512 20.3169 14.6383 20.2358 15.0847C20.2088 15.2268 20.3305 15.3959 20.0262 15.4432C19.6611 15.5041 19.2621 15.4432 18.897 15.4432C18.5724 15.4432 18.1194 15.6597 18.1735 15.0847L18.3493 14.9833C18.2344 14.5097 18.3493 14.0227 18.3493 13.5424C18.4575 13.468 18.5386 13.441 18.6671 13.441C18.8632 13.441 19.8842 13.5898 19.9383 13.5627H19.9518ZM19.8774 13.8806C19.5191 13.9889 19.154 13.9618 18.7888 13.9212C18.7618 14.2865 18.7145 14.6451 18.7888 15.0036L19.8707 14.963V13.8739L19.8774 13.8806Z" fill="#6F7A58" stroke="#6F7A58" stroke-width="0.85" stroke-linecap="round" stroke-linejoin="round"/>
<path d="M18.3696 17.1141C18.4575 16.9721 18.728 16.7759 18.9038 16.7556C20.0938 16.6203 20.0262 18.5143 18.9985 18.4805C18.3426 18.4602 18.0653 17.6215 18.3696 17.1141Z" fill="#6F7A58" stroke="#6F7A58" stroke-width="0.85" stroke-linecap="round" stroke-linejoin="round"/>
<path d="M30.5067 42.8395C29.9455 43.658 29.2423 44.4562 28.5594 45.2206C28.4038 45.3965 28.0252 45.6873 27.9238 45.8497C27.9035 45.8835 27.7142 46.3164 27.7142 46.3435C27.6871 46.5329 28.0252 46.6614 27.491 46.4652C27.2341 46.3705 26.8149 46.1067 26.5647 45.9173C26.0102 45.4979 24.7188 43.7662 24.3063 43.1304C24.002 42.6636 23.5423 41.7639 23.7113 41.2093C23.86 40.7222 24.2387 40.5463 24.7255 40.6207C25.2124 40.6952 26.1725 41.4798 26.4903 41.8722C26.6188 42.0277 26.7743 42.3457 26.8825 42.4674C26.9095 42.5013 26.9501 42.5148 26.9704 42.4945C27.3761 41.7369 28.2348 40.9792 29.0056 40.5937C29.7764 40.2081 31.0071 39.9714 31.1423 41.1754C31.2234 41.906 30.8786 42.3186 30.5067 42.8598V42.8395ZM28.9109 44.0706C29.4045 43.4754 30.5676 42.2307 30.6622 41.4934C30.7163 41.1078 30.5675 40.7357 30.1213 40.729C29.3978 40.729 28.1604 41.6895 27.7074 42.2307C27.5248 42.4472 27.3828 42.7515 27.2205 42.968C27.1732 43.0289 27.0718 43.0898 27.0245 43.1642C26.8284 43.1304 26.6526 43.2251 26.5376 43.0154C26.1455 42.3119 26.017 41.9398 25.2867 41.4392C24.9351 41.1957 24.1035 40.729 24.1914 41.5339C24.2793 42.393 25.9291 44.4698 26.5376 45.1936C26.7878 45.4912 27.0921 45.7415 27.3423 46.0459L27.5992 45.87C27.8426 45.1394 28.4376 44.6456 28.9109 44.0706Z" fill="#6F7A58" stroke="#6F7A58" stroke-width="0.85" stroke-linecap="round" stroke-linejoin="round"/>
<path d="M31.8117 16.2144C35.348 20.104 32.0213 26.1177 26.8352 25.2247C24.4754 24.8189 22.5483 22.6069 22.3995 20.219C22.0817 15.1118 28.37 12.4263 31.8184 16.2144H31.8117ZM23.9344 16.5526C22.3657 18.3182 22.4198 21.2945 23.9209 23.0871C26.585 26.2665 31.8455 25.2044 32.7651 21.0984C33.9348 15.8829 27.4707 12.5751 23.9344 16.5526Z" fill="#6F7A58" stroke="#6F7A58" stroke-width="0.85" stroke-linecap="round" stroke-linejoin="round"/>
<path d="M42.0285 15.3079C41.9812 15.2741 41.8054 14.7397 41.7445 14.6383C41.5552 14.3406 40.8587 14.0227 41.163 13.6304C41.9609 13.3936 42.5829 14.5706 42.4612 15.2065C42.4274 15.3756 42.1299 15.3688 42.0352 15.3079H42.0285Z" fill="#6F7A58" stroke="#6F7A58" stroke-width="0.85" stroke-linecap="round" stroke-linejoin="round"/>
<path d="M30.7772 23.263C29.2423 24.6227 26.7743 24.7174 25.1177 23.5404C21.054 20.6519 23.7992 14.4557 28.796 15.7274C32.116 16.573 33.4074 20.9293 30.7839 23.263H30.7772ZM30.7366 22.7828C33.2992 20.0837 31.0003 15.7883 27.4369 15.8897C24.4483 15.9777 22.5551 19.1232 24.0291 21.8019C25.3679 24.2304 28.7757 24.8392 30.7366 22.7828Z" fill="#6F7A58" stroke="#6F7A58" stroke-width="0.85" stroke-linecap="round" stroke-linejoin="round"/>
<path d="M25.8547 23.1751C25.6248 23.0398 25.3003 22.7625 25.1109 22.5663C22.2373 19.5764 26.159 14.6248 29.7224 16.8029C33.8131 19.299 29.9928 25.59 25.8547 23.1751ZM29.648 17.1209C26.8622 15.4568 23.5085 18.4399 24.7864 21.4434C26.0576 24.4468 30.4594 23.6486 31.0409 20.5031C31.264 19.2788 30.7298 17.7703 29.648 17.1209Z" fill="#6F7A58" stroke="#6F7A58" stroke-width="0.85" stroke-linecap="round" stroke-linejoin="round"/>
<path d="M27.6127 16.9856C28.8636 16.8976 30.0672 17.8244 30.3917 19.0082C31.122 21.6734 28.0658 24.0004 25.9223 22.086C24.0629 20.4219 25.1312 17.1547 27.6127 16.9856Z" fill="#6F7A58" stroke="#6F7A58" stroke-width="0.85" stroke-linecap="round" stroke-linejoin="round"/>
</svg>
