<svg width="126" height="112" viewBox="0 0 126 112" fill="none" xmlns="http://www.w3.org/2000/svg">
<path d="M63.2538 0.425018C63.3958 0.641482 63.6122 0.797049 63.7677 0.999985C64.3221 1.73055 64.9307 3.08347 65.5054 3.67874C65.7691 3.94932 65.7015 3.79372 65.972 4.21312C68.0951 7.50067 70.0965 10.8694 72.125 14.1908C72.2332 14.2111 72.1994 14.1028 72.2197 14.0284C72.4902 13.0273 72.5848 11.9314 73.4503 11.1941C74.3158 10.4568 75.614 11.052 75.7898 12.1411C75.925 13.0002 75.4517 14.3464 74.3564 14.0217C73.883 13.8796 74.0115 12.7567 74.5322 13.0205C74.6674 13.0882 74.6268 13.3114 74.7891 13.2911C75.5531 13.1761 75.0393 10.91 73.8898 11.7082C72.9499 12.3576 72.7403 14.3328 72.9364 15.3746L74.9108 18.5539V15.7331C74.9108 15.6789 75.1272 15.1716 75.2083 15.131C75.7154 14.874 76.1482 15.7669 76.351 16.0984C77.6966 18.3374 78.0144 20.1232 77.4667 22.7276L78.4809 24.3511C78.8393 23.6002 79.1909 22.829 79.6304 22.1187C80.1984 21.1988 80.9557 20.1909 81.9767 19.7647C81.9767 19.9135 82.1119 20.0285 82.1187 20.1773C82.139 20.7253 81.9091 22.1188 81.8144 22.7276C81.6386 23.8978 81.3546 25.2169 80.8813 26.306C80.7799 26.536 80.3539 27.1719 80.3336 27.2666C80.3133 27.3477 80.3336 27.4154 80.3809 27.4898L81.5237 29.3162C81.6116 28.8224 82.2674 26.7119 82.761 26.6375C83.1938 26.5766 83.3628 27.0974 83.4575 27.4221C83.7753 28.5315 83.8429 29.7829 83.6941 30.9261C83.64 31.332 83.4304 31.8935 83.4034 32.2249C83.3763 32.5564 84.039 33.3275 84.1945 33.6793C84.3568 33.2937 84.2689 32.2655 85.0059 32.4887C85.3507 32.597 85.7632 34.0649 85.9254 34.4302C86.2162 35.1066 86.703 35.8101 86.7909 36.5745C86.8586 37.163 86.5543 37.853 87.0546 38.2656C87.3116 37.6297 87.5212 36.8857 87.866 36.2904C88.1636 35.7763 88.9411 34.9781 89.5429 34.8834C90.9358 34.6669 90.9493 36.7301 89.9689 37.2645C89.5294 37.508 88.7924 37.4539 88.9885 36.8113C89.1102 36.4054 89.6511 36.9533 89.9351 36.4054C90.1379 36.0063 90.023 35.3636 89.4077 35.6478C88.7924 35.9319 88.434 36.5339 88.1568 37.1089C87.9539 37.5351 87.4536 38.8271 87.6023 39.2194L88.8194 41.1203C89.0223 40.5385 89.171 39.835 89.4212 39.2736C89.5429 39.0097 89.9757 38.2656 90.2867 38.2859C90.5977 38.3062 90.76 38.8203 90.8276 39.0706C91.1116 40.0785 91.1454 41.1473 90.9696 42.1755C90.8885 42.649 90.4693 43.6637 90.591 44.0493C90.7735 44.5972 91.8892 46.126 92.2678 46.7348C92.3152 46.8092 92.3557 46.8971 92.3557 46.9851C92.4031 47.0189 92.491 46.8701 92.518 46.816C92.7344 46.4033 93.3632 44.5634 93.6945 44.4416C93.9582 44.3401 94.2219 44.3605 94.3775 44.631C94.5668 44.9693 94.3775 46.0854 94.3842 46.5792C94.418 47.7833 94.8102 49.0009 94.4518 50.1914L96.7508 53.9864C97.2444 52.6537 98.3938 52.1599 98.5223 54.0202C98.5899 54.974 98.4344 55.9616 98.5629 56.9154C104.953 67.3395 111.518 77.6553 117.975 88.0321C120.004 91.2926 122.012 94.5869 124.068 97.8068C124.379 98.3006 124.588 99.0718 125.129 99.3423V99.4911L124.94 99.9444C124.744 99.8835 124.744 99.7482 124.494 99.7144C123.405 99.5723 121.661 99.7008 120.504 99.7008C120.017 99.7008 119.28 99.5318 118.929 99.8632L118.334 99.1868L95.1212 61.2243C94.7223 61.1838 94.3098 61.2446 93.9109 61.1905C92.9237 61.0552 89.8066 59.3912 89.002 58.7282C88.2717 58.1194 88.5963 57.5377 89.455 57.4498C90.6315 57.328 91.7945 57.7 92.9169 57.9706C93.0319 57.9977 93.0387 57.9706 93.0251 57.8624L90.6991 54.169C90.1717 53.9525 89.6105 53.7834 89.1102 53.4993C88.1162 52.9446 86.3717 51.125 85.7835 50.1306C85.6279 49.8735 85.4995 49.4812 85.7632 49.2444C86.1892 48.8656 87.6023 49.9547 88.1297 49.9953L86.9667 48.0403L86.7436 47.9592C85.344 48.1283 82.45 47.6142 81.2667 48.3515C80.1781 49.028 81.9496 49.3662 82.6596 49.0685C82.8489 48.9874 82.9774 48.7303 83.2411 48.7912C83.3019 49.3053 83.1938 49.4406 82.734 49.5962C82.1322 49.8059 81.0706 49.8465 80.6108 49.3324C79.8671 48.5071 80.8475 47.9321 81.571 47.6818C83.0788 47.1677 84.9653 47.5533 86.5475 47.3977L86.3853 47.073C85.3034 46.9918 84.3027 46.6063 83.3155 46.1936C82.7746 45.9704 81.8414 45.5848 81.3817 45.2737C81.2126 45.1587 80.9286 44.9354 80.9963 44.7122C81.0706 44.4349 81.4019 44.2996 81.6589 44.2387C82.4973 44.0493 83.5048 44.0696 84.3703 43.9816L82.4027 40.6129C81.5575 40.6264 80.7258 40.4641 79.8941 40.3762C79.4073 40.3221 77.7777 40.295 77.4599 40.1056C77.3991 40.0718 77.2909 39.9838 77.2638 39.9229C77.0407 39.4156 78.0888 38.9015 78.4539 38.7121C79.103 38.3739 79.8806 38.0559 80.6108 37.9747C80.7258 37.8597 79.8468 36.6151 79.7318 36.3919C79.1909 36.4054 78.6229 36.588 78.0888 36.6218C77.3653 36.6692 75.8845 36.6218 75.2692 36.2836C74.992 36.128 74.8094 35.9657 74.9108 35.6207C75.0122 35.2757 76.8852 34.7007 77.3179 34.5654C77.4937 34.5113 78.4201 34.3422 78.4268 34.2475L77.23 32.367C75.8912 32.4346 74.735 32.0423 73.5652 31.447C73.2001 31.2576 72.5713 30.9126 72.24 30.6826C72.1724 30.6353 72.2062 30.5338 72.1656 30.4797C72.1318 30.4324 72.0439 30.4256 72.0168 30.3579C71.8546 29.9724 72.1521 29.7085 72.5037 29.6003C73.0379 29.4312 74.0656 29.2621 74.6403 29.1809C74.8229 29.1538 75.0122 29.1809 75.1948 29.1742L74.4443 27.7874C74.1535 27.6048 72.1386 27.5507 71.6991 27.5642C71.3136 27.5777 71.0026 27.598 70.7592 27.9362C70.7592 28.0512 71.5503 28.43 71.6991 28.4233C71.956 28.4097 72.0709 27.6183 72.6254 27.8348C72.8485 28.3962 72.1723 29.0862 71.6179 29.0929C71.0094 29.0997 69.5691 28.2271 70.225 27.5033C70.2521 27.4762 70.7592 27.1177 70.8065 27.0907C71.5638 26.6916 73.0581 27.0298 73.9101 26.996C73.7884 26.8269 73.714 26.4074 73.4976 26.3939C73.3827 26.3872 73.2474 26.4684 73.119 26.4684C70.8471 26.5428 68.3859 25.731 67.2296 23.634C67.0741 23.3567 66.9051 22.714 67.331 22.6329C67.9666 22.5179 69.6706 23.1537 70.4346 23.289C70.82 23.3567 71.2325 23.404 71.6179 23.4581C71.7396 23.4717 71.7396 23.4717 71.7261 23.3499L62.9698 9.09708L36.3223 51.6255C36.3021 51.754 36.3223 51.7405 36.4373 51.7405C36.8835 51.7338 37.4718 51.5511 37.9384 51.5105C38.8715 51.4293 40.2305 51.3414 41.1231 51.5579C41.5829 51.6661 41.975 51.8623 41.5761 52.3629C41.4138 52.5726 39.7437 53.3234 39.3853 53.479C37.8234 54.1352 36.2953 54.5207 34.5846 54.5207L34.2262 55.089C35.6732 54.886 37.2081 54.7507 38.6483 55.1025C40.0886 55.4542 41.6437 56.8613 40.4672 58.3021C40.0547 58.8094 38.9594 59.0124 38.6551 58.3292C38.4455 57.8489 38.4996 56.9221 39.196 57.1995L39.2636 58.0586C39.9601 58.2547 40.3117 57.5039 40.1359 56.9289C40.0277 56.5771 39.3042 56.0495 38.9661 55.921C37.3974 55.3392 35.2405 55.5557 33.6515 55.9751L32.7319 57.5377L37.0593 57.2739L37.5394 57.5512L37.4312 57.9842L34.3682 59.5062C33.7123 59.7294 33.07 60.027 32.3803 60.1488C32.0828 60.2029 31.0889 60.2232 30.9739 60.3179L29.8853 62.1984C30.575 62.1173 31.2647 61.9617 31.9543 61.9008C32.3668 61.867 33.07 61.7926 33.4554 61.8264C34.0099 61.8805 34.0031 62.0767 33.8273 62.5705C33.1647 63.0373 32.4953 63.4837 31.8191 63.9301C31.001 64.4713 30.2977 65.0328 29.3241 65.3575C28.9454 65.486 27.7689 65.6483 27.5931 65.8039C27.255 66.1016 26.7614 67.2786 26.4301 67.6845C26.8561 67.583 27.2618 67.4206 27.6945 67.3327C28.2895 67.2109 29.4255 67.008 30.0002 67.0215C30.1828 67.0215 30.3789 67.1365 30.5615 67.1636L30.4736 67.7453L28.8643 68.6924C27.796 69.6462 26.5045 70.9382 25.0913 71.3508C24.7397 71.4523 24.3746 71.4658 24.023 71.5605L23.4956 72.3114C23.4821 72.5008 23.5226 72.3926 23.624 72.3655C24.8344 72.0205 26.8899 71.1682 28.0935 71.4658C29.0063 71.689 30.0746 72.5549 29.6757 73.6034C29.2362 74.7669 26.9778 74.7601 26.971 73.5899C26.971 73.2178 27.1266 72.6766 27.5796 72.724C27.5931 72.724 27.7824 72.9134 27.7824 72.927C27.823 73.184 27.5255 73.4005 27.6675 73.6237C29.1077 74.246 29.7298 72.8255 28.1881 72.2032C27.3565 71.8649 26.8967 72.2167 26.1326 72.3858C25.0034 72.6361 23.8742 72.839 22.8465 73.4208L22.0756 74.7533C22.7788 74.5572 25.5646 73.3464 26.1055 73.7658C26.2881 73.9078 26.2137 74.1581 26.1258 74.3272C25.9635 74.6384 24.9696 75.7139 24.6721 76.0318C23.0763 77.7094 21.4333 78.2371 19.3169 79.0624C15.8753 84.8934 12.0211 90.4944 8.5592 96.3186C8.31578 96.7245 8.05883 97.1303 7.82893 97.543C7.62608 97.9082 7.1325 99.18 6.89585 99.3897C6.81471 99.4641 6.75384 99.5182 6.63213 99.5047C5.18515 99.4167 3.71113 99.5859 2.26414 99.5047C1.66912 99.4709 1.06058 99.2409 0.424988 99.3491V99.1259L14.6311 76.7557C13.3329 76.546 12.251 75.5719 13.0962 74.246C13.698 73.299 14.9895 73.5493 15.8482 74.0228C15.9496 74.0769 16.0172 74.3137 16.2133 74.2054C16.281 74.1648 16.9977 73.0284 17.0247 72.9067C17.1126 72.4602 17.0112 71.8243 17.045 71.3441C17.072 70.9923 17.1735 69.9776 17.5116 69.8491C18.0187 69.6597 18.3635 70.5256 18.5799 70.4782C18.8706 69.8626 19.6482 69.0374 19.8578 68.4421C19.9525 68.1783 19.5536 66.9066 19.5197 66.4533C19.4859 66.0001 19.4859 63.4296 19.6888 63.1996C20.3311 62.8276 20.6151 63.6866 20.8991 64.0587C20.9465 64.1195 21.0682 64.1398 21.1358 64.2346C21.2507 64.3969 21.724 65.2425 21.8187 65.283C21.9472 65.283 22.0756 65.0328 22.1433 64.9313C22.4137 64.5187 22.6233 64.0248 22.9547 63.6325C23.0087 63.416 22.2717 62.1782 22.1027 61.9211C21.8119 61.4746 21.2237 60.6156 20.7639 60.4059C20.4934 60.2841 20.3379 60.1556 20.1351 60.4329C19.9322 60.7102 19.9863 61.0823 20.0945 61.38C20.1283 61.4679 20.5881 61.9346 20.6557 61.9481C20.8383 61.982 21.0276 61.7249 21.2507 61.8332C21.5685 62.1849 21.0073 62.7193 20.7098 62.7058C20.0066 62.6719 19.2087 61.3799 19.3237 60.6764C19.371 60.372 19.8916 59.6279 20.1756 59.5671C20.7504 59.4521 21.4333 59.9459 21.7849 60.3585C22.407 61.0823 22.9682 62.009 23.3671 62.8749C24.1379 62.2728 23.6105 61.3393 23.5159 60.5073C23.3874 59.3776 23.4956 58.4103 23.6917 57.3009C23.8201 56.5568 23.9621 54.6154 25.0575 55.5151L26.1529 58.5185L27.7216 56.0563C27.7621 55.8195 27.4984 55.3663 27.4443 55.089C27.1333 53.6752 27.4308 52.3629 27.5863 50.9626C27.6269 50.5567 27.6404 49.0753 27.8298 48.8385C28.0326 48.5815 28.3707 48.71 28.5533 48.94C28.8372 49.3053 29.3782 50.5567 29.6081 51.0438C29.7703 51.3888 29.8785 51.869 30.0543 52.1802C30.1017 52.2681 30.0543 52.3087 30.2234 52.2749C30.2369 52.187 30.2639 52.099 30.3113 52.0246C30.5412 51.6864 31.6636 50.0629 31.7109 49.8126C31.7853 49.4406 31.6298 49.3324 31.596 49.0618C31.4269 47.8171 31.6501 45.8419 31.9002 44.5904C32.1707 43.2105 32.7454 43.5758 33.2458 44.5566C33.523 45.0978 33.6853 45.7133 33.949 46.2613L35.8287 43.3323C35.9707 42.5002 35.8896 41.3638 35.3419 40.6805C34.6455 39.8147 34.064 40.9308 34.233 41.6952C34.3277 42.1146 34.544 41.8846 34.7198 41.9523C35.1932 42.1484 34.8686 42.8046 34.4223 42.7099C34.3615 42.6964 33.8206 42.3649 33.7732 42.2973C33.2052 41.4788 33.7124 39.5441 34.9294 39.6321C35.3419 39.6591 36.0586 40.525 36.2344 40.8902C36.4102 41.2555 36.4711 41.729 36.5455 42.1214L62.7061 0.74293L63.0036 0.458833H63.3011L63.2538 0.425018ZM63.1794 1.25704L63.0239 1.3044L36.5522 43.0887L35.9302 46.8295L36.5725 45.7607C37.0391 45.1316 39.2231 43.1631 39.933 43.0143C40.4537 42.9061 40.5483 43.0211 40.8526 43.3728L65.0794 4.31461L63.1794 1.25704ZM65.6609 4.78809L65.5054 4.83545L63.3417 8.43417C63.3214 8.76563 63.5378 8.75886 63.6257 8.89415C66.256 13.237 68.8795 17.6271 71.5435 21.882C71.8613 22.3893 72.2603 22.8696 72.4699 23.4378L74.6877 23.9655C74.1332 23.404 73.4773 22.944 72.9161 22.3893C71.4894 20.9891 68.325 16.8222 68.5211 14.8266C68.6428 13.582 70.0086 14.7049 70.4414 15.1649C72.0642 16.883 72.8418 19.5144 73.3015 21.7805L74.4307 22.8358C74.4848 22.8493 74.4781 22.7614 74.4645 22.7276C74.1535 21.7332 73.572 20.6982 73.2407 19.6632C72.8012 18.3036 72.5104 16.8763 72.24 15.476L65.6677 4.78809H65.6609ZM75.1339 22.5381L74.8905 19.7377L73.3286 17.3498C73.6261 18.9868 74.2279 20.5562 74.8702 22.0849C74.9243 22.2135 75.0122 22.4773 75.1339 22.5381ZM77.8386 26.5224L78.2037 25.0748L77.2436 23.6678C77.1489 24.2361 77.1557 24.8449 76.8852 25.359L77.8386 26.5224ZM76.4592 25.7986C76.0873 25.4739 76.1008 25.7039 75.8101 25.8122C75.3233 25.9948 74.8297 26.1842 74.309 26.2248C74.2549 26.2789 74.7147 27.0568 74.7823 27.1042C75.046 27.2936 76.0941 27.3477 76.4389 27.5912L78.2172 28.7818C77.94 28.1933 77.7101 27.5912 77.3788 27.0298C77.1759 26.6848 76.75 26.0557 76.466 25.7986H76.4592ZM75.7628 28.8292C76.1414 29.2824 76.6824 29.2824 77.2165 29.5191C77.6357 29.7018 77.967 29.9791 78.366 30.1753C77.7304 29.0524 76.5201 28.2136 75.2895 27.8821L75.7628 28.8359V28.8292ZM80.0226 27.8753C79.8941 27.7536 79.4884 28.3895 79.387 28.4774C79.2044 28.633 78.9272 28.5383 78.9745 28.9577C79.0083 29.2824 79.4073 30.067 79.5222 30.4458C79.6507 30.8585 79.7318 31.2576 79.7859 31.6905L81.0841 33.6658C80.8069 32.4549 81.0233 31.2914 81.3073 30.1009L80.0293 27.8753H80.0226ZM79.6777 32.6579C79.556 32.4955 79.1571 31.8596 79.0016 31.8596C78.8866 31.8596 78.2443 32.2926 77.9873 32.2385L79.1503 34.2002L80.6176 34.2678L79.8941 32.9285C79.6913 32.8473 79.7792 32.7187 79.7724 32.7052C79.7589 32.6849 79.698 32.6781 79.6777 32.6579ZM84.3027 38.5565L84.0728 36.4933L84.1336 34.6263L83.0991 32.9961L82.2066 35.1945L82.734 36.2498L84.2959 38.5565H84.3027ZM83.5521 38.7053L81.5575 35.3975L80.2457 36.1889C80.5432 36.3175 80.5162 36.6286 80.6717 36.8857C80.8543 37.1833 81.1991 37.4471 81.2938 37.8462C82.0984 37.9883 82.8692 38.2521 83.5454 38.7121L83.5521 38.7053ZM86.6354 41.4855C86.507 40.7752 86.9803 39.6929 86.9127 39.0503C86.8991 38.9489 86.6692 38.5565 86.5949 38.5565L85.8173 40.3356C85.8173 40.3965 86.3379 41.2623 86.4191 41.3638C86.4867 41.4449 86.4934 41.5194 86.6287 41.4923L86.6354 41.4855ZM88.4408 44.2725C88.3799 43.4269 88.5152 42.6152 88.6369 41.7899L87.3927 39.9162C87.3251 40.525 87.1966 41.1338 87.244 41.7561C87.271 42.1079 87.5144 42.9602 87.6767 43.2781C87.839 43.5961 88.1838 44.029 88.4408 44.2793V44.2725ZM88.5895 45.321C88.2244 45.1587 87.8998 44.7325 87.6564 44.4146C87.244 43.8734 84.9788 40.0447 84.7219 39.9838C84.5731 39.9568 84.5731 40.1461 84.4785 40.2138C84.1066 40.4506 83.4642 40.5182 83.0315 40.5114C83.0112 40.5317 83.2411 41.012 83.2749 41.0594C83.5048 41.4585 83.9105 41.9658 84.1607 42.3717L85.1411 44.0087C86.0201 44.1305 86.7436 44.3807 87.5212 44.7866C87.8187 44.9422 88.1095 45.1925 88.3935 45.3413C88.4611 45.3751 88.6098 45.4766 88.5963 45.3278L88.5895 45.321ZM91.8216 50.2117C91.612 49.5691 92.3016 47.9727 92.1799 47.4856C92.1191 47.2286 90.8952 45.4089 90.6451 45.0301C90.5301 44.8542 90.4084 44.6175 90.2394 44.4957L89.7255 46.0921C90.1515 46.8498 90.618 47.5871 90.9831 48.3786C91.2266 48.9062 91.4091 49.6638 91.6525 50.117C91.6999 50.205 91.6525 50.2456 91.8216 50.2117ZM34.4629 49.3797C35.0917 47.8577 35.3554 46.1869 35.6665 44.5701C35.538 44.6513 35.423 44.8272 35.3419 44.9557C35.139 45.2669 34.1654 46.7348 34.118 46.9513C34.0504 47.2286 34.2803 47.5736 34.3074 47.8509L34.4697 49.3797H34.4629ZM88.1771 47.1271C87.8119 47.1677 87.386 47.0933 87.0141 47.1271C87.0682 47.2083 87.1425 47.3842 87.2237 47.4248C87.4265 47.533 88.2041 47.6142 88.5557 47.7292C89.1507 47.9254 89.7052 48.2433 90.2799 48.48L89.3468 46.7821C89.2657 46.7416 88.3867 47.1001 88.1771 47.1204V47.1271ZM90.6721 49.3256C89.7255 48.8927 88.7788 48.2771 87.7443 48.0809C87.6835 48.0674 87.5482 47.9456 87.6159 48.135C87.7105 48.4192 88.9073 50.2794 89.1237 50.4553C89.7255 50.9558 90.591 51.3752 91.2604 51.9299C91.3753 52.0246 91.8757 52.6131 91.9771 52.532L90.6789 49.3188L90.6721 49.3256ZM36.7213 49.9073C36.6672 49.8532 35.9707 50.3673 35.8693 50.4485C35.0376 51.0573 34.1248 51.8894 33.7123 52.8432C34.1045 52.4643 35.0714 52.329 35.4027 52.0179C35.822 51.6255 36.2885 50.3944 36.7145 49.9141L36.7213 49.9073ZM32.0558 50.3605L31.9002 50.4079L30.2707 53.0461C30.6088 53.9931 30.4803 54.9672 30.291 55.9278C31.2782 54.7237 32.6914 53.8646 33.0024 52.2411L32.0558 50.3605ZM94.3775 50.9626C94.2084 50.9288 94.2557 50.9761 94.2084 51.0573C94.0935 51.267 94.0258 51.5849 93.9109 51.8149C93.6066 52.4305 93.1874 53.0055 93.0319 53.6887C93.7351 55.2987 94.3707 56.9357 95.27 58.4441L95.723 59.08C95.6757 57.9909 95.9191 56.9154 96.149 55.8601C96.2504 55.3933 96.4871 54.9401 96.4736 54.4598L94.3707 50.9558L94.3775 50.9626ZM94.8305 59.0124C94.5195 58.3562 94.107 57.7406 93.7892 57.0845C93.3226 56.1239 92.9643 55.1025 92.5383 54.1216L92.4639 54.054L91.4497 54.2705C91.328 54.399 91.8892 55.0281 91.9703 55.1566C92.4572 55.948 92.8967 56.8342 93.4038 57.6189C93.512 57.788 93.7148 58.1195 93.823 58.248C94.08 58.5592 94.5533 58.6944 94.8305 59.0056V59.0124ZM33.8611 54.426L32.5223 54.3652L31.1565 55.8939L33.2593 55.3663C33.5501 55.1228 33.6988 54.7575 33.8611 54.4328V54.426ZM32.8131 56.151C31.7447 56.3065 30.8319 56.7124 29.98 57.3686L29.6554 58.1803L31.8326 57.6865L32.8131 56.1442V56.151ZM28.9657 57.5918C28.7088 57.5647 28.1949 56.5298 28.1137 56.5298C27.4917 57.47 26.7817 58.3968 26.3422 59.425L26.4639 61.062L26.234 63.0711C27.3429 61.3664 28.2693 59.5129 28.9657 57.5986V57.5918ZM119.152 99.1665H123.926L123.256 97.773L98.4074 57.5039C98.2519 57.47 98.2992 57.5648 98.2586 57.6527C98.1031 57.9909 98.0287 58.39 97.9003 58.7282C97.5757 59.5738 97.1024 60.3856 96.9536 61.2852C97.7177 62.4284 98.4547 63.6257 99.3811 64.6472C99.611 64.8975 100.334 65.3034 100.105 65.6484C99.8003 66.0948 99.1782 65.4048 98.9213 65.1478C97.7177 63.9437 96.9536 62.2052 95.7771 60.9606C95.3241 61.0688 95.9259 61.5287 96.0205 61.6911C103.086 73.069 109.963 84.5281 117.015 95.818C117.719 96.9409 118.428 98.0638 119.159 99.1665H119.152ZM30.3315 60.1353C29.7636 60.1623 29.2632 59.9526 28.7561 59.7565L27.0251 63.2131L28.8981 62.4217L30.3315 60.1285V60.1353ZM24.165 62.8478L24.0095 62.8952C23.4212 63.6528 23.9351 64.2548 24.0838 65.0733C24.1785 65.6145 24.1717 66.2842 24.2799 66.8321L25.2063 64.4713C24.7803 63.9978 24.3881 63.4431 24.165 62.8478ZM22.3596 70.6676C23.6511 68.8074 23.8675 66.5007 23.1845 64.3496C22.745 64.8434 22.4137 65.4454 22.1365 66.0474C22.3664 66.8795 22.4949 67.7521 22.5084 68.5977C22.5219 69.2944 22.4813 69.9776 22.3596 70.6676ZM26.8696 65.628L25.5917 65.2492L23.8607 69.3079L25.2401 68.2459L26.8629 65.6213L26.8696 65.628ZM20.3311 69.0103L20.1756 69.0576L18.9788 71.0058C19.8984 72.4467 19.8984 74.131 19.7294 75.7816L21.0411 73.299L21.6496 71.1953L20.3311 69.0103ZM23.1102 71.6417C22.5895 71.7161 21.8998 72.4399 21.8119 72.9405C21.7443 73.3396 22.2514 72.9202 22.434 72.8052L23.1102 71.6417ZM17.7009 76.0048L17.0247 73.9755L16.6596 74.6789L17.7009 76.0048ZM21.6091 74.0499C21.3589 73.8063 20.676 75.3419 20.7098 75.5516L21.6091 74.0499ZM14.9219 76.3092C14.9557 75.9642 15.8279 75.0578 15.7468 74.7804C15.2126 74.1446 13.6236 73.9213 13.4546 74.9563C13.3126 75.8222 14.435 75.9507 14.9286 76.3092H14.9219ZM16.3486 75.254L1.39189 98.9432H6.01683C6.36167 98.9094 6.48337 98.3141 6.66593 98.0165C6.91611 97.6174 7.1663 97.2115 7.41648 96.8124C11.0407 91.0152 14.6717 85.2181 18.3027 79.4276C18.323 79.3803 18.1472 79.3938 18.0931 79.2653C17.924 78.873 18.0457 78.1559 17.8699 77.6824C17.7482 77.3509 17.2276 76.4513 17.0112 76.1333C16.7948 75.8154 16.4905 75.5787 16.3486 75.254Z" fill="#6F7A58" stroke="#6F7A58" stroke-width="0.85" stroke-linecap="round" stroke-linejoin="round"/>
<path d="M66.4115 66.379C66.4859 66.4601 66.8036 66.1084 66.8645 66.0407C67.2905 65.601 68.7983 63.619 69.2513 63.5311C70.2791 63.3282 69.5353 65.4658 69.1973 65.8716C68.9538 66.1625 68.2641 66.5278 67.8787 66.5345C67.3108 66.5413 67.3311 66.3113 66.9389 66.981C67.5948 66.7983 68.0681 66.6293 68.6631 67.096C68.7983 67.2042 68.8389 67.4275 69.0012 67.4342C69.8869 67.0689 70.2115 66.2436 71.1784 65.9257C72.5848 65.459 72.5104 66.2098 72.125 67.2448C71.699 68.3745 71.0026 69.1591 69.8058 69.4703C69.8058 69.8762 69.7923 70.2347 69.5691 70.5865C70.3602 70.2821 71.3272 70.0521 71.7937 70.9653C72.6254 70.5256 73.6734 70.5662 74.5322 70.9247C74.7621 71.0194 75.0731 71.29 75.2624 71.3238C75.4382 71.3509 75.8507 71.2629 76.0535 71.2832C76.6215 71.3509 79.1368 71.8717 79.4208 72.2708C79.5425 72.4399 79.5425 72.7714 79.3802 72.9202L77.9873 73.3667L89.286 73.157C90.2258 73.7049 91.3348 74.0837 92.2611 74.6181C92.3896 74.6925 92.4707 74.8616 92.5721 74.909C92.7953 75.0105 93.1536 74.8616 93.2889 75.024C93.5931 76.2078 93.4376 77.4457 93.37 78.6362C93.2145 78.8662 90.8547 78.7445 90.4693 78.785C90.6586 79.6103 90.4422 80.5709 90.5436 81.3826C90.7194 82.8573 90.6315 84.3793 90.6248 85.8945C90.6113 91.1032 90.7938 96.3186 90.8479 101.534C90.8614 102.867 90.8073 103.347 91.044 104.713C91.2266 105.748 91.4497 108.434 93.1198 107.947C93.6202 107.798 93.8095 106.594 92.9778 106.465C92.4978 106.391 92.3084 106.662 92.2002 105.985C93.2009 104.828 94.8102 105.539 95.1753 106.892C95.9597 109.78 91.8351 111.37 89.5835 110.233C87.724 109.293 87.6226 106.871 87.3927 104.984C86.6287 98.7268 86.6895 92.4696 86.4799 86.1922C86.4393 84.9543 86.4326 83.7028 86.3244 82.4717L68.4873 82.4379L62.0773 82.4514L46.9043 82.4649C46.5459 82.4108 46.1199 82.3973 45.7615 82.3973H40.7782C40.6836 83.6284 40.5145 84.8731 40.3996 86.111C40.1359 88.9995 40.0412 91.8744 39.879 94.7628C39.764 96.8192 39.6626 98.9094 39.5003 100.925C39.3177 103.198 39.3448 106.032 38.8647 108.258C38.7024 109.009 38.1953 110.01 37.3501 110.125C35.6056 110.375 33.3946 110.111 32.4953 108.38C31.596 106.648 33.0903 104.402 34.8348 105.288C35.112 105.43 35.3554 105.579 35.254 105.917C35.1323 106.323 34.5778 106.046 34.206 106.296C33.5095 106.756 34.233 108.204 35.2608 107.582C36.4643 106.851 36.4779 103.922 36.5049 102.657C36.586 98.6388 36.417 94.6275 36.4238 90.6229V79.0489C36.2074 78.8459 35.9234 79.0083 35.7206 78.9947C35.3622 78.9744 35.0444 78.9203 34.659 78.9203C34.2736 78.9203 33.9085 79.1097 33.5095 78.9068L33.7867 74.9631L37.9722 73.2043H48.0267C48.8246 72.2979 50.3865 71.98 51.563 72.0814C51.9619 72.1153 52.611 72.1896 52.7733 72.5955C53.8078 71.4185 55.2143 70.83 56.7965 71.1682C56.837 70.9382 56.6274 70.7826 56.5869 70.5865C56.5531 70.4106 56.6072 70.0588 56.5598 69.9776C56.5395 69.9506 55.9716 69.68 55.8972 69.7747C56.1271 70.0115 56.4246 70.0385 56.3502 70.4512C55.8837 70.8097 55.5997 70.2415 55.3968 70.2009C55.3022 70.1806 55.194 70.3023 55.0926 70.3226C54.4096 70.4376 53.6185 70.5865 53.152 69.9641C52.6584 69.3012 53.2669 68.9089 53.8281 68.6856C53.8957 68.6586 54.0648 68.6789 53.9363 68.5368C53.7402 68.3136 53.5103 68.53 53.294 68.5368C52.8545 68.5571 52.0093 68.0227 51.7523 67.6642C51.3602 67.123 51.252 65.9731 52.1445 66.061C53.1587 66.1625 53.605 67.4071 54.2271 68.043C54.6463 68.4692 55.9107 69.1592 56.4855 69.3215C56.668 69.3756 56.9317 69.423 57.0129 69.2065C56.1677 69.0915 54.91 67.2786 54.9776 66.5345C55.0047 66.2031 55.2548 65.9393 55.6064 65.9866C56.7086 66.1422 57.7972 67.8198 58.0677 68.8277L58.4395 68.5639C57.7025 67.9957 57.6822 66.6022 58.5883 66.149C58.8114 66.0407 59.0346 66.1219 59.2577 66.0001C59.4808 65.8784 59.8324 65.2628 60.2178 65.1613C61.3403 64.8704 62.0232 65.831 61.7798 66.8728C62.2193 66.6022 62.936 66.4534 63.4161 66.6698C63.5987 66.751 63.646 66.9539 63.8488 66.9472C63.93 66.2639 64.6061 65.1884 65.235 66.0475L65.6542 66.9472C65.6745 66.778 65.7759 66.6225 65.7962 66.4534C65.8908 65.6619 65.4513 65.6348 65.2417 64.9922C65.0321 64.3496 65.1335 63.6123 65.3905 62.9629C65.7826 61.982 66.5264 62.2458 66.8036 63.1252C67.1958 64.3834 66.6143 65.1546 66.4047 66.3451L66.4115 66.379ZM58.9061 68.5503C58.9467 68.5842 59.1833 68.5504 59.2915 68.5774C59.8324 68.7262 60.2381 69.1253 60.5897 69.538L61.347 68.9359C61.3132 68.5301 61.5364 68.1919 61.4552 67.7725C61.4146 67.556 61.1442 67.4681 61.0968 67.2245C61.0225 66.8592 61.4282 66.0543 60.8602 65.8175C60.1841 65.5334 59.9744 66.3383 59.5349 66.5954C59.0413 66.8795 58.568 66.5345 58.5612 67.3801C58.5612 67.5222 58.8723 68.5098 58.9196 68.5503H58.9061ZM63.8826 69.9641C63.5649 69.5245 63.9705 68.7262 64.1531 68.3068C63.4431 67.7319 63.1794 66.6428 62.0841 67.5086C62.1584 67.9416 62.0638 68.361 61.9759 68.7871C62.9428 68.6857 63.3755 69.5109 63.105 70.3632C63.957 69.9844 65.2688 70.5188 65.1335 71.5673C65.9584 71.4388 66.452 71.8514 66.9118 72.467C66.9659 72.4738 67.73 71.9732 67.757 71.8988C67.9126 71.4591 67.4663 71.3712 67.4054 71.0668C67.2634 70.3362 68.7713 70.6947 69.1161 70.1738C69.3393 69.8289 68.8592 69.423 68.9674 69.0239L67.9937 69.0983C68.0207 68.5842 68.4738 68.3203 68.3656 67.786C68.3182 67.556 67.9396 67.3801 67.73 67.3801C67.4933 67.3801 66.6346 67.8198 66.4994 68.0227C66.3236 68.2866 66.8037 68.6451 66.6414 69.0239C66.1072 69.0171 65.999 68.2865 65.4716 68.2662C64.9442 68.246 64.3898 68.9427 64.3762 69.4365C64.3762 69.6665 64.6399 70.1941 64.2004 70.1468C64.1328 70.1468 63.9165 70.025 63.8826 69.9709V69.9641ZM60.3396 70.7285C60.2246 70.6609 60.0826 69.8897 59.873 69.653C59.5687 69.3012 58.8655 68.963 58.4598 69.3283C58.399 69.6394 58.5613 70.2483 58.2299 70.4377C57.8445 70.6609 57.6484 69.8491 57.236 69.9168C57.1548 70.5053 57.4253 71.0262 57.6146 71.5673L57.1278 71.4185C56.9655 71.6755 57.3645 71.7094 57.3915 71.7703C57.5335 72.0273 57.3847 72.6158 57.5808 72.8458C57.8513 73.1705 58.6356 72.8052 58.9872 72.8593C59.3794 72.9202 59.5011 73.4343 59.9068 73.4546C60.0488 73.4614 61.0292 73.0352 61.0631 72.9879C61.1171 72.8999 61.0495 72.6497 61.0766 72.5076C61.1239 72.2235 61.8609 72.0746 62.1246 72.0138C62.1382 71.6688 62.0029 71.3644 62.057 71.0059C62.1517 70.4174 63.3147 69.2674 61.8609 69.4568C61.6243 69.4906 61.0292 69.8559 60.9211 70.0385C60.8332 70.1874 60.7655 70.9653 60.3396 70.7218V70.7285ZM64.5182 71.2088C64.4574 71.1073 63.8894 70.83 63.7406 70.8232C63.6392 70.8232 62.8414 70.9991 62.7737 71.0464C62.4492 71.2697 62.794 71.75 62.8008 71.9867C62.8278 72.6496 61.8203 72.6023 61.7527 72.8187C61.7257 73.0014 61.8947 73.1705 61.888 73.3396C61.888 73.5764 61.5364 73.7117 61.7054 74.0499C61.9218 74.4828 62.8616 73.9417 63.0983 74.0837C63.4702 74.3069 62.9022 75.1728 63.3755 75.3081L64.8698 75.4096C64.978 74.9631 65.5933 74.7805 65.7488 74.3949C65.83 74.2122 65.4716 74.0702 65.6068 73.6643C65.6947 73.3937 66.3168 73.1976 66.256 72.7308C65.7488 71.8447 65.3499 72.2708 64.694 72.4332C63.8218 72.6496 64.6805 71.4997 64.5047 71.202L64.5182 71.2088ZM71.1649 72.3791C70.7998 72.007 71.5435 71.1953 70.9282 71.0059C70.3129 70.8165 69.4812 71.4523 68.8186 71.2697L68.893 71.0464L68.2912 71.1208C68.5346 71.6282 68.3047 72.0949 67.9869 72.5143C67.9328 72.5887 67.7908 72.5955 67.7638 72.6767C67.7097 72.8526 67.6556 73.6035 67.7029 73.7726C67.7638 73.9687 68.1222 74.1852 68.325 74.192C68.8051 74.1987 69.0891 73.6778 69.5489 73.8808C69.7179 73.9552 69.7923 74.4219 69.9748 74.5843C70.3332 74.8954 71.0432 74.794 71.4421 74.6181C72.3279 74.2393 71.1919 73.9146 71.5097 73.502C71.6382 73.3396 72.9973 73.5087 72.9432 72.6699C72.8756 71.6553 71.4489 72.6767 71.1581 72.3858L71.1649 72.3791ZM56.9047 71.1953V71.2697C56.952 71.2426 56.952 71.2223 56.9047 71.1953ZM56.8573 71.9529C55.3089 71.3847 53.6997 72.122 52.9694 73.5493C53.6185 74.2867 55.0114 73.9822 55.816 73.6305C56.5598 73.3126 56.9114 72.7714 56.8573 71.9461V71.9529ZM76.5607 72.9202C76.7567 72.8323 78.6635 72.7579 78.6635 72.582C78.4066 72.3858 76.2158 71.865 76.1076 71.9461C76.351 72.237 76.6147 72.5076 76.5607 72.9202ZM67.0876 72.9202C66.9118 72.8796 66.9659 72.9473 66.9186 73.0149C66.8239 73.1502 66.3371 73.8064 66.3371 73.8605C66.2898 74.3002 66.5805 74.2731 66.7496 74.4219C67.2161 74.8346 68.0275 76.3228 67.277 76.7557C66.8577 76.9992 65.7488 76.4445 65.3702 76.1672C65.2755 76.0995 65.1809 75.9169 65.1606 75.9169C65.0659 75.9169 64.9307 76.0589 64.7887 76.0725C64.5859 76.086 64.268 75.9304 64.0382 75.9237C63.673 75.9034 63.5108 76.0589 63.0577 75.856C62.4898 75.599 62.6317 74.9293 62.5033 74.8278C62.1246 74.8819 61.7392 74.8819 61.4079 74.6452C60.9954 76.3566 59.5147 78.4468 58.8114 75.4704C58.1759 75.7748 57.6011 76.2416 56.8573 75.9575C56.5733 75.8493 56.526 75.6531 56.1474 75.6125C55.0926 75.511 53.8214 75.6734 52.753 75.6802C50.6164 75.6869 48.4729 75.6328 46.3363 75.6395C46.0658 75.6395 45.7751 75.7545 45.4776 75.6395L34.5035 75.6869C34.3344 75.7342 34.3547 77.9801 34.233 78.3251L92.8696 78.1018L92.7953 75.5449H75.3571C75.2692 75.626 76.3916 77.3645 74.3428 76.6001C73.9777 76.4648 72.6795 75.8898 72.409 75.7004C72.267 75.599 72.0912 75.139 71.9357 75.1119C70.9215 75.5043 69.7855 75.6531 69.2378 74.4964C67.9464 75.3419 66.8172 74.3069 67.0944 72.9135L67.0876 72.9202ZM76.635 73.3734C75.5937 73.184 74.4713 73.387 73.4773 72.9202L73.403 73.2923C74.1468 73.5087 74.5051 74.3543 74.9514 74.936L91.3686 74.9496C91.2807 74.8143 91.0372 74.7128 90.8952 74.6384C90.5572 74.4693 89.3739 73.8131 89.1372 73.7658C88.9006 73.7184 88.4881 73.8267 88.2582 73.8267C85.0735 73.8334 81.8617 73.8943 78.6973 73.9281C78.2578 73.9281 75.7154 74.077 75.6005 73.8875L75.6614 73.4817L76.6418 73.3734H76.635ZM56.2623 74.1243C55.0655 74.591 53.0911 75.166 52.4285 73.6711C51.4413 74.4896 50.0416 74.5234 48.8786 74.104C48.0875 73.8199 48.4188 73.8131 47.5128 73.8267C44.4565 73.8605 41.3936 73.7928 38.3373 73.8267L35.4433 75.0308H56.1879C56.073 74.6925 56.1879 74.4558 56.2623 74.1311V74.1243ZM59.3456 73.9755C59.3388 74.6316 59.3456 75.5652 59.704 76.1334C59.9068 76.4581 60.0556 76.1875 60.2314 75.9507C60.725 75.3013 60.8196 74.449 60.9954 73.6711C60.4477 74.0161 59.9812 74.1852 59.3456 73.9687V73.9755ZM40.1021 82.3973H37.0932V97.4821C37.0932 99.7347 37.2419 102.001 37.0932 104.247C37.0188 105.397 36.8498 106.756 36.0722 107.663C34.5305 109.482 32.164 107.324 33.8611 105.789C33.0227 105.917 32.786 106.885 32.8874 107.622C33.0024 108.441 33.9828 109.171 34.7266 109.394C35.6665 109.672 36.6604 109.523 37.6003 109.306C38.2629 108.089 38.4455 106.668 38.5942 105.302C39.054 101.115 39.0946 96.7313 39.3516 92.5237C39.3718 92.1991 39.3313 91.8676 39.3516 91.5429L40.1021 82.404V82.3973ZM90.0162 82.4717H87.0073C86.96 82.7423 87.0749 82.9993 87.0885 83.2564C87.3319 90.1156 87.1966 96.8598 87.9134 103.712C88.0554 105.058 88.3394 108.684 89.4753 109.462C91.3347 110.741 95.4188 109.401 94.4924 106.756C94.3842 106.438 93.9718 106.08 93.6269 106.08L94.08 106.567C94.6412 107.967 93.2348 109.212 91.9027 108.366C90.0568 107.189 90.0839 102.386 90.0839 100.398C90.0839 95.5001 89.9757 90.4876 90.0162 85.5901C90.023 84.5484 90.0027 83.5067 90.0162 82.4649V82.4717Z" fill="#6F7A58" stroke="#6F7A58" stroke-width="0.85" stroke-linecap="round" stroke-linejoin="round"/>
<path d="M72.0236 68.6788C72.8417 68.2797 73.6396 67.9212 74.5795 67.7453C75.188 67.6303 76.3848 67.3462 76.7161 68.0024C76.8243 68.8277 74.7417 69.335 74.1197 69.3147C73.6125 69.3012 73.3015 69.1253 72.8958 69.0238C72.4157 68.9088 71.0026 70.1197 70.6577 70.14C70.509 70.1468 70.394 70.0791 70.3399 69.9438C70.2385 69.4026 71.6449 68.8683 72.0236 68.6856V68.6788Z" fill="#6F7A58" stroke="#6F7A58" stroke-width="0.85" stroke-linecap="round" stroke-linejoin="round"/>
<path d="M21.6091 74.0498L20.7098 75.5516C20.6828 75.3351 21.3589 73.7995 21.6091 74.0498Z" fill="#6F7A58" stroke="#6F7A58" stroke-width="0.85" stroke-linecap="round" stroke-linejoin="round"/>
</svg>
