<svg width="62" height="56" viewBox="0 0 62 56" fill="none" xmlns="http://www.w3.org/2000/svg">
<path d="M40.0493 0.52243C40.1236 0.549488 40.2386 0.657721 40.4008 0.650957C40.4685 0.820069 40.4211 1.01622 40.4482 1.17857C40.6578 2.59911 40.8944 4.64199 40.9012 6.08283C40.9012 6.25194 40.7998 6.40755 40.793 6.48873C40.793 6.51579 40.9148 6.50223 40.935 6.54958C41.1244 7.09751 40.8201 7.57105 40.8336 7.84163C40.8336 7.88221 40.9621 7.82809 40.9891 7.95661C41.2122 8.9307 41.1649 10.473 41.246 11.5147C41.3475 12.9218 41.4421 14.3017 41.5774 15.6884C41.6315 16.2093 41.6179 16.7437 41.7058 17.2646L42.1386 17.1631L42.2265 17.2916C43.8357 16.9669 45.5532 17.109 47.2233 16.9872C47.4465 16.9737 47.6696 16.879 47.8995 16.9331L47.9603 16.7978L48.0482 16.9196L49.3938 16.7369L49.4749 16.852C49.7724 16.7031 50.4283 16.8452 50.6988 16.7572C50.7732 16.7369 50.6988 16.6152 50.7664 16.6152L50.8408 16.7302C50.9422 16.6896 51.0707 16.6625 51.1788 16.6625C52.2945 16.6558 53.444 16.7369 54.5461 16.4934L54.6138 16.6084C55.06 16.3919 55.8105 16.5678 56.25 16.4731C56.6219 16.392 56.365 16.3581 56.8248 16.4055C57.7173 16.5002 59.0223 16.1552 59.881 16.4326C59.9351 16.4461 59.9487 16.534 59.996 16.5408C60.1109 16.5543 60.2529 16.4866 60.3476 16.5272C60.4693 16.5746 60.6924 16.9264 60.476 17.0549L60.6248 17.109C60.6383 17.1564 60.4558 17.6501 60.4152 17.7246C60.2732 18.0019 60.0163 17.6502 59.8743 17.6569C59.7796 17.6569 59.6376 17.7922 59.4753 17.826C59.2184 17.8734 58.8465 17.826 58.5828 17.8463C57.2981 17.941 55.9188 18.1439 54.6679 18.0492C54.5867 18.0492 54.5191 18.1778 54.3636 18.1913C54.1269 18.2116 53.7483 18.1034 53.5251 18.1034C51.9497 18.1169 50.1646 18.3672 48.5283 18.4416C48.4675 18.4416 48.3796 18.5228 48.366 18.5092L48.3457 18.3131C47.8048 18.631 47.2909 18.4416 46.7432 18.4686C46.1955 18.4957 45.6681 18.5836 45.1475 18.6513L45.1272 18.4551C45.0123 18.4348 45.1069 18.5701 45.0258 18.5972C44.8568 18.6513 43.998 18.6784 43.8154 18.631C43.7275 18.6107 43.7884 18.5092 43.7208 18.5092C43.6262 18.8001 43.3286 18.6851 43.119 18.7054C42.9229 18.7257 42.7336 18.9083 42.6389 18.6783C42.1994 18.8407 41.9087 18.5701 41.7397 19.1045L41.8884 19.1586L43.0244 35.7384C43.8493 35.6031 44.6742 35.5626 45.5058 35.5017C45.6749 35.4882 46.2767 35.3799 46.3511 35.4138C46.3713 35.4273 46.3713 35.5355 46.4052 35.522C46.5945 35.2717 46.777 35.4679 46.9596 35.4543C50.2322 35.2379 53.5116 34.8658 56.7842 34.5885C57.2981 34.5411 57.8661 34.6358 58.3597 34.4464L58.4002 34.5682C58.7113 34.3991 59.5159 34.4194 59.9013 34.4802C59.9216 34.4802 60.2394 34.602 60.2529 34.6088C60.307 34.6561 60.2529 34.8455 60.3205 34.9267C60.3679 34.9808 60.5031 34.947 60.5504 34.9808C60.6654 35.0755 60.6992 35.2987 60.4558 35.2311L60.6113 35.4476C60.5099 35.5896 60.3205 35.5626 60.1853 35.6505C59.9554 35.8061 59.9554 36.0496 59.4618 36.0902C57.3319 36.2661 55.1749 36.3472 53.0315 36.5705C52.8151 36.5907 52.6326 36.7802 52.5582 36.557C50.1782 36.8884 47.7034 36.9493 45.3165 37.1657C44.5931 37.2334 43.8763 37.3416 43.1664 37.3552C43.234 37.7204 43.1596 38.1263 43.1866 38.4848C43.2069 38.7013 43.4436 38.9719 43.1731 39.0666C43.4909 39.7362 43.3895 40.6833 43.4368 41.4409C43.5653 43.4297 43.9575 45.7499 43.9304 47.6981C43.9304 47.8334 44.0859 47.8739 43.856 47.9484L43.998 48.0093L44.3429 53.6441L44.1265 53.5358C43.9372 54.0229 43.7343 54.3814 43.2881 53.7997L43.0244 53.9485L42.8688 53.7659L42.6389 53.8538L42.7674 53.7455L42.6187 53.6306C42.666 53.5494 42.7133 53.4411 42.7133 53.3532C42.6524 52.3791 42.4834 51.3847 42.4091 50.4039C42.2062 47.5628 42.0169 44.8029 41.8884 42.043C41.8749 41.7115 41.6247 41.2515 41.8884 40.9268C41.8952 40.8862 41.7667 40.9201 41.7464 40.8659C41.7126 40.7712 41.6179 39.9595 41.5977 39.7836C41.5436 39.1748 41.6585 38.4104 41.5977 37.8287C41.5909 37.734 41.53 37.4972 41.4557 37.4566L23.9566 38.8839L23.9093 39.1748L23.7132 39.2289L23.9228 39.2424C23.9634 39.4183 23.9363 39.4048 23.8011 39.4792L23.9499 39.601C24.0445 39.8377 23.7876 39.7971 23.8349 39.9933C23.9769 40.1353 24.0378 40.1624 24.0107 40.3992C23.6929 40.2504 24.0107 40.6495 24.0378 40.7577C24.0851 40.9336 24.1527 41.2312 23.9499 41.2786L24.1595 41.3259C24.1798 41.4883 23.8687 41.468 23.9837 41.698L24.1122 41.6236C24.1122 41.7318 24.1595 41.8603 24.1392 41.9686C24.1392 41.9956 23.8011 42.1782 24.1527 42.2121L24.173 42.3338C24.0378 42.3338 23.9837 42.4623 23.9905 42.5773L24.2068 42.6247L24.2203 42.8479L24.0851 42.8276L24.315 43.2673L24.1324 43.3755L24.2812 43.4567V43.6191L24.146 43.5041C24.1663 43.8085 24.3759 43.9641 24.2744 44.282C24.2542 44.3497 24.0783 44.3497 24.1662 44.5391L24.3691 44.5526C24.2812 44.7217 24.4164 44.884 24.2001 44.9585L24.4232 45.1682C24.1933 45.1276 24.1054 45.3576 24.3623 45.2696C24.3759 45.432 24.2204 45.4725 24.4502 45.5267L24.4637 45.7093C24.1595 45.7702 24.1662 45.9664 24.4637 45.804L24.4773 45.9934L24.2677 45.9461L24.2947 46.2978L24.3758 46.0611C24.4773 46.0475 24.5381 46.5684 24.5246 46.6631C24.5111 46.7849 24.4097 46.8525 24.3961 46.9201C24.3285 47.2516 24.599 47.326 24.6125 47.6237C24.6125 47.671 24.4232 47.6507 24.484 47.7657L24.6328 47.9145L24.4299 47.9619C24.7815 48.1242 24.6531 48.591 24.5787 48.8886L24.7207 48.9428L24.5922 49.0172L24.7342 49.0442C24.5855 49.281 24.9438 49.6598 24.5854 49.7342L24.7275 49.7883L24.741 49.9169C24.2947 50.0657 24.8559 50.37 24.8086 50.6474L24.6733 50.7286C24.9303 50.7624 24.8289 51.2359 24.6599 51.378C24.6599 51.3983 24.9574 51.4727 24.8695 51.6418C24.8492 51.6756 24.7207 51.6215 24.7613 51.7297L24.9033 51.7568L24.7613 52.5753L24.9641 52.555L24.9168 52.8459L25.0655 52.9L25.0047 53.0353L24.8627 53.015L25.0114 53.1638L24.8762 53.2112L25.0182 53.2923L24.8897 53.4005L25.0317 53.4209L24.9033 53.5291L25.1061 53.5426C24.9844 53.7185 25.1805 53.9417 24.9371 54.0094L24.9506 54.1717L25.0858 54.1311L24.8897 54.6317C24.6328 54.7535 24.4164 54.9158 24.2339 55.1323C23.9161 55.2675 23.9025 55.0917 23.8011 55.0511C23.72 55.0173 23.5645 55.0308 23.5171 54.997C23.5036 54.9902 23.5509 54.909 23.5171 54.8752C23.4428 54.8008 23.2534 54.6587 23.1993 54.5302C23.179 54.4829 23.1114 53.8335 23.1182 53.7794C23.1317 53.6982 23.2872 53.7658 23.2467 53.6644L23.0438 53.6779L23.152 53.3126C23.152 53.3126 23.0438 53.2991 23.0235 53.2652C22.9627 53.1367 22.868 51.5132 23.0506 51.3171L22.9086 51.2562C22.9762 50.6609 22.6787 50.0251 22.895 49.4501C22.5637 49.4163 22.841 49.0104 22.8207 48.936C22.8004 48.8548 22.6719 48.8075 22.6516 48.6925C22.6246 48.564 22.6111 48.2189 22.5975 48.0431C22.4758 46.6225 22.4961 45.0938 22.2595 43.7341L22.1377 42.2527L22.3406 42.1715L22.1243 42.1241L21.9281 39.0057C21.7456 39.0192 21.5157 38.9719 21.3467 38.9854C16.8569 39.3168 12.3267 39.7159 7.80318 40.0339C7.40425 40.0609 6.93768 40.1962 6.51846 40.1827C6.44408 40.1827 5.88961 40.0542 5.86256 40.0339C5.8558 40.0339 5.88963 39.9392 5.8423 39.8783C5.73411 39.743 5.60565 39.628 5.46365 39.5198C5.46365 39.486 5.8964 39.1207 5.93697 39.0598C6.01811 38.9313 5.8423 38.7216 6.09248 38.8501L5.86933 38.6742C6.23446 38.4307 6.56578 38.566 6.92414 38.5186C9.01348 38.2683 11.042 38.1872 13.1313 38.0316C13.3071 38.0181 13.422 37.8354 13.6857 38.0045L13.7466 37.8625C14.1388 38.0857 14.105 37.9234 14.3687 37.8828C15.2274 37.7475 16.1267 37.8016 17.026 37.7204C17.8306 37.646 18.5338 37.6663 19.4331 37.4769L21.7456 37.2537C21.705 37.0643 21.7929 36.8681 21.7794 36.699C21.7659 36.3811 21.4548 35.8872 21.7794 35.7249C21.4481 35.5693 21.5968 34.9537 21.5833 34.6358C21.5698 34.3585 21.5495 34.0405 21.5427 33.7361C21.5292 33.2829 21.3467 32.735 21.563 32.3426L21.3534 32.3291C21.4819 32.0518 21.3331 31.8015 21.3061 31.5512C21.2385 30.9086 21.279 30.2592 21.1235 29.6301L21.3264 29.5422C21.083 29.4948 21.11 29.2513 21.0829 29.0416C21.0424 28.6966 21.0018 28.0202 21.0424 27.6819C21.0559 27.5669 21.1506 27.506 21.1506 27.4181C21.1506 27.3978 20.7651 27.2963 21.1235 27.0934C20.7854 26.931 20.9883 26.7484 20.968 26.4981C20.8192 24.6108 20.4406 22.71 20.5961 20.8498C20.3324 20.8024 20.4947 20.6739 20.4677 20.5251C20.4338 20.2883 20.3527 20.0516 20.3594 19.8013C19.9943 19.8824 19.5751 19.8216 19.2303 19.8486C18.5338 19.9027 17.8238 20.038 17.1139 20.0854C15.6939 20.1733 14.2808 20.0583 12.8744 20.3154L12.7932 20.1936C12.5363 20.3289 11.9345 20.3763 11.6302 20.3627C11.495 20.3627 11.5288 20.2342 11.4815 20.241C11.3327 20.241 10.9067 20.3559 10.6092 20.3762C8.36437 20.5589 6.10599 20.5859 3.88142 20.7212C3.53658 20.7415 3.09711 20.8768 2.73198 20.8633C2.61027 20.8633 2.65081 20.8092 2.31949 20.8159C1.87322 20.8159 1.43374 20.816 0.987474 20.8701L0.946906 20.498C0.433024 20.4845 0.176063 20.038 0.757561 19.8621L0.595289 19.5848L0.750793 19.3413C1.37962 19.4292 2.04226 19.2466 2.6508 19.206C3.13764 19.1722 3.51629 19.2466 4.05046 19.1519C4.19245 19.1248 4.26006 19.2669 4.30063 19.0436L4.38854 19.1654C4.44939 19.1451 4.51026 19.1113 4.57112 19.1113C5.41632 19.1113 6.26829 19.0572 7.12025 18.9963C7.553 18.9692 7.74909 18.976 8.18183 18.9963C8.47258 19.0098 8.74979 18.861 8.97293 18.8474C9.41243 18.8272 9.89251 18.888 10.4132 18.8474C10.6904 18.8272 11.0555 18.8475 11.2516 18.8204C11.4071 18.8001 11.4679 18.5363 11.5829 18.8136C11.8534 18.6107 12.0697 18.7257 12.2861 18.7122C12.9893 18.6716 13.6858 18.6784 14.3822 18.631C14.4566 18.631 14.5445 18.631 14.5986 18.6783L14.5512 18.5566L14.6865 18.5431C14.6865 18.8069 15.1801 18.6039 15.3423 18.4889C15.3626 18.6581 15.8224 18.6175 15.8157 18.4484C16.2214 18.6513 16.8975 18.4213 17.3776 18.3942C18.0943 18.3604 18.8584 18.4078 19.5954 18.3537C19.6698 18.3537 19.7442 18.2522 19.8456 18.2454C19.9741 18.2454 20.1025 18.3537 20.2445 18.3266C20.1701 17.9951 20.231 17.6569 20.1904 17.3254C20.1769 17.1969 19.9605 17.1022 20.258 16.8655C20.0552 16.8519 20.0552 16.2567 20.0619 16.0537C20.0619 15.8846 20.0484 15.6343 20.2175 15.5734C19.8388 15.2826 20.1228 14.8632 19.9132 14.5046L20.0484 14.4167C19.947 14.1597 19.7036 13.6185 20.0349 13.4494L19.8185 13.3344C20.0011 13.0841 19.8321 12.9285 19.805 12.6647C19.7374 12.0762 19.7103 11.4809 19.6157 10.8992L19.7442 10.818L19.6089 10.7639C19.7306 10.4663 19.4534 10.2566 19.6833 10.0469C19.5886 9.45159 19.4804 8.75482 19.4804 8.15954C19.4804 8.0716 19.4331 7.98369 19.4264 7.89576L19.6292 7.8484L19.4196 7.83486C19.3588 7.72662 19.5684 7.60485 19.5345 7.56426C19.5345 7.56426 19.4264 7.59809 19.3993 7.53045C19.3317 7.38163 19.3114 7.1043 19.4196 6.95548L19.2844 6.90812C19.4128 6.21138 19.1221 5.54844 19.1424 4.86523C19.1424 4.71641 19.1627 4.7029 19.2911 4.63526L19.1424 4.57436C19.1829 4.19555 18.9733 3.99937 19.2438 3.64086C19.3182 3.53939 19.4669 3.4785 19.494 3.42439C19.5684 3.28233 19.4128 2.99148 19.5887 2.89678C19.7374 2.8156 19.6833 3.04557 19.7104 3.07939C20.2175 2.89675 20.5353 2.51121 20.5556 3.32972L20.7584 3.27559L20.8598 3.62731L20.9815 3.48529L21.0694 3.66794L20.8666 3.68821L21.0086 3.76938L20.8801 3.87764L21.0897 3.89114L20.9071 4.13465L21.1032 4.05348L21.1235 4.27672L20.9139 4.36466L20.941 4.64876L21.137 4.56759C21.137 4.92611 20.9545 4.76376 20.9477 4.77729C20.8936 4.9464 21.0627 4.90584 21.1641 4.89231C21.1235 5.04113 20.9274 4.96669 20.9815 5.19668C20.9815 5.21698 21.2047 5.28465 21.2249 5.56199L21.0221 5.61608C21.0762 5.7446 21.1844 5.60256 21.1844 5.83255C21.1844 5.92725 20.8463 6.10315 21.2925 6.27903L21.1708 6.54285L21.3264 6.65784L21.1438 7.00284C21.3331 7.04342 21.2993 7.11781 21.3061 7.28016L21.1573 7.16518C21.1235 7.37488 21.2317 7.34779 21.3872 7.43573L21.1844 7.48309L21.1979 7.67252L21.4075 7.68602L21.2723 7.76046L21.4143 7.84163L21.2182 7.99043L21.4278 8.00397L21.4819 8.68042L21.3264 8.69396C21.1438 8.81572 21.4075 8.8969 21.4143 8.91043C21.5495 9.21483 21.6104 9.73566 21.3872 10.013L21.5292 10.0671L21.3331 10.216L21.536 10.1686L21.367 10.5745L21.563 10.4933L21.4549 10.8586L21.5968 10.9127L21.2655 11.0412L21.2858 11.2307L21.3737 11.0954L21.5563 11.2442C21.6171 11.3524 21.4278 11.3456 21.4278 11.3862C21.4278 11.5283 21.5698 11.6433 21.7253 11.5824L21.4887 12.0559C21.9484 11.968 21.4887 12.3806 21.536 12.57L21.8064 12.5497C21.6374 12.7323 21.7997 12.8879 21.7794 13.0232C21.7794 13.0706 21.6509 13.0706 21.6509 13.1179C21.6509 13.1382 21.6712 13.4697 21.678 13.49C21.6847 13.5441 21.8132 13.5171 21.847 13.5982C21.8943 13.6862 21.847 13.9094 21.9281 14.0311C21.9146 14.0514 21.6645 13.9364 21.6577 14.1191L21.8741 14.1394C22.0702 14.3694 21.7726 14.5655 21.7726 14.5926C21.7862 14.6805 21.9417 14.8767 21.9281 14.9714C21.9146 15.039 21.6104 15.127 21.7659 15.4111L21.8876 15.2082C21.9011 15.2894 21.9552 15.357 21.9755 15.4382C22.0025 15.5734 22.0499 16.0808 21.8943 16.0808L22.0498 16.2634C22.0093 16.3581 21.8064 16.3379 21.8605 16.4731C21.8943 16.5543 22.1242 16.3919 22.0769 16.6152L21.8741 16.6625L22.0904 16.7437L21.8876 16.7978L22.0363 16.9128L21.9011 16.9602L22.0431 17.0143L21.9281 17.251L22.1243 17.136L22.1581 17.6231L22.0363 17.6975C22.273 17.8057 22.0769 17.914 22.0904 18.0154C22.1175 18.2387 22.584 18.3537 22.5502 18.0763H22.6178C22.6178 18.3672 23.1249 17.9884 23.1182 18.286L23.2737 18.1372C23.463 18.1372 23.6388 18.1778 23.8281 18.171C24.8492 18.1034 25.6335 18.0695 26.6478 18.056C26.7762 18.056 27.3171 18.0289 27.2157 17.8801L27.3983 18.0425C28.3246 17.799 29.3118 17.8869 30.2652 17.8057C30.3666 17.799 30.4748 17.7246 30.6033 17.7178C30.7723 17.7043 30.9549 17.7787 31.1645 17.7449C31.3268 17.7178 31.1983 17.596 31.32 17.596L31.435 17.7651C31.7122 17.5622 31.9218 17.7178 32.1246 17.7178C33.2606 17.6907 34.4236 17.6299 35.546 17.5622C36.2763 17.5216 36.9998 17.4201 37.7233 17.3728L37.7773 17.5013L37.8652 17.3661L37.9802 17.4878L38.0073 17.3525C38.2777 17.3728 39.7585 17.4066 39.8735 17.3119C40.0831 17.1361 39.8735 16.9602 39.8735 16.8452C39.8735 15.8508 39.7923 14.8361 39.7247 13.8079C39.7112 13.6118 39.772 13.3209 39.745 13.1585C39.7247 13.03 39.603 12.9488 39.6097 12.8744C39.6097 12.7662 39.7382 12.6309 39.7315 12.5768C39.7179 12.428 39.2987 11.9747 39.6909 11.8056C39.3731 11.7583 39.5895 11.3524 39.5624 11.163C39.4137 10.2565 39.461 9.19451 39.3866 8.2069C39.3731 8.01749 39.3731 7.65899 39.3258 7.51017C39.3122 7.46282 39.1905 7.4831 39.1905 7.44928C39.177 7.21928 39.2108 7.02311 39.1905 6.73224C39.1635 6.35343 39.2108 5.2914 39.0688 5.04111C39.0147 4.94641 38.893 4.99375 38.8998 4.9464C39.177 4.85846 38.9539 4.50673 38.9471 4.29703C38.9471 4.16174 38.9539 3.9588 38.9471 3.77615C38.9471 3.39058 39.0959 2.97793 38.8998 2.61941L39.035 2.53824C38.8525 2.38265 38.8119 1.60474 38.8795 1.40181C38.9065 1.31387 39.0283 1.23948 39.035 1.17184C39.0418 1.09743 38.9606 1.00946 38.9606 0.935054C38.9606 0.894467 39.062 0.894492 39.0823 0.833612C39.1161 0.759202 39.062 0.623876 39.1635 0.542702C39.5692 0.414176 39.603 0.373597 39.9952 0.508887L40.0493 0.52243ZM37.9869 18.8881C34.2816 19.2534 30.5086 19.3954 26.8033 19.5713C25.6741 19.6254 24.5314 19.7336 23.3819 19.7945C23.1452 19.808 22.3609 19.6863 22.2595 19.923C22.2459 20.0718 22.3812 19.9569 22.415 20.0989C22.4353 20.1868 22.415 20.3018 22.4353 20.3965L22.2865 20.2816C22.246 20.4777 22.4623 20.6198 22.442 20.7889C22.4217 20.9174 22.273 20.931 22.2798 20.958C22.3406 21.2083 22.5435 21.5059 22.4894 21.8171L22.3406 21.7021C22.3203 21.9659 22.7531 22.2703 22.4015 22.4394L22.5705 22.7506L22.442 22.8588C22.8477 22.8521 22.3879 23.5488 22.5164 23.6976L22.6449 23.6232C22.7733 24.002 22.4556 24.1576 22.584 24.5364L22.7125 24.462C22.841 24.7529 22.557 24.78 22.6178 25.0167L22.7666 25.1385C22.584 25.1926 22.6178 25.3752 22.6584 25.5376C22.6922 25.6796 22.8004 25.6255 22.8477 25.6796C22.9559 25.8149 22.868 25.9908 22.8477 26.1328L22.6922 25.8893C22.7057 26.3831 22.9221 26.7552 22.9424 27.2558C22.9424 27.3978 22.7531 27.4316 22.9829 27.6413L22.8139 27.6954L22.7936 27.8172L23.0033 27.8307L22.8207 28.0742L23.0303 28.0878L22.8883 28.8454L23.0912 28.8251C23.0168 28.9874 23.1385 29.1836 23.1317 29.2986C23.1317 29.3189 22.9356 29.4407 22.9491 29.5895L23.0709 29.6166L23.0303 29.7654L23.1791 29.8871L22.9897 30.063L23.2061 30.1442L23.0709 30.2253L23.2534 30.6515L23.1182 30.7056C23.3143 30.9018 23.2737 31.2062 23.3143 31.4633L23.1858 31.5377L23.3278 31.558L23.1385 31.7677L23.2872 31.8218L23.2399 32.045L23.3751 32.0721L23.2534 32.1262C23.3278 32.2615 22.9829 32.532 23.2805 32.6335L23.3346 32.4374L23.3751 32.9109L23.2467 32.992L23.3887 33.0123L23.3684 33.1341L23.2602 33.1206L23.2805 33.3438L23.4292 33.5264L23.2805 33.4114L23.3075 33.7294L23.5036 33.6144L23.3346 34.0811L23.463 33.9729L23.6253 35.062L23.4225 35.1093L23.6388 35.2514L23.4427 35.3732L23.6726 35.7046L23.4022 35.7587H23.6794L23.72 36.2458C23.72 36.3269 23.2602 36.3066 23.6659 36.4487L23.5442 36.6178L23.6862 36.6381C23.747 36.7734 23.5712 36.7125 23.5577 36.7869C23.5374 36.9087 23.5983 37.0643 23.5915 37.1928L41.3272 35.8128L41.3543 35.0552C41.0635 35.0146 41.3069 34.7779 41.3001 34.602C41.3001 34.4667 41.1784 34.3382 41.1784 34.2232C41.1244 33.2694 41.1987 32.2682 41.0162 31.3347L40.9215 29.7924L40.7795 29.7316L40.9756 29.5828L40.7525 29.4069C40.9485 29.346 40.8809 28.9536 40.8674 28.7507C40.8404 28.3448 40.6308 27.8984 40.8066 27.5263L40.6646 27.479C40.793 26.559 40.6511 25.6661 40.5564 24.7597C40.5361 24.577 40.6781 24.1102 40.4414 24.1508V24.0561L40.5564 23.9885C40.3603 22.8318 40.2724 21.56 40.2521 20.383C40.2521 20.0245 40.2048 19.8419 40.2048 19.5645C40.2048 19.3616 40.2386 19.0436 40.1236 18.9016C40.0087 18.8272 38.9742 18.9016 38.7781 18.9151C38.6631 18.9219 38.5685 18.9895 38.5076 18.9963C38.4806 18.9963 38.3588 18.7392 38.0343 18.9827L37.9735 18.8678L37.9869 18.8881ZM22.4894 22.9129V22.9806C22.5367 22.9535 22.5367 22.9332 22.4894 22.9129ZM22.5029 23.1091V23.1767C22.5502 23.1497 22.5502 23.1294 22.5029 23.1091Z" fill="#6F7A58" stroke="#6F7A58" stroke-width="0.85" stroke-linecap="round" stroke-linejoin="round"/>
<path d="M46.3714 2.63296C46.3714 2.63296 46.3714 2.74121 46.4322 2.73445C46.5337 2.72092 46.5742 2.6059 46.6892 2.58561C47.3789 2.48414 48.9273 2.67356 49.5358 2.97796C49.6373 3.03207 49.617 3.16735 49.6846 3.2147C49.7455 3.25529 49.9348 3.23501 50.0429 3.2756C50.2931 3.37707 50.5501 3.64763 50.7259 3.85056C50.8003 3.9385 50.9422 3.83703 50.8814 4.10085C51.1654 4.07379 51.0234 4.20908 51.1451 4.3579C51.2668 4.50672 51.6995 4.7638 51.7807 4.93291C51.828 5.03438 51.7469 5.12907 51.7807 5.17642C51.7942 5.18995 52.0647 5.35907 52.1255 5.35231L51.9971 5.42671L52.0106 5.55523C52.4771 5.58906 52.1729 6.29932 52.6259 6.34667L52.4974 6.42107L52.5109 6.5496C52.7476 6.50901 52.5921 6.65783 52.6191 6.75929C52.68 6.98929 52.8152 7.21254 52.8625 7.46283C53.0992 8.76161 52.9301 10.1145 52.7882 11.4133L52.5177 11.4809C52.4974 11.5892 52.6529 11.5012 52.6665 11.5689C52.6732 11.6162 52.5988 11.8936 52.5718 11.9747C52.3892 12.543 52.0444 13.03 51.6792 13.4562C51.4899 13.6794 51.1924 13.977 51.1721 14.2544L51.0572 14.1326C50.8205 14.3017 50.5298 14.5859 50.2593 14.7009C50.0294 14.7956 49.7928 14.7617 49.6373 14.8158C48.8259 15.0797 48.8799 15.1946 47.9266 15.0999C47.2369 15.0323 47.0949 14.9511 46.5675 14.6129C46.3511 14.4776 46.3444 14.4912 46.1348 14.322C44.4511 12.9827 43.376 9.97245 43.4707 7.7537C43.4707 7.60488 43.6465 7.47635 43.4842 7.23959L43.6194 7.15842C43.3557 7.05695 43.5315 5.37934 43.5924 5.28464C43.633 5.22376 43.7479 5.25083 43.7817 5.21701C43.8223 5.17642 43.802 5.06141 43.8493 4.99377C43.9034 4.91936 44.0386 4.89231 44.0454 4.87878C44.0589 4.85172 43.8899 4.56761 44.0792 4.27673C44.1468 4.1685 44.2685 4.13467 44.3294 4.05349C44.6539 3.59351 44.8771 3.18767 45.4518 2.90356C45.56 2.84944 46.3105 2.61267 46.3917 2.63296H46.3714ZM48.8056 4.69613C47.7508 4.1482 46.4796 4.18204 45.391 4.66908C45.1611 4.77055 44.9785 4.85173 44.9447 5.09525C45.134 5.07496 45.2016 5.00731 45.2219 5.26436C45.2354 5.44701 45.107 5.66347 45.276 5.85287C45.0597 6.39403 45.1408 7.27342 45.1746 7.92281C45.1813 8.09869 45.0393 8.32869 45.0393 8.39633C45.0393 8.51133 45.249 9.06599 45.276 9.29598C45.2895 9.38392 45.1881 9.44483 45.1949 9.53276C45.2084 9.68835 45.4518 10.3783 45.5194 10.5745C45.6073 10.8112 45.8643 10.9601 45.729 11.2171L45.9995 11.1968C45.9995 11.1968 45.9522 11.3524 45.9657 11.42C45.9725 11.4674 46.4728 12.1506 46.5134 12.1777C46.6013 12.2318 46.6486 12.1642 46.7636 12.3333C46.9326 12.5836 46.9326 12.4889 47.0881 12.6309C47.1625 12.6986 47.1557 12.8812 47.3856 12.9285L47.2572 13.003L47.6832 13.1315L47.6223 13.2667C48.1767 13.3817 48.3931 13.5576 49.0084 13.375C50.0362 13.0706 50.7259 12.0086 50.9963 11.1156C51.2465 10.2971 51.375 9.33659 51.3344 8.51809C51.3344 8.41662 51.2465 8.30837 51.2465 8.20014L51.375 8.03102C51.3277 8.04455 51.26 8.05133 51.2398 7.99721C51.1519 7.80104 51.1181 7.40194 51.0302 7.199C50.9963 7.12459 50.78 6.77962 50.7394 6.70521C50.5704 6.36698 50.4892 6.17756 50.2052 5.88669C50.07 5.74463 49.8198 5.67698 49.7792 5.41316L49.9077 5.30495C49.7387 5.37259 49.6575 5.39965 49.4953 5.30495C49.3465 5.22378 49.4006 5.12905 49.3803 5.10875C49.3195 5.05464 48.8732 4.75703 48.7988 4.71644L48.8056 4.69613Z" fill="#6F7A58" stroke="#6F7A58" stroke-width="0.85" stroke-linecap="round" stroke-linejoin="round"/>
<path d="M33.4229 40.3924L33.4094 40.5142C33.8354 40.3857 34.4439 40.5751 34.8563 40.7307C36.7293 41.4477 37.4528 43.1861 38.1358 44.8908C38.2777 45.2358 38.4062 45.662 38.5144 45.9528C38.5753 46.1017 38.4873 46.4805 38.5009 46.5887C38.5009 46.6293 38.6226 46.609 38.6429 46.6564C38.724 46.8593 38.6767 48.0431 38.6158 48.3069C38.5888 48.4354 38.4535 48.4422 38.4535 48.4828C38.4535 48.591 38.5888 48.7195 38.555 48.8481C38.5347 48.936 38.3859 48.9428 38.3724 49.0104C38.3589 49.0848 38.5076 49.4433 38.4806 49.4772L38.2777 49.4975L38.3859 49.9033L38.0546 50.1333L38.271 50.2754C37.9329 50.2686 38.156 50.3701 38.129 50.4039C38.1087 50.4377 38.014 50.4512 37.9937 50.4918C37.9058 50.6609 37.987 50.8842 37.6421 50.9112L37.7909 51.0262C37.5475 50.9992 37.6016 51.148 37.5069 51.2495C36.9254 51.8718 36.087 52.4265 35.2012 52.7241C33.5514 53.2788 31.5838 52.3047 30.5831 51.0871C30.5019 50.9856 30.4072 50.7151 30.3869 50.7015C30.3464 50.6745 30.2314 50.7218 30.2044 50.7015C30.1773 50.6812 30.0894 50.1469 30.0556 50.086C29.1496 48.6113 28.683 46.3858 29.0887 44.6405C29.1158 44.512 29.2375 44.5188 29.2442 44.4579C29.3592 43.7476 29.5012 43.3282 29.846 42.7262C30.1232 42.2527 30.0286 42.4962 30.3802 42.2053C30.4951 42.1106 30.5898 41.8942 30.7048 41.7927L30.8265 42.043C30.9414 42.0633 30.867 41.9483 30.8941 41.928C30.9211 41.9077 31.0225 41.9483 31.1104 41.8874C31.3268 41.7318 31.5635 41.3327 31.746 41.123L31.861 41.2448C31.8069 40.893 32.0774 40.9742 32.2261 40.8727C32.2667 40.8457 32.2734 40.7307 32.3411 40.6901C32.4763 40.6089 32.9428 40.4195 33.0983 40.3924C33.2133 40.3721 33.3215 40.3924 33.4364 40.406L33.4229 40.3924ZM34.8293 42.6247C34.0585 41.9415 32.9226 41.7589 32.0165 42.3474C31.408 42.7465 31.8137 42.7194 31.6717 43.1997C31.6581 43.2606 31.577 43.2606 31.5567 43.3079C31.4823 43.4635 31.5973 43.6259 31.2998 43.6056L31.4485 43.7206L31.124 43.9438L31.2795 44.1873L31.1442 44.167L31.1037 44.627L30.9076 44.6744C30.8129 44.83 31.1307 44.7826 31.0631 44.857C31.009 44.9111 30.8738 44.884 30.8332 45.0667C30.7859 45.2832 31.0699 45.6349 30.7521 45.7229L30.725 45.8243L30.8873 46.034L30.6912 46.149C31.1172 46.2843 30.7859 46.927 30.8603 47.299C30.8805 47.3937 30.9955 47.4546 31.0158 47.5493C31.1848 48.4016 31.3133 49.2201 31.8677 49.9439C31.9286 50.0251 32.0774 50.2415 32.0976 50.2618C32.1855 50.3498 32.74 50.6677 32.8752 50.7624C33.1254 50.9248 33.0713 50.9315 33.4026 51.0736C33.4432 51.0939 33.4567 51.1683 33.477 51.1751C33.646 51.2292 34.5521 51.1818 34.7279 51.148C35.4108 51.0059 35.9518 50.6001 36.2763 50.0386C36.5468 49.5651 36.6414 48.7736 36.6752 48.2528C36.7158 47.5966 36.7631 46.9067 36.7564 46.2843C36.7564 46.2573 36.6482 46.2708 36.6279 46.2167C36.5062 45.9123 36.4927 45.5605 36.3845 45.2358C36.0802 44.3496 35.5461 43.247 34.8429 42.6247H34.8293Z" fill="#6F7A58" stroke="#6F7A58" stroke-width="0.85" stroke-linecap="round" stroke-linejoin="round"/>
<path d="M11.2787 4.26322C11.5288 4.37145 11.921 4.71646 12.1171 4.91263C13.7602 6.48199 14.1794 9.2622 13.9901 11.5012C13.963 11.8056 14.1118 12.1642 13.7737 12.2589L13.9225 12.3468C13.8548 12.5362 13.8278 12.7527 13.7669 12.9421C13.4965 13.72 13.3342 13.9432 12.7798 14.5453C12.6986 14.6332 12.8203 14.8023 12.5431 14.7617L12.6242 14.8835L12.347 14.8429C12.4619 15.1203 11.8534 15.3367 11.61 15.5126C11.5626 15.5464 11.5492 15.6411 11.4815 15.6817C11.2652 15.817 10.9609 15.7967 10.7107 15.8238L10.7715 15.6885C10.2171 15.8711 10.2712 15.6479 9.92633 15.472C9.6153 15.3164 9.50713 15.3773 9.18257 15.1C7.45836 13.5915 6.84983 11.6163 6.66051 9.45839L6.52527 9.41104C6.80926 9.09987 6.27509 8.64662 6.5726 8.36928L6.44413 8.32192V7.61166L6.6402 7.52372C6.6402 7.4696 6.49146 7.51019 6.43736 7.40196C6.41032 7.35461 6.39679 6.67142 6.39003 6.5429C6.38327 6.34672 6.5185 6.13025 6.30212 5.90026C6.59287 5.98143 6.61991 5.45379 6.71457 5.41996L7.18789 5.44028C7.28932 5.12911 7.53949 5.23734 7.81672 5.18322C7.9249 5.04793 7.76939 4.75704 7.78292 4.73674C7.79644 4.72321 7.9114 4.75028 7.96549 4.70293C8.47261 4.27 8.76336 4.08737 9.48009 3.95208C9.93987 3.86414 10.8662 4.08058 11.2922 4.26999L11.2787 4.26322ZM10.9473 6.17759C10.7174 5.95436 10.474 5.65673 10.1089 5.59585C9.84521 5.5485 8.71603 5.59586 8.55375 5.7785C8.29005 6.18437 8.263 6.44816 8.25624 6.93521C8.24271 7.67254 8.39824 10.6895 8.72956 11.2104C8.7566 11.2577 8.81743 11.2577 8.87153 11.2442L8.75659 11.4065C8.81068 11.5351 9.04733 11.6974 9.04733 11.7177C9.06086 11.7786 9.00002 12.1845 9.0203 12.198C9.04735 12.2115 9.16227 12.1642 9.20961 12.198C9.29751 12.2589 9.25694 12.6851 9.54769 12.7121C9.40569 13.003 9.58151 12.8947 9.69646 13.0233C10.0413 13.4088 10.3185 13.9974 10.873 14.18C11.0758 14.2477 10.7716 13.95 11.0082 13.9635C10.8595 13.7809 11.2449 13.7944 11.3328 13.6727C11.4071 13.5712 11.5221 13.145 11.5897 13.0098C11.6506 12.888 11.7317 12.7594 11.8872 12.7324L11.7384 12.6174C12.063 12.658 11.9548 12.1642 12.0089 11.9071C12.036 11.7786 12.0968 11.6365 12.1442 11.4133C12.1712 11.278 12.3132 11.278 12.3132 11.2442C12.2997 11.1495 12.178 11.0683 12.1712 11.0007C12.1644 10.8992 12.3132 10.8045 12.3064 10.7301C12.2794 10.1551 12.232 9.43807 12.1239 8.82926C12.0495 8.39633 12.0022 8.50457 12.0292 8.03105C12.0292 7.95664 11.3936 6.99611 11.3192 6.78641C11.2178 6.48201 11.2449 6.46847 10.9473 6.19113V6.17759Z" fill="#6F7A58" stroke="#6F7A58" stroke-width="0.85" stroke-linecap="round" stroke-linejoin="round"/>
<path d="M34.5048 2.06477L34.3898 2.33537L34.7346 2.37595C34.7008 2.47742 34.7685 2.6533 34.7617 2.71418C34.7549 2.77506 34.5656 2.72772 34.64 2.89683L34.8428 2.88329C34.8699 3.18093 34.8428 3.41092 34.7076 3.68827C34.1464 4.845 33.3485 5.96791 32.74 7.11788C32.6318 7.32081 32.74 7.48991 32.4289 7.65226L32.5709 7.73343C32.2328 7.88225 32.1044 8.36929 31.9354 8.66693C31.8407 8.83605 31.7866 9.06607 31.773 9.0796C31.7392 9.12695 31.604 9.154 31.5364 9.28253C31.4553 9.44487 31.5634 9.54632 31.5567 9.55985C31.5431 9.57338 31.4079 9.55986 31.3268 9.64779C31.1713 9.80338 31.2592 10.2296 30.9346 10.2634C31.5026 11.0684 31.9962 11.9342 32.483 12.7933C32.6859 13.1586 33.0848 13.7336 33.2268 14.0853C33.2741 14.1935 33.2065 14.3153 33.22 14.3356C33.2268 14.3491 33.3553 14.3491 33.4094 14.4371C33.504 14.5791 33.9706 15.7223 33.9232 15.7764C33.7812 15.7764 33.6933 15.9591 33.6798 15.9726C33.4567 16.1011 33.4634 15.8779 33.3755 15.7832C33.2133 15.6073 33.1795 15.4314 33.1457 15.3976C33.1254 15.3773 33.0172 15.4179 32.9496 15.3638C32.5033 14.9985 31.7731 14.1529 31.3674 13.693C30.8805 13.145 30.4005 12.5768 30.015 11.9612C29.6905 12.4618 29.3524 12.9556 29.0076 13.4427C28.4193 14.2747 27.689 15.4179 26.9994 16.1688C26.7965 16.392 26.5937 16.622 26.2488 16.622L26.357 16.1688L26.6207 16.1417C26.3773 15.8644 26.7695 15.5397 26.7763 15.4991C26.7763 15.4382 26.7086 15.3638 26.7289 15.2894C26.7627 15.1744 26.9182 14.8835 27.067 14.87L26.925 14.7888C27.1278 14.6197 27.0602 14.4573 27.1278 14.2882C27.6147 12.9894 28.3246 11.7651 28.8182 10.4798C28.8115 10.2363 28.656 10.2363 28.5951 10.1551C27.7161 8.95105 26.9115 7.77405 25.9649 6.62408C25.8499 6.48879 25.9378 6.32643 25.6741 6.35348C25.5524 6.0829 25.0182 5.7041 25.1399 5.39294C25.1805 5.2847 25.2887 5.30499 25.2887 5.29822C25.3022 5.27117 25.025 5.01411 25.1805 4.79089L25.3901 4.83824L25.3766 4.64882L26.5058 4.6759C26.6951 4.92619 26.9926 5.16295 27.1887 5.39971C27.2428 5.46059 27.2225 5.5891 27.2563 5.63645C27.2969 5.6838 27.4456 5.65673 27.5065 5.71085C27.5268 5.73114 27.7093 6.0288 27.8108 6.15056C28.4531 6.92848 28.9602 7.77404 29.5553 8.56549L29.677 8.42342C29.6026 8.66694 29.6161 8.74813 29.8528 8.86313L30.9211 6.81347C31.7596 5.57556 32.3343 4.17532 33.1659 2.93742C33.3282 2.6939 33.362 2.2745 33.7677 2.30832L33.6866 2.18657C33.8353 2.15951 33.9097 2.1392 33.903 2.29478H33.9706C33.9232 2.08508 34.3357 2.11891 34.498 2.05127L34.5048 2.06477Z" fill="#6F7A58" stroke="#6F7A58" stroke-width="0.85" stroke-linecap="round" stroke-linejoin="round"/>
<path d="M48.0077 42.07C48.6568 42.5977 49.3194 43.2538 49.9618 43.795C50.1241 43.9303 51.1654 44.8299 51.2465 44.8232C51.5237 44.3632 51.6793 43.8423 51.8821 43.3418C52.0714 42.8682 52.2607 42.3744 52.4839 41.9483C52.6056 41.7183 52.4839 41.5762 52.9031 41.5086C53.0518 41.4815 53.2412 41.5424 53.302 41.5289C53.3629 41.5153 53.7077 40.8592 53.6942 41.6371C54.1608 41.4274 54.0255 41.7859 54.0796 41.8536C54.0999 41.8806 54.2013 41.8265 54.2081 41.9415C54.2081 42.0836 54.1202 42.7329 54.039 42.8344C53.9782 42.9088 53.8497 42.8885 53.8835 42.9765L54.0188 42.9629V43.0915C53.7889 43.0847 53.9579 43.3012 53.9038 43.4162C53.8835 43.45 53.7348 43.4771 53.6942 43.5718C53.6672 43.6326 53.5454 43.9979 53.5116 44.0791C53.444 44.2753 53.5454 44.5729 53.2547 44.5188L53.4643 44.5999C53.1803 44.742 53.2547 45.0397 53.1398 45.3035C53.0248 45.5673 52.849 45.919 52.6326 46.0949C52.9031 46.5549 53.4035 46.8323 53.8227 47.1637L53.7009 47.3328C54.0864 47.2043 54.1067 47.5628 54.1608 47.6034C54.3771 47.7928 54.8301 47.8875 54.8234 48.2663H55.0195L54.9924 48.4557L55.3102 48.4895C55.1276 48.8616 55.6145 48.8481 55.7294 48.9698C55.7497 48.9901 55.7159 49.1322 55.7903 49.2472C55.9931 49.5448 56.6017 49.9845 56.8721 50.2957C56.9397 50.3769 57.0209 50.4107 56.9939 50.546C56.8789 50.573 56.791 50.5324 56.6896 50.4986C55.7633 50.2077 53.1533 48.591 52.2878 47.9619C52.2202 47.9146 51.9903 47.6237 51.9362 47.6711C51.9091 47.8943 51.8415 48.0634 51.6319 48.1852L51.7739 48.2392C51.3885 48.4625 51.4156 48.8007 51.2465 49.078C50.9152 49.6327 50.5433 50.2618 50.1376 50.7759C50.0497 50.8909 49.8604 50.9789 49.8063 51.0601C49.7049 51.2089 49.9145 51.1007 49.5967 51.3983C49.4615 51.5201 49.36 51.7568 49.1166 51.7365C49.0084 51.6486 49.3938 50.4445 49.4479 50.2348C49.7319 49.0848 50.0024 47.8537 50.3607 46.7578C50.4013 46.6293 50.5433 46.5887 50.523 46.4128C50.4757 46.0949 50.1646 46.1152 50.0294 46.007C49.8942 45.8987 49.7454 45.7229 49.5831 45.5876C49.0422 45.1276 48.5486 44.6406 47.9942 44.1603C47.5276 43.7544 46.6283 43.1659 46.3105 42.6653C45.9927 42.1647 46.1888 42.2324 46.3511 41.7386L46.5675 41.8468V41.6642L46.9799 41.4207C47.1084 41.583 47.318 41.7927 47.5006 41.8941C47.6493 41.9753 47.9874 42.043 48.0144 42.0633L48.0077 42.07Z" fill="#6F7A58" stroke="#6F7A58" stroke-width="0.85" stroke-linecap="round" stroke-linejoin="round"/>
<path d="M4.88898 19.0369C4.9359 19.057 4.9359 19.0771 4.88898 19.1039V19.0369Z" fill="#6F7A58" stroke="#6F7A58" stroke-width="0.85" stroke-linecap="round" stroke-linejoin="round"/>
<path d="M33.5379 23.1497L33.5851 23.2512L34.099 23.1565C33.9976 23.3391 34.2073 23.2918 34.2546 23.3865C34.3898 23.657 34.1937 23.9885 34.7144 23.9479V24.0967L31.9286 28.3651L33.1727 29.3392L33.1254 29.5286L33.3215 29.4475C33.2809 29.7045 33.5311 29.6504 33.6663 29.7654C34.187 30.2051 34.6603 30.7665 35.1404 31.213C35.2485 31.3145 35.9179 31.6662 35.7894 31.8285C35.4378 31.7947 35.2079 31.815 34.8699 31.7136C34.0179 31.443 32.8955 30.8545 32.0165 30.4621C31.7596 30.3471 31.8745 30.2457 31.8609 30.2321C31.7866 30.1645 31.5229 30.1848 31.4485 30.151C31.4012 30.1307 30.9617 29.691 30.9346 29.718C30.3599 30.8003 29.5688 31.7609 28.7033 32.6606C28.399 32.9718 28.1421 33.1612 27.8378 33.4385C27.6755 33.5873 27.662 33.9188 27.2698 33.8512C27.0061 33.8038 27.4592 33.5806 27.1346 33.5738C27.3442 33.2356 27.4254 32.8432 27.5741 32.4847C27.8649 31.7745 28.9332 29.373 29.4538 28.8725C29.5282 28.8048 29.6432 28.8116 29.6094 28.7304L28.6289 28.0946C28.5343 27.9458 28.3314 27.9254 28.3584 27.7293C28.1826 27.9051 27.777 27.5331 27.9122 27.3166C27.6755 27.3572 27.547 27.3302 27.547 27.0867L27.3577 27.1678L24.9168 25.2399L25.1061 25.064C24.9574 25.0979 24.9303 24.7191 24.9641 24.6582C25.0114 24.5703 25.167 24.5635 25.221 24.5094C25.2819 24.4553 25.2346 24.3606 25.2684 24.3267C25.3022 24.2794 25.7688 23.9615 25.8702 24.0021L26.0054 24.1712C26.3705 23.9412 26.5328 24.2726 26.81 24.5094C27.1278 24.78 27.635 25.2264 27.9933 25.4767C28.2503 25.6526 28.7574 25.9028 28.967 26.0855C29.0414 26.1531 29.0279 26.3087 29.0955 26.3696C29.1496 26.417 29.4335 26.4711 29.5282 26.5387C29.7446 26.7011 29.9542 26.8431 30.2111 27.0258C30.3193 27.1002 30.3937 27.337 30.5965 27.2964L30.8535 26.7823C31.2186 26.5523 31.4012 25.957 31.6311 25.6864C31.7325 25.5646 31.9421 25.5105 31.9556 25.4902C31.9624 25.4767 31.8812 25.3955 31.9083 25.3076C31.9624 25.1588 32.2329 24.8544 32.2734 24.7529C32.3005 24.6785 32.2261 24.5973 32.2328 24.577C32.2802 24.4823 32.8752 23.7179 32.9969 23.5962C33.1389 23.4473 33.3282 23.3459 33.4432 23.17H33.5379V23.1497Z" fill="#6F7A58" stroke="#6F7A58" stroke-width="0.85" stroke-linecap="round" stroke-linejoin="round"/>
</svg>
