<svg width="363" height="445" viewBox="0 0 363 445" fill="none" xmlns="http://www.w3.org/2000/svg">
<path d="M257.925 0.296041C257.267 0.844549 257.157 1.50276 257.596 2.13354C258.117 2.8466 258.83 2.87403 259.433 2.21582C260.063 1.53018 260.009 0.899399 259.296 0.405743C258.555 -0.115339 258.473 -0.115339 257.925 0.296041Z" fill="black"/>
<path d="M167.496 46.2061C164.123 46.7272 161.793 47.4402 158.42 49.0309C157.46 49.4697 155.843 50.2102 154.828 50.649C153.731 51.1427 152.333 52.1025 151.401 52.9527L149.838 54.4063L151.318 52.6785C152.634 51.1427 154.883 49.3326 155.486 49.3326C155.596 49.3326 155.705 49.1406 155.705 48.8938C155.705 47.8516 151.126 49.2777 147.946 51.3072C144.491 53.5561 141.667 56.518 140.488 59.2331C140.104 60.1656 140.104 60.1656 140.076 59.3977C140.076 58.9863 140.323 57.9441 140.625 57.094C140.926 56.2163 141.173 55.3662 141.173 55.1742C141.173 54.4611 140.351 54.8451 139.418 55.9969C138.02 57.6973 137.581 59.1783 137.554 62.1402V64.6634L136.512 65.4861C134.894 66.7751 133.496 71.1358 133.496 74.8656C133.496 78.2389 134.428 84.0805 135.552 87.7281C135.662 88.0298 135.388 88.2766 134.757 88.496C134.236 88.688 133.441 89.2913 132.975 89.8124C132.152 90.7175 132.125 90.8546 132.125 93.2955C132.125 96.2025 132.564 97.4093 134.181 99.1919C135.497 100.673 137.28 101.359 138.623 100.947C139.199 100.783 139.638 100.673 139.665 100.7C139.693 100.728 140.241 102.483 140.872 104.595C144.299 115.592 144.793 116.552 149.097 120.2C151.73 122.449 154.417 124.204 155.157 124.204C155.404 124.204 155.98 124.533 156.418 124.917C159.572 127.687 160.641 128.235 161.162 127.303C161.902 125.987 161.984 125.959 162.505 126.59C162.752 126.892 163.383 127.248 163.876 127.358C164.644 127.522 164.809 127.467 164.946 126.974C165.055 126.535 165.165 126.48 165.576 126.727C165.96 126.974 166.18 126.974 166.481 126.7C166.838 126.425 166.92 126.48 167.084 126.946C167.194 127.33 167.03 127.797 166.454 128.537C164.973 130.402 163.931 132.349 163.931 133.227C163.931 133.748 164.068 134.077 164.315 134.077C164.946 134.077 166.975 132.349 169.826 129.387C173.583 125.465 174.515 124.67 176.517 123.683L178.244 122.805L179.176 123.436C179.697 123.792 180.109 124.314 180.109 124.615C180.109 125.109 177.476 129.689 175.612 132.431C174.625 133.885 174.707 133.748 172.486 137.615C171.362 139.589 170.567 140.659 170.265 140.659C170.018 140.659 169.196 140.083 168.428 139.343C165.631 136.765 164.617 135.86 163.931 135.311C163.493 134.955 163.273 134.543 163.328 134.159C163.52 132.87 162.286 131.636 159.544 130.32C150.77 126.124 146.657 123.765 146.657 122.915C146.657 122.449 145.56 121.736 144.82 121.736C144.052 121.736 143.367 122.723 142.407 125.246C141.996 126.343 141.255 127.824 140.734 128.537C138.568 131.526 138.705 131.993 142.297 133.803C145.944 135.613 149.07 137.752 151.565 140.111C154.033 142.442 156.473 144.142 157.515 144.279C158.255 144.362 158.283 144.416 158.228 145.733C158.173 146.473 158.42 151.053 158.722 155.88C159.051 160.707 159.407 167.673 159.544 171.375C159.681 175.517 159.983 179.521 160.339 181.797C161.025 186.295 161.546 191.423 161.436 192.054C161.354 192.438 160.97 192.301 159.133 191.231C157.926 190.518 156.281 189.586 155.514 189.175C152.826 187.721 150.907 186.651 148.631 185.335C147.397 184.595 146.328 183.991 146.273 183.991C146.218 183.991 144.738 183.196 143.01 182.209C141.255 181.249 138.541 179.768 136.978 178.945C129.383 174.996 127.518 174.008 126.504 173.432C124.914 172.527 111.451 165.781 109.504 164.931C101.552 161.365 96.4797 159.775 87.8426 158.102C83.0442 157.197 80.1103 157.114 42.5184 157.114C7.03772 157.087 4.92643 157.114 4.10385 157.581C3.39095 157.992 3.25385 158.239 3.25385 159.144C3.25385 159.747 3.06192 160.433 2.84256 160.68C2.15708 161.448 0.895788 165.506 0.37482 168.633C-0.584858 174.392 0.265142 178.835 3.30869 184.073C4.48772 186.075 6.24256 188.27 10.6297 193.069C15.949 198.911 17.2377 201.516 18.6087 209.332C19.5409 214.653 19.5958 214.954 20.3087 217.039C21.57 220.769 23.4893 223.566 26.7522 226.363C27.7668 227.268 28.8087 228.173 29.0555 228.42C29.3022 228.667 30.4264 229.627 31.5232 230.559C35.4168 233.768 37.3909 236.538 39.4474 241.722C41.8603 247.783 44.1635 251.046 48.0845 253.953C50.1684 255.517 51.0184 256.01 55.899 258.533C60.5055 260.919 61.6022 261.632 66.5926 265.554C68.649 267.145 71.2813 268.928 72.4877 269.531C76.2168 271.396 79.9732 271.643 82.4135 270.217C84.3877 269.065 84.4974 268.598 84.3329 262.592C84.1958 257.409 84.1958 257.299 82.9345 252.692C82.2216 250.114 80.9877 246.055 80.1651 243.641C78.328 238.156 77.9716 236.264 78.328 233.713C78.6845 231.108 79.7813 228.969 81.8103 226.802L83.5377 225.02L86.0877 227.076C91.1603 231.163 95.3555 233.11 100.483 233.768C102.21 234.015 105.473 233.521 107.393 232.753L108.846 232.178L110.134 233.467C110.847 234.18 111.917 235.139 112.52 235.606L113.617 236.456L113.562 243.861C113.507 252.637 113.672 253.871 115.152 254.392C115.673 254.557 116.688 254.803 117.455 254.886L118.826 255.078L118.223 255.571C117.867 255.846 117.483 256.367 117.346 256.723C117.126 257.327 116.633 261.523 115.673 270.93C115.536 272.356 115.234 275.208 114.988 277.237C114.768 279.267 114.22 284.752 113.754 289.442C113.288 294.104 112.739 299.617 112.52 301.646C111.752 308.969 109.888 329.62 109.093 340.042C108.764 344.046 108.325 349.394 108.105 351.972C107.886 354.522 107.475 359.514 107.173 363.024C106.872 366.562 106.488 370.566 106.323 371.937C105.72 377.505 105.693 378.931 106.214 380.11C106.872 381.564 107.804 382.002 110.189 382.002C111.286 382.002 112.109 382.112 112.109 382.277C112.109 382.414 111.972 382.551 111.78 382.551C111.368 382.551 109.257 383.895 106.214 386.116C102.951 388.475 102.676 388.722 98.728 392.561C93.8474 397.278 91.1603 401.063 90.6393 403.86C90.5022 404.601 90.5845 404.848 91.1877 405.314C92.0651 406 92.5313 406 95.1087 405.287C96.9732 404.765 98.3442 404.683 109.23 404.464C128.999 404.052 132.755 403.312 137.609 398.842C140.351 396.291 141.996 391.876 141.996 387.103V385.677L144.573 385.705C146.931 385.705 147.233 385.65 147.864 385.047C148.247 384.663 148.576 384.087 148.576 383.73C148.576 383.099 147.726 382.002 147.233 382.002C147.096 382.002 146.657 381.893 146.273 381.756C145.615 381.481 145.615 381.481 145.999 380.028C146.52 378.081 147.617 372.157 148.439 366.918C148.796 364.587 149.646 359.322 150.331 355.263C150.989 351.176 151.867 345.691 152.278 343.058C152.689 340.426 153.484 335.297 154.088 331.649C154.664 328.002 155.349 323.751 155.568 322.188C156.528 315.852 157.926 306.363 158.091 305.129C158.173 304.416 158.338 303.922 158.475 304.032C158.667 304.251 159.654 308.173 160.915 313.85C161.272 315.359 161.82 317.635 162.176 318.924C162.505 320.213 163.191 322.846 163.657 324.82C164.123 326.768 164.809 329.565 165.138 330.991C166.18 335.187 171.417 355.592 172.705 360.336C172.952 361.324 173.884 364.834 174.762 368.125C175.612 371.444 176.489 374.406 176.681 374.707C177.093 375.338 177.696 377.34 178.464 380.768C179.122 383.758 179.67 384.196 182.549 384.196H184.715L184.825 389.462C184.907 394.755 184.907 394.755 185.784 396.62C186.991 399.171 188.883 400.981 191.131 401.721C193.599 402.517 200.125 403.394 204.951 403.586L209.118 403.751L207.967 404.656C205.334 406.74 201.797 409.428 200.234 410.497C198.233 411.841 198.205 411.869 197.41 413.816C197.054 414.639 196.505 415.763 196.149 416.284C195.272 417.601 193.078 423.524 192.859 425.225C192.393 428.653 194.367 431.121 197.904 431.56C198.973 431.67 199.467 431.56 200.673 430.957C203.799 429.366 206.98 424.923 206.596 422.647C206.459 421.659 206.514 421.577 208.131 420.261C210.599 418.286 210.955 418.122 212.518 418.314C213.807 418.506 213.972 418.451 215.315 417.381C216.933 416.147 217.07 416.12 217.536 416.723C217.755 417.025 218.057 417.107 218.468 416.97C219.209 416.75 220.415 415.461 220.415 414.94C220.415 414.666 220.58 414.721 221.046 415.132C221.402 415.461 221.978 415.736 222.362 415.736C223.349 415.736 224.83 414.145 226.036 411.841C226.612 410.744 227.544 409.263 228.12 408.578C229.107 407.371 229.134 407.289 228.751 406.521C228.531 406.082 228.175 405.643 228.01 405.533C227.489 405.232 225.981 406.85 224.062 409.784L222.307 412.445L221.676 411.704C221.101 411.046 220.936 410.991 220.251 411.21C219.73 411.402 219.236 411.923 218.77 412.801C218.222 413.843 217.947 414.09 217.372 414.09C216.988 414.09 216.247 414.392 215.726 414.776C213.752 416.202 212.82 416.586 212.08 416.257C211.175 415.818 210.297 416.174 207.418 418.039C206.13 418.89 205.06 419.603 205.06 419.657C205.06 419.685 204.759 420.562 204.375 421.605C203.991 422.647 203.689 423.662 203.689 423.881C203.689 424.402 202.867 426.157 202.62 426.157C202.538 426.157 202.264 425.746 202.044 425.28C201.578 424.32 201.276 424.128 200.701 424.484C200.344 424.704 200.234 425.389 200.152 427.72C200.125 428.434 200.015 428.626 199.576 428.626C199.193 428.626 199.001 428.379 198.891 427.583C198.534 425.609 198.343 425.197 197.63 425.197C197.026 425.197 196.972 425.334 196.834 426.843L196.697 428.488L196.176 427.72C195.71 427.035 195.683 426.761 195.93 425.389C196.094 424.539 197.081 421.605 198.123 418.89L199.988 413.953L202.318 412.225C210.599 406.137 212.82 404.107 214.657 401.008C216.22 398.375 216.412 397.361 215.37 397.361C214.904 397.361 214.355 397.772 213.615 398.622C212.546 399.856 212.546 399.884 211.476 399.582C210.901 399.417 208.652 399.28 206.486 399.28C201.249 399.28 194.284 398.485 192.036 397.635C189.925 396.84 188.938 395.002 188.581 391.217C188.444 389.709 188.197 387.542 188.06 386.445C187.896 385.348 187.786 384.361 187.786 384.251C187.786 384.142 188.691 384.059 189.788 384.032C192.584 384.032 194.86 383.675 195.326 383.209C195.847 382.661 195.847 381.07 195.326 380.521C194.641 379.836 193.434 379.781 187.786 380.055C184.852 380.192 182.412 380.275 182.357 380.247C182.33 380.192 182.001 378.931 181.617 377.45C181.26 375.941 180.383 373.007 179.697 370.923C178.984 368.811 177.888 364.807 177.202 362.009C175.776 356.031 175.283 354.083 173.939 349.092C173.418 347.062 172.431 343.113 171.773 340.316C170.567 335.242 168.702 327.865 166.618 320.158C164.809 313.384 163.136 306.994 161.875 302.003C161.217 299.425 160.422 296.572 160.12 295.695C159.791 294.79 159.544 293.583 159.544 292.952C159.544 292.184 159.38 291.691 158.968 291.334C158.475 290.868 158.338 290.868 157.707 291.224C157.296 291.444 156.884 291.937 156.775 292.321C156.089 294.735 154.581 303.319 151.346 323.038C150.907 325.835 150.03 331.019 149.426 334.556C148.165 341.961 145.588 358.279 144.738 364.313C144.409 366.562 143.805 370.895 143.367 373.912C142.928 376.929 142.517 379.836 142.489 380.357L142.407 381.317L140.625 381.234C139.638 381.18 136.622 380.713 133.907 380.165C129.438 379.287 128.341 379.178 122.254 378.986C116.825 378.794 109.778 378.273 109.422 378.026C109.394 377.998 109.668 374.954 110.052 371.279C110.409 367.604 110.847 363.298 111.012 361.708C111.149 360.117 111.78 353.891 112.383 347.858C113.644 335.078 114.11 329.647 115.536 312.342C115.92 307.734 116.359 302.853 116.496 301.509C116.743 299.26 117.593 289.826 118.552 278.334C119.183 270.847 119.512 267.09 119.786 264.43C120.252 260.124 120.143 256.943 119.512 255.901L118.964 255.023H125.489C130.315 255.05 132.564 255.16 134.181 255.489C135.388 255.736 137.252 255.955 138.294 255.983C140.131 256.01 140.323 256.092 142.955 257.765C147.37 260.535 152.662 263.059 156.939 264.43C160.476 265.554 167.825 265.719 171.472 264.786C176.818 263.36 183.975 259.959 190.062 255.928C194.284 253.158 194.422 253.076 195.052 253.487C195.573 253.816 196.505 253.926 199.165 253.926C202.346 253.926 202.62 253.953 202.483 254.392C201.934 256.339 202.318 261.468 203.964 273.946C204.128 275.071 204.786 281.132 205.472 287.385C206.157 293.638 206.897 300.247 207.144 302.057C207.665 306.171 208.46 312.726 209.173 318.787C209.475 321.365 209.859 323.861 210.023 324.354C210.544 325.835 212.436 325.835 213.368 324.354C213.917 323.504 213.615 320.186 211.367 302.195C210.764 297.45 209.776 289.551 209.173 284.642C208.57 279.733 207.884 274.55 207.665 273.124C207.144 269.75 206.239 262.921 205.91 259.959C205.746 258.67 205.389 256.888 205.088 256.01C204.759 255.105 204.512 254.31 204.512 254.2C204.512 254.09 206.267 253.898 208.405 253.761C212.162 253.514 212.299 253.487 212.82 252.774L213.396 252.006L212.793 250.717C212.464 249.977 212.052 248.359 211.888 247.07C211.202 241.639 211.12 240.871 211.12 240.35C211.12 240.021 211.614 239.418 212.381 238.842C213.094 238.321 214.547 237.169 215.589 236.291C216.659 235.414 217.783 234.481 218.084 234.234C222.115 230.916 223.157 229.682 223.157 228.201C223.157 227.268 223.075 227.296 226.996 226.939C228.997 226.747 233.412 225.294 234.81 224.389C238.868 221.728 241.473 217.971 242.378 213.473C242.789 211.444 242.789 205.52 242.378 204.505C242.131 203.82 242.214 203.6 243.475 202.037C244.928 200.2 254.415 190.491 254.58 190.656C254.634 190.71 254.744 191.615 254.854 192.685C255.265 197.128 253.647 201.571 250.083 205.849C248.876 207.303 248.712 207.988 249.507 208.482C250.247 208.948 251.399 208.427 253.072 206.864C255.155 204.862 256.664 201.927 257.678 197.951C258.172 196.058 258.665 194.742 258.994 194.413C259.296 194.139 259.68 193.343 259.872 192.63C260.064 191.917 260.228 191.369 260.283 191.423C260.53 191.67 259.844 194.769 259.186 196.497C256.965 202.311 256.334 205.136 257.212 205.328C257.733 205.438 258.391 204.176 259.214 201.543C259.734 199.898 260.42 198.417 260.584 198.581C260.667 198.636 260.53 199.24 260.338 199.953C260.009 200.995 260.009 201.516 260.31 203.216C260.612 204.944 262.312 210.265 263.162 212.102C263.299 212.404 264.176 214.57 265.109 216.902C266.041 219.233 267.549 222.661 268.426 224.526C269.304 226.391 270.044 227.981 270.044 228.091C270.044 228.749 272.265 233.96 272.759 234.481C273.472 235.249 273.993 236.099 273.718 236.099C273.609 236.099 273.005 235.606 272.347 235.002C270.017 232.863 268.755 233.768 268.481 237.745L268.317 239.857L267.302 240.323C265.904 240.926 264.259 242.27 263.601 243.312C263.217 243.916 263.025 244.848 262.915 246.439L262.778 248.715L261.051 247.508C258.83 245.945 257.514 245.698 256.17 246.548C254.909 247.316 253.867 249.428 253.867 251.238C253.867 251.979 253.812 252.555 253.73 252.555C253.675 252.555 253.044 252.006 252.386 251.32C251.701 250.662 250.851 250.031 250.467 249.922C249.37 249.648 248.438 250.443 248.026 251.924C247.862 252.609 247.533 253.24 247.341 253.323C247.149 253.377 246.354 253.021 245.559 252.472C243.722 251.211 242.899 250.909 241.309 250.909C239.664 250.909 238.128 251.65 236.73 253.048C236.126 253.652 235.551 254.09 235.468 254.036C235.386 253.981 235.414 253.268 235.523 252.445C235.633 251.595 235.797 248.413 235.88 245.369C236.264 232.232 236.373 230.642 236.812 228.475C237.251 226.254 237.251 226.171 236.73 225.787C236.291 225.458 236.126 225.458 235.66 225.787C234.317 226.638 233.878 229.956 233.576 241.31C233.439 246.219 233.193 251.979 233.028 254.145C232.726 257.765 232.754 258.122 233.193 258.616C233.439 258.89 233.796 259.137 233.96 259.137C234.125 259.137 235.386 258.012 236.73 256.641C238.101 255.27 239.526 253.981 239.938 253.761C241.144 253.131 242.378 253.295 243.831 254.255C245.86 255.626 246.82 256.12 247.451 256.12C248.301 256.12 249.397 255.16 249.754 254.063C249.918 253.542 250.165 253.103 250.275 253.103C250.384 253.103 250.96 253.597 251.536 254.228C254.251 257.025 256.088 256.504 256.444 252.884C256.664 250.799 257.322 248.989 257.897 248.989C258.528 248.989 259.405 249.538 260.667 250.69C262.284 252.171 263.601 252.719 264.478 252.253C265.602 251.65 265.931 250.635 265.931 247.7C265.931 246.11 266.068 244.738 266.288 244.354C266.452 243.97 267.247 243.367 268.043 242.983C268.81 242.599 269.77 241.968 270.154 241.612C270.976 240.844 271.525 239.363 271.278 238.568C271.031 237.827 271.223 237.882 272.622 238.952C274.13 240.103 275.501 240.378 276.597 239.829C277.557 239.308 277.831 238.595 277.584 237.251C277.338 235.99 276.926 235.139 274.952 232.205C274.102 230.889 273.143 229.161 272.841 228.365C272.539 227.57 271.58 225.431 270.675 223.621C269.797 221.811 268.865 219.836 268.618 219.233C268.372 218.629 267.96 217.642 267.714 217.039C267.247 215.914 267.055 215.393 265.273 210.32C262.723 203.024 262.668 202.778 263.299 201.077C263.518 200.501 263.765 199.24 263.847 198.252C264.012 196.113 264.697 194.029 265.959 191.862L266.891 190.244L267.11 192.274C267.384 194.632 269.057 200.254 269.825 201.351C270.236 201.927 270.565 202.092 271.114 202.037C271.799 201.955 271.826 201.9 271.772 200.392C271.744 199.541 271.525 198.444 271.278 197.978C270.017 195.565 269.66 193.809 269.66 190.299C269.688 188.407 269.825 186.569 269.989 186.185L270.291 185.5V186.35C270.346 188.516 271.689 192.356 273.444 195.318C274.157 196.497 274.376 197.539 274.431 199.788C274.431 200.995 276.214 200.803 277.064 199.487C277.941 198.115 277.694 196.387 276.159 193.234C274.02 188.955 273.609 187.419 273.417 183.251C273.225 179.219 273.526 176.751 274.596 173.378L275.254 171.266L282.191 164.382C294.118 152.452 298.752 147.159 303.797 139.672C309.117 131.746 310.789 127.769 309.089 127.111C308.349 126.837 307.526 127.797 304.373 132.569C297.738 142.551 291.514 149.929 280.052 161.365L275.391 166.028L275.226 164.793C275.034 163.066 273.883 160.981 271.991 158.897L270.373 157.142L273.444 154.043C279.093 148.311 282.657 144.334 287.236 138.712C292.336 132.377 294.146 130.347 297.847 126.7C299.767 124.835 301.384 122.997 301.467 122.641C301.714 121.681 301.193 120.748 300.343 120.529C299.739 120.364 299.301 120.556 298.067 121.489C295.243 123.628 290.005 129.113 285.673 134.488C282.739 138.136 278.681 142.908 276.241 145.596C272.594 149.6 267.933 154.454 267.522 154.673C267.138 154.865 266.836 154.619 265.959 153.384C265.355 152.534 264.533 150.998 264.149 149.956C263.464 148.174 263.436 148.037 263.875 147.598C264.286 147.214 264.314 146.748 264.149 144.252C263.875 139.754 263.272 136.463 262.202 133.583C260.255 128.373 257.815 124.286 254.305 120.255C252.386 118.061 248.273 114.797 246.875 114.331C246.354 114.166 245.915 113.947 245.915 113.892C245.915 113.81 246.134 113.316 246.409 112.74C247.643 110.299 247.917 106.871 246.93 106.268C246.162 105.774 245.531 106.432 245.065 108.187C244.297 111.122 242.817 114.386 242.159 114.632C240.76 115.153 241.61 116.662 245.257 119.953C248.849 123.244 251.618 125.987 252.797 127.495C253.73 128.674 254.991 131.033 255.375 132.349L255.539 132.925L254.196 132.431C252.304 131.718 249.699 131.225 248.876 131.417C248.109 131.609 247.78 132.377 248.136 133.035C248.273 133.282 249.151 133.611 250.22 133.803C252.194 134.187 254.497 135.064 255.759 135.969C256.444 136.463 256.581 136.847 256.91 138.794C257.459 142.113 257.404 148.311 256.801 150.587C255.841 154.262 254.909 155.825 252.825 157.306C248.794 160.159 246.683 161.118 241.528 162.462C237.854 163.395 237.305 163.669 237.196 164.574C237.086 165.452 238.046 166.439 239.033 166.439C239.581 166.439 240.157 166.933 241.391 168.386C243.612 171.019 244.517 172.637 244.873 174.721C245.257 176.97 245.476 177.217 246.847 177.053C247.752 176.915 248.246 176.586 249.425 175.38C250.247 174.529 250.933 173.844 250.988 173.844C251.015 173.844 251.152 174.749 251.234 175.818C251.454 178.095 251.673 179.109 252.825 183.251L253.647 186.213L249.726 190.134C243.941 195.921 241.665 198.307 241.117 199.157L240.623 199.925L239.691 198.801C238.896 197.896 238.567 197.704 237.717 197.704C236.922 197.704 236.51 197.896 235.88 198.554C235.194 199.267 235.084 199.596 235.112 200.885V202.366L233.741 201.077C232.973 200.337 232.315 199.733 232.233 199.706C232.178 199.678 232.288 199.24 232.48 198.773C233.138 197.21 232.041 195.976 227.818 193.59C223.404 191.122 215.507 188.928 210.27 188.763L207.144 188.653L206.815 187.556C205.855 184.348 203.607 180.974 201.468 179.521C200.125 178.616 198.809 178.204 197.081 178.204C194.257 178.177 191.159 179.96 186.964 184.019C181.781 189.037 178.546 191.725 176.27 192.904C172.705 194.742 167.057 195.839 166.07 194.879C165.851 194.632 165.193 194.276 164.644 194.029C163.684 193.617 163.657 193.59 163.822 192.52C164.041 191.177 163.465 184.457 162.944 182.209C162.56 180.508 162.204 175.983 161.738 166.439C161.601 163.34 161.272 158.047 161.052 154.646C160.805 151.245 160.668 147.488 160.696 146.254C160.751 144.334 160.668 143.923 160.12 143.182C159.517 142.332 159.517 142.305 160.01 141.646C160.312 141.29 160.751 140.303 161.052 139.452C161.354 138.602 161.655 137.917 161.738 137.917C161.82 137.917 162.999 139.041 164.343 140.385C167.386 143.484 169.059 144.608 170.018 144.252C170.375 144.115 170.841 143.813 171.033 143.566C171.225 143.319 171.472 143.182 171.581 143.237C171.691 143.319 172.267 143.1 172.843 142.771C173.802 142.25 175.557 140.111 176.215 138.739C176.955 137.149 182.055 128.894 183.262 127.303C184.331 125.904 184.441 125.081 183.783 123.491C182.768 121.05 180.63 119.404 178.957 119.734C178.546 119.816 178.189 119.816 178.189 119.706C178.189 119.624 178.93 118.582 179.834 117.457C182.796 113.755 184.167 110.08 185.154 103.361C185.839 98.5337 185.839 98.5063 185.318 98.0126C184.66 97.4367 183.728 97.7109 183.399 98.5611C183.262 98.9177 182.96 100.563 182.741 102.209C181.699 109.723 179.643 114.687 176.215 118.088L174.323 119.953L173.638 119.048C173.254 118.582 172.76 118.17 172.541 118.17C172.294 118.17 171.444 118.828 170.594 119.596C169.662 120.501 169.004 120.913 168.949 120.693C168.757 120.172 168.154 120.309 166.893 121.16L165.714 121.982L165.494 121.105C165.138 119.761 164.891 119.404 164.233 119.322C163.822 119.24 163.575 119.432 163.383 119.953C163.191 120.447 162.972 120.639 162.697 120.529C162.423 120.419 162.204 120.693 162.012 121.461C161.683 122.668 161.272 122.887 161.134 121.982C161.08 121.653 160.833 121.242 160.531 121.077C160.147 120.831 159.983 120.885 159.709 121.269C158.886 122.613 158.914 122.613 157.488 120.721C156.72 119.734 155.98 118.856 155.788 118.801C155.623 118.746 155.184 118.966 154.855 119.295C154.417 119.734 154.307 120.09 154.417 120.803C154.499 121.324 154.499 121.736 154.417 121.736C154.115 121.736 149.18 117.485 147.973 116.168C145.889 113.892 144.08 109.778 143.093 105.006C142.791 103.415 142.462 101.852 142.38 101.523C142.27 101.002 141.557 100.536 140.762 100.481C140.625 100.481 140.488 100.097 140.488 99.6307C140.46 99.1371 140.296 98.5611 140.104 98.3143C139.693 97.8206 138.815 97.7384 138.568 98.1497C138.294 98.616 137.17 98.4514 136.375 97.8206C135.305 96.9979 134.867 95.7089 134.867 93.4874C134.867 91.8419 134.949 91.5677 135.36 91.5402C136.484 91.458 136.978 91.6499 137.636 92.3904C138.349 93.2132 139.583 93.5149 139.939 92.9389C140.022 92.7744 140.323 92.6647 140.57 92.6647C140.981 92.6647 141.036 92.2533 141.091 89.3462C141.118 86.5488 141.201 85.8906 141.639 85.2872C141.941 84.9033 142.325 83.6966 142.489 82.6544C142.818 80.7895 142.846 79.6925 142.846 74.7285C142.846 72.4796 142.901 72.2328 143.668 71.0809C144.134 70.4227 144.847 69.7371 145.231 69.5451C145.643 69.3805 146.164 69.1063 146.383 68.9143C146.602 68.7497 147.973 68.1464 149.399 67.5705C156.638 64.7182 163.218 60.3027 165.33 56.8746C165.659 56.3535 165.851 56.2163 165.851 56.4906C165.851 57.615 162.451 61.8111 159.955 63.8132L158.886 64.6908L159.489 65.2941L160.093 65.8975L162.149 64.8828C164.48 63.7309 164.644 63.7035 164.864 64.3068C164.973 64.6085 164.781 64.8005 164.178 65.0199C163.136 65.3764 163.273 65.8152 164.644 66.2815C166.043 66.7751 168.401 66.3637 170.649 65.2667C172.459 64.3617 176.626 60.8512 177.504 59.5074C177.805 59.0412 178.162 58.6572 178.272 58.6572C178.628 58.6572 177.422 60.6593 176.023 62.3596C175.338 63.2372 174.515 64.2246 174.241 64.5811C173.528 65.4313 173.747 65.6507 176.215 66.4734C179.78 67.6802 180.876 68.7223 181.973 72.0134C182.439 73.3298 182.522 74.0977 182.412 75.4415C182.33 76.4014 182.384 78.7052 182.576 80.5975C183.07 85.8083 183.152 86.1374 184.112 86.7682C184.907 87.2893 184.962 87.4264 184.934 88.9622C184.907 90.5255 184.934 90.6078 185.593 90.6078C186.004 90.6078 186.36 90.3884 186.552 90.0318C187.073 88.9897 187.567 88.5509 188.197 88.5509C188.993 88.5509 189.568 90.0318 189.294 91.3757C188.91 93.1858 188.033 95.9283 187.759 96.0928C187.622 96.2025 187.183 96.0928 186.826 95.846C185.757 95.133 185.318 95.2701 185.318 96.3397C185.318 98.4514 188.28 99.4936 189.788 97.9303C190.857 96.8333 191.899 93.5149 191.899 91.3208C191.872 88.1121 190.638 86.3568 188.417 86.3568H187.265L188.06 84.7387C190.775 79.2537 190.117 65.0199 187.101 64.252C186.58 64.1149 186.443 63.9503 186.58 63.6212C187.649 60.9609 186.059 55.9695 182.631 51.3346C181.26 49.5246 180.657 48.976 179.423 48.3727C178.025 47.6871 177.751 47.6322 175.859 47.8242C174.734 47.9339 173.638 48.1807 173.418 48.3727C173.089 48.7018 173.007 48.6469 172.897 47.9887C172.596 46.59 170.238 45.7947 167.496 46.2061ZM173.528 50.1553C173.528 50.3199 172.952 50.4296 172.267 50.4296C170.896 50.4296 170.402 50.8135 167.825 53.8578C167.057 54.7628 166.673 55.0645 166.673 54.7354C166.673 54.4885 166.591 54.2691 166.481 54.2691C166.097 54.2691 164.37 55.421 162.972 56.6003C160.065 59.0686 151.812 64.0874 151.894 63.3744C151.894 63.2647 152.772 62.5242 153.868 61.7563C154.965 60.9609 156.83 59.5074 158.036 58.4927C159.243 57.5053 161.162 56.2712 162.286 55.7227C164.699 54.5708 168.318 52.13 168.318 51.6363C168.318 50.9781 166.81 50.9781 164.205 51.6363C161.93 52.2122 161.601 52.2671 161.326 51.8831C160.888 51.2798 159.243 51.8009 155.568 53.6658C151.894 55.5581 149.317 57.2859 147.973 58.7669C146.794 60.1107 146.355 59.9462 147.288 58.4652C149.289 55.3662 155.705 51.938 162.56 50.3199C165.22 49.6891 166.234 49.5794 168.922 49.6343C170.676 49.6891 172.212 49.6343 172.322 49.5246C172.541 49.3052 173.528 49.7988 173.528 50.1553ZM178.409 51.1152C179.643 51.9106 180.465 52.9527 181.672 55.1742L182.522 56.7649L181.891 57.1762C181.425 57.4779 181.096 57.5053 180.547 57.3134C179.725 56.9843 179.67 56.6003 180.273 55.421C180.767 54.4063 180.602 53.9949 179.67 53.9949C178.573 53.9949 178.08 54.3788 176.599 56.5455C174.268 59.9188 169.305 64.1697 167.249 64.5811C166.07 64.8279 166.18 64.5811 167.715 63.7035C171.17 61.7014 173.72 58.5749 174.625 55.2839C175.091 53.5012 176.681 50.4296 177.12 50.4296C177.257 50.4296 177.86 50.7313 178.409 51.1152ZM160.504 52.8979C160.422 53.035 160.202 53.1721 160.065 53.1721C159.901 53.1721 159.873 53.035 159.955 52.8979C160.038 52.7333 160.257 52.6236 160.394 52.6236C160.559 52.6236 160.586 52.7333 160.504 52.8979ZM171.664 54.6257C170.676 56.7374 168.62 59.9188 167.633 60.8512L166.92 61.5094L167.414 60.4124C168.291 58.4927 172.13 52.5139 172.349 52.7333C172.431 52.8156 172.13 53.6658 171.664 54.6257ZM160.504 54.9274C158.667 55.5033 156.72 56.6826 153.786 58.9315C152.744 59.7268 150.414 61.1255 150.139 61.1255C149.509 61.1255 150.194 60.1656 151.675 58.9863C154.609 56.6277 158.914 54.5434 160.778 54.5708C161.546 54.5708 161.546 54.5982 160.504 54.9274ZM148.576 55.9147C148.11 56.518 147.644 57.0117 147.562 57.0117C147.397 57.0117 147.836 56.4083 148.686 55.421C149.564 54.4063 149.509 54.7354 148.576 55.9147ZM183.81 59.48C183.893 59.6171 183.838 59.7542 183.701 59.7542C183.536 59.7542 183.399 59.6171 183.399 59.48C183.399 59.3154 183.454 59.2057 183.509 59.2057C183.591 59.2057 183.728 59.3154 183.81 59.48ZM178.82 63.8955C178.546 64.3891 178.052 64.8828 177.723 64.9925C176.846 65.3216 176.928 64.8553 177.805 64.4714C178.189 64.2794 178.409 64.0052 178.326 63.868C178.08 63.4841 178.409 63.0453 178.93 63.0453C179.286 63.0453 179.259 63.1824 178.82 63.8955ZM183.947 63.8955C183.947 64.3343 183.838 64.6634 183.701 64.5811C183.481 64.444 183.618 63.0453 183.838 63.0453C183.893 63.0453 183.947 63.4292 183.947 63.8955ZM186.525 66.1992C186.744 66.7203 186.991 67.735 187.101 68.4481L187.265 69.7645L186.223 67.7624C185.346 66.0621 185.264 65.733 185.593 65.5135C185.812 65.3764 186.031 65.2393 186.059 65.2393C186.114 65.2393 186.305 65.6781 186.525 66.1992ZM145.533 66.1992C145.505 66.3637 145.122 66.638 144.655 66.83C143.888 67.1316 143.86 67.1316 144.217 66.6928C144.902 65.8152 145.697 65.541 145.533 66.1992ZM182.576 67.4608C182.576 67.6253 182.467 67.6527 182.302 67.5705C182.165 67.4882 182.028 67.2688 182.028 67.1316C182.028 66.9671 182.165 66.9397 182.302 67.0219C182.467 67.1042 182.576 67.3236 182.576 67.4608ZM138.897 67.8447C138.98 68.0915 138.843 68.5029 138.596 68.7772C138.322 69.0514 137.883 69.9016 137.581 70.6147L137.033 71.9585L137.143 70.7244C137.252 69.3805 138.047 67.4333 138.459 67.4333C138.596 67.4333 138.788 67.6253 138.897 67.8447ZM143.065 68.0641C141.996 68.9417 141.502 69.8742 141.31 71.41C141.201 72.1505 141.036 72.891 140.954 73.0281C140.734 73.3846 140.351 72.5619 140.351 71.7117C140.351 70.5872 141.914 67.7624 142.654 67.6253C143.751 67.4059 143.778 67.4333 143.065 68.0641ZM185.62 78.1292L185.373 79.3634L185.346 78.1018C185.318 77.4162 185.401 76.758 185.51 76.6483C185.839 76.3191 185.867 76.8128 185.62 78.1292ZM137.609 87.3167C137.609 87.5361 137.554 87.7281 137.499 87.7281C137.444 87.7281 137.334 87.5361 137.225 87.3167C137.143 87.0973 137.197 86.9053 137.334 86.9053C137.499 86.9053 137.609 87.0973 137.609 87.3167ZM138.294 88.8251C138.376 88.9622 138.322 89.0994 138.184 89.0994C138.02 89.0994 137.883 88.9622 137.883 88.8251C137.883 88.6606 137.938 88.5509 137.993 88.5509C138.075 88.5509 138.212 88.6606 138.294 88.8251ZM248.301 117.759C250.796 119.706 254.031 123.079 255.018 124.752C255.402 125.383 254.881 124.972 253.51 123.518C252.386 122.312 250.083 120.2 248.41 118.856C246.765 117.485 245.339 116.223 245.257 116.031C245.01 115.483 245.394 114.989 245.668 115.455C245.778 115.675 246.957 116.717 248.301 117.759ZM146.712 128.181C147.644 128.866 148.494 129.415 148.604 129.415C148.714 129.415 151.072 130.512 153.814 131.883C156.583 133.227 158.941 134.379 159.051 134.406C159.188 134.461 158.776 135.695 158.146 137.149C156.802 140.22 157.241 140.248 153.731 137.066C150.77 134.379 148.933 133.062 146.054 131.581C143.751 130.429 143.284 129.908 143.888 129.25C144.025 129.113 144.272 128.537 144.464 127.961C144.628 127.413 144.847 126.946 144.902 126.946C144.957 126.946 145.78 127.495 146.712 128.181ZM258.254 130.155C260.064 133.885 261.133 137.121 261.681 140.385C262.257 144.06 262.23 146.473 261.572 147.077C261.188 147.406 261.023 148.037 260.941 149.545C260.804 151.574 260.584 152.287 260.201 152.041C260.064 151.986 260.146 150.834 260.365 149.517C261.325 143.84 259.954 134.927 257.267 128.921C255.896 125.904 256.636 126.837 258.254 130.155ZM264.314 156.182C265.109 156.977 265.109 157.032 264.615 157.471C264.122 157.91 264.067 157.882 263.381 156.511C262.97 155.716 262.586 154.619 262.504 154.098L262.339 153.138L262.943 154.235C263.244 154.838 263.875 155.716 264.314 156.182ZM261.791 159.308C261.791 159.583 261.709 159.528 261.544 159.171C261.215 158.431 261.215 157.992 261.544 158.486C261.681 158.705 261.791 159.089 261.791 159.308ZM271.47 163.696C271.936 164.656 272.073 165.397 272.046 167.015C272.046 168.167 271.936 169.264 271.826 169.456C271.717 169.648 271.251 169.044 270.647 167.838C270.126 166.795 268.81 164.766 267.768 163.367L265.876 160.844L266.754 160.049L267.631 159.253L269.249 160.844C270.126 161.722 271.141 163.011 271.47 163.696ZM61.3829 160.159C72.2135 160.186 81.728 160.515 85.649 160.981C88.5829 161.338 93.9022 162.572 97.4119 163.669C100.976 164.793 102.951 165.589 109.751 168.715C113.096 170.251 121.568 174.557 133.77 180.92C136.951 182.565 143.175 185.993 148.878 189.229C150.194 189.97 151.318 190.573 151.401 190.573C151.565 190.573 154.17 192.164 155.294 192.932C155.76 193.234 158.228 194.523 160.778 195.784C165.905 198.307 165.467 198.225 170.649 197.786C173.062 197.567 174.076 197.347 175.722 196.634C179.012 195.236 182.302 193.042 184.66 190.738C191.899 183.58 194.449 181.578 196.615 181.331C197.739 181.194 198.096 181.276 199.028 181.907C201.139 183.306 203.634 188.242 203.278 190.354C202.949 192.301 204.21 194.413 205.746 194.413C206.075 194.413 206.87 194.029 207.528 193.563C208.625 192.767 208.817 192.712 210.243 192.877C216.467 193.617 226.557 196.881 229.573 199.157C230.067 199.514 230.067 199.541 229.436 200.008C228.86 200.419 228.778 200.666 228.805 202.311C228.805 203.326 229.025 204.67 229.244 205.301C229.491 205.959 229.628 206.48 229.546 206.48C229.464 206.48 228.805 205.931 228.038 205.273C224.583 202.256 220.415 203.024 220.415 206.672C220.415 207.988 221.183 209.305 222.828 210.813C224.007 211.883 224.062 211.965 223.349 211.8C221.539 211.389 219.894 213.144 220.251 215.092C220.36 215.64 220.799 216.518 221.265 217.011L222.088 217.944L221.457 218.136C220.552 218.41 219.593 219.37 219.126 220.412C218.578 221.728 218.907 223.511 220.059 225.157C220.58 225.925 220.964 226.638 220.909 226.747C220.772 227.076 216.741 230.532 213.012 233.521C211.12 235.03 207.364 238.047 204.622 240.213C196.972 246.356 194.943 247.947 191.872 250.114C190.309 251.211 188.965 252.198 188.883 252.308C188.499 252.774 183.07 256.038 180.465 257.327C174.214 260.481 169.854 261.687 164.754 261.66C157.268 261.632 150.743 258.89 140.296 251.43C138.239 249.949 136.073 248.441 135.497 248.057C133.77 246.905 125.434 240.926 118.772 236.072C115.344 233.576 111.999 231.163 111.341 230.751C110.272 230.066 110.217 229.956 110.601 229.517C110.82 229.27 111.012 228.832 111.012 228.585C111.012 227.899 109.284 226.226 108.572 226.226C108.243 226.226 107.996 226.144 107.996 226.062C107.996 225.979 108.572 225.266 109.257 224.498C110.464 223.155 110.518 223.017 110.354 221.838C110.107 220.083 109.449 219.534 107.694 219.589C106.707 219.617 105.994 219.781 105.473 220.193C104.514 220.906 104.486 220.439 105.391 218.959C106.214 217.642 106.323 215.448 105.638 214.461C104.925 213.446 103.526 212.98 102.21 213.336C101.004 213.665 99.0571 215.284 97.8232 216.984L97.0555 218.026L97.22 215.585C97.4119 212.733 97.0829 211.471 95.9039 210.457C93.7926 208.701 91.6539 210.32 89.378 215.393L88.5006 217.313L87.7603 215.942C86.0055 212.706 82.77 212.514 81.0151 215.53C80.22 216.874 80.1926 220.796 80.9603 221.975L81.4813 222.771L80.8232 223.182C79.8361 223.813 77.6151 226.226 76.8748 227.46C75.6135 229.627 74.9555 232.178 74.9829 235.002C75.0103 238.458 75.2845 239.692 77.9716 247.755C80.7684 256.202 81.2619 258.396 81.2619 263.168C81.2619 267.364 81.1797 267.556 79.0409 267.803C77.5877 267.995 75.8603 267.529 73.8587 266.459C72.7071 265.828 69.2248 263.36 68.5119 262.675C67.7716 261.962 62.3974 258.122 60.8345 257.217C60.0119 256.723 57.7909 255.517 55.899 254.557C48.578 250.745 46.878 249.154 44.1087 243.395C43.0942 241.255 42.1619 239.226 42.0522 238.842C41.7506 237.827 40.078 234.81 38.7345 232.945C37.3361 230.943 34.4571 228.173 30.8926 225.294C24.778 220.439 23.4893 217.971 21.7619 207.961C20.3087 199.624 18.6635 196.47 12.3022 189.888C7.77805 185.17 5.41998 181.825 4.15869 178.204C3.55547 176.477 3.44579 175.681 3.41837 172.884C3.39095 169.346 3.69256 167.591 5.20063 162.901C5.66676 161.475 6.07805 160.241 6.13288 160.159C6.18772 160.076 16.3877 160.021 28.8087 160.049C41.2022 160.104 55.8716 160.131 61.3829 160.159ZM256.307 163.751C255.978 164.547 255.512 164.793 255.512 164.163C255.512 163.998 255.649 163.34 255.814 162.737C256.115 161.694 256.143 161.667 256.389 162.298C256.554 162.737 256.526 163.258 256.307 163.751ZM249.617 163.614C249.343 164.053 248.493 165.205 247.752 166.22C246.491 167.947 245.915 168.441 245.915 167.838C245.915 167.7 245.476 167.125 244.955 166.549C244.434 166 243.996 165.452 243.996 165.342C243.996 165.232 244.517 165.04 245.175 164.958C245.805 164.848 247.122 164.355 248.109 163.834C249.096 163.312 249.946 162.901 250.001 162.874C250.055 162.874 249.864 163.203 249.617 163.614ZM264.725 163.916C266.507 166.082 268.947 170.635 268.947 171.759C268.947 172.527 266.836 174.667 266.644 174.091C266.589 173.871 266.315 172.829 266.068 171.787C265.602 169.785 263.601 164.3 263.162 163.834C262.751 163.422 262.888 162.874 263.409 162.874C263.655 162.874 264.259 163.34 264.725 163.916ZM251.399 167.783C251.234 168.414 250.851 169.044 250.549 169.209C250.22 169.373 249.507 169.949 248.904 170.47C248.301 171.019 247.752 171.403 247.697 171.321C247.643 171.266 248.081 170.525 248.684 169.703C249.288 168.907 250.193 167.673 250.659 167.042C251.646 165.698 251.893 165.973 251.399 167.783ZM261.901 169.127C263.052 171.842 263.984 175.736 263.683 176.614C263.628 176.806 263.272 175.791 262.943 174.365C262.586 172.939 261.818 170.47 261.27 168.852C260.694 167.234 260.338 165.945 260.447 166.028C260.584 166.11 261.215 167.481 261.901 169.127ZM257.541 172.253C258.117 174.42 258.802 177.217 259.076 178.506C259.543 180.618 259.57 180.892 259.186 181.495C258.939 181.852 258.665 182.017 258.555 181.907C258.446 181.77 258.117 180.426 257.87 178.917C257.596 177.409 257.075 174.584 256.718 172.61C255.978 168.688 255.951 168.359 256.28 168.359C256.417 168.359 256.993 170.114 257.541 172.253ZM254.991 174.118C255.293 175.846 255.786 178.671 256.115 180.344C256.636 183.059 256.664 184.128 256.197 183.662C255.978 183.47 255.073 179.685 254.744 177.683C254.443 175.901 254.031 169.373 254.305 170.416C254.36 170.717 254.689 172.39 254.991 174.118ZM268.783 179.384C268.344 182.071 267.851 183.991 267.576 183.991C267.357 183.991 267.028 181.687 267.028 180.042C267.028 179.164 267.193 178.835 268.07 178.067C268.618 177.574 269.084 177.162 269.112 177.135C269.112 177.135 268.975 178.15 268.783 179.384ZM264.286 188.681C264.067 189.202 264.012 189.037 264.149 187.831C264.231 187.008 264.314 185.527 264.341 184.54C264.396 183.196 264.423 183.388 264.478 185.39C264.533 186.843 264.451 188.297 264.286 188.681ZM258.665 188.352C258.857 189.449 258.364 191.67 257.925 191.67C257.815 191.67 257.705 191.341 257.705 190.902C257.705 190.491 257.596 189.723 257.431 189.229C257.212 188.462 257.267 188.187 257.623 187.776C258.281 187.063 258.446 187.145 258.665 188.352ZM238.731 202.01C239.883 205.026 240.184 208.619 239.609 212.623C239.28 214.762 238.814 215.942 237.497 217.779C236.455 219.233 233.549 221.646 232.151 222.222C230.752 222.825 227.955 223.401 225.597 223.621C223.678 223.813 223.431 223.758 222.91 223.237C222.225 222.551 222.17 221.756 222.746 221.29C223.102 220.988 223.431 220.988 224.473 221.262C226.53 221.811 227.626 221.893 228.449 221.591C229.052 221.345 229.189 221.125 229.189 220.385C229.189 219.617 228.943 219.233 228.038 218.355C227.38 217.779 226.146 216.902 225.296 216.408C223.76 215.53 223.239 215.064 223.486 214.817C223.568 214.762 224.501 215.146 225.597 215.695C227.736 216.737 228.668 216.764 229.189 215.805C229.82 214.653 228.422 212.157 225.268 208.756C224.226 207.659 223.541 206.754 223.76 206.754C223.98 206.754 225.652 207.742 227.462 208.948C230.478 210.95 230.834 211.115 231.465 210.841C232.754 210.265 233.165 207.961 232.343 205.657C231.63 203.655 231.876 203.573 233.384 205.191C234.673 206.562 234.947 206.754 235.907 206.754C237.634 206.754 237.964 206.233 237.964 203.545C237.964 201.214 238.238 200.693 238.731 202.01ZM93.9297 217.505C93.2168 221.345 93.2168 221.454 93.7103 222.112C94.7797 223.566 96.7813 222.908 98.6184 220.467C99.77 218.904 102.238 216.353 102.539 216.353C103.033 216.353 102.731 217.313 101.415 219.973C99.7426 223.319 99.5506 224.992 100.757 225.925C101.634 226.61 102.43 226.665 103.115 226.034C103.581 225.623 103.609 225.65 103.609 226.72C103.609 228.064 104.047 228.585 105.61 228.996C106.68 229.298 106.707 229.325 106.131 229.545C104.705 230.093 101.799 230.148 99.6877 229.682C95.3006 228.695 91.2151 226.199 86.828 221.838C84.0861 219.096 83.5926 218.492 83.5926 217.752C83.5926 216.902 83.949 216.682 84.6071 217.121C84.7716 217.231 85.2103 217.999 85.5668 218.821C86.5264 220.933 86.8555 221.18 88.3909 220.741C90.0909 220.275 91.5716 218.602 92.3393 216.271C93.0522 214.159 93.9297 212.87 94.3684 213.309C94.5877 213.528 94.4506 214.735 93.9297 217.505ZM119.868 241.228C124.146 244.409 129.301 248.167 131.22 249.538C132.18 250.196 132.92 250.772 132.865 250.799C132.838 250.827 129.301 250.882 125.023 250.937C117.455 251.046 117.236 251.019 117.044 250.498C116.743 249.675 116.496 239.116 116.77 239.116C116.907 239.116 118.305 240.076 119.868 241.228ZM208.214 244.93C208.323 246.329 208.515 248.057 208.625 248.797C208.872 250.443 209.036 250.415 202.922 250.306L198.205 250.223L200.18 248.66C201.276 247.81 203.415 246.055 204.923 244.766C206.431 243.477 207.747 242.435 207.83 242.407C207.939 242.407 208.104 243.559 208.214 244.93ZM122.994 383.099C128.56 383.291 130.397 383.456 133.084 384.032C134.894 384.416 136.786 384.745 137.28 384.745C137.828 384.745 138.157 384.882 138.157 385.129C138.157 386.281 136.951 392.177 136.512 393.165C135.772 394.837 133.715 396.922 132.152 397.607C128.533 399.143 125.928 399.445 110.052 399.966C103.718 400.185 98.2071 400.432 97.7958 400.542C96.3151 400.871 97.0006 399.884 100.784 395.962C103.554 393.137 105.83 391.135 109.23 388.557C115.289 383.977 115.043 384.196 115.372 383.291C115.536 382.853 115.783 382.578 115.947 382.688C116.084 382.77 119.265 382.962 122.994 383.099Z" fill="black"/>
<path d="M306.018 68.832C301.604 70.5873 300.205 75.469 302.701 80.4055C303.441 81.8317 306.293 84.821 307.746 85.6712C308.815 86.3294 308.843 86.3569 308.76 87.7007C308.651 89.072 308.623 89.0994 307.801 89.0994C305.086 89.0994 301.768 91.5951 301.001 94.1731C300.37 96.3945 300.507 99.1097 301.33 100.892C302.207 102.757 303.962 105.061 306.457 107.666C308.267 109.559 308.322 109.668 307.636 109.668C306.347 109.668 303.934 110.519 303.167 111.232C302.372 111.972 301.796 113.919 302.043 114.962C302.646 117.402 307.252 118.993 311.201 118.17L312.846 117.814L313.614 118.637C314.025 119.075 314.573 119.569 314.847 119.734C315.259 119.953 315.286 120.117 315.039 120.584C314.875 120.885 314.738 121.818 314.738 122.613C314.765 125.712 316.63 127.769 319.646 127.989C321.017 128.098 321.318 128.016 321.976 127.44C323.183 126.425 323.238 124.78 322.168 122.723C321.647 121.736 321.455 121.187 321.702 121.269C328.146 123.738 331.601 124.588 334.48 124.368C337.139 124.176 338.264 123.847 339.881 122.723C341.362 121.708 343.912 118.17 344.351 116.497L344.625 115.455L346.078 116.086C351.589 118.554 355.894 119.212 358.225 117.978C360.912 116.552 362.31 113.673 362.283 109.668C362.255 105.856 361.022 102.702 358.417 99.7953C356.031 97.135 351.726 94.6119 348.765 94.1457L347.614 93.9537L347.778 92.555C347.997 90.882 347.339 86.7134 346.489 84.3C343.967 77.1968 337.825 72.0134 329.407 69.9016C325.925 69.0514 324.334 68.9692 321.044 69.4902C319.454 69.7645 317.781 70.0388 317.288 70.0936C316.684 70.2033 315.917 69.9839 314.655 69.3531C313.093 68.5852 312.517 68.4755 310.159 68.3658C307.883 68.2561 307.252 68.3384 306.018 68.832ZM312.407 72.0134C312.791 72.1505 312.791 72.2328 312.352 72.699C311.667 73.4669 311.667 76.2643 312.325 76.9499C312.791 77.3888 312.764 77.4436 312.16 78.2389C311.338 79.336 310.076 81.8317 310.076 82.3802C310.076 82.9835 309.857 82.9013 308.459 81.7768C306.155 79.9119 304.867 77.8001 304.867 75.8529C304.867 72.891 306.814 71.3826 310.268 71.6843C311.228 71.7666 312.188 71.9037 312.407 72.0134ZM330.531 74.1526C334.178 75.2222 336.81 76.6208 338.757 78.568C340.347 80.1587 342.404 83.2304 342.843 84.7113C343.034 85.3421 342.952 85.3147 341.993 84.4097C341.389 83.8611 340.073 82.819 339.004 82.0785C337.962 81.3654 335.851 79.7748 334.343 78.5406C331.134 75.9078 329.105 74.5639 327.296 73.8783C324.526 72.8361 326.555 73.0281 330.531 74.1526ZM325.02 76.6208C326.638 77.1145 328.859 78.4583 331.436 80.5152C332.368 81.2832 334.534 82.8464 336.262 84.0257C339.881 86.4666 341.225 87.8378 342.431 90.2238C343.117 91.5677 343.226 91.9791 342.925 92.1436C342.733 92.2807 342.486 92.3904 342.376 92.3904C342.267 92.3904 341.746 92.7744 341.197 93.2406L340.238 94.0908L339.415 93.4052C338.976 93.0212 338.373 92.6373 338.072 92.5276C337.797 92.4453 337.468 92.0613 337.386 91.6774C337.139 90.7449 335.439 88.9348 334.014 88.0847C331.957 86.9054 330.504 86.6037 324.883 86.3569C318.055 86.0552 313.093 85.0953 313.093 84.1354C313.093 83.3126 315.039 80.2684 316.52 78.7874C318.96 76.3192 321.62 75.6335 325.02 76.6208ZM314.326 88.6606C317.864 89.1542 323.155 89.6479 325.294 89.6479C326.665 89.6479 327.954 89.785 328.173 89.9222C328.502 90.1416 328.42 90.1964 327.844 90.1964C327.433 90.1964 326.446 90.4981 325.623 90.8546C322.36 92.2807 320.797 94.7216 320.551 98.7531C320.414 101.221 320.331 101.331 319.262 100.92C318.796 100.728 318.714 100.426 318.714 98.808C318.686 97.7658 318.467 96.2848 318.22 95.5169C317.507 93.46 315.451 91.0466 313.559 90.0867C312.243 89.4285 311.996 89.1817 311.996 88.5509C311.996 87.5361 312.297 87.3167 312.818 87.975C313.038 88.2492 313.723 88.5509 314.326 88.6606ZM308.541 94.6393C308.76 97.0527 310.049 103.964 310.734 106.158C310.954 106.898 311.091 107.474 311.036 107.474C310.981 107.474 309.775 106.158 308.322 104.54C304.291 100.042 303.276 97.4367 304.62 94.8313C305.031 93.9811 305.525 93.5697 306.594 93.0486C307.389 92.6921 308.102 92.3904 308.184 92.3904C308.294 92.3904 308.459 93.4052 308.541 94.6393ZM313.394 94.5022C315.094 96.3123 315.478 98.3966 314.409 99.6307C314.052 100.015 313.531 100.344 313.23 100.399C312.818 100.453 312.654 100.262 312.489 99.3839C312.133 97.6287 311.749 94.7764 311.722 93.9537C311.722 93.3229 311.804 93.2406 312.215 93.46C312.462 93.5972 313.01 94.0634 313.394 94.5022ZM333.109 93.7069C333.849 94.0634 334.096 94.3651 334.151 95.0233C334.233 95.846 334.151 95.9009 332.505 96.5042C329.709 97.519 324.664 100.042 324.362 100.563C324.143 100.947 324.06 100.81 324.033 99.9324C323.896 97.2722 324.636 95.5444 326.418 94.3102C328.118 93.1583 331.436 92.8567 333.109 93.7069ZM338.044 98.3966C338.538 99.3291 338.346 101.359 337.605 103.196C336.701 105.472 336.454 105.664 335.22 105.143C334.699 104.924 333.547 104.65 332.67 104.567L331.107 104.375L332.067 103.882C333.246 103.278 336.454 99.905 336.92 98.7531C337.331 97.7384 337.633 97.6561 338.044 98.3966ZM351.343 99.2194C354.139 100.536 356.443 102.757 357.786 105.417C358.609 107.036 358.773 107.639 358.855 109.614C358.965 112.548 358.472 113.837 356.854 114.66C355.264 115.483 353.043 115.208 349.478 113.782C345.557 112.192 343.72 111.149 343.172 110.217C342.651 109.367 340.704 107.666 339.854 107.365C339.415 107.2 339.388 107.145 339.744 106.706C340.512 105.774 341.143 103.991 341.444 101.88L341.773 99.6856L343.089 99.6582C344.241 99.6582 344.515 99.521 345.146 98.7531C345.831 97.9029 345.914 97.8755 347.504 98.0401C348.601 98.1223 349.862 98.5063 351.343 99.2194ZM330.093 100.892C329.572 101.194 329.023 101.413 328.859 101.413C328.722 101.413 329.023 101.194 329.544 100.892C330.065 100.591 330.641 100.371 330.778 100.371C330.943 100.371 330.614 100.591 330.093 100.892ZM317.836 103.745C319.262 104.32 320.496 105.939 320.496 107.173C320.496 108.325 319.289 110.436 318.193 111.149C317.562 111.561 317.507 111.533 316.876 110.683C316.164 109.751 313.833 104.704 314.025 104.512C314.381 104.183 316.054 103.388 316.465 103.388C316.739 103.361 317.343 103.525 317.836 103.745ZM326.747 106.377C326.884 107.282 327.296 107.749 328.42 108.215C328.914 108.434 329.27 108.681 329.16 108.763C328.859 109.065 326.555 108.242 325.678 107.502C324.91 106.844 324.828 106.706 325.13 106.131C325.596 105.28 326.638 105.445 326.747 106.377ZM336.125 110.491C335.576 110.848 335.22 110.848 335.439 110.491C335.522 110.327 335.823 110.217 336.07 110.217C336.481 110.217 336.481 110.272 336.125 110.491ZM329.051 111.725C330.943 111.725 332.423 111.78 332.314 111.862C331.683 112.301 331.189 113.508 331.189 114.605C331.189 116.799 333.026 118.664 336.07 119.569C336.701 119.761 337.222 119.98 337.222 120.09C337.222 120.474 334.864 120.611 332.834 120.337C329.078 119.816 323.32 117.54 320.496 115.483C319.975 115.071 319.509 114.742 319.454 114.715C319.399 114.687 320.276 113.755 321.373 112.658L323.375 110.628L324.472 111.177C325.404 111.643 326.117 111.725 329.051 111.725ZM307.28 114.056C307.252 114.989 307.033 115.071 306.073 114.413L305.36 113.974L306.018 113.618C307.005 113.042 307.307 113.151 307.28 114.056ZM339.909 114.495C341.143 115.373 340.347 116.251 338.291 116.251C337.468 116.251 336.81 116.031 336.07 115.537C335.494 115.126 335.028 114.715 335.028 114.578C335.028 113.974 339.031 113.892 339.909 114.495ZM319.097 123.792C319.399 124.314 319.564 124.752 319.481 124.752C319.07 124.752 318.028 123.518 318.028 123.052C318.028 122.366 318.384 122.613 319.097 123.792Z" fill="black"/>
<path d="M173.528 82.1608C171.773 82.435 168.675 83.4772 168.181 83.916C167.77 84.3274 167.715 84.5742 167.935 85.1776C168.264 86.1923 169.196 86.2746 171.417 85.5615C174.378 84.6016 175.941 84.4371 177.449 84.9307C178.957 85.4244 179.286 85.2324 179.286 83.8063C179.286 82.3253 176.818 81.6123 173.528 82.1608Z" fill="black"/>
<path d="M148.028 83.4772C146.41 84.2177 145.286 85.2324 145.286 85.9455C145.286 87.0699 146.081 87.2345 147.535 86.4117L148.823 85.6987L151.647 86.1649C155.102 86.7408 156.226 86.7683 157.022 86.1923C157.926 85.5615 157.844 84.3 156.83 83.7789C155.596 83.1207 149.262 82.9287 148.028 83.4772Z" fill="black"/>
<path d="M164.096 87.0699C163.822 87.7829 163.931 89.8673 164.37 92.9389C164.589 94.5296 164.864 96.6413 164.946 97.6561L165.11 99.4662L163.822 99.6581C162.862 99.8227 162.396 99.7404 161.875 99.4113C160.997 98.8354 160.284 98.8628 159.736 99.4662C159.078 100.207 159.16 100.508 160.23 101.331C161.134 102.017 161.326 102.044 163.52 101.934C166.152 101.797 166.755 101.441 167.249 99.8227C167.468 99.0273 167.414 98.1772 166.838 95.4072C166.481 93.5148 166.07 90.9917 165.96 89.785C165.851 88.5783 165.659 87.3716 165.522 87.0973C165.22 86.5214 164.315 86.494 164.096 87.0699Z" fill="black"/>
<path d="M172.541 88.688C172.349 89.2091 172.157 89.8673 172.157 90.1142C172.157 90.9369 172.952 91.8419 173.665 91.8419C174.597 91.8419 175.173 91.1289 175.173 89.977C175.173 87.7556 173.309 86.8505 172.541 88.688Z" fill="black"/>
<path d="M150.88 89.2365C150.139 90.3884 150.88 92.6647 152.004 92.6647C152.196 92.6647 152.635 92.4179 152.991 92.1436C153.731 91.5403 153.896 89.7576 153.265 88.9897C152.689 88.3041 151.401 88.4412 150.88 89.2365Z" fill="black"/>
<path d="M169.223 101.386C169.059 101.496 168.867 101.962 168.812 102.401L168.73 103.223L168.044 102.538C167.276 101.77 165.659 101.715 165.385 102.456C165.193 102.977 165.741 104.595 166.426 105.609C166.893 106.24 167.112 106.323 168.264 106.268C168.976 106.24 169.689 106.131 169.854 106.048C169.991 105.966 170.567 105.966 171.115 106.021L172.13 106.158L170.841 106.871C168.291 108.242 167.468 108.599 166.097 108.846C163.026 109.422 159.325 109.01 156.994 107.831C156.117 107.392 155.431 107.721 155.431 108.571C155.431 109.147 157.186 110.354 158.31 110.546C158.776 110.628 159.928 110.875 160.888 111.04C163.547 111.561 167.222 111.04 169.635 109.833C171.801 108.736 172.843 107.749 172.623 106.953C172.376 106.021 173.336 105.993 175.146 106.926C177.147 107.941 177.778 107.968 178.354 107.063C178.765 106.432 178.765 106.323 178.381 105.747C177.943 105.061 174.433 102.812 173.802 102.812C173.583 102.812 173.144 102.565 172.815 102.236C172.267 101.715 172.185 101.715 171.773 102.154C171.335 102.593 171.252 102.565 170.539 101.88C169.717 101.084 169.689 101.084 169.223 101.386Z" fill="black"/>
<path d="M157.488 103.443C156.747 104.074 156.226 104.43 156.336 104.238C156.747 103.607 156.254 103.306 155.541 103.745C155.185 103.991 154.554 104.183 154.143 104.183C153.539 104.183 152.936 104.622 151.51 106.048C149.673 107.913 149.399 108.462 150.002 109.065C150.605 109.668 151.264 109.394 152.305 108.16C153.375 106.844 154.06 106.569 154.06 107.474C154.06 108.16 154.088 108.16 155.294 107.447C156.117 106.953 156.336 106.926 156.693 107.228C157.076 107.529 157.214 107.474 157.652 106.926C157.926 106.542 158.173 106.377 158.173 106.569C158.173 106.953 158.941 107.749 159.297 107.749C159.435 107.749 159.709 107.42 159.873 106.981C160.12 106.405 160.202 106.35 160.285 106.706C160.367 106.981 160.559 107.2 160.751 107.2C161.546 107.2 163.109 104.704 163.109 103.388C163.109 102.73 161.518 102.072 161.299 102.62C161.135 103.086 159.27 103.086 159.27 102.62C159.27 102.044 158.941 102.209 157.488 103.443Z" fill="black"/>
<path d="M232.041 102.949C228.614 103.827 226.091 104.979 222.499 107.31C217.043 110.875 213.012 114.523 210.654 118.088C209.201 120.282 207.802 123.875 207.364 126.617C206.431 132.431 207.144 136.436 209.886 140.549L210.901 142.085L210.38 143.073C210.106 143.594 208.762 145.212 207.391 146.693C201.057 153.494 200.591 157.498 205.28 164.931C206.706 167.207 207.309 167.893 208.735 168.935C209.996 169.867 210.16 169.895 210.544 169.181C210.791 168.715 210.709 168.304 210.078 167.042C209.365 165.589 209.338 165.26 209.365 162.051C209.393 157.306 210.352 154.015 212.381 151.766C213.067 150.998 214.657 148.695 214.657 148.475C214.657 148.393 214.959 147.899 215.315 147.433C215.672 146.94 216.083 146.172 216.22 145.733L216.494 144.91L216.686 145.925C216.988 147.598 216.439 148.914 214.246 151.657C211.696 154.838 210.818 156.621 210.627 159.034C210.325 162.599 212.546 167.536 216.138 171.293C217.975 173.268 219.785 172.692 218.414 170.58C217.125 168.606 214.685 164.355 214.218 163.285C213.944 162.627 213.725 161.42 213.725 160.268C213.697 157.882 214.191 156.785 216.768 153.604C218.359 151.657 218.688 151.382 218.907 151.766C220.114 153.823 222.938 157.224 224.747 158.815C226.557 160.46 228.367 160.159 228.367 158.266C228.367 157.937 227.791 157.251 227.023 156.593C225.597 155.387 223.349 152.726 221.677 150.258L220.635 148.75L220.827 146.418C220.964 144.471 220.881 143.511 220.278 140.659C219.894 138.767 219.483 135.997 219.401 134.488C219.236 131.17 219.702 129.607 221.731 126.919C222.91 125.356 223.952 124.478 227.709 121.873C229.464 120.666 233.439 118.829 236.867 117.622C239.691 116.634 240.431 116.168 240.431 115.373C240.431 114.331 239.17 114.248 236.318 115.044C230.259 116.744 226.146 118.938 222.362 122.449C219.894 124.752 219.675 124.478 222.115 122.092C224.72 119.514 226.612 118.061 229.025 116.744C232.068 115.044 236.647 113.508 238.539 113.508C240.02 113.508 240.349 111.369 238.923 111.067C238.375 110.985 237.552 111.177 233.577 112.466C228.038 114.248 224.007 116.662 220.936 120.008C219.401 121.708 217.317 124.78 216.988 125.795C216.878 126.151 216.741 126.37 216.659 126.288C216.439 126.096 217.618 123.162 218.633 121.324C220.141 118.637 222.143 116.717 224.747 115.428C226.009 114.797 228.531 113.481 230.368 112.466C235.304 109.751 236.812 109.12 238.567 109.12C240.815 109.12 241.994 108.023 240.706 107.118C240.212 106.761 240.185 106.679 240.568 106.377C240.788 106.185 240.98 105.801 240.98 105.555C240.98 104.951 239.746 103.909 239.033 103.909C238.704 103.909 238.512 103.717 238.512 103.415C238.512 103.141 238.375 102.785 238.183 102.593C237.662 102.072 234.756 102.236 232.041 102.949ZM234.673 107.282C233.851 107.639 232.37 108.352 231.383 108.873C225.735 111.945 223.13 113.398 221.896 114.194C220.086 115.4 217.673 117.567 217.673 118.033C217.673 118.225 217.454 118.554 217.207 118.746C216.247 119.542 212.491 128.976 212.464 130.704C212.436 131.115 212.409 131.115 212.217 130.786C211.751 130.018 212.327 125.301 213.067 123.573C214.273 120.721 216.467 118.033 219.702 115.373C220.47 114.715 221.156 114.139 221.238 114.056C221.539 113.727 224.199 111.862 224.391 111.862C224.473 111.862 224.967 111.561 225.433 111.204C226.667 110.272 231.739 107.749 233.577 107.173C235.743 106.46 236.456 106.542 234.673 107.282ZM210.243 134.598C210.407 135.421 210.489 136.134 210.435 136.216C210.078 136.545 209.667 133.83 209.585 130.786L209.502 127.358L209.722 130.237C209.831 131.828 210.078 133.775 210.243 134.598ZM214.767 132.733C214.438 134.434 214.356 135.887 214.465 138.328C214.657 141.866 214.438 142.935 213.835 141.509C213.56 140.851 213.56 140.495 213.835 139.864C214.109 139.178 214.054 138.904 213.451 137.697C212.793 136.381 212.765 136.326 213.259 135.887C213.533 135.64 213.835 134.872 213.944 134.187C214.109 133.007 214.959 130.183 215.123 130.347C215.151 130.375 214.986 131.444 214.767 132.733ZM217.125 139.617C217.262 140.275 217.454 141.043 217.564 141.345C217.756 141.893 217.756 141.893 217.18 141.372C216.714 140.961 216.577 140.549 216.577 139.48C216.577 137.862 216.823 137.944 217.125 139.617ZM207.939 150.231C206.047 152.918 205.006 155.167 204.759 157.114C204.567 158.54 204.567 158.513 204.594 156.538C204.649 154.783 204.786 154.207 205.609 152.589C206.514 150.779 208.68 148.064 209.201 148.064C209.338 148.064 208.789 149.051 207.939 150.231Z" fill="black"/>
<path d="M248.904 105.527L248.273 106.021L248.986 106.487C249.48 106.789 249.644 107.118 249.562 107.557C249.397 108.379 250.878 109.943 252.66 110.848C254.278 111.67 258.199 115.483 260.283 118.28C262.723 121.544 265.054 125.465 264.725 125.767C264.67 125.849 264.341 125.383 264.067 124.78C262.915 122.421 259.597 118.225 256.472 115.208C254.689 113.535 253.044 112.137 252.77 112.137C252.496 112.137 252.139 112.301 251.975 112.521C251.344 113.289 252.386 114.852 255.731 118.143C259.57 121.955 260.968 124.176 262.805 129.305C265.383 136.628 265.904 138.876 265.931 143.073C265.931 144.691 265.794 145.321 265.218 146.418C264.423 147.954 264.615 148.887 265.794 148.887C266.754 148.887 269.249 146.446 270.236 144.581C272.402 140.467 272.951 133.199 271.552 127.714C270.675 124.368 266.507 117.402 263.052 113.508C260.914 111.095 256.773 108.023 253.455 106.377C250.439 104.869 249.836 104.759 248.904 105.527ZM266.233 130.018C266.507 131.033 266.754 132.102 266.726 132.349C266.726 132.623 266.425 131.801 266.068 130.512C265.712 129.223 265.301 127.824 265.136 127.413C264.972 126.974 264.834 126.48 264.862 126.316C264.889 125.877 265.602 127.797 266.233 130.018ZM268.317 127.824C268.234 128.043 268.152 127.961 268.152 127.659C268.125 127.358 268.207 127.193 268.289 127.303C268.372 127.385 268.399 127.632 268.317 127.824ZM268.947 129.524C268.947 130.237 268.783 130.018 268.564 129.003C268.426 128.4 268.454 128.29 268.673 128.592C268.81 128.811 268.947 129.25 268.947 129.524ZM269.441 132.294C269.441 132.733 269.386 132.706 269.222 132.157C269.112 131.773 269.002 131.225 269.002 130.923C269.002 130.484 269.057 130.512 269.222 131.06C269.331 131.444 269.441 131.993 269.441 132.294Z" fill="black"/>
<path d="M165.549 112.877C165.357 113.069 165.028 113.179 164.809 113.097C164.589 113.014 164.178 113.151 163.904 113.398C163.602 113.673 163.383 113.727 163.383 113.563C163.383 113.371 163.026 113.234 162.588 113.234C161.683 113.234 161.381 113.892 161.655 115.236C161.765 115.812 162.067 116.141 162.725 116.415C163.246 116.634 163.849 117.101 164.096 117.485C164.343 117.869 164.644 118.17 164.754 118.17C164.864 118.17 165.302 117.677 165.686 117.046C166.317 116.113 166.564 115.949 167.085 116.086C167.66 116.223 167.77 116.141 168.044 115.126C168.209 114.523 168.318 113.673 168.264 113.289C168.181 112.63 168.072 112.548 167.03 112.521C166.317 112.493 165.741 112.63 165.549 112.877Z" fill="black"/>
<path d="M138.02 118.17C134.593 118.801 132.701 119.459 129.684 121.105C125.38 123.436 121.843 126.233 119.704 128.921C117.099 132.212 115.81 135.201 115.372 139.014C115.207 140.549 114.96 141.4 114.714 141.564C113.781 142.085 110.162 145.129 108.133 147.131C106.926 148.338 104.541 151.136 102.841 153.384C100.181 156.922 99.77 157.608 99.77 158.513C99.77 159.665 100.264 160.131 101.223 159.912C101.826 159.802 102.841 158.678 106.872 153.714C108.873 151.245 110.984 149.079 114.193 146.254C116.002 144.636 116.222 144.553 116.222 145.212C116.222 145.87 117.949 147.406 119.073 147.79C120.28 148.174 121.651 147.625 122.364 146.418L122.83 145.596L123.707 146.748C124.831 148.174 125.27 148.475 126.175 148.228C127.299 147.954 127.847 146.638 127.655 144.773L127.491 143.21L128.533 144.252C130.315 146.034 131.851 145.404 132.234 142.743C132.426 141.509 132.426 141.509 132.975 142.058C133.688 142.771 134.757 142.716 135.525 141.948C136.101 141.372 136.155 140.988 136.347 137.121C136.594 132.075 137.033 130.621 139.007 128.427C141.886 125.246 139.775 123.409 136.594 126.343C135.36 127.467 134.236 129.524 133.907 131.197L133.715 132.294L133.331 131.581C133.139 131.17 132.481 130.649 131.851 130.402C130.836 129.991 130.644 129.991 129.931 130.375C128.834 130.951 128.204 131.965 128.012 133.528C127.847 134.79 128.067 137.944 128.423 139.288C128.56 139.809 128.451 139.727 127.984 138.959C127.628 138.383 126.943 137.779 126.339 137.478C125.38 137.066 125.243 137.039 124.612 137.45C123.872 137.944 123.652 138.712 123.926 140.028C124.173 141.208 124.036 141.153 123.351 139.836C122.912 139.014 122.638 138.739 122.117 138.739C120.91 138.739 120.334 139.617 120.334 141.427C120.334 142.332 120.17 143.237 119.978 143.511C119.649 143.978 119.567 143.895 119.238 142.716C118.36 139.562 120.033 134.269 122.994 130.786C126.476 126.7 132.646 122.942 138.98 121.023C141.859 120.145 142.736 119.542 142.407 118.664C142.27 118.335 141.064 117.539 140.817 117.649C140.789 117.649 139.528 117.896 138.02 118.17ZM131.22 135.914C131.138 136.189 131.083 135.969 131.083 135.448C131.083 134.927 131.138 134.708 131.22 134.955C131.275 135.229 131.275 135.668 131.22 135.914Z" fill="black"/>
<path d="M226.804 124.807C226.118 125.136 225.954 126.151 226.53 126.617C226.694 126.754 227.846 126.946 229.052 127.001C230.862 127.084 231.63 127.276 233.522 128.126C235.797 129.168 236.647 129.25 236.977 128.427C237.744 126.398 229.546 123.491 226.804 124.807Z" fill="black"/>
<path d="M185.702 125.987C184.688 127.001 184.852 127.687 186.47 129.113C188.938 131.28 196.396 138.822 197.246 139.973C197.685 140.577 198.726 141.811 199.576 142.743C201.496 144.855 201.989 145.486 202.62 146.528C202.894 146.994 203.497 147.598 203.936 147.872C204.759 148.366 204.786 148.366 205.472 147.68C206.377 146.775 206.568 145.842 206.047 144.828C205.609 143.978 203.168 140.879 202.346 140.111C202.099 139.891 201.222 138.822 200.372 137.779C198.206 135.064 191.488 128.427 189.486 126.946C187.21 125.328 186.552 125.136 185.702 125.987Z" fill="black"/>
<path d="M229.464 131.334C228.339 132.459 228.86 135.174 230.204 135.174C230.944 135.174 231.931 133.858 231.931 132.925C231.931 131.06 230.588 130.21 229.464 131.334Z" fill="black"/>
<path d="M239.252 135.366C239.17 135.503 239.033 136.024 238.923 136.545C238.704 137.779 237.826 140.549 236.949 142.908C236.538 144.032 236.346 144.992 236.455 145.349C236.867 146.583 240.404 147.214 240.98 146.172C241.199 145.733 241.117 145.541 240.541 145.075C240.13 144.745 239.636 144.499 239.444 144.499C238.951 144.499 238.951 143.978 239.444 142.798C239.773 142.03 240.376 139.37 240.897 136.436C241.007 135.942 240.925 135.585 240.678 135.421C240.212 135.119 239.417 135.092 239.252 135.366Z" fill="black"/>
<path d="M249.48 138.41C249.123 138.684 248.849 139.315 248.739 140.028C248.602 141.016 248.684 141.208 249.315 141.619C250.357 142.305 251.262 141.838 251.701 140.385C252.331 138.328 251.015 137.149 249.48 138.41Z" fill="black"/>
<path d="M223.76 142.222C223.87 142.826 224.939 142.908 224.939 142.305C224.939 142.085 224.638 141.866 224.309 141.811C223.788 141.729 223.678 141.811 223.76 142.222Z" fill="black"/>
<path d="M230.012 149.847C229.135 150.889 231.109 153.357 233.851 154.728C235.112 155.359 235.688 155.469 237.607 155.469C240.322 155.469 241.61 154.975 241.473 154.015C241.391 153.439 241.199 153.412 238.649 153.247C236.401 153.138 235.633 152.973 234.454 152.37C233.686 151.958 232.864 151.355 232.672 151.053C232.507 150.752 231.904 150.258 231.328 149.956C230.478 149.518 230.286 149.49 230.012 149.847Z" fill="black"/>
<path d="M342.212 310.148L341.307 310.724L341.499 318.183C341.691 326.301 341.526 328.66 340.375 333.103C339.991 334.502 339.443 336.284 339.114 337.052L338.51 338.451L338.209 337.546C338.044 337.08 337.688 336.531 337.441 336.367C336.591 335.845 336.015 336.504 335.412 338.835C334.809 341.166 333.575 343.826 332.176 345.773C330.997 347.419 327.981 349.86 326.665 350.244C326.062 350.408 325.349 350.737 325.075 350.984C324.664 351.341 324.444 351.341 323.704 351.039C323.21 350.847 322.415 350.518 321.894 350.326C321.373 350.134 320.852 349.723 320.743 349.421C320.414 348.543 318.247 347.967 314.738 347.803C312.489 347.693 311.447 347.529 311.118 347.227C310.323 346.569 304.894 346.953 301.193 347.967C298.341 348.735 298.204 348.735 298.094 348.242C297.93 347.611 297.518 347.583 293.214 348.132C289.128 348.653 287.373 349.119 283.809 350.628C282.246 351.286 280.875 351.834 280.71 351.834C280.08 351.834 278.27 353.233 278.27 353.754C278.27 354.769 280.107 354.385 286.002 352.136C288.826 351.039 292.144 350.189 293.488 350.189C293.981 350.189 294.091 350.299 293.981 350.737C293.789 351.45 294.612 352.383 295.38 352.383C295.709 352.383 297.244 351.944 298.807 351.423C301.439 350.518 305.799 349.366 306.594 349.366C306.786 349.366 307.088 349.75 307.252 350.216L307.581 351.067L312.188 350.875C316.767 350.683 316.822 350.683 318.576 351.396C319.564 351.807 320.715 352.328 321.154 352.575C321.702 352.877 322.689 353.014 324.17 353.041C326.144 353.069 326.583 352.959 328.201 352.164C331.299 350.655 335.138 346.322 336.454 342.921C336.865 341.852 337.112 341.468 337.331 341.687C337.743 342.098 338.922 342.016 339.58 341.55C340.814 340.7 342.897 335.215 343.775 330.635C344.543 326.658 344.707 323.202 344.351 318.403C344.186 316.099 344.104 314.152 344.186 314.042C344.406 313.85 347.449 320.268 348.052 322.215C348.381 323.202 348.601 325.122 348.71 327.837C348.875 331.786 348.902 331.951 349.478 332.033C349.807 332.088 350.328 331.869 350.657 331.54C351.233 330.964 351.26 330.744 351.151 326.493L351.041 322.078L349.396 318.513C347.01 313.302 346.051 311.629 344.844 310.559C343.638 309.435 343.418 309.407 342.212 310.148Z" fill="black"/>
<path d="M215.48 326.137C212.93 328.139 211.641 330.196 211.641 332.225C211.641 333.679 212.025 333.761 212.71 332.472C214.218 329.73 216.028 327.152 216.028 327.81C216.028 327.92 215.726 328.605 215.342 329.346C213.725 332.527 215.315 333.871 217.975 331.567C218.605 331.019 220.196 330.031 221.457 329.346C222.746 328.66 223.842 327.974 223.897 327.782C224.034 327.426 222.992 327.014 222.197 327.124C220.963 327.261 218.989 328.057 218.222 328.715C217.262 329.51 217.18 329.346 217.947 328.249C218.907 326.877 219.126 326.055 218.605 325.479C217.892 324.683 217.125 324.848 215.48 326.137Z" fill="black"/>
<path d="M204.704 326.247C204.21 326.74 204.677 327.536 206.596 329.373C207.748 330.497 209.036 331.924 209.475 332.554C210.544 334.09 211.23 334.145 210.956 332.692C210.681 331.238 209.886 330.031 207.83 327.892C206.157 326.192 205.225 325.698 204.704 326.247Z" fill="black"/>
<path d="M352.193 328.029C352.11 328.221 352.028 329.016 351.946 329.757C351.809 331.622 350.63 334.584 348.985 337.354C347.257 340.233 347.065 340.864 347.97 340.864C348.354 340.864 348.848 340.645 349.067 340.371C349.725 339.658 351.918 335.16 352.467 333.459C353.07 331.649 353.18 327.947 352.659 327.782C352.467 327.7 352.248 327.81 352.193 328.029Z" fill="black"/>
<path d="M199.412 328.66C199.165 329.291 199.741 329.812 200.947 330.004C202.291 330.223 204.622 331.238 205.828 332.171C206.349 332.554 206.925 332.801 207.144 332.719C208.488 332.198 206.102 329.401 203.717 328.688C201.77 328.112 199.604 328.112 199.412 328.66Z" fill="black"/>
<path d="M196.697 329.812C196.396 329.894 195.244 330.306 194.12 330.772C191.406 331.841 187.868 332.637 185.785 332.637C183.701 332.637 182.522 333.213 181.397 334.748C179.835 336.942 179.615 340.316 180.767 345.527C180.986 346.514 181.288 347.995 181.48 348.818C181.644 349.64 181.918 350.847 182.056 351.478C182.439 353.233 182.357 353.974 181.726 354.604C181.343 354.988 181.206 355.427 181.26 356.031C181.343 356.771 181.48 356.936 182.357 357.128C183.207 357.32 183.591 357.265 184.743 356.634C186.525 355.647 188.856 353.562 190.336 351.615C191.844 349.64 193.818 346.185 194.01 345.197C194.147 344.512 194.093 344.43 193.462 344.43C192.694 344.43 192.694 344.457 189.706 348.461C188.307 350.353 185.318 353.206 184.743 353.206C184.414 353.206 184.276 351.697 184.551 351.176C184.743 350.847 184.743 350.463 184.551 350.079C184.414 349.778 184.167 348.571 184.002 347.446C183.838 346.322 183.481 344.128 183.235 342.592C182.631 338.972 182.851 337.491 184.085 336.312C184.907 335.544 185.236 335.434 187.156 335.297C188.335 335.215 190.281 334.803 191.488 334.419C194.147 333.569 199.001 331.238 199.028 330.827C199.028 330.141 197.685 329.592 196.697 329.812Z" fill="black"/>
<path d="M222.773 329.922C221.347 330.251 220.689 330.882 220.689 331.869C220.689 332.938 221.32 333.103 222.855 332.472C223.705 332.116 224.83 331.951 226.31 331.924C230.314 331.869 230.286 331.869 230.286 331.293C230.286 330.141 225.433 329.236 222.773 329.922Z" fill="black"/>
<path d="M230.122 333.35C229.902 334.227 230.177 334.556 231.136 334.556C232.178 334.556 232.836 334.913 234.399 336.284C235.935 337.628 236.236 337.738 240.212 338.561C243.996 339.328 245.531 339.904 246.82 340.974C247.533 341.577 247.725 341.906 247.588 342.208C247.451 342.455 247.286 343.141 247.177 343.744C246.793 345.993 245.806 349.558 245.093 351.149C244.681 352.054 243.722 353.59 242.954 354.55C241.528 356.305 241.528 356.305 241.528 358.307C241.528 359.514 241.391 360.391 241.199 360.501C240.843 360.72 238.046 357.786 237.799 356.908C237.717 356.606 237.388 355.811 237.086 355.153C236.785 354.467 236.346 352.931 236.127 351.725C235.907 350.491 235.496 349.202 235.222 348.818C234.947 348.434 234.454 346.98 234.125 345.581C233.659 343.552 233.357 342.866 232.617 342.098C231.794 341.193 230.78 340.864 230.451 341.358C230.396 341.468 230.56 342.126 230.862 342.784C231.164 343.47 231.602 345.362 231.822 347.035C232.178 349.695 232.425 350.957 232.918 352.602C233.001 352.849 232.864 352.767 232.617 352.383C232.206 351.725 232.206 351.834 232.315 354.166C232.397 355.509 232.37 356.36 232.315 356.031C232.151 355.4 231.383 354.577 231.383 355.071C231.383 355.647 231.959 356.908 232.343 357.21C232.562 357.374 232.918 358.636 233.165 360.199C233.659 363.243 233.96 363.984 234.618 363.847C235.386 363.71 235.359 361.378 234.536 358.389C234.125 356.99 233.768 355.372 233.686 354.851C233.577 353.946 233.604 353.946 233.878 354.577C234.043 354.961 234.728 356.387 235.386 357.786C236.483 360.062 236.785 360.446 238.677 361.954C240.98 363.819 242.159 364.094 243.173 363.079C243.639 362.613 243.722 362.174 243.722 360.089C243.722 357.676 243.722 357.621 244.544 357.045C245.394 356.442 247.149 354.001 247.807 352.52C249.151 349.531 249.864 344.814 249.233 343.031C248.931 342.208 248.959 342.071 249.48 341.714C250.906 340.755 249.672 338.588 247.012 337.381C245.586 336.723 241.802 335.763 239.609 335.489C238.128 335.297 236.318 334.529 234.947 333.487C234.481 333.13 233.659 332.911 232.26 332.829C230.368 332.719 230.259 332.746 230.122 333.35Z" fill="black"/>
<path d="M351.836 337.217C350.794 340.316 347.778 344.21 344.241 347.062C341.28 349.421 341.033 349.832 341.883 350.518C342.239 350.792 342.706 350.957 342.952 350.902C343.199 350.847 343.693 350.683 344.077 350.573C344.68 350.408 344.707 350.436 344.406 350.82C343.967 351.341 340.265 353.782 337.085 355.619C335.741 356.414 334.754 357.182 334.535 357.649C334.37 358.033 333.822 358.499 333.383 358.636C332.862 358.828 332.396 359.294 332.122 359.897C331.847 360.446 331.381 360.912 330.997 360.994C329.928 361.269 330.202 362.338 331.82 364.258C334.699 367.659 336.81 371.224 338.483 375.557C339.059 377.011 339.854 377.45 340.677 376.792C341.417 376.161 340.978 373.5 339.607 370.456C338.785 368.564 335.165 363.024 333.986 361.735C333.493 361.241 333.109 360.803 333.109 360.748C333.109 360.72 333.493 360.611 333.986 360.501C335.33 360.227 338.62 358.554 341.691 356.579C346.407 353.535 347.477 352.438 348.025 350.134C348.244 349.202 347.531 348.434 346.627 348.626C346.297 348.681 345.996 348.681 345.996 348.571C345.996 348.489 346.956 347.501 348.135 346.349C350.794 343.744 352.357 341.44 352.988 339.082C353.427 337.518 353.427 337.217 353.097 336.997C352.494 336.613 352.028 336.696 351.836 337.217Z" fill="black"/>
<path d="M200.399 341.413C200.399 342.181 203.689 346.624 204.265 346.624C205.334 346.624 205.142 345.198 203.854 343.36C202.812 341.906 200.399 340.535 200.399 341.413Z" fill="black"/>
<path d="M204.731 341.55C204.649 341.632 204.813 342.428 205.088 343.333C205.362 344.21 205.663 345.883 205.773 347.035C205.965 349.147 206.459 349.942 207.007 349.064C208.049 347.419 205.91 340.398 204.731 341.55Z" fill="black"/>
<path d="M217.838 344.155C216.796 345.06 215.754 346.98 215.754 347.94C215.754 348.9 216.193 348.653 216.522 347.501C216.686 346.953 217.454 345.801 218.222 344.978C218.962 344.155 219.593 343.47 219.593 343.415C219.593 343.058 218.606 343.47 217.838 344.155Z" fill="black"/>
<path d="M196.067 344.32C195.025 344.951 193.736 346.624 194.312 346.624C195.08 346.624 197.657 345.965 197.657 345.773C197.657 345.636 197.547 345.527 197.383 345.527C197.246 345.527 197.109 345.39 197.109 345.225C197.109 345.006 197.767 344.951 199.165 345.033C201.441 345.143 201.88 344.786 200.399 344.018C199.165 343.387 197.438 343.497 196.067 344.32Z" fill="black"/>
<path d="M218.359 345.362C217.509 346.185 217.399 346.404 217.673 346.87C218.002 347.529 218.249 347.556 219.565 347.172C220.251 346.98 220.854 347.008 221.759 347.309C222.444 347.501 223.706 347.803 224.583 347.968C225.433 348.105 226.612 348.543 227.188 348.927C227.764 349.284 228.559 349.695 228.997 349.778C229.656 349.942 229.738 349.887 229.738 349.256C229.738 348.708 229.491 348.434 228.586 347.968C227.928 347.638 227.133 347.145 226.804 346.816C226.42 346.487 225.68 346.212 224.802 346.13C223.322 345.993 223.102 345.773 224.035 345.335C224.665 345.06 224.665 345.06 224.089 344.759C223.706 344.539 222.965 344.539 221.759 344.704C220.635 344.868 219.976 344.868 219.922 344.704C219.757 344.238 219.401 344.402 218.359 345.362Z" fill="black"/>
<path d="M199.165 349.092C198.809 349.503 198.726 349.915 198.836 350.737C199.028 352.164 199.439 352.657 200.426 352.657C201.825 352.657 202.51 350.189 201.468 348.9C201.002 348.379 199.741 348.461 199.165 349.092Z" fill="black"/>
<path d="M267.659 349.832C267.302 349.887 265.026 350.628 262.586 351.451C258.391 352.849 258.007 352.931 255.375 352.959C252.523 352.959 251.509 352.739 250.878 351.999C250.686 351.752 250.165 351.56 249.726 351.56C248.054 351.56 249.068 353.507 251.399 354.742C252.194 355.18 252.962 355.263 255.649 355.263C258.583 355.235 259.241 355.153 261.681 354.385C264.56 353.453 266.754 352.904 266.754 353.096C266.754 353.151 266.589 353.453 266.425 353.754C265.959 354.467 266.644 355.784 267.522 355.893C268.097 355.976 277.091 353.096 279.038 352.191C279.696 351.889 279.915 351.588 279.915 351.094C279.915 350.436 279.833 350.408 278.956 350.545C278.188 350.683 271.443 352.767 269.085 353.645C268.701 353.782 268.865 353.507 269.578 352.767C270.812 351.451 271.004 350.079 269.989 349.805C269.304 349.64 268.646 349.64 267.659 349.832Z" fill="black"/>
<path d="M191.433 351.094C190.035 352.712 189.404 353.974 189.239 355.537C189.102 356.853 189.157 357.155 189.651 357.676C190.172 358.225 190.199 358.444 189.98 359.239C189.815 359.76 189.705 360.501 189.705 360.857C189.705 361.406 189.815 361.461 190.418 361.324C191.433 361.049 194.093 359.239 194.093 358.8C194.093 358.307 193.435 358.307 192.447 358.828C191.405 359.376 191.405 359.075 192.447 357.237C193.38 355.564 193.435 355.263 192.859 355.016C192.612 354.933 191.981 355.263 191.296 355.893C190.665 356.442 190.226 356.771 190.309 356.634C190.391 356.469 190.939 355.564 191.543 354.577C192.886 352.355 193.38 351.149 193.16 350.6C192.914 349.942 192.283 350.107 191.433 351.094Z" fill="black"/>
<path d="M220.36 350.929C219.757 351.642 219.593 352.548 219.894 353.645C220.305 355.071 221.676 355.427 222.554 354.358C222.965 353.809 222.993 351.231 222.554 350.792C222.06 350.299 220.826 350.381 220.36 350.929Z" fill="black"/>
<path d="M203.415 353.946C202.593 354.44 200.947 355.153 199.714 355.537C198.507 355.893 197.218 356.415 196.835 356.689L196.176 357.155L196.835 357.347L197.52 357.539L196.835 357.566C195.71 357.621 194.833 358.362 195.025 359.13C195.135 359.514 195.08 359.788 194.915 359.788C194.285 359.788 191.597 361.241 190.857 361.954C190.446 362.393 189.678 363.49 189.185 364.423C188.197 366.315 188.115 367.549 189.02 367.686C189.514 367.741 189.568 367.933 189.459 369.167C189.404 370.127 189.486 370.621 189.733 370.785C190.336 371.169 190.391 371.115 190.939 369.579C191.214 368.811 191.707 367.769 192.036 367.33C193.133 365.821 193.901 364.231 193.736 363.765C193.489 363.134 192.804 363.573 191.186 365.328C190.391 366.205 190.062 366.452 190.364 365.959C191.543 364.039 193.023 362.338 194.093 361.708C194.723 361.324 195.573 360.748 195.957 360.419L196.697 359.815L196.012 359.568C195.464 359.349 195.738 359.267 197.52 359.13C201.825 358.718 203.58 357.155 199.631 357.21L197.794 357.237L199.823 356.744C202.017 356.168 203.141 355.592 204.347 354.358C205.526 353.124 205.115 352.932 203.415 353.946Z" fill="black"/>
<path d="M217.509 360.473C217.289 360.994 217.591 361.433 218.194 361.433C219.017 361.433 222.362 364.313 223.459 365.931C224.035 366.781 224.693 368.153 224.939 368.975C225.378 370.566 225.597 370.758 226.173 370.072C226.585 369.579 226.393 368.317 225.597 366.205C224.857 364.258 221.622 360.748 220.196 360.336C218.77 359.952 217.673 360.007 217.509 360.473Z" fill="black"/>
<path d="M230.094 360.528C229.683 360.693 229.628 362.585 230.012 362.969C230.176 363.134 230.588 364.231 230.917 365.437C231.41 367.193 231.657 367.631 232.123 367.686C232.562 367.741 232.781 367.549 233.028 366.809C233.275 366.041 233.247 365.492 232.864 363.984C232.37 361.954 231.794 360.611 231.41 360.611C231.273 360.611 230.999 360.556 230.78 360.501C230.588 360.419 230.259 360.446 230.094 360.528Z" fill="black"/>
<path d="M201.578 363.902C198.397 364.642 198.206 368.482 201.222 371.444C201.989 372.184 202.593 372.952 202.593 373.144C202.593 373.61 201.139 374.323 200.18 374.323C199.741 374.323 199.22 374.131 199.028 373.912C198.288 373.034 197.191 373.802 197.493 375.009C197.877 376.545 200.673 377.093 202.785 376.024L203.854 375.475L205.06 376.408C205.691 376.929 206.733 377.477 207.336 377.642C209.475 378.218 212.272 377.258 212.628 375.832C212.957 374.543 211.641 373.83 210.681 374.762C210.078 375.365 208.159 375.119 206.843 374.268C205.718 373.528 205.636 373.144 206.568 372.733C207.665 372.239 209.886 370.401 210.38 369.606C211.01 368.591 210.956 366.864 210.243 365.986C208.899 364.258 204.485 363.189 201.578 363.902ZM207.117 366.918C208.214 367.165 209.009 367.878 208.735 368.344C208.652 368.482 208.186 368.509 207.72 368.399C206.952 368.235 206.76 368.344 205.718 369.524C205.006 370.347 204.457 370.758 204.265 370.648C203.689 370.292 201.496 367.11 201.66 366.864C201.852 366.562 205.746 366.589 207.117 366.918Z" fill="black"/>
<path d="M228.01 365.191C227.901 365.273 227.818 367.001 227.818 369.03C227.818 372.047 227.873 372.678 228.23 372.678C229.107 372.678 229.546 371.087 229.381 368.454C229.326 367.083 229.162 365.739 229.052 365.465C228.86 364.999 228.339 364.834 228.01 365.191Z" fill="black"/>
<path d="M222.472 368.015C222.389 368.153 222.499 368.92 222.746 369.716C222.993 370.511 223.239 372.486 223.349 374.104C223.431 375.749 223.623 377.066 223.733 377.066C223.87 377.066 224.172 376.737 224.446 376.325C225.131 375.311 225.104 371.91 224.418 370.072C223.705 368.153 222.91 367.302 222.472 368.015Z" fill="black"/>
<path d="M191.597 370.539C191.186 371.306 191.46 373.802 192.064 374.844C192.502 375.585 193.846 376.38 194.147 376.078C194.23 376.024 193.928 374.954 193.489 373.72C193.078 372.458 192.722 371.114 192.722 370.676C192.722 369.771 192.064 369.688 191.597 370.539Z" fill="black"/>
<path d="M334.343 373.062C333.849 373.446 333.822 373.528 334.206 374.131C334.425 374.515 335.275 375.914 336.097 377.258C336.92 378.574 337.907 380.659 338.291 381.865C339.031 384.142 339.525 384.608 340.43 383.895C341.417 383.045 340.32 379.808 337.414 375.146C335.906 372.705 335.33 372.321 334.343 373.062Z" fill="black"/>
<path d="M194.915 374.735C194.915 376.6 195.93 378.245 197.246 378.492C197.575 378.547 198.123 379.15 198.562 379.945C199.439 381.536 201.03 383.237 202.099 383.812C202.949 384.251 204.018 384.087 204.539 383.456C204.841 383.127 204.951 383.182 205.472 383.812C206.486 385.101 208.104 384.635 209.064 382.77C209.968 381.043 209.146 380.028 207.83 381.289C207.062 382.03 206.431 382.222 206.431 381.728C206.431 381.207 205.115 380.083 204.539 380.083C204.238 380.083 203.744 380.329 203.443 380.659L202.922 381.234L202.455 380.521C202.181 380.137 201.66 379.726 201.249 379.616C200.865 379.534 200.317 379.15 200.043 378.794C199.768 378.437 199.385 378.163 199.165 378.163C198.535 378.163 196.259 375.749 195.902 374.68C195.381 373.171 194.915 373.199 194.915 374.735Z" fill="black"/>
<path d="M221.293 373.83C221.101 374.022 220.964 374.351 220.964 374.598C220.964 374.844 220.525 375.887 220.004 376.956C218.852 379.232 218.77 380.083 219.675 380.083C220.991 380.083 222.033 378.026 222.06 375.365C222.06 373.747 221.841 373.281 221.293 373.83Z" fill="black"/>
<path d="M216.878 377.422C216.439 378.574 214.849 380 213.615 380.329C212.985 380.521 212.354 380.905 212.189 381.18C212.025 381.481 211.641 381.728 211.367 381.728C210.654 381.728 210.681 382.222 211.504 384.279C212.573 386.829 212.902 389.243 212.546 391.656C212.326 393.274 212.326 393.768 212.628 394.261C213.176 395.139 213.999 395.057 214.904 394.042L215.672 393.219L215.836 394.81C216.028 396.977 217.317 400.021 218.276 400.597C218.989 401.008 219.072 401.008 219.483 400.597C219.894 400.185 219.867 400.048 219.181 398.567C218.551 397.223 218.386 396.456 218.249 393.795C218.03 390.175 217.728 389.407 216.576 389.407C216.138 389.407 215.699 389.517 215.617 389.681C215.233 390.285 214.931 389.901 214.931 388.776C214.931 387.405 214.328 385.431 213.396 383.812C212.573 382.386 212.573 382.277 213.506 382.277C214.493 382.277 216.412 380.933 217.125 379.726C217.701 378.794 217.865 376.792 217.399 376.792C217.235 376.792 217.015 377.093 216.878 377.422Z" fill="black"/>
<path d="M335.302 380.878C334.946 381.591 334.946 382.085 335.33 382.469C335.659 382.798 336.618 385.293 337.523 388.201C338.346 390.833 339.415 391.3 339.415 388.996C339.415 387.652 337.167 380.933 336.618 380.576C336.043 380.22 335.604 380.329 335.302 380.878Z" fill="black"/>
<path d="M303.496 388.201C303.276 388.804 303.194 390.065 303.276 391.354L303.413 393.466L302.152 393.795C301.467 393.96 299.547 394.837 297.902 395.715C296.23 396.593 294.42 397.388 293.899 397.498C292.802 397.745 288.881 400.213 287.812 401.365C286.989 402.242 286.688 403.97 287.263 404.546C287.51 404.793 287.867 404.601 288.909 403.614C290.307 402.27 292.199 400.926 292.693 400.926C292.884 400.926 293.104 401.502 293.213 402.215C293.734 405.835 295.544 408.852 298.176 410.552C299.136 411.183 299.931 411.732 299.931 411.786C299.931 412.417 297.546 418.615 296.97 419.438C296.559 420.014 295.846 421.248 295.407 422.181L294.584 423.826L292.226 424.402C289.43 425.088 288.689 425.526 287.647 427.199C286.057 429.695 286.276 431.341 288.251 432.301C289.375 432.822 294.996 432.959 296.641 432.465C297.162 432.328 298.122 432.191 298.78 432.191C300.507 432.191 301.851 431.56 301.851 430.737C301.851 430.381 302.125 429.86 302.426 429.558C303.413 428.68 307.28 423.991 308.513 422.208C310.213 419.685 313.284 413.432 313.641 411.759C313.86 410.662 313.86 410.113 313.641 409.702C313.449 409.373 313.394 408.77 313.504 408.386L313.668 407.673L314.738 408.934C315.396 409.675 316.438 410.47 317.37 410.909C318.796 411.594 318.96 411.622 319.399 411.21C319.865 410.799 320.03 410.854 321.675 411.978C324.17 413.706 326.226 414.447 328.584 414.474C329.654 414.474 330.696 414.419 330.915 414.364C331.436 414.2 335.851 422.811 336.701 425.664L337.276 427.556L336.563 429.723C336.152 431.012 335.851 432.52 335.851 433.398C335.851 434.769 335.96 435.016 336.783 435.866C338.044 437.127 340.457 437.868 341.91 437.429C343.583 436.935 345.502 434.961 346.544 432.684C347.559 430.49 348.025 428.324 347.997 425.609C347.997 422.071 347.394 415.818 346.818 413.432L346.243 410.991L346.928 410.333C347.833 409.51 347.805 409.208 346.901 407.371C346.297 406.246 345.886 405.78 345.063 405.396C344.46 405.122 343.501 404.546 342.952 404.08C342.376 403.641 341.609 403.038 341.252 402.791C340.594 402.325 338.593 399.088 338.593 398.485C338.593 398.321 338.784 398.183 339.004 398.183C339.552 398.183 339.552 396.867 339.004 396.264C338.757 396.017 338.401 394.975 338.209 393.96C337.989 392.945 337.688 391.958 337.523 391.766C337.359 391.574 337.057 390.751 336.865 389.956C336.399 388.201 335.741 387.625 335.138 388.447C334.644 389.106 334.809 390.395 335.631 391.985L336.207 393.082L335.604 393.466C335.302 393.686 335.028 394.015 335.028 394.179C335.028 394.344 335.522 395.276 336.125 396.236C336.92 397.553 337.139 398.101 336.92 398.375C336.536 398.814 336.81 399.966 337.496 400.898C337.77 401.282 338.154 402.05 338.401 402.599C338.839 403.668 339.443 404.19 342.431 406.109C344.049 407.124 344.597 407.673 345.009 408.55C345.31 409.181 345.475 409.729 345.42 409.784C345.365 409.812 345.063 409.976 344.762 410.141C344.268 410.415 344.213 410.689 344.323 412.609C344.378 413.816 344.515 414.995 344.652 415.242C344.789 415.489 344.899 417.71 344.926 420.179C344.954 423.716 345.063 425.005 345.475 426.349C345.776 427.282 346.133 428.132 346.297 428.242C346.489 428.351 346.352 428.653 345.996 429.037C345.667 429.366 345.063 430.381 344.652 431.258C343.83 433.014 341.938 434.933 341.609 434.385C341.417 434.083 341.636 432.465 342.02 431.587C342.184 431.176 341.526 430.545 340.923 430.545C340.649 430.545 339.415 433.398 339.415 434.083C339.415 434.632 339.36 434.659 339.004 434.385C338.428 433.891 338.483 432.931 339.305 430.408C340.128 427.83 340.073 426.432 339.004 423.552C337.825 420.48 334.534 414.227 333.109 412.445L332.368 411.485H329.791C326.775 411.485 325.87 411.156 322.004 408.605C319.399 406.877 318.768 406.685 318.028 407.371C317.644 407.727 317.48 407.645 316.602 406.576C316.054 405.917 315.341 404.848 315.012 404.135C314.683 403.449 314.189 402.681 313.915 402.434C313.422 401.996 313.339 401.968 312.681 402.407C312.297 402.654 311.996 402.983 311.996 403.147C311.996 404.299 310.734 401.337 310.049 398.65C309.528 396.51 307.883 395.852 307.088 397.498C306.731 398.266 306.704 398.266 306.484 397.717C306.073 396.593 305.113 390.065 305.223 389.133C305.47 387.131 304.072 386.418 303.496 388.201ZM304.044 397.004C304.867 401.228 305.662 402.462 307.334 402.187L308.349 402.023L308.952 403.641C309.61 405.451 310.378 406.576 311.146 406.822C311.639 406.959 311.667 407.179 311.53 409.099C311.393 410.964 311.228 411.485 310.022 413.679C309.281 415.023 307.499 417.93 306.073 420.124C302.728 425.252 301.604 427.145 301.22 428.324C300.891 429.256 300.863 429.256 299.246 429.311C298.341 429.339 296.696 429.503 295.572 429.695C293.57 429.997 291.322 429.887 290.581 429.421C289.951 429.037 290.801 428.461 293.076 427.721C296.613 426.569 296.531 426.623 298.176 423.36C299.931 419.849 300.507 418.368 301.604 414.584C302.783 410.415 302.755 410.251 300.617 408.715C299.63 408.029 298.451 406.905 298.012 406.274C296.943 404.738 294.968 400.652 295.133 400.35C295.215 400.24 296.284 399.582 297.546 398.896C298.78 398.183 300.589 397.141 301.549 396.538C302.536 395.934 303.413 395.441 303.523 395.441C303.633 395.441 303.88 396.154 304.044 397.004Z" fill="black"/>
<path d="M220.799 397.086C221.018 398.54 223.322 403.175 224.391 404.354C225.433 405.533 226.31 405.808 226.694 405.095C226.941 404.656 226.749 404.217 225.652 402.681C224.939 401.639 223.788 399.747 223.102 398.458C222.17 396.702 221.704 396.099 221.238 396.044C220.635 395.934 220.635 396.017 220.799 397.086Z" fill="black"/>
<path d="M282.849 400.871C280.628 402.05 280.244 402.16 278.407 402.187C276.186 402.242 275.802 402.379 275.802 403.12C275.802 404.162 276.543 404.491 278.764 404.491C280.518 404.491 281.067 404.354 281.972 403.806C282.575 403.449 283.973 402.626 285.07 402.023C287.044 400.871 287.346 400.515 286.715 399.884C286.167 399.335 285.372 399.527 282.849 400.871Z" fill="black"/>
<path d="M252.633 400.926C252.249 402.133 253.456 405.012 256.389 409.949C257.815 412.362 258.309 412.774 258.994 412.088C259.46 411.622 259.46 411.567 258.967 410.717C256.883 407.151 254.854 403.038 254.388 401.529C254.114 400.624 253.922 400.377 253.428 400.377C253.044 400.377 252.743 400.597 252.633 400.926Z" fill="black"/>
<path d="M227.901 402.709C227.681 403.367 229.354 406.521 230.451 407.481C230.972 407.947 231.657 408.331 231.986 408.331C232.315 408.331 233.001 408.715 233.494 409.208C234.289 409.976 234.454 410.031 234.783 409.702C235.112 409.345 235.03 409.071 234.152 407.673C232.946 405.67 232.37 405.259 231.849 405.972C231.52 406.438 231.438 406.411 230.78 405.533C230.396 405.04 229.82 404.107 229.491 403.449C228.888 402.27 228.202 401.968 227.901 402.709Z" fill="black"/>
<path d="M268.673 403.806C268.152 404.436 268.646 405.341 269.852 405.862C272.539 407.042 277.502 407.563 278.325 406.74C278.901 406.164 278.325 405.588 277.228 405.588C275.83 405.588 272.32 404.683 270.894 403.97C269.578 403.284 269.139 403.257 268.673 403.806Z" fill="black"/>
<path d="M234.289 404.354C234.043 404.601 233.851 404.957 233.851 405.177C233.851 405.506 234.865 407.563 236.51 410.525C236.976 411.347 237.634 412.883 237.963 413.953C239.143 417.738 239.17 417.792 239.883 417.792C240.431 417.792 240.651 418.094 241.199 419.411C241.994 421.44 243.694 427.693 243.996 429.832C244.16 430.82 244.462 431.67 244.818 432.054L245.394 432.657L243.749 434.248C240.541 437.347 239.636 440.912 241.638 442.695C244.16 444.944 249.288 444.587 253.181 441.872C254.881 440.693 255.43 439.76 255.841 437.319C255.978 436.387 256.334 434.851 256.636 433.891C256.91 432.959 257.157 431.779 257.157 431.313C257.157 430.82 257.404 430.189 257.678 429.887C258.199 429.311 258.199 429.284 257.705 427.446C257.404 426.431 256.91 425.142 256.581 424.594C255.978 423.661 255.978 423.607 256.499 423.799C257.843 424.32 258.473 424.292 258.775 423.744C259.131 423.058 258.857 422.208 257.705 420.535C256.718 419.109 256.718 419.027 257.513 419.027C258.281 419.027 259.076 418.231 259.076 417.463C259.076 416.915 258.747 416.339 256.828 413.679C256.28 412.911 255.786 412.061 255.731 411.759C255.622 411.156 254.443 410.634 253.757 410.881C252.88 411.238 253.538 413.98 254.881 415.516C255.32 416.01 255.155 416.558 254.552 416.558C254.333 416.558 254.031 416.805 253.867 417.107C253.62 417.546 253.784 417.93 254.826 419.356C256.143 421.193 256.28 421.495 255.676 421.495C254.991 421.495 254.415 422.592 254.607 423.524C254.799 424.484 255.649 426.349 256.252 427.007C256.581 427.391 256.554 427.474 256.088 427.611C255.622 427.72 255.567 427.995 255.567 429.887C255.539 431.094 255.402 432.492 255.265 433.014C255.101 433.535 254.963 434.385 254.963 434.851C254.963 435.454 254.826 435.756 254.58 435.756C254.141 435.756 253.044 437.374 253.044 438.005C253.044 438.608 251.152 439.815 249.068 440.583C246.272 441.598 245.641 441.461 246.765 440.034C247.396 439.212 247.286 438.499 246.546 438.499C245.751 438.499 244.846 439.267 244.626 440.172C244.38 441.131 243.913 441.269 243.776 440.418C243.612 439.376 244.297 438.005 245.778 436.305C246.601 435.4 247.368 434.33 247.451 433.946C247.697 432.959 247.396 430.984 246.793 429.777C246.491 429.229 245.86 427.09 245.394 425.088C244.434 421.029 243.173 417.792 241.747 415.79C241.226 415.077 240.459 413.404 240.02 412.061C239.197 409.455 237.388 406.438 235.688 404.82C234.81 403.97 234.728 403.943 234.289 404.354Z" fill="black"/>
<path d="M259.351 404.903C259.351 405.808 260.667 407.234 262.284 408.111C264.862 409.537 269.962 410.031 271.004 408.962C271.854 408.139 271.497 407.782 269.852 407.782C268.125 407.782 264.176 406.932 262.97 406.301C262.559 406.082 261.818 405.533 261.352 405.067C260.228 403.998 259.351 403.943 259.351 404.903Z" fill="black"/>
</svg>
