<svg width="59" height="36" viewBox="0 0 59 36" fill="none" xmlns="http://www.w3.org/2000/svg">
<path d="M10.6169 5.46365C10.8266 5.49747 10.9077 5.52453 11.0903 5.63276C11.7259 5.98451 12.3006 6.47154 12.9294 6.84359C12.9903 6.87741 13.0647 6.89771 13.1323 6.88418C16.7836 4.98335 20.3943 2.99458 24.0388 1.08699C24.3295 0.938173 24.9989 0.539078 25.2829 0.505255C25.9725 0.424081 26.1822 0.829938 26.4661 1.33728C26.8516 2.02725 27.1897 2.81873 27.5954 3.48165C27.6495 3.57636 27.6562 3.63046 27.7847 3.63722C31.4765 2.86607 35.1413 1.93257 38.8264 1.14112C39.0901 1.087 39.3538 1.02614 39.6242 0.98555H39.9353C40.2869 1.04643 40.5303 1.20878 40.6791 1.53347C40.9089 2.27757 41.0036 3.07578 41.2132 3.81988C41.2335 3.89429 41.247 4.00927 41.3214 4.05662L57.0962 9.17058C57.3397 9.26528 57.5425 9.42089 57.6642 9.65765L57.7453 9.93497V10.2191C57.6574 10.5844 57.5357 10.9497 57.4208 11.3082C54.9866 18.9453 52.4578 26.5621 49.956 34.1722C49.7599 34.4834 49.3812 34.666 49.0161 34.6119L33.7822 29.6941C32.3352 29.9241 30.8545 30.4585 29.4142 30.6546H29.0694C28.6907 30.587 28.4473 30.3841 28.3189 30.0188C28.2715 29.8835 28.1701 29.2747 28.1025 29.2409C28.0078 29.1935 27.9267 29.2612 27.8455 29.295C27.0341 29.6873 26.2633 30.1811 25.4452 30.5599L22.9434 34.3345C22.7811 34.5307 22.558 34.6254 22.3146 34.693H22.0576L21.6046 34.5037L0.934367 20.9476C0.704473 20.7717 0.542198 20.5011 0.515151 20.2103C0.515151 20.1561 0.50839 20.0615 0.515151 20.0141C0.535436 19.845 0.643585 19.6488 0.731486 19.5C3.76068 14.9137 6.74932 10.2935 9.78528 5.70716C9.95432 5.55158 10.1166 5.48392 10.3465 5.44333H10.6035L10.6169 5.46365ZM25.3505 1.30346L10.8266 9.00147C10.759 9.06235 10.7049 9.13678 10.7387 9.23148L22.328 31.1079C22.3889 31.162 22.4227 31.2364 22.5106 31.2364C22.612 31.2364 22.9501 31.0402 23.0583 30.9861C24.6676 30.1676 26.2295 29.2611 27.8388 28.4426C27.9402 28.3953 27.9199 28.3006 27.9131 28.2059L26.5135 22.1246C26.4459 22.0773 26.3783 22.1246 26.3106 22.1517C25.7224 22.3952 25.0597 22.9228 24.4918 23.1258C24.1605 23.2408 23.8765 23.0378 23.9305 22.6793C23.9508 22.5576 24.1537 22.2599 24.2213 22.1111C24.3701 21.7729 24.5459 21.1573 24.5053 20.792C24.4715 20.5011 24.2281 20.9611 24.174 21.0355C23.3829 22.0096 22.4092 22.3749 21.1718 22.3478C21.138 22.3005 21.0569 22.3208 21.0028 22.3208C18.1291 22.0975 16.9931 18.2418 19.1636 16.3342C19.3394 16.1786 19.5693 16.0704 19.7316 15.9351C19.7654 15.908 19.7992 15.881 19.7992 15.8336L19.7654 15.7389C18.3252 14.5822 18.1156 12.3973 19.2651 10.9564C20.2387 9.73205 21.8615 9.35322 23.3085 9.9282C23.4505 9.98908 23.8291 10.2732 23.7886 9.93497L22.8284 5.7342C22.7541 5.26069 23.011 4.83454 23.4505 4.6519C24.458 4.39485 25.4857 4.21219 26.4932 3.96191C26.5676 3.94161 26.8448 3.89429 26.8651 3.81988C26.8719 3.77253 26.8516 3.73194 26.8313 3.69135C26.5879 3.11637 26.1281 2.33843 25.8171 1.77021C25.7427 1.64169 25.6074 1.33052 25.4722 1.30346C25.4587 1.25611 25.3708 1.26287 25.3573 1.30346H25.3505ZM39.7121 1.75667L23.6871 5.40952C23.5384 5.50422 23.5993 5.65982 23.6263 5.80864C23.9847 7.75006 24.5256 9.77939 24.9583 11.714C26.3174 17.7209 27.7035 23.721 29.0626 29.7347C29.137 29.9106 29.2046 29.9106 29.3804 29.897L32.6057 29.1597C32.7477 29.0785 32.5786 28.8283 32.5651 28.6862C32.5516 28.5915 32.5584 28.4833 32.5719 28.3886L34.837 21.3873V21.252C33.5861 20.2779 32.2947 19.3512 31.0641 18.35C29.279 16.9092 27.5413 15.7321 27.5413 13.1752C27.5413 11.3555 28.7246 9.42088 30.6787 9.31265C30.8477 9.30589 31.0235 9.31942 31.1925 9.31265C31.9701 9.40059 32.6598 9.69147 33.2548 10.2056L33.3698 10.2258C33.4239 10.2123 33.6267 9.76586 33.6808 9.67792C34.242 8.75795 35.1954 8.08825 36.2975 8.06119C36.4193 8.06119 36.5477 8.06119 36.6694 8.06119C37.2644 8.12884 37.7242 8.25063 38.2314 8.5618C38.3733 8.64298 38.6168 8.87295 38.7249 8.9203C38.7587 8.93383 38.7993 8.95414 38.8399 8.94061L38.894 8.87971L40.3274 4.55041L40.5168 4.25278L39.9961 1.92578C39.9623 1.84461 39.9218 1.77697 39.8338 1.76344C39.8203 1.71609 39.7324 1.72286 39.7189 1.76344L39.7121 1.75667ZM41.1591 4.84132C41.105 4.84809 41.0104 4.936 40.9833 4.98335L33.363 28.4359C33.3224 28.6523 33.363 28.7132 33.5591 28.8012L49.1581 33.8542L49.3069 33.7731L56.8258 10.6791C56.846 10.4491 57.1368 10.077 56.8528 9.92143C56.6364 9.80644 56.1293 9.67792 55.8724 9.58998C51.3962 8.10179 46.8997 6.64744 42.4033 5.21336C42.2274 5.15925 41.2538 4.8278 41.1659 4.84132H41.1591ZM13.2337 15.9283C13.3419 15.881 13.3419 15.8607 13.2946 15.7389C12.3074 13.7975 11.1917 11.9237 10.2248 9.97556C10.0084 9.53587 9.78529 9.12325 10.0896 8.64297C10.3803 8.18975 11.6177 7.78385 12.0977 7.4321C12.1383 7.40504 12.1857 7.37799 12.1721 7.31034L10.5358 6.23481C10.502 6.23481 10.4682 6.23478 10.4344 6.24831C10.3195 6.28213 10.0084 6.80301 9.92052 6.93153C7.66215 10.2867 5.4714 13.7028 3.26036 17.0851C2.6721 17.9847 1.97562 18.9453 1.44821 19.8585C1.34003 20.0479 1.21835 20.1764 1.43472 20.3523C7.49988 24.2893 13.5244 28.2938 19.5761 32.2511C20.3063 32.7313 21.0569 33.2522 21.8007 33.7054C22.0982 33.8881 22.1928 34.0504 22.4498 33.7054C22.9298 33.0561 23.3152 32.2917 23.8021 31.6355L23.8359 31.5138C23.7751 31.4935 23.748 31.5002 23.6871 31.5138C23.4572 31.5949 23.18 31.8181 22.9434 31.9128C22.4836 32.0955 22.0306 31.994 21.7263 31.6084L17.3651 23.4302C17.3312 23.3963 17.2907 23.3625 17.2366 23.3625C16.9999 23.3625 16.5469 23.4369 16.3035 23.4775C15.7625 23.5655 15.2081 23.7007 14.6739 23.8428C14.275 23.951 13.822 24.1404 13.4298 24.2081H13.2608C13.1458 24.1742 13.0917 24.1269 13.0173 24.0322C12.9024 23.5452 12.9024 23.0378 12.828 22.544C12.4899 20.2779 11.6177 18.1539 10.4412 16.2125C10.4006 15.5292 11.1241 15.8066 11.5501 15.8269C11.5906 15.8742 11.6853 15.8539 11.7529 15.8539C11.8003 15.8539 11.8476 15.8539 11.8949 15.8539C11.9287 15.9013 12.0098 15.881 12.0639 15.881C12.1316 15.881 12.1992 15.881 12.2668 15.881C12.3073 15.9283 12.402 15.908 12.4697 15.908C12.5914 15.908 12.7198 15.908 12.8415 15.908C12.943 15.9622 13.1323 15.9486 13.2405 15.908L13.2337 15.9283ZM36.2908 8.82559C35.2698 8.89323 34.4719 9.64409 34.1 10.5573C34.0121 10.7805 33.931 11.3217 33.7484 11.4299C33.3427 11.6735 33.1669 11.2 32.9438 10.97C32.4569 10.4762 31.7876 10.1582 31.1046 10.077C30.9288 10.0567 30.9153 10.0567 30.7327 10.077C28.4743 10.3679 27.8658 13.0128 28.6772 14.8596C29.137 15.9081 30.9356 17.2339 31.8619 17.978C32.7342 18.6747 33.6267 19.3782 34.526 20.0411C34.6071 20.102 34.9587 20.3658 35.0128 20.3861C35.121 20.4267 35.1548 20.3794 35.1954 20.2847C35.2968 20.075 35.3982 19.6894 35.4726 19.4526C36.5139 16.3004 37.4876 13.1278 38.5424 9.97556C38.5762 9.78615 38.326 9.59 38.184 9.48176C37.7445 9.12325 37.1766 8.85941 36.6018 8.82559C36.5342 8.77823 36.3584 8.77823 36.2908 8.82559ZM11.7259 16.6657C11.7259 16.6657 11.6853 16.6657 11.6718 16.6657C11.6718 16.7265 11.6718 16.7807 11.6853 16.8348C11.7394 17.0309 12.0166 17.4368 12.118 17.6533C12.8551 19.2023 13.3284 20.7988 13.6056 22.4967C13.6259 22.6387 13.6664 23.1663 13.7205 23.234C13.7408 23.261 13.7611 23.2746 13.7949 23.2746C14.7821 23.004 15.7828 22.774 16.8038 22.6387L16.885 22.5237L13.8625 16.7942C13.8355 16.7468 13.7882 16.7266 13.7341 16.7198C13.5448 16.6927 13.2405 16.7198 13.0376 16.7198C12.9091 16.6657 12.7266 16.6927 12.5846 16.6927C12.517 16.6927 12.4494 16.6927 12.3818 16.6927C12.3074 16.6386 12.1654 16.6657 12.0707 16.6657C12.0301 16.6657 11.9963 16.6657 11.9558 16.6657C11.9084 16.6183 11.7732 16.6183 11.7259 16.6657Z" fill="#6F7A58" stroke="#6F7A58" stroke-width="0.99" stroke-linecap="round" stroke-linejoin="round"/>
<path d="M0.522027 20.2306H0.494995V20.0344H0.522027C0.515265 20.0885 0.522027 20.1764 0.522027 20.2306Z" fill="#6F7A58" stroke="#6F7A58" stroke-width="0.99" stroke-linecap="round" stroke-linejoin="round"/>
<path d="M39.9422 0.985498H39.6312C39.7934 0.965204 39.7799 0.95844 39.9422 0.985498Z" fill="#6F7A58" stroke="#6F7A58" stroke-width="0.99" stroke-linecap="round" stroke-linejoin="round"/>
<path d="M10.6171 5.46365H10.3602C10.5089 5.43659 10.4751 5.44335 10.6171 5.46365Z" fill="#6F7A58" stroke="#6F7A58" stroke-width="0.99" stroke-linecap="round" stroke-linejoin="round"/>
<path d="M31.1927 9.31262C31.0236 9.31939 30.8478 9.30586 30.6788 9.31262C30.787 9.27203 30.9763 9.27204 31.098 9.27881C31.1453 9.27881 31.1859 9.30586 31.1927 9.31262Z" fill="#6F7A58" stroke="#6F7A58" stroke-width="0.99" stroke-linecap="round" stroke-linejoin="round"/>
<path d="M13.0377 16.7265C12.8957 16.7265 12.7064 16.7536 12.5847 16.6995C12.7267 16.6995 12.916 16.6724 13.0377 16.7265Z" fill="#6F7A58" stroke="#6F7A58" stroke-width="0.99" stroke-linecap="round" stroke-linejoin="round"/>
<path d="M13.2339 15.9283C13.1257 15.9689 12.9363 15.9824 12.8349 15.9283H13.2339Z" fill="#6F7A58" stroke="#6F7A58" stroke-width="0.99" stroke-linecap="round" stroke-linejoin="round"/>
<path d="M36.6628 8.05443C36.5411 8.05443 36.4126 8.05443 36.2909 8.05443C36.345 8.00708 36.487 8.02058 36.5681 8.02058C36.6154 8.02058 36.656 8.04767 36.6628 8.05443Z" fill="#6F7A58" stroke="#6F7A58" stroke-width="0.99" stroke-linecap="round" stroke-linejoin="round"/>
<path d="M31.1048 10.0838H30.7328C30.9154 10.0635 30.9222 10.0635 31.1048 10.0838Z" fill="#6F7A58" stroke="#6F7A58" stroke-width="0.99" stroke-linecap="round" stroke-linejoin="round"/>
<path d="M29.4211 30.6614C29.2521 30.6817 29.2521 30.6952 29.0763 30.6614H29.4211Z" fill="#6F7A58" stroke="#6F7A58" stroke-width="0.99" stroke-linecap="round" stroke-linejoin="round"/>
<path d="M12.3819 16.6927C12.2805 16.6927 12.1452 16.7198 12.0709 16.6656C12.1723 16.6656 12.3075 16.6386 12.3819 16.6927Z" fill="#6F7A58" stroke="#6F7A58" stroke-width="0.99" stroke-linecap="round" stroke-linejoin="round"/>
<path d="M36.6019 8.82555C36.5073 8.82555 36.3856 8.82555 36.2909 8.82555C36.3653 8.7782 36.5411 8.7782 36.6019 8.82555Z" fill="#6F7A58" stroke="#6F7A58" stroke-width="0.99" stroke-linecap="round" stroke-linejoin="round"/>
<path d="M11.9559 16.6656C11.8815 16.6656 11.8004 16.6656 11.726 16.6656C11.7666 16.6183 11.9086 16.6183 11.9559 16.6656Z" fill="#6F7A58" stroke="#6F7A58" stroke-width="0.99" stroke-linecap="round" stroke-linejoin="round"/>
<path d="M12.463 15.9283C12.4022 15.9283 12.3008 15.9486 12.2602 15.9012C12.321 15.9012 12.4225 15.8809 12.463 15.9283Z" fill="#6F7A58" stroke="#6F7A58" stroke-width="0.99" stroke-linecap="round" stroke-linejoin="round"/>
<path d="M11.7531 15.8675C11.6922 15.8675 11.5907 15.8877 11.5502 15.8404C11.611 15.8404 11.7125 15.8201 11.7531 15.8675Z" fill="#6F7A58" stroke="#6F7A58" stroke-width="0.99" stroke-linecap="round" stroke-linejoin="round"/>
<path d="M21.1584 22.3411C21.0976 22.3411 21.0367 22.3546 20.9894 22.314C21.0435 22.314 21.1314 22.2937 21.1584 22.3411Z" fill="#6F7A58" stroke="#6F7A58" stroke-width="0.99" stroke-linecap="round" stroke-linejoin="round"/>
<path d="M13.4367 24.2216C13.342 24.2419 13.3893 24.2621 13.2676 24.2216H13.4367Z" fill="#6F7A58" stroke="#6F7A58" stroke-width="0.99" stroke-linecap="round" stroke-linejoin="round"/>
<path d="M12.0641 15.8945C12.01 15.8945 11.9221 15.9148 11.895 15.8674C11.9491 15.8674 12.037 15.8471 12.0641 15.8945Z" fill="#6F7A58" stroke="#6F7A58" stroke-width="0.99" stroke-linecap="round" stroke-linejoin="round"/>
<path d="M39.8262 1.75636C39.7927 1.75636 39.7458 1.75636 39.7123 1.75636C39.719 1.71614 39.8128 1.70944 39.8262 1.75636Z" fill="#6F7A58" stroke="#6F7A58" stroke-width="0.99" stroke-linecap="round" stroke-linejoin="round"/>
<path d="M25.4578 1.30311C25.4578 1.30311 25.3774 1.30311 25.3439 1.30311C25.3506 1.26289 25.4444 1.25619 25.4578 1.30311Z" fill="#6F7A58" stroke="#6F7A58" stroke-width="0.99" stroke-linecap="round" stroke-linejoin="round"/>
<path d="M47.0284 12.5393C47.3056 12.4919 47.3935 12.6137 47.522 12.8302C47.9277 13.466 48.3334 14.3454 48.685 15.0354C49.3206 16.28 49.9967 17.6059 50.5241 18.8911C50.9163 19.8517 51.2544 20.5958 50.9839 21.6646C50.3686 24.1337 47.6301 25.1416 45.4935 23.7819C45.365 23.7007 45.0404 23.3692 45.1013 23.7481C45.1554 24.093 45.4124 24.6613 45.5949 24.9657C45.6828 25.101 46.0344 25.5204 46.0547 25.6151C46.1223 25.9262 45.9803 26.0886 45.6761 26.1359C44.2155 25.6557 42.7348 25.216 41.2742 24.7221C41.0308 24.641 40.4358 24.5192 40.3682 24.2622C40.2329 23.7548 40.8144 23.7413 41.1322 23.6263C41.4027 23.5248 41.7002 23.3693 41.9436 23.2137C42.0315 23.1528 42.417 22.8822 42.4508 22.8078C42.5454 22.6049 42.2885 22.686 42.2006 22.686C39.7394 22.6184 38.0287 20.4402 38.7522 18.0253C39.1173 16.8145 39.8746 16.368 40.8888 15.7457C42.5184 14.7445 44.3778 13.811 46.102 12.979C46.3049 12.8843 46.839 12.5866 47.0148 12.5528L47.0284 12.5393Z" fill="#6F7A58" stroke="#6F7A58" stroke-width="0.99" stroke-linecap="round" stroke-linejoin="round"/>
<path d="M42.3358 9.40058C42.2479 9.58998 42.4034 9.7726 42.3899 9.96877L41.7204 9.7388V9.6779C41.8151 9.65761 42.0924 9.40055 42.0788 9.32614C42.0653 9.25173 41.7746 9.29235 41.6934 9.27882C41.2133 9.21794 40.9902 8.56854 41.3351 8.21002C41.4974 8.04091 42.5048 7.49976 42.7415 7.41858C42.8632 7.378 42.87 7.39151 42.9376 7.49298C43.066 7.68239 43.5596 8.70384 43.5867 8.90001C43.6678 9.46146 43.066 9.87407 42.5927 9.54938C42.5048 9.4885 42.4642 9.35998 42.3358 9.39381V9.40058Z" fill="#6F7A58" stroke="#6F7A58" stroke-width="0.99" stroke-linecap="round" stroke-linejoin="round"/>
<path d="M47.0959 31.2025C46.9674 31.2025 46.8863 31.2025 46.7646 31.1484C46.4062 30.9793 46.2845 30.4246 46.5617 30.1337C46.724 29.9646 47.6369 29.4776 47.887 29.3761C47.9479 29.349 48.0425 29.295 48.1034 29.3152C48.2995 29.6535 48.5023 30.0255 48.6578 30.384C48.7998 30.7155 48.9283 30.9184 48.7255 31.2702C48.6308 31.4325 48.5294 31.4934 48.3468 31.534H48.0358C47.8059 31.4866 47.8397 31.4122 47.7045 31.3378C47.3867 31.1552 47.6774 31.8384 47.6368 31.879C47.461 31.791 47.177 31.7775 47.0215 31.6828C46.9945 31.6693 46.9472 31.649 46.9539 31.6084C47.0351 31.5407 47.4002 31.3243 47.2649 31.1958C47.2244 31.1552 47.1365 31.1416 47.0959 31.1958V31.2025Z" fill="#6F7A58" stroke="#6F7A58" stroke-width="0.99" stroke-linecap="round" stroke-linejoin="round"/>
<path d="M48.3469 31.5475C48.1914 31.5814 48.1913 31.5814 48.0358 31.5475H48.3469Z" fill="#6F7A58" stroke="#6F7A58" stroke-width="0.99" stroke-linecap="round" stroke-linejoin="round"/>
<path d="M47.265 31.2025C47.2109 31.2025 47.15 31.2025 47.0959 31.2025C47.1365 31.1484 47.2244 31.1619 47.265 31.2025Z" fill="#6F7A58" stroke="#6F7A58" stroke-width="0.99" stroke-linecap="round" stroke-linejoin="round"/>
<path d="M26.9734 6.60683C27.0207 6.60006 27.1222 6.60683 27.1763 6.60683C27.4603 6.64065 27.6631 6.87062 27.751 7.13444C27.8389 7.39825 27.8051 7.53356 27.7172 7.78384C27.5414 8.28442 27.2236 8.75118 27.014 9.23823C27.0005 9.25852 26.9599 9.27881 26.9396 9.27881C26.8923 9.27881 26.3311 8.85262 26.25 8.78498C25.9998 8.58881 25.4656 8.19647 25.3642 7.9056C25.1951 7.43209 25.4182 6.78947 26.0065 6.86388C26.1891 6.89094 26.2973 7.0262 26.4596 7.08708C26.5475 7.07355 26.6556 6.65418 26.9937 6.60683H26.9734Z" fill="#6F7A58" stroke="#6F7A58" stroke-width="0.99" stroke-linecap="round" stroke-linejoin="round"/>
<path d="M27.1695 6.6068C27.1222 6.6068 27.0208 6.60004 26.9667 6.6068C27.0005 6.55945 27.1289 6.55945 27.1695 6.6068Z" fill="#6F7A58" stroke="#6F7A58" stroke-width="0.99" stroke-linecap="round" stroke-linejoin="round"/>
<path d="M15.6275 11.5043C15.6681 11.5584 15.1136 11.8087 15.073 11.8425C15.046 11.8222 15.0325 11.8087 15.0325 11.7749C15.0257 11.6937 15.1339 11.3216 14.9851 11.2743C14.877 11.2405 14.8702 11.4163 14.8296 11.484C14.4645 12.059 13.5517 11.6734 13.7613 10.9834C13.8357 10.7264 13.9912 10.7264 14.1264 10.5437C14.1264 10.4287 14.0115 10.4084 13.9506 10.3205C13.572 9.78611 14.2143 9.10291 14.7823 9.48849C15.019 9.65083 15.0054 9.98905 15.0663 10.0296C15.1339 10.0702 15.2827 9.9755 15.3706 9.96197C16.0197 9.87403 16.3172 10.6926 15.7762 11.0511C15.5869 11.1728 15.4584 11.1052 15.2759 11.0984C14.9581 11.0849 15.5193 11.5246 15.6343 11.4975L15.6275 11.5043Z" fill="#6F7A58" stroke="#6F7A58" stroke-width="0.99" stroke-linecap="round" stroke-linejoin="round"/>
<path d="M4.28824 19.0332C4.86974 19.0332 5.41069 18.9587 5.96514 18.8032C6.026 19.3037 6.13417 19.784 6.33026 20.244C6.37759 20.359 6.58044 20.6769 6.59397 20.7513C6.60073 20.7987 6.5534 20.8122 6.51283 20.8122C6.43169 20.8122 6.31671 20.7919 6.22205 20.7919C6.16119 20.7446 5.99893 20.7446 5.93807 20.7919C5.7217 20.7919 5.51885 20.7919 5.30248 20.8257C5.17401 20.846 4.54517 21.0355 4.49108 20.9881C4.44375 20.4943 4.31528 20.0073 4.1192 19.5473C4.05834 19.3985 3.89605 19.1752 3.85549 19.0399C3.8352 18.9723 3.97719 18.9994 4.02453 18.9994C4.07862 19.0535 4.20033 19.0264 4.28147 19.0264L4.28824 19.0332Z" fill="#6F7A58" stroke="#6F7A58" stroke-width="0.99" stroke-linecap="round" stroke-linejoin="round"/>
<path d="M6.22203 20.7988C6.12736 20.7988 6.03271 20.7988 5.93805 20.7988C5.9989 20.7514 6.16793 20.7514 6.22203 20.7988Z" fill="#6F7A58" stroke="#6F7A58" stroke-width="0.99" stroke-linecap="round" stroke-linejoin="round"/>
<path d="M4.28826 19.0332C4.20712 19.0332 4.0854 19.0535 4.03131 19.0061C4.11245 19.0061 4.23416 18.9859 4.28826 19.0332Z" fill="#6F7A58" stroke="#6F7A58" stroke-width="0.99" stroke-linecap="round" stroke-linejoin="round"/>
</svg>
