<svg width="65" height="96" viewBox="0 0 65 96" fill="none" xmlns="http://www.w3.org/2000/svg">
<path d="M21.9644 0.438489C22.005 0.512898 22.1943 0.512898 22.2417 0.438489H22.289C22.3363 0.512898 22.4648 0.485845 22.5392 0.485845C27.2926 0.533197 32.0325 0.627892 36.7859 0.688772C37.3133 1.08111 37.6514 1.70348 38.1247 2.1567L38.172 2.29196L35.6296 16.4636C34.9738 20.1029 34.3652 23.7625 33.662 27.3815C33.6147 27.6183 33.6823 28.0783 33.4254 28.173C33.4727 28.3218 33.6214 28.315 33.5471 28.4977C32.8033 30.1415 32.073 31.7987 31.2481 33.3952C31.2684 33.774 31.2954 34.1663 31.3022 34.5451C31.3428 36.9871 31.3631 39.4494 31.3969 41.8982L31.5253 52.6063L31.5794 52.6402L33.5065 52.5928L36.1638 47.0527C36.3396 46.7077 37.178 47.4518 37.2524 47.3909C37.3944 47.0865 37.6649 46.8295 37.8001 46.498L37.4553 46.3424L37.435 46.1395C39.7069 38.1574 40.7414 29.8979 42.2425 21.7534C42.8645 18.378 43.588 14.8266 44.9606 11.6811C46.4482 8.27178 49.6735 4.09134 53.8657 6.20863C53.9806 6.26951 54.1564 6.44536 54.2781 6.47919C54.907 6.66859 55.2518 6.20186 55.7522 5.9448C57.2938 5.14659 58.6664 5.32248 59.9579 6.45891C60.3298 6.78361 60.6746 7.38564 60.8572 7.83886C61.1952 8.66413 61.3034 9.63147 61.3034 10.5176C61.6348 10.477 62.0878 10.6664 62.3853 10.8288C63.1561 11.2617 63.7647 12.4523 63.9337 13.3046C63.981 13.5413 63.9675 13.8119 64.0486 14.0352V15.4963C63.9743 15.7939 63.954 16.1186 63.8999 16.4162C62.649 23.3431 56.1984 26.9824 51.56 31.5349C50.8365 32.2452 49.8696 33.1517 49.2272 33.9093C47.7599 35.6342 46.34 37.8124 44.9742 39.6658C43.277 41.9725 41.6339 44.3334 39.9233 46.6265C39.6866 46.9445 39.2065 47.6683 38.9496 47.8915C38.7805 48.0403 38.7129 48.0133 38.5168 47.9321C38.598 47.8036 38.5304 47.648 38.5844 47.5262C38.6385 47.4045 38.9766 47.0662 39.0848 46.931C40.356 45.2331 41.5934 43.4066 42.8848 41.6614C43.0742 41.4043 43.3581 40.8767 43.5678 40.6738C43.6895 40.552 43.7909 40.6467 43.7436 40.4438C44.2642 39.7335 44.8186 39.0503 45.3393 38.3333C45.5759 38.0086 45.7653 37.6433 46.0493 37.3524C46.0493 37.2036 46.0087 37.3321 45.9749 37.3592C45.8599 37.4606 45.8329 37.5621 45.7653 37.6365C44.0614 39.5238 42.371 41.472 40.8293 43.5013C40.2208 44.2996 39.7677 44.9354 39.3147 45.8283C38.9563 46.5454 38.5574 47.2421 38.1923 47.9524L38.2396 48.0403C38.5777 48.3109 39.4364 48.5544 39.3282 49.0821C38.7062 50.2726 38.0435 51.4496 37.3268 52.5861H42.1411C42.1411 52.5861 42.3236 52.6808 42.3439 52.7011C42.5873 52.9243 42.5197 53.2761 42.6144 53.5263C42.6752 53.6752 42.851 53.7225 42.851 53.8916C42.851 54.0337 42.5197 54.2975 42.425 54.4733C42.114 55.0822 42.2019 55.8263 42.398 56.4621C43.0133 56.4215 43.6286 56.4012 44.2439 56.3742C47.361 56.2389 50.397 56.0968 53.5141 56.4689C53.8657 56.5095 54.6433 56.6109 54.8799 56.8815C55.0557 57.0844 55.1504 57.7271 55.1774 57.9977C55.7522 63.3822 52.7297 70.3699 50.4849 75.1863C49.0311 78.3047 47.4422 81.2879 45.3731 84.0478V86.9159C45.2717 90.2373 45.4002 93.4707 41.8233 94.8913C41.7421 94.9251 41.6948 94.9386 41.661 95.0266C41.6136 95.0266 41.5663 95.0266 41.5258 95.0266C40.6603 94.9995 39.7339 94.8777 38.8549 94.8439C32.756 94.5868 26.6773 94.3231 20.5918 94.0187C18.9488 93.9375 17.9007 94.2148 16.5687 93.0648C13.9249 90.7717 15.2772 86.5845 15.7167 83.6216L18.8676 58.2682C18.5633 57.4227 18.0427 56.6921 17.5018 55.9886C17.0758 55.4407 16.3185 54.5072 15.737 54.1419C15.4124 53.939 14.8242 53.824 14.7295 53.3707C14.5402 52.4508 15.7167 52.7958 16.2509 52.6267L20.6121 52.559C19.4694 48.6018 18.1441 44.6919 17.1164 40.7008C16.9473 40.092 17.1164 39.4359 17.5626 38.9962C17.61 38.8676 17.4274 38.5565 17.3801 38.4212C16.8594 37.0548 16.1968 35.668 15.6356 34.2745C14.5875 31.6905 13.7018 28.9847 12.9174 26.3059C12.6469 25.3792 12.2751 24.3307 12.1669 23.3566C12.1466 23.1808 12.2007 22.9237 12.1669 22.7749C12.1601 22.7411 12.0857 22.7478 12.079 22.714C11.9843 22.3217 12.5252 21.6046 12.9242 21.5979C13.8302 21.5843 14.574 22.8628 15.0676 23.5257C15.5612 24.1887 16.2306 25.528 17.1367 25.5619C17.8466 25.5822 18.4619 25.0951 18.658 24.439C18.4822 24.4254 18.09 24.3172 17.9548 24.2157C17.7858 24.0804 18.1036 24.0331 18.2253 24.0263C18.4281 24.0195 18.6648 24.1075 18.8676 23.9857L18.9826 23.4852C18.7256 23.4513 18.4484 23.5867 18.2794 23.3431C17.9278 22.8358 18.6512 22.687 19.0299 22.6599V21.909C18.8947 21.7873 18.6512 22.0037 18.4687 21.9226C18.2523 21.6587 18.1847 21.5843 18.374 21.2935C18.5228 21.0702 18.6986 20.962 18.8744 20.7929L18.5295 19.325C18.3537 19.3656 18.2726 19.555 18.0968 19.6429C17.9616 19.7173 17.8263 19.7579 17.6641 19.7309C17.7046 19.5753 17.5221 19.5009 17.5221 19.4806C17.5221 19.21 18.1982 18.75 18.2117 18.6147C18.232 18.4253 18.0562 18.3712 18.063 18.1953C17.8737 17.9991 17.7587 17.6677 17.5762 17.4377C17.5288 17.3768 17.2719 17.086 17.211 17.1265C17.1637 17.3971 16.1765 18.3441 15.9534 18.0397C15.9466 18.0262 15.8452 17.7556 15.8384 17.7353C15.8114 17.5324 16.2238 16.9371 16.3658 16.7612C16.4537 16.653 16.5619 16.5651 16.6566 16.4636C16.19 16.0983 15.6626 15.8345 15.0879 15.6722C15.0405 15.6789 14.7836 16.0171 14.7228 16.078C14.4388 16.3486 14.1751 16.3216 14.3238 16.8221L14.263 16.9033C13.9587 17.0927 13.979 16.7477 13.8505 16.6868L13.4583 16.7816C13.4921 16.6327 13.6882 16.5583 13.7491 16.4366C13.8167 16.308 13.8505 16.0645 13.9114 15.9157C13.9452 15.8413 14.1818 15.476 14.1413 15.4354L12.3156 15.3475C12.3697 15.6248 12.2751 16.4027 11.9235 16.4433C11.4163 16.5042 11.4434 15.821 11.4028 15.4827C10.4697 15.706 9.49603 15.9901 8.64407 16.4433C8.44798 16.5448 7.52165 17.1198 7.45403 17.2686C7.38641 17.4242 7.45403 17.715 7.3188 17.8639C7.09567 18.1074 6.81845 17.8977 6.65617 17.9721C6.50065 18.0465 6.30456 18.405 6.1558 18.52C6.13552 18.6215 6.89958 19.0138 7.02805 19.1085C7.08214 19.1491 7.143 19.1085 7.11595 19.2235C6.90634 19.2032 6.04086 18.8312 5.91239 18.865C5.85829 18.8785 5.83124 18.9394 5.79067 18.9732C5.91238 19.1288 6.15581 19.1424 6.30456 19.2303C6.3857 19.2777 6.53445 19.4535 6.5953 19.4941C6.89281 19.6835 7.23089 19.8458 7.48107 20.0961C7.20385 20.042 6.87929 19.8053 6.61559 19.7512C6.45331 19.7174 6.29103 19.7512 6.14228 19.7241C6.00705 19.697 5.60135 19.3926 5.47964 19.467L5.24975 19.9338C5.25651 19.9744 5.64192 20.1976 5.65544 20.2652C5.79067 20.8876 5.37146 20.9688 4.86434 20.9552C4.81024 21.0905 4.76291 21.2799 4.81024 21.422C4.84405 21.5167 4.96576 21.5776 4.97252 21.6723C4.98605 21.8143 4.77643 21.882 4.83053 22.0579C5.24974 22.0105 5.53373 22.1729 5.37146 22.6193C5.29032 22.8358 4.63445 22.8764 4.57359 23.0455C4.56007 23.0793 4.61416 23.4107 4.62092 23.4852C4.62092 23.5393 4.68853 23.5934 4.6953 23.6408C4.71558 23.8031 4.59387 24.0872 4.72911 24.2969L4.7832 24.3375C5.03338 24.2901 5.29708 24.3375 5.4864 24.5134C5.43907 24.669 5.45936 24.8719 5.40527 25.0207C5.35117 25.1695 5.10775 25.244 5.07394 25.3319C5.04014 25.4266 5.26328 25.4063 5.32413 25.5348C5.39175 25.6904 5.2768 25.7783 5.38498 25.9745C5.60811 26.3736 5.79067 25.9745 6.08818 25.8325C6.52769 25.6295 6.89282 25.6701 6.7373 26.2519C6.68321 26.4548 6.33161 26.7795 6.35865 26.8742C6.43303 27.1448 6.9672 26.5021 7.04157 26.4616C7.21737 26.3804 7.3729 26.4886 7.35261 26.678C7.33909 26.7863 7.04834 27.2192 7.08891 27.2598C7.44051 27.2327 7.54193 26.6172 7.94763 26.8539C7.96115 26.996 7.99496 27.1786 7.86649 27.28C8.14371 27.3139 8.42094 27.0636 8.54265 26.8201C8.84692 26.2383 8.63731 25.4266 8.43446 24.8381C8.33304 24.5472 8.17752 24.2901 8.05581 24.0804C7.96791 23.9249 7.8462 23.5799 7.86649 23.3972C7.86649 23.3296 7.84621 23.3161 7.93411 23.3364C8.19781 23.3905 8.4818 23.8504 8.61027 24.0804C9.18501 25.0951 9.66507 26.9892 8.40065 27.6792C7.94762 27.9227 7.73801 27.7671 7.40669 27.8686C7.3526 27.8821 7.06861 28.1392 7.06861 28.2068C6.99424 28.6939 8.29247 29.3906 8.23161 29.695C8.20456 29.8303 8.09638 29.9723 7.94763 29.9453C7.47431 29.5597 6.97395 29.147 6.61559 28.6329C6.07466 29.0997 5.16185 29.8303 4.43159 29.3567C4.12056 29.1538 4.16789 28.9238 4.17465 28.5856H3.28212C3.0928 28.5856 2.90347 28.3827 2.775 28.3218C2.61949 28.2474 2.17998 28.0918 2.08532 27.9836C2.01094 27.8889 1.84867 27.4965 1.84867 27.3747C1.84867 27.2327 1.92304 27.0974 1.88923 26.9554C1.13193 26.7592 0.726234 26.2721 0.902036 25.4807C0.935844 25.3183 1.06432 25.1357 1.10489 25.0004C1.20631 24.6622 1.23335 24.2699 1.48353 24.006C0.672142 23.5799 0.0635994 22.6396 0.672144 21.7738C0.787091 21.6114 1.19955 21.3137 1.23336 21.2393C1.3145 21.0838 1.3483 20.6982 1.46325 20.4682C1.50382 20.387 1.61877 20.3397 1.64582 20.2382C1.67962 20.1164 1.58496 19.8256 1.64582 19.5956C1.72696 19.2641 2.08532 19.0544 2.23407 18.8177C2.30845 18.7027 2.3355 18.5403 2.4234 18.4118C2.73443 17.9789 3.32945 17.9586 3.81629 17.9044C3.23479 17.0048 3.20775 15.7195 4.44512 15.4489C4.76968 15.3745 5.08071 15.361 5.41202 15.4354C5.55402 14.3328 6.84549 13.9066 7.78535 14.2043C7.97468 13.1017 9.42166 12.5402 10.3953 12.892C10.9565 13.0949 11.6462 13.6834 11.937 14.2043L12.8566 13.3655C13.837 12.8379 15.2434 12.6552 15.453 14.069C16.1765 13.5684 17.5153 13.2572 17.8466 14.3463C17.9818 14.786 18.0021 15.2731 17.8737 15.7127C18.4146 15.5166 19.0164 15.4219 19.5505 15.6857C19.6249 15.8616 19.7466 15.9225 19.8075 16.1389C19.9765 16.741 19.8142 17.4039 19.5641 17.9586C20.0306 17.9045 20.4228 17.7421 20.8961 17.8842C21.7413 18.1345 21.552 19.3047 21.2139 19.9135L20.7947 20.5223C21.5317 20.5426 22.0253 20.8741 21.9306 21.6858C21.863 22.2337 21.4235 22.5314 21.0246 22.8358C21.4167 22.9981 21.8224 23.1266 21.7886 23.6543C21.7548 24.1819 20.9029 24.3848 20.4972 24.4525L19.2463 24.5675C19.1854 24.669 19.1651 24.7772 19.1043 24.8786C18.6039 25.6904 17.61 26.5562 16.5822 26.3668C15.3922 26.1571 14.5267 24.094 13.8573 23.2011C13.3434 22.5246 12.5252 21.7535 12.7281 23.2822C12.9309 24.811 13.6679 26.8133 14.1277 28.2812C15.1352 31.4876 16.2509 34.2813 17.5897 37.3389C17.752 37.7109 17.8872 38.1032 18.0224 38.4821C18.7189 37.7312 20.1253 37.535 19.7466 38.9962C19.6114 39.517 19.2665 39.9703 19.0705 40.4641C19.2057 40.5317 19.2395 40.6535 19.3004 40.7888C19.679 41.5937 19.9833 42.5746 20.3281 43.4134C21.5858 46.4574 22.9178 49.4676 24.0741 52.5523C24.1484 52.6402 24.5271 52.5861 24.6691 52.5996C25.92 52.6943 27.1844 52.6266 28.4353 52.6469L28.0228 38.2791C27.9755 36.6827 27.9484 35.066 27.9349 33.4831C26.8936 31.704 25.7712 29.9926 24.9463 28.0715C23.5534 19.4535 21.8292 10.8626 20.531 2.24464C20.4972 2.02141 20.3755 2.00785 20.5445 1.74403C20.7 1.50051 21.1328 1.00673 21.3491 0.837613C21.3897 0.810555 21.4506 0.803785 21.4979 0.790256C21.41 0.573792 21.552 0.614394 21.6331 0.424988H21.9982L21.9644 0.438489ZM30.0446 28.173C31.0926 28.173 32.1474 28.173 33.1955 28.2203L33.067 28.0647L37.6649 2.47461L37.1983 1.89287C37.0699 1.63582 36.8062 1.40584 36.5965 1.18938L21.694 0.993183C21.5182 1.37876 21.2409 1.717 20.957 2.0214L25.3858 28.0309L28.5367 28.1256C28.5705 28.2068 29.8485 28.173 30.0446 28.173ZM59.5725 6.81068C58.7881 6.10041 57.8415 5.78922 56.7934 6.07333C56.4148 6.1748 56.1105 6.37772 55.7522 6.51977C55.6845 6.58742 55.7522 6.60095 55.8198 6.60771C57.9362 6.87829 59.9984 7.7036 60.776 9.85471C60.8572 9.86147 60.8234 9.69913 60.8234 9.64501C60.7625 8.69798 60.2757 7.44654 59.5725 6.81068ZM41.2823 30.9599C41.4919 29.9858 41.7421 29.0185 41.945 28.0377C43.2094 21.997 44.1898 14.6034 48.1318 9.69232C49.4639 8.03502 51.3368 6.75653 53.5208 6.60771C53.345 6.4386 52.9461 6.31011 52.7027 6.26276C47.8749 5.29543 45.3055 11.6337 44.2169 15.2798C42.7428 20.2382 42.1005 25.8392 41.1877 30.9599C41.1065 31.3996 41.0389 31.8461 40.9578 32.2858C40.9307 32.4346 40.8902 32.5834 40.8631 32.7458C40.8361 32.9081 40.7482 33.0907 40.7955 33.2463C40.8902 33.0975 40.8766 32.9013 40.9104 32.7458C40.9443 32.5969 40.9713 32.4414 41.0051 32.2858C41.0998 31.8461 41.1877 31.3996 41.2823 30.9599ZM54.0821 7.22331C54.1294 7.17595 54.2984 7.11506 54.2038 7.04065C53.9739 6.91213 52.7297 7.18948 52.4119 7.26389C50.2415 7.76446 48.6187 9.6788 47.4895 11.512C44.2777 16.7206 43.4461 23.4378 42.1749 29.3635C41.5663 32.1775 40.8564 34.978 40.2884 37.8056C39.8759 39.8552 39.6055 41.9184 39.3215 43.9816L39.6866 43.4134C41.7759 37.3592 43.4055 30.8179 45.3731 24.9869C45.7315 23.9249 46.1236 22.8696 46.482 21.8076L46.624 21.7738L46.5361 21.7264V21.6655C46.8201 20.9349 47.1176 20.2044 47.4016 19.4806C47.5098 19.2032 47.645 18.8041 47.7735 18.4727C49.3422 14.5425 51.0934 10.247 54.0821 7.22331ZM59.16 8.36651C58.0443 7.44654 56.55 7.10832 55.1369 7.02038L54.9813 7.09478L55.644 8.02828C56.381 9.48265 56.4216 11.1399 56.2593 12.7364C57.5372 11.7555 58.9369 10.8558 60.5529 10.5447C60.2622 9.71262 59.8497 8.93473 59.1668 8.37328L59.16 8.36651ZM55.4208 13.4872C55.5087 13.3993 55.6034 13.3113 55.6778 13.2166C55.9956 11.282 55.9888 8.9753 54.6297 7.42623C52.5539 9.30676 51.1746 11.8773 50.0048 14.3937C46.7795 21.3679 44.7713 28.5044 42.567 35.8304C42.0058 37.6974 41.3905 39.5509 40.8225 41.4179C40.8969 41.384 40.9578 41.2352 40.9983 41.1608C43.4663 36.2701 45.2446 31.0817 47.3272 26.0218C49.3489 21.1311 51.6276 17.2145 55.4141 13.4872H55.4208ZM42.1478 40.3694C42.3709 40.2341 42.4386 40.0447 42.6076 39.8553C47.1176 34.6669 51.7087 29.6409 55.4344 23.9316C57.5237 20.7253 60.7084 15.6925 60.6881 11.7488C60.6881 11.5255 60.6002 11.282 60.6408 11.0385C58.9301 11.3429 57.4223 12.3711 56.1443 13.5075C55.4411 17.4174 53.744 21.0161 51.8372 24.4525C49.2745 29.0591 46.4888 33.4155 43.6624 37.8395C43.4528 38.1709 42.1478 40.18 42.1478 40.3694C42.1343 40.3761 42.1005 40.3491 42.0532 40.3964C41.9923 40.4573 41.8909 40.6805 41.8774 40.7752C42.0532 40.7008 41.9923 40.4032 42.1952 40.4573C42.2154 40.4438 42.1478 40.3897 42.1478 40.3694ZM62.6828 11.6473C62.6828 11.6473 62.4123 11.4105 62.3718 11.3835C62.2365 11.2955 61.4049 10.9573 61.3237 11.0385C61.2629 13.0678 60.7558 14.9619 60.0187 16.8424C58.5853 20.4885 56.5568 23.8505 54.3255 27.0501C53.4803 28.2609 52.5539 29.4041 51.7561 30.642C54.2511 28.3218 57.0098 26.2924 59.3629 23.8166C61.3913 21.679 62.9397 19.2303 63.4604 16.2674C63.7038 14.8875 63.6565 12.7634 62.6828 11.654V11.6473ZM9.09034 15.6992C9.86792 15.3813 10.6658 15.1445 11.4907 14.9754C11.8356 14.8266 11.4704 14.4004 11.3217 14.2178C11.0783 13.9269 10.5779 13.5346 10.2195 13.3993C9.37432 13.0746 8.43446 13.5752 8.21133 14.4478C8.22485 14.5493 8.53588 14.7251 8.62379 14.8131C8.82663 15.0228 9.07006 15.4083 9.08358 15.706L9.09034 15.6992ZM12.2345 14.874C12.9918 14.874 13.7491 14.8672 14.4929 15.0025C14.8309 14.6237 15.1149 14.5289 14.9053 13.9607C14.5605 13.034 13.2623 13.6158 12.7416 14.0825C12.6334 14.1772 12.106 14.7454 12.2345 14.874ZM15.3043 15.2392C15.9534 15.4625 16.5078 15.7804 17.0487 16.1998C17.4071 16.1457 17.4747 15.246 17.468 14.9619C17.4206 13.7781 16.2373 14.0757 15.595 14.6101C15.4057 14.7657 15.3043 14.9957 15.3043 15.246V15.2392ZM55.502 14.1028V14.1502C55.502 14.1502 55.529 14.1163 55.502 14.1028ZM55.4817 14.1907C55.4006 14.1704 55.3938 14.2245 55.3465 14.2584C54.9611 14.5492 54.3998 15.2122 54.0685 15.5978C51.4585 18.5809 49.4706 22.1052 47.9628 25.7851L43.3379 37.3997C43.8517 36.6083 44.413 35.8372 44.9268 35.0389C47.0432 31.7514 49.1258 28.2474 51.0596 24.8178C52.9461 21.4761 54.7041 17.9789 55.4817 14.1907ZM8.12343 16.2404C8.18429 16.1322 7.95439 15.9428 7.90706 15.848C7.73802 15.5166 7.65688 15.1378 7.66364 14.7657C7.0889 14.3801 6.20989 14.7116 5.95971 15.3339C5.91914 15.4354 5.85153 15.5977 5.91239 15.6992C5.93267 15.733 6.45331 16.0307 6.57502 16.1321C6.81844 16.3351 7.02804 16.5989 7.23765 16.8356L8.12343 16.2404ZM8.63055 15.8819C8.63732 15.8007 8.63055 15.7263 8.61027 15.6519C8.58998 15.5774 8.26543 15.016 8.17753 15.1039C8.22486 15.4016 8.33304 15.7533 8.63055 15.8819ZM5.33089 15.9833C4.76291 15.7263 3.98533 15.9698 3.89066 16.6463C3.82981 17.0657 4.19494 17.6609 4.45188 17.9856C4.63444 17.9856 5.61487 18.3577 5.67573 18.3442C5.83124 18.3036 5.77039 18.0871 5.83801 17.9992C5.89886 17.918 6.2099 17.9247 6.2099 17.7286C6.2099 17.6744 5.87181 17.316 5.8042 17.2145C5.55402 16.8424 5.40527 16.4163 5.33089 15.9766V15.9833ZM18.631 18.3983C18.7459 18.4862 19.084 17.8233 19.1246 17.7286C19.6046 16.6327 19.5167 15.6181 18.0359 16.2269C17.7925 16.3283 17.5897 16.3892 17.5356 16.6868C17.948 17.2212 18.3943 17.7557 18.631 18.3983ZM6.50064 17.3295C6.61559 17.4377 6.85901 17.2077 6.84549 17.1468C6.62236 16.8018 6.31808 16.4704 5.93943 16.2945C5.85153 16.3892 6.37893 17.2212 6.50064 17.3295ZM19.3139 20.6779C19.51 20.6103 19.8683 20.617 20.0306 20.5494C20.247 20.4614 20.7271 19.7917 20.8285 19.5618C21.3018 18.5065 20.8893 18.1953 19.8481 18.4389C19.5843 18.4997 18.8744 18.7026 18.9149 19.0341C19.0975 19.5617 19.2801 20.1097 19.3206 20.6711L19.3139 20.6779ZM4.28961 18.4862C3.92448 18.3982 3.55258 18.4321 3.19422 18.5065L4.26931 18.6215L4.28961 18.4862ZM5.38498 18.7162L5.15509 18.6688C5.19566 18.7635 5.2768 18.8244 5.38498 18.8041V18.7162ZM4.79673 19.812L5.06719 19.2844C5.06719 19.2033 4.04618 19.0409 3.90419 19.0341C3.51202 19.007 3.11308 19.0341 2.74119 19.1288C2.71415 19.1559 3.03194 19.5888 3.14012 19.6227C3.32269 19.6768 3.71486 19.5888 3.96504 19.6227C4.24903 19.6565 4.52626 19.7309 4.79673 19.8188V19.812ZM2.09884 19.9473L2.50453 19.7376L2.30169 19.3994L2.12588 19.6835L2.09884 19.9473ZM4.56007 20.2314L3.83657 20.0894C3.9718 20.2382 4.30988 20.36 4.50597 20.4073C4.6074 20.4276 4.58711 20.2653 4.56007 20.2382V20.2314ZM3.08603 20.1908C2.94404 20.0961 2.31521 20.2923 2.25436 20.4005C2.20703 20.4817 2.47749 20.7997 2.55863 20.8335C2.72767 20.9079 3.17394 20.8402 3.39707 20.8605C3.71486 20.8943 4.01914 21.0432 4.33693 21.077L4.38427 20.8538C3.99886 20.7252 3.61344 20.5561 3.2686 20.3464C3.18746 20.2991 3.12661 20.2044 3.0928 20.1841L3.08603 20.1908ZM1.91628 20.7726C1.8419 20.7049 1.71343 20.9755 1.73371 21.0026L1.96361 20.9552L1.91628 20.7726ZM19.5438 22.6937C20.1185 22.8561 21.1192 22.3555 21.3627 21.8414C21.7345 21.0364 20.9096 21.077 20.3484 21.0094L19.5438 21.5302C19.4018 21.6926 19.6046 22.457 19.5438 22.6937ZM3.92447 22.2811C3.71486 22.1187 3.40383 22.0578 3.16041 21.9226C2.71414 21.679 2.43016 21.1582 1.86895 21.4558C1.97037 21.8684 2.56539 22.1864 2.9508 22.3149C3.37002 22.4502 3.50525 22.4096 3.92447 22.2811ZM4.2017 21.7738C4.41131 21.5302 3.45792 21.3002 3.28888 21.3611C3.26183 21.4558 3.45793 21.5302 3.52554 21.5641C3.59992 21.5979 4.18142 21.8008 4.2017 21.7738ZM1.02375 22.0646C0.834425 22.3961 0.908799 22.8425 1.12517 23.1402C1.20631 23.2552 1.65934 23.6408 1.78105 23.5799C2.00418 23.4716 2.40987 22.856 2.74119 22.7546C2.23407 22.5111 1.65934 22.2743 1.41592 21.7264C1.37535 21.6993 1.05756 22.0105 1.02375 22.0646ZM4.10704 23.0116C3.8501 23.0522 3.62696 22.9305 3.37678 22.9914C3.19422 23.0319 2.28817 23.6204 2.28141 23.7693C2.32874 23.8369 2.34903 23.8437 2.43016 23.8302C2.57892 23.8099 3.0049 23.5596 3.24155 23.4987C3.52554 23.4243 3.81629 23.3972 4.10704 23.3364V23.0184V23.0116ZM21.3221 23.5596C20.7 23.1807 20.1726 23.1807 19.5032 23.431L19.4018 24.0602C20.0374 24.006 20.8555 24.0534 21.3221 23.5596ZM4.24903 24.2428C3.66077 24.4051 3.05899 24.4051 2.45721 24.3443C2.29493 24.4457 1.59849 24.9801 1.60525 25.1222C1.64582 25.4807 2.39635 25.6836 2.66006 25.6025C2.70739 25.5889 3.11308 25.156 3.22803 25.0681C3.54582 24.8245 3.91772 24.6351 4.28961 24.5134L4.24227 24.2428H4.24903ZM4.43159 24.9734C4.14084 25.0478 3.82981 25.2034 3.60668 25.3995C3.56611 25.4401 3.49173 25.3995 3.51877 25.5213C3.55258 25.5483 4.35046 25.2575 4.38427 25.2236C4.45865 25.1628 4.42483 25.0545 4.43159 24.9734ZM2.28141 26.0692C1.92981 26.0286 1.59848 25.8798 1.32125 25.6566C1.26716 26.1977 1.58496 26.4683 2.09208 26.5224L2.27464 26.0692H2.28141ZM4.70205 25.8865C4.47892 25.9068 4.10704 26.0422 3.91772 26.1639C3.87715 26.191 3.73515 26.3263 3.74191 26.3872C3.78248 26.421 4.6412 26.0218 4.70205 25.8865ZM3.28888 26.0692C2.90347 26.0083 2.66682 26.2045 2.60596 26.5698C2.75472 26.7118 3.20098 26.1842 3.28888 26.0692ZM4.959 26.3059C4.70882 26.4751 4.44512 26.6307 4.16113 26.7389C3.95829 26.8201 3.14013 26.9757 3.07927 27.023C2.91699 27.138 2.88995 27.625 2.94404 27.8077C3.08604 28.0106 4.39103 27.5912 4.59388 27.4424C4.79672 27.2936 5.00633 26.766 5.25651 26.5969L4.96577 26.3059H4.959ZM2.5113 27.0298L2.33549 27.1042C2.32873 27.2395 2.28141 27.4221 2.39635 27.5304L2.5113 27.0298ZM6.07467 27.2598C5.8042 27.0704 5.70277 27.3409 5.46612 27.4965C5.27679 27.625 4.95224 27.7265 4.88462 27.943C4.95224 28.0106 5.89886 27.4627 6.01381 27.3612C6.04761 27.3342 6.10171 27.3612 6.07467 27.2598ZM6.31809 28.2406C6.54122 28.0106 6.58179 27.943 6.50741 27.5844C6.31809 27.7197 6.11523 27.8821 5.91914 27.9971C5.70277 28.1256 5.40527 28.2744 5.15509 28.3692C4.85082 28.4909 4.4654 28.43 4.66149 28.8833C4.78319 29.1674 5.08747 29.0591 5.30385 28.9712C5.66897 28.8291 6.05438 28.518 6.32484 28.2339L6.31809 28.2406ZM31.8296 28.6735L25.663 28.5383C26.0687 29.4312 26.6096 30.2158 27.0897 31.0614C27.3467 31.5146 27.6509 32.049 27.9146 32.5225C28.0431 32.7593 28.2122 32.9758 28.246 33.2463L30.0446 33.1517L31.8296 28.6803V28.6735ZM51.7358 30.6894C51.6479 30.6758 51.587 30.7435 51.6005 30.8247L51.7358 30.6894ZM49.3624 32.9216L49.6397 32.5767C49.5044 32.5834 49.4165 32.8066 49.3624 32.8743C49.119 33.1652 48.6998 33.5507 48.497 33.8348C48.2738 33.686 48.4429 33.8822 48.382 34.0175C48.3212 34.1595 48.1116 34.2678 48.0372 34.4098C48.1927 34.3287 48.3482 34.1596 48.4496 34.0243C48.7945 33.7199 49.1664 33.3343 49.3624 32.9284V32.9216ZM28.9018 52.6605H29.9499C29.8755 51.4834 29.7673 50.2997 29.72 49.1226C29.5442 44.8881 29.7132 40.6196 29.8147 36.3783C29.8349 35.4719 29.8147 34.5654 29.9026 33.659C29.8485 33.6049 28.4826 33.7063 28.3947 33.774C28.3609 33.801 28.3474 33.8213 28.3474 33.8619L28.8951 52.6605H28.9018ZM37.9894 46.3086C38.7535 44.9286 38.9496 43.3863 39.0848 41.8305L37.9556 46.1124L37.9894 46.3086ZM38.2193 47.4044C38.003 47.6074 37.7528 47.2962 37.6716 47.6953L38.0097 47.905L38.2126 47.4044H38.2193ZM38.8617 48.9603L37.9759 48.4665C37.746 48.7303 37.5364 49.0347 37.3336 49.3323C36.9752 49.8735 36.6303 50.4417 36.3058 51.0032C36.1097 51.3414 35.5958 52.1599 35.4944 52.4778C35.4741 52.5387 35.4674 52.5996 35.4741 52.6605H36.8805L38.8549 48.9603H38.8617ZM34.5681 53.3031C33.635 53.2219 32.6951 53.2084 31.762 53.1678C30.6599 53.1205 29.4901 53.0866 28.4285 53.0325C25.8862 52.8972 23.1612 52.9243 20.6189 52.9446C20.0577 52.9446 19.4897 52.9446 18.9285 52.9446C17.8601 53.1407 16.589 52.9108 15.5477 53.0393C15.2366 53.0799 15.0473 53.2896 15.3989 53.4587C15.879 53.6887 17.0285 53.5601 17.6032 53.5872C20.4025 53.7022 23.195 53.6684 26.0011 53.6346C28.7125 53.6007 31.62 53.6752 34.3111 53.4046C34.3652 53.4046 34.5613 53.3843 34.5681 53.3166V53.3031ZM43.3176 92.3952C45.1094 90.5079 44.1154 87.2068 43.8382 84.8866C42.9322 77.1412 42.6549 69.3012 41.8233 61.549C41.688 60.3111 41.4514 59.3776 41.0457 58.2141C40.5724 56.8409 40.0044 55.4474 39.2403 54.2163L17.0285 54.2636C17.7249 54.9942 18.3267 55.806 18.8338 56.6854C18.8203 56.3539 19.0434 54.7507 19.5505 55.6504C19.7128 55.9345 19.7534 56.638 19.7737 56.983C19.8075 57.6933 19.7061 58.4712 19.7737 59.1341C19.8075 59.5264 19.6925 59.9729 19.6858 60.3652C19.652 61.3867 19.6925 62.4081 19.6452 63.4295C19.3071 70.5255 17.468 77.5403 16.6769 84.6295C16.4199 86.9024 15.8655 88.9791 16.9203 91.1505C18.09 93.5519 19.8616 92.9634 22.1402 93.0581L41.8233 93.5181C42.1208 93.4775 43.0944 92.6522 43.3379 92.4019L43.3176 92.3952ZM54.3322 57.7812C53.8657 57.7812 53.4059 57.6797 52.9461 57.6391C51.7966 57.5444 50.6336 57.5512 49.4774 57.5039C47.4624 57.4159 45.4678 57.2062 43.4596 57.5039C43.1823 57.5445 42.9051 57.5986 42.6347 57.673L42.7902 58.8635C43.2635 58.4847 43.8517 58.3291 44.4332 58.2006C47.0229 57.6256 49.2407 57.6256 51.8575 57.903C53.5749 58.0856 54.0618 58.3833 54.1632 60.2097C54.2376 61.522 53.8589 62.5908 53.7575 63.8219C53.7575 63.8895 53.7304 64.1466 53.7778 64.1601C53.886 64.1939 53.8319 64.0587 53.8454 63.9978C54.1159 62.2322 54.8867 60.0202 54.5013 58.275C54.4607 58.0991 54.3796 57.9435 54.3458 57.7677L54.3322 57.7812ZM44.9336 81.9913C44.9944 81.9778 45.0283 81.9169 45.0621 81.8696C45.3528 81.4434 45.6233 80.8414 45.9005 80.3814C47.1514 78.2979 48.4902 76.343 49.5044 74.1242C50.1806 72.636 50.823 71.1005 51.4653 69.5988C52.5336 67.123 53.94 62.2593 53.2166 59.655C53.0408 59.0191 52.8041 59.0529 52.1956 58.9379C50.0995 58.5456 45.7315 58.5591 43.872 59.6279C42.9998 60.1285 42.824 60.7576 42.824 61.7317L44.9268 81.9981L44.9336 81.9913Z" fill="#6F7A58"/>
<path d="M42.1478 40.3694C42.3709 40.2341 42.4386 40.0447 42.6076 39.8553C47.1176 34.6669 51.7087 29.6409 55.4344 23.9316C57.5237 20.7253 60.7084 15.6925 60.6881 11.7488C60.6881 11.5255 60.6002 11.282 60.6408 11.0385C58.9301 11.3429 57.4223 12.3711 56.1443 13.5075C55.4411 17.4174 53.744 21.0161 51.8372 24.4525C49.2745 29.0591 46.4888 33.4155 43.6624 37.8395C43.4528 38.1709 42.1478 40.18 42.1478 40.3694ZM42.1478 40.3694C42.1343 40.3761 42.1005 40.3491 42.0532 40.3964C41.9923 40.4573 41.8909 40.6805 41.8774 40.7752C42.0532 40.7008 41.9923 40.4032 42.1952 40.4573C42.2154 40.4438 42.1478 40.3897 42.1478 40.3694ZM21.9644 0.438489C22.005 0.512898 22.1943 0.512898 22.2417 0.438489H22.289C22.3363 0.512898 22.4648 0.485845 22.5392 0.485845C27.2926 0.533197 32.0325 0.627892 36.7859 0.688772C37.3133 1.08111 37.6514 1.70348 38.1247 2.1567L38.172 2.29196L35.6296 16.4636C34.9738 20.1029 34.3652 23.7625 33.662 27.3815C33.6147 27.6183 33.6823 28.0783 33.4254 28.173C33.4727 28.3218 33.6214 28.315 33.5471 28.4977C32.8033 30.1415 32.073 31.7987 31.2481 33.3952C31.2684 33.774 31.2954 34.1663 31.3022 34.5451C31.3428 36.9871 31.3631 39.4494 31.3969 41.8982L31.5253 52.6063L31.5794 52.6402L33.5065 52.5928L36.1638 47.0527C36.3396 46.7077 37.178 47.4518 37.2524 47.3909C37.3944 47.0865 37.6649 46.8295 37.8001 46.498L37.4553 46.3424L37.435 46.1395C39.7069 38.1574 40.7414 29.8979 42.2425 21.7534C42.8645 18.378 43.588 14.8266 44.9606 11.6811C46.4482 8.27178 49.6735 4.09134 53.8657 6.20863C53.9806 6.26951 54.1564 6.44536 54.2781 6.47919C54.907 6.66859 55.2518 6.20186 55.7522 5.9448C57.2938 5.14659 58.6664 5.32248 59.9579 6.45891C60.3298 6.78361 60.6746 7.38564 60.8572 7.83886C61.1952 8.66413 61.3034 9.63147 61.3034 10.5176C61.6348 10.477 62.0878 10.6664 62.3853 10.8288C63.1561 11.2617 63.7647 12.4523 63.9337 13.3046C63.981 13.5413 63.9675 13.8119 64.0486 14.0352V15.4963C63.9743 15.7939 63.954 16.1186 63.8999 16.4162C62.649 23.3431 56.1984 26.9824 51.56 31.5349C50.8365 32.2452 49.8696 33.1517 49.2272 33.9093C47.7599 35.6342 46.34 37.8124 44.9742 39.6658C43.277 41.9725 41.6339 44.3334 39.9233 46.6265C39.6866 46.9445 39.2065 47.6683 38.9496 47.8915C38.7805 48.0403 38.7129 48.0133 38.5168 47.9321C38.598 47.8036 38.5304 47.648 38.5844 47.5262C38.6385 47.4045 38.9766 47.0662 39.0848 46.931C40.356 45.2331 41.5934 43.4066 42.8848 41.6614C43.0742 41.4043 43.3581 40.8767 43.5678 40.6738C43.6895 40.552 43.7909 40.6467 43.7436 40.4438C44.2642 39.7335 44.8186 39.0503 45.3393 38.3333C45.5759 38.0086 45.7653 37.6433 46.0493 37.3524C46.0493 37.2036 46.0087 37.3321 45.9749 37.3592C45.8599 37.4606 45.8329 37.5621 45.7653 37.6365C44.0614 39.5238 42.371 41.472 40.8293 43.5013C40.2208 44.2996 39.7677 44.9354 39.3147 45.8283C38.9563 46.5454 38.5574 47.2421 38.1923 47.9524L38.2396 48.0403C38.5777 48.3109 39.4364 48.5544 39.3282 49.0821C38.7062 50.2726 38.0435 51.4496 37.3268 52.5861H42.1411C42.1411 52.5861 42.3236 52.6808 42.3439 52.7011C42.5873 52.9243 42.5197 53.2761 42.6144 53.5263C42.6752 53.6752 42.851 53.7225 42.851 53.8916C42.851 54.0337 42.5197 54.2975 42.425 54.4733C42.114 55.0822 42.2019 55.8263 42.398 56.4621C43.0133 56.4215 43.6286 56.4012 44.2439 56.3742C47.361 56.2389 50.397 56.0968 53.5141 56.4689C53.8657 56.5095 54.6433 56.6109 54.8799 56.8815C55.0557 57.0844 55.1504 57.7271 55.1774 57.9977C55.7522 63.3822 52.7297 70.3699 50.4849 75.1863C49.0311 78.3047 47.4422 81.2879 45.3731 84.0478V86.9159C45.2717 90.2373 45.4002 93.4707 41.8233 94.8913C41.7421 94.9251 41.6948 94.9386 41.661 95.0266C41.6136 95.0266 41.5663 95.0266 41.5258 95.0266C40.6603 94.9995 39.7339 94.8777 38.8549 94.8439C32.756 94.5868 26.6773 94.3231 20.5918 94.0187C18.9488 93.9375 17.9007 94.2148 16.5687 93.0648C13.9249 90.7717 15.2772 86.5845 15.7167 83.6216L18.8676 58.2682C18.5633 57.4227 18.0427 56.6921 17.5018 55.9886C17.0758 55.4407 16.3185 54.5072 15.737 54.1419C15.4124 53.939 14.8242 53.824 14.7295 53.3707C14.5402 52.4508 15.7167 52.7958 16.2509 52.6267L20.6121 52.559C19.4694 48.6018 18.1441 44.6919 17.1164 40.7008C16.9473 40.092 17.1164 39.4359 17.5626 38.9962C17.61 38.8676 17.4274 38.5565 17.3801 38.4212C16.8594 37.0548 16.1968 35.668 15.6356 34.2745C14.5875 31.6905 13.7018 28.9847 12.9174 26.3059C12.6469 25.3792 12.2751 24.3307 12.1669 23.3566C12.1466 23.1808 12.2007 22.9237 12.1669 22.7749C12.1601 22.7411 12.0857 22.7478 12.079 22.714C11.9843 22.3217 12.5252 21.6046 12.9242 21.5979C13.8302 21.5843 14.574 22.8628 15.0676 23.5257C15.5612 24.1887 16.2306 25.528 17.1367 25.5619C17.8466 25.5822 18.4619 25.0951 18.658 24.439C18.4822 24.4254 18.09 24.3172 17.9548 24.2157C17.7858 24.0804 18.1036 24.0331 18.2253 24.0263C18.4281 24.0195 18.6648 24.1075 18.8676 23.9857L18.9826 23.4852C18.7256 23.4513 18.4484 23.5867 18.2794 23.3431C17.9278 22.8358 18.6512 22.687 19.0299 22.6599V21.909C18.8947 21.7873 18.6512 22.0037 18.4687 21.9226C18.2523 21.6587 18.1847 21.5843 18.374 21.2935C18.5228 21.0702 18.6986 20.962 18.8744 20.7929L18.5295 19.325C18.3537 19.3656 18.2726 19.555 18.0968 19.6429C17.9616 19.7173 17.8263 19.7579 17.6641 19.7309C17.7046 19.5753 17.5221 19.5009 17.5221 19.4806C17.5221 19.21 18.1982 18.75 18.2117 18.6147C18.232 18.4253 18.0562 18.3712 18.063 18.1953C17.8737 17.9991 17.7587 17.6677 17.5762 17.4377C17.5288 17.3768 17.2719 17.086 17.211 17.1265C17.1637 17.3971 16.1765 18.3441 15.9534 18.0397C15.9466 18.0262 15.8452 17.7556 15.8384 17.7353C15.8114 17.5324 16.2238 16.9371 16.3658 16.7612C16.4537 16.653 16.5619 16.5651 16.6566 16.4636C16.19 16.0983 15.6626 15.8345 15.0879 15.6722C15.0405 15.6789 14.7836 16.0171 14.7228 16.078C14.4388 16.3486 14.1751 16.3216 14.3238 16.8221L14.263 16.9033C13.9587 17.0927 13.979 16.7477 13.8505 16.6868L13.4583 16.7816C13.4921 16.6327 13.6882 16.5583 13.7491 16.4366C13.8167 16.308 13.8505 16.0645 13.9114 15.9157C13.9452 15.8413 14.1818 15.476 14.1413 15.4354L12.3156 15.3475C12.3697 15.6248 12.2751 16.4027 11.9235 16.4433C11.4163 16.5042 11.4434 15.821 11.4028 15.4827C10.4697 15.706 9.49603 15.9901 8.64407 16.4433C8.44798 16.5448 7.52165 17.1198 7.45403 17.2686C7.38641 17.4242 7.45403 17.715 7.3188 17.8639C7.09567 18.1074 6.81845 17.8977 6.65617 17.9721C6.50065 18.0465 6.30456 18.405 6.1558 18.52C6.13552 18.6215 6.89958 19.0138 7.02805 19.1085C7.08214 19.1491 7.143 19.1085 7.11595 19.2235C6.90634 19.2032 6.04086 18.8312 5.91239 18.865C5.85829 18.8785 5.83124 18.9394 5.79067 18.9732C5.91238 19.1288 6.15581 19.1424 6.30456 19.2303C6.3857 19.2777 6.53445 19.4535 6.5953 19.4941C6.89281 19.6835 7.23089 19.8458 7.48107 20.0961C7.20385 20.042 6.87929 19.8053 6.61559 19.7512C6.45331 19.7174 6.29103 19.7512 6.14228 19.7241C6.00705 19.697 5.60135 19.3926 5.47964 19.467L5.24975 19.9338C5.25651 19.9744 5.64192 20.1976 5.65544 20.2652C5.79067 20.8876 5.37146 20.9688 4.86434 20.9552C4.81024 21.0905 4.76291 21.2799 4.81024 21.422C4.84405 21.5167 4.96576 21.5776 4.97252 21.6723C4.98605 21.8143 4.77643 21.882 4.83053 22.0579C5.24974 22.0105 5.53373 22.1729 5.37146 22.6193C5.29032 22.8358 4.63445 22.8764 4.57359 23.0455C4.56007 23.0793 4.61416 23.4107 4.62092 23.4852C4.62092 23.5393 4.68853 23.5934 4.6953 23.6408C4.71558 23.8031 4.59387 24.0872 4.72911 24.2969L4.7832 24.3375C5.03338 24.2901 5.29708 24.3375 5.4864 24.5134C5.43907 24.669 5.45936 24.8719 5.40527 25.0207C5.35117 25.1695 5.10775 25.244 5.07394 25.3319C5.04014 25.4266 5.26328 25.4063 5.32413 25.5348C5.39175 25.6904 5.2768 25.7783 5.38498 25.9745C5.60811 26.3736 5.79067 25.9745 6.08818 25.8325C6.52769 25.6295 6.89282 25.6701 6.7373 26.2519C6.68321 26.4548 6.33161 26.7795 6.35865 26.8742C6.43303 27.1448 6.9672 26.5021 7.04157 26.4616C7.21737 26.3804 7.3729 26.4886 7.35261 26.678C7.33909 26.7863 7.04834 27.2192 7.08891 27.2598C7.44051 27.2327 7.54193 26.6172 7.94763 26.8539C7.96115 26.996 7.99496 27.1786 7.86649 27.28C8.14371 27.3139 8.42094 27.0636 8.54265 26.8201C8.84692 26.2383 8.63731 25.4266 8.43446 24.8381C8.33304 24.5472 8.17752 24.2901 8.05581 24.0804C7.96791 23.9249 7.8462 23.5799 7.86649 23.3972C7.86649 23.3296 7.84621 23.3161 7.93411 23.3364C8.19781 23.3905 8.4818 23.8504 8.61027 24.0804C9.18501 25.0951 9.66507 26.9892 8.40065 27.6792C7.94762 27.9227 7.73801 27.7671 7.40669 27.8686C7.3526 27.8821 7.06861 28.1392 7.06861 28.2068C6.99424 28.6939 8.29247 29.3906 8.23161 29.695C8.20456 29.8303 8.09638 29.9723 7.94763 29.9453C7.47431 29.5597 6.97395 29.147 6.61559 28.6329C6.07466 29.0997 5.16185 29.8303 4.43159 29.3567C4.12056 29.1538 4.16789 28.9238 4.17465 28.5856H3.28212C3.0928 28.5856 2.90347 28.3827 2.775 28.3218C2.61949 28.2474 2.17998 28.0918 2.08532 27.9836C2.01094 27.8889 1.84867 27.4965 1.84867 27.3747C1.84867 27.2327 1.92304 27.0974 1.88923 26.9554C1.13193 26.7592 0.726234 26.2721 0.902036 25.4807C0.935844 25.3183 1.06432 25.1357 1.10489 25.0004C1.20631 24.6622 1.23335 24.2699 1.48353 24.006C0.672142 23.5799 0.0635994 22.6396 0.672144 21.7738C0.787091 21.6114 1.19955 21.3137 1.23336 21.2393C1.3145 21.0838 1.3483 20.6982 1.46325 20.4682C1.50382 20.387 1.61877 20.3397 1.64582 20.2382C1.67962 20.1164 1.58496 19.8256 1.64582 19.5956C1.72696 19.2641 2.08532 19.0544 2.23407 18.8177C2.30845 18.7027 2.3355 18.5403 2.4234 18.4118C2.73443 17.9789 3.32945 17.9586 3.81629 17.9044C3.23479 17.0048 3.20775 15.7195 4.44512 15.4489C4.76968 15.3745 5.08071 15.361 5.41202 15.4354C5.55402 14.3328 6.84549 13.9066 7.78535 14.2043C7.97468 13.1017 9.42166 12.5402 10.3953 12.892C10.9565 13.0949 11.6462 13.6834 11.937 14.2043L12.8566 13.3655C13.837 12.8379 15.2434 12.6552 15.453 14.069C16.1765 13.5684 17.5153 13.2572 17.8466 14.3463C17.9818 14.786 18.0021 15.2731 17.8737 15.7127C18.4146 15.5166 19.0164 15.4219 19.5505 15.6857C19.6249 15.8616 19.7466 15.9225 19.8075 16.1389C19.9765 16.741 19.8142 17.4039 19.5641 17.9586C20.0306 17.9045 20.4228 17.7421 20.8961 17.8842C21.7413 18.1345 21.552 19.3047 21.2139 19.9135L20.7947 20.5223C21.5317 20.5426 22.0253 20.8741 21.9306 21.6858C21.863 22.2337 21.4235 22.5314 21.0246 22.8358C21.4167 22.9981 21.8224 23.1266 21.7886 23.6543C21.7548 24.1819 20.9029 24.3848 20.4972 24.4525L19.2463 24.5675C19.1854 24.669 19.1651 24.7772 19.1043 24.8786C18.6039 25.6904 17.61 26.5562 16.5822 26.3668C15.3922 26.1571 14.5267 24.094 13.8573 23.2011C13.3434 22.5246 12.5252 21.7535 12.7281 23.2822C12.9309 24.811 13.6679 26.8133 14.1277 28.2812C15.1352 31.4876 16.2509 34.2813 17.5897 37.3389C17.752 37.7109 17.8872 38.1032 18.0224 38.4821C18.7189 37.7312 20.1253 37.535 19.7466 38.9962C19.6114 39.517 19.2665 39.9703 19.0705 40.4641C19.2057 40.5317 19.2395 40.6535 19.3004 40.7888C19.679 41.5937 19.9833 42.5746 20.3281 43.4134C21.5858 46.4574 22.9178 49.4676 24.0741 52.5523C24.1484 52.6402 24.5271 52.5861 24.6691 52.5996C25.92 52.6943 27.1844 52.6266 28.4353 52.6469L28.0228 38.2791C27.9755 36.6827 27.9484 35.066 27.9349 33.4831C26.8936 31.704 25.7712 29.9926 24.9463 28.0715C23.5534 19.4535 21.8292 10.8626 20.531 2.24464C20.4972 2.02141 20.3755 2.00785 20.5445 1.74403C20.7 1.50051 21.1328 1.00673 21.3491 0.837613C21.3897 0.810555 21.4506 0.803785 21.4979 0.790256C21.41 0.573792 21.552 0.614394 21.6331 0.424988H21.9982L21.9644 0.438489ZM30.0446 28.173C31.0926 28.173 32.1474 28.173 33.1955 28.2203L33.067 28.0647L37.6649 2.47461L37.1983 1.89287C37.0699 1.63582 36.8062 1.40584 36.5965 1.18938L21.694 0.993183C21.5182 1.37876 21.2409 1.717 20.957 2.0214L25.3858 28.0309L28.5367 28.1256C28.5705 28.2068 29.8485 28.173 30.0446 28.173ZM59.5725 6.81068C58.7881 6.10041 57.8415 5.78922 56.7934 6.07333C56.4148 6.1748 56.1105 6.37772 55.7522 6.51977C55.6845 6.58742 55.7522 6.60095 55.8198 6.60771C57.9362 6.87829 59.9984 7.7036 60.776 9.85471C60.8572 9.86147 60.8234 9.69913 60.8234 9.64501C60.7625 8.69798 60.2757 7.44654 59.5725 6.81068ZM41.2823 30.9599C41.4919 29.9858 41.7421 29.0185 41.945 28.0377C43.2094 21.997 44.1898 14.6034 48.1318 9.69232C49.4639 8.03502 51.3368 6.75653 53.5208 6.60771C53.345 6.4386 52.9461 6.31011 52.7027 6.26276C47.8749 5.29543 45.3055 11.6337 44.2169 15.2798C42.7428 20.2382 42.1005 25.8392 41.1877 30.9599C41.1065 31.3996 41.0389 31.8461 40.9578 32.2858C40.9307 32.4346 40.8902 32.5834 40.8631 32.7458C40.8361 32.9081 40.7482 33.0907 40.7955 33.2463C40.8902 33.0975 40.8766 32.9013 40.9104 32.7458C40.9443 32.5969 40.9713 32.4414 41.0051 32.2858C41.0998 31.8461 41.1877 31.3996 41.2823 30.9599ZM54.0821 7.22331C54.1294 7.17595 54.2984 7.11506 54.2038 7.04065C53.9739 6.91213 52.7297 7.18948 52.4119 7.26389C50.2415 7.76446 48.6187 9.6788 47.4895 11.512C44.2777 16.7206 43.4461 23.4378 42.1749 29.3635C41.5663 32.1775 40.8564 34.978 40.2884 37.8056C39.8759 39.8552 39.6055 41.9184 39.3215 43.9816L39.6866 43.4134C41.7759 37.3592 43.4055 30.8179 45.3731 24.9869C45.7315 23.9249 46.1236 22.8696 46.482 21.8076L46.624 21.7738L46.5361 21.7264V21.6655C46.8201 20.9349 47.1176 20.2044 47.4016 19.4806C47.5098 19.2032 47.645 18.8041 47.7735 18.4727C49.3422 14.5425 51.0934 10.247 54.0821 7.22331ZM59.16 8.36651C58.0443 7.44654 56.55 7.10832 55.1369 7.02038L54.9813 7.09478L55.644 8.02828C56.381 9.48265 56.4216 11.1399 56.2593 12.7364C57.5372 11.7555 58.9369 10.8558 60.5529 10.5447C60.2622 9.71262 59.8497 8.93473 59.1668 8.37328L59.16 8.36651ZM55.4208 13.4872C55.5087 13.3993 55.6034 13.3113 55.6778 13.2166C55.9956 11.282 55.9888 8.9753 54.6297 7.42623C52.5539 9.30676 51.1746 11.8773 50.0048 14.3937C46.7795 21.3679 44.7713 28.5044 42.567 35.8304C42.0058 37.6974 41.3905 39.5509 40.8225 41.4179C40.8969 41.384 40.9578 41.2352 40.9983 41.1608C43.4663 36.2701 45.2446 31.0817 47.3272 26.0218C49.3489 21.1311 51.6276 17.2145 55.4141 13.4872H55.4208ZM62.6828 11.6473C62.6828 11.6473 62.4123 11.4105 62.3718 11.3835C62.2365 11.2955 61.4049 10.9573 61.3237 11.0385C61.2629 13.0678 60.7558 14.9619 60.0187 16.8424C58.5853 20.4885 56.5568 23.8505 54.3255 27.0501C53.4803 28.2609 52.5539 29.4041 51.7561 30.642C54.2511 28.3218 57.0098 26.2924 59.3629 23.8166C61.3913 21.679 62.9397 19.2303 63.4604 16.2674C63.7038 14.8875 63.6565 12.7634 62.6828 11.654V11.6473ZM9.09034 15.6992C9.86792 15.3813 10.6658 15.1445 11.4907 14.9754C11.8356 14.8266 11.4704 14.4004 11.3217 14.2178C11.0783 13.9269 10.5779 13.5346 10.2195 13.3993C9.37432 13.0746 8.43446 13.5752 8.21133 14.4478C8.22485 14.5493 8.53588 14.7251 8.62379 14.8131C8.82663 15.0228 9.07006 15.4083 9.08358 15.706L9.09034 15.6992ZM12.2345 14.874C12.9918 14.874 13.7491 14.8672 14.4929 15.0025C14.8309 14.6237 15.1149 14.5289 14.9053 13.9607C14.5605 13.034 13.2623 13.6158 12.7416 14.0825C12.6334 14.1772 12.106 14.7454 12.2345 14.874ZM15.3043 15.2392C15.9534 15.4625 16.5078 15.7804 17.0487 16.1998C17.4071 16.1457 17.4747 15.246 17.468 14.9619C17.4206 13.7781 16.2373 14.0757 15.595 14.6101C15.4057 14.7657 15.3043 14.9957 15.3043 15.246V15.2392ZM55.502 14.1028V14.1502C55.502 14.1502 55.529 14.1163 55.502 14.1028ZM55.4817 14.1907C55.4006 14.1704 55.3938 14.2245 55.3465 14.2584C54.9611 14.5492 54.3998 15.2122 54.0685 15.5978C51.4585 18.5809 49.4706 22.1052 47.9628 25.7851L43.3379 37.3997C43.8517 36.6083 44.413 35.8372 44.9268 35.0389C47.0432 31.7514 49.1258 28.2474 51.0596 24.8178C52.9461 21.4761 54.7041 17.9789 55.4817 14.1907ZM8.12343 16.2404C8.18429 16.1322 7.95439 15.9428 7.90706 15.848C7.73802 15.5166 7.65688 15.1378 7.66364 14.7657C7.0889 14.3801 6.20989 14.7116 5.95971 15.3339C5.91914 15.4354 5.85153 15.5977 5.91239 15.6992C5.93267 15.733 6.45331 16.0307 6.57502 16.1321C6.81844 16.3351 7.02804 16.5989 7.23765 16.8356L8.12343 16.2404ZM8.63055 15.8819C8.63732 15.8007 8.63055 15.7263 8.61027 15.6519C8.58998 15.5774 8.26543 15.016 8.17753 15.1039C8.22486 15.4016 8.33304 15.7533 8.63055 15.8819ZM5.33089 15.9833C4.76291 15.7263 3.98533 15.9698 3.89066 16.6463C3.82981 17.0657 4.19494 17.6609 4.45188 17.9856C4.63444 17.9856 5.61487 18.3577 5.67573 18.3442C5.83124 18.3036 5.77039 18.0871 5.83801 17.9992C5.89886 17.918 6.2099 17.9247 6.2099 17.7286C6.2099 17.6744 5.87181 17.316 5.8042 17.2145C5.55402 16.8424 5.40527 16.4163 5.33089 15.9766V15.9833ZM18.631 18.3983C18.7459 18.4862 19.084 17.8233 19.1246 17.7286C19.6046 16.6327 19.5167 15.6181 18.0359 16.2269C17.7925 16.3283 17.5897 16.3892 17.5356 16.6868C17.948 17.2212 18.3943 17.7557 18.631 18.3983ZM6.50064 17.3295C6.61559 17.4377 6.85901 17.2077 6.84549 17.1468C6.62236 16.8018 6.31808 16.4704 5.93943 16.2945C5.85153 16.3892 6.37893 17.2212 6.50064 17.3295ZM19.3139 20.6779C19.51 20.6103 19.8683 20.617 20.0306 20.5494C20.247 20.4614 20.7271 19.7917 20.8285 19.5618C21.3018 18.5065 20.8893 18.1953 19.8481 18.4389C19.5843 18.4997 18.8744 18.7026 18.9149 19.0341C19.0975 19.5617 19.2801 20.1097 19.3206 20.6711L19.3139 20.6779ZM4.28961 18.4862C3.92448 18.3982 3.55258 18.4321 3.19422 18.5065L4.26931 18.6215L4.28961 18.4862ZM5.38498 18.7162L5.15509 18.6688C5.19566 18.7635 5.2768 18.8244 5.38498 18.8041V18.7162ZM4.79673 19.812L5.06719 19.2844C5.06719 19.2033 4.04618 19.0409 3.90419 19.0341C3.51202 19.007 3.11308 19.0341 2.74119 19.1288C2.71415 19.1559 3.03194 19.5888 3.14012 19.6227C3.32269 19.6768 3.71486 19.5888 3.96504 19.6227C4.24903 19.6565 4.52626 19.7309 4.79673 19.8188V19.812ZM2.09884 19.9473L2.50453 19.7376L2.30169 19.3994L2.12588 19.6835L2.09884 19.9473ZM4.56007 20.2314L3.83657 20.0894C3.9718 20.2382 4.30988 20.36 4.50597 20.4073C4.6074 20.4276 4.58711 20.2653 4.56007 20.2382V20.2314ZM3.08603 20.1908C2.94404 20.0961 2.31521 20.2923 2.25436 20.4005C2.20703 20.4817 2.47749 20.7997 2.55863 20.8335C2.72767 20.9079 3.17394 20.8402 3.39707 20.8605C3.71486 20.8943 4.01914 21.0432 4.33693 21.077L4.38427 20.8538C3.99886 20.7252 3.61344 20.5561 3.2686 20.3464C3.18746 20.2991 3.12661 20.2044 3.0928 20.1841L3.08603 20.1908ZM1.91628 20.7726C1.8419 20.7049 1.71343 20.9755 1.73371 21.0026L1.96361 20.9552L1.91628 20.7726ZM19.5438 22.6937C20.1185 22.8561 21.1192 22.3555 21.3627 21.8414C21.7345 21.0364 20.9096 21.077 20.3484 21.0094L19.5438 21.5302C19.4018 21.6926 19.6046 22.457 19.5438 22.6937ZM3.92447 22.2811C3.71486 22.1187 3.40383 22.0578 3.16041 21.9226C2.71414 21.679 2.43016 21.1582 1.86895 21.4558C1.97037 21.8684 2.56539 22.1864 2.9508 22.3149C3.37002 22.4502 3.50525 22.4096 3.92447 22.2811ZM4.2017 21.7738C4.41131 21.5302 3.45792 21.3002 3.28888 21.3611C3.26183 21.4558 3.45793 21.5302 3.52554 21.5641C3.59992 21.5979 4.18142 21.8008 4.2017 21.7738ZM1.02375 22.0646C0.834425 22.3961 0.908799 22.8425 1.12517 23.1402C1.20631 23.2552 1.65934 23.6408 1.78105 23.5799C2.00418 23.4716 2.40987 22.856 2.74119 22.7546C2.23407 22.5111 1.65934 22.2743 1.41592 21.7264C1.37535 21.6993 1.05756 22.0105 1.02375 22.0646ZM4.10704 23.0116C3.8501 23.0522 3.62696 22.9305 3.37678 22.9914C3.19422 23.0319 2.28817 23.6204 2.28141 23.7693C2.32874 23.8369 2.34903 23.8437 2.43016 23.8302C2.57892 23.8099 3.0049 23.5596 3.24155 23.4987C3.52554 23.4243 3.81629 23.3972 4.10704 23.3364V23.0184V23.0116ZM21.3221 23.5596C20.7 23.1807 20.1726 23.1807 19.5032 23.431L19.4018 24.0602C20.0374 24.006 20.8555 24.0534 21.3221 23.5596ZM4.24903 24.2428C3.66077 24.4051 3.05899 24.4051 2.45721 24.3443C2.29493 24.4457 1.59849 24.9801 1.60525 25.1222C1.64582 25.4807 2.39635 25.6836 2.66006 25.6025C2.70739 25.5889 3.11308 25.156 3.22803 25.0681C3.54582 24.8245 3.91772 24.6351 4.28961 24.5134L4.24227 24.2428H4.24903ZM4.43159 24.9734C4.14084 25.0478 3.82981 25.2034 3.60668 25.3995C3.56611 25.4401 3.49173 25.3995 3.51877 25.5213C3.55258 25.5483 4.35046 25.2575 4.38427 25.2236C4.45865 25.1628 4.42483 25.0545 4.43159 24.9734ZM2.28141 26.0692C1.92981 26.0286 1.59848 25.8798 1.32125 25.6566C1.26716 26.1977 1.58496 26.4683 2.09208 26.5224L2.27464 26.0692H2.28141ZM4.70205 25.8865C4.47892 25.9068 4.10704 26.0422 3.91772 26.1639C3.87715 26.191 3.73515 26.3263 3.74191 26.3872C3.78248 26.421 4.6412 26.0218 4.70205 25.8865ZM3.28888 26.0692C2.90347 26.0083 2.66682 26.2045 2.60596 26.5698C2.75472 26.7118 3.20098 26.1842 3.28888 26.0692ZM4.959 26.3059C4.70882 26.4751 4.44512 26.6307 4.16113 26.7389C3.95829 26.8201 3.14013 26.9757 3.07927 27.023C2.91699 27.138 2.88995 27.625 2.94404 27.8077C3.08604 28.0106 4.39103 27.5912 4.59388 27.4424C4.79672 27.2936 5.00633 26.766 5.25651 26.5969L4.96577 26.3059H4.959ZM2.5113 27.0298L2.33549 27.1042C2.32873 27.2395 2.28141 27.4221 2.39635 27.5304L2.5113 27.0298ZM6.07467 27.2598C5.8042 27.0704 5.70277 27.3409 5.46612 27.4965C5.27679 27.625 4.95224 27.7265 4.88462 27.943C4.95224 28.0106 5.89886 27.4627 6.01381 27.3612C6.04761 27.3342 6.10171 27.3612 6.07467 27.2598ZM6.31809 28.2406C6.54122 28.0106 6.58179 27.943 6.50741 27.5844C6.31809 27.7197 6.11523 27.8821 5.91914 27.9971C5.70277 28.1256 5.40527 28.2744 5.15509 28.3692C4.85082 28.4909 4.4654 28.43 4.66149 28.8833C4.78319 29.1674 5.08747 29.0591 5.30385 28.9712C5.66897 28.8291 6.05438 28.518 6.32484 28.2339L6.31809 28.2406ZM31.8296 28.6735L25.663 28.5383C26.0687 29.4312 26.6096 30.2158 27.0897 31.0614C27.3467 31.5146 27.6509 32.049 27.9146 32.5225C28.0431 32.7593 28.2122 32.9758 28.246 33.2463L30.0446 33.1517L31.8296 28.6803V28.6735ZM51.7358 30.6894C51.6479 30.6758 51.587 30.7435 51.6005 30.8247L51.7358 30.6894ZM49.3624 32.9216L49.6397 32.5767C49.5044 32.5834 49.4165 32.8066 49.3624 32.8743C49.119 33.1652 48.6998 33.5507 48.497 33.8348C48.2738 33.686 48.4429 33.8822 48.382 34.0175C48.3212 34.1595 48.1116 34.2678 48.0372 34.4098C48.1927 34.3287 48.3482 34.1596 48.4496 34.0243C48.7945 33.7199 49.1664 33.3343 49.3624 32.9284V32.9216ZM28.9018 52.6605H29.9499C29.8755 51.4834 29.7673 50.2997 29.72 49.1226C29.5442 44.8881 29.7132 40.6196 29.8147 36.3783C29.8349 35.4719 29.8147 34.5654 29.9026 33.659C29.8485 33.6049 28.4826 33.7063 28.3947 33.774C28.3609 33.801 28.3474 33.8213 28.3474 33.8619L28.8951 52.6605H28.9018ZM37.9894 46.3086C38.7535 44.9286 38.9496 43.3863 39.0848 41.8305L37.9556 46.1124L37.9894 46.3086ZM38.2193 47.4044C38.003 47.6074 37.7528 47.2962 37.6716 47.6953L38.0097 47.905L38.2126 47.4044H38.2193ZM38.8617 48.9603L37.9759 48.4665C37.746 48.7303 37.5364 49.0347 37.3336 49.3323C36.9752 49.8735 36.6303 50.4417 36.3058 51.0032C36.1097 51.3414 35.5958 52.1599 35.4944 52.4778C35.4741 52.5387 35.4674 52.5996 35.4741 52.6605H36.8805L38.8549 48.9603H38.8617ZM34.5681 53.3031C33.635 53.2219 32.6951 53.2084 31.762 53.1678C30.6599 53.1205 29.4901 53.0866 28.4285 53.0325C25.8862 52.8972 23.1612 52.9243 20.6189 52.9446C20.0577 52.9446 19.4897 52.9446 18.9285 52.9446C17.8601 53.1407 16.589 52.9108 15.5477 53.0393C15.2366 53.0799 15.0473 53.2896 15.3989 53.4587C15.879 53.6887 17.0285 53.5601 17.6032 53.5872C20.4025 53.7022 23.195 53.6684 26.0011 53.6346C28.7125 53.6007 31.62 53.6752 34.3111 53.4046C34.3652 53.4046 34.5613 53.3843 34.5681 53.3166V53.3031ZM43.3176 92.3952C45.1094 90.5079 44.1154 87.2068 43.8382 84.8866C42.9322 77.1412 42.6549 69.3012 41.8233 61.549C41.688 60.3111 41.4514 59.3776 41.0457 58.2141C40.5724 56.8409 40.0044 55.4474 39.2403 54.2163L17.0285 54.2636C17.7249 54.9942 18.3267 55.806 18.8338 56.6854C18.8203 56.3539 19.0434 54.7507 19.5505 55.6504C19.7128 55.9345 19.7534 56.638 19.7737 56.983C19.8075 57.6933 19.7061 58.4712 19.7737 59.1341C19.8075 59.5264 19.6925 59.9729 19.6858 60.3652C19.652 61.3867 19.6925 62.4081 19.6452 63.4295C19.3071 70.5255 17.468 77.5403 16.6769 84.6295C16.4199 86.9024 15.8655 88.9791 16.9203 91.1505C18.09 93.5519 19.8616 92.9634 22.1402 93.0581L41.8233 93.5181C42.1208 93.4775 43.0944 92.6522 43.3379 92.4019L43.3176 92.3952ZM54.3322 57.7812C53.8657 57.7812 53.4059 57.6797 52.9461 57.6391C51.7966 57.5444 50.6336 57.5512 49.4774 57.5039C47.4624 57.4159 45.4678 57.2062 43.4596 57.5039C43.1823 57.5445 42.9051 57.5986 42.6347 57.673L42.7902 58.8635C43.2635 58.4847 43.8517 58.3291 44.4332 58.2006C47.0229 57.6256 49.2407 57.6256 51.8575 57.903C53.5749 58.0856 54.0618 58.3833 54.1632 60.2097C54.2376 61.522 53.8589 62.5908 53.7575 63.8219C53.7575 63.8895 53.7304 64.1466 53.7778 64.1601C53.886 64.1939 53.8319 64.0587 53.8454 63.9978C54.1159 62.2322 54.8867 60.0202 54.5013 58.275C54.4607 58.0991 54.3796 57.9435 54.3458 57.7677L54.3322 57.7812ZM44.9336 81.9913C44.9944 81.9778 45.0283 81.9169 45.0621 81.8696C45.3528 81.4434 45.6233 80.8414 45.9005 80.3814C47.1514 78.2979 48.4902 76.343 49.5044 74.1242C50.1806 72.636 50.823 71.1005 51.4653 69.5988C52.5336 67.123 53.94 62.2593 53.2166 59.655C53.0408 59.0191 52.8041 59.0529 52.1956 58.9379C50.0995 58.5456 45.7315 58.5591 43.872 59.6279C42.9998 60.1285 42.824 60.7576 42.824 61.7317L44.9268 81.9981L44.9336 81.9913Z" stroke="#6F7A58" stroke-width="0.85" stroke-linecap="round" stroke-linejoin="round"/>
<path d="M28.5367 28.1256C28.5367 28.1256 28.6381 28.1053 28.5367 28.058C28.4691 28.0174 28.3541 28.0715 28.3406 27.9768C28.3203 27.9362 28.3406 27.7401 28.3609 27.6995C28.3744 27.6657 28.8207 27.4492 28.8815 27.4424C29.8282 27.2666 30.5517 27.7333 31.3428 26.7524C32.6951 25.0681 32.7154 21.7873 33.1075 19.7444L33.0129 19.6497C33.1819 18.3171 33.4118 16.998 33.6079 15.6654C34.1015 12.2832 34.6086 8.86031 35.1157 5.47806C35.2375 4.63926 35.2915 3.73961 35.4606 2.9211C35.5147 2.67081 35.6432 2.55581 35.9204 2.5761C36.1435 2.58963 36.1773 3.05636 36.1232 3.23224C36.1029 3.30665 35.9677 3.17814 36.1165 3.4149C35.2983 8.08917 34.541 12.7567 33.9392 17.458C33.7229 19.1288 33.6011 20.8064 33.378 22.4705C33.2901 23.1605 33.1887 24.3037 32.9994 24.926C32.9723 25.0275 32.8912 25.014 32.8912 25.0207C32.8912 25.0343 32.9385 25.1492 32.9182 25.2507C32.8303 25.758 32.4787 27.2733 32.1744 27.6183C31.9851 27.8347 31.7687 27.9362 31.4848 27.9768L28.6381 28.0715C28.6246 28.1527 28.7396 28.1121 28.8004 28.1189C29.2129 28.1324 29.6591 28.0715 30.0581 28.1662C29.862 28.1662 28.584 28.2001 28.5502 28.1189L28.5367 28.1256Z" fill="#6F7A58" stroke="#6F7A58" stroke-width="0.85" stroke-linecap="round" stroke-linejoin="round"/>
<path d="M37.9894 46.3086L37.9556 46.1124L39.0848 41.8305C38.9428 43.3863 38.7535 44.9218 37.9894 46.3086Z" fill="#6F7A58" stroke="#6F7A58" stroke-width="0.85" stroke-linecap="round" stroke-linejoin="round"/>
<path d="M6.07466 27.2598C6.10171 27.368 6.04761 27.3342 6.0138 27.3613C5.89885 27.4627 4.95223 28.0106 4.88461 27.943C4.95223 27.7265 5.27679 27.625 5.46611 27.4965C5.69601 27.3409 5.8042 27.0636 6.07466 27.2598Z" fill="#6F7A58" stroke="#6F7A58" stroke-width="0.85" stroke-linecap="round" stroke-linejoin="round"/>
<path d="M4.43161 24.9734C4.43161 25.0545 4.45866 25.1628 4.38428 25.2236C4.35047 25.2507 3.5526 25.5483 3.51879 25.5213C3.49174 25.3995 3.55936 25.4401 3.60669 25.3995C3.82982 25.2034 4.14086 25.041 4.43161 24.9734Z" fill="#6F7A58" stroke="#6F7A58" stroke-width="0.85" stroke-linecap="round" stroke-linejoin="round"/>
<path d="M4.2017 21.7738C4.2017 21.7738 3.59992 21.5979 3.52554 21.5641C3.46469 21.537 3.26859 21.4626 3.28888 21.3611C3.45792 21.3002 4.41131 21.5302 4.2017 21.7738Z" fill="#6F7A58" stroke="#6F7A58" stroke-width="0.85" stroke-linecap="round" stroke-linejoin="round"/>
<path d="M38.2193 47.4044L38.0165 47.9051L37.6784 47.6954C37.7528 47.2963 38.0097 47.6074 38.2261 47.4044H38.2193Z" fill="#6F7A58" stroke="#6F7A58" stroke-width="0.85" stroke-linecap="round" stroke-linejoin="round"/>
<path d="M49.3624 32.9217C49.1663 33.3275 48.7945 33.7131 48.4496 34.0175C48.4767 33.9837 48.4699 33.8687 48.4969 33.8348C48.6998 33.5507 49.119 33.1652 49.3624 32.8743V32.9217Z" fill="#6F7A58" stroke="#6F7A58" stroke-width="0.85" stroke-linecap="round" stroke-linejoin="round"/>
<path d="M4.70205 25.8866C4.64119 26.0219 3.78247 26.4278 3.7419 26.3872C3.72838 26.3195 3.87038 26.191 3.91771 26.1639C4.10703 26.0422 4.47891 25.9069 4.70205 25.8866Z" fill="#6F7A58" stroke="#6F7A58" stroke-width="0.85" stroke-linecap="round" stroke-linejoin="round"/>
<path d="M2.09885 19.9473L2.13266 19.6835L2.30845 19.3994L2.5113 19.7376L2.09885 19.9473Z" fill="#6F7A58" stroke="#6F7A58" stroke-width="0.85" stroke-linecap="round" stroke-linejoin="round"/>
<path d="M41.2823 30.9599C41.1877 31.3996 41.0998 31.8461 41.0051 32.2858H40.9578C41.0389 31.8461 41.1065 31.3996 41.1877 30.9599H41.2823Z" fill="#6F7A58" stroke="#6F7A58" stroke-width="0.85" stroke-linecap="round" stroke-linejoin="round"/>
<path d="M4.2896 18.4861L4.26931 18.6214L3.19421 18.5065C3.55258 18.4321 3.93124 18.3982 4.2896 18.4861Z" fill="#6F7A58" stroke="#6F7A58" stroke-width="0.85" stroke-linecap="round" stroke-linejoin="round"/>
<path d="M4.56007 20.2314C4.56007 20.2314 4.6074 20.4276 4.50598 20.4006C4.30989 20.3532 3.97181 20.2315 3.83658 20.0826L4.56007 20.2247V20.2314Z" fill="#6F7A58" stroke="#6F7A58" stroke-width="0.85" stroke-linecap="round" stroke-linejoin="round"/>
<path d="M2.51129 27.0298L2.39635 27.5304C2.2814 27.4221 2.32872 27.2395 2.33548 27.1042L2.51129 27.0298Z" fill="#6F7A58" stroke="#6F7A58" stroke-width="0.85" stroke-linecap="round" stroke-linejoin="round"/>
<path d="M41.0051 32.2858C40.9713 32.4346 40.9443 32.5902 40.9105 32.7458H40.8631C40.8902 32.5902 40.924 32.4414 40.9578 32.2858H41.0051Z" fill="#6F7A58" stroke="#6F7A58" stroke-width="0.85" stroke-linecap="round" stroke-linejoin="round"/>
<path d="M1.91627 20.7726L1.96361 20.9553L1.7337 21.0026C1.7337 21.0026 1.84189 20.705 1.91627 20.7726Z" fill="#6F7A58" stroke="#6F7A58" stroke-width="0.85" stroke-linecap="round" stroke-linejoin="round"/>
<path d="M40.9172 32.739C40.8834 32.9013 40.8969 33.0975 40.8023 33.2395C40.7549 33.084 40.8428 32.8878 40.8699 32.739H40.9172Z" fill="#6F7A58" stroke="#6F7A58" stroke-width="0.85" stroke-linecap="round" stroke-linejoin="round"/>
<path d="M48.497 33.8348C48.497 33.8348 48.4767 33.9837 48.4496 34.0175C48.3482 34.1596 48.1927 34.3287 48.0372 34.4031C48.1115 34.2678 48.3144 34.1528 48.382 34.0107C48.4361 33.8822 48.2738 33.6793 48.497 33.8281V33.8348Z" fill="#6F7A58" stroke="#6F7A58" stroke-width="0.85" stroke-linecap="round" stroke-linejoin="round"/>
<path d="M49.3625 32.881C49.4166 32.8202 49.5045 32.5902 49.6397 32.5834L49.3625 32.9284V32.881Z" fill="#6F7A58" stroke="#6F7A58" stroke-width="0.85" stroke-linecap="round" stroke-linejoin="round"/>
<path d="M5.38498 18.7162V18.8041C5.28356 18.8244 5.19566 18.7635 5.15509 18.6688L5.38498 18.7162Z" fill="#6F7A58" stroke="#6F7A58" stroke-width="0.85" stroke-linecap="round" stroke-linejoin="round"/>
<path d="M41.4514 92.7199C41.4514 92.7199 41.0051 92.9904 40.978 92.9972C40.5723 93.0919 39.957 92.8619 39.8083 92.4493C39.5649 91.7863 39.93 91.137 40.0855 90.5079C40.356 89.4052 40.2681 88.3905 40.3222 87.2744C40.4236 85.3127 40.7076 83.3848 40.8699 81.4299C41.3567 75.6733 41.1538 69.8896 40.4642 64.1601C40.4506 64.0722 40.64 63.876 40.7143 63.876C41.1268 64.0451 41.0051 64.6133 41.0524 64.9854C41.9517 71.6214 41.6272 78.6023 42.0058 85.3195C42.0869 86.7739 42.3574 88.465 42.3304 89.8855C42.3101 90.8799 41.9585 91.4752 41.5731 92.3343C41.5257 92.4357 41.4852 92.6725 41.4446 92.7334L41.4514 92.7199Z" fill="#6F7A58" stroke="#6F7A58" stroke-width="0.85" stroke-linecap="round" stroke-linejoin="round"/>
<path d="M31.1129 23.2687C31.052 23.2146 30.9641 23.0793 30.9574 22.9913C31.0385 18.3712 31.2346 13.7442 31.5997 9.14439C31.8567 8.28529 31.7011 6.31686 32.1474 5.62688C32.1947 5.55247 32.2556 5.451 32.3435 5.41718C32.7965 5.22777 33.6958 5.20746 33.8243 5.81626C33.8784 6.08684 33.831 6.37097 33.831 6.63478C33.831 8.02827 33.6417 9.40824 33.5133 10.7882C33.1752 14.3937 32.8101 17.9924 32.4652 21.6181C32.4179 22.139 32.4787 22.856 32.0257 23.2349C31.7823 23.4378 31.3428 23.4784 31.1061 23.2619L31.1129 23.2687ZM33.2766 5.84331C33.1617 5.74184 32.6816 5.85687 32.5193 5.88393C32.4111 6.83773 32.2488 7.77797 32.1474 8.73176C31.7011 13.0205 31.6132 17.3903 31.5118 21.7061C31.5118 21.9158 31.4848 22.0714 31.4848 22.2946C31.4848 22.4434 31.3698 22.8967 31.5794 22.9169C31.6268 22.9169 31.735 22.8966 31.7755 22.856C31.9513 22.6802 32.0257 20.6441 32.0595 20.2382C32.3232 17.458 32.6207 14.6642 32.8844 11.8773C33.0535 10.105 33.4118 8.01474 33.3577 6.25597C33.3577 6.16803 33.3375 5.88392 33.2834 5.8298L33.2766 5.84331Z" fill="#6F7A58" stroke="#6F7A58" stroke-width="0.85" stroke-linecap="round" stroke-linejoin="round"/>
<path d="M29.7606 23.0455C29.6524 23.174 29.5104 22.9981 29.4969 23.0116C29.5442 23.1672 29.4563 23.3228 29.2872 23.3364C29.1858 23.3431 29.1385 23.2552 29.0641 23.2417C28.9897 23.2349 28.9086 23.289 28.8342 23.289C28.6314 23.289 28.1648 23.3567 28.1243 23.0861C28.0769 22.7749 28.1581 22.3623 28.1581 22.0443C28.1107 17.1874 28.0228 12.317 27.9823 7.46006C27.9823 6.83773 27.8673 5.95835 27.9485 5.35631C27.9823 5.10602 28.1986 4.99102 28.4285 4.97073C29.5983 4.86926 29.7132 5.30219 29.7741 6.36422C29.8282 7.35183 29.7403 8.35299 29.7268 9.33384C29.6727 13.264 29.578 17.1942 29.7268 21.1244C29.7403 21.4626 29.9228 22.8561 29.7606 23.0522V23.0455ZM29.3549 22.8223C29.0168 18.3171 29.1588 13.7916 29.2196 9.27971C29.2332 8.26504 29.409 6.74303 29.2129 5.77571C29.1588 5.52542 29.1655 5.41045 28.8816 5.41721C28.7396 5.41721 28.5976 5.49158 28.4488 5.46452L28.6314 22.7817C28.8951 22.714 29.125 22.9305 29.3616 22.8223H29.3549Z" fill="#6F7A58" stroke="#6F7A58" stroke-width="0.85" stroke-linecap="round" stroke-linejoin="round"/>
<path d="M25.6698 6.28303C25.6698 6.28303 25.7712 6.27626 25.805 6.31685C25.8388 6.35743 25.8861 6.72951 25.8929 6.81068C25.9673 7.84565 25.9402 8.92796 25.9808 9.9697C26.1363 13.7511 26.3594 17.5121 26.4879 21.2935C26.5082 21.8482 26.5894 22.7478 26.5285 23.2619C26.515 23.3837 26.4744 23.5934 26.3189 23.6069C26.089 23.6272 26.0011 23.3025 25.947 23.1131C25.5683 21.8685 25.3723 20.1773 25.1626 18.8718C24.5744 15.1851 23.8577 10.937 23.736 7.23008C23.736 7.04744 23.7089 6.1951 23.7968 6.12069C23.932 6.10716 24.047 5.99215 24.1755 5.97862C24.3513 5.95156 24.9936 5.91097 25.1694 5.93127C25.2235 5.93127 25.5819 6.06658 25.6089 6.08688C25.6765 6.14776 25.636 6.25598 25.663 6.2898L25.6698 6.28303ZM25.379 6.38452L24.2431 6.4251C24.2093 8.48151 24.5541 10.5244 24.7502 12.5672L25.8929 20.3329L25.9808 20.4953L25.379 6.38452Z" fill="#6F7A58" stroke="#6F7A58" stroke-width="0.85" stroke-linecap="round" stroke-linejoin="round"/>
</svg>
