<svg width="24" height="28" viewBox="0 0 24 28" fill="none" xmlns="http://www.w3.org/2000/svg">
<path d="M21.2419 14.2517C21.2825 14.1299 21.323 13.9879 21.3568 13.8729C21.5191 13.3588 21.5529 13.0341 21.5732 12.5064C21.5732 12.4726 21.5327 12.4388 21.5394 12.4185L21.58 12.3509H21.4988C21.5462 12.3509 21.5529 12.1276 21.5529 12.0803C21.5462 11.9788 21.4042 11.9314 21.5056 11.8367L21.4447 11.7759C21.5732 11.715 21.4245 11.742 21.4042 11.6676C21.3839 11.6135 21.4177 11.5324 21.4042 11.4715C21.3907 11.4106 21.3298 11.37 21.3163 11.3362C21.3163 11.3226 21.3771 11.2482 21.3636 11.1874C21.3501 11.1265 21.2757 11.3159 21.2487 11.2009C21.3704 11.1062 21.2284 11.14 21.2149 11.0994C21.2081 11.0791 21.2351 11.025 21.2149 10.9777C21.1675 10.8424 21.1405 10.8085 21.0661 10.7138C21.0458 10.6935 20.8227 10.2877 20.8024 10.2403C20.7821 10.193 20.8024 10.078 20.7821 10.0509C20.7686 10.0374 20.728 10.0645 20.7077 10.0509C20.6874 10.0306 20.6604 9.83445 20.6604 9.7871C20.444 9.76004 20.559 9.71946 20.5657 9.68564C20.5657 9.65858 20.4846 9.58416 20.5319 9.50975L20.4305 9.55711C20.3629 9.43535 20.3967 9.32712 20.2344 9.30683L20.2885 9.24595C20.1195 9.24595 20.0045 9.02271 20.0316 8.86037C19.8558 8.93478 19.7611 9.03624 19.6935 9.21888L19.6124 9.1783C19.538 9.5774 19.2405 9.91564 19.1188 10.308L19.0511 10.3756L18.686 11.37L18.5778 11.3903L18.6387 11.5256H18.5643C18.5846 11.6609 18.4358 11.6135 18.517 11.7826L18.402 11.7962C18.5237 11.9585 18.2938 12.0194 18.2871 12.06C18.2871 12.0938 18.3276 12.1411 18.3209 12.1953C18.3006 12.4185 17.9355 13.0138 17.8341 13.2438C17.6785 13.6023 17.5433 13.9946 17.3878 14.3464C17.3405 14.4479 17.2458 14.4817 17.2931 14.6305C17.0294 14.6643 17.1376 14.7252 17.0362 14.8672C16.9821 14.9417 16.8401 15.0702 16.786 14.9281L16.8401 14.8672C16.7184 14.9822 16.6778 14.8672 16.6373 14.8605C16.6034 14.8605 16.5629 14.9214 16.502 14.9349C16.3195 14.9822 16.3668 14.874 16.3262 14.8064C16.2992 14.7523 16.2383 14.7252 16.2248 14.6576C16.2045 14.5628 16.3194 14.4073 16.3262 14.3734C16.3262 14.3531 16.2451 14.3193 16.2451 14.2584C16.2451 14.1976 16.3668 13.9473 16.4006 13.8593C16.7792 12.865 17.2999 11.7962 17.6988 10.8356C17.949 10.2268 18.1721 9.66535 18.4696 9.1039C18.6049 8.84685 18.7333 8.57626 18.9227 8.33274C18.9565 8.28538 18.9835 8.22451 19.0038 8.17039L19.0647 8.2245C19.0647 8.02833 19.1255 8.12303 19.1999 8.07568C19.2743 8.02833 19.3216 7.95392 19.4027 7.90657C19.5718 7.8051 19.7476 7.81188 19.8828 7.68335L19.9437 7.81863C20.0586 7.69687 20.0857 7.78481 20.1668 7.79833C20.3629 7.83216 20.5725 7.85923 20.7348 7.9607C20.8024 8.00128 20.7754 8.05539 20.7956 8.08245C20.8092 8.10275 20.8565 8.08245 20.8768 8.10275C21.1405 8.3598 21.3636 8.71832 21.4785 9.05654L21.5597 9.043C21.4921 9.21888 21.607 9.1783 21.6611 9.25947C21.7287 9.36094 21.7085 9.61123 21.8707 9.62476L22.1141 10.1592L22.0939 10.3689C22.1818 10.2877 22.2494 10.5921 22.2697 10.6665C22.3711 11.1062 22.5536 11.6203 22.6213 12.087C22.7294 12.8785 22.4996 13.7308 22.3508 14.4884H22.2832C22.3373 14.6914 22.1953 14.6914 22.1615 14.7455C22.1479 14.7658 22.1817 14.8334 22.175 14.8672C21.9992 15.449 21.4988 16.2675 21.1607 16.7072C20.3764 17.7286 19.3622 18.4592 18.1654 18.8921C18.0842 18.7839 18.064 18.9057 17.9896 18.926C17.8814 18.9598 17.7664 18.9124 17.665 18.9868L17.5636 18.8921C17.5027 18.9463 17.381 19.0274 17.3066 19.0342C17.1511 19.0545 15.8799 18.8989 15.7447 18.8245C15.7177 18.811 15.7041 18.7636 15.6974 18.7365C15.6162 18.8989 15.4878 18.696 15.4202 18.6757C15.4066 18.6757 15.2646 18.6757 15.2308 18.6621C15.1497 18.6351 14.8995 18.5539 14.8927 18.4863L14.9469 18.4254L14.7102 18.3983L14.5952 18.1886C14.4668 18.2292 14.2977 18.0804 14.2234 17.9857C14.1693 17.918 14.1625 17.6813 14.0205 17.7489L14.007 17.7151C14.1152 17.6677 13.9664 17.4107 13.9394 17.2889C13.8717 16.9304 13.8582 16.2066 14.1693 15.9834C14.2774 16.1796 14.46 16.3149 14.5885 16.4975C14.6764 16.626 14.6358 16.6125 14.7508 16.7207C14.8454 16.8154 14.8995 16.8695 14.9265 17.0116L15.0077 16.9304L15.0821 17.1604C15.2038 17.1604 15.3052 17.2822 15.3052 17.3904C15.5148 17.3295 15.4202 17.4107 15.481 17.4716C15.5621 17.546 16.2721 17.7963 16.4073 17.8233C16.475 17.8369 16.5629 17.7963 16.5967 17.8233C16.6846 17.8707 16.5832 18.0398 16.7995 17.8436C16.9415 17.9857 17.1376 17.8166 17.3269 17.8707C17.2864 17.8301 17.4013 17.7489 17.4081 17.7489C17.5027 17.7963 17.3472 17.8369 17.3878 17.8775C17.5703 17.7963 17.807 17.7827 17.9896 17.7151C18.0775 17.6813 18.0978 17.688 18.091 17.5933L18.1721 17.5595L18.1316 17.6407C18.1857 17.6678 18.2195 17.661 18.2736 17.6407C18.517 17.546 18.7266 17.3701 18.9294 17.2348C19.0241 17.1739 19.1931 17.1942 19.2269 16.9981L19.2946 17.0522C19.4906 16.8493 19.6867 16.6328 19.9437 16.5042L19.9031 16.4096L20.0316 16.3893C20.0316 16.3893 20.0248 16.3284 20.0383 16.3148C20.4576 15.9022 21.0729 14.8605 21.2554 14.2855L21.2892 14.3531L21.3298 14.272L21.2554 14.2855L21.2419 14.2517Z" fill="#6F7A58"/>
<path d="M21.2554 14.2855C21.0729 14.8605 20.4576 15.9022 20.0383 16.3148C20.0248 16.3284 20.0316 16.3893 20.0316 16.3893L19.9031 16.4096L19.9437 16.5042C19.6867 16.6328 19.4906 16.8493 19.2946 17.0522L19.2269 16.9981C19.1931 17.1942 19.0241 17.1739 18.9294 17.2348C18.7266 17.3701 18.517 17.546 18.2736 17.6407C18.2195 17.661 18.1857 17.6678 18.1316 17.6407L18.1721 17.5595L18.091 17.5933C18.0978 17.688 18.0775 17.6813 17.9896 17.7151C17.807 17.7827 17.5703 17.7963 17.3878 17.8775C17.3472 17.8369 17.5027 17.7963 17.4081 17.7489C17.4013 17.7489 17.2864 17.8301 17.3269 17.8707C17.1376 17.8166 16.9415 17.9857 16.7995 17.8436C16.5832 18.0398 16.6846 17.8707 16.5967 17.8233C16.5629 17.7963 16.475 17.8369 16.4073 17.8233C16.2721 17.7963 15.5621 17.546 15.481 17.4716C15.4202 17.4107 15.5148 17.3295 15.3052 17.3904C15.3052 17.2822 15.2038 17.1604 15.0821 17.1604L15.0077 16.9304L14.9265 17.0116C14.8995 16.8695 14.8454 16.8154 14.7508 16.7207C14.6358 16.6125 14.6764 16.626 14.5885 16.4975C14.46 16.3149 14.2774 16.1796 14.1693 15.9834C13.8582 16.2066 13.8717 16.9304 13.9394 17.2889C13.9664 17.4107 14.1152 17.6677 14.007 17.7151L14.0205 17.7489C14.1625 17.6813 14.1693 17.918 14.2234 17.9857C14.2977 18.0804 14.4668 18.2292 14.5952 18.1886L14.7102 18.3983L14.9469 18.4254L14.8927 18.4863C14.8995 18.5539 15.1497 18.6351 15.2308 18.6621C15.2646 18.6757 15.4066 18.6757 15.4202 18.6757C15.4878 18.696 15.6162 18.8989 15.6974 18.7365C15.7041 18.7636 15.7177 18.811 15.7447 18.8245C15.8799 18.8989 17.1511 19.0545 17.3066 19.0342C17.381 19.0274 17.5027 18.9463 17.5636 18.8921L17.665 18.9868C17.7664 18.9124 17.8814 18.9598 17.9896 18.926C18.064 18.9057 18.0842 18.7839 18.1654 18.8921C19.3622 18.4592 20.3764 17.7286 21.1607 16.7072C21.4988 16.2675 21.9992 15.449 22.175 14.8672C22.1817 14.8334 22.1479 14.7658 22.1615 14.7455C22.1953 14.6914 22.3373 14.6914 22.2832 14.4884H22.3508C22.4996 13.7308 22.7294 12.8785 22.6213 12.087C22.5536 11.6203 22.3711 11.1062 22.2697 10.6665C22.2494 10.5921 22.1818 10.2877 22.0939 10.3689L22.1141 10.1592L21.8707 9.62476C21.7085 9.61123 21.7287 9.36094 21.6611 9.25947C21.607 9.1783 21.4921 9.21888 21.5597 9.043L21.4785 9.05654C21.3636 8.71832 21.1405 8.3598 20.8768 8.10275C20.8565 8.08245 20.8092 8.10275 20.7956 8.08245C20.7754 8.05539 20.8024 8.00128 20.7348 7.9607C20.5725 7.85923 20.3629 7.83216 20.1668 7.79833C20.0857 7.78481 20.0586 7.69687 19.9437 7.81863L19.8828 7.68335C19.7476 7.81188 19.5718 7.8051 19.4027 7.90657C19.3216 7.95392 19.2743 8.02833 19.1999 8.07568C19.1255 8.12303 19.0647 8.02833 19.0647 8.2245L19.0038 8.17039C18.9835 8.22451 18.9565 8.28538 18.9227 8.33274C18.7333 8.57626 18.6049 8.84685 18.4696 9.1039C18.1721 9.66535 17.949 10.2268 17.6988 10.8356C17.2999 11.7962 16.7792 12.865 16.4006 13.8593C16.3668 13.9473 16.2451 14.1976 16.2451 14.2584C16.2451 14.3193 16.3262 14.3531 16.3262 14.3734C16.3194 14.4073 16.2045 14.5628 16.2248 14.6576C16.2383 14.7252 16.2992 14.7523 16.3262 14.8064C16.3668 14.874 16.3195 14.9822 16.502 14.9349C16.5629 14.9214 16.6034 14.8605 16.6373 14.8605C16.6778 14.8672 16.7184 14.9822 16.8401 14.8672L16.786 14.9281C16.8401 15.0702 16.9821 14.9417 17.0362 14.8672C17.1376 14.7252 17.0294 14.6643 17.2931 14.6305C17.2458 14.4817 17.3405 14.4479 17.3878 14.3464C17.5433 13.9946 17.6785 13.6023 17.8341 13.2438C17.9355 13.0138 18.3006 12.4185 18.3209 12.1953C18.3276 12.1411 18.2871 12.0938 18.2871 12.06C18.2938 12.0194 18.5237 11.9585 18.402 11.7962L18.517 11.7826C18.4358 11.6135 18.5846 11.6609 18.5643 11.5256H18.6387L18.5778 11.3903L18.686 11.37L19.0511 10.3756L19.1188 10.308C19.2405 9.91564 19.538 9.5774 19.6124 9.1783L19.6935 9.21888C19.7611 9.03624 19.8558 8.93478 20.0316 8.86037C20.0045 9.02271 20.1195 9.24595 20.2885 9.24595L20.2344 9.30683C20.3967 9.32712 20.3629 9.43535 20.4305 9.55711L20.5319 9.50975C20.4846 9.58416 20.5657 9.65858 20.5657 9.68564C20.559 9.71946 20.444 9.76004 20.6604 9.7871C20.6604 9.83445 20.6874 10.0306 20.7077 10.0509C20.728 10.0645 20.7686 10.0374 20.7821 10.0509C20.8024 10.078 20.7821 10.193 20.8024 10.2403C20.8227 10.2877 21.0458 10.6935 21.0661 10.7138C21.1405 10.8085 21.1675 10.8424 21.2149 10.9777C21.2351 11.025 21.2081 11.0791 21.2149 11.0994C21.2284 11.14 21.3704 11.1062 21.2487 11.2009C21.2757 11.3159 21.3501 11.1265 21.3636 11.1874C21.3771 11.2482 21.3163 11.3226 21.3163 11.3362C21.3298 11.37 21.3907 11.4106 21.4042 11.4715C21.4177 11.5324 21.3839 11.6135 21.4042 11.6676C21.4245 11.742 21.5732 11.715 21.4447 11.7759L21.5056 11.8367C21.4042 11.9314 21.5462 11.9788 21.5529 12.0803C21.5529 12.1276 21.5462 12.3509 21.4988 12.3509H21.58L21.5394 12.4185C21.5327 12.4388 21.5732 12.4726 21.5732 12.5064C21.5529 13.0341 21.5191 13.3588 21.3568 13.8729C21.323 13.9879 21.2825 14.1299 21.2419 14.2517L21.2554 14.2855ZM21.2554 14.2855L21.2892 14.3531L21.3298 14.272L21.2554 14.2855Z" stroke="#6F7A58" stroke-width="0.85" stroke-linecap="round" stroke-linejoin="round"/>
<path d="M7.47529 0.425018L7.76603 0.506189C7.81336 0.540012 7.83366 0.594137 7.88099 0.621195C8.24611 0.837659 8.53685 1.05412 8.82084 1.37882C9.13187 1.73733 9.53082 2.29878 9.80805 2.74524C9.97033 3.01582 10.4977 3.90198 10.5789 4.15227C10.5924 4.19962 10.5586 4.26726 10.5789 4.31461C10.6938 4.28755 10.7344 4.5243 10.7885 4.64606C10.9981 5.09928 11.1671 5.53898 11.3429 6.02603C11.4443 6.3169 11.6269 6.7363 11.7351 7.08806C11.7554 7.1557 11.8298 7.42629 11.7486 7.43305L11.7621 7.46687C11.7621 7.46687 11.8095 7.43981 11.823 7.44658C11.8771 7.47363 11.9177 7.8998 11.9379 7.97421C12.134 8.82653 12.3166 9.6518 12.3098 10.5244C12.3098 10.7071 12.3098 10.8965 12.3098 11.052C12.3098 11.1062 12.249 11.1806 12.249 11.255C12.249 11.3023 12.3031 11.3362 12.2963 11.3429C12.2828 11.3632 12.1678 11.3362 12.1273 11.4579C12.1002 11.5323 12.1881 11.4579 12.2016 11.485C12.2016 11.4985 12.2084 11.6812 12.2016 11.6947C12.1746 11.7826 11.9718 11.83 12.0191 12.0126C12.0258 12.0464 12.1002 12.1006 12.0867 12.1209C12.0867 12.1344 12.0123 12.1411 11.9988 12.1682C11.9718 12.2291 12.0123 12.5741 11.8162 12.5267L11.654 12.8852L11.7283 12.8311V12.9123C11.7013 12.9529 11.6269 12.9326 11.5931 12.9732C11.5525 13.0205 11.4714 13.2641 11.4308 13.3114C11.3835 13.3791 11.2686 13.3858 11.2686 13.3993C11.228 13.4602 11.3226 13.609 11.0725 13.6023L11.1198 13.7037L11.0522 13.7308C10.9981 13.6226 10.7073 13.7849 10.5924 13.812C10.5451 13.8187 10.5045 13.7781 10.4504 13.7849C10.3963 13.7917 10.3287 13.8661 10.234 13.8796C10.0785 13.8999 9.91622 13.812 9.75394 13.8458L9.68632 13.7984C9.6728 13.6226 9.53082 13.6226 9.44291 13.5008L9.53082 13.4399L9.40912 13.352L9.51054 13.3046L9.41586 13.1085C9.55109 13.0543 9.75396 13.0476 9.87567 12.9529C9.93652 12.9055 9.93652 12.7905 9.99737 12.7567C10.092 12.7094 10.207 12.8041 10.2611 12.7905C10.2746 12.7905 10.4301 12.6755 10.4369 12.662C10.4572 12.6349 10.4707 12.4997 10.4977 12.4591C10.7817 11.9923 10.8223 11.8029 10.9846 11.3159C11.228 10.5718 11.1333 9.78032 10.9508 9.0024C10.9237 8.89417 10.9575 8.73859 10.9372 8.66418C10.9034 8.56948 10.7749 8.54242 10.9169 8.45448C10.7817 8.40713 10.8426 8.35979 10.8155 8.25833C10.775 8.12304 10.8155 8.13655 10.802 8.11626C10.7885 8.07567 10.66 7.87274 10.6262 7.82539L10.7209 7.76451L10.5789 7.71038L10.6803 7.58187C10.6803 7.54805 10.633 7.60217 10.6059 7.58187C10.5112 7.49394 10.5113 7.16923 10.4639 7.0407C10.4234 6.92571 10.2678 6.79718 10.3152 6.62131L10.2273 6.60101L10.3016 6.5063H10.2205C10.2678 6.37777 10.1394 6.04633 10.065 5.93133C10.0109 5.8434 9.95681 5.80957 9.87567 5.76222L9.95004 5.66074L9.81479 5.54575C9.96355 5.45105 9.64576 5.21429 9.74043 5.03164L9.61196 5.01135C9.61196 4.80842 9.47673 4.67313 9.40912 4.48372L9.32796 4.56489C9.26034 4.49048 9.355 4.49049 9.34824 4.44314C9.33472 4.30785 9.19949 4.16579 9.15892 4.03726L9.09807 4.08462C9.04397 4.02374 9.14541 4.01698 9.13189 3.98315C9.09132 3.81404 8.82761 3.46229 8.72619 3.28641C8.61124 3.097 8.50305 2.71143 8.25963 2.71819L8.30697 2.637C8.15145 2.56936 8.19878 2.42731 8.15145 2.34613C8.13116 2.31231 8.05679 2.29879 8.02974 2.26496C7.90803 2.12291 7.82688 1.89969 7.59699 1.98087C7.55642 1.90646 7.7187 1.94704 7.65784 1.85234C7.59699 1.75764 7.48882 1.77115 7.46177 1.75086C7.45501 1.74409 7.34005 1.59528 7.32653 1.58851C7.29272 1.56822 7.17101 1.63587 7.13044 1.54793L7.16426 1.66968L7.06284 1.69675C7.09665 1.78469 7.00874 1.85234 6.99522 1.89292C6.8397 2.65731 6.92759 3.442 7.11015 4.24021C7.1372 4.34844 7.20483 4.43638 7.22511 4.55814C7.23863 4.63931 7.18455 4.66637 7.19131 4.68667C7.20483 4.72049 7.31301 4.85576 7.32653 4.90312C7.33329 4.93694 7.34006 5.22781 7.38063 5.32251C7.39416 5.35633 7.46176 5.36988 7.47529 5.424C7.48881 5.48488 7.44825 5.60663 7.46177 5.66751C7.48205 5.74192 7.67138 5.97192 7.69166 6.14103C7.69842 6.19515 7.64432 6.26279 7.65784 6.28308C7.65784 6.29661 7.74576 6.32366 7.77957 6.38454C7.84042 6.49954 7.87423 6.74984 7.92832 6.88513C8.39487 8.11627 9.07103 9.39475 9.15217 10.7206C9.15217 10.8153 9.2333 11.0453 9.12512 11.1197H9.20625L9.23331 11.1873C9.10484 11.2753 9.17244 11.485 9.15892 11.6135C9.1454 11.7353 9.10484 11.9991 9.07104 12.1073C9.06427 12.1411 8.90875 12.4726 8.89523 12.4861C8.8479 12.5403 8.75999 12.5335 8.71942 12.5944C8.69237 12.4861 8.61125 12.547 8.56391 12.4455C8.34754 11.9923 8.23258 11.4512 8.02297 10.9979C8.01621 10.9776 8.0703 10.9641 8.06354 10.9303C8.05002 10.795 8.04326 10.6732 7.94184 10.5718H8.02297C7.93507 10.3418 7.92831 10.0847 7.87422 9.84122C7.81336 9.58417 7.62405 9.23916 7.69843 9.0024C7.50234 9.0024 7.50233 8.68447 7.44823 8.55594C7.35357 8.30566 7.23864 8.06215 7.14397 7.81187H7.02227C7.02227 7.81187 7.09664 7.7442 7.09664 7.71038C7.09664 7.58862 7.00198 7.68334 6.97493 7.62246C7.00198 7.6157 7.02902 7.60216 7.02902 7.56833C7.02902 7.52775 6.92761 7.176 6.85323 7.27746L6.83969 7.24365C6.9614 7.20306 6.80589 7.05424 6.81941 6.94601L6.71799 6.89865L6.77884 6.84453C6.71123 6.75659 6.67741 6.65512 6.6436 6.55366C6.26495 5.39693 5.81869 4.05756 5.7984 2.90083C5.7984 2.65054 5.85927 2.43409 5.85927 2.21086C5.85927 2.10939 5.73079 2.0688 5.88631 2.00116C5.7984 1.84558 5.93365 1.79146 5.96069 1.64264C5.98774 1.47353 5.99451 1.50058 6.02831 1.38559C6.10269 1.1353 5.97422 1.14206 6.23792 0.932356C6.30554 0.87824 6.43401 0.884997 6.44753 0.776765L6.50838 0.871478C6.69771 0.519724 7.06959 0.465618 7.43472 0.458853L7.47529 0.425018Z" fill="#6F7A58" stroke="#6F7A58" stroke-width="0.85" stroke-linecap="round" stroke-linejoin="round"/>
<path d="M3.35746 1.51411V1.59528C3.51298 1.48029 3.80372 1.37206 4.00657 1.36529C4.06066 1.36529 4.08094 1.41263 4.08771 1.41263C4.10799 1.41263 4.13505 1.345 4.16209 1.345C4.22971 1.345 4.41904 1.52764 4.52723 1.51411L4.43932 1.67646H4.52046C4.50694 1.75763 4.45284 1.91998 4.47312 1.99439C4.50017 2.08909 4.62865 2.10262 4.60836 2.22438C4.56103 2.27849 4.38523 2.27849 4.35142 2.30555C4.32437 2.32584 4.35143 2.3732 4.3379 2.39349C4.23648 2.52202 3.90516 2.54907 3.76316 2.61671C3.70907 2.64377 3.36422 2.94818 3.33041 2.98877C3.31013 3.00906 3.33042 3.03613 3.33718 3.05642L3.24251 3.02258L3.26279 3.08346C3.16813 3.0564 3.19519 3.2323 3.17491 3.24583C3.1411 3.27965 3.05995 3.24582 3.03967 3.27964C3.0329 3.29317 3.05319 3.34729 3.03967 3.37435C2.97881 3.46229 2.85034 3.52316 2.83006 3.65845L2.76921 3.60434C2.74892 3.64493 2.76921 3.68551 2.74892 3.71933C2.60017 4.0102 2.34999 4.27402 2.20123 4.56489C2.01867 4.91665 1.95781 5.43752 1.78877 5.75545C1.71439 5.8975 1.47773 5.8772 1.59944 6.0869L1.74143 6.03957C1.72791 6.1478 1.67382 6.25602 1.66029 6.36425C1.57915 6.89188 1.56563 7.69009 1.68058 8.2042C1.70086 8.28537 1.83609 8.35302 1.72115 8.50861L1.74143 8.55594H1.86315L1.82259 8.7386L1.93752 8.80625L1.84287 8.86713C1.86315 8.92801 1.94428 8.86712 1.97809 8.90771C1.99837 8.93477 1.98486 9.07006 2.00514 9.1377C2.05247 9.27299 2.12685 9.50297 2.2418 9.57062L2.17418 9.68563L2.28237 9.65856L2.22827 9.72621L2.24855 9.77357C2.34997 9.71269 2.31618 9.80739 2.34999 9.85474C2.52579 10.0847 2.74216 10.3215 2.83006 10.5988L2.87739 10.5312L2.9653 10.8153L3.06672 10.7679C3.05996 10.9235 3.15461 10.9032 3.22222 10.9776C3.32365 11.0859 3.58736 11.4241 3.70231 11.512C3.73612 11.5391 3.88486 11.512 3.85781 11.6947L3.966 11.6676L4.02685 11.8976L4.14181 11.8029C4.18238 11.9923 4.42579 11.9179 4.41227 12.1209C4.58807 12.0667 4.69626 12.2967 4.79092 12.3508C5.37242 12.7229 6.10267 12.9867 6.56246 13.4196L6.68418 13.4535C6.63685 12.8176 6.48809 12.2156 6.27848 11.6203L6.16352 11.6338C6.21085 11.6473 6.21762 11.4444 6.21086 11.4309C6.17029 11.2956 6.05534 11.3159 6.05534 11.3024C5.98096 11.1197 6.00801 10.9235 5.8525 10.7206C5.83221 10.6868 5.75108 10.68 5.75108 10.6597C5.75108 10.6597 5.7984 10.6462 5.80516 10.6259C5.81868 10.565 5.63612 10.1997 5.52793 10.1794C5.62259 10.1118 5.45357 9.72621 5.33186 9.7465V9.55033H5.23719C5.20338 9.49621 5.24395 9.42858 5.2169 9.37446C5.1831 9.30005 5.02081 9.0633 4.93968 9.0836L5.03435 9.0227C4.93969 8.94829 4.94644 8.81301 4.90588 8.74537C4.83826 8.63714 4.66246 8.56272 4.73684 8.37331H4.6557C4.70303 8.19067 4.47988 8.02832 4.44607 7.90656C4.43255 7.85921 4.47989 7.78481 4.45961 7.73069C4.44608 7.68334 4.37847 7.64276 4.35819 7.58187C4.24324 7.24365 4.13505 6.84453 4.10124 6.49278L4.00657 6.47249C4.16885 6.36425 4.00659 6.27631 3.95926 6.18837C3.95249 6.17484 4.00657 6.15456 4.00657 6.10045C4.00657 6.03957 3.92543 5.95839 3.91867 5.92456C3.91867 5.8975 3.966 5.87721 3.966 5.83662C3.90515 5.13311 3.95248 4.88284 4.2838 4.24021C4.32437 4.15903 4.23647 4.11845 4.39199 4.09139C4.43932 3.84787 4.60836 3.74639 4.75712 3.57728C4.7774 3.65845 4.86531 3.73962 4.88559 3.80727C4.90588 3.86815 4.84502 3.88844 4.84502 3.92903C4.87207 4.43636 4.96672 4.95724 5.04786 5.45781C5.16957 6.24249 5.29805 7.02041 5.6226 7.75774C5.92011 8.42742 6.44751 9.17829 6.67064 9.85474C6.69093 9.91562 6.77207 9.88857 6.67064 9.96974C6.67741 10.0036 6.7315 9.94269 6.75855 9.96974C6.77883 9.9968 6.9952 10.4771 7.02901 10.565C7.37385 11.3632 7.63079 12.0532 7.74574 12.8988C7.75926 12.9867 7.8404 13.3046 7.82687 13.352C7.81335 13.3993 7.69165 13.4467 7.68488 13.5076C7.67812 13.5617 7.73221 13.6226 7.72545 13.6902C7.72545 13.7173 7.64431 13.8187 7.65783 13.8864L7.61052 13.8255L7.38737 13.954L7.15748 13.8729V13.7984L7.04254 13.8526L7.13043 14.0961C7.02224 14.0623 7.00872 14.2043 6.96139 14.2111C6.92758 14.2178 6.88025 14.1434 6.85997 14.1434C6.84644 14.1434 6.80589 14.2043 6.76532 14.2111C6.63008 14.2449 6.42722 14.2449 6.28523 14.2381C5.85925 14.2111 5.21015 14.0014 4.79769 13.7714C4.70302 13.7173 4.61512 13.5752 4.52046 13.609L4.56103 13.5279C4.42579 13.5346 4.19589 13.4129 4.08771 13.3249C4.06066 13.3046 4.07419 13.2437 4.05391 13.2302C4.03362 13.2167 3.91191 13.2302 3.85781 13.1896V13.0341L3.72934 13.1288C3.72934 13.0476 3.6685 13.0476 3.74288 12.9799C3.65498 12.9799 3.59412 12.8717 3.55355 12.8582C3.51299 12.8447 3.45212 12.8785 3.41155 12.8582C3.34393 12.8311 3.13432 12.5741 3.01261 12.547L3.07347 12.4997L3.02615 12.3982L2.89091 12.4591L2.86386 12.3103L2.81654 12.3711L2.44464 11.9991L2.51226 11.9517C2.57312 11.8503 2.42435 11.8976 2.35674 11.8638C2.29588 11.8367 2.25531 11.7826 2.20798 11.7488L2.26885 11.6203C2.19448 11.6744 1.99839 11.6203 2.05248 11.4985C2.066 11.4647 2.12685 11.4579 2.09305 11.4173L1.95781 11.4782C1.98485 11.3497 1.86315 11.3632 1.81582 11.3024C1.78201 11.2618 1.78877 11.2076 1.75497 11.1671C1.6603 11.0385 1.61297 10.9574 1.53859 10.8559C1.51154 10.8221 1.45069 10.8018 1.43717 10.7747C1.41688 10.7206 1.53182 10.653 1.38307 10.68L1.36955 10.4838C1.22756 10.4838 1.18024 10.3891 1.2749 10.2877C1.1329 10.2741 1.18699 10.1456 1.13966 10.0712H1.05175L1.06527 9.92239H0.984133C1.05175 9.92239 1.04499 9.71269 1.03147 9.6721C1.02471 9.64505 0.977373 9.67886 0.943565 9.66533C0.788048 9.57063 0.815105 9.21211 0.679873 9.09035H0.761009C0.686632 8.93476 0.59873 8.76566 0.612253 8.58978C0.612253 8.54919 0.754235 8.46802 0.558149 8.48154C0.64605 8.2989 0.497295 8.21097 0.537865 8.00127L0.436445 7.96744C0.564915 7.81862 0.470252 7.6495 0.456729 7.48039C0.456729 7.44657 0.510827 7.42628 0.504065 7.40599C0.463495 7.31805 0.348548 7.35187 0.504065 7.27069L0.429697 6.97982H0.510833C0.45674 6.88512 0.490542 6.7363 0.504065 6.61453C0.537873 6.26955 0.666334 5.9178 0.727189 5.58634C0.747474 5.47811 0.666346 5.3834 0.781293 5.39693C0.781293 5.29546 0.889475 5.13311 0.882713 5.03164C0.882713 4.97076 0.8151 4.95047 0.821861 4.90312C0.828623 4.85576 0.916519 4.86929 0.943565 4.81517C0.96385 4.76106 0.930042 4.69343 0.943565 4.6596C1.0247 4.42961 1.18699 4.1996 1.28841 3.9899C1.3087 3.94255 1.34251 3.73287 1.37632 3.69228C1.40336 3.6517 1.47773 3.65169 1.49125 3.62464C1.49801 3.60434 1.45746 3.56375 1.46422 3.53669C1.47098 3.50964 1.74144 3.11729 1.77525 3.06994C1.93753 2.84671 2.14713 2.6776 2.29589 2.45437C2.34322 2.38672 2.41085 2.30555 2.49875 2.21761C2.59341 2.1229 3.24928 1.52764 3.31689 1.53441L3.35746 1.51411Z" fill="#6F7A58" stroke="#6F7A58" stroke-width="0.85" stroke-linecap="round" stroke-linejoin="round"/>
<path d="M3.68202 20.5021C3.83077 20.333 3.83752 20.4277 3.91866 20.4344C4.37169 20.4683 4.56102 20.5629 4.98024 20.6915C5.08166 20.7253 5.35212 20.7118 5.41974 20.8471C5.44002 20.8876 5.33184 20.8741 5.37917 20.9282C5.46031 20.8471 5.5144 20.82 5.60906 20.9012L5.55498 20.9621C5.59555 20.9418 5.64289 20.9282 5.69022 20.9418C5.89306 20.9824 6.21762 21.1447 6.40695 21.2529C6.79236 21.4694 7.56318 21.9362 7.90802 22.2473C8.11763 22.4367 8.61123 22.7073 8.92226 22.9102C9.10483 23.032 9.32118 23.2417 9.49698 23.3499C9.5646 23.3905 9.63899 23.377 9.67956 23.404C10.2678 23.8505 11.2144 24.0805 12.0123 24.1955C12.0664 24.2023 12.1137 24.1617 12.1813 24.182C12.2151 24.1955 12.6749 24.5608 12.702 24.5946C12.8778 24.7908 12.7561 24.8314 12.7764 25.0005C12.7831 25.0816 12.8643 25.2711 12.8575 25.359C12.8575 25.4266 12.8372 25.5619 12.7764 25.5619C12.7764 25.5619 12.8169 25.4334 12.7155 25.5078L12.7358 25.7243L12.5735 25.7784C12.5938 25.8799 12.4924 25.8663 12.4248 25.9272H12.587L12.276 26.0354L12.3571 26.1166C12.2422 26.1978 12.2152 26.1098 12.1273 26.1437C12.1881 26.2857 11.8568 26.3466 11.7418 26.4007C11.3429 26.5901 11.2212 26.6172 10.8358 26.6984C10.6938 26.7254 10.5586 26.7728 10.4233 26.8201V26.7389C10.3354 26.7795 10.234 26.8134 10.1393 26.8269C10.0041 26.8472 9.98383 26.8066 9.78775 26.8472C9.57814 26.8945 9.09805 26.8201 8.84111 26.8066C8.80054 26.8066 8.76673 26.8539 8.73969 26.8472C8.67883 26.8336 8.67207 26.7119 8.55036 26.8742C8.53008 26.8404 8.51655 26.7728 8.48274 26.7525C8.46246 26.739 8.09058 26.7322 8.00944 26.7186C7.69165 26.6713 7.0831 26.5969 6.80588 26.4954C6.69093 26.4548 6.69768 26.3669 6.69092 26.3669C6.65711 26.3669 6.60302 26.421 6.52188 26.4007C6.33932 26.3669 5.51441 26.0896 5.34537 25.9949C5.28451 25.961 5.23719 25.9407 5.24395 25.8596L5.07491 25.934C5.05462 25.819 4.81796 25.7581 4.70301 25.6972C4.44607 25.5619 4.18914 25.4063 3.9322 25.2508C3.89163 25.2305 3.87811 25.1561 3.85106 25.1425C3.8443 25.1425 3.69554 25.1493 3.66174 25.1425L3.68877 25.0275C3.49268 25.0478 3.50621 24.7569 3.28983 24.8652L3.22898 24.6555C2.97204 24.7502 3.0329 24.4999 2.95852 24.3984C2.93824 24.3781 2.88414 24.3984 2.85033 24.3781C2.79624 24.3511 2.80301 24.2496 2.68806 24.3375L2.72186 24.2428L2.6475 24.2564C2.6475 24.2564 2.68129 24.1075 2.59339 24.2225C2.57987 24.0873 2.5393 24.0399 2.43112 23.9655C2.30941 23.8776 2.40406 23.9452 2.31616 23.8167C2.24855 23.7152 2.16065 23.6205 2.08627 23.5258C2.05922 23.492 2.05923 23.4311 2.05247 23.4311C2.0119 23.4311 1.96457 23.5123 1.90371 23.4176C1.86991 23.3634 1.9037 23.3093 1.89018 23.2823C1.86989 23.2485 1.78877 23.262 1.78201 23.1943L1.86989 23.1335C1.78875 23.0523 1.82258 22.9035 1.67382 22.9644L1.71439 22.8832C1.68734 22.7547 1.64 22.8088 1.57915 22.7682C1.6941 22.7344 1.59267 22.6667 1.57915 22.5923C1.57239 22.5517 1.6603 22.5449 1.61297 22.4908L1.45745 22.5044C1.42364 22.457 1.49125 22.4638 1.49801 22.4164C1.49801 22.3285 1.45743 22.2676 1.40334 22.2067H1.32221C1.49125 22.0985 1.23432 21.9226 1.27489 21.7467C1.27489 21.74 1.34926 21.7467 1.34926 21.7061C1.34926 21.652 1.30193 21.6182 1.28841 21.5506C1.26812 21.3747 1.36955 21.1176 1.37631 20.935C1.56564 20.8809 1.70762 20.6577 1.86989 20.5765C2.08627 20.475 2.09979 20.5021 2.33645 20.36C2.72862 20.1165 3.19517 20.4074 3.62792 20.36L3.66848 20.5021H3.68202ZM4.08095 24.067C4.08095 24.067 4.14856 24.0399 4.20266 24.0737C4.57454 24.3105 4.95997 24.5878 5.31157 24.7705C5.37242 24.8043 5.45356 24.7367 5.43327 24.8922C5.60231 24.7705 5.62935 24.9125 5.71725 24.9463C5.98095 25.0546 6.22438 25.156 6.50836 25.244C7.69165 25.616 9.355 25.9137 10.5856 25.704C10.6668 25.6904 11.1806 25.5146 11.1942 25.4807C11.1942 25.4672 11.1806 25.4334 11.1739 25.4199L11.2077 25.4063C11.1941 25.4875 11.3429 25.4266 11.3835 25.4063C11.397 25.3996 11.4038 25.2372 11.539 25.2575C11.4038 25.0343 11.0454 25.2981 10.9913 25.0275L10.7614 25.129C10.7614 25.129 10.7073 25.0546 10.6803 25.0411C10.3963 24.899 10.0041 24.899 9.74041 24.7705C9.67956 24.7434 9.67956 24.6284 9.55785 24.7231C9.51729 24.5811 9.18597 24.4931 9.05073 24.4052C9.01016 24.3781 8.97634 24.3172 8.94929 24.2834L8.90198 24.3443C8.86817 24.1955 8.74646 24.1887 8.66532 24.1278C8.49628 23.9993 8.3137 23.8573 8.12438 23.7287C7.98238 23.634 7.80659 23.5529 7.66459 23.4446C7.65107 23.4311 7.60373 23.4514 7.59697 23.4311C7.58345 23.3973 7.60374 23.3229 7.57669 23.3093C7.42117 23.2214 7.25889 23.1335 7.1507 23.0658C6.98843 22.9711 6.91406 22.89 6.78559 22.802C6.61655 22.687 6.31227 22.572 6.26494 22.3758C6.11618 22.4976 6.08914 22.3555 5.95391 22.2811C4.99376 21.7332 3.89162 21.4559 2.78948 21.3612C2.71511 21.3612 2.59339 21.3544 2.53254 21.4018L2.46492 21.307C2.33645 21.4762 2.53253 21.625 2.46492 21.8144C2.64072 21.7873 2.55282 21.9497 2.57311 22.0106C2.60691 22.112 2.84358 22.315 2.78948 22.5111C2.91119 22.4908 2.85033 22.5653 2.90442 22.6532C3.18164 23.0861 3.36421 23.3093 3.72934 23.6543C3.824 23.7423 3.89163 23.7693 3.95925 23.837C4.01334 23.8911 4.10123 24.0467 4.11475 24.0534L4.06742 24.0737L4.02685 24.209L4.1418 24.1143L4.11475 24.0467L4.08095 24.067Z" fill="#6F7A58" stroke="#6F7A58" stroke-width="0.85" stroke-linecap="round" stroke-linejoin="round"/>
<path d="M4.22294 18.121C4.48664 18.1007 4.83148 17.9383 5.12899 17.8571C5.80515 17.6745 6.56245 17.5527 7.28594 17.4377C7.34004 17.431 7.50908 17.3566 7.52261 17.3566C7.58346 17.3566 7.6308 17.4377 7.67813 17.4242C7.84717 17.3904 7.94182 17.2957 8.15143 17.3092C8.17171 17.3092 8.21905 17.3904 8.30695 17.3092L8.32047 17.3836C8.41513 17.2619 8.48275 17.3836 8.55713 17.3701C8.5977 17.3701 8.63152 17.3024 8.69237 17.3092C8.75322 17.316 8.82083 17.4107 8.91549 17.3904L8.93578 17.3025C8.96959 17.4175 9.08452 17.3025 9.1589 17.316C9.20623 17.3227 9.213 17.4039 9.22652 17.4107C9.24004 17.4107 9.28062 17.3566 9.32119 17.3498C9.355 17.3498 9.92973 17.4648 9.99059 17.4783C10.1055 17.5121 10.0988 17.6271 10.1934 17.4851C10.2205 17.6339 10.3557 17.546 10.4707 17.5663L10.5653 17.7557L10.7276 17.6407C10.7817 17.7624 10.9169 17.6813 10.9845 17.7354C10.9981 17.7489 10.9845 17.7963 10.9845 17.803C10.9981 17.803 11.1739 17.7895 11.2685 17.8504C11.3091 17.8707 11.4917 18.0127 11.4984 18.0533L11.5999 18.0127V18.1751C11.7486 17.9924 11.8635 18.1751 11.8838 18.3645C11.9717 18.2562 12.0529 18.4321 12.1949 18.378V18.5201L12.3571 18.5133C12.3774 18.6621 12.5059 18.6689 12.4653 18.8245L12.5803 18.7298L12.6411 18.9462L12.702 18.8989C12.702 19.0815 12.8845 19.068 12.8981 19.0883C13.0942 19.3656 13.3849 19.9068 13.3917 20.2044C13.3917 20.2653 13.466 20.5156 13.5337 20.4277L13.5472 20.4615C13.412 20.5426 13.5742 20.7118 13.5945 20.8538C13.6216 21.05 13.5945 21.4694 13.5134 21.652C13.4863 21.7129 13.4119 21.767 13.4052 21.7873C13.4052 21.7941 13.4661 21.8414 13.4458 21.9091C13.4323 21.9497 13.0874 22.4367 13.0333 22.4908C12.9995 22.5246 12.8643 22.6599 12.8169 22.7141C12.7426 22.7952 12.5532 22.8493 12.6073 22.9576L12.5262 22.9102C12.4924 23.0117 12.2422 23.0793 12.2152 23.1064C12.2016 23.1199 12.2287 23.1673 12.2016 23.1876C12.1137 23.2552 11.9717 23.2146 11.9582 23.3432L11.8974 23.2958L11.8162 23.377L11.7418 23.3229C11.5728 23.4852 11.1671 23.5123 10.9305 23.5055C10.7682 23.5055 10.3625 23.4582 10.3895 23.2417L10.261 23.3093C10.1393 23.2282 10.0582 23.0726 9.90268 23.0658V22.9508H9.80803L9.83506 22.8358C9.83506 22.8358 9.78098 22.8629 9.76069 22.8426C9.60518 22.7344 9.42938 22.4773 9.32119 22.4164C9.28739 22.3961 9.22652 22.4164 9.18595 22.3826C9.14538 22.342 9.13862 22.1661 9.11833 22.1594L9.0372 22.2405C8.94254 22.1323 8.99662 22.0714 8.84111 22.0647L8.82082 21.9361L8.72617 21.97C8.65179 21.8279 8.44218 21.8279 8.44894 21.6588H8.29342L8.27313 21.537C8.11762 21.625 8.02973 21.4423 7.90802 21.3679C7.7525 21.2732 7.42119 21.1988 7.42119 21.0026L7.34005 21.0838C7.28596 20.9079 7.08309 20.9553 7.04928 20.935C6.97491 20.8876 7.02224 20.7727 6.83968 20.8335L6.81262 20.7253C6.75853 20.82 6.55569 20.7659 6.58273 20.6712L6.48131 20.7185V20.6374C6.42046 20.6779 6.06211 20.5629 6.00801 20.5291C5.94716 20.4885 5.97419 20.4074 5.94714 20.3532C5.83895 20.4953 5.68345 20.4344 5.54146 20.3803C5.33861 20.2991 5.0952 20.2856 4.84502 20.2383C4.56103 20.1841 4.2297 20.0962 3.92543 20.0353C3.83076 20.015 3.5806 20.0624 3.47241 20.0083C3.36423 19.9541 3.47241 19.8662 3.27632 20.0015L3.1749 19.8662C3.07347 19.8932 3.1749 20.0421 3.00586 19.9812C2.84358 19.873 2.86386 19.6159 2.70158 19.5347C2.64749 19.5077 2.53931 19.5618 2.53931 19.4536C2.53931 19.3792 2.70834 19.2912 2.76243 19.2439L2.65424 19.1897C2.64072 18.8921 2.96529 18.953 3.1749 18.8042C3.29661 18.7162 3.49268 18.4659 3.60086 18.4118C3.66172 18.378 4.17562 18.1412 4.20942 18.1345L4.22294 18.121ZM6.23114 18.723C6.04857 18.7568 5.81867 18.8583 5.62934 18.9056C5.5144 18.9395 5.41974 18.8786 5.29803 19.0206C5.37917 19.0612 5.39946 19.0747 5.40622 19.1694C5.53469 18.9936 5.5482 19.1086 5.62934 19.1221C5.77134 19.1492 5.89981 19.183 6.03504 19.2236C5.88629 19.3048 6.1838 19.3927 6.24465 19.3724C6.28522 19.3589 6.3258 19.2845 6.37989 19.2912C6.39342 19.2912 6.43398 19.3453 6.48131 19.3589C6.62331 19.3994 6.77206 19.4197 6.9073 19.4874V19.6092L7.029 19.6295V19.5077C7.1169 19.5077 7.28595 19.6836 7.313 19.6903C7.3468 19.6971 7.38736 19.6565 7.40765 19.6565C7.42793 19.6565 7.42793 19.9812 7.61726 19.758C7.65106 19.9136 7.73897 19.8865 7.8742 19.8865L7.90125 20.0286L8.05001 20.0015L8.09058 20.1841L8.14466 20.0827C8.28665 20.1774 8.26637 20.3059 8.48274 20.2518L8.44217 20.3329C8.60445 20.3735 8.65178 20.3938 8.67207 20.5697L8.78702 20.475L8.84787 20.6509L9.01691 20.6103L9.04397 20.7591L9.14539 20.7118C9.16567 20.8606 9.3009 20.9418 9.4429 20.9147L9.42938 21.0635L9.51052 20.9824C9.55109 21.1244 9.65928 21.1853 9.78775 21.2394L9.74041 21.3003C9.82831 21.3815 9.85535 21.4897 9.99059 21.4085C10.0582 21.4694 9.92297 21.5573 9.94325 21.5709C10.065 21.5709 10.0852 21.5844 10.1326 21.7061L10.2272 21.6656C10.2543 21.8347 10.3557 21.7941 10.4031 21.8347C10.5315 21.9429 10.5991 22.0308 10.6397 22.2C10.7884 22.0511 10.8223 22.1864 10.9372 22.2338C11.0589 22.2811 11.1874 22.2676 11.2753 22.342C11.3429 22.2541 11.4511 22.2608 11.539 22.2135C11.9109 22.0173 12.276 21.7264 12.4383 21.3273C12.4518 21.2935 12.4451 21.2462 12.4451 21.2056H12.5194C12.4788 20.962 12.4653 20.6847 12.3909 20.4344C12.3436 20.2788 12.1611 19.9136 12.0258 19.8797V19.7715L11.8703 19.7106V19.6159C11.7148 19.7377 11.5322 19.3656 11.4511 19.3183C11.397 19.2844 11.1806 19.2033 11.113 19.1965L11.0995 19.0883L10.944 19.1018L10.971 18.9868C10.7749 19.1424 10.7208 18.9327 10.545 18.9327L10.5315 18.8245C10.4909 18.838 10.4436 18.8448 10.4031 18.838C10.1461 18.8042 9.97707 18.7027 9.74041 18.6689C9.68632 18.6621 9.61194 18.6959 9.55109 18.6824C9.40233 18.6351 9.55109 18.6215 9.30091 18.6148C9.08454 18.6148 9.05748 18.5133 8.99663 18.4998C8.96282 18.493 8.90197 18.5471 8.85464 18.5471C8.70589 18.5471 8.47599 18.4862 8.30019 18.4862C8.13115 18.4862 7.86069 18.5471 7.69841 18.5404C7.61727 18.5404 7.58346 18.4727 7.56994 18.4727C7.56318 18.4727 7.49556 18.5404 7.41442 18.5674C7.04253 18.6621 6.56922 18.6689 6.23114 18.7365V18.723Z" fill="#6F7A58" stroke="#6F7A58" stroke-width="0.85" stroke-linecap="round" stroke-linejoin="round"/>
<path d="M17.7664 6.50631C17.834 6.49278 17.8273 6.49279 17.9355 6.4522C18.0437 6.41162 18.1518 6.43191 18.2533 6.39133V6.46573C18.3682 6.46573 18.5102 6.61456 18.5981 6.66867C18.6725 6.71603 18.7469 6.69573 18.8415 6.81749C18.9497 6.95278 18.8753 6.97308 18.8753 7.0069C18.8956 7.32483 18.8415 7.22336 18.7604 7.47365C18.6928 7.68335 18.659 7.83217 18.5711 8.06893C18.4088 8.48833 18.2533 8.93477 18.0572 9.30006C18.0369 9.34064 17.8814 9.39475 17.9828 9.55034C17.9422 9.59093 17.8949 9.43534 17.8543 9.53005C17.8543 9.54357 17.8949 9.65858 17.8814 9.70593C17.8611 9.80063 17.6853 9.90887 17.7664 10.0509H17.6988C17.7394 10.193 17.5027 10.193 17.6177 10.2741C17.4892 10.4771 17.4351 10.6936 17.3472 10.9168C17.0497 11.6947 16.7792 12.4523 16.3397 13.2099C16.2451 13.3791 16.049 13.5888 15.9678 13.724C15.9476 13.7511 15.9678 14.0149 15.8056 13.8661C15.6839 13.7579 15.7312 13.5685 15.7244 13.4467C15.6771 12.9326 15.7177 12.4997 15.8394 11.972C15.9002 11.7285 16.0084 11.5459 16.0557 11.3091C16.0963 11.0859 16.2315 11.0182 16.1977 10.8221H16.2721C16.1842 10.6394 16.475 10.3689 16.5088 10.22C16.5291 10.1321 16.4614 10.22 16.5629 10.0036C16.786 9.50976 17.0091 9.06331 17.2525 8.57627C17.2999 8.4748 17.3066 8.31245 17.381 8.21098L17.4757 8.28538L17.3675 8.09597C17.2255 8.20421 17.0294 8.53567 16.9145 8.6236C16.8063 8.69801 16.8604 8.62361 16.7657 8.73861C16.475 9.07684 16.1234 9.46917 15.8867 9.84798C15.7853 10.0103 15.7109 10.2471 15.5892 10.3959C15.5757 10.4162 15.5148 10.3959 15.5148 10.4162L15.596 10.4974L15.4337 10.5718L15.5216 10.5921C15.5283 10.7206 15.3796 10.7612 15.3728 10.7747C15.3593 10.795 15.3796 10.8491 15.3593 10.8897C15.2917 11.0182 15.1429 11.1806 15.2511 11.3024H15.1565C15.1159 11.3497 15.1565 11.5053 15.028 11.5256L15.1091 11.6068C14.9874 11.6338 15.0347 11.7082 15.0077 11.7759C14.9401 11.9314 14.8589 12.0667 14.9265 12.2561H14.8522C14.8589 12.3576 14.8522 12.4861 14.8454 12.5876C14.8386 12.6417 14.7846 12.6688 14.771 12.7297C14.771 12.7635 14.8319 12.9597 14.8184 12.9867C14.8049 13.0205 14.6561 13.0273 14.6899 13.1761C14.6967 13.2099 14.8116 13.2979 14.8319 13.352L14.7102 13.4196V13.5143H14.7913C14.6967 13.6361 14.8387 13.7849 14.7102 13.8593L14.8454 13.8932L14.8184 14.0082L14.8927 13.9946C14.8927 13.9946 14.8725 14.0623 14.8792 14.0961C14.9333 14.3058 15.0753 14.5155 15.0821 14.7522H15.1632L15.2173 14.8672H15.1362L15.2443 15.1378C15.1023 15.2866 15.0753 15.5302 14.9063 15.6519C14.7372 15.7737 14.6696 15.6046 14.4735 15.6993L14.46 15.5911C14.3045 15.6046 14.0002 15.2866 13.9732 15.1513C13.9664 15.104 14.0543 15.1175 14.0137 15.0634L13.8717 15.0296C13.8988 14.8943 13.8582 14.8537 13.7839 14.7522L13.8312 14.6846C13.6148 14.387 13.6486 14.0285 13.6757 13.6835C13.7027 13.3046 13.6892 12.7229 13.7839 12.3441C13.8109 12.2223 13.8988 12.175 13.9056 12.1547C13.9123 12.1209 13.8447 11.9856 13.865 11.8773C13.9258 11.5391 14.176 10.8288 14.3383 10.5041C14.9671 9.25947 15.7244 8.07569 16.8333 7.11513C16.8671 7.08808 16.9009 7.05425 16.9145 7.0069L16.9956 7.04748C16.9415 6.93249 17.0632 6.93926 17.1241 6.88514C17.3066 6.72956 17.5298 6.54691 17.7799 6.49279L17.7664 6.50631Z" fill="#6F7A58" stroke="#6F7A58" stroke-width="0.85" stroke-linecap="round" stroke-linejoin="round"/>
</svg>
