<svg width="91" height="74" viewBox="0 0 91 74" fill="none" xmlns="http://www.w3.org/2000/svg">
<path d="M2.86779 1.44646C3.00979 1.29765 3.46958 1.12177 3.64538 1.23677C3.90908 1.41264 3.63185 2.0147 3.79413 2.31234C4.07812 2.11617 4.8219 2.19058 4.80837 2.60998C4.80161 2.8738 3.99698 3.10375 3.81442 3.33375C4.38239 3.77344 4.96389 4.24696 5.5792 4.61225C5.72119 4.69342 6.03222 4.87608 6.16069 4.9302C6.31621 4.99785 6.58668 4.9302 6.66781 5.09931C6.74895 5.08578 6.72191 4.99785 6.70839 4.9302C6.59344 4.36875 6.47173 3.89522 6.92476 3.39465C7.29664 2.98201 7.48597 3.19848 7.68882 3.10378C7.89166 3.00907 7.82405 2.56938 8.42583 2.37997C8.94647 2.21762 8.89238 3.0023 8.98028 3.34729C9.41302 3.212 10.3258 3.12405 10.4814 3.67197C10.576 4.0102 9.66997 4.89636 9.44007 5.16017C9.71054 5.25487 10.123 5.84338 9.93367 6.08013C9.86605 6.16807 8.58135 6.44542 8.38526 6.67541L9.28455 7.27746C10.0757 7.85921 10.6436 8.67096 11.3266 9.35417C11.8404 9.86827 12.2056 9.8615 12.9155 9.84797L13.5849 10.0712C13.0846 9.40152 13.3618 8.10951 14.207 7.88629C14.322 7.85246 14.4504 7.94715 14.5586 7.86597C14.6871 7.7645 14.7547 7.4195 14.8832 7.30451C15.6675 6.601 15.8568 7.49394 15.8974 8.17715C16.2896 7.99451 17.4661 7.92008 17.5202 8.49507C17.554 8.87388 16.6682 9.87506 16.3031 10.0509C16.5736 10.1998 17.1145 10.7341 16.9455 11.0453C16.8305 11.2482 16.1543 11.255 15.8906 11.3768C15.6675 11.4782 15.4714 11.715 15.201 11.7759C15.8636 11.9315 15.9988 12.4185 16.4045 12.8176C16.533 12.9461 16.6953 13.007 16.817 13.1085C17.0469 13.3114 18.0949 14.3396 18.2842 14.3531C18.3519 14.3531 18.4398 14.1975 18.5953 14.2043C18.7643 14.2111 18.9334 14.4749 19.0956 14.4749C18.9334 14.1773 18.7981 13.8255 18.8793 13.4805C18.9334 13.2573 19.1565 12.9935 19.2241 12.777C19.3053 12.52 19.2241 11.945 19.4472 11.8705C19.6907 11.8097 19.7853 12.1006 19.9408 12.2359C20.2722 12.5267 20.6576 12.7567 20.9551 13.0882C21.1444 12.6553 21.6786 12.3373 22.1451 12.3306C22.2804 12.3306 22.8078 12.5267 22.8551 12.4388C22.7672 11.0859 23.0917 9.75327 23.1661 8.4139C23.1932 7.89979 23.0377 6.00575 23.2135 5.72164C23.3757 5.45782 23.7747 5.57281 24.0316 5.63369C24.7754 5.80957 25.4177 6.55367 26.033 6.99337C30.205 9.99681 32.7 12.1276 34.3431 17.3092C35.7224 21.6453 34.4648 26.7998 38.1972 30.2091L38.3527 30.1347L38.4879 30.5338L40.6246 32.597L40.273 30.6624C39.7861 29.6612 38.799 29.0592 38.2175 28.173C36.9395 26.1978 35.7562 23.4243 36.4594 21.0703C36.7434 20.1233 37.2844 19.5212 37.7374 18.6824C39.3534 15.6925 39.0559 12.1141 42.9911 10.9574C45.1549 10.3215 47.2983 11.1062 49.3335 10.8288C49.6108 10.7882 50.909 10.2674 50.7332 11.0115C50.6047 11.5391 48.9414 12.1952 48.4816 12.4658C48.1502 12.662 47.8392 13.0341 47.589 13.3317C46.4193 14.732 44.9993 16.8492 43.9581 18.3915C43.2075 19.4942 42.6598 20.4886 42.3353 21.8009C41.9093 23.4988 41.5104 25.8325 41.2669 27.5642C41.0776 28.9171 40.9965 30.3241 41.1655 31.6838C41.2264 32.1708 41.3075 33.1517 41.6185 33.4899C42.0175 33.9364 42.8965 34.6128 43.3901 35.0322C44.1947 35.7155 45.0872 36.3175 45.8513 37.0481C45.8986 37.0616 46.1082 36.3919 46.1488 36.304C47.7175 33.2329 48.2652 29.8168 51.0172 27.3275C54.4115 24.2496 57.9884 24.7637 62.113 24.4458C62.7553 24.3984 65.4261 23.9452 65.8183 24.2834C66.1834 24.6014 65.656 24.7772 65.5073 24.899C65.3788 25.0072 65.2842 25.156 65.1692 25.244C64.6688 25.6228 64.1076 25.9272 63.5329 26.1707C63.5802 26.3263 63.6817 26.4345 63.7831 26.5563C64.6012 27.4898 65.8724 28.3218 66.7582 29.35C68.4959 31.3591 69.3749 33.6388 69.3276 36.2972L70.9098 33.9905C73.087 31.3253 76.0622 29.4853 78.6045 27.2666C79.4091 26.5631 80.0853 25.5957 81.086 25.129C81.2889 25.0343 81.5458 24.9193 81.6472 25.1696C81.6946 25.3522 81.3227 25.6296 81.2077 25.7851C80.7817 26.3872 80.7953 28.4166 80.6533 29.2756C80.4504 30.5 80.0921 31.9206 79.5444 33.0299C79.3077 33.5102 78.8614 34.0852 78.6789 34.5316C78.5707 34.8022 78.591 35.2216 78.449 35.5125C80.3828 34.7549 82.1949 34.9037 84.1693 35.296C85.711 35.6004 87.7597 35.9387 88.8686 37.1022C89.1932 37.4404 89.9031 38.3401 90.0925 38.7392C90.4103 39.4156 89.3419 38.8947 89.1594 38.8542C86.9416 38.4077 85.4675 40.0109 83.6216 40.9038C82.5533 41.4179 81.4106 41.6141 80.3355 42.1823C77.3671 43.7517 73.8443 45.7743 72.634 49.1159C72.3906 49.7992 72.3703 50.665 72.0931 51.3076C71.9849 51.5647 71.2479 52.6538 71.2479 52.7688C71.302 52.9514 71.3358 53.1679 71.4034 53.3438C72.0255 55.0619 74.6895 57.6189 76.2447 58.5659C77.2319 59.168 78.1515 59.6888 79.1319 60.3315C79.5444 60.602 80.5789 61.0621 80.7479 61.4612C80.9508 61.9414 80.3287 61.9211 80.0244 61.8602C78.8006 61.637 75.954 59.5671 74.7301 58.8636C74.2771 58.5998 73.7835 58.4239 73.3237 58.1601C70.9166 56.7734 68.4959 55.204 66.0415 53.9255C65.9536 53.8781 65.9197 53.824 65.8183 53.9052C65.8859 54.6357 65.8386 55.3731 65.913 56.1036C66.2105 58.8839 67.5966 63.4432 65.9062 65.8987C64.324 68.2054 60.2873 69.8153 59.2325 71.9055C58.9621 72.4331 59.2596 72.237 59.3001 72.3994C59.3542 72.6023 58.8471 72.4535 59.0432 72.8526C58.8471 73.1908 58.1777 72.5008 58.0222 72.3385C53.5325 67.7927 55.8652 58.6606 60.7133 55.2107L62.735 53.8037C62.2211 53.9796 61.6937 54.1149 61.1799 54.2908C57.7653 55.4475 54.425 57.1522 50.7264 56.9763C46.9332 56.8004 43.9986 55.0754 40.6246 53.6143C39.1844 52.992 37.7915 52.2208 36.1755 52.5591C35.9117 52.6132 35.6683 52.8161 35.3573 52.7958C34.5053 52.7484 34.7352 51.6053 34.8569 51.0574C35.1883 49.5827 36.0943 48.4056 37.1694 47.3842C38.542 46.0854 40.3474 44.8949 41.9837 43.8599C43.9581 42.6152 46.0068 41.4585 48.2382 40.7415C48.2179 40.6603 48.1773 40.6265 48.1164 40.5724C47.7581 40.2341 47.0819 39.72 46.6695 39.4156C46.257 39.1112 45.8513 38.7189 45.3374 38.9556C44.7897 39.2127 44.188 39.8621 43.62 40.1936C42.4705 40.87 41.0844 41.0526 40.016 41.8779C39.1573 42.5408 38.657 43.4946 37.9876 44.2996C34.5459 48.4665 30.6242 51.4091 25.4989 53.249C23.3352 54.027 21.2864 54.3246 19.3999 55.7722C19.1024 55.9954 18.4127 56.9695 18.1423 56.2863C18.0476 56.036 18.5682 54.7575 18.7035 54.4734C19.738 52.3697 21.7732 50.2727 23.4501 48.6289C26.3779 45.7675 31.1786 41.3773 35.2626 40.7076C36.9801 40.4303 38.7787 40.9173 40.4691 40.5521C42.1595 40.1868 43.4847 39.2195 44.5396 37.826C43.9445 37.4742 43.4509 36.8383 42.91 36.4528C42.7274 36.3242 41.6591 35.8575 41.4698 35.8439C41.2399 35.8237 41.1385 35.959 40.9491 35.9928C39.3331 36.304 38.2851 36.304 36.7434 37.109C34.0185 38.5295 31.3206 40.5386 28.6092 41.8441C25.8031 43.197 22.7131 42.967 19.7718 42.25C18.1828 41.8644 16.7494 41.0459 15.1942 40.5453C14.944 40.4641 13.8486 40.2409 13.7743 40.1597C13.7202 40.0921 13.6796 40.0177 13.6661 39.9365C13.639 39.7268 14.6871 38.9421 14.8967 38.7256C16.9252 36.6489 18.2166 33.8755 20.4547 31.9882C24.8295 28.3016 30.4078 29.7221 35.0395 31.9949C36.6623 32.7932 38.3121 33.9702 39.9417 34.6534C40.0701 34.7075 41.0573 35.0931 41.1047 34.9578L39.1167 33.0773C37.1086 31.4065 35.2356 29.7085 32.7338 28.7886C31.2462 28.2407 29.2448 28.9239 27.7167 29.1336C22.9768 29.7897 18.9604 28.4368 14.3896 28.3218C12.6789 28.2745 10.8803 29.0186 9.12228 28.5045C8.71658 28.3827 7.84433 28.0715 8.04718 27.5236C8.66925 27.0569 9.29808 26.5901 9.88634 26.076C11.7255 24.4525 13.0575 22.8223 15.2686 21.5641C16.6479 20.7794 18.1693 20.2721 19.6704 19.8392L19.5149 19.0004C19.1294 19.2236 18.7238 19.3115 18.2775 19.3183C18.0611 19.3183 17.7839 19.2236 17.5743 19.2574C17.2294 19.3115 16.7967 19.6836 16.6817 19.068C16.5127 18.1683 18.5344 16.8222 19.3999 16.9237C19.4878 16.6734 17.2362 15.2799 16.9387 15.0634C16.2017 14.5223 15.4782 13.9473 14.7885 13.352C14.3625 13.5481 13.9365 13.582 13.497 13.4061L13.4091 13.4467C13.5038 14.069 12.8817 14.1908 12.6315 14.644C12.4693 14.9349 12.4557 15.6452 12.1447 15.6925C11.5429 15.5572 11.3807 14.7455 11.3266 14.2111C11.3063 13.954 11.428 13.7308 11.3063 13.5008C10.9547 13.5008 10.7383 13.8458 10.4476 13.7849C10.1095 13.609 10.2988 12.7635 10.4678 12.4794C10.8397 11.8503 11.5835 11.7218 12.2191 11.5188C12.1853 11.4647 12.1312 11.5594 12.0636 11.4985C11.4888 11.0115 10.9885 10.4297 10.4137 9.94268C9.87958 9.48269 9.16961 8.92124 8.60163 8.50184C8.4664 8.40037 8.14184 8.17713 7.98633 8.19743C7.86462 8.21096 7.74967 8.31242 7.62796 8.32595C7.28312 8.38007 7.02618 8.35301 6.70162 8.23801C6.89095 8.81976 6.24183 8.94154 6.0187 9.31359C5.87671 9.55034 5.79557 9.96298 5.78881 10.2403C5.55891 10.4365 5.42368 10.3688 5.23436 10.1862C4.72047 9.68562 4.66638 8.98211 4.84894 8.32595C4.72724 8.41389 4.54467 8.34626 4.43648 8.38008C4.14574 8.47478 3.90232 8.9483 3.76709 8.21097C3.58452 7.20982 4.68666 6.61456 5.51834 6.4928C5.26816 6.31016 5.03151 6.01926 4.88275 5.74868C4.78133 5.5728 4.77456 5.34282 4.70695 5.24811C4.57172 5.05871 3.73328 4.69343 3.61157 4.32815C3.41548 4.59873 3.65214 4.9099 3.23292 5.04519C3.11797 5.07224 2.61761 4.4296 2.59733 4.26725C2.19839 4.56489 1.86031 4.4905 1.43433 4.53785C1.2991 4.55138 1.07597 4.69345 0.981306 4.63933C0.751412 4.50404 0.91369 3.87491 1.06244 3.71256C1.00159 3.4758 -0.31016 2.92788 1.01511 2.79259C1.0354 2.71142 -0.00588801 1.79824 0.690557 1.76442C1.04216 1.74412 1.50871 1.8997 1.8806 1.71029C1.69804 1.29089 1.69127 0.770008 2.00907 0.425018L2.20516 0.465604C2.34715 0.898532 2.79342 1.00679 2.9016 1.46678L2.86779 1.44646ZM2.6379 1.93353C2.62438 1.41943 2.42153 1.23001 2.0564 0.905313C1.98879 1.20972 2.00907 1.49383 2.18487 1.75765L2.408 1.42619C2.44857 1.43972 2.44181 1.96735 2.6379 1.92676V1.93353ZM2.75961 3.02261C2.52295 2.16351 1.81974 1.8997 1.02864 2.2244L1.69127 2.83318L1.67099 2.61671L1.93469 2.53554L2.76637 3.02938L2.75961 3.02261ZM3.42224 1.50059C2.92189 1.64941 2.91512 2.31908 3.00979 2.75201L3.42224 2.56935V1.49382V1.50059ZM1.21796 2.96848L0.933975 3.09701C0.751412 3.212 1.46138 3.52995 1.60337 3.32025L1.16387 3.17818L1.21796 2.96171V2.96848ZM1.84679 3.5164C1.46814 3.66522 1.04892 3.80729 1.14358 4.29434C1.63718 4.11169 2.24573 4.3349 2.46886 3.71933C2.41477 3.60433 1.86708 3.86818 1.71156 3.87494C1.5628 3.67877 1.88736 3.65168 1.84679 3.50963V3.5164ZM4.32154 2.46114L3.91584 2.56935L4.28097 2.63025L4.31478 2.46114H4.32154ZM4.99094 4.74077C4.72047 4.49049 4.40944 4.28757 4.12545 4.04405C3.99022 3.92906 3.49662 3.33376 3.36139 3.42846C3.22616 3.52316 3.46281 3.75994 3.52367 3.82758C3.6589 3.9764 4.80837 5.15341 4.98417 4.74077H4.99094ZM3.00979 3.89521C2.71904 4.07785 2.93541 4.35521 3.08416 4.54462C3.32082 4.64609 3.08416 3.9358 3.00979 3.89521ZM8.41231 2.77909C8.22974 2.70468 7.83081 3.66523 7.91871 3.69229L8.30412 3.27966L8.48669 3.35406C8.61516 3.14436 8.52049 2.97526 8.41231 2.77909ZM7.40483 3.55022C7.01266 3.69903 6.93152 4.30111 7.01266 4.67992C7.24931 4.73403 7.12084 4.32815 7.14789 4.28756L7.38455 4.16581C7.51978 4.51756 7.48597 4.86254 7.41159 5.2143C7.68882 5.18048 7.91871 4.67314 7.82405 4.45668L7.40483 3.54344V3.55022ZM6.01194 5.3631C5.74824 5.30898 5.43044 5.36309 5.15998 5.27516C5.32902 5.73514 5.64681 6.22896 6.18098 6.25602L5.88347 5.85693L6.12689 5.75545L6.70162 6.23575C6.84362 5.97869 6.79629 5.62015 6.5123 5.49162C6.41087 5.44427 6.27564 5.48486 6.16069 5.45104C6.1066 5.43751 6.05927 5.36986 6.01194 5.3631ZM8.53402 4.85576C9.24398 4.85576 9.65644 4.38905 9.94043 3.79377C9.85253 3.59083 8.818 3.87492 8.64896 3.98315C8.58135 4.02374 8.10804 4.44992 8.30412 4.5108C8.50697 4.36199 8.77067 4.25375 9.01409 4.20639C9.14256 4.17934 9.23046 4.13199 9.26427 4.29434C9.23046 4.36198 8.50021 4.53783 8.53402 4.85576ZM9.3995 5.75545C8.90591 5.22782 7.81729 5.44427 7.33045 5.87044C7.42511 5.97867 7.63472 5.81635 7.77672 5.85693C7.89843 5.89076 7.89843 5.93809 7.939 6.04632L7.35074 6.24252C7.39131 6.43192 7.45216 6.32366 7.54682 6.33719C8.27708 6.45218 8.68953 5.85015 9.3995 5.74868V5.75545ZM6.05927 6.90542C5.89023 6.78366 5.53187 6.8919 5.34254 6.95278C4.87599 7.1016 4.24716 7.34512 4.25392 7.92687C4.33506 8.0351 5.53187 7.89302 5.48453 7.47362C5.32226 7.41274 4.53791 7.78482 4.592 7.50748C5.01122 7.00014 5.64681 7.27071 6.05927 6.90542ZM8.30412 7.32482C8.3785 7.0813 7.08027 6.96632 6.89095 7.00691C6.82333 7.02044 6.57991 7.06779 6.64753 7.17602C6.74895 7.16249 7.57387 7.2301 7.50625 7.39245L6.57991 7.51425C7.10056 8.16364 7.78348 7.76451 8.31088 7.32482H8.30412ZM5.47777 8.928C5.30873 8.66419 5.65357 8.42068 5.53186 8.14334C5.14645 8.48833 5.10588 8.9889 5.33578 9.44888L5.68738 8.90096L5.47101 8.928H5.47777ZM6.14717 8.08921C6.07279 8.06215 5.72795 8.70479 5.72119 8.81302C5.97813 8.67096 6.32297 8.42744 6.14717 8.08921ZM8.93971 7.5751C8.85181 7.62246 8.41907 7.71038 8.54754 7.8592L11.2928 10.2133C11.3401 9.73976 11.1508 9.78035 10.9411 9.53683C10.3056 8.78597 9.63616 8.25155 8.93295 7.5751H8.93971ZM15.3362 7.43981C15.1604 7.3654 14.6127 8.30566 14.775 8.53565C14.8561 8.56947 15.2753 7.52099 15.2753 8.38008C15.4849 8.04862 15.5728 7.79832 15.3362 7.43981ZM14.6127 9.88182C14.66 9.79388 14.7006 9.41505 14.6668 9.30681C14.6127 9.10388 14.4301 8.65741 14.3355 8.44771C14.1123 7.92008 13.6187 8.95508 13.7202 9.36771C13.7405 9.44212 13.8013 9.61797 13.8757 9.6315L13.9568 9.0633C14.4707 8.86037 14.1394 10.1253 14.2273 10.1524C14.3693 10.0915 14.5316 10.0306 14.6127 9.87505V9.88182ZM13.1387 10.3012C12.8073 10.193 12.1718 10.2809 11.8066 10.1659C11.5159 10.193 12.1177 10.9032 12.2259 11.0047C12.3949 11.1535 12.6451 11.2076 12.8344 11.3294C13.0981 11.1941 12.5369 10.9168 12.5707 10.8424C12.902 10.5786 13.1725 11.0656 13.328 11.3294C13.5985 11.4173 13.639 10.4636 13.1319 10.3012H13.1387ZM15.3497 9.79388C15.9988 9.80741 16.4721 9.41504 16.8305 8.91446C17.0942 8.55594 17.0604 8.51537 16.6277 8.50861C16.1543 8.50184 14.9711 8.81299 15.1739 9.4218C15.4241 9.22563 15.9447 8.8333 16.2017 9.17829C16.1611 9.27976 15.2956 9.42856 15.3497 9.80061V9.79388ZM35.8374 27.6319C34.3431 24.6284 34.8367 21.3206 33.9644 18.1548C32.9705 14.5493 30.9961 11.485 28.0074 9.25269C27.2028 8.65065 26.3103 8.1636 25.5056 7.56156C25.1202 7.27745 24.7619 6.87834 24.3562 6.58747C24.2547 6.51306 23.7476 6.12074 23.6665 6.26956C23.964 9.02948 23.1864 11.7691 23.6732 14.529C23.9234 15.9428 24.6672 17.9045 25.4042 19.1357C25.6612 19.5618 25.7761 19.4333 26.1345 19.5618C27.1555 19.9339 27.879 20.1706 28.6971 20.935C31.084 23.1605 31.4964 27.1381 34.9786 28.173L35.5601 28.3624C34.6406 27.2733 33.7007 26.2046 32.8487 25.0546C31.821 23.6543 31.1381 22.1459 29.7181 21.1244C29.042 20.6441 28.2779 20.2856 27.6085 19.7918L27.6288 19.5956L30.0562 20.8403C29.948 20.4479 29.6573 20.1097 29.4882 19.7715C28.758 18.3104 28.1291 16.7207 27.1419 15.4016C26.7092 14.8199 26.0871 14.3937 25.6814 13.7917C25.7829 13.724 25.8708 13.7714 25.9519 13.8255C26.5266 14.184 27.1217 14.8334 27.5882 15.3272C27.6626 15.4084 27.6153 15.5302 27.7843 15.4152C27.48 14.9078 27.3516 14.299 27.1149 13.7781C26.3914 12.202 25.3569 10.7138 24.6604 9.12416C24.4576 8.66417 24.3156 8.08243 24.1939 7.60215L24.3629 7.47362L24.7145 8.56951L26.2494 11.4038C26.4049 11.4715 26.4252 10.6665 26.6889 10.7071C26.7498 11.14 26.5605 11.7421 26.6822 12.1615C26.8309 12.6823 27.4665 13.6699 27.7234 14.272C27.9195 14.7252 28.0277 15.2664 28.3049 15.7128L28.4537 14.1299C28.5551 13.9743 28.7783 12.6552 28.9811 12.7364C29.1366 13.1085 28.8729 13.5279 28.8188 13.8999C28.7309 14.4614 28.7512 16.6531 28.9 17.1604C29.1366 17.9654 29.7249 19.1018 30.1373 19.8595C30.685 20.8741 31.3274 21.8347 31.9427 22.802C32.0576 22.7208 31.9833 22.6193 31.9697 22.5246C31.9224 22.1526 31.8413 21.8076 31.8345 21.4288C31.8075 20.1977 32.1793 18.8921 32.1996 17.6542L32.4025 17.6813C32.5445 19.183 32.1252 20.7794 32.4025 22.2676C32.7473 24.1008 34.2078 26.191 35.5534 27.4763C35.6345 27.5507 35.7089 27.6589 35.8306 27.6386L35.8374 27.6319ZM16.4045 10.7544C15.9109 10.0644 14.6533 10.3688 14.0921 10.8288C14.3152 11.0115 14.7209 10.68 14.7953 11.0385L14.0177 11.3226C14.9305 11.7556 15.5458 10.8288 16.4113 10.7544H16.4045ZM12.7262 11.8367C11.9419 12.0194 10.8938 12.1344 10.7248 13.095C11.0088 13.237 12.0568 12.9799 12.1109 12.7229C12.192 12.3238 11.0561 12.9935 11.1237 12.6417C11.3198 12.4658 11.5632 12.3306 11.8134 12.2494C12.1582 12.1344 12.4084 12.2967 12.6924 12.0058C12.76 11.9314 12.8074 11.9788 12.7194 11.8367H12.7262ZM15.2686 12.4185C15.3091 12.3238 14.802 12.1614 14.7209 12.1411C14.2814 12.0194 13.6931 11.9856 13.2874 12.2291C13.3686 12.3103 14.3896 12.3103 14.3152 12.4794L13.1725 12.6282C13.9027 13.3994 14.5721 12.9461 15.2753 12.4185H15.2686ZM12.2529 13.2776C11.6849 13.5414 11.6984 14.2923 11.9621 14.7793L12.3543 14.1435L12.1109 14.184C11.8202 14.1164 12.4355 13.3317 12.2597 13.2776H12.2529ZM12.3814 14.0555C12.7127 13.812 13.1116 13.6226 12.8073 13.1761L12.3814 14.0555ZM18.5344 15.564C18.3654 15.3543 18.4736 14.989 18.3248 14.8064C18.2166 14.6711 17.8109 14.4952 17.6487 14.3667C17.0198 13.8525 16.4316 13.2844 15.7825 12.7973C15.6472 12.7297 14.9778 12.9935 15.2077 13.2167C16.2422 14.0082 17.2362 14.8808 18.3519 15.5504C18.4127 15.591 18.3924 15.6722 18.5277 15.5708L18.5344 15.564ZM20.6238 14.9822L20.0761 13.7849C20.2248 13.6834 20.1978 13.7579 20.2857 13.839C20.617 14.1502 20.8266 14.7522 21.0836 15.1446C21.2188 15.1243 21.2323 14.8605 21.2391 14.759C21.2932 13.954 20.448 12.9055 19.7921 12.5132C19.7042 12.4591 19.6636 12.4253 19.569 12.4929C19.7042 13.1288 19.1092 13.3588 19.4067 14.0623C19.6569 14.6508 20.0085 14.9011 20.6305 14.9755L20.6238 14.9822ZM22.6725 13.0408C22.4494 12.5876 21.7868 12.75 21.4622 13.0341C21.4216 13.3317 21.354 13.6023 21.5433 13.8729C21.7124 13.7579 21.753 13.5482 21.9152 13.4129C21.9896 13.352 22.1181 13.237 22.1586 13.3993L21.6718 14.6508C22.3344 14.3261 22.2939 13.5617 22.6658 13.0408H22.6725ZM20.8469 16.6328C20.8807 15.1987 19.8867 15.3137 18.8657 14.9552C19.028 15.8008 19.6028 16.6193 20.475 16.8019L20.0423 15.936L20.8537 16.626L20.8469 16.6328ZM24.0451 17.9789C23.9505 17.5257 23.6732 17.1063 23.5177 16.6598C23.1729 15.6587 23.0241 14.6102 22.8551 13.5752L22.3142 14.7049C22.3615 14.9484 22.9092 14.644 23.0241 15.1175C23.0444 15.2122 22.9971 16.0037 22.9768 16.1457C22.943 16.3825 22.8889 16.599 22.7401 16.7951L24.0451 17.9789ZM22.4021 15.0972C21.6853 14.7861 21.1376 16.2201 21.4352 16.741C21.8273 16.6328 21.8747 16.2201 22.1654 16.024C22.348 16.3081 21.9693 16.5042 21.9896 16.7884C22.5373 16.6937 22.8686 15.2934 22.4021 15.0972ZM19.4811 16.8763L19.5081 16.9372C19.5419 16.8966 19.5284 16.8763 19.4811 16.8763ZM20.4547 17.4242C19.5622 17.4377 18.8184 17.5054 18.0814 18.0804C18.0003 18.1413 17.4661 18.6148 17.4526 18.6554C17.4052 18.8245 17.7839 18.8718 17.9124 18.8854C18.4668 18.953 19.1497 18.7906 19.5081 18.351L18.8049 18.4321L18.602 18.351L19.9814 17.7963L20.4547 17.4242ZM24.6537 19.298C24.2886 19.0409 22.659 17.1266 22.4021 17.1469C22.3074 17.1537 22.2127 17.2281 22.1248 17.2619L22.348 17.8774C22.6049 18.0127 22.9024 18.0736 23.1323 18.2698C23.6665 18.7298 23.822 19.6565 24.6537 19.298ZM20.2924 18.5607C20.1775 18.7162 20.0693 18.8515 20.1505 19.0815C20.4547 18.7298 21.2323 18.8651 20.9483 18.1818C20.7793 18.3983 20.6846 18.6824 20.3736 18.7501C20.3533 18.6892 20.306 18.6283 20.2857 18.5607C20.3871 18.4186 20.5697 18.2833 20.5764 18.0465C20.4074 18.1683 20.2181 18.3374 20.2857 18.5607H20.2924ZM21.8273 17.9316L21.7868 17.6948L21.6515 17.6339L21.5569 17.6745L21.7665 17.9586L21.8273 17.9316ZM21.8138 18.2427C21.496 18.1413 21.7394 18.7703 21.8409 18.3848C21.8544 18.3307 21.8409 18.2495 21.8138 18.2427ZM21.4487 18.953C21.4013 18.9395 20.644 19.298 20.5629 19.3656C20.475 19.4468 20.4006 19.6565 20.5832 19.6836L23.4501 19.3183C23.254 18.9259 22.8754 18.6418 22.49 18.4659C22.2668 18.5065 22.5508 19.1289 22.1925 19.298C21.8679 19.4468 21.611 19.2236 21.4554 18.953H21.4487ZM31.821 26.9689C30.0765 24.6013 29.2719 21.1853 26.1345 20.2991C21.6921 19.0409 15.4173 21.05 12.2664 24.3578L8.91943 27.6454C9.6294 28.1392 10.718 28.031 11.5565 27.9701C12.6924 27.8889 13.8081 27.6589 14.9373 27.5372C16.2761 27.3951 17.6757 27.4966 18.9739 27.084L18.9198 26.8743C19.1633 26.7322 19.4405 26.7051 19.6974 26.6037C19.7988 26.5631 20.1505 26.4548 20.1369 26.3196L14.7615 27.0028L14.7209 26.8337L14.8358 26.7931L20.4885 25.7784C20.5291 25.6702 19.623 25.2305 19.4878 25.1696C18.7846 24.8381 17.9867 24.554 17.243 24.3376C17.1551 24.2226 17.243 24.2023 17.3511 24.1887C18.2234 24.0602 20.5426 25.3658 21.4284 25.6837L23.5515 25.4334C22.1384 24.1076 20.2654 23.2552 18.4736 22.5517C18.3721 22.457 18.4939 22.4029 18.5818 22.4029C19.1227 22.3758 21.4352 23.5123 22.0099 23.8235C22.5035 24.094 24.1804 25.3184 24.4238 25.3861C24.701 25.4605 25.7153 25.3793 26.1074 25.4131C26.8782 25.4807 27.6558 25.6363 28.4131 25.7851C28.3388 25.5416 28.0953 25.3387 27.9195 25.156C26.574 23.7828 24.7957 22.7344 23.0917 21.8753C22.97 21.6047 23.6732 21.9294 23.7814 21.9767C25.0999 22.5449 26.9594 23.6002 28.0412 24.5337C28.5619 24.9869 29.238 25.8596 29.7722 26.1843C30.3064 26.509 31.2395 26.624 31.8007 26.9622L31.821 26.9689ZM42.883 11.5188C42.5381 11.6406 42.1933 11.8638 41.8484 11.9923C42.2203 12.2088 42.8492 11.3903 43.1129 11.945L42.2068 12.3644C41.9701 12.4726 41.4698 12.8176 41.2737 13.007C40.8815 13.3858 40.584 14.0081 40.2797 14.4614L40.0431 14.3464L39.9552 14.387C39.3331 15.9969 38.826 17.6542 38.0214 19.1897C37.8794 19.4603 37.6089 19.7512 37.4602 20.0218C36.4189 21.9497 36.8854 24.0737 37.7036 26.0016C37.8726 24.7975 37.9808 23.3973 38.4676 22.2744C38.6164 21.9294 38.853 21.6859 38.9545 21.307C39.137 20.6509 39.0559 19.6362 39.1776 18.8854C39.2723 18.2698 39.4548 17.6678 39.5901 17.059C39.7253 16.9575 39.7523 17.1401 39.7591 17.2281C39.7929 17.5866 39.5833 18.1142 39.5427 18.4998C39.4954 18.9868 39.4684 20.015 39.5427 20.4818C39.563 20.5968 39.563 20.6644 39.6915 20.59C39.8605 20.4885 40.3474 19.9812 40.5299 19.8053C40.7328 19.6024 41.4698 18.8515 41.5442 18.6486C41.6524 18.3712 41.6659 17.776 41.7403 17.4445C41.9904 16.3352 42.1933 14.9687 42.5111 13.927C42.5449 13.8188 42.6801 13.3046 42.7951 13.5617L42.1527 17.8572C42.3894 17.6272 42.6057 17.3701 42.8086 17.113C43.079 16.768 44.0798 15.5099 44.215 15.2122C44.3502 14.9146 44.3299 13.7037 44.4381 13.237C44.5125 12.9123 44.7289 12.1953 44.9453 11.9653C45.0129 11.8976 45.1211 11.7759 45.1684 11.945C44.9182 12.7567 44.641 13.5955 44.7627 14.4546C45.6552 13.3858 46.3922 12.1141 47.6634 11.4444L44.9588 11.228C44.3435 11.228 43.4577 11.3091 42.8762 11.512L42.883 11.5188ZM40.1851 13.9811C40.2392 13.8932 40.3676 13.7646 40.3947 13.6158C40.3338 13.6293 40.1445 13.839 40.1378 13.8593C40.1242 13.9067 40.1851 13.9541 40.1783 13.9811C40.1513 14.0217 39.9755 14.1705 40.016 14.2855L40.2256 14.1029C40.2392 14.0555 40.1783 14.0082 40.1851 13.9811ZM47.9947 11.9856C47.5011 12.202 47.0413 12.635 46.6762 13.0341C44.9182 14.9687 43.5186 17.3363 41.6659 19.298C40.8207 20.1909 39.2858 21.3341 38.853 22.4706C38.515 23.3567 38.3392 26.1369 38.5691 27.0569C38.8598 28.2339 39.7388 28.7615 40.3136 29.7627C40.4758 29.7288 40.4015 29.695 40.415 29.6139C40.5096 28.9712 40.4961 28.2271 40.5908 27.5574C40.6922 26.8404 40.9086 26.1098 41.037 25.4063C41.5577 22.5652 41.7064 20.8944 43.336 18.4051C44.3976 16.7884 45.6755 14.9416 46.8317 13.3993C47.1428 12.9867 47.5079 12.5199 47.8933 12.175C47.9744 12.1005 48.1164 12.1614 47.988 11.9788L47.9947 11.9856ZM30.9284 27.8348C30.9014 27.713 30.8 27.7063 30.6986 27.6792C29.8669 27.4695 28.6363 27.3613 27.7708 27.2936C25.7626 27.1448 22.5982 26.9283 20.6711 27.226C19.5284 27.4019 18.4195 27.8213 17.27 27.9836C19.1024 28.2407 21.0159 28.7142 22.8619 28.7615C24.1466 28.7954 26.0533 28.7277 27.311 28.5383C28.5078 28.3557 29.7046 27.9363 30.9284 27.828V27.8348ZM28.6498 26.6713C28.2914 26.3398 26.3982 26.2181 25.8437 26.1639C25.0661 26.0895 22.1586 25.9272 21.5636 26.1978L20.5291 26.6713L24.8565 26.5698C25.9654 26.4616 27.6153 26.8675 28.643 26.6713C28.6633 26.6916 28.6768 26.766 28.7039 26.7998C28.8459 26.7592 28.8459 26.739 28.7715 26.6172C28.7309 26.6307 28.6836 26.6645 28.6498 26.6713ZM28.927 26.6984L28.9541 26.7592C28.9879 26.7186 28.9743 26.6984 28.927 26.6984ZM29.9615 37.9477L30.8676 37.5283C31.4085 37.2781 32.6324 36.1348 33.3356 35.6884C33.3964 35.6546 33.579 35.5531 33.5249 35.4719C32.5039 35.4584 31.5302 35.5734 30.543 35.8643C30.0359 36.0131 29.184 36.2837 28.7512 36.5339C27.9195 37.0075 27.4597 37.9004 26.8377 38.5836C25.7964 39.7268 24.4644 40.7415 22.9024 40.9715L22.774 40.7956C23.2946 40.6062 23.8085 40.525 24.3021 40.2409C25.2757 39.6862 26.5875 38.0627 27.196 37.1022C27.2366 37.0345 27.311 37.0548 27.2096 36.9263C24.7551 37.7854 22.3344 38.7392 19.738 39.0706C19.2444 39.1315 18.7035 39.2262 18.2099 39.1248C18.1084 38.9827 18.2842 38.9759 18.3789 38.9556C19.0551 38.7798 19.9747 38.9015 20.6779 38.6377C20.306 38.2792 19.6028 38.3333 19.2985 37.8666C19.2038 37.6163 20.0626 38.0357 20.1302 38.056C21.3811 38.3942 22.6996 38.1304 23.8896 37.6975L27.1014 36.5204C27.0743 36.4189 27.027 36.3784 26.9391 36.3242C26.4996 36.0469 25.2622 35.6952 24.7213 35.5734C23.9775 35.4043 23.2067 35.3569 22.4697 35.1878C22.4088 35.0999 22.4156 35.0796 22.517 35.0525C22.7401 34.9849 24.0722 35.1472 24.39 35.1946C25.5327 35.3637 26.1548 35.6749 27.1893 35.9996C28.1291 36.2972 28.4943 35.9522 29.3192 35.6546C30.5025 35.2284 31.6925 34.8293 32.9569 34.7414C32.9975 34.6602 31.4694 34.0108 31.3477 33.9567C31.0299 33.8214 29.7587 33.4358 29.6235 33.2599C29.5694 33.1923 29.5085 33.0705 29.6437 33.0637C30.4957 33.3749 31.4085 33.5643 32.2537 33.889C32.8285 34.1123 33.7345 34.6737 34.2687 34.7752C34.9516 34.9037 36.216 34.9511 36.9463 34.9849C37.5751 35.0119 38.2107 34.9984 38.8395 34.9984C38.8666 34.9307 38.1634 34.5519 38.0619 34.491C33.2477 31.6905 26.3035 28.1798 21.1579 32.1438C18.5277 34.1664 17.1348 37.5824 14.6397 39.7741C15.343 40.0379 16.0394 40.3085 16.7291 40.5994C17.7704 41.0391 18.8049 41.6547 19.9476 41.7494L18.1828 41.0391C18.0476 40.9174 18.3181 40.87 18.406 40.8632C19.3999 40.8294 20.759 41.6276 21.7597 41.79L21.9693 42.0064L21.7935 42.1214C22.9836 42.3852 24.3629 42.4732 25.5733 42.3041C28.6363 41.8779 31.4559 39.348 34.0996 37.7921C35.4182 37.0142 36.8246 36.2228 38.2648 35.7222L35.8103 35.6748C33.5925 35.7357 32.0306 37.4471 30.0427 38.1371L29.9548 37.9477H29.9615ZM34.8367 28.8089C34.8367 28.8089 34.4174 28.5924 34.5594 28.7818C35.6548 29.3094 36.5 30.1618 37.5007 30.8247C36.9666 29.8438 35.8238 29.2486 34.8367 28.8089ZM35.6278 28.4098L35.6548 28.4707C35.6886 28.4301 35.6751 28.4098 35.6278 28.4098ZM39.0424 31.792L38.9815 31.6703L38.9207 31.6973L38.9815 31.8191L39.0424 31.792ZM39.1979 31.7988C39.0829 31.8461 39.0491 31.8259 39.1167 31.9476C39.4819 32.6241 40.6516 33.6455 41.2534 34.2002C42.6125 35.4516 44.073 36.5948 45.5132 37.7515L46.0068 38.0289C46.0068 37.7786 45.8986 37.7042 45.7431 37.5418C45.0196 36.791 43.8161 35.9928 42.9844 35.2825C41.9566 34.3964 40.9018 33.4696 39.9281 32.5564C39.678 32.3197 39.3534 32.0964 39.1911 31.792L39.1979 31.7988ZM64.3511 24.6419C61.3962 25.1899 58.3332 24.6961 55.4325 25.6228C51.6054 26.8472 50.0097 28.9983 48.4342 32.5023L48.0962 33.3411C48.7656 32.4347 49.8542 31.7379 50.5506 30.8924C51.1727 30.1415 51.7001 28.9983 52.3154 28.2677C52.383 28.1866 52.5588 27.9769 52.6197 28.173C52.6738 28.4233 51.7271 29.6544 51.6528 30.0265C52.2816 29.6883 52.8293 29.2215 53.4311 28.8359C54.0328 28.4504 54.8037 28.0986 55.3175 27.713C55.8314 27.3275 56.0884 26.4616 56.6496 26.1234C56.7916 26.1504 56.6902 26.2654 56.6563 26.3331C56.5346 26.6036 56.1763 26.8607 56.2777 27.2057C56.6902 27.0366 57.0823 26.8066 57.5015 26.6375C57.9749 26.4481 58.6172 26.3128 59.0635 26.076C59.4421 25.8731 59.6653 25.5146 60.0371 25.3184L59.929 25.9002C61.2272 25.4402 62.7485 25.3454 64.0333 24.8516C64.1076 24.8246 64.3984 24.7367 64.3511 24.6284V24.6419ZM38.3662 35.6816L38.3933 35.7425C38.4271 35.7019 38.4135 35.6816 38.3662 35.6816ZM62.3361 26.0287C62.255 25.9137 62.1535 25.9881 62.0589 26.0016C61.4165 26.0895 60.5375 26.3128 59.9019 26.4887C56.0546 27.5439 52.4777 29.4718 49.7595 32.4211C49.0022 33.2464 48.2855 34.1731 47.8122 35.1878L51.7474 33.0299L50.9496 33.1585C50.8617 33.1585 50.7602 33.1449 50.8414 33.0299C50.9834 32.8338 51.2606 32.8744 51.4432 32.7864C51.7542 32.6308 52.7076 31.7109 53.0321 32.022L52.8225 32.3873C55.3311 31.0615 57.319 28.9442 59.6991 27.4154C60.3279 27.0095 61.1122 26.536 61.7749 26.2045C61.971 26.1098 62.14 26.0896 62.3361 26.0287ZM61.9642 26.881C58.8403 28.5924 56.2439 31.0885 53.1403 32.8473C51.2538 33.9161 49.3268 34.5993 47.731 36.1484C47.2104 36.6489 46.9129 37.4404 47.1292 38.1439L49.9556 40.3694C50.8955 40.3829 51.8083 40.2747 52.7414 40.4303C55.1282 40.8294 57.1432 42.649 58.8877 44.2184C60.1589 44.3943 61.4503 44.3199 62.7283 44.3875C63.9454 44.4552 65.1557 44.6446 66.3728 44.6513C66.0617 44.3402 65.5343 44.259 65.1219 44.0832C63.2151 43.2646 60.5781 41.79 59.9019 39.693C59.6247 38.8339 59.6315 35.9319 59.6653 34.9172C59.7464 32.4211 61.0784 29.8641 61.8425 27.5168C61.8695 27.4424 62.0251 26.9013 61.9574 26.881H61.9642ZM66.2375 29.4109C65.2165 28.3151 64.1414 27.456 63.0258 26.4684C62.8703 26.3872 62.7486 26.5292 62.6606 26.6442C62.3834 27.0028 61.9372 28.7142 61.7343 29.2689C61.234 30.6488 60.6322 32.0423 60.3414 33.4899C60.0642 34.8631 60.1724 37.0074 60.3076 38.428C60.4428 39.8485 60.8621 40.498 61.8763 41.4585C63.2692 42.7844 65.0475 43.5555 66.7852 44.3064C66.4336 43.6975 66.1294 42.9129 65.7034 42.3649C65.1827 41.6885 64.2023 41.2556 63.5532 40.7212C62.9041 40.1868 62.282 39.4224 61.8357 38.6648C61.9507 38.631 62.0048 38.7392 62.0724 38.8001C62.397 39.0977 62.6742 39.5103 62.9987 39.8283C63.7019 40.5182 64.5674 41.0391 65.4194 41.5126C65.318 41.2285 65.1895 40.9241 65.1016 40.64C64.892 39.9433 64.7297 38.6783 64.466 38.1033C63.8913 36.8654 62.5592 35.959 62.0183 34.437C61.9913 34.3693 61.829 33.747 61.9574 33.8146C62.4037 34.9172 63.0934 35.9319 63.9048 36.8045C64.04 36.9534 64.2631 37.2036 64.4457 37.2442C64.2091 36.1822 64.4728 34.579 63.9927 33.6049C63.8439 33.3005 63.4856 33.0773 63.418 32.6917C63.5802 32.5835 63.5397 32.6782 63.6208 32.7661C63.7628 32.9149 63.8845 33.1991 64.1076 33.2126C64.0806 32.7188 63.9521 32.1844 63.9048 31.7041C63.898 31.6161 63.898 31.5011 63.9724 31.447C64.0333 31.5485 64.0671 31.6568 64.0873 31.7785C64.4187 33.6793 64.5471 35.6004 64.7906 37.508C65.1354 36.9669 65.3518 36.3175 65.5546 35.7087C65.7237 35.1946 65.9062 34.0243 66.0888 33.6658C66.1361 33.5643 66.2375 33.4561 66.2578 33.6252C66.3052 33.9364 66.0482 34.9308 65.9603 35.2825C65.602 36.7031 64.8514 37.968 65.176 39.4698C65.3721 40.3627 65.7913 41.3232 66.1632 42.1552L67.4208 36.818C67.4884 36.676 67.5493 36.9263 67.5493 36.9737C67.5831 37.2848 67.2788 38.8339 67.1977 39.2397C66.9543 40.4371 66.3187 42.0943 66.6973 43.3255C66.819 43.7111 67.0827 43.9682 67.2315 44.3334C67.3194 44.2726 67.2991 44.1643 67.2991 44.0696C67.3735 42.2703 67.502 42.0741 68.0158 40.4303C69.3276 36.2431 69.3817 32.8135 66.2173 29.4177L66.2375 29.4109ZM39.1776 41.3232C39.0627 41.2285 38.853 41.2623 38.7043 41.2623C37.6968 41.2353 36.4459 41.1947 35.4587 41.3232C32.5783 41.7088 29.8736 43.7111 27.6761 45.5105C25.3569 47.4113 23.3081 49.5895 21.327 51.8217L21.6042 51.7676L21.6312 51.9096C21.1376 52.5929 20.8334 53.3911 20.2384 53.9931L20.0828 53.8849L20.1302 53.4317C19.8191 53.9593 19.3796 54.4464 19.2444 55.0552C20.1437 54.5681 21.0497 54.0811 22.0031 53.709C24.7348 52.6335 27.0608 52.187 29.6911 50.6312C30.347 50.2456 30.9487 49.7585 31.6046 49.373V49.0009C31.8548 48.7574 32.2131 48.8521 32.4228 48.7371C32.984 48.4259 34.3025 47.161 34.8231 46.6537C35.7968 45.7134 36.642 44.6514 37.5481 43.657L38.3662 42.5273C36.7231 43.4337 35.2153 44.5769 33.6263 45.5781C33.0854 46.1395 32.9975 47.0392 32.6391 47.6616C32.5715 47.7766 31.9697 48.6289 31.8818 48.2163C32.3619 47.648 32.5783 46.9648 32.6391 46.2343L28.4469 48.8656C27.8587 49.3391 27.595 50.0021 27.1825 50.5838C27.0473 50.7732 26.4861 51.4902 26.3373 51.5714C26.1953 51.6458 26.1615 51.5308 26.1818 51.4091C26.2291 51.1385 27.3921 50.0562 27.3245 49.515L22.7401 52.16L22.4967 52.0449L26.9932 49.2918C26.9661 49.1633 26.8985 49.1836 26.8039 49.1633C26.3846 49.0618 25.8302 49.1227 25.4448 49.0415C25.3434 49.0212 25.2487 49.0145 25.2149 48.8859C25.3028 48.6898 26.8985 48.7709 27.2231 48.7236C28.1832 48.5883 28.8459 48.0945 29.6573 47.5939C30.4687 47.0934 31.7331 46.3425 32.4295 45.7607C32.4836 45.7201 32.5648 45.6795 32.5107 45.6119C31.7804 45.7404 30.969 45.6525 30.2455 45.7607C29.8398 45.8216 29.3733 46.0245 28.9946 46.0448C28.8729 46.0448 28.8459 46.126 28.7985 45.9501C29.2448 45.7742 29.7181 45.6051 30.1847 45.4969C31.5843 45.1722 32.9366 45.3616 34.1943 44.5972C34.5053 44.4078 34.9313 44.1102 35.2221 43.887C35.2762 43.8464 35.4046 43.7787 35.3438 43.6976L32.0441 43.8464L31.9156 43.6705C32.8825 43.4743 33.9036 43.4946 34.8705 43.339C35.7427 43.197 36.2363 43.0887 36.9936 42.6152C37.7239 42.162 38.3256 41.587 39.1776 41.3165V41.3232ZM77.2049 59.6956C75.0817 58.2006 72.5799 56.6719 70.3554 55.346C68.3945 54.1825 66.5351 52.9514 64.6012 51.7541C63.2624 50.922 61.7411 50.2185 60.4361 49.3527C56.8795 46.9919 53.4175 43.7381 50.1449 40.9782C49.2321 40.2071 48.2246 39.5442 47.3659 38.7054C47.2307 38.746 47.1563 38.7257 47.2239 38.8745C47.3794 39.2195 48.3261 39.8688 48.6709 40.1732C51.3079 42.5002 53.8232 45.0099 56.6969 47.0663C58.6578 48.4665 60.7742 49.5962 62.7688 50.9288C64.3308 51.9773 65.798 53.2085 67.387 54.2164C69.6995 55.6843 72.1539 56.9492 74.534 58.2683C75.3184 58.7012 76.123 59.3236 76.9209 59.7024C77.0291 59.7565 77.1034 59.8309 77.2387 59.7633C77.2995 59.973 77.5767 60.1421 77.7661 60.23C77.8337 60.2638 77.9554 60.3653 77.9757 60.2232C77.7458 60.0135 77.455 59.8782 77.2049 59.7024V59.6956ZM20.2248 53.3167L20.2519 53.3776C20.2857 53.337 20.2722 53.3167 20.2248 53.3167ZM80.5383 26.0287C79.8757 26.5496 79.328 27.2125 78.6789 27.7604C75.386 30.5541 71.7347 32.7999 69.6116 36.7369C69.0504 37.7718 69.0774 38.5092 68.7934 39.5983C68.5568 40.498 67.7386 42.162 67.8198 43.0008C67.9144 43.9072 68.6717 44.8813 69.0774 45.6593C69.6251 46.701 69.8753 47.8036 70.1796 48.9333C70.423 49.8262 70.5244 50.7732 70.9098 51.6255L70.9504 49.373L71.2682 48.4395C70.5988 47.0934 69.3005 46.2748 69.7333 44.6108C69.7806 44.4281 69.9835 44.2455 69.9497 44.0019C69.8956 43.6164 69.5778 42.94 69.4628 42.5206C69.3479 42.1012 68.8813 40.3085 69.0368 39.9636C69.0639 39.9027 69.1383 39.8485 69.1653 39.9094C69.3073 41.0797 69.6657 42.2364 70.1525 43.2984C70.308 42.7776 70.4095 42.2026 70.5853 41.6885C70.8151 41.0391 71.3696 40.3221 71.2006 39.6253C70.8489 38.1913 70.5379 37.8801 70.8354 36.3107C70.849 36.2228 70.8084 36.0807 70.8084 36.0672C70.8287 36.0063 70.9368 35.9725 70.9774 36.101C71.045 36.3175 70.9301 37.1225 70.9504 37.4472C70.9707 37.6839 70.9909 37.9274 71.045 38.1574C71.16 38.6512 71.3831 39.0503 71.4981 39.5238C71.5184 39.6185 71.5386 39.6388 71.6198 39.5712L73.5536 36.5881C73.5536 35.7154 73.1073 34.9443 73.2155 34.0378C73.3102 33.9837 73.344 33.9431 73.3846 34.0717C73.4657 34.349 73.4116 34.7955 73.5333 35.1675C73.6347 35.499 73.8511 35.7831 73.8782 36.1281C73.9052 36.189 73.9863 36.1146 74.0337 36.0807C74.3312 35.8575 75.5415 34.3896 75.8052 34.0311C76.3258 33.314 75.9675 32.827 76.0621 32.0423C76.1771 31.9611 76.1906 32.0423 76.2109 32.1506C76.2582 32.4414 76.2109 32.6308 76.3529 32.9352C76.4002 33.0299 76.4273 33.2193 76.549 33.1111C76.6639 33.0096 77.0493 32.4617 77.1643 32.2994C77.428 31.9138 79.1995 28.775 79.4903 28.8697C79.5647 29.0321 79.4362 29.2283 79.3686 29.3704C78.9494 30.2092 78.1921 31.3726 77.6714 32.1776C77.3671 32.6444 77.002 33.0705 76.7113 33.5373C76.9479 33.5102 77.1508 33.3479 77.3807 33.2802C77.4686 33.2532 78.6789 32.942 78.5572 33.2599C78.307 33.3276 78.023 33.3682 77.7796 33.4629C77.3604 33.6252 76.6504 33.9093 76.265 34.1122C76.0148 34.2408 74.7842 35.6478 74.534 35.959C74.392 36.1281 74.3312 36.3648 74.108 36.4528C74.1621 36.6219 74.1554 36.5542 74.2568 36.5407C74.7436 36.4731 75.271 36.189 75.7511 36.0807L75.839 36.2701C75.1764 36.7369 74.1148 36.7437 73.5468 37.2713C73.3237 37.4742 72.9856 38.0222 72.7963 38.2927C72.7016 38.428 71.8159 39.8621 71.897 39.9094C72.1404 39.9094 72.3162 39.7674 72.5191 39.6997C72.6137 39.6727 72.7219 39.6524 72.6678 39.7809C72.4041 40.0718 71.8226 40.1462 71.586 40.3965C71.4169 40.5791 70.9774 41.7156 70.8828 42.0132C70.8151 42.2229 70.5244 43.2511 70.5379 43.3932C70.5447 43.5217 70.6055 43.4676 70.6731 43.4473C71.0924 43.3188 71.5454 43.0076 72.0052 42.8994C72.066 42.8385 72.0322 42.2973 72.0458 42.135C72.4109 38.888 76.292 37.0684 78.0568 34.7346C79.4024 32.9555 79.9771 30.8585 80.2949 28.6871L80.5316 26.0422L80.5383 26.0287ZM48.8332 41.2421C48.752 41.2082 48.3666 41.3164 48.2449 41.3503C46.0339 41.9726 43.62 43.4405 41.6794 44.6784C39.6982 45.9366 36.3715 48.2095 35.5804 50.4823C35.4993 50.7123 35.1815 52.1059 35.3911 52.2006C36.2836 51.8691 37.1491 51.7947 38.0755 52.0382C38.7111 52.2073 40.0228 52.9379 40.4826 52.992C40.6178 53.0055 40.6652 52.8635 40.8342 52.8567C41.179 52.8499 42.484 53.4452 42.7139 53.7023C42.8221 53.824 42.7613 53.9796 42.8762 54.0811C43.1196 54.2975 45.5606 55.2513 46.0339 55.4137C52.7819 57.7204 56.4332 55.0078 62.6606 53.0528C63.1948 52.8837 63.7898 52.762 64.3375 52.6605C64.3984 52.4238 61.9777 51.1453 61.6464 51.0032C58.4279 49.6503 54.7496 52.6605 51.5987 53.4249C50.3207 53.7361 48.8602 53.9593 47.562 53.7902C47.5011 53.7023 47.5079 53.682 47.6093 53.6549C47.9001 53.5737 48.5695 53.6279 48.9414 53.5805C52.2207 53.1746 53.9044 51.8285 56.751 50.5906C57.2987 50.3538 57.9343 50.2321 58.482 49.9886C57.6165 49.975 56.866 49.515 56.0816 49.3053C54.0396 48.7506 51.2335 48.2501 49.32 49.2918C48.0624 49.975 47.5417 50.5838 46.0339 51.0235C45.7499 51.1047 45.4524 51.1453 45.1616 51.2062C44.8303 51.0844 45.7431 50.8679 45.7905 50.8477C46.1285 50.7056 46.541 50.5297 46.8588 50.3538C47.8257 49.833 48.5019 48.913 49.5026 48.4462C49.5702 48.338 48.0556 48.3583 47.9474 48.3651C45.6214 48.4598 43.4104 49.2241 41.1182 49.5421C40.9424 49.5691 40.0769 49.7045 40.016 49.5759C39.9552 49.4609 40.158 49.4338 40.2256 49.4203C40.8071 49.3053 41.4089 49.2512 42.004 49.1227C44.3299 48.6153 46.5748 47.8577 49.0022 47.9186C47.9542 46.9242 46.8115 46.0516 45.4862 45.4631C45.3983 45.3616 45.4997 45.3143 45.5944 45.3143C45.8851 45.3007 47.4944 46.1395 47.8189 46.3425C48.6033 46.8363 49.2997 47.5195 50.1517 47.9254L54.736 48.3312C52.809 46.4778 50.5709 45.0504 48.2517 43.7584L48.1908 43.5014C50.1044 44.5228 52.0314 45.524 53.7827 46.816C54.5873 47.4113 55.304 48.1351 56.1898 48.6153L58.9012 49.2309C58.8742 49.1159 58.7727 49.0888 58.6916 49.0347C57.8126 48.4056 56.8186 47.8577 55.9193 47.2286C53.4784 45.5172 51.3958 43.5014 49.1442 41.6073C49.0293 41.5126 48.9549 41.2759 48.8399 41.2353L48.8332 41.2421ZM54.0261 41.3909C53.4311 41.1609 52.8834 41.0053 52.241 40.9376C51.8962 40.8971 51.0713 40.8294 50.7535 40.8767C50.6453 40.8903 50.652 40.9309 50.7061 41.012C52.1058 42.1958 53.4919 43.3932 54.9186 44.5499C57.4001 46.559 60.0574 48.6695 62.7891 50.3065C62.9041 50.3741 63.0258 50.4824 63.1678 50.4688C61.5044 48.6086 60.2265 46.4236 58.4752 44.6378C57.2919 43.4337 55.5948 42.0064 54.0261 41.3976V41.3909ZM77.8675 35.5599C76.5017 36.9128 74.933 37.9274 73.7429 39.4698C73.1006 40.3018 72.3636 41.472 72.4312 42.5476C73.1073 41.9591 73.8849 41.4991 74.5611 40.9173C75.9472 39.7403 77.0358 37.8868 77.6917 36.1957C77.7187 36.1213 77.9419 35.5801 77.8607 35.5531L77.8675 35.5599ZM66.7311 45.3278C65.602 45.1384 64.4457 44.9287 63.2962 44.834C61.9913 44.7325 60.6795 44.8408 59.3745 44.6717C59.3069 45.0166 61.0852 46.0516 61.4233 46.2343C62.6945 46.9175 64.1144 47.3301 65.4261 47.9457C67.2788 48.8183 69.2194 49.8803 70.3892 51.6391C70.4838 51.612 70.4297 51.4835 70.4162 51.4159C70.0984 49.8262 69.4696 47.2963 68.4689 46.0516C68.1376 45.6457 67.6913 45.409 67.1774 45.321C66.9881 45.2872 66.7852 45.3413 66.7311 45.3278ZM41.4563 53.3776C41.6456 53.5264 41.5239 53.5873 41.8484 53.5737C41.9296 53.6414 41.9701 53.7428 42.1189 53.7496C41.9972 53.4926 41.9972 53.567 41.8484 53.5737C41.7808 53.5196 41.6524 53.3573 41.5712 53.337C41.5171 53.3235 41.4765 53.3776 41.4563 53.3708C41.3548 53.2896 41.2737 53.1205 41.0911 53.2355C41.1588 53.4452 41.3346 53.364 41.4563 53.3708V53.3776ZM85.4675 36.0943C85.7245 36.2769 86.1234 36.4054 86.448 36.4054L86.0761 36.5745C86.1775 36.6489 86.7184 36.7842 86.4615 37.0007L85.6231 36.7369L85.7042 36.5881C84.9063 36.4122 84.1287 36.1348 83.3376 35.8913L83.4458 35.729L83.8853 35.6748C82.7629 35.3704 81.485 35.2487 80.3287 35.4449C79.8351 35.526 78.3476 35.9184 78.0906 36.2837C77.5362 37.6501 76.86 39.0233 75.9134 40.1597C75.67 40.4506 75.2575 40.7347 75.1088 41.0864C76.3394 40.6738 77.3807 39.9771 78.2326 38.9962C78.6316 38.5362 78.9223 37.9883 79.2739 37.508C79.4497 37.2645 79.6593 37.2578 79.5309 37.5554C79.2469 38.2115 78.6586 38.8813 78.2597 39.4765L77.5362 40.2747L79.0981 39.7944C80.3355 39.0098 81.201 37.8327 82.1205 36.7234C82.3504 36.8045 81.5931 37.6771 81.5729 37.7989L80.4369 39.1721C81.1536 38.8609 82.0935 38.7324 82.7764 38.4077C83.2971 38.1574 83.7501 37.8666 84.3045 37.6095C84.5142 37.508 84.7373 37.2848 85.001 37.2307C84.7846 37.7719 84.0814 37.9477 83.6081 38.2521C83.5202 38.3062 83.4188 38.3468 83.4458 38.4821L85.8935 38.198C86.2722 38.3671 85.1295 38.6309 85.0213 38.6512C84.7238 38.7054 84.4127 38.6918 84.1152 38.7121C84.0747 38.9015 84.3992 38.9083 84.4601 39.0504C84.5818 39.3006 83.6013 38.8812 83.5405 38.8677C82.6682 38.6918 81.6472 39.118 80.8561 39.4494C80.7615 39.6659 82.364 39.8756 82.4113 40.1056C81.6946 40.0447 81.0049 39.9297 80.322 39.7133L78.3881 40.5115C78.3611 40.5724 78.7533 40.7685 78.8276 40.8023C79.2266 40.9917 79.612 41.1338 80.0515 41.1541C80.1124 41.2488 80.1056 41.2556 80.0042 41.2894C79.3145 41.5059 78.2259 40.6806 77.4888 40.7821C76.8735 40.87 76.1501 41.2488 75.528 41.3706C75.5483 41.4856 75.6226 41.4856 75.7038 41.5194C76.123 41.6953 76.8871 41.8238 77.3333 41.8373C77.4753 42.0267 77.2116 42.0403 77.0696 42.047C76.292 42.0809 75.2034 41.4991 74.5273 41.7832C74.2433 41.8982 73.7632 42.1823 73.5198 42.3717C73.4454 42.4326 73.3102 42.3988 73.4116 42.5341L77.6308 42.2296C79.7405 42.0064 82.5127 41.0662 84.3654 40.0447C85.7042 39.3074 86.759 38.3265 88.3683 38.3536C88.6928 38.3536 88.9971 38.4821 89.3217 38.4483C89.0106 37.8733 88.5441 37.2916 88.0167 36.906C87.3067 36.3851 86.3736 36.2498 85.5419 36.074C85.3864 36.0401 85.17 35.9048 84.9942 35.9454L85.3661 36.1349L85.4811 36.1078L85.4675 36.0943ZM60.7133 46.3425L60.7404 46.4034C60.7742 46.3628 60.7606 46.3425 60.7133 46.3425ZM84.0341 35.6884L84.0611 35.7493C84.0949 35.7087 84.0814 35.6884 84.0341 35.6884ZM72.5055 56.0698C71.7888 55.3257 71.1532 54.7169 70.8151 53.6955C70.7137 53.3843 70.7475 53.0461 70.592 52.7282C68.9625 49.3459 65.6358 48.4801 62.4443 47.1475C61.998 46.958 61.5112 46.6807 61.0649 46.5116C60.977 46.4778 60.9229 46.3628 60.8012 46.4575C61.8493 48.0336 63.0258 49.603 64.3849 50.9221C65.3247 51.8285 66.2713 52.4035 67.3059 53.1611L72.4988 56.0766L72.5055 56.0698ZM68.3066 45.1316L67.813 44.0628L67.7792 44.8002C67.8333 44.9152 68.1646 45.0978 68.3066 45.1316ZM78.6045 42.4529C76.8803 42.8249 75.075 42.6423 73.3372 42.9805C71.302 43.3729 69.0301 44.1237 70.4365 46.6266C70.6799 47.0663 71.0856 47.4451 71.3223 47.8915C71.6468 48.5003 71.8159 49.1768 71.9849 49.833C72.634 47.0189 74.818 45.0031 77.1305 43.4405C77.5091 43.1835 77.9824 42.9535 78.3679 42.7032C78.4355 42.6626 78.6518 42.5476 78.6045 42.4529ZM71.4305 48.9536C71.2547 48.9941 71.3426 49.0483 71.3223 49.143C71.187 49.8736 71.3696 50.8206 71.3493 51.5782C71.4575 51.6188 71.5927 51.01 71.613 50.9221C71.7347 50.2591 71.6468 49.5894 71.4305 48.9536ZM64.9055 53.3978C61.9642 54.6222 59.2596 56.7869 57.7653 59.6212C55.7909 63.362 55.2635 68.99 58.5361 72.2099C58.651 72.2505 58.6443 72.1694 58.6781 72.1017C58.8133 71.865 58.8809 71.52 59.0567 71.2494C59.956 69.8762 61.9913 68.7059 63.276 67.6574C65.6222 65.7431 66.2916 64.7622 66.0955 61.6709C65.94 59.1748 65.203 56.7328 65.1422 54.2299C64.1076 55.0822 63.276 56.1984 62.593 57.3483C63.2421 58.4239 63.5735 59.6415 63.9994 60.8118L63.8101 60.8997C63.3233 59.8783 62.9176 58.8094 62.2685 57.8759C62.1941 57.8489 61.9034 58.4306 61.8493 58.5254C61.6396 58.938 61.4098 59.4859 61.2475 59.9188C61.0649 60.4059 60.5375 62.1105 60.6119 62.5502C60.6525 62.8073 61.0784 63.4432 61.2475 63.6934C61.3759 63.8828 62.0521 64.6405 62.0724 64.7013C62.0927 64.7758 61.9845 64.9313 61.8695 64.8299L60.5172 63.4432L60.3752 63.4634L59.9019 67.6371L59.7329 67.6777L59.9831 63.6055L59.8478 63.5581L59.0973 64.7352C58.9756 64.8366 58.9418 64.6743 58.9485 64.5728C59.2528 63.8084 59.7937 63.0305 60.1048 62.2932C60.4158 61.5559 60.4969 60.5074 60.7404 59.7159C60.9229 59.1139 61.1934 58.4712 61.4638 57.8963C61.43 57.7474 61.3557 57.8286 61.261 57.8759C60.8215 58.0653 60.1115 58.6945 59.7464 59.0327C59.3813 59.3709 58.9485 59.9865 58.624 60.23C58.509 60.318 58.4752 60.1962 58.4685 60.1218C58.4549 59.9662 60.1589 58.1059 60.4158 57.8759C60.6186 57.6933 60.9297 57.3957 61.1461 57.2604C61.4503 57.0778 61.9101 56.9763 62.1603 56.7531C62.5389 56.4148 63.1881 55.2446 63.6343 54.7507C63.9318 54.4193 64.3105 54.1352 64.6215 53.8172C64.7162 53.7158 64.9123 53.5264 64.9325 53.3843L64.9055 53.3978ZM78.1447 60.2571L78.023 60.3112L78.0839 60.4329L78.2056 60.3788L78.1447 60.2571Z" fill="#6F7A58"/>
<path d="M20.2857 18.5607C20.306 18.6283 20.3533 18.6892 20.3736 18.7501C20.6846 18.6824 20.7793 18.3983 20.9483 18.1818C21.2323 18.8651 20.4547 18.7298 20.1505 19.0815C20.0693 18.8515 20.1775 18.7162 20.2924 18.5607H20.2857ZM20.2857 18.5607C20.3871 18.4186 20.5697 18.2833 20.5764 18.0465C20.4074 18.1683 20.2181 18.3374 20.2857 18.5607ZM41.8484 53.5737C41.5239 53.5873 41.6456 53.5264 41.4563 53.3776V53.3708M41.8484 53.5737C41.9296 53.6414 41.9701 53.7428 42.1189 53.7496C41.9972 53.4926 41.9972 53.567 41.8484 53.5737ZM41.8484 53.5737C41.7808 53.5196 41.6524 53.3573 41.5712 53.337C41.5171 53.3235 41.4765 53.3776 41.4563 53.3708M41.4563 53.3708C41.3548 53.2896 41.2737 53.1205 41.0911 53.2355C41.1588 53.4452 41.3346 53.364 41.4563 53.3708ZM2.86779 1.44646C3.00979 1.29765 3.46958 1.12177 3.64538 1.23677C3.90908 1.41264 3.63185 2.0147 3.79413 2.31234C4.07812 2.11617 4.8219 2.19058 4.80837 2.60998C4.80161 2.8738 3.99698 3.10375 3.81442 3.33375C4.38239 3.77344 4.96389 4.24696 5.5792 4.61225C5.72119 4.69342 6.03222 4.87608 6.16069 4.9302C6.31621 4.99785 6.58668 4.9302 6.66781 5.09931C6.74895 5.08578 6.72191 4.99785 6.70839 4.9302C6.59344 4.36875 6.47173 3.89522 6.92476 3.39465C7.29664 2.98201 7.48597 3.19848 7.68882 3.10378C7.89166 3.00907 7.82405 2.56938 8.42583 2.37997C8.94647 2.21762 8.89238 3.0023 8.98028 3.34729C9.41302 3.212 10.3258 3.12405 10.4814 3.67197C10.576 4.0102 9.66997 4.89636 9.44007 5.16017C9.71054 5.25487 10.123 5.84338 9.93367 6.08013C9.86605 6.16807 8.58135 6.44542 8.38526 6.67541L9.28455 7.27746C10.0757 7.85921 10.6436 8.67096 11.3266 9.35417C11.8404 9.86827 12.2056 9.8615 12.9155 9.84797L13.5849 10.0712C13.0846 9.40152 13.3618 8.10951 14.207 7.88629C14.322 7.85246 14.4504 7.94715 14.5586 7.86597C14.6871 7.7645 14.7547 7.4195 14.8832 7.30451C15.6675 6.601 15.8568 7.49394 15.8974 8.17715C16.2896 7.99451 17.4661 7.92008 17.5202 8.49507C17.554 8.87388 16.6682 9.87506 16.3031 10.0509C16.5736 10.1998 17.1145 10.7341 16.9455 11.0453C16.8305 11.2482 16.1543 11.255 15.8906 11.3768C15.6675 11.4782 15.4714 11.715 15.201 11.7759C15.8636 11.9315 15.9988 12.4185 16.4045 12.8176C16.533 12.9461 16.6953 13.007 16.817 13.1085C17.0469 13.3114 18.0949 14.3396 18.2842 14.3531C18.3519 14.3531 18.4398 14.1975 18.5953 14.2043C18.7643 14.2111 18.9334 14.4749 19.0956 14.4749C18.9334 14.1773 18.7981 13.8255 18.8793 13.4805C18.9334 13.2573 19.1565 12.9935 19.2241 12.777C19.3053 12.52 19.2241 11.945 19.4472 11.8705C19.6907 11.8097 19.7853 12.1006 19.9408 12.2359C20.2722 12.5267 20.6576 12.7567 20.9551 13.0882C21.1444 12.6553 21.6786 12.3373 22.1451 12.3306C22.2804 12.3306 22.8078 12.5267 22.8551 12.4388C22.7672 11.0859 23.0917 9.75327 23.1661 8.4139C23.1932 7.89979 23.0377 6.00575 23.2135 5.72164C23.3757 5.45782 23.7747 5.57281 24.0316 5.63369C24.7754 5.80957 25.4177 6.55367 26.033 6.99337C30.205 9.99681 32.7 12.1276 34.3431 17.3092C35.7224 21.6453 34.4648 26.7998 38.1972 30.2091L38.3527 30.1347L38.4879 30.5338L40.6246 32.597L40.273 30.6624C39.7861 29.6612 38.799 29.0592 38.2175 28.173C36.9395 26.1978 35.7562 23.4243 36.4594 21.0703C36.7434 20.1233 37.2844 19.5212 37.7374 18.6824C39.3534 15.6925 39.0559 12.1141 42.9911 10.9574C45.1549 10.3215 47.2983 11.1062 49.3335 10.8288C49.6108 10.7882 50.909 10.2674 50.7332 11.0115C50.6047 11.5391 48.9414 12.1952 48.4816 12.4658C48.1502 12.662 47.8392 13.0341 47.589 13.3317C46.4193 14.732 44.9993 16.8492 43.9581 18.3915C43.2075 19.4942 42.6598 20.4886 42.3353 21.8009C41.9093 23.4988 41.5104 25.8325 41.2669 27.5642C41.0776 28.9171 40.9965 30.3241 41.1655 31.6838C41.2264 32.1708 41.3075 33.1517 41.6185 33.4899C42.0175 33.9364 42.8965 34.6128 43.3901 35.0322C44.1947 35.7155 45.0872 36.3175 45.8513 37.0481C45.8986 37.0616 46.1082 36.3919 46.1488 36.304C47.7175 33.2329 48.2652 29.8168 51.0172 27.3275C54.4115 24.2496 57.9884 24.7637 62.113 24.4458C62.7553 24.3984 65.4261 23.9452 65.8183 24.2834C66.1834 24.6014 65.656 24.7772 65.5073 24.899C65.3788 25.0072 65.2842 25.156 65.1692 25.244C64.6688 25.6228 64.1076 25.9272 63.5329 26.1707C63.5802 26.3263 63.6817 26.4345 63.7831 26.5563C64.6012 27.4898 65.8724 28.3218 66.7582 29.35C68.4959 31.3591 69.3749 33.6388 69.3276 36.2972L70.9098 33.9905C73.087 31.3253 76.0622 29.4853 78.6045 27.2666C79.4091 26.5631 80.0853 25.5957 81.086 25.129C81.2889 25.0343 81.5458 24.9193 81.6472 25.1696C81.6946 25.3522 81.3227 25.6296 81.2077 25.7851C80.7817 26.3872 80.7953 28.4166 80.6533 29.2756C80.4504 30.5 80.0921 31.9206 79.5444 33.0299C79.3077 33.5102 78.8614 34.0852 78.6789 34.5316C78.5707 34.8022 78.591 35.2216 78.449 35.5125C80.3828 34.7549 82.1949 34.9037 84.1693 35.296C85.711 35.6004 87.7597 35.9387 88.8686 37.1022C89.1932 37.4404 89.9031 38.3401 90.0925 38.7392C90.4103 39.4156 89.3419 38.8947 89.1594 38.8542C86.9416 38.4077 85.4675 40.0109 83.6216 40.9038C82.5533 41.4179 81.4106 41.6141 80.3355 42.1823C77.3671 43.7517 73.8443 45.7743 72.634 49.1159C72.3906 49.7992 72.3703 50.665 72.0931 51.3076C71.9849 51.5647 71.2479 52.6538 71.2479 52.7688C71.302 52.9514 71.3358 53.1679 71.4034 53.3438C72.0255 55.0619 74.6895 57.6189 76.2447 58.5659C77.2319 59.168 78.1515 59.6888 79.1319 60.3315C79.5444 60.602 80.5789 61.0621 80.7479 61.4612C80.9508 61.9414 80.3287 61.9211 80.0244 61.8602C78.8006 61.637 75.954 59.5671 74.7301 58.8636C74.2771 58.5998 73.7835 58.4239 73.3237 58.1601C70.9166 56.7734 68.4959 55.204 66.0415 53.9255C65.9536 53.8781 65.9197 53.824 65.8183 53.9052C65.8859 54.6357 65.8386 55.3731 65.913 56.1036C66.2105 58.8839 67.5966 63.4432 65.9062 65.8987C64.324 68.2054 60.2873 69.8153 59.2325 71.9055C58.9621 72.4331 59.2596 72.237 59.3001 72.3994C59.3542 72.6023 58.8471 72.4535 59.0432 72.8526C58.8471 73.1908 58.1777 72.5008 58.0222 72.3385C53.5325 67.7927 55.8652 58.6606 60.7133 55.2107L62.735 53.8037C62.2211 53.9796 61.6937 54.1149 61.1799 54.2908C57.7653 55.4475 54.425 57.1522 50.7264 56.9763C46.9332 56.8004 43.9986 55.0754 40.6246 53.6143C39.1844 52.992 37.7915 52.2208 36.1755 52.5591C35.9117 52.6132 35.6683 52.8161 35.3573 52.7958C34.5053 52.7484 34.7352 51.6053 34.8569 51.0574C35.1883 49.5827 36.0943 48.4056 37.1694 47.3842C38.542 46.0854 40.3474 44.8949 41.9837 43.8599C43.9581 42.6152 46.0068 41.4585 48.2382 40.7415C48.2179 40.6603 48.1773 40.6265 48.1164 40.5724C47.7581 40.2341 47.0819 39.72 46.6695 39.4156C46.257 39.1112 45.8513 38.7189 45.3374 38.9556C44.7897 39.2127 44.188 39.8621 43.62 40.1936C42.4705 40.87 41.0844 41.0526 40.016 41.8779C39.1573 42.5408 38.657 43.4946 37.9876 44.2996C34.5459 48.4665 30.6242 51.4091 25.4989 53.249C23.3352 54.027 21.2864 54.3246 19.3999 55.7722C19.1024 55.9954 18.4127 56.9695 18.1423 56.2863C18.0476 56.036 18.5682 54.7575 18.7035 54.4734C19.738 52.3697 21.7732 50.2727 23.4501 48.6289C26.3779 45.7675 31.1786 41.3773 35.2626 40.7076C36.9801 40.4303 38.7787 40.9173 40.4691 40.5521C42.1595 40.1868 43.4847 39.2195 44.5396 37.826C43.9445 37.4742 43.4509 36.8383 42.91 36.4528C42.7274 36.3242 41.6591 35.8575 41.4698 35.8439C41.2399 35.8237 41.1385 35.959 40.9491 35.9928C39.3331 36.304 38.2851 36.304 36.7434 37.109C34.0185 38.5295 31.3206 40.5386 28.6092 41.8441C25.8031 43.197 22.7131 42.967 19.7718 42.25C18.1828 41.8644 16.7494 41.0459 15.1942 40.5453C14.944 40.4641 13.8486 40.2409 13.7743 40.1597C13.7202 40.0921 13.6796 40.0177 13.6661 39.9365C13.639 39.7268 14.6871 38.9421 14.8967 38.7256C16.9252 36.6489 18.2166 33.8755 20.4547 31.9882C24.8295 28.3016 30.4078 29.7221 35.0395 31.9949C36.6623 32.7932 38.3121 33.9702 39.9417 34.6534C40.0701 34.7075 41.0573 35.0931 41.1047 34.9578L39.1167 33.0773C37.1086 31.4065 35.2356 29.7085 32.7338 28.7886C31.2462 28.2407 29.2448 28.9239 27.7167 29.1336C22.9768 29.7897 18.9604 28.4368 14.3896 28.3218C12.6789 28.2745 10.8803 29.0186 9.12228 28.5045C8.71658 28.3827 7.84433 28.0715 8.04718 27.5236C8.66925 27.0569 9.29808 26.5901 9.88634 26.076C11.7255 24.4525 13.0575 22.8223 15.2686 21.5641C16.6479 20.7794 18.1693 20.2721 19.6704 19.8392L19.5149 19.0004C19.1294 19.2236 18.7238 19.3115 18.2775 19.3183C18.0611 19.3183 17.7839 19.2236 17.5743 19.2574C17.2294 19.3115 16.7967 19.6836 16.6817 19.068C16.5127 18.1683 18.5344 16.8222 19.3999 16.9237C19.4878 16.6734 17.2362 15.2799 16.9387 15.0634C16.2017 14.5223 15.4782 13.9473 14.7885 13.352C14.3625 13.5481 13.9365 13.582 13.497 13.4061L13.4091 13.4467C13.5038 14.069 12.8817 14.1908 12.6315 14.644C12.4693 14.9349 12.4557 15.6452 12.1447 15.6925C11.5429 15.5572 11.3807 14.7455 11.3266 14.2111C11.3063 13.954 11.428 13.7308 11.3063 13.5008C10.9547 13.5008 10.7383 13.8458 10.4476 13.7849C10.1095 13.609 10.2988 12.7635 10.4678 12.4794C10.8397 11.8503 11.5835 11.7218 12.2191 11.5188C12.1853 11.4647 12.1312 11.5594 12.0636 11.4985C11.4888 11.0115 10.9885 10.4297 10.4137 9.94268C9.87958 9.48269 9.16961 8.92124 8.60163 8.50184C8.4664 8.40037 8.14184 8.17713 7.98633 8.19743C7.86462 8.21096 7.74967 8.31242 7.62796 8.32595C7.28312 8.38007 7.02618 8.35301 6.70162 8.23801C6.89095 8.81976 6.24183 8.94154 6.0187 9.31359C5.87671 9.55034 5.79557 9.96298 5.78881 10.2403C5.55891 10.4365 5.42368 10.3688 5.23436 10.1862C4.72047 9.68562 4.66638 8.98211 4.84894 8.32595C4.72724 8.41389 4.54467 8.34626 4.43648 8.38008C4.14574 8.47478 3.90232 8.9483 3.76709 8.21097C3.58452 7.20982 4.68666 6.61456 5.51834 6.4928C5.26816 6.31016 5.03151 6.01926 4.88275 5.74868C4.78133 5.5728 4.77456 5.34282 4.70695 5.24811C4.57172 5.05871 3.73328 4.69343 3.61157 4.32815C3.41548 4.59873 3.65214 4.9099 3.23292 5.04519C3.11797 5.07224 2.61761 4.4296 2.59733 4.26725C2.19839 4.56489 1.86031 4.4905 1.43433 4.53785C1.2991 4.55138 1.07597 4.69345 0.981306 4.63933C0.751412 4.50404 0.91369 3.87491 1.06244 3.71256C1.00159 3.4758 -0.31016 2.92788 1.01511 2.79259C1.0354 2.71142 -0.00588801 1.79824 0.690557 1.76442C1.04216 1.74412 1.50871 1.8997 1.8806 1.71029C1.69804 1.29089 1.69127 0.770008 2.00907 0.425018L2.20516 0.465604C2.34715 0.898532 2.79342 1.00679 2.9016 1.46678L2.86779 1.44646ZM2.6379 1.93353C2.62438 1.41943 2.42153 1.23001 2.0564 0.905313C1.98879 1.20972 2.00907 1.49383 2.18487 1.75765L2.408 1.42619C2.44857 1.43972 2.44181 1.96735 2.6379 1.92676V1.93353ZM2.75961 3.02261C2.52295 2.16351 1.81974 1.8997 1.02864 2.2244L1.69127 2.83318L1.67099 2.61671L1.93469 2.53554L2.76637 3.02938L2.75961 3.02261ZM3.42224 1.50059C2.92189 1.64941 2.91512 2.31908 3.00979 2.75201L3.42224 2.56935V1.49382V1.50059ZM1.21796 2.96848L0.933975 3.09701C0.751412 3.212 1.46138 3.52995 1.60337 3.32025L1.16387 3.17818L1.21796 2.96171V2.96848ZM1.84679 3.5164C1.46814 3.66522 1.04892 3.80729 1.14358 4.29434C1.63718 4.11169 2.24573 4.3349 2.46886 3.71933C2.41477 3.60433 1.86708 3.86818 1.71156 3.87494C1.5628 3.67877 1.88736 3.65168 1.84679 3.50963V3.5164ZM4.32154 2.46114L3.91584 2.56935L4.28097 2.63025L4.31478 2.46114H4.32154ZM4.99094 4.74077C4.72047 4.49049 4.40944 4.28757 4.12545 4.04405C3.99022 3.92906 3.49662 3.33376 3.36139 3.42846C3.22616 3.52316 3.46281 3.75994 3.52367 3.82758C3.6589 3.9764 4.80837 5.15341 4.98417 4.74077H4.99094ZM3.00979 3.89521C2.71904 4.07785 2.93541 4.35521 3.08416 4.54462C3.32082 4.64609 3.08416 3.9358 3.00979 3.89521ZM8.41231 2.77909C8.22974 2.70468 7.83081 3.66523 7.91871 3.69229L8.30412 3.27966L8.48669 3.35406C8.61516 3.14436 8.52049 2.97526 8.41231 2.77909ZM7.40483 3.55022C7.01266 3.69903 6.93152 4.30111 7.01266 4.67992C7.24931 4.73403 7.12084 4.32815 7.14789 4.28756L7.38455 4.16581C7.51978 4.51756 7.48597 4.86254 7.41159 5.2143C7.68882 5.18048 7.91871 4.67314 7.82405 4.45668L7.40483 3.54344V3.55022ZM6.01194 5.3631C5.74824 5.30898 5.43044 5.36309 5.15998 5.27516C5.32902 5.73514 5.64681 6.22896 6.18098 6.25602L5.88347 5.85693L6.12689 5.75545L6.70162 6.23575C6.84362 5.97869 6.79629 5.62015 6.5123 5.49162C6.41087 5.44427 6.27564 5.48486 6.16069 5.45104C6.1066 5.43751 6.05927 5.36986 6.01194 5.3631ZM8.53402 4.85576C9.24398 4.85576 9.65644 4.38905 9.94043 3.79377C9.85253 3.59083 8.818 3.87492 8.64896 3.98315C8.58135 4.02374 8.10804 4.44992 8.30412 4.5108C8.50697 4.36199 8.77067 4.25375 9.01409 4.20639C9.14256 4.17934 9.23046 4.13199 9.26427 4.29434C9.23046 4.36198 8.50021 4.53783 8.53402 4.85576ZM9.3995 5.75545C8.90591 5.22782 7.81729 5.44427 7.33045 5.87044C7.42511 5.97867 7.63472 5.81635 7.77672 5.85693C7.89843 5.89076 7.89843 5.93809 7.939 6.04632L7.35074 6.24252C7.39131 6.43192 7.45216 6.32366 7.54682 6.33719C8.27708 6.45218 8.68953 5.85015 9.3995 5.74868V5.75545ZM6.05927 6.90542C5.89023 6.78366 5.53187 6.8919 5.34254 6.95278C4.87599 7.1016 4.24716 7.34512 4.25392 7.92687C4.33506 8.0351 5.53187 7.89302 5.48453 7.47362C5.32226 7.41274 4.53791 7.78482 4.592 7.50748C5.01122 7.00014 5.64681 7.27071 6.05927 6.90542ZM8.30412 7.32482C8.3785 7.0813 7.08027 6.96632 6.89095 7.00691C6.82333 7.02044 6.57991 7.06779 6.64753 7.17602C6.74895 7.16249 7.57387 7.2301 7.50625 7.39245L6.57991 7.51425C7.10056 8.16364 7.78348 7.76451 8.31088 7.32482H8.30412ZM5.47777 8.928C5.30873 8.66419 5.65357 8.42068 5.53186 8.14334C5.14645 8.48833 5.10588 8.9889 5.33578 9.44888L5.68738 8.90096L5.47101 8.928H5.47777ZM6.14717 8.08921C6.07279 8.06215 5.72795 8.70479 5.72119 8.81302C5.97813 8.67096 6.32297 8.42744 6.14717 8.08921ZM8.93971 7.5751C8.85181 7.62246 8.41907 7.71038 8.54754 7.8592L11.2928 10.2133C11.3401 9.73976 11.1508 9.78035 10.9411 9.53683C10.3056 8.78597 9.63616 8.25155 8.93295 7.5751H8.93971ZM15.3362 7.43981C15.1604 7.3654 14.6127 8.30566 14.775 8.53565C14.8561 8.56947 15.2753 7.52099 15.2753 8.38008C15.4849 8.04862 15.5728 7.79832 15.3362 7.43981ZM14.6127 9.88182C14.66 9.79388 14.7006 9.41505 14.6668 9.30681C14.6127 9.10388 14.4301 8.65741 14.3355 8.44771C14.1123 7.92008 13.6187 8.95508 13.7202 9.36771C13.7405 9.44212 13.8013 9.61797 13.8757 9.6315L13.9568 9.0633C14.4707 8.86037 14.1394 10.1253 14.2273 10.1524C14.3693 10.0915 14.5316 10.0306 14.6127 9.87505V9.88182ZM13.1387 10.3012C12.8073 10.193 12.1718 10.2809 11.8066 10.1659C11.5159 10.193 12.1177 10.9032 12.2259 11.0047C12.3949 11.1535 12.6451 11.2076 12.8344 11.3294C13.0981 11.1941 12.5369 10.9168 12.5707 10.8424C12.902 10.5786 13.1725 11.0656 13.328 11.3294C13.5985 11.4173 13.639 10.4636 13.1319 10.3012H13.1387ZM15.3497 9.79388C15.9988 9.80741 16.4721 9.41504 16.8305 8.91446C17.0942 8.55594 17.0604 8.51537 16.6277 8.50861C16.1543 8.50184 14.9711 8.81299 15.1739 9.4218C15.4241 9.22563 15.9447 8.8333 16.2017 9.17829C16.1611 9.27976 15.2956 9.42856 15.3497 9.80061V9.79388ZM35.8374 27.6319C34.3431 24.6284 34.8367 21.3206 33.9644 18.1548C32.9705 14.5493 30.9961 11.485 28.0074 9.25269C27.2028 8.65065 26.3103 8.1636 25.5056 7.56156C25.1202 7.27745 24.7619 6.87834 24.3562 6.58747C24.2547 6.51306 23.7476 6.12074 23.6665 6.26956C23.964 9.02948 23.1864 11.7691 23.6732 14.529C23.9234 15.9428 24.6672 17.9045 25.4042 19.1357C25.6612 19.5618 25.7761 19.4333 26.1345 19.5618C27.1555 19.9339 27.879 20.1706 28.6971 20.935C31.084 23.1605 31.4964 27.1381 34.9786 28.173L35.5601 28.3624C34.6406 27.2733 33.7007 26.2046 32.8487 25.0546C31.821 23.6543 31.1381 22.1459 29.7181 21.1244C29.042 20.6441 28.2779 20.2856 27.6085 19.7918L27.6288 19.5956L30.0562 20.8403C29.948 20.4479 29.6573 20.1097 29.4882 19.7715C28.758 18.3104 28.1291 16.7207 27.1419 15.4016C26.7092 14.8199 26.0871 14.3937 25.6814 13.7917C25.7829 13.724 25.8708 13.7714 25.9519 13.8255C26.5266 14.184 27.1217 14.8334 27.5882 15.3272C27.6626 15.4084 27.6153 15.5302 27.7843 15.4152C27.48 14.9078 27.3516 14.299 27.1149 13.7781C26.3914 12.202 25.3569 10.7138 24.6604 9.12416C24.4576 8.66417 24.3156 8.08243 24.1939 7.60215L24.3629 7.47362L24.7145 8.56951L26.2494 11.4038C26.4049 11.4715 26.4252 10.6665 26.6889 10.7071C26.7498 11.14 26.5605 11.7421 26.6822 12.1615C26.8309 12.6823 27.4665 13.6699 27.7234 14.272C27.9195 14.7252 28.0277 15.2664 28.3049 15.7128L28.4537 14.1299C28.5551 13.9743 28.7783 12.6552 28.9811 12.7364C29.1366 13.1085 28.8729 13.5279 28.8188 13.8999C28.7309 14.4614 28.7512 16.6531 28.9 17.1604C29.1366 17.9654 29.7249 19.1018 30.1373 19.8595C30.685 20.8741 31.3274 21.8347 31.9427 22.802C32.0576 22.7208 31.9833 22.6193 31.9697 22.5246C31.9224 22.1526 31.8413 21.8076 31.8345 21.4288C31.8075 20.1977 32.1793 18.8921 32.1996 17.6542L32.4025 17.6813C32.5445 19.183 32.1252 20.7794 32.4025 22.2676C32.7473 24.1008 34.2078 26.191 35.5534 27.4763C35.6345 27.5507 35.7089 27.6589 35.8306 27.6386L35.8374 27.6319ZM16.4045 10.7544C15.9109 10.0644 14.6533 10.3688 14.0921 10.8288C14.3152 11.0115 14.7209 10.68 14.7953 11.0385L14.0177 11.3226C14.9305 11.7556 15.5458 10.8288 16.4113 10.7544H16.4045ZM12.7262 11.8367C11.9419 12.0194 10.8938 12.1344 10.7248 13.095C11.0088 13.237 12.0568 12.9799 12.1109 12.7229C12.192 12.3238 11.0561 12.9935 11.1237 12.6417C11.3198 12.4658 11.5632 12.3306 11.8134 12.2494C12.1582 12.1344 12.4084 12.2967 12.6924 12.0058C12.76 11.9314 12.8074 11.9788 12.7194 11.8367H12.7262ZM15.2686 12.4185C15.3091 12.3238 14.802 12.1614 14.7209 12.1411C14.2814 12.0194 13.6931 11.9856 13.2874 12.2291C13.3686 12.3103 14.3896 12.3103 14.3152 12.4794L13.1725 12.6282C13.9027 13.3994 14.5721 12.9461 15.2753 12.4185H15.2686ZM12.2529 13.2776C11.6849 13.5414 11.6984 14.2923 11.9621 14.7793L12.3543 14.1435L12.1109 14.184C11.8202 14.1164 12.4355 13.3317 12.2597 13.2776H12.2529ZM12.3814 14.0555C12.7127 13.812 13.1116 13.6226 12.8073 13.1761L12.3814 14.0555ZM18.5344 15.564C18.3654 15.3543 18.4736 14.989 18.3248 14.8064C18.2166 14.6711 17.8109 14.4952 17.6487 14.3667C17.0198 13.8525 16.4316 13.2844 15.7825 12.7973C15.6472 12.7297 14.9778 12.9935 15.2077 13.2167C16.2422 14.0082 17.2362 14.8808 18.3519 15.5504C18.4127 15.591 18.3924 15.6722 18.5277 15.5708L18.5344 15.564ZM20.6238 14.9822L20.0761 13.7849C20.2248 13.6834 20.1978 13.7579 20.2857 13.839C20.617 14.1502 20.8266 14.7522 21.0836 15.1446C21.2188 15.1243 21.2323 14.8605 21.2391 14.759C21.2932 13.954 20.448 12.9055 19.7921 12.5132C19.7042 12.4591 19.6636 12.4253 19.569 12.4929C19.7042 13.1288 19.1092 13.3588 19.4067 14.0623C19.6569 14.6508 20.0085 14.9011 20.6305 14.9755L20.6238 14.9822ZM22.6725 13.0408C22.4494 12.5876 21.7868 12.75 21.4622 13.0341C21.4216 13.3317 21.354 13.6023 21.5433 13.8729C21.7124 13.7579 21.753 13.5482 21.9152 13.4129C21.9896 13.352 22.1181 13.237 22.1586 13.3993L21.6718 14.6508C22.3344 14.3261 22.2939 13.5617 22.6658 13.0408H22.6725ZM20.8469 16.6328C20.8807 15.1987 19.8867 15.3137 18.8657 14.9552C19.028 15.8008 19.6028 16.6193 20.475 16.8019L20.0423 15.936L20.8537 16.626L20.8469 16.6328ZM24.0451 17.9789C23.9505 17.5257 23.6732 17.1063 23.5177 16.6598C23.1729 15.6587 23.0241 14.6102 22.8551 13.5752L22.3142 14.7049C22.3615 14.9484 22.9092 14.644 23.0241 15.1175C23.0444 15.2122 22.9971 16.0037 22.9768 16.1457C22.943 16.3825 22.8889 16.599 22.7401 16.7951L24.0451 17.9789ZM22.4021 15.0972C21.6853 14.7861 21.1376 16.2201 21.4352 16.741C21.8273 16.6328 21.8747 16.2201 22.1654 16.024C22.348 16.3081 21.9693 16.5042 21.9896 16.7884C22.5373 16.6937 22.8686 15.2934 22.4021 15.0972ZM19.4811 16.8763L19.5081 16.9372C19.5419 16.8966 19.5284 16.8763 19.4811 16.8763ZM20.4547 17.4242C19.5622 17.4377 18.8184 17.5054 18.0814 18.0804C18.0003 18.1413 17.4661 18.6148 17.4526 18.6554C17.4052 18.8245 17.7839 18.8718 17.9124 18.8854C18.4668 18.953 19.1497 18.7906 19.5081 18.351L18.8049 18.4321L18.602 18.351L19.9814 17.7963L20.4547 17.4242ZM24.6537 19.298C24.2886 19.0409 22.659 17.1266 22.4021 17.1469C22.3074 17.1537 22.2127 17.2281 22.1248 17.2619L22.348 17.8774C22.6049 18.0127 22.9024 18.0736 23.1323 18.2698C23.6665 18.7298 23.822 19.6565 24.6537 19.298ZM21.8273 17.9316L21.7868 17.6948L21.6515 17.6339L21.5569 17.6745L21.7665 17.9586L21.8273 17.9316ZM21.8138 18.2427C21.496 18.1413 21.7394 18.7703 21.8409 18.3848C21.8544 18.3307 21.8409 18.2495 21.8138 18.2427ZM21.4487 18.953C21.4013 18.9395 20.644 19.298 20.5629 19.3656C20.475 19.4468 20.4006 19.6565 20.5832 19.6836L23.4501 19.3183C23.254 18.9259 22.8754 18.6418 22.49 18.4659C22.2668 18.5065 22.5508 19.1289 22.1925 19.298C21.8679 19.4468 21.611 19.2236 21.4554 18.953H21.4487ZM31.821 26.9689C30.0765 24.6013 29.2719 21.1853 26.1345 20.2991C21.6921 19.0409 15.4173 21.05 12.2664 24.3578L8.91943 27.6454C9.6294 28.1392 10.718 28.031 11.5565 27.9701C12.6924 27.8889 13.8081 27.6589 14.9373 27.5372C16.2761 27.3951 17.6757 27.4966 18.9739 27.084L18.9198 26.8743C19.1633 26.7322 19.4405 26.7051 19.6974 26.6037C19.7988 26.5631 20.1505 26.4548 20.1369 26.3196L14.7615 27.0028L14.7209 26.8337L14.8358 26.7931L20.4885 25.7784C20.5291 25.6702 19.623 25.2305 19.4878 25.1696C18.7846 24.8381 17.9867 24.554 17.243 24.3376C17.1551 24.2226 17.243 24.2023 17.3511 24.1887C18.2234 24.0602 20.5426 25.3658 21.4284 25.6837L23.5515 25.4334C22.1384 24.1076 20.2654 23.2552 18.4736 22.5517C18.3721 22.457 18.4939 22.4029 18.5818 22.4029C19.1227 22.3758 21.4352 23.5123 22.0099 23.8235C22.5035 24.094 24.1804 25.3184 24.4238 25.3861C24.701 25.4605 25.7153 25.3793 26.1074 25.4131C26.8782 25.4807 27.6558 25.6363 28.4131 25.7851C28.3388 25.5416 28.0953 25.3387 27.9195 25.156C26.574 23.7828 24.7957 22.7344 23.0917 21.8753C22.97 21.6047 23.6732 21.9294 23.7814 21.9767C25.0999 22.5449 26.9594 23.6002 28.0412 24.5337C28.5619 24.9869 29.238 25.8596 29.7722 26.1843C30.3064 26.509 31.2395 26.624 31.8007 26.9622L31.821 26.9689ZM42.883 11.5188C42.5381 11.6406 42.1933 11.8638 41.8484 11.9923C42.2203 12.2088 42.8492 11.3903 43.1129 11.945L42.2068 12.3644C41.9701 12.4726 41.4698 12.8176 41.2737 13.007C40.8815 13.3858 40.584 14.0081 40.2797 14.4614L40.0431 14.3464L39.9552 14.387C39.3331 15.9969 38.826 17.6542 38.0214 19.1897C37.8794 19.4603 37.6089 19.7512 37.4602 20.0218C36.4189 21.9497 36.8854 24.0737 37.7036 26.0016C37.8726 24.7975 37.9808 23.3973 38.4676 22.2744C38.6164 21.9294 38.853 21.6859 38.9545 21.307C39.137 20.6509 39.0559 19.6362 39.1776 18.8854C39.2723 18.2698 39.4548 17.6678 39.5901 17.059C39.7253 16.9575 39.7523 17.1401 39.7591 17.2281C39.7929 17.5866 39.5833 18.1142 39.5427 18.4998C39.4954 18.9868 39.4684 20.015 39.5427 20.4818C39.563 20.5968 39.563 20.6644 39.6915 20.59C39.8605 20.4885 40.3474 19.9812 40.5299 19.8053C40.7328 19.6024 41.4698 18.8515 41.5442 18.6486C41.6524 18.3712 41.6659 17.776 41.7403 17.4445C41.9904 16.3352 42.1933 14.9687 42.5111 13.927C42.5449 13.8188 42.6801 13.3046 42.7951 13.5617L42.1527 17.8572C42.3894 17.6272 42.6057 17.3701 42.8086 17.113C43.079 16.768 44.0798 15.5099 44.215 15.2122C44.3502 14.9146 44.3299 13.7037 44.4381 13.237C44.5125 12.9123 44.7289 12.1953 44.9453 11.9653C45.0129 11.8976 45.1211 11.7759 45.1684 11.945C44.9182 12.7567 44.641 13.5955 44.7627 14.4546C45.6552 13.3858 46.3922 12.1141 47.6634 11.4444L44.9588 11.228C44.3435 11.228 43.4577 11.3091 42.8762 11.512L42.883 11.5188ZM40.1851 13.9811C40.2392 13.8932 40.3676 13.7646 40.3947 13.6158C40.3338 13.6293 40.1445 13.839 40.1378 13.8593C40.1242 13.9067 40.1851 13.9541 40.1783 13.9811C40.1513 14.0217 39.9755 14.1705 40.016 14.2855L40.2256 14.1029C40.2392 14.0555 40.1783 14.0082 40.1851 13.9811ZM47.9947 11.9856C47.5011 12.202 47.0413 12.635 46.6762 13.0341C44.9182 14.9687 43.5186 17.3363 41.6659 19.298C40.8207 20.1909 39.2858 21.3341 38.853 22.4706C38.515 23.3567 38.3392 26.1369 38.5691 27.0569C38.8598 28.2339 39.7388 28.7615 40.3136 29.7627C40.4758 29.7288 40.4015 29.695 40.415 29.6139C40.5096 28.9712 40.4961 28.2271 40.5908 27.5574C40.6922 26.8404 40.9086 26.1098 41.037 25.4063C41.5577 22.5652 41.7064 20.8944 43.336 18.4051C44.3976 16.7884 45.6755 14.9416 46.8317 13.3993C47.1428 12.9867 47.5079 12.5199 47.8933 12.175C47.9744 12.1005 48.1164 12.1614 47.988 11.9788L47.9947 11.9856ZM30.9284 27.8348C30.9014 27.713 30.8 27.7063 30.6986 27.6792C29.8669 27.4695 28.6363 27.3613 27.7708 27.2936C25.7626 27.1448 22.5982 26.9283 20.6711 27.226C19.5284 27.4019 18.4195 27.8213 17.27 27.9836C19.1024 28.2407 21.0159 28.7142 22.8619 28.7615C24.1466 28.7954 26.0533 28.7277 27.311 28.5383C28.5078 28.3557 29.7046 27.9363 30.9284 27.828V27.8348ZM28.6498 26.6713C28.2914 26.3398 26.3982 26.2181 25.8437 26.1639C25.0661 26.0895 22.1586 25.9272 21.5636 26.1978L20.5291 26.6713L24.8565 26.5698C25.9654 26.4616 27.6153 26.8675 28.643 26.6713C28.6633 26.6916 28.6768 26.766 28.7039 26.7998C28.8459 26.7592 28.8459 26.739 28.7715 26.6172C28.7309 26.6307 28.6836 26.6645 28.6498 26.6713ZM28.927 26.6984L28.9541 26.7592C28.9879 26.7186 28.9743 26.6984 28.927 26.6984ZM29.9615 37.9477L30.8676 37.5283C31.4085 37.2781 32.6324 36.1348 33.3356 35.6884C33.3964 35.6546 33.579 35.5531 33.5249 35.4719C32.5039 35.4584 31.5302 35.5734 30.543 35.8643C30.0359 36.0131 29.184 36.2837 28.7512 36.5339C27.9195 37.0075 27.4597 37.9004 26.8377 38.5836C25.7964 39.7268 24.4644 40.7415 22.9024 40.9715L22.774 40.7956C23.2946 40.6062 23.8085 40.525 24.3021 40.2409C25.2757 39.6862 26.5875 38.0627 27.196 37.1022C27.2366 37.0345 27.311 37.0548 27.2096 36.9263C24.7551 37.7854 22.3344 38.7392 19.738 39.0706C19.2444 39.1315 18.7035 39.2262 18.2099 39.1248C18.1084 38.9827 18.2842 38.9759 18.3789 38.9556C19.0551 38.7798 19.9747 38.9015 20.6779 38.6377C20.306 38.2792 19.6028 38.3333 19.2985 37.8666C19.2038 37.6163 20.0626 38.0357 20.1302 38.056C21.3811 38.3942 22.6996 38.1304 23.8896 37.6975L27.1014 36.5204C27.0743 36.4189 27.027 36.3784 26.9391 36.3242C26.4996 36.0469 25.2622 35.6952 24.7213 35.5734C23.9775 35.4043 23.2067 35.3569 22.4697 35.1878C22.4088 35.0999 22.4156 35.0796 22.517 35.0525C22.7401 34.9849 24.0722 35.1472 24.39 35.1946C25.5327 35.3637 26.1548 35.6749 27.1893 35.9996C28.1291 36.2972 28.4943 35.9522 29.3192 35.6546C30.5025 35.2284 31.6925 34.8293 32.9569 34.7414C32.9975 34.6602 31.4694 34.0108 31.3477 33.9567C31.0299 33.8214 29.7587 33.4358 29.6235 33.2599C29.5694 33.1923 29.5085 33.0705 29.6437 33.0637C30.4957 33.3749 31.4085 33.5643 32.2537 33.889C32.8285 34.1123 33.7345 34.6737 34.2687 34.7752C34.9516 34.9037 36.216 34.9511 36.9463 34.9849C37.5751 35.0119 38.2107 34.9984 38.8395 34.9984C38.8666 34.9307 38.1634 34.5519 38.0619 34.491C33.2477 31.6905 26.3035 28.1798 21.1579 32.1438C18.5277 34.1664 17.1348 37.5824 14.6397 39.7741C15.343 40.0379 16.0394 40.3085 16.7291 40.5994C17.7704 41.0391 18.8049 41.6547 19.9476 41.7494L18.1828 41.0391C18.0476 40.9174 18.3181 40.87 18.406 40.8632C19.3999 40.8294 20.759 41.6276 21.7597 41.79L21.9693 42.0064L21.7935 42.1214C22.9836 42.3852 24.3629 42.4732 25.5733 42.3041C28.6363 41.8779 31.4559 39.348 34.0996 37.7921C35.4182 37.0142 36.8246 36.2228 38.2648 35.7222L35.8103 35.6748C33.5925 35.7357 32.0306 37.4471 30.0427 38.1371L29.9548 37.9477H29.9615ZM34.8367 28.8089C34.8367 28.8089 34.4174 28.5924 34.5594 28.7818C35.6548 29.3094 36.5 30.1618 37.5007 30.8247C36.9666 29.8438 35.8238 29.2486 34.8367 28.8089ZM35.6278 28.4098L35.6548 28.4707C35.6886 28.4301 35.6751 28.4098 35.6278 28.4098ZM39.0424 31.792L38.9815 31.6703L38.9207 31.6973L38.9815 31.8191L39.0424 31.792ZM39.1979 31.7988C39.0829 31.8461 39.0491 31.8259 39.1167 31.9476C39.4819 32.6241 40.6516 33.6455 41.2534 34.2002C42.6125 35.4516 44.073 36.5948 45.5132 37.7515L46.0068 38.0289C46.0068 37.7786 45.8986 37.7042 45.7431 37.5418C45.0196 36.791 43.8161 35.9928 42.9844 35.2825C41.9566 34.3964 40.9018 33.4696 39.9281 32.5564C39.678 32.3197 39.3534 32.0964 39.1911 31.792L39.1979 31.7988ZM64.3511 24.6419C61.3962 25.1899 58.3332 24.6961 55.4325 25.6228C51.6054 26.8472 50.0097 28.9983 48.4342 32.5023L48.0962 33.3411C48.7656 32.4347 49.8542 31.7379 50.5506 30.8924C51.1727 30.1415 51.7001 28.9983 52.3154 28.2677C52.383 28.1866 52.5588 27.9769 52.6197 28.173C52.6738 28.4233 51.7271 29.6544 51.6528 30.0265C52.2816 29.6883 52.8293 29.2215 53.4311 28.8359C54.0328 28.4504 54.8037 28.0986 55.3175 27.713C55.8314 27.3275 56.0884 26.4616 56.6496 26.1234C56.7916 26.1504 56.6902 26.2654 56.6563 26.3331C56.5346 26.6036 56.1763 26.8607 56.2777 27.2057C56.6902 27.0366 57.0823 26.8066 57.5015 26.6375C57.9749 26.4481 58.6172 26.3128 59.0635 26.076C59.4421 25.8731 59.6653 25.5146 60.0371 25.3184L59.929 25.9002C61.2272 25.4402 62.7485 25.3454 64.0333 24.8516C64.1076 24.8246 64.3984 24.7367 64.3511 24.6284V24.6419ZM38.3662 35.6816L38.3933 35.7425C38.4271 35.7019 38.4135 35.6816 38.3662 35.6816ZM62.3361 26.0287C62.255 25.9137 62.1535 25.9881 62.0589 26.0016C61.4165 26.0895 60.5375 26.3128 59.9019 26.4887C56.0546 27.5439 52.4777 29.4718 49.7595 32.4211C49.0022 33.2464 48.2855 34.1731 47.8122 35.1878L51.7474 33.0299L50.9496 33.1585C50.8617 33.1585 50.7602 33.1449 50.8414 33.0299C50.9834 32.8338 51.2606 32.8744 51.4432 32.7864C51.7542 32.6308 52.7076 31.7109 53.0321 32.022L52.8225 32.3873C55.3311 31.0615 57.319 28.9442 59.6991 27.4154C60.3279 27.0095 61.1122 26.536 61.7749 26.2045C61.971 26.1098 62.14 26.0896 62.3361 26.0287ZM61.9642 26.881C58.8403 28.5924 56.2439 31.0885 53.1403 32.8473C51.2538 33.9161 49.3268 34.5993 47.731 36.1484C47.2104 36.6489 46.9129 37.4404 47.1292 38.1439L49.9556 40.3694C50.8955 40.3829 51.8083 40.2747 52.7414 40.4303C55.1282 40.8294 57.1432 42.649 58.8877 44.2184C60.1589 44.3943 61.4503 44.3199 62.7283 44.3875C63.9454 44.4552 65.1557 44.6446 66.3728 44.6513C66.0617 44.3402 65.5343 44.259 65.1219 44.0832C63.2151 43.2646 60.5781 41.79 59.9019 39.693C59.6247 38.8339 59.6315 35.9319 59.6653 34.9172C59.7464 32.4211 61.0784 29.8641 61.8425 27.5168C61.8695 27.4424 62.0251 26.9013 61.9574 26.881H61.9642ZM66.2375 29.4109C65.2165 28.3151 64.1414 27.456 63.0258 26.4684C62.8703 26.3872 62.7486 26.5292 62.6606 26.6442C62.3834 27.0028 61.9372 28.7142 61.7343 29.2689C61.234 30.6488 60.6322 32.0423 60.3414 33.4899C60.0642 34.8631 60.1724 37.0074 60.3076 38.428C60.4428 39.8485 60.8621 40.498 61.8763 41.4585C63.2692 42.7844 65.0475 43.5555 66.7852 44.3064C66.4336 43.6975 66.1294 42.9129 65.7034 42.3649C65.1827 41.6885 64.2023 41.2556 63.5532 40.7212C62.9041 40.1868 62.282 39.4224 61.8357 38.6648C61.9507 38.631 62.0048 38.7392 62.0724 38.8001C62.397 39.0977 62.6742 39.5103 62.9987 39.8283C63.7019 40.5182 64.5674 41.0391 65.4194 41.5126C65.318 41.2285 65.1895 40.9241 65.1016 40.64C64.892 39.9433 64.7297 38.6783 64.466 38.1033C63.8913 36.8654 62.5592 35.959 62.0183 34.437C61.9913 34.3693 61.829 33.747 61.9574 33.8146C62.4037 34.9172 63.0934 35.9319 63.9048 36.8045C64.04 36.9534 64.2631 37.2036 64.4457 37.2442C64.2091 36.1822 64.4728 34.579 63.9927 33.6049C63.8439 33.3005 63.4856 33.0773 63.418 32.6917C63.5802 32.5835 63.5397 32.6782 63.6208 32.7661C63.7628 32.9149 63.8845 33.1991 64.1076 33.2126C64.0806 32.7188 63.9521 32.1844 63.9048 31.7041C63.898 31.6161 63.898 31.5011 63.9724 31.447C64.0333 31.5485 64.0671 31.6568 64.0873 31.7785C64.4187 33.6793 64.5471 35.6004 64.7906 37.508C65.1354 36.9669 65.3518 36.3175 65.5546 35.7087C65.7237 35.1946 65.9062 34.0243 66.0888 33.6658C66.1361 33.5643 66.2375 33.4561 66.2578 33.6252C66.3052 33.9364 66.0482 34.9308 65.9603 35.2825C65.602 36.7031 64.8514 37.968 65.176 39.4698C65.3721 40.3627 65.7913 41.3232 66.1632 42.1552L67.4208 36.818C67.4884 36.676 67.5493 36.9263 67.5493 36.9737C67.5831 37.2848 67.2788 38.8339 67.1977 39.2397C66.9543 40.4371 66.3187 42.0943 66.6973 43.3255C66.819 43.7111 67.0827 43.9682 67.2315 44.3334C67.3194 44.2726 67.2991 44.1643 67.2991 44.0696C67.3735 42.2703 67.502 42.0741 68.0158 40.4303C69.3276 36.2431 69.3817 32.8135 66.2173 29.4177L66.2375 29.4109ZM39.1776 41.3232C39.0627 41.2285 38.853 41.2623 38.7043 41.2623C37.6968 41.2353 36.4459 41.1947 35.4587 41.3232C32.5783 41.7088 29.8736 43.7111 27.6761 45.5105C25.3569 47.4113 23.3081 49.5895 21.327 51.8217L21.6042 51.7676L21.6312 51.9096C21.1376 52.5929 20.8334 53.3911 20.2384 53.9931L20.0828 53.8849L20.1302 53.4317C19.8191 53.9593 19.3796 54.4464 19.2444 55.0552C20.1437 54.5681 21.0497 54.0811 22.0031 53.709C24.7348 52.6335 27.0608 52.187 29.6911 50.6312C30.347 50.2456 30.9487 49.7585 31.6046 49.373V49.0009C31.8548 48.7574 32.2131 48.8521 32.4228 48.7371C32.984 48.4259 34.3025 47.161 34.8231 46.6537C35.7968 45.7134 36.642 44.6514 37.5481 43.657L38.3662 42.5273C36.7231 43.4337 35.2153 44.5769 33.6263 45.5781C33.0854 46.1395 32.9975 47.0392 32.6391 47.6616C32.5715 47.7766 31.9697 48.6289 31.8818 48.2163C32.3619 47.648 32.5783 46.9648 32.6391 46.2343L28.4469 48.8656C27.8587 49.3391 27.595 50.0021 27.1825 50.5838C27.0473 50.7732 26.4861 51.4902 26.3373 51.5714C26.1953 51.6458 26.1615 51.5308 26.1818 51.4091C26.2291 51.1385 27.3921 50.0562 27.3245 49.515L22.7401 52.16L22.4967 52.0449L26.9932 49.2918C26.9661 49.1633 26.8985 49.1836 26.8039 49.1633C26.3846 49.0618 25.8302 49.1227 25.4448 49.0415C25.3434 49.0212 25.2487 49.0145 25.2149 48.8859C25.3028 48.6898 26.8985 48.7709 27.2231 48.7236C28.1832 48.5883 28.8459 48.0945 29.6573 47.5939C30.4687 47.0934 31.7331 46.3425 32.4295 45.7607C32.4836 45.7201 32.5648 45.6795 32.5107 45.6119C31.7804 45.7404 30.969 45.6525 30.2455 45.7607C29.8398 45.8216 29.3733 46.0245 28.9946 46.0448C28.8729 46.0448 28.8459 46.126 28.7985 45.9501C29.2448 45.7742 29.7181 45.6051 30.1847 45.4969C31.5843 45.1722 32.9366 45.3616 34.1943 44.5972C34.5053 44.4078 34.9313 44.1102 35.2221 43.887C35.2762 43.8464 35.4046 43.7787 35.3438 43.6976L32.0441 43.8464L31.9156 43.6705C32.8825 43.4743 33.9036 43.4946 34.8705 43.339C35.7427 43.197 36.2363 43.0887 36.9936 42.6152C37.7239 42.162 38.3256 41.587 39.1776 41.3165V41.3232ZM77.2049 59.6956C75.0817 58.2006 72.5799 56.6719 70.3554 55.346C68.3945 54.1825 66.5351 52.9514 64.6012 51.7541C63.2624 50.922 61.7411 50.2185 60.4361 49.3527C56.8795 46.9919 53.4175 43.7381 50.1449 40.9782C49.2321 40.2071 48.2246 39.5442 47.3659 38.7054C47.2307 38.746 47.1563 38.7257 47.2239 38.8745C47.3794 39.2195 48.3261 39.8688 48.6709 40.1732C51.3079 42.5002 53.8232 45.0099 56.6969 47.0663C58.6578 48.4665 60.7742 49.5962 62.7688 50.9288C64.3308 51.9773 65.798 53.2085 67.387 54.2164C69.6995 55.6843 72.1539 56.9492 74.534 58.2683C75.3184 58.7012 76.123 59.3236 76.9209 59.7024C77.0291 59.7565 77.1034 59.8309 77.2387 59.7633C77.2995 59.973 77.5767 60.1421 77.7661 60.23C77.8337 60.2638 77.9554 60.3653 77.9757 60.2232C77.7458 60.0135 77.455 59.8782 77.2049 59.7024V59.6956ZM20.2248 53.3167L20.2519 53.3776C20.2857 53.337 20.2722 53.3167 20.2248 53.3167ZM80.5383 26.0287C79.8757 26.5496 79.328 27.2125 78.6789 27.7604C75.386 30.5541 71.7347 32.7999 69.6116 36.7369C69.0504 37.7718 69.0774 38.5092 68.7934 39.5983C68.5568 40.498 67.7386 42.162 67.8198 43.0008C67.9144 43.9072 68.6717 44.8813 69.0774 45.6593C69.6251 46.701 69.8753 47.8036 70.1796 48.9333C70.423 49.8262 70.5244 50.7732 70.9098 51.6255L70.9504 49.373L71.2682 48.4395C70.5988 47.0934 69.3005 46.2748 69.7333 44.6108C69.7806 44.4281 69.9835 44.2455 69.9497 44.0019C69.8956 43.6164 69.5778 42.94 69.4628 42.5206C69.3479 42.1012 68.8813 40.3085 69.0368 39.9636C69.0639 39.9027 69.1383 39.8485 69.1653 39.9094C69.3073 41.0797 69.6657 42.2364 70.1525 43.2984C70.308 42.7776 70.4095 42.2026 70.5853 41.6885C70.8151 41.0391 71.3696 40.3221 71.2006 39.6253C70.8489 38.1913 70.5379 37.8801 70.8354 36.3107C70.849 36.2228 70.8084 36.0807 70.8084 36.0672C70.8287 36.0063 70.9368 35.9725 70.9774 36.101C71.045 36.3175 70.9301 37.1225 70.9504 37.4472C70.9707 37.6839 70.9909 37.9274 71.045 38.1574C71.16 38.6512 71.3831 39.0503 71.4981 39.5238C71.5184 39.6185 71.5386 39.6388 71.6198 39.5712L73.5536 36.5881C73.5536 35.7154 73.1073 34.9443 73.2155 34.0378C73.3102 33.9837 73.344 33.9431 73.3846 34.0717C73.4657 34.349 73.4116 34.7955 73.5333 35.1675C73.6347 35.499 73.8511 35.7831 73.8782 36.1281C73.9052 36.189 73.9863 36.1146 74.0337 36.0807C74.3312 35.8575 75.5415 34.3896 75.8052 34.0311C76.3258 33.314 75.9675 32.827 76.0621 32.0423C76.1771 31.9611 76.1906 32.0423 76.2109 32.1506C76.2582 32.4414 76.2109 32.6308 76.3529 32.9352C76.4002 33.0299 76.4273 33.2193 76.549 33.1111C76.6639 33.0096 77.0493 32.4617 77.1643 32.2994C77.428 31.9138 79.1995 28.775 79.4903 28.8697C79.5647 29.0321 79.4362 29.2283 79.3686 29.3704C78.9494 30.2092 78.1921 31.3726 77.6714 32.1776C77.3671 32.6444 77.002 33.0705 76.7113 33.5373C76.9479 33.5102 77.1508 33.3479 77.3807 33.2802C77.4686 33.2532 78.6789 32.942 78.5572 33.2599C78.307 33.3276 78.023 33.3682 77.7796 33.4629C77.3604 33.6252 76.6504 33.9093 76.265 34.1122C76.0148 34.2408 74.7842 35.6478 74.534 35.959C74.392 36.1281 74.3312 36.3648 74.108 36.4528C74.1621 36.6219 74.1554 36.5542 74.2568 36.5407C74.7436 36.4731 75.271 36.189 75.7511 36.0807L75.839 36.2701C75.1764 36.7369 74.1148 36.7437 73.5468 37.2713C73.3237 37.4742 72.9856 38.0222 72.7963 38.2927C72.7016 38.428 71.8159 39.8621 71.897 39.9094C72.1404 39.9094 72.3162 39.7674 72.5191 39.6997C72.6137 39.6727 72.7219 39.6524 72.6678 39.7809C72.4041 40.0718 71.8226 40.1462 71.586 40.3965C71.4169 40.5791 70.9774 41.7156 70.8828 42.0132C70.8151 42.2229 70.5244 43.2511 70.5379 43.3932C70.5447 43.5217 70.6055 43.4676 70.6731 43.4473C71.0924 43.3188 71.5454 43.0076 72.0052 42.8994C72.066 42.8385 72.0322 42.2973 72.0458 42.135C72.4109 38.888 76.292 37.0684 78.0568 34.7346C79.4024 32.9555 79.9771 30.8585 80.2949 28.6871L80.5316 26.0422L80.5383 26.0287ZM48.8332 41.2421C48.752 41.2082 48.3666 41.3164 48.2449 41.3503C46.0339 41.9726 43.62 43.4405 41.6794 44.6784C39.6982 45.9366 36.3715 48.2095 35.5804 50.4823C35.4993 50.7123 35.1815 52.1059 35.3911 52.2006C36.2836 51.8691 37.1491 51.7947 38.0755 52.0382C38.7111 52.2073 40.0228 52.9379 40.4826 52.992C40.6178 53.0055 40.6652 52.8635 40.8342 52.8567C41.179 52.8499 42.484 53.4452 42.7139 53.7023C42.8221 53.824 42.7613 53.9796 42.8762 54.0811C43.1196 54.2975 45.5606 55.2513 46.0339 55.4137C52.7819 57.7204 56.4332 55.0078 62.6606 53.0528C63.1948 52.8837 63.7898 52.762 64.3375 52.6605C64.3984 52.4238 61.9777 51.1453 61.6464 51.0032C58.4279 49.6503 54.7496 52.6605 51.5987 53.4249C50.3207 53.7361 48.8602 53.9593 47.562 53.7902C47.5011 53.7023 47.5079 53.682 47.6093 53.6549C47.9001 53.5737 48.5695 53.6279 48.9414 53.5805C52.2207 53.1746 53.9044 51.8285 56.751 50.5906C57.2987 50.3538 57.9343 50.2321 58.482 49.9886C57.6165 49.975 56.866 49.515 56.0816 49.3053C54.0396 48.7506 51.2335 48.2501 49.32 49.2918C48.0624 49.975 47.5417 50.5838 46.0339 51.0235C45.7499 51.1047 45.4524 51.1453 45.1616 51.2062C44.8303 51.0844 45.7431 50.8679 45.7905 50.8477C46.1285 50.7056 46.541 50.5297 46.8588 50.3538C47.8257 49.833 48.5019 48.913 49.5026 48.4462C49.5702 48.338 48.0556 48.3583 47.9474 48.3651C45.6214 48.4598 43.4104 49.2241 41.1182 49.5421C40.9424 49.5691 40.0769 49.7045 40.016 49.5759C39.9552 49.4609 40.158 49.4338 40.2256 49.4203C40.8071 49.3053 41.4089 49.2512 42.004 49.1227C44.3299 48.6153 46.5748 47.8577 49.0022 47.9186C47.9542 46.9242 46.8115 46.0516 45.4862 45.4631C45.3983 45.3616 45.4997 45.3143 45.5944 45.3143C45.8851 45.3007 47.4944 46.1395 47.8189 46.3425C48.6033 46.8363 49.2997 47.5195 50.1517 47.9254L54.736 48.3312C52.809 46.4778 50.5709 45.0504 48.2517 43.7584L48.1908 43.5014C50.1044 44.5228 52.0314 45.524 53.7827 46.816C54.5873 47.4113 55.304 48.1351 56.1898 48.6153L58.9012 49.2309C58.8742 49.1159 58.7727 49.0888 58.6916 49.0347C57.8126 48.4056 56.8186 47.8577 55.9193 47.2286C53.4784 45.5172 51.3958 43.5014 49.1442 41.6073C49.0293 41.5126 48.9549 41.2759 48.8399 41.2353L48.8332 41.2421ZM54.0261 41.3909C53.4311 41.1609 52.8834 41.0053 52.241 40.9376C51.8962 40.8971 51.0713 40.8294 50.7535 40.8767C50.6453 40.8903 50.652 40.9309 50.7061 41.012C52.1058 42.1958 53.4919 43.3932 54.9186 44.5499C57.4001 46.559 60.0574 48.6695 62.7891 50.3065C62.9041 50.3741 63.0258 50.4824 63.1678 50.4688C61.5044 48.6086 60.2265 46.4236 58.4752 44.6378C57.2919 43.4337 55.5948 42.0064 54.0261 41.3976V41.3909ZM77.8675 35.5599C76.5017 36.9128 74.933 37.9274 73.7429 39.4698C73.1006 40.3018 72.3636 41.472 72.4312 42.5476C73.1073 41.9591 73.8849 41.4991 74.5611 40.9173C75.9472 39.7403 77.0358 37.8868 77.6917 36.1957C77.7187 36.1213 77.9419 35.5801 77.8607 35.5531L77.8675 35.5599ZM66.7311 45.3278C65.602 45.1384 64.4457 44.9287 63.2962 44.834C61.9913 44.7325 60.6795 44.8408 59.3745 44.6717C59.3069 45.0166 61.0852 46.0516 61.4233 46.2343C62.6945 46.9175 64.1144 47.3301 65.4261 47.9457C67.2788 48.8183 69.2194 49.8803 70.3892 51.6391C70.4838 51.612 70.4297 51.4835 70.4162 51.4159C70.0984 49.8262 69.4696 47.2963 68.4689 46.0516C68.1376 45.6457 67.6913 45.409 67.1774 45.321C66.9881 45.2872 66.7852 45.3413 66.7311 45.3278ZM85.4675 36.0943C85.7245 36.2769 86.1234 36.4054 86.448 36.4054L86.0761 36.5745C86.1775 36.6489 86.7184 36.7842 86.4615 37.0007L85.6231 36.7369L85.7042 36.5881C84.9063 36.4122 84.1287 36.1348 83.3376 35.8913L83.4458 35.729L83.8853 35.6748C82.7629 35.3704 81.485 35.2487 80.3287 35.4449C79.8351 35.526 78.3476 35.9184 78.0906 36.2837C77.5362 37.6501 76.86 39.0233 75.9134 40.1597C75.67 40.4506 75.2575 40.7347 75.1088 41.0864C76.3394 40.6738 77.3807 39.9771 78.2326 38.9962C78.6316 38.5362 78.9223 37.9883 79.2739 37.508C79.4497 37.2645 79.6593 37.2578 79.5309 37.5554C79.2469 38.2115 78.6586 38.8813 78.2597 39.4765L77.5362 40.2747L79.0981 39.7944C80.3355 39.0098 81.201 37.8327 82.1205 36.7234C82.3504 36.8045 81.5931 37.6771 81.5729 37.7989L80.4369 39.1721C81.1536 38.8609 82.0935 38.7324 82.7764 38.4077C83.2971 38.1574 83.7501 37.8666 84.3045 37.6095C84.5142 37.508 84.7373 37.2848 85.001 37.2307C84.7846 37.7719 84.0814 37.9477 83.6081 38.2521C83.5202 38.3062 83.4188 38.3468 83.4458 38.4821L85.8935 38.198C86.2722 38.3671 85.1295 38.6309 85.0213 38.6512C84.7238 38.7054 84.4127 38.6918 84.1152 38.7121C84.0747 38.9015 84.3992 38.9083 84.4601 39.0504C84.5818 39.3006 83.6013 38.8812 83.5405 38.8677C82.6682 38.6918 81.6472 39.118 80.8561 39.4494C80.7615 39.6659 82.364 39.8756 82.4113 40.1056C81.6946 40.0447 81.0049 39.9297 80.322 39.7133L78.3881 40.5115C78.3611 40.5724 78.7533 40.7685 78.8276 40.8023C79.2266 40.9917 79.612 41.1338 80.0515 41.1541C80.1124 41.2488 80.1056 41.2556 80.0042 41.2894C79.3145 41.5059 78.2259 40.6806 77.4888 40.7821C76.8735 40.87 76.1501 41.2488 75.528 41.3706C75.5483 41.4856 75.6226 41.4856 75.7038 41.5194C76.123 41.6953 76.8871 41.8238 77.3333 41.8373C77.4753 42.0267 77.2116 42.0403 77.0696 42.047C76.292 42.0809 75.2034 41.4991 74.5273 41.7832C74.2433 41.8982 73.7632 42.1823 73.5198 42.3717C73.4454 42.4326 73.3102 42.3988 73.4116 42.5341L77.6308 42.2296C79.7405 42.0064 82.5127 41.0662 84.3654 40.0447C85.7042 39.3074 86.759 38.3265 88.3683 38.3536C88.6928 38.3536 88.9971 38.4821 89.3217 38.4483C89.0106 37.8733 88.5441 37.2916 88.0167 36.906C87.3067 36.3851 86.3736 36.2498 85.5419 36.074C85.3864 36.0401 85.17 35.9048 84.9942 35.9454L85.3661 36.1349L85.4811 36.1078L85.4675 36.0943ZM60.7133 46.3425L60.7404 46.4034C60.7742 46.3628 60.7606 46.3425 60.7133 46.3425ZM84.0341 35.6884L84.0611 35.7493C84.0949 35.7087 84.0814 35.6884 84.0341 35.6884ZM72.5055 56.0698C71.7888 55.3257 71.1532 54.7169 70.8151 53.6955C70.7137 53.3843 70.7475 53.0461 70.592 52.7282C68.9625 49.3459 65.6358 48.4801 62.4443 47.1475C61.998 46.958 61.5112 46.6807 61.0649 46.5116C60.977 46.4778 60.9229 46.3628 60.8012 46.4575C61.8493 48.0336 63.0258 49.603 64.3849 50.9221C65.3247 51.8285 66.2713 52.4035 67.3059 53.1611L72.4988 56.0766L72.5055 56.0698ZM68.3066 45.1316L67.813 44.0628L67.7792 44.8002C67.8333 44.9152 68.1646 45.0978 68.3066 45.1316ZM78.6045 42.4529C76.8803 42.8249 75.075 42.6423 73.3372 42.9805C71.302 43.3729 69.0301 44.1237 70.4365 46.6266C70.6799 47.0663 71.0856 47.4451 71.3223 47.8915C71.6468 48.5003 71.8159 49.1768 71.9849 49.833C72.634 47.0189 74.818 45.0031 77.1305 43.4405C77.5091 43.1835 77.9824 42.9535 78.3679 42.7032C78.4355 42.6626 78.6518 42.5476 78.6045 42.4529ZM71.4305 48.9536C71.2547 48.9941 71.3426 49.0483 71.3223 49.143C71.187 49.8736 71.3696 50.8206 71.3493 51.5782C71.4575 51.6188 71.5927 51.01 71.613 50.9221C71.7347 50.2591 71.6468 49.5894 71.4305 48.9536ZM64.9055 53.3978C61.9642 54.6222 59.2596 56.7869 57.7653 59.6212C55.7909 63.362 55.2635 68.99 58.5361 72.2099C58.651 72.2505 58.6443 72.1694 58.6781 72.1017C58.8133 71.865 58.8809 71.52 59.0567 71.2494C59.956 69.8762 61.9913 68.7059 63.276 67.6574C65.6222 65.7431 66.2916 64.7622 66.0955 61.6709C65.94 59.1748 65.203 56.7328 65.1422 54.2299C64.1076 55.0822 63.276 56.1984 62.593 57.3483C63.2421 58.4239 63.5735 59.6415 63.9994 60.8118L63.8101 60.8997C63.3233 59.8783 62.9176 58.8094 62.2685 57.8759C62.1941 57.8489 61.9034 58.4306 61.8493 58.5254C61.6396 58.938 61.4098 59.4859 61.2475 59.9188C61.0649 60.4059 60.5375 62.1105 60.6119 62.5502C60.6525 62.8073 61.0784 63.4432 61.2475 63.6934C61.3759 63.8828 62.0521 64.6405 62.0724 64.7013C62.0927 64.7758 61.9845 64.9313 61.8695 64.8299L60.5172 63.4432L60.3752 63.4634L59.9019 67.6371L59.7329 67.6777L59.9831 63.6055L59.8478 63.5581L59.0973 64.7352C58.9756 64.8366 58.9418 64.6743 58.9485 64.5728C59.2528 63.8084 59.7937 63.0305 60.1048 62.2932C60.4158 61.5559 60.4969 60.5074 60.7404 59.7159C60.9229 59.1139 61.1934 58.4712 61.4638 57.8963C61.43 57.7474 61.3557 57.8286 61.261 57.8759C60.8215 58.0653 60.1115 58.6945 59.7464 59.0327C59.3813 59.3709 58.9485 59.9865 58.624 60.23C58.509 60.318 58.4752 60.1962 58.4685 60.1218C58.4549 59.9662 60.1589 58.1059 60.4158 57.8759C60.6186 57.6933 60.9297 57.3957 61.1461 57.2604C61.4503 57.0778 61.9101 56.9763 62.1603 56.7531C62.5389 56.4148 63.1881 55.2446 63.6343 54.7507C63.9318 54.4193 64.3105 54.1352 64.6215 53.8172C64.7162 53.7158 64.9123 53.5264 64.9325 53.3843L64.9055 53.3978ZM78.1447 60.2571L78.023 60.3112L78.0839 60.4329L78.2056 60.3788L78.1447 60.2571Z" stroke="#6F7A58" stroke-width="0.85" stroke-linecap="round" stroke-linejoin="round"/>
<path d="M6.05926 6.90541C5.6468 7.27069 5.01121 7.00012 4.59199 7.50746C4.5379 7.7848 5.32901 7.41949 5.48453 7.4736C5.5251 7.893 4.33505 8.03509 4.25391 7.92685C4.24715 7.34511 4.87598 7.10158 5.34253 6.95276C5.53186 6.89188 5.89022 6.78365 6.05926 6.90541Z" fill="#6F7A58" stroke="#6F7A58" stroke-width="0.85" stroke-linecap="round" stroke-linejoin="round"/>
<path d="M4.99094 4.74075C4.81514 5.15338 3.66567 3.97637 3.53044 3.82755C3.46958 3.75991 3.22616 3.5299 3.36816 3.42843C3.51015 3.32696 3.99699 3.92903 4.13222 4.04402C4.41621 4.28078 4.72048 4.49046 4.9977 4.74075H4.99094Z" fill="#6F7A58" stroke="#6F7A58" stroke-width="0.85" stroke-linecap="round" stroke-linejoin="round"/>
<path d="M12.2529 13.2776C12.4287 13.3317 11.8134 14.1164 12.1041 14.184L12.3476 14.1434L11.9554 14.7793C11.6917 14.2923 11.6849 13.5414 12.2461 13.2776H12.2529Z" fill="#6F7A58" stroke="#6F7A58" stroke-width="0.85" stroke-linecap="round" stroke-linejoin="round"/>
<path d="M15.3362 7.43978C15.5728 7.79829 15.4849 8.04859 15.2753 8.38005C15.2753 7.5142 14.8561 8.56268 14.775 8.53562C14.6127 8.30563 15.1536 7.37213 15.3362 7.43978Z" fill="#6F7A58" stroke="#6F7A58" stroke-width="0.85" stroke-linecap="round" stroke-linejoin="round"/>
<path d="M5.47778 8.92801L5.69415 8.90096L5.34255 9.44889C5.11265 8.98213 5.15322 8.48833 5.53863 8.14334C5.65358 8.42069 5.3155 8.67095 5.48454 8.92801H5.47778Z" fill="#6F7A58" stroke="#6F7A58" stroke-width="0.85" stroke-linecap="round" stroke-linejoin="round"/>
<path d="M2.63789 1.93353C2.44181 1.97411 2.44857 1.44645 2.408 1.43292L2.18487 1.76441C2.00906 1.5006 1.98878 1.21648 2.0564 0.912079C2.42828 1.23001 2.62437 1.41939 2.63789 1.94026V1.93353Z" fill="#6F7A58" stroke="#6F7A58" stroke-width="0.85" stroke-linecap="round" stroke-linejoin="round"/>
<path d="M20.2924 18.5606C20.2316 18.3374 20.4209 18.1683 20.5832 18.0465C20.5764 18.2833 20.3939 18.4186 20.2924 18.5606C20.3127 18.6215 20.3533 18.6824 20.3803 18.7501C20.6846 18.6824 20.7793 18.3983 20.9551 18.1818C21.2391 18.8718 20.4615 18.7298 20.1572 19.0815C20.0693 18.8515 20.1843 18.7162 20.2992 18.5606H20.2924Z" fill="#6F7A58"/>
<path d="M20.2924 18.5606C20.2316 18.3374 20.4209 18.1683 20.5832 18.0465C20.5764 18.2833 20.3939 18.4186 20.2924 18.5606ZM20.2924 18.5606C20.3127 18.6215 20.3533 18.6824 20.3803 18.7501C20.6846 18.6824 20.7793 18.3983 20.9551 18.1818C21.2391 18.8718 20.4615 18.7298 20.1572 19.0815C20.0693 18.8515 20.1843 18.7162 20.2992 18.5606H20.2924Z" stroke="#6F7A58" stroke-width="0.85" stroke-linecap="round" stroke-linejoin="round"/>
<path d="M8.41231 2.7791C8.5205 2.97527 8.61516 3.14437 8.48669 3.35407L8.30412 3.27967L7.91871 3.69229C7.83081 3.66523 8.22975 2.71145 8.41231 2.7791Z" fill="#6F7A58" stroke="#6F7A58" stroke-width="0.85" stroke-linecap="round" stroke-linejoin="round"/>
<path d="M12.3814 14.0555L12.8073 13.1761C13.1116 13.6226 12.7059 13.8187 12.3814 14.0555Z" fill="#6F7A58" stroke="#6F7A58" stroke-width="0.85" stroke-linecap="round" stroke-linejoin="round"/>
<path d="M6.14717 8.08921C6.32297 8.42743 5.98489 8.67096 5.72119 8.81302C5.72795 8.69802 6.0728 8.05539 6.14717 8.08921Z" fill="#6F7A58" stroke="#6F7A58" stroke-width="0.85" stroke-linecap="round" stroke-linejoin="round"/>
<path d="M3.00979 3.8952C3.08417 3.93579 3.32082 4.64608 3.08417 4.54461C2.93541 4.3552 2.71904 4.07784 3.00979 3.8952Z" fill="#6F7A58" stroke="#6F7A58" stroke-width="0.85" stroke-linecap="round" stroke-linejoin="round"/>
<path d="M1.21797 2.96848L1.16388 3.18494L1.60338 3.32701C1.46139 3.53671 0.744656 3.21877 0.933981 3.10377L1.21797 2.97525V2.96848Z" fill="#6F7A58" stroke="#6F7A58" stroke-width="0.85" stroke-linecap="round" stroke-linejoin="round"/>
<path d="M77.2049 59.6956C77.455 59.8714 77.7458 60.0067 77.9757 60.2164C77.9486 60.3585 77.8337 60.257 77.7661 60.2232C77.5768 60.1353 77.2995 59.9662 77.2387 59.7565L77.2116 59.6956H77.2049Z" fill="#6F7A58" stroke="#6F7A58" stroke-width="0.85" stroke-linecap="round" stroke-linejoin="round"/>
<path d="M41.4563 53.3776C41.4563 53.3776 41.5171 53.3302 41.5712 53.3438C41.6591 53.3573 41.7808 53.5196 41.8484 53.5805C41.5239 53.594 41.6456 53.5332 41.4563 53.3844C41.3345 53.3776 41.1587 53.4588 41.0911 53.2491C41.2737 53.1408 41.3548 53.3032 41.4563 53.3844V53.3776Z" fill="#6F7A58"/>
<path d="M41.4563 53.3844C41.6456 53.5332 41.5239 53.594 41.8484 53.5805C41.7808 53.5196 41.6591 53.3573 41.5712 53.3438C41.5171 53.3302 41.4563 53.3776 41.4563 53.3776V53.3844ZM41.4563 53.3844C41.3345 53.3776 41.1587 53.4588 41.0911 53.2491C41.2737 53.1408 41.3548 53.3032 41.4563 53.3844Z" stroke="#6F7A58" stroke-width="0.85" stroke-linecap="round" stroke-linejoin="round"/>
<path d="M4.32154 2.46112L4.28097 2.63023L3.91585 2.56933L4.32154 2.46112Z" fill="#6F7A58" stroke="#6F7A58" stroke-width="0.85" stroke-linecap="round" stroke-linejoin="round"/>
<path d="M21.8273 17.9316L21.7665 17.9586L21.5569 17.6745L21.6515 17.6339L21.78 17.6948L21.8273 17.9316Z" fill="#6F7A58" stroke="#6F7A58" stroke-width="0.85" stroke-linecap="round" stroke-linejoin="round"/>
<path d="M21.8138 18.2427C21.8138 18.2427 21.8544 18.3238 21.8408 18.3847C21.7394 18.7771 21.496 18.148 21.8138 18.2427Z" fill="#6F7A58" stroke="#6F7A58" stroke-width="0.85" stroke-linecap="round" stroke-linejoin="round"/>
<path d="M41.8484 53.5737C41.9972 53.5737 41.9972 53.4925 42.1189 53.7496C41.9702 53.7428 41.9296 53.6413 41.8484 53.5737Z" fill="#6F7A58" stroke="#6F7A58" stroke-width="0.85" stroke-linecap="round" stroke-linejoin="round"/>
<path d="M85.5352 36.0672L85.4743 36.0943L85.3593 36.1213L84.9875 35.9319C85.1633 35.8913 85.3796 36.0266 85.5352 36.0604V36.0672Z" fill="#6F7A58" stroke="#6F7A58" stroke-width="0.85" stroke-linecap="round" stroke-linejoin="round"/>
<path d="M78.1687 60.2343L78.0458 60.2908L78.1023 60.4137L78.2252 60.3572L78.1687 60.2343Z" fill="#6F7A58" stroke="#6F7A58" stroke-width="0.85" stroke-linecap="round" stroke-linejoin="round"/>
<path d="M34.8366 28.8089C35.8306 29.2486 36.9666 29.8438 37.5007 30.8247C36.5 30.1618 35.648 29.3094 34.5594 28.7818C34.4174 28.5924 34.8028 28.7953 34.8366 28.8089Z" fill="#6F7A58" stroke="#6F7A58" stroke-width="0.85" stroke-linecap="round" stroke-linejoin="round"/>
<path d="M37.3114 48.6559L37.2776 48.9265L35.6819 51.382C35.3032 51.2332 36.6691 48.5544 37.3114 48.6559Z" fill="#6F7A58" stroke="#6F7A58" stroke-width="0.85" stroke-linecap="round" stroke-linejoin="round"/>
<path d="M52.6467 55.6098C52.5453 55.6707 52.4371 55.7045 52.3154 55.7248C51.9705 55.7992 50.4559 56.0428 50.1922 56.0022C50.0164 55.9751 49.8474 55.7992 49.7798 55.6369L52.3221 55.4407L52.6467 55.6098Z" fill="#6F7A58" stroke="#6F7A58" stroke-width="0.85" stroke-linecap="round" stroke-linejoin="round"/>
<path d="M49.6513 55.6166C49.6983 55.6166 49.7117 55.6367 49.6781 55.6769L49.6513 55.6166Z" fill="#6F7A58" stroke="#6F7A58" stroke-width="0.85" stroke-linecap="round" stroke-linejoin="round"/>
<path d="M19.4202 34.6466L20.2722 33.4831C20.9145 32.5158 21.9761 32.0288 22.97 31.5147C23.4501 31.2644 23.2946 31.65 23.0106 31.9003C22.5238 32.3264 21.8409 32.5902 21.3067 32.9893C20.617 33.5034 20.1707 34.2813 19.4202 34.6601V34.6466Z" fill="#6F7A58" stroke="#6F7A58" stroke-width="0.85" stroke-linecap="round" stroke-linejoin="round"/>
<path d="M29.4409 11.0791C29.4747 11.3497 29.8331 11.3294 29.8872 11.3903C30.1441 11.6744 30.516 11.9044 30.7459 12.2764C30.8744 12.4861 30.9352 12.7567 31.0637 12.9597C31.4356 13.5549 31.9494 14.0961 32.0712 14.8199L31.8886 14.9078C31.2395 13.5549 30.3605 12.3305 29.3665 11.2212L29.4409 11.0859V11.0791Z" fill="#6F7A58" stroke="#6F7A58" stroke-width="0.85" stroke-linecap="round" stroke-linejoin="round"/>
<path d="M66.2375 29.4109C66.2375 29.5936 66.4809 29.7694 66.5148 29.8506L67.1368 31.2035L66.9475 31.2914C66.4471 30.6691 66.082 29.9453 65.5546 29.3433C64.9934 28.6939 64.2226 28.1798 63.6816 27.5033C63.7493 27.3342 64.0941 27.6386 64.182 27.6995C64.8176 28.1392 65.5884 28.7412 66.082 29.3298L66.2308 29.4109H66.2375Z" fill="#6F7A58" stroke="#6F7A58" stroke-width="0.85" stroke-linecap="round" stroke-linejoin="round"/>
<path d="M16.8914 21.7264L12.3137 25.129C12.05 25.0478 12.8006 24.5067 12.8412 24.4661C13.9771 23.3432 14.6871 22.5449 16.1543 21.8414C16.4113 21.7197 16.7358 21.2935 16.8914 21.7264Z" fill="#6F7A58" stroke="#6F7A58" stroke-width="0.85" stroke-linecap="round" stroke-linejoin="round"/>
<path d="M75.4265 30.7435C75.5685 30.9397 75.4063 31.0885 75.2913 31.2373L73.5806 32.6579C73.4319 32.1505 75.2575 30.6758 75.4333 30.7435H75.4265Z" fill="#6F7A58" stroke="#6F7A58" stroke-width="0.85" stroke-linecap="round" stroke-linejoin="round"/>
<path d="M66.7312 45.3278C66.7312 45.3278 66.7785 45.4495 66.8529 45.4901C67.1504 45.6524 67.5831 45.8351 67.6913 46.1801C66.2646 45.4292 64.6012 45.7674 63.0731 45.4495C63.7763 45.3345 64.5133 45.2533 65.2301 45.2466C65.4329 45.2466 66.65 45.2804 66.7312 45.3278Z" fill="#6F7A58" stroke="#6F7A58" stroke-width="0.85" stroke-linecap="round" stroke-linejoin="round"/>
<path d="M65.5952 45.9975C66.0077 45.8284 66.6432 45.9231 67.0219 46.1396C67.1842 46.2275 68.0632 46.9242 67.8062 47.1069C67.3532 47.0054 67.0489 46.5725 66.5689 46.3831C66.4066 46.3222 65.5141 46.2072 65.5952 45.9975Z" fill="#6F7A58" stroke="#6F7A58" stroke-width="0.85" stroke-linecap="round" stroke-linejoin="round"/>
<path d="M71.2614 46.931C71.2614 46.931 71.2073 47.0866 71.1803 47.0798C70.7002 46.3628 69.8144 45.5307 70.4974 44.6649C70.5717 44.5634 71.1465 43.914 71.1938 44.2996C71.1938 44.3469 70.8625 44.8069 70.8219 44.9152C70.7746 45.0369 70.6799 45.6593 70.7205 45.7337C70.849 46.0178 71.2276 46.6875 71.2682 46.931H71.2614Z" fill="#6F7A58" stroke="#6F7A58" stroke-width="0.85" stroke-linecap="round" stroke-linejoin="round"/>
</svg>
