<svg width="18" height="26" viewBox="0 0 18 26" fill="none" xmlns="http://www.w3.org/2000/svg">
<path d="M7.25412 0.452031C7.26765 0.492618 7.38259 0.492616 7.42316 0.492616C7.86267 0.499381 8.28864 0.587323 8.68081 0.749671C8.72138 0.769964 8.82957 0.810541 8.84985 0.82407C8.86338 0.830835 8.85661 0.871433 8.88365 0.878198C8.90394 0.884962 8.97156 0.85114 9.01212 0.878198C9.03241 0.98643 9.05272 0.912019 9.07977 0.918783C9.07977 0.918783 9.07974 0.945833 9.09326 0.952598C9.2623 1.06083 9.37726 1.12848 9.53278 1.25701C9.53954 1.25701 9.59365 1.25701 9.62745 1.29759C9.64774 1.32465 9.64772 1.35846 9.64772 1.36522C9.64772 1.36522 9.74914 1.33143 9.76942 1.43966L9.80322 1.42612C9.78294 1.50053 9.83704 1.47349 9.85733 1.48702C9.9317 1.56143 9.92496 1.56141 9.96553 1.63582C9.96553 1.64258 10.094 1.72375 10.121 1.75758C10.3374 1.99433 10.4929 2.18377 10.6417 2.46111C10.6552 2.48817 10.7228 2.52197 10.7363 2.56255C10.7566 2.61667 10.6552 2.56258 10.6755 2.63022C10.8242 2.56934 10.8107 2.82636 10.9121 2.89401L10.8716 2.92109L10.9324 2.93459C10.8851 3.00224 10.9527 2.97518 10.9662 3.01576C11 3.1037 11.0677 3.29991 11.0474 3.38784H11.0812L11.0676 3.43516L11.0203 3.45547C11.0203 3.45547 11.0677 3.45549 11.0879 3.47579C11.1353 3.51637 11.2029 3.98309 11.2164 4.07102C11.257 4.48366 11.2029 4.94368 11.115 5.33602C11.115 5.36308 11.0609 5.40366 11.0474 5.45101C11.0203 5.54571 11.0406 5.78246 10.8986 5.78246L10.9392 5.80951C10.9122 5.86362 10.8986 5.9245 10.8716 5.97862C10.7701 6.20861 10.6281 6.43863 10.4929 6.64157L10.5065 6.67538C10.4524 6.68215 10.405 6.64156 10.3577 6.6348C10.2833 6.6348 10.1143 6.75655 10.0399 6.79714C9.30289 7.17595 8.41712 7.53447 7.5922 7.6427C6.99042 7.72388 5.89505 7.71713 5.36088 7.40596C5.27974 7.35861 4.86051 7.00008 4.79966 7.06096C4.91461 7.60212 5.57723 7.81181 6.05731 7.89299C7.42991 8.12974 9.07973 7.98093 10.2292 7.14214C10.2765 7.10831 10.3712 7.00682 10.405 6.98652C10.4659 6.95947 10.4997 7.06772 10.4253 7.05419V7.07447C10.4929 7.07447 10.4659 7.16241 10.4659 7.20976L10.4253 7.18949V7.27066L10.4659 7.27743C10.4321 7.33155 10.4186 7.37889 10.4253 7.43977H10.4659C10.4659 7.43977 10.4726 7.49387 10.4253 7.5074V7.54799L10.4659 7.5683L10.4456 7.65624L10.5065 7.63593C10.52 7.66975 10.4794 7.68331 10.4727 7.7036C10.4659 7.72389 10.4929 7.75095 10.4929 7.78477C10.4929 7.80506 10.432 7.82533 10.5199 7.87944C10.4185 7.92003 10.4794 7.99447 10.4861 8.08241L10.5403 8.09591L10.4794 8.18385C10.5335 8.17032 10.547 8.25828 10.5335 8.28534C10.52 8.3124 10.4591 8.30562 10.4794 8.35974H10.5605C10.547 8.45444 10.6079 8.52208 10.5403 8.60325L10.5944 8.66415C10.4997 8.69797 10.5808 8.73178 10.5876 8.73855C10.6214 8.81972 10.5808 8.82649 10.5741 8.90766H10.6349L10.5944 8.9956L10.6349 9.02265L10.5944 9.04973L10.6349 9.30001L10.6958 9.32706L10.7161 9.44204L10.6755 9.46913C10.7904 9.50295 10.7025 9.5503 10.6958 9.55707C10.689 9.57736 10.6958 9.67881 10.7499 9.66528V9.6856C10.6822 9.67883 10.7161 9.75323 10.7093 9.80058L10.7702 9.78027L10.7296 9.89529H10.7904L10.7499 9.95615L10.8107 9.98323C10.7364 9.99676 10.7769 10.0576 10.831 10.0306L10.7904 10.1456L10.831 10.105L10.8513 10.1997L10.8175 10.2132L10.858 10.2267C10.831 10.2876 10.831 10.3958 10.9189 10.3823C10.8716 10.4635 10.9257 10.45 10.9392 10.477C10.9663 10.5311 10.9392 10.592 10.9459 10.6394C10.9595 10.6935 11.0406 10.8423 11.0541 10.8829C11.0541 10.9099 11.0406 10.9776 11.0406 10.9979C11.0406 11.0114 11.1556 11.0926 11.0947 11.1805L11.1353 11.1603L11.115 11.2279C11.2164 11.2752 11.1488 11.3632 11.23 11.4241L11.1894 11.4511H11.2232C11.1961 11.4985 11.2367 11.4849 11.2502 11.512C11.284 11.5999 11.2908 11.6879 11.3179 11.7555C11.3449 11.8164 11.4193 11.8502 11.3449 11.9111L11.4057 11.9314L11.426 11.999L11.3922 12.0193C11.4801 12.0328 11.4666 12.1479 11.5072 12.2087L11.4666 12.2358L11.5275 12.2493C11.5275 12.2899 11.5004 12.344 11.568 12.3373L11.5275 12.3575C11.5139 12.4117 11.5545 12.3914 11.5815 12.4252C11.595 12.4455 11.5951 12.5199 11.6086 12.547C11.6154 12.5605 11.6627 12.5943 11.683 12.6552C11.71 12.7296 11.7033 12.7026 11.7303 12.7634C11.7506 12.8108 11.7303 12.9055 11.8114 12.9055L11.7709 12.9258C11.8114 12.9799 11.8385 12.9867 11.8114 13.0611L11.852 13.0408C11.852 13.0949 11.8993 13.1219 11.9196 13.1625C11.9737 13.2843 12.0346 13.4466 12.109 13.5887C12.1292 13.6225 12.2239 13.6631 12.1901 13.7578L12.2307 13.7375V13.8322H12.278C12.3118 13.9878 12.4808 14.0893 12.4876 14.2449H12.5417C12.4808 14.326 12.6566 14.3666 12.6025 14.441L12.6499 14.4613L12.6363 14.5222C12.7378 14.5154 12.7242 14.6372 12.758 14.6913C12.8392 14.8266 13.0353 15.0228 13.1367 15.1513C13.6371 15.8277 14.178 16.5786 14.7054 17.2348C14.7595 17.3024 14.8879 17.3903 14.8744 17.4783L14.915 17.458C14.9218 17.5121 14.9624 17.5594 14.9962 17.6C15.2125 17.8571 15.4289 18.1344 15.6317 18.405C15.6723 18.4659 15.8075 18.6147 15.8278 18.6621C15.8414 18.6824 15.8346 18.7027 15.8278 18.723H15.8887C15.8413 18.7906 15.936 18.8109 15.9766 18.865C16.0983 19.0206 16.1456 19.1221 16.3146 19.2573C16.3552 19.2912 16.4229 19.2777 16.3891 19.3656C16.477 19.3385 16.4702 19.3859 16.504 19.4062C16.5987 19.4671 16.6528 19.5144 16.7204 19.5888C16.8826 19.7579 16.9908 19.7106 17.1464 19.812C17.3154 19.9203 17.3897 20.2517 17.4168 20.4344C17.5182 21.192 17.5047 22.3623 16.8759 22.8966C16.8083 22.9575 16.7812 22.9575 16.7001 22.9981C16.6798 23.0049 16.6189 23.0996 16.6122 23.0996C16.5784 23.1131 16.5445 23.0996 16.5243 23.1131C16.504 23.1266 16.4972 23.201 16.4026 23.1469V23.2078L16.3552 23.1672C16.3079 23.1808 16.3012 23.2281 16.2606 23.2484C16.2133 23.2755 16.1321 23.2687 16.1253 23.2755C16.0307 23.3431 15.8143 23.4108 15.6723 23.4649C15.1652 23.6678 14.5634 23.9316 14.0292 24.0602C13.9616 24.0737 13.8805 24.0331 13.867 24.1413L13.8399 24.1008L13.7385 24.1752L13.6709 24.1413V24.1954C13.6709 24.1954 13.468 24.1955 13.4748 24.2766L13.4477 24.236L13.4207 24.2766V24.236C13.326 24.2766 13.2111 24.3848 13.1164 24.3375C13.0894 24.4187 13.0015 24.3713 12.9609 24.3848C12.9136 24.3916 12.8054 24.4998 12.7175 24.4592V24.4931L12.6837 24.4525C12.6296 24.4863 12.562 24.5134 12.5011 24.5201C12.4335 24.5337 12.4538 24.5201 12.3929 24.5404C12.3456 24.5539 12.278 24.5675 12.2307 24.5945C12.136 24.5404 12.2036 24.5946 12.1157 24.6149C11.8858 24.6622 11.6356 24.6622 11.4193 24.7163C11.1015 24.7975 10.6755 24.8989 10.3644 24.9666C10.3036 24.9801 10.2292 24.9531 10.1751 25.0072L10.1548 24.9666L9.88436 25.0478L9.86409 25.0072L9.57335 25.0478L9.55304 25.0883L9.52601 25.0275L9.51248 25.0681C9.35696 25.0748 9.20145 25.0884 9.05269 25.1154C9.03241 25.1154 9.01891 25.1492 8.99186 25.1492C8.97834 25.0748 8.89716 25.1357 8.82955 25.1492C8.59289 25.1695 8.37655 25.2169 8.18723 25.1966C8.052 25.1831 7.81534 25.2507 7.68011 25.2372C7.63278 25.2372 7.65983 25.1966 7.63954 25.1966L7.61924 25.2304L6.27368 25.2507C5.01603 25.3386 3.77865 25.2507 2.5548 24.9395C2.35195 24.8854 2.16263 24.811 1.95978 24.7637L2.02065 24.7028C1.91923 24.7704 1.92596 24.7028 1.91244 24.7028C1.79073 24.6757 1.78396 24.6892 1.64873 24.6351C1.59464 24.6148 1.53379 24.6216 1.49323 24.5742L1.53379 24.5134C1.43913 24.4254 1.49998 24.581 1.44589 24.5607C1.34446 24.5201 1.24304 24.4457 1.14838 24.3916L0.898201 24.1887L0.830601 24.2834C0.735939 24.121 0.600698 23.9925 0.526321 23.8166C0.512798 23.7896 0.47221 23.7016 0.465448 23.6814C0.451925 23.634 0.47221 23.4513 0.465448 23.3972C0.465448 23.3499 0.458695 23.2552 0.431648 23.2078C0.445172 22.9643 0.411364 22.6937 0.431648 22.4502C0.431648 22.3758 0.472236 22.1458 0.492521 22.0714C0.492521 22.0579 0.519566 22.0579 0.533089 22.0579C0.458711 21.9834 0.533067 21.9023 0.553352 21.8346C0.620968 21.5167 0.654788 21.2867 0.776497 20.9891C0.810305 20.9079 1.06048 20.4344 1.10781 20.4005C1.12809 20.387 1.15516 20.387 1.17545 20.3803C1.17545 20.3329 1.10782 20.387 1.11458 20.3329C1.11458 20.3194 1.22276 20.1773 1.24305 20.1503C1.29714 20.0691 1.2498 20.13 1.27008 20.0623C1.27008 20.0623 1.34446 19.9879 1.35798 19.9676C1.43236 19.8323 1.47971 19.7309 1.58113 19.6159C1.62846 19.5618 1.70283 19.5685 1.66227 19.4738L1.79751 19.4332V19.3926L1.72314 19.3994C1.73666 19.3724 1.79074 19.3588 1.79751 19.3453C1.93274 19.1153 1.98681 18.9868 2.19642 18.8041C2.2167 18.7838 2.19643 18.7365 2.25052 18.7432L2.20995 18.723C2.18967 18.6756 2.23699 18.6891 2.24375 18.6756C2.43984 18.29 2.72382 17.8842 2.91315 17.5527C2.99428 17.4107 3.07545 17.2821 3.14983 17.1468C3.21068 17.0318 3.26475 16.8966 3.33913 16.7883C3.34589 16.7748 3.37294 16.768 3.38647 16.768L3.3459 16.7274C3.40675 16.7274 3.39999 16.6733 3.42703 16.6463C3.65017 16.3216 3.79893 15.8616 4.02206 15.5775C4.02206 15.5775 4.01531 15.5166 4.03559 15.4828H4.10319C4.10319 15.4828 4.07617 15.4287 4.08293 15.3948C4.10322 15.2393 4.31283 15.0228 4.29931 14.8875L4.33311 14.874C4.52919 14.3193 4.78613 13.6969 4.92136 13.1287C5.27297 11.6676 5.35409 10.2605 5.158 8.76559C5.13772 8.61677 5.11743 8.48148 5.11067 8.33942C5.11067 8.3259 5.09039 8.31237 5.07687 8.29884L5.11743 8.2718C5.0363 8.26503 5.06336 8.12299 5.04983 8.07564C5.04983 8.04858 5.00249 8.00122 4.98896 7.93357C4.9822 7.88622 5.02277 7.84562 4.94163 7.79827L4.98219 7.778C4.90782 7.71035 4.91461 7.58181 4.88756 7.50063C4.85376 7.3924 4.77937 7.27742 4.75232 7.18272C4.74556 7.15566 4.76585 7.12185 4.75909 7.10832C4.75909 7.10156 4.63735 7.0339 4.64411 6.97302L4.56975 6.99329L4.61031 6.96625C4.57651 6.85125 4.51567 6.74978 4.42101 6.66184C4.40073 6.64155 4.36689 6.64833 4.35337 6.64157C4.35337 6.64157 4.36689 6.60096 4.35337 6.58067C4.33985 6.56038 4.30606 6.55361 4.29254 6.54008C3.58257 5.58629 3.23095 4.18606 3.60284 3.00903C3.63665 2.90757 3.74482 2.69786 3.75835 2.62345C3.75835 2.60316 3.73809 2.56931 3.74485 2.55578L3.78542 2.5761C3.83951 2.46786 3.8936 2.35287 3.95446 2.24464C4.09645 2.01465 4.30605 1.73728 4.49538 1.54788C4.60356 1.43965 4.73205 1.34494 4.847 1.25024V1.18938C4.92137 1.21644 5.00249 1.1082 5.07687 1.06085C5.11067 1.04056 5.17829 1.02025 5.20534 0.999954C5.3 0.945838 5.37437 0.85112 5.49608 0.857885L5.47582 0.797027C5.61781 0.797027 5.73953 0.715852 5.868 0.6685C6.2737 0.53321 6.76051 0.445281 7.19325 0.424988H7.21356L7.25412 0.452031ZM11.0203 3.39457V3.41489C11.0203 3.41489 11.0339 3.40134 11.0203 3.39457ZM8.34273 5.89068C8.73491 5.90421 9.04595 5.66745 9.32317 5.42392C9.66125 5.11952 10.0331 4.5175 9.88436 4.04398C9.80998 3.81399 9.72211 4.24691 9.70859 4.28749C9.64774 4.47013 9.58688 4.68662 9.49898 4.85573C9.3029 5.22101 8.8431 5.4916 8.56588 5.79601L8.34273 5.89068ZM9.18116 10.2538H9.1406C9.16764 10.3891 9.20144 10.5244 9.21496 10.6529C9.55304 13.3655 10.52 15.6789 12.305 17.7353C12.7851 18.29 13.4004 18.9868 13.9413 19.467C14.0495 19.5685 14.1713 19.6903 14.32 19.6971C14.3065 19.6429 14.3064 19.5821 14.2794 19.5347C14.2118 19.4062 13.867 19.0206 13.7588 18.8921C13.1029 18.1345 12.393 17.4715 11.7844 16.6598C10.3848 14.7996 9.87763 12.804 9.24881 10.5988C9.215 10.4838 9.18793 10.3688 9.18116 10.247V10.2538ZM13.1908 20.2179C13.2516 20.1571 12.9406 19.8797 12.8865 19.8256C12.6634 19.6091 12.3862 19.3521 12.1563 19.1559C12.0143 19.0409 11.852 18.9597 11.7303 18.8177L11.994 19.2641C12.1969 19.5685 12.5823 19.9473 12.9068 20.13C13.0015 20.1841 13.0758 20.245 13.1908 20.2247V20.2179ZM0.776497 21.8414C1.16191 22.0849 1.52026 22.3014 1.94624 22.457C5.21886 23.6475 9.3908 22.829 12.7107 22.0984C13.9008 21.8346 15.2801 21.4558 16.3823 20.9417C16.5649 20.8538 17.2207 20.5088 17.2883 20.3464C17.3357 20.2247 17.2951 20.1029 17.1464 20.1435C17.0923 20.157 16.8353 20.3735 16.7474 20.4276C15.652 21.1311 13.6641 21.6046 12.3794 21.882C8.81603 22.6464 5.1242 23.3228 1.57436 22.1255C1.29037 22.0308 0.986088 21.9158 0.715624 21.7738C0.641247 21.7602 0.769729 21.8414 0.769729 21.8414H0.776497ZM11.3246 24.7366H11.284V24.7569H11.3246V24.7366Z" fill="#6F7A58" stroke="#6F7A58" stroke-width="0.85" stroke-linecap="round" stroke-linejoin="round"/>
</svg>
