<svg width="63" height="47" viewBox="0 0 63 47" fill="none" xmlns="http://www.w3.org/2000/svg">
<path d="M0.494995 28.0255C0.697843 28.0729 0.630221 27.8496 0.657267 27.8293C0.677552 27.8158 0.751931 27.8361 0.785739 27.8293C0.839832 27.809 0.839829 27.6602 1.03592 27.8158C1.36723 27.5993 1.64446 27.2949 1.94874 27.0379C8.39254 21.5316 14.8837 15.9779 21.2531 10.4987C24.2553 7.91461 27.2304 5.32384 30.2596 2.75333C30.2596 2.57069 30.3678 2.47596 30.5165 2.38802C32.572 2.28655 34.6411 2.15802 36.6763 2.04302C37.7176 1.98891 38.7386 1.94157 39.7664 1.88745C45.1824 1.58982 50.6187 1.27189 56.0077 1.04866L56.0483 0.967491C57.1505 0.967491 58.4217 0.893087 59.49 0.845735C60.0039 0.825442 60.511 0.723951 61.0316 0.73748L61.1127 0.534553C61.2209 0.419557 61.5523 0.581885 61.6537 0.683352C61.6402 0.953933 61.5861 1.19748 61.5928 1.46806C61.6266 2.38803 61.8227 3.31475 61.8092 4.24149L61.8498 4.3362V4.49177C61.7686 4.58647 61.8227 4.76237 61.8092 4.8909C61.7957 5.01942 61.8092 5.15471 61.7348 5.26971C61.0452 5.85822 60.4096 6.50084 59.7469 7.12317C59.5644 7.29905 59.3683 7.48168 59.1789 7.66432C56.17 10.5122 53.1206 13.3397 50.1319 16.2011C50.1116 16.2958 50.1793 16.2485 50.2333 16.2553C52.7351 16.6882 55.2167 17.1211 57.7184 17.5608C58.6718 17.7299 59.6117 17.8111 60.5516 18.0208C60.6597 18.0478 60.68 18.1223 60.6935 18.1223C60.7409 18.1223 60.795 18.0885 60.8423 18.0952C60.9505 18.1087 61.0654 18.2711 61.0925 18.3725C60.8964 19.2722 60.849 20.1989 60.6935 21.1054C60.6056 21.6466 60.5042 22.2554 60.2878 22.7627C60.227 22.9048 60.0918 22.9656 60.1323 23.1551C59.2331 23.9465 58.3473 24.7515 57.4547 25.5497C57.2046 25.7729 56.9206 26.0435 56.6433 26.2803C56.5757 26.3411 56.4743 26.2802 56.5419 26.3952C54.6419 28.0187 52.8163 29.7369 50.9433 31.3942C50.7269 31.5836 50.3956 31.9692 50.1522 32.1113C50.0778 32.1518 49.9967 32.1383 49.9696 32.1518C49.9696 32.1518 50.0034 32.206 49.9696 32.2466C49.9088 32.3345 49.6113 32.5915 49.5099 32.6659C49.2732 32.8418 48.9351 33.153 48.6714 33.3898C44.4319 37.2049 40.2126 41.0472 35.9461 44.8421C35.5945 45.1532 35.2564 45.4914 34.9048 45.7958C34.7966 45.8905 34.6681 45.8432 34.6005 45.9649H34.56C34.5059 45.9108 34.303 45.7282 34.2489 45.7079C33.0859 45.2818 31.666 45.1126 30.4827 44.6797C30.4016 44.6594 30.3204 44.6662 30.2393 44.6459C24.3364 43.0157 18.42 41.4125 12.5712 39.8296C10.0086 39.1328 7.24983 38.382 4.63309 37.6582C3.7338 37.4079 2.43557 37.1643 1.61066 36.8329C1.52952 36.799 1.48218 36.7044 1.4619 36.6976C1.35371 36.6705 1.21848 36.7314 1.1441 36.5894C1.11706 36.5352 1.06296 36.2782 1.0562 36.2038C0.920967 34.8103 1.42809 33.2274 1.57009 31.8474C1.27258 30.7245 0.9345 29.6152 0.643751 28.4923C0.616705 28.384 0.582896 28.1743 0.494995 28.1067V28.0255ZM60.5245 1.2854L53.1476 1.6913L49.1177 5.64175C50.3483 5.60792 51.5857 5.53352 52.8163 5.4794C53.3437 5.45911 53.8711 5.45911 54.4052 5.43882C54.6487 5.43205 55.6021 5.31704 55.7305 5.37792C55.8117 5.41851 55.8252 5.5538 55.9807 5.51322L60.5245 1.27863V1.2854ZM61.0789 1.56277L60.1458 2.36775C55.291 6.8932 50.4159 11.3172 45.5611 15.7682C45.3582 15.9576 45.1757 16.1809 44.9661 16.3567C44.8038 16.492 44.8038 16.4582 44.6753 16.6138C44.4048 16.9317 43.8369 17.3782 43.4988 17.6082L43.5326 17.6826C40.6116 20.2057 37.8596 22.9927 34.9454 25.5497C34.8777 25.6106 34.7966 25.6715 34.7087 25.6917C34.7358 25.7526 34.7696 25.7932 34.7831 25.8744C34.8777 26.4223 34.8845 26.9905 34.9859 27.5384L35.1076 29.6557C35.1753 29.676 35.1888 29.6287 35.2293 29.5949C35.3443 29.5069 35.5336 29.3175 35.6486 29.2025C39.1714 25.8812 42.7618 22.4583 46.2372 19.1775C50.9771 14.7062 55.8184 10.1875 60.4637 5.73646C60.5989 5.62823 61.3968 4.93148 61.4035 4.84354C61.4103 4.72178 61.3021 4.3362 61.2886 4.16709C61.2074 3.30123 61.1871 2.4354 61.0925 1.56954L61.0789 1.56277ZM44.0938 2.19864L38.6642 2.4895C37.7244 3.37565 36.7507 4.22797 35.7635 5.05324C35.4931 5.27647 35.2158 5.52001 34.9386 5.75C34.7493 5.90558 34.4923 6.00025 34.3639 6.22348L35.0197 6.26407C35.1955 6.21672 35.3375 6.18291 35.5201 6.23702L36.4397 6.16262L36.487 6.2438L36.5343 6.16262C37.8055 6.10174 39.0835 6.09497 40.3479 5.97997L44.1141 2.19864H44.0938ZM47.6977 6.27761C47.3056 6.22349 46.9269 6.2979 46.5347 6.31142C44.8579 6.3723 43.181 6.40614 41.5041 6.49408C41.1796 6.51437 40.8482 6.56171 40.5237 6.56171L36.656 10.3972L40.287 10.3634L43.5529 10.3431C44.0059 9.93721 44.4184 9.49075 44.8579 9.07135C45.0134 8.92253 45.1689 8.76018 45.3312 8.59783L47.7113 6.28438L47.6977 6.27761ZM32.4909 6.87289C31.4023 6.98112 30.3137 6.97435 29.2183 6.98787C28.346 7.0014 27.4535 7.07581 26.5677 6.98787C26.446 6.97435 26.3108 6.95407 26.2094 6.87966L22.0713 10.4378H28.6165C29.7051 9.49753 30.7329 8.48286 31.7877 7.5223C31.8418 7.47495 32.545 6.92024 32.4841 6.87289H32.4909ZM23.498 8.65873H23.4168V8.69931H23.498V8.65873ZM50.1522 10.8775L43.7557 10.9113C42.4575 12.068 41.2472 13.3397 39.9963 14.5574C39.834 14.7197 39.5838 14.8888 39.4418 15.0715C39.408 15.1121 39.3674 15.1256 39.381 15.1932C40.6183 15.1188 41.876 15.1662 43.1269 15.1526C43.7557 15.1526 44.7159 15.0309 45.3041 15.1053C45.3717 15.112 45.3515 15.1526 45.3853 15.1865H45.4529L50.1522 10.864V10.8775ZM35.3037 10.9113C34.7898 10.9181 34.2557 10.9451 33.7418 10.9113L33.4646 10.9519H28.8396C27.5684 12.1289 26.2567 13.2653 24.9923 14.4356C24.7691 14.6385 24.3229 15.0173 24.1606 15.227C24.1268 15.2676 24.0862 15.2812 24.0998 15.3488L31.0033 15.2609L35.013 11.2698C35.1212 11.1616 35.3037 11.1007 35.3105 10.9113H35.3037ZM37.9948 15.7479L34.0596 15.7885C33.1197 15.7547 32.1866 15.8291 31.2535 15.7885L25.9998 21.0513L26.5745 20.9769L26.6083 21.0513C28.1499 20.8416 29.7186 20.8078 31.2873 20.7199C31.8823 20.5778 32.5179 20.7063 33.113 20.544L37.9948 15.7411V15.7479ZM15.9385 15.7885L15.7221 15.8697C13.6936 17.6893 11.5773 19.4143 9.52174 21.2001C9.14309 21.5248 8.76443 21.863 8.41283 22.208C9.2107 22.1539 10.0153 22.0727 10.82 22.0186C12.4765 21.9172 14.1399 21.8495 15.7762 21.7142C15.9115 21.7007 16.0872 21.7007 16.2225 21.7142C18.1157 20.1246 19.9008 18.3928 21.7332 16.7152C21.936 16.5326 22.1794 16.3635 22.3755 16.1741C22.4229 16.1335 22.6189 15.9576 22.5851 15.9103L18.6905 15.9441C17.9805 15.8629 17.1421 16.0253 16.4321 15.9779C16.3172 15.9712 16.0129 15.9644 16.0129 15.8291L15.952 15.9103L15.9317 15.7953L15.9385 15.7885ZM49.7262 16.722L49.6586 16.6138C49.6586 16.6138 49.3679 16.9047 49.3205 16.952C48.5768 17.6488 47.8059 18.3185 47.0824 19.0287C47.0351 19.0761 46.9675 19.137 46.9269 19.1911C46.8931 19.2317 46.839 19.2384 46.9066 19.2925C48.3333 19.5834 49.7668 19.8269 51.1935 20.111C52.9177 20.456 54.6351 20.8619 56.3594 21.1595C56.5352 21.1866 56.8868 21.2745 57.022 21.2136C57.3601 20.9431 57.6779 20.659 58.0092 20.3749C58.1647 20.2396 58.3473 20.0501 58.5704 19.9284L60.1256 18.5349L49.7195 16.722H49.7262ZM60.4501 18.9949C60.3825 18.9746 60.369 19.0219 60.3284 19.0558C59.2736 19.8743 58.2256 20.889 57.2113 21.7683C50.585 27.4708 43.9653 33.1733 37.3254 38.869C36.7237 39.3831 36.1557 39.9107 35.5404 40.4113C35.4119 40.5128 35.3375 40.7022 35.1482 40.6684L35.2293 40.8442C35.1212 40.8781 35.182 40.8848 35.1752 40.9863L34.9927 41.0269V44.9909L59.8822 22.6883L60.4569 19.0016L60.4501 18.9949ZM38.0489 21.9848C38.4817 21.5789 38.9347 21.1933 39.3607 20.7807C39.3742 20.6589 39.2728 20.7401 39.2052 20.7401C38.1909 20.7469 37.1361 20.8686 36.1151 20.9363C35.155 21.0039 34.1881 21.0175 33.2414 21.146L28.2919 26.0029L34.0731 25.5903C34.3301 25.5023 34.1543 25.34 34.2016 25.2588C34.2827 25.1168 34.5802 25.1573 34.6952 25.0965C34.7831 25.0423 35.0062 24.7718 35.1076 24.6771C36.0948 23.7842 37.082 22.8845 38.0557 21.978L38.0489 21.9848ZM24.5731 21.6466C24.3296 21.721 24.0592 21.6939 23.8158 21.7074L16.5335 22.2148L10.989 27.2679L19.6574 26.6252C19.8129 26.2803 20.1713 25.9623 20.4552 25.6985C21.7197 24.5012 22.9165 23.2227 24.2215 22.0592L24.5731 21.6398V21.6466ZM34.3098 26.0841L20.9894 27.0379L20.9488 26.9567C20.8204 27.092 20.6108 27.0582 20.4417 27.0446L19.3666 27.1596L19.272 27.0785C19.2855 27.2002 19.2246 27.1191 19.1503 27.1326C18.0481 27.3761 16.3847 27.3491 15.2082 27.4302C11.0363 27.7346 6.85766 28.0458 2.68575 28.3637C2.27329 28.3976 1.75264 28.3637 1.34694 28.4584C1.29961 28.472 1.27933 28.4246 1.28609 28.5125C1.53627 29.6016 1.98255 30.6637 2.07721 31.7798L5.38362 31.5431C14.9175 30.9816 24.4987 30.481 33.9717 29.8384C34.0934 29.8316 34.6343 29.879 34.6546 29.7775L34.3098 26.0706V26.0841ZM2.55051 32.2736C2.36794 32.2939 2.02311 32.1992 1.96902 32.4157C1.74589 33.3153 1.48218 35.0538 1.52275 35.9738C1.52275 36.0753 1.54304 36.17 1.57009 36.2647L34.5126 45.2209L34.4721 40.966L32.6396 40.4993C22.8691 37.7055 12.9769 35.4326 3.1523 32.5983C2.93593 32.5374 2.58433 32.5848 2.54376 32.2736H2.55051Z" fill="#6F7A58" stroke="#6F7A58" stroke-width="0.99" stroke-linecap="round" stroke-linejoin="round"/>
<path d="M61.8362 4.89088H61.7956C61.8091 4.76236 61.755 4.58646 61.8362 4.49176V4.89088Z" fill="#6F7A58" stroke="#6F7A58" stroke-width="0.99" stroke-linecap="round" stroke-linejoin="round"/>
</svg>
