<svg width="36" height="47" viewBox="0 0 36 47" fill="none" xmlns="http://www.w3.org/2000/svg">
<path d="M15.1474 2.13202C15.2218 2.1929 15.2015 2.25379 15.4043 2.3282C16.8851 2.8423 18.3456 1.68556 19.0691 0.49501C19.2314 0.670887 19.7115 0.697943 19.8061 0.894114C19.894 1.07676 19.61 1.44881 19.9008 1.80056C20.2929 2.26732 20.6716 1.71262 20.7933 1.32028C21.1517 1.3541 21.4627 1.55028 21.7805 1.70586C21.6385 2.06438 21.5438 2.34172 21.8481 2.65289C22.0712 2.88288 22.4702 2.80847 22.6122 2.5176C22.6663 2.4026 22.5716 2.21997 22.7474 2.19291L23.5994 2.48378C23.5453 2.81524 23.5723 3.52551 23.9577 3.6608C24.4784 3.84345 24.5595 3.01141 24.8773 3.04523C24.9517 3.052 25.5197 3.27523 25.5535 3.32258C25.5873 3.63375 25.4047 4.2696 25.8104 4.40489C26.2837 4.56724 26.6286 3.85697 26.7706 3.85697L27.5076 4.2899C27.3656 5.13546 27.724 5.74427 28.4272 4.89194C28.5083 4.79047 28.5286 4.58753 28.7112 4.61459C28.9884 4.75665 29.3197 4.79048 29.5564 5.0137C29.5225 5.36546 29.3738 5.71044 29.6307 6.02161C29.8877 6.33278 30.1987 6.0825 30.4151 5.85927C30.4895 5.78486 30.5503 5.62251 30.6179 5.57516C30.7734 5.47369 31.0169 5.66309 31.1588 5.70368C31.2941 5.74426 31.4631 5.6428 31.4902 5.85927C31.4902 5.89985 31.4226 6.02161 31.4158 6.12984C31.409 6.38013 31.4834 6.83335 31.7539 6.93482C32.1866 7.09717 32.3692 6.58983 32.5517 6.2922L33.4578 6.61013L33.4443 6.68454C33.0791 7.40834 32.9304 8.19979 33.1941 8.9777C33.309 9.31593 33.6539 9.88415 33.9108 10.1277C34.1475 10.3509 34.6005 10.4185 34.5734 10.7703L20.1848 44.0516C20.036 44.1464 19.61 43.8758 19.441 43.8352C18.7242 43.6525 17.6492 44.0043 17.088 44.4643C16.6823 44.8025 16.4659 45.3098 16.0534 45.6345L15.357 45.2557C15.2961 44.9919 15.4787 44.4372 15.2555 44.2478C14.789 43.8487 14.3766 44.4305 14.194 44.8363L13.342 44.5184C13.2677 44.4372 13.3961 44.1531 13.3961 44.0178C13.4029 43.6728 13.1392 43.2399 12.747 43.3549C12.4292 43.4428 12.321 44.0043 12.1858 44.0111L11.4826 43.612C11.3474 43.497 11.4826 43.2602 11.4961 43.0979C11.5231 42.7934 11.3135 42.5026 10.9957 42.4823C10.6779 42.462 10.5089 43.1046 10.3264 43.0911L9.61639 42.7664C9.64344 42.3199 9.64343 41.7247 9.05517 41.7247C8.70356 41.7247 8.59538 42.1576 8.37901 42.3267C8.29787 42.3335 7.68258 42.0494 7.59468 41.9817C7.46621 41.887 7.59466 41.6638 7.61494 41.5082C7.64875 41.0753 7.47974 40.5882 6.96585 40.8588C6.73596 40.9806 6.52632 41.4676 6.26262 41.427C5.92454 41.3729 5.93807 41.0617 5.59323 41.0617C5.75551 40.6153 5.43094 39.7291 4.86296 40.1147C4.67364 40.2432 4.59929 40.622 4.47082 40.6356C4.29502 40.6559 3.59181 40.3244 3.58505 40.1418C3.58505 40.0335 3.70673 39.9862 3.72702 39.8847C3.8014 39.5397 3.42274 39.0121 3.08466 39.1947C2.83448 39.33 2.73984 39.7224 2.47614 39.7427C2.25301 39.763 1.94872 39.4721 1.69854 39.533C1.65797 39.303 1.82027 39.1406 1.88788 38.9309C2.26653 37.7674 1.92844 36.4957 0.900675 35.8057C0.75192 35.7043 0.51528 35.711 0.494995 35.4675C2.65871 30.3468 4.93734 25.2801 7.14162 20.1729C9.72455 14.1931 12.2331 8.20655 14.8363 2.24025C14.8837 2.11173 15.0257 2.03055 15.1474 2.13202ZM5.45799 32.1123L4.11244 35.2916C4.02454 36.2386 4.22064 36.9083 5.09964 37.3616C6.33026 37.9907 7.75018 38.5183 9.02137 39.0865C11.1648 40.0471 13.3015 41.0347 15.4787 41.9276C16.689 42.2658 17.5613 41.7788 18.0616 40.6762C18.3997 39.9321 18.8392 38.9918 19.1097 38.2342C19.1367 38.1665 19.1502 38.0921 19.1638 38.0177L5.45799 32.1123ZM29.509 14.1864L15.7897 8.30125L5.5662 31.8688L19.2787 37.7539L29.5022 14.1864H29.509ZM15.925 7.96979L29.5428 13.9226L29.6375 13.8211L31.1115 10.3847C31.0574 8.93035 29.2318 8.19978 28.0756 7.68568C25.851 6.6913 23.4912 5.83897 21.2328 4.919C19.9346 4.39137 18.2983 3.52551 17.2164 4.919L15.925 7.96979Z" fill="#6F7A58" stroke="#6F7A58" stroke-width="0.99" stroke-linecap="round" stroke-linejoin="round"/>
<path d="M14.1737 23.2034L11.8071 22.067C11.7395 21.8032 11.922 21.8776 12.0505 21.7288C12.9566 22.0805 13.8018 22.5608 14.6876 22.9464C14.8295 23.0073 15.4584 23.2034 15.4922 23.2643C15.6139 23.4673 15.3096 23.7175 15.1338 23.7852L12.4292 23.3117C12.4021 23.3861 12.5103 23.3928 12.5576 23.4199C13.3014 23.8122 14.1601 24.0761 14.931 24.4143C15.127 25.0231 14.3697 24.651 14.079 24.5361C13.5245 24.3196 12.9025 24.0422 12.3548 23.7987C12.0911 23.6837 11.6922 23.5281 11.469 23.3861C11.3946 23.3387 11.327 23.2914 11.2932 23.2034L11.3676 22.8584C11.5637 22.6149 12.4156 22.9126 12.6929 22.9599C12.7808 22.9734 12.8687 22.9599 12.9498 22.9667C13.3555 23.0343 13.7612 23.129 14.1669 23.1967L14.1737 23.2034Z" fill="#6F7A58" stroke="#6F7A58" stroke-width="0.99" stroke-linecap="round" stroke-linejoin="round"/>
<path d="M15.2488 16.5675C15.2488 16.5675 15.1474 16.5201 15.1068 16.4728C14.9107 16.2495 14.7214 16.0195 14.5185 15.8031C14.5185 15.6543 14.5997 15.4378 14.7755 15.4716C15.8844 15.9519 17.0339 16.3713 18.0751 16.9801C18.1766 17.3183 17.9467 17.3048 17.6762 17.2304L15.5801 16.3239L16.0264 16.8651C16.0534 16.926 16.1481 17.0004 16.1143 17.068C15.979 17.3386 15.2352 17.183 14.958 17.2101L15.2623 17.3792C15.8708 17.6768 16.7093 17.8663 17.284 18.1842C17.4192 18.2586 17.568 18.475 17.4801 18.6306C17.3314 18.5968 17.2097 18.6239 17.0609 18.5833C16.7837 18.5021 16.3509 18.3059 16.0602 18.1909C15.3502 17.9136 14.6605 17.5754 13.9641 17.2642C13.8221 17.0477 13.8694 16.8583 14.0926 16.723L15.2894 16.6892C15.2556 16.6554 15.2758 16.5945 15.2555 16.5607L15.2488 16.5675Z" fill="#6F7A58" stroke="#6F7A58" stroke-width="0.99" stroke-linecap="round" stroke-linejoin="round"/>
<path d="M20.8136 16.0939L21.3342 14.7613C21.3883 14.7681 21.4356 14.7816 21.4762 14.8222C21.5438 14.8831 21.7128 15.9654 21.6858 16.1413C21.8346 16.1548 22.0104 16.1886 22.1524 16.1886C22.2538 16.1886 22.8826 16.0331 22.6324 16.351C22.4972 16.5201 22.0374 16.7298 21.8278 16.8313L22.0645 18.0489C21.6858 18.1301 21.3342 17.2236 21.0975 17.1966L20.347 17.7513C20.1442 17.8392 20.0427 17.846 20.1306 17.6092C20.1847 17.4671 20.5499 16.7704 20.5093 16.7028C19.4748 16.1684 19.7993 15.8978 20.8068 16.0939H20.8136Z" fill="#6F7A58" stroke="#6F7A58" stroke-width="0.99" stroke-linecap="round" stroke-linejoin="round"/>
<path d="M19.3666 19.3747C19.5289 19.2327 19.5425 18.4954 19.7724 18.5021C20.0022 18.5089 20.0834 19.3883 20.2592 19.5371C20.4958 19.6115 21.1179 19.4897 21.2869 19.6521C21.341 19.7062 21.3207 19.7806 21.2734 19.8347C21.1855 19.9227 20.3336 20.1797 20.32 20.2609C20.4485 20.3624 20.3809 20.5179 20.4079 20.6059C20.4147 20.6262 20.4688 20.6465 20.4891 20.7006C20.5702 20.9306 20.6716 21.1538 20.7257 21.3906C20.604 21.5056 20.4553 21.3635 20.3538 21.2891C20.1172 21.12 19.9819 20.8359 19.7385 20.6735C19.583 20.7276 18.8122 21.4109 18.6972 21.2012L19.0489 20.0985L18.2848 19.4221C18.6229 19.2124 19.0015 19.4694 19.3734 19.3815L19.3666 19.3747Z" fill="#6F7A58" stroke="#6F7A58" stroke-width="0.99" stroke-linecap="round" stroke-linejoin="round"/>
<path d="M17.8993 22.7705L18.3591 21.8438C18.4741 21.8303 18.5687 21.9723 18.6025 22.0738C18.6904 22.3241 18.6837 22.5946 18.7175 22.8585C18.8121 22.9599 19.5018 22.8855 19.6235 23.0749C19.7182 23.3049 19.0556 23.474 18.9541 23.6296L19.1705 24.6849C19.0759 24.7458 18.3997 24.1843 18.3659 24.0287C18.1968 24.1234 18.0075 24.2316 17.825 24.3061C17.3787 24.4887 17.1555 24.6105 17.3651 23.9746C17.426 23.792 17.5815 23.6364 17.5883 23.4402C16.7228 22.9126 16.8242 22.4188 17.8993 22.7773V22.7705Z" fill="#6F7A58" stroke="#6F7A58" stroke-width="0.99" stroke-linecap="round" stroke-linejoin="round"/>
<path d="M16.6078 26.1054C16.5673 25.7807 16.8242 25.456 16.8851 25.1313L17.0744 25.1854L17.3922 26.2339L18.2239 26.1934C18.3862 26.3084 18.42 26.3151 18.2712 26.4436C18.0616 26.6263 17.8046 26.7278 17.5815 26.8901C17.5815 27.2622 17.7303 27.641 17.6221 28.0062C17.5477 28.0536 16.8851 27.3974 16.8378 27.2554C16.7837 27.2419 16.1346 27.871 16.0061 27.9454C15.8641 28.0198 15.7897 27.8574 15.8235 27.7289C15.8641 27.5733 16.2157 26.9578 16.1751 26.8495C16.0467 26.7616 15.3975 26.2813 15.4651 26.1325L16.6078 26.1122V26.1054Z" fill="#6F7A58" stroke="#6F7A58" stroke-width="0.99" stroke-linecap="round" stroke-linejoin="round"/>
<path d="M15.7086 12.6711C16.1143 12.6508 16.4524 12.8538 16.8108 12.9349C17.5816 13.104 18.3118 13.2123 19.0759 13.449C19.2111 13.4896 19.3734 13.4152 19.4748 13.6384L19.3734 13.8684C19.0624 13.794 18.704 13.8211 18.4335 13.6723L18.1901 14.3081L18.2172 14.3758C18.393 14.4569 19.0353 14.8087 18.988 15.0252C18.6702 15.3431 18.3659 14.944 18.109 14.7816C17.4058 14.3352 16.6147 13.8549 15.9453 13.3543C15.6545 13.1379 15.6004 13.0567 15.7154 12.6779L15.7086 12.6711ZM18.0346 13.5776L17.0744 13.3543C17.0001 13.334 16.7296 13.2799 16.6823 13.3679L17.7844 14.0917C17.8656 14.1052 18.0143 13.6723 18.0346 13.5843V13.5776Z" fill="#6F7A58" stroke="#6F7A58" stroke-width="0.99" stroke-linecap="round" stroke-linejoin="round"/>
<path d="M10.6644 25.5981L13.4299 26.9713L13.5043 26.9848C13.5043 26.8022 13.8289 26.2678 14.0249 26.3828C14.2751 26.5248 13.8018 27.4042 13.6936 27.6004C13.6327 27.7154 13.3893 28.1686 13.2947 28.1754C13.2473 28.1754 13.2068 28.1618 13.1662 28.1415C12.8281 27.9927 13.2 27.6274 13.2473 27.3974C12.348 26.9375 11.3811 26.5992 10.5359 26.0378C10.3736 26.0378 10.2993 26.8292 10.0153 26.8292C9.83947 26.8292 9.81242 26.5586 9.84623 26.4234C9.89356 26.2339 10.3601 25.1381 10.4683 24.9893C10.5359 24.8946 10.7996 24.6849 10.8605 24.8743C10.9078 25.0163 10.7388 25.456 10.6644 25.6049V25.5981Z" fill="#6F7A58" stroke="#6F7A58" stroke-width="0.99" stroke-linecap="round" stroke-linejoin="round"/>
<path d="M14.1264 29.42C14.3698 29.3794 14.9513 29.6297 15.1136 29.5485C15.3029 29.4606 15.3705 28.4662 15.6815 28.6421C15.8438 28.7368 15.7694 29.5012 15.8506 29.5891C16.0061 29.765 16.5876 29.5147 16.7363 29.7921L16.0737 30.4144C16.0805 30.7594 16.3374 31.0773 16.2495 31.4156C15.9791 31.4426 15.5666 30.7662 15.3976 30.7594C15.1271 30.915 14.8499 31.0773 14.5321 31.1179C14.3225 31.0232 14.8499 30.2859 14.8161 30.2047C14.6605 30.0491 14.2346 29.7515 14.1331 29.5959C14.0858 29.5215 14.0993 29.4944 14.1196 29.4133L14.1264 29.42Z" fill="#6F7A58" stroke="#6F7A58" stroke-width="0.99" stroke-linecap="round" stroke-linejoin="round"/>
<path d="M13.058 18.9689C13.058 18.9689 13.2676 18.8336 13.3015 18.8539C13.5719 19.1786 13.2203 19.5236 13.0986 19.8415L14.4036 20.4571C14.5997 19.7738 15.1203 20.0782 14.7755 20.6465L16.0061 21.1335L16.3442 20.3691H16.6552C16.6281 20.4638 16.6957 20.5518 16.689 20.6465C16.689 20.7141 16.3847 21.4785 16.3509 21.5123C16.0804 21.8505 15.5328 21.4447 15.2555 21.3297C14.6335 21.0726 13.9641 20.8088 13.3488 20.4976C13.0175 20.3285 12.5306 20.1527 12.6659 19.6994C12.6794 19.6521 13.0377 18.9824 13.0715 18.9553L13.058 18.9689Z" fill="#6F7A58" stroke="#6F7A58" stroke-width="0.99" stroke-linecap="round" stroke-linejoin="round"/>
<path d="M9.06191 28.2971C9.06191 28.2971 9.24445 28.2836 9.25122 28.128C9.75834 28.2633 9.44055 28.5542 9.38646 28.845C9.35265 29.048 9.38647 29.2441 9.52846 29.3862C9.79893 29.6635 10.8199 30.11 11.2053 30.2385C11.4352 30.3129 11.9423 30.4685 12.1249 30.2926C12.2939 30.1303 12.3413 29.5621 12.6794 29.6974C12.8957 29.7785 12.6997 30.2859 12.6253 30.4279C12.5306 30.597 12.1519 30.8203 11.9559 30.8406C11.469 30.8879 9.87329 30.2047 9.42702 29.9138C9.10247 29.6974 8.8523 29.3524 8.89287 28.9397C8.89963 28.8383 9.01457 28.3309 9.05514 28.2903L9.06191 28.2971Z" fill="#6F7A58" stroke="#6F7A58" stroke-width="0.99" stroke-linecap="round" stroke-linejoin="round"/>
<path d="M21.2869 23.6228L20.8812 23.014L20.9083 22.8111C21.03 22.7299 21.7467 23.7514 21.8819 23.8528C22.2335 23.8393 22.9232 23.6567 23.2275 23.8258C23.356 23.8934 23.2275 23.9746 23.1328 23.9949L22.3214 24.0693C22.4634 24.137 23.2275 24.3872 23.1328 24.5969C23.1058 24.6511 23.0043 24.6443 22.9435 24.6308C22.646 24.5631 22.051 24.2249 21.7129 24.0896C21.3545 23.9475 20.9961 23.819 20.6243 23.7175C20.5702 23.6837 20.5567 23.6499 20.5702 23.5823C20.6175 23.3658 21.1246 23.6161 21.2869 23.6228Z" fill="#6F7A58" stroke="#6F7A58" stroke-width="0.99" stroke-linecap="round" stroke-linejoin="round"/>
<path d="M19.6641 26.3557C19.7047 26.4031 19.556 26.8225 19.4883 26.8833L21.4221 27.6951C21.5236 27.5124 21.5574 27.296 21.7738 27.208C21.8617 27.3027 21.8076 27.3907 21.7805 27.4989C21.7535 27.6207 21.3951 28.4595 21.3478 28.4865C20.9556 28.7503 21.2126 28.0874 21.314 27.9318L19.3802 27.1133C19.3193 27.2419 19.2449 27.4313 19.1638 27.5463C19.0556 27.7018 18.8866 27.5868 18.961 27.3636C18.9948 27.2554 19.4275 26.3963 19.4748 26.3625C19.5289 26.3286 19.6236 26.3151 19.6574 26.3557H19.6641Z" fill="#6F7A58" stroke="#6F7A58" stroke-width="0.99" stroke-linecap="round" stroke-linejoin="round"/>
<path d="M21.8481 21.005C22.1659 21.0794 21.7264 21.7085 21.7737 21.7626L22.5243 22.0941C22.5243 22.0061 22.7744 21.6611 22.8623 21.7626C22.8691 21.9182 22.8826 22.0535 22.7744 22.182L23.5723 22.5946C23.7684 22.5946 23.8022 21.9114 24.1403 22.0603C24.1065 22.27 23.924 22.9126 23.6603 22.8855L21.483 21.8844C21.368 21.7288 21.7264 21.1606 21.8481 21.0118V21.005Z" fill="#6F7A58" stroke="#6F7A58" stroke-width="0.99" stroke-linecap="round" stroke-linejoin="round"/>
<path d="M22.7879 19.4559C23.3762 19.7941 24.0524 20.0241 24.6474 20.3353C24.7353 20.3827 24.9382 20.4638 24.8435 20.5924C24.7691 20.6668 24.7015 20.6397 24.6136 20.6126C23.978 20.4165 23.3627 19.9835 22.7338 19.7603L22.5986 19.8144C22.5513 19.9971 22.531 20.2338 22.2741 20.1729C22.1997 20.0985 22.2267 20.0241 22.247 19.9362C22.2944 19.7671 22.558 19.1853 22.6595 19.0433C22.7068 18.9824 22.7541 18.935 22.8217 18.908C22.957 19.0365 22.7338 19.3612 22.7744 19.4627L22.7879 19.4559Z" fill="#6F7A58" stroke="#6F7A58" stroke-width="0.99" stroke-linecap="round" stroke-linejoin="round"/>
<path d="M20.4282 24.6172C20.4688 24.7796 20.3876 24.9284 20.3876 25.084C20.3876 25.5237 21.5438 25.9228 21.9022 25.9295C22.2606 25.9363 22.3485 25.659 22.5919 25.4831C22.8488 25.774 22.4093 26.1122 22.1321 26.1663C21.598 26.2745 20.2997 25.8281 20.1442 25.2396C20.0901 25.0299 20.0631 24.4413 20.4282 24.624V24.6172Z" fill="#6F7A58" stroke="#6F7A58" stroke-width="0.99" stroke-linecap="round" stroke-linejoin="round"/>
<path d="M18.6769 29.0277C19.2517 29.2983 19.9887 29.4809 20.5296 29.7853C20.6581 29.8597 20.7595 29.9274 20.7595 30.0829C20.5093 30.1438 20.3876 29.9882 20.1916 29.9138C19.6439 29.6974 19.0961 29.4741 18.5484 29.2509C18.447 29.2509 18.3659 29.7312 18.1901 29.6838C18.1157 29.6636 18.0617 29.6094 18.0819 29.535C18.1157 29.4065 18.5552 28.5474 18.6296 28.5203C18.704 28.4933 18.7175 28.5204 18.7513 28.5745L18.6702 29.0209L18.6769 29.0277Z" fill="#6F7A58" stroke="#6F7A58" stroke-width="0.99" stroke-linecap="round" stroke-linejoin="round"/>
</svg>
