<svg width="107" height="115" viewBox="0 0 107 115" fill="none" xmlns="http://www.w3.org/2000/svg">
<path d="M0.425018 40.1579C0.736052 39.8129 0.938889 39.8535 1.36487 39.9211C1.36487 39.3056 -0.136206 37.4047 1.04707 37.2153C1.5001 37.1477 1.5542 37.2762 1.77057 37.6077C2.07484 38.0812 2.48729 39.0891 2.81861 39.4476C3.00117 39.6438 3.35278 39.7114 3.49477 39.8941C3.60972 40.0429 3.6841 40.3743 3.81934 40.5705C4.19122 41.0914 5.15814 41.7881 5.66526 42.2549C6.86883 43.3778 8.13999 44.7239 9.41117 45.7521C9.91829 46.158 10.5336 46.5165 11.0543 46.9359C12.5689 48.14 13.529 49.2291 15.2803 50.1829C15.9091 50.5211 17.7618 51.5426 18.3568 51.6373C18.5191 51.6643 18.6949 51.6237 18.8639 51.6576C20.2297 51.9281 21.5145 52.5572 22.8262 52.9969C23.0899 53.0307 23.1981 52.8008 23.4212 52.7196C23.7052 52.6181 23.9689 52.6925 24.2326 52.5911C24.4219 51.6305 24.1312 50.6429 24.1988 49.6688C24.28 48.485 24.9696 46.4151 25.9501 45.7115C27.9515 44.2639 33.1174 44.4195 34.348 46.8818C34.8078 47.8085 34.6455 48.8503 35.0444 49.7161C35.1661 49.98 35.6056 50.2911 35.6192 50.3317C35.7206 50.6564 35.3014 50.6293 35.2676 50.9743C35.254 51.0826 35.4231 51.7184 35.4772 51.8199C35.8896 52.5708 37.2352 52.3949 37.7558 52.7196C37.8911 52.8008 38.4996 53.511 38.3779 53.6531C38.0128 53.7613 37.0729 53.6666 37.0797 54.2145C37.0797 54.3566 37.1811 54.4445 37.1946 54.573C37.3028 55.263 36.7619 54.9925 36.6334 55.1886L36.6063 55.7771L36.0181 55.6215C35.8288 55.7839 35.7476 56.0612 35.4772 56.1965C35.0985 56.3927 34.4359 56.3318 34.1248 56.4874C33.9761 56.5618 33.9896 57.3262 34.0572 57.475C34.1181 57.6103 34.7334 57.9147 34.9024 58.0432C36.2074 58.997 36.0519 59.9711 36.8363 61.1684C37.1946 61.7231 37.6612 61.2767 38.0601 60.9452C39.1352 60.0523 40.2238 58.8144 41.238 57.8268C42.4281 56.6633 43.6452 55.4998 44.8285 54.2957C45.0245 54.0928 45.3085 53.9507 45.41 53.6395C45.3221 53.3622 45.2747 52.3205 45.0381 52.2122C44.9096 52.1514 44.6797 52.2325 44.6324 52.0837C44.558 51.874 44.8285 51.5628 44.7203 51.414L44.1253 51.3058C44.0306 51.1367 44.1658 50.954 44.1591 50.8052C44.1388 50.3993 43.226 50.3182 43.1583 49.8582C43.1448 49.7703 43.3206 49.1953 43.3679 49.0735C43.4356 48.8841 43.7534 48.3159 43.7534 48.2144C43.7534 47.9303 43.3139 47.9438 43.2733 47.68C43.2462 47.5177 43.3409 47.1997 43.3341 46.9765C43.3206 46.3609 43.2733 45.468 43.2124 44.8592C43.1651 44.3451 42.8676 43.919 43.1313 43.3643C43.8278 41.8828 47.4046 41.5581 48.8381 41.6461C51.0086 41.7881 52.8748 43.256 53.5104 45.3327C53.7943 46.2595 53.0709 47.3012 53.0573 48.2144C53.0573 48.5391 53.1385 49.0194 53.3278 49.29C53.3751 49.3644 53.7944 49.8514 53.8417 49.892C53.9431 49.9799 54.0851 50.0138 54.2068 50.0544C57.2428 50.007 60.1367 48.9382 63.1118 48.4512C63.9706 48.14 64.9645 47.8018 65.7151 47.2877C66.0937 47.0306 66.4521 46.5842 66.8172 46.3271C67.4528 45.8807 68.3927 45.556 68.9944 45.0892C69.4137 44.7578 69.9073 44.0813 70.3468 43.6754C71.1243 42.9516 72.1521 42.3022 72.8215 41.4973C73.0717 41.1996 73.2745 40.7464 73.5247 40.4555C73.8019 40.1376 74.2482 39.7858 74.5592 39.4476C75.1204 38.8388 75.1678 38.4938 76.013 38.1083C78.1158 37.1477 80.523 37.4859 82.5988 36.6945C82.9842 36.5457 83.7415 36.0721 84.0931 36.0654C84.5326 36.0518 84.7354 36.4645 84.7084 36.8568C84.6746 37.2694 84.4379 37.1274 84.323 37.2965C84.1945 37.4859 84.2892 37.9188 84.0187 38.115C83.897 38.2029 83.3088 38.3991 83.1262 38.46C82.565 38.6359 81.9767 38.7374 81.4155 38.8929C81.4155 39.407 81.5778 39.9144 81.3344 40.4014C80.9963 40.5367 80.577 40.5164 80.239 40.6314C79.502 40.8817 79.3464 40.9696 78.4945 41.0035C78.1699 41.017 76.75 40.9358 76.6012 41.0576C76.5539 41.0914 76.2361 41.8287 76.1955 41.9505C75.8237 43.0125 75.7222 43.3034 75.1069 44.2775C74.1535 45.7927 73.0987 47.2741 72.125 48.7759C71.4354 49.8379 70.029 50.4805 69.0012 51.1231C67.4054 52.1243 65.8706 53.2201 64.1261 53.9575L61.8474 55.7974C61.4688 58.6453 61.0698 61.4931 60.7453 64.3478C60.6641 65.0851 60.5019 65.9374 60.4545 66.6409C60.4207 67.1212 60.4883 67.6218 60.4478 68.1021C60.3531 69.2317 59.9474 70.402 59.5688 71.464C59.6702 72.384 59.535 73.4528 59.6296 74.3457C59.6567 74.623 59.7919 74.7583 59.8392 74.9613C60.1503 76.3818 59.988 77.8497 59.3862 79.162L53.01 88.3279C52.9424 88.5241 53.2737 89.0247 53.3616 89.2682C54.4908 92.4001 51.1303 94.2469 48.9598 95.5795C48.3513 95.9515 47.79 96.4318 47.1004 96.6618C46.911 96.7565 47.0125 97.1556 47.053 97.3518C47.4046 99.0497 47.8847 100.748 48.2566 102.445C48.4594 103.379 48.7637 104.468 48.9057 105.388C48.9463 105.632 48.8854 105.902 48.9328 106.125C49.0139 106.484 49.8321 107.614 50.062 108.06C50.6637 109.251 50.7922 110.279 50.6908 111.618C50.6773 111.767 50.6502 112.092 50.5353 112.173L41.2448 112.531C40.5484 112.619 39.9601 112.125 40.0886 113.167C39.3313 113.37 38.5402 113.262 37.7693 113.289C36.6604 113.33 35.538 113.438 34.4224 113.404C33.922 113.235 33.1241 112.558 32.5967 112.64L32.5562 113.37C32.5223 113.478 32.0828 113.519 31.9476 113.526C31.3729 113.566 30.7576 113.566 30.1828 113.587C30.007 113.587 29.3241 113.641 29.2768 113.485C29.1956 113.221 29.2362 112.755 29.1821 112.464C29.1077 112.031 28.8373 111.767 28.7561 111.361C28.5871 110.516 28.9049 109.724 29.2024 108.953C29.2565 108.804 29.385 108.689 29.4255 108.527C29.5134 108.161 29.3173 107.695 29.6892 107.438C30.0611 107.181 30.0949 107.6 30.4465 107.58C30.7102 106.964 30.8319 106.403 30.8657 105.733C31.028 102.459 30.8049 99.3405 31.4067 96.0936C31.5216 95.4848 31.8191 94.7271 31.8597 94.1251C31.8732 93.8951 31.8327 93.8613 31.6095 93.8748C30.9739 93.9154 29.7501 94.1657 29.0874 94.2942C27.9583 94.5174 25.9771 95.3089 24.902 94.8624C24.6518 94.761 23.57 94.0642 23.428 93.8613C23.3266 93.7125 23.2725 93.3878 23.117 93.3472C22.9276 93.2863 22.7518 93.4351 22.5693 93.4892C21.9742 93.6448 21.4468 93.7125 20.8383 93.753C20.3853 93.6245 20.8991 93.036 20.365 93.0428C19.8308 93.0495 18.7151 93.3675 18.1877 93.5231C17.5657 93.7057 16.8625 94.0845 16.2742 94.1995C15.9294 94.2672 15.5237 94.2401 15.1856 94.2875C14.6649 94.3619 14.097 95.4171 13.7183 95.7892C13.0625 96.4386 12.3795 96.4589 11.7372 95.7892C10.919 94.9301 11.2774 93.814 11.7845 92.894C12.0009 92.5084 13.1842 90.9458 13.5358 90.7631C13.698 90.6752 14.1375 90.7225 13.9415 90.4046C13.8265 90.2152 12.9407 89.8702 12.9678 89.5523C12.9813 89.4306 13.6845 88.355 13.8062 88.1453C13.9347 87.9221 14.0429 87.4688 14.3133 87.4079C14.6176 87.3403 15.5981 87.7935 16.024 87.8476C16.4771 87.9085 16.734 87.895 17.2141 88.0168C17.2884 88.0371 17.3696 88.037 17.3899 87.9559C17.4169 87.8341 16.4906 86.3053 16.3756 85.9671C16.0511 84.9862 16.0916 83.8633 15.9699 82.8419C15.6657 80.3729 15.1924 78.6073 16.1795 76.1586C17.0924 73.8925 18.5191 71.6264 19.5265 69.3805C19.9255 67.8653 19.8782 66.2621 19.9728 64.6995C20.108 62.4808 20.3717 60.492 20.0404 58.28C19.939 57.6238 20.0472 57.0353 19.3845 56.5821C18.8368 56.2101 17.8497 55.8515 17.2208 55.5066C14.2052 53.8763 10.1414 51.157 7.88307 48.6C6.68626 47.2403 5.5706 45.4274 4.35351 44.1828C4.07628 43.8987 3.88696 43.8919 3.59621 43.7025C2.9471 43.2831 2.63606 42.2684 2.10865 41.7205C1.87199 41.477 1.38515 41.2537 1.08764 41.0305C0.871271 40.8682 0.67519 40.6246 0.438534 40.4758V40.1782L0.425018 40.1579ZM84.1066 36.5659C83.7144 36.5457 83.3831 36.8433 83.0315 36.9853C80.9016 37.8444 78.5824 37.5603 76.4457 38.4059C75.4382 38.805 75.276 39.3394 74.5998 40.0902C74.0792 40.6652 73.7546 41.0508 73.2745 41.6528C72.1589 43.0328 70.4211 43.9325 69.3528 45.441C69.2379 45.6033 68.8863 46.1174 68.9539 46.2798L71.6382 48.1941L71.8343 48.1535C72.8823 46.6789 73.9507 45.2177 74.877 43.6687C75.0461 43.3913 75.3098 43.0734 75.445 42.7555C75.6884 42.2075 75.871 40.9832 76.3443 40.5908C76.6621 40.327 76.7635 40.5029 77.0813 40.5096C77.7439 40.5232 78.9272 40.5908 79.529 40.4217C79.698 40.3743 79.8739 40.2391 80.0564 40.185C80.239 40.1308 80.7867 40.0632 80.8813 40.0091C81.0842 39.8941 80.9354 39.3056 80.8678 39.1094C80.7529 38.9944 80.0497 39.0417 79.8062 38.9673C79.7319 38.9403 79.6642 38.8726 79.7386 38.7982L83.6739 37.743C83.9646 37.4724 83.6874 37.1544 83.8091 36.8703C83.87 36.7283 84.1404 36.7756 84.1201 36.5659H84.1066ZM1.29725 37.7565C1.24316 37.7227 1.02679 37.7024 1.06736 37.8377L2.33854 40.8141C2.21683 41.3349 2.41293 41.274 2.62254 41.5852C3.14318 42.3361 3.49477 43.2899 4.42788 43.601C6.49693 45.8874 8.11972 48.6473 10.608 50.5482C12.7379 52.1784 15.145 53.8628 17.5048 55.1277C17.7685 55.2698 18.6205 55.7501 18.8369 55.7974C18.9315 55.8177 18.9856 55.7771 19.0735 55.7636C18.8909 54.891 19.2561 53.9981 19.7564 53.2945C19.9931 52.9631 20.5814 52.6993 19.9525 52.4355C19.3237 52.1716 18.8098 52.1919 18.1675 52.104C17.6806 52.0364 14.1443 50.1558 13.6034 49.777C12.7785 49.202 11.913 48.2347 11.0948 47.5718C10.3646 46.9833 9.55995 46.4827 8.83645 45.8807C8.05211 45.2245 7.3489 44.4601 6.5916 43.7701C5.62469 42.8908 3.97485 41.6393 3.27165 40.6179C3.19727 40.5096 3.1905 40.3338 3.09584 40.2323C2.96061 40.0699 2.55492 39.9211 2.40616 39.7588C2.18303 39.5085 1.72324 38.6088 1.51363 38.2571C1.45953 38.1691 1.30401 37.77 1.27697 37.7565H1.29725ZM2.12893 40.9223L1.54068 40.6246C1.43925 40.7261 1.96665 41.0846 2.10188 41.0373L2.12893 40.9223ZM47.2491 47.3553C47.0801 47.1524 45.9779 46.9292 45.8359 46.618C45.6534 46.2256 45.9577 44.4331 45.6804 44.2437C45.6196 44.2031 45.5452 44.2098 45.4776 44.2166C45.2477 44.2234 44.0171 44.5413 43.8548 44.6631C43.5843 44.866 43.7398 45.1298 43.7398 45.3665C43.7398 46.0565 43.7601 46.7398 43.7939 47.4297C43.8548 47.7477 44.3822 47.768 44.3754 48.0791C44.3754 48.2618 43.7196 49.1479 43.6925 49.6214C43.6655 50.0949 44.3619 50.0002 44.5377 50.2505C44.6256 50.3723 44.6053 50.8255 44.6797 50.8729L45.295 50.9337C45.4302 51.157 45.1733 51.5493 45.2139 51.7184C45.2409 51.847 45.4303 51.8943 45.4979 51.9822C45.7142 52.2528 45.6872 52.6722 45.7954 52.9902C46.742 52.8616 47.2559 52.7534 48.1552 53.1322C48.5947 53.3216 48.757 53.3554 49.1965 53.4975C49.5345 53.6057 49.6833 53.9778 49.947 53.5381C50.2513 53.0307 50.0755 52.7872 50.6434 52.2866C51.1168 51.874 51.3534 51.7861 51.7591 51.2246C51.874 51.069 52.4488 50.1829 52.3203 50.0544C51.9484 49.9935 51.252 50.3385 50.995 49.9935C50.7719 49.3576 50.3392 48.6406 50.1566 48.0047C50.0484 47.6124 50.2986 47.0036 49.8321 46.8006C49.2438 46.5504 48.9463 47.5989 48.9057 48.025C48.8787 48.3091 48.9395 48.6135 48.8922 48.8909C48.8651 49.0397 48.6623 49.6553 48.5135 49.6891C48.4189 49.7161 47.4655 49.2561 47.4114 49.1614C47.1815 48.7691 47.452 47.6056 47.2491 47.3553ZM68.3926 46.043C68.2912 46.0295 68.2101 46.043 68.1154 46.0904C67.419 46.3812 66.9254 46.8886 66.3642 47.335C63.7136 49.4455 59.3051 49.4185 56.1271 50.3993L53.8349 50.4602C53.5847 50.4129 53.3278 49.8514 53.0979 49.8988C52.9153 50.0002 52.8815 50.3182 52.7666 50.5143C52.5502 50.8932 52.3 51.2652 52.0499 51.6237C52.0161 51.7387 52.0363 51.8064 52.0972 51.9078C52.2054 52.0837 52.9289 52.334 52.9762 52.4152C53.1452 52.6858 52.2865 53.5043 52.1039 53.7343C51.5224 54.4716 51.2452 54.6745 51.1641 55.6757C51.0965 56.4739 51.6577 57.4615 51.9958 58.1988C52.5367 59.3623 53.2737 60.5596 53.7673 61.7299C54.0175 62.3184 54.1527 62.9678 54.4097 63.5563C55.167 65.2677 57.1481 66.5056 58.8182 67.2159C59.0413 67.3106 59.7378 67.4459 59.7648 67.6894C59.7648 68.0276 59.3794 67.96 59.1428 67.9532C58.6019 67.9262 57.4659 67.8382 56.9723 67.7165C56.7965 67.6691 56.6613 67.5541 56.499 67.4865C56.499 67.7435 57.6552 68.5417 57.4727 68.7244C56.9385 68.6229 55.505 68.6162 55.1467 68.2576C54.4029 67.1483 53.5239 66.1336 52.7733 65.0377C52.1175 64.0772 52.2121 63.5969 51.8267 62.6296C51.3331 61.412 50.7246 60.4176 50.3121 59.085C49.9605 57.9621 49.8388 56.6903 49.5143 55.6486C49.3926 55.2563 49.2438 55.1142 48.926 54.8842C48.6893 54.7083 47.4452 53.9981 47.3843 53.8966C47.3438 53.8357 47.3505 53.7816 47.3573 53.7207L47.8306 53.5719C47.4925 53.2201 46.5865 53.254 46.2078 53.4772C46.0185 53.5922 45.8359 54.0116 45.6804 54.1875C44.5783 55.4524 43.0704 56.7242 41.8466 57.9147C40.7715 58.9632 39.6355 60.262 38.5131 61.2293C38.3779 61.3511 37.6273 61.7975 37.6003 61.8449C37.5665 61.9058 37.5868 62.0072 37.6206 62.0681L40.3523 64.341C40.9879 64.6725 40.9473 64.3478 41.3598 64.0501C42.0021 63.5834 42.7256 63.191 43.3274 62.6566C43.6046 62.4131 43.7601 62.1087 44.0035 61.8652C44.2131 61.6555 44.9028 61.0737 45.1665 61.0264C45.6466 60.9317 45.6534 61.3646 45.8157 61.642C46.7217 63.164 47.5263 64.2531 47.0936 66.1404C47.0327 66.4042 46.6271 67.3174 46.7217 67.4797L49.3317 68.7244C50.9207 68.8664 52.6313 68.7717 54.2068 68.9679C54.4096 68.995 54.741 69.11 54.7748 69.3467C54.7748 69.3873 54.6328 70.0705 54.6125 70.1246C54.5381 70.3073 54.315 70.3749 54.2203 70.4967C54.1324 70.6049 54.1054 70.7876 54.0107 70.8755C53.8755 70.9905 53.6591 70.9634 53.5036 71.0176C53.4225 71.0446 53.4022 70.9973 53.4225 71.1393L59.0752 71.2273C59.278 71.0108 59.3794 70.7199 59.4673 70.4426C60.015 68.7785 59.8866 67.5271 60.0759 65.8765C60.4004 63.0896 60.8129 60.2891 61.1848 57.5088C61.2727 56.8594 61.2389 56.1559 61.435 55.5201C62.3004 54.9248 63.1659 53.9575 64.0652 53.4366C64.3154 53.2946 64.6197 53.2269 64.8496 53.1051C66.1681 52.4219 67.3311 51.6237 68.582 50.8323C69.3866 50.3249 70.2791 49.9123 71.0432 49.29C71.1987 49.1614 71.6247 48.8165 71.4219 48.6135L68.4806 46.5571C68.2912 46.4151 68.3791 46.2459 68.4265 46.0565L68.3926 46.043ZM32.617 46.5165C32.3939 47.078 32.8334 47.335 33.0768 47.7341C33.807 48.9517 33.8003 49.6755 33.9152 51.0149C33.9355 51.2787 34.0505 51.989 34.4021 51.9214C34.8686 51.8267 34.5779 51.3531 34.6252 51.0217C34.659 50.812 34.9295 50.5279 34.9092 50.3858C34.8821 50.1761 34.3142 49.8379 34.1586 49.662C33.7732 49.2291 33.9085 47.91 33.5907 47.3486C33.5231 47.2268 32.732 46.4421 32.6238 46.5233L32.617 46.5165ZM24.2664 57.2789C24.2258 57.2518 24.2123 57.0015 24.0433 56.9474C23.8472 56.8865 23.2589 57.0083 23.171 56.8797C23.0358 56.6159 23.3807 56.068 23.3198 55.8515C23.2657 55.6824 23.0764 55.7501 22.9682 55.838C22.9006 55.8921 22.5828 56.528 22.5084 56.6768C22.0419 57.6103 21.4401 59.0241 21.2102 60.032C21.102 60.5191 21.102 60.6273 21.5145 60.8911C22.6504 61.6014 25.2672 62.3387 26.5857 62.2981C26.7074 62.2981 27.1604 62.2372 27.2348 62.1831L28.9049 59.7208C29.0063 59.3353 29.9394 58.3138 29.9665 58.023C29.9867 57.7591 29.1145 57.3803 28.8711 57.3533C28.3707 57.2991 27.654 57.9688 27.2348 57.7524C27.0184 57.6374 27.0184 57.4006 26.7006 57.4006C26.3828 57.4006 25.3956 57.9959 25.2266 57.7591L25.017 57.1165C24.8614 57.0083 24.4896 57.4209 24.2664 57.2789ZM35.1864 59.3691C34.8889 59.1188 34.4224 59.4367 34.1248 59.5991C33.4216 59.9846 32.5291 60.7423 32.3871 61.5743C32.333 61.9125 32.9619 62.5687 33.1985 62.7987C34.8416 64.3748 37.0661 65.5654 38.5605 67.3241C40.9811 68.0682 43.4018 69.0829 45.8562 69.6849C46.4715 69.8338 47.3235 69.8608 47.8779 70.1923C48.1281 70.3411 48.1755 70.6726 48.4797 70.7131C48.6758 70.7402 48.8246 70.659 49.0004 70.6523C50.3256 70.6252 51.5224 70.7808 52.8815 70.6523C53.0235 70.6387 53.4901 70.5441 53.5915 70.4764C53.7065 70.402 53.72 70.2532 53.8011 70.1585C53.8687 70.0773 54.0242 70.0367 54.0648 69.9555C54.1324 69.8135 54.0783 69.5835 54.0919 69.4279C53.5509 69.4685 53.01 69.3467 52.4758 69.3061C51.4751 69.2385 50.258 69.3061 49.2979 69.1911C48.7434 69.1303 45.9712 67.6691 45.2883 67.3174C44.247 66.7762 43.1922 66.0321 42.1712 65.5451C41.5085 65.2271 40.5754 65.0445 39.9804 64.6792C39.3854 64.3139 37.296 62.5958 36.8295 62.0614C36.2142 61.3511 35.9505 60.0117 35.1864 59.3759V59.3691ZM46.2011 67.1144C46.485 66.3095 46.7352 65.6668 46.6811 64.7942C46.6338 64.111 46.2011 63.279 45.863 62.6702C45.7616 62.4875 45.3694 61.7772 45.268 61.6758C45.0313 61.4526 44.531 61.9328 44.3484 62.1155C44.1185 62.3522 43.9697 62.6837 43.7331 62.9137C43.4356 63.2045 42.8135 63.6104 42.4551 63.8742C42.0968 64.1381 41.6438 64.2598 41.4409 64.6725C41.8736 64.9701 42.4146 65.146 42.8879 65.403C43.8277 65.9104 44.8352 66.6545 45.8292 67.0536C45.9509 67.1009 46.0658 67.1483 46.2011 67.1144ZM33.2053 63.536C33.1174 63.5901 33.0836 64.7942 33.2323 64.828C33.327 64.8483 34.0234 64.2869 34.0099 64.1042C33.9964 63.9554 33.3337 63.4549 33.2053 63.5428V63.536ZM30.5547 69.9488C30.8117 69.9623 31.0551 69.8608 31.2917 69.7729C32.2045 69.4482 33.469 68.9409 34.3345 68.5215C35.2878 68.0547 36.1939 67.3512 37.1473 66.8574L37.2014 66.6342C36.5184 66.1133 35.8896 65.5045 35.1999 64.9836C35.0377 64.8551 34.5508 64.4425 34.3818 64.5101L32.2113 66.58C31.623 67.6827 30.8319 68.7109 30.5547 69.9555V69.9488ZM39.4259 88.5917C39.4868 88.5308 39.6288 87.78 39.6626 87.6176C40.1021 85.1554 40.0953 82.3278 41.0961 80.0482C42.2388 77.4573 43.9697 74.9274 45.1395 72.3231C45.3897 71.7752 45.5722 71.1867 45.7886 70.6252L45.4573 70.0773C43.3747 69.3467 41.1502 68.7853 39.0879 68.0344C38.858 67.9532 38.4928 67.8247 38.3035 67.703C38.0601 67.5406 37.8708 67.1144 37.5936 67.1415C36.5117 67.7029 35.4975 68.4809 34.4021 69.0017C33.1038 69.6105 31.6907 70.0367 30.3857 70.632C29.8177 71.1055 29.696 71.7075 29.4526 72.3501C29.385 72.5328 29.243 72.6884 29.1753 72.8981C28.8778 73.8654 29.5202 75.0018 29.7028 75.9556C30.433 77.2409 30.9604 78.9117 31.7651 80.1293C31.9544 80.4134 32.3127 80.7314 32.5224 81.0222C33.4284 82.2601 34.3345 83.5116 35.1999 84.7698C35.6056 85.3516 36.8092 87.4688 37.2825 87.7394C37.5597 87.9017 38.9121 88.585 39.1487 88.6459C39.2366 88.6661 39.3651 88.6661 39.4259 88.5985V88.5917ZM46.4783 70.6117C46.2484 70.6387 46.0253 71.1529 46.2416 71.2949L48.899 72.1134C49.379 72.2758 49.5278 71.7481 49.2911 71.4234L46.4783 70.6117ZM50.1566 71.8361C50.1431 71.9781 50.0146 72.2149 50.1566 72.3299C50.5082 72.3434 50.7854 72.5869 51.0965 72.6816C51.2588 72.729 51.4886 72.7696 51.6712 72.8102C52.1986 72.9387 53.2872 73.1484 53.7605 72.8778C53.9296 72.7831 53.9972 72.2487 53.8214 72.1878L51.421 72.0593L50.1634 71.8293L50.1566 71.8361ZM58.7979 72.8304C58.8791 72.6207 58.8655 72.3637 58.71 72.181H54.9168C54.8356 72.3163 54.8221 72.8304 55.0047 72.8304H58.7979ZM21.7849 92.0822C21.3319 92.0214 20.9735 91.6222 20.7707 91.2367C20.6422 90.9931 20.5813 90.4791 20.2974 90.3573C20.0472 90.2491 19.6956 90.4317 19.4048 90.4317C19.2088 90.4317 18.8977 90.3437 18.7693 90.3776C18.6205 90.4182 18.1945 91.2299 18.0931 91.4126C17.9714 91.6493 17.2952 93.0496 17.4304 93.1916C18.3162 93.0022 19.1817 92.7587 20.0607 92.5558C20.365 92.4881 20.6219 92.4475 20.933 92.3663C21.2169 92.2987 21.6294 92.3325 21.7849 92.0687V92.0822ZM17.1397 90.9052C16.4771 91.0473 15.7671 90.7632 15.1045 90.7293C14.9963 90.7293 14.9016 90.709 14.8137 90.7902C14.7664 90.8308 14.4215 91.5952 14.4351 91.6358C14.8881 91.886 15.3817 91.9334 15.4831 92.5422C15.5034 92.6843 15.287 93.2796 15.1924 93.4013C15.0842 93.5366 14.9084 93.5839 14.7867 93.7057C14.6649 93.8274 13.8265 94.6528 13.9617 94.7948C14.6582 94.4836 14.861 93.6381 15.7062 93.5095C15.855 93.4892 16.024 93.5298 16.1593 93.4892C16.5109 93.3878 16.5853 92.0755 16.7002 91.7372C16.8084 91.4261 17.1262 91.2366 17.1397 90.9119V90.9052ZM45.7954 93.7869C45.9982 93.8274 46.0456 93.6448 46.1335 93.5095C46.3295 93.2254 46.7961 92.4678 46.6203 92.1634C46.3634 92.0011 45.7413 91.0473 45.4708 91.0743C45.3288 91.0879 45.011 91.5817 45.0313 91.7508C45.0516 91.9672 45.4438 92.461 45.5452 92.7113C45.6804 93.0563 45.721 93.4283 45.7954 93.7869ZM12.7514 92.2784C12.1767 93.0428 11.1489 94.6325 12.1158 95.4307L12.3863 95.1803L13.955 91.6763L13.8468 91.399C13.7454 91.3517 13.6507 91.3517 13.556 91.399C13.4479 91.4531 12.8664 92.1296 12.7582 92.2784H12.7514ZM47.0665 93.4351C46.9178 93.469 46.6338 94.4566 46.6879 94.6257C46.769 94.8895 47.5263 94.9571 47.5601 94.6933C47.5601 94.6527 47.4993 94.1251 47.4858 94.0642C47.452 93.9357 47.2153 93.4013 47.0665 93.4351ZM36.2615 95.5524C36.0587 95.5524 35.8829 95.5795 35.6868 95.5051C35.3893 95.3968 34.6455 94.6933 34.3142 94.4701C33.7732 94.1048 33.0227 93.5298 32.3803 93.8883C32.2316 94.7813 31.9679 95.6471 31.8056 96.54C31.2174 99.7599 31.569 102.993 31.3188 106.234C31.2579 107.045 30.7914 107.749 30.5953 108.513C30.5547 108.676 30.4871 108.851 30.6899 108.926L33.6515 109.968C33.8679 110.103 34.5441 109.501 34.5576 109.352C34.5914 109.034 33.9626 108.263 33.9085 107.762C34.0437 106.565 34.1451 105.347 34.3209 104.17C34.5035 102.905 34.9092 101.884 35.2337 100.666C35.4028 100.037 36.4982 95.7824 36.2615 95.5457V95.5524ZM44.1455 107.093C44.1591 107.011 44.1455 106.937 44.1185 106.856C43.7466 105.604 42.942 104.211 42.4957 102.946C42.2591 102.256 42.1374 101.532 41.8872 100.842C41.2381 99.0226 40.2914 97.1962 39.5476 95.4104C39.4733 95.221 39.2704 94.4769 39.1555 94.443C38.9323 94.3754 37.979 94.9774 37.7085 95.0924C37.5192 95.1736 36.8633 95.2818 36.7957 95.4713C36.6199 97.3721 36.1263 99.2323 35.6259 101.072C35.1661 102.77 34.8348 103.927 34.6117 105.713C34.5238 106.436 34.2736 107.485 34.5373 108.128C34.6861 108.493 34.943 108.851 35.085 109.223L37.2555 111.118C37.4786 111.226 37.553 110.881 37.695 110.732C38.0466 110.373 38.7971 110.137 39.2907 110.089C39.6017 110.056 39.9804 110.13 40.2711 110.069C40.474 110.028 41.3395 109.555 41.5694 109.42C41.7046 109.345 42.2929 108.987 42.347 108.906C42.3808 108.858 42.3875 108.811 42.374 108.757C42.3334 108.628 41.9075 108.73 42.0494 108.432C42.1914 108.134 42.9893 107.898 43.1516 107.593C43.2057 107.485 43.1786 107.343 43.2801 107.255C43.4491 107.106 43.9156 106.978 44.1388 107.079L44.1455 107.093ZM48.5609 94.9639H48.3242V95.1398C48.4324 95.1533 48.5 95.1398 48.5609 95.0519V94.9639ZM43.8818 109.798C44.0441 109.846 44.7608 109.798 44.9975 109.798C45.0516 109.798 45.5655 109.981 45.6534 110.022C45.8968 110.137 46.1943 110.468 46.4039 110.448C46.5594 110.428 46.8975 110.164 47.1139 110.089C47.6278 109.913 49.379 109.724 49.6427 109.21C49.69 109.122 49.7374 108.966 49.5819 108.973C49.2573 108.993 48.5879 109.494 48.216 109.609C47.1274 109.947 45.4911 108.872 44.4633 109.041C44.1388 109.095 43.4897 109.69 43.8683 109.805L43.8818 109.798ZM45.7954 111.036C45.8224 110.888 45.7616 110.86 45.6737 110.773C45.1868 110.313 43.7939 110.502 43.1178 110.502C42.9825 110.502 42.8541 110.57 42.7121 110.563C42.2523 110.536 41.8534 110.028 41.4139 109.92C40.9338 110.143 40.4064 110.326 40.0345 110.712C40.0074 110.847 40.0886 110.786 40.1697 110.806C40.2982 110.84 40.3996 110.854 40.5281 110.861C41.7993 110.935 43.4085 110.61 44.6527 110.739C44.842 110.759 45.7548 111.077 45.8021 111.036H45.7954ZM36.2074 112.098C36.3494 111.963 35.5989 111.09 35.396 111.05C35.2743 111.023 35.0985 111.145 34.943 111.158C34.4224 111.199 33.8611 111.118 33.3473 111.043L33.212 111.138C33.1715 111.28 33.3067 111.456 33.3202 111.605C33.3405 111.821 33.2729 112.234 33.354 112.396C33.3946 112.484 33.9085 112.775 34.0167 112.795C34.3209 112.856 34.3547 112.64 34.5779 112.497C35.0444 112.207 35.6665 112.125 36.2074 112.098ZM37.3366 112.085C37.4516 112.193 38.0804 112.22 38.0263 112.01C37.8234 111.936 37.3569 111.517 37.269 111.848C37.2487 111.916 37.2893 112.038 37.3366 112.085Z" fill="#6F7A58" stroke="#6F7A58" stroke-width="0.85" stroke-linecap="round" stroke-linejoin="round"/>
<path d="M97.3459 0.477317C97.853 0.233795 98.1911 0.903472 98.4886 1.18758C99.1715 1.82344 99.8612 1.88433 100.639 2.33078C101.105 2.5946 101.592 3.1087 101.518 3.68368C101.423 4.38043 100.253 4.13692 100.179 4.58338C100.138 4.81337 100.355 5.8551 100.476 6.0851C100.74 6.58567 101.011 6.47742 101.349 6.748C101.815 7.11329 101.856 7.03212 102.343 7.28241C103.594 7.9115 103.999 9.67027 104.851 10.7188C105.311 11.1585 106.204 10.8744 106.528 11.4832V11.659C106.359 12.0784 105.757 11.9296 105.44 12.1867C105.041 12.5114 104.675 14.3445 104.513 14.906C103.776 17.4562 103.066 20.0267 102.383 22.6108C102.194 23.3278 101.856 24.1734 101.721 24.8904C101.673 25.1542 101.741 25.8915 101.68 26.0268C101.585 26.2162 101.024 26.1757 100.821 26.2298C99.7868 26.5139 99.8747 28.0291 99.2662 28.5635C98.901 28.8815 98.7049 28.7124 99.0566 29.355C99.3338 29.8556 100.247 30.6132 100.274 31.1341C100.307 31.7226 99.3676 31.3776 99.4623 32.0676L99.4081 61.7434C99.4014 62.0005 99.6178 62.0343 99.7259 62.2508C99.8138 62.4199 99.8409 62.6769 99.9491 62.8528C100.118 63.1369 100.395 63.2384 100.301 63.7119C100.916 63.766 101.268 64.2733 101.383 64.8348C101.518 65.4774 101.268 66.0118 100.855 66.4853C100.754 66.6003 100.382 66.8844 100.348 66.9386C100.253 67.1009 100.307 67.3985 100.267 67.6082C100.213 67.8721 99.9626 68.0547 99.9356 68.2779C99.9153 68.4673 99.9964 68.6297 100.003 68.8056C100.037 70.1449 99.9356 71.4775 99.9423 72.8169C99.9558 78.4517 100.01 84.1272 99.8815 89.7687C99.8747 90.0732 99.8341 90.682 99.8815 90.9458C99.9423 91.2705 100.517 91.257 100.585 91.6561C100.605 91.7914 100.605 92.0281 100.564 92.1566C100.51 92.319 100.355 92.3393 100.267 92.4475C100.105 92.6572 100.253 92.7857 100.24 93.0022C100.084 95.5186 100.76 97.9606 101.173 100.423C101.227 100.761 101.126 100.923 101.308 101.289C101.89 102.479 102.052 103.44 102.471 104.657C102.769 105.51 103.418 106.666 103.526 107.546C103.56 107.81 103.499 108.094 103.546 108.351C103.587 108.581 103.851 109.284 103.945 109.541C104.094 109.954 104.277 109.798 104.621 109.927C105.27 110.171 105.764 110.759 105.717 111.483C105.696 111.767 105.5 112.01 105.48 112.193C105.46 112.416 105.683 112.707 105.419 112.89C105.054 113.147 104.446 112.985 104.04 113.045C103.675 113.1 103.039 113.384 102.593 113.485C101.024 113.844 99.2526 114.013 97.6501 114.047C97.2309 114.053 96.7508 113.992 96.3587 114.107H95.9462C95.527 113.992 95.0334 114.06 94.5939 114.047C93.7081 114.033 90.9629 113.938 90.3273 113.458C90.1515 113.323 90.3273 113.302 89.9487 113.221V113.106C89.9825 113.066 89.9892 112.985 90.0095 112.93L90.5031 113.045C90.5572 113.045 90.5437 112.924 90.5302 112.897C90.4896 112.802 89.7053 112.376 89.5295 112.132C89.3401 111.868 89.1238 111.408 89.1914 111.084C89.2658 110.725 89.6174 110.448 89.7593 110.177C89.8608 109.988 89.8472 109.731 90.0298 109.562C90.3206 109.298 90.6992 109.467 90.9426 109.359C91.3618 109.169 91.3686 107.952 91.443 107.559C91.6255 106.552 92.3693 105.422 92.6736 104.434C93.228 102.601 93.8569 100.687 94.2288 98.8062C94.6345 96.7497 94.8711 94.6798 94.8982 92.576C94.8508 92.204 94.4046 92.204 94.4857 91.5817C94.5533 91.0608 95.1889 91.0879 95.243 90.8105C95.243 86.3527 95.2565 81.9016 95.243 77.4438C95.243 75.8745 95.1686 74.3254 95.1754 72.7357C95.1754 71.3896 95.4188 69.4347 95.243 68.1426C95.2092 67.9127 95.0266 67.8179 94.9725 67.6488C94.8982 67.4188 94.9523 67.0806 94.8238 66.8574C94.7359 66.7018 94.2829 66.4177 94.1273 66.2012C93.8163 65.7683 93.7825 65.1865 93.8298 64.6657C93.8772 64.1448 94.1679 63.8945 94.506 63.5766C94.7629 63.3398 95.0672 62.9949 95.2565 62.6769C95.4188 62.3996 95.4256 62.0884 95.7298 61.8517C95.8651 53.1457 95.7028 44.4128 95.7704 35.6933C95.7772 34.5231 95.9394 33.1363 95.838 31.9864C95.7907 31.4249 95.5067 31.682 95.2498 31.4587C95.0402 31.2761 95.1483 31.019 95.2498 30.8093C95.4391 30.4305 96.4939 29.2806 96.4939 28.9829C96.4939 28.7394 96.2167 28.7326 96.0612 28.6041C95.4594 28.0968 95.6825 26.8724 94.6818 26.4327C94.3843 26.3042 94.0935 26.3312 93.8366 26.2162C93.4106 26.0336 93.6946 25.8104 93.7081 25.5128C93.7216 25.2151 93.5526 24.6536 93.4782 24.3357C92.5586 20.5679 91.2469 16.8745 90.2732 13.1134C90.111 12.9105 90.0095 12.4234 89.8067 12.2881C89.5768 12.1326 88.3394 12.1461 88.7248 11.5576C88.9209 11.2599 89.9419 11.1788 90.307 10.9082C90.4828 10.7729 90.6113 10.5158 90.7263 10.3264C91.3348 9.33881 91.7202 7.97239 92.7953 7.39064C93.37 7.07947 93.4038 7.1336 93.9312 6.70067C94.08 6.57891 94.2829 6.55183 94.4451 6.45036C94.7697 6.24066 94.8644 5.95656 94.9387 5.59128C94.9658 5.44923 95.0807 4.63073 95.0672 4.56308C94.9793 4.23162 93.7149 4.30603 93.654 3.67016C93.6202 3.25076 94.1071 2.66901 94.4248 2.43902C95.216 1.8708 95.9868 1.83022 96.7441 1.11318C96.9402 0.93054 97.1227 0.578792 97.3594 0.463795L97.3459 0.477317ZM98.6847 24.8363C99.0768 22.1102 99.4217 19.3773 99.7665 16.6445C99.8815 15.7245 100.071 14.791 100.172 13.871C100.213 13.5057 100.314 12.7481 100.206 12.4302C100.03 11.9161 99.6178 12.3828 99.3202 12.3761C98.7387 12.3761 97.9274 12.322 97.4135 12.1596C97.3526 12.1393 96.3113 12.1258 96.2099 12.1393C96.0206 12.1664 95.8448 12.3152 95.6825 12.3084C95.5067 12.3084 95.3918 12.1393 95.2227 12.1393C94.8305 12.1934 94.9252 13.1405 94.9455 13.4584C94.9928 14.1754 95.1957 14.9804 95.2903 15.7042C95.6622 18.5521 96.0679 21.3864 96.4736 24.2343C96.5007 24.4304 96.3789 24.8228 96.6359 24.8972C96.9199 24.931 98.59 24.9919 98.6982 24.8363H98.6847ZM100.984 24.9581C101.768 22.1914 102.539 19.4382 103.262 16.6715C103.418 16.083 103.573 15.4877 103.722 14.8925C103.857 14.3378 104.148 13.5261 104.168 12.9781C104.168 12.897 104.182 12.8293 104.094 12.7887C103.878 12.7008 103.925 13.0931 103.736 13.1269C103.675 13.1337 103.587 13.0796 103.512 13.0863C103.323 13.1066 103.201 13.1608 102.978 13.1337C102.552 13.0863 102.147 12.579 101.917 13.1337C101.362 14.4595 101.268 16.8609 101.058 18.3356C100.781 20.2838 100.328 22.4687 100.186 24.4101C100.172 24.5725 100.186 24.7416 100.192 24.9039C100.375 24.9513 100.855 25.1001 100.997 24.9581H100.984ZM93.2281 12.8428C93.1672 12.7887 92.2476 13.2487 92.0245 13.2555C91.9772 13.2555 91.612 13.1946 91.5917 13.1878C91.5106 13.1337 91.5309 12.7684 91.1117 12.9037C91.1117 12.9916 91.1117 13.0728 91.1117 13.1608C91.3078 14.7842 92.1124 16.9354 92.5519 18.5521C93.0252 20.2905 93.4512 22.0696 93.9583 23.7946C94.0191 23.9975 94.3099 25.0122 94.4046 25.0595C94.6142 25.1272 94.8576 25.0257 95.0537 24.9445C95.2227 24.7822 95.0266 24.471 94.9996 24.2884C94.5668 21.1632 94.1679 18.0244 93.6473 14.9263C93.5256 14.216 93.4985 13.5328 93.2281 12.8428ZM90.9291 113.1L90.5775 112.985C90.5166 113.235 91.0982 113.275 90.9291 113.1Z" fill="#6F7A58" stroke="#6F7A58" stroke-width="0.85" stroke-linecap="round" stroke-linejoin="round"/>
<path d="M95.9327 114.101H94.5804V114.04C95.0199 114.047 95.5135 113.986 95.9327 114.101Z" fill="#6F7A58" stroke="#6F7A58" stroke-width="0.85" stroke-linecap="round" stroke-linejoin="round"/>
<path d="M97.6366 114.04V114.101H96.3451C96.7441 113.986 97.2174 114.047 97.6366 114.04Z" fill="#6F7A58" stroke="#6F7A58" stroke-width="0.85" stroke-linecap="round" stroke-linejoin="round"/>
<path d="M89.9283 113.1V113.215C89.5767 113.14 89.9148 113.106 89.9283 113.1Z" fill="#6F7A58" stroke="#6F7A58" stroke-width="0.85" stroke-linecap="round" stroke-linejoin="round"/>
<path d="M2.12895 40.9223L2.1019 41.0373C1.96667 41.0846 1.43927 40.7261 1.5407 40.6247L2.12895 40.9223Z" fill="#6F7A58" stroke="#6F7A58" stroke-width="0.85" stroke-linecap="round" stroke-linejoin="round"/>
<path d="M48.5609 94.9639V95.0519C48.5 95.1466 48.4324 95.1533 48.3242 95.1398V94.9639H48.5609Z" fill="#6F7A58" stroke="#6F7A58" stroke-width="0.85" stroke-linecap="round" stroke-linejoin="round"/>
<path d="M90.9291 113.1C91.0981 113.275 90.5166 113.228 90.5775 112.985L90.9291 113.1Z" fill="#6F7A58" stroke="#6F7A58" stroke-width="0.85" stroke-linecap="round" stroke-linejoin="round"/>
</svg>
